<?xml version="1.0" encoding="UTF-8" standalone="no"?>
<svg width="230px" height="275px" viewBox="0 0 230 275" version="1.1" xmlns="http://www.w3.org/2000/svg" xmlns:xlink="http://www.w3.org/1999/xlink" xmlns:sketch="http://www.bohemiancoding.com/sketch/ns">
    <title>code</title>
    <description>Created with Sketch (http://www.bohemiancoding.com/sketch)</description>
    <defs></defs>
    <g id="Page 1" stroke="none" stroke-width="1" fill="none" fill-rule="evenodd">
        <g id="code" transform="translate(-38.000000, -59.000000)">
            <g id="browser" transform="translate(38.000000, 59.000000)">
                <path d="M1.95367509,0 C0.874690133,0 0,0.883020163 0,1.96191406 L0,16 L230,16 L230,1.96191406 C230,0.878378845 229.12085,0 228.046325,0 L1.95367509,0 Z M1.95367509,0" id="nav" fill="#D4D4D4"></path>
                <g id="Group" transform="translate(6.000000, 7.000000)" fill="#F3F0F0">
                    <path d="M2,4 C3.10456955,4 4,3.10456955 4,2 C4,0.895430446 3.10456955,0 2,0 C0.895430446,0 0,0.895430446 0,2 C0,3.10456955 0.895430446,4 2,4 Z M2,4" id="Oval 1"></path>
                    <path d="M10,4 C11.1045696,4 12,3.10456955 12,2 C12,0.895430446 11.1045696,0 10,0 C8.89543045,0 8,0.895430446 8,2 C8,3.10456955 8.89543045,4 10,4 Z M10,4" id="Oval 1 copy"></path>
                    <path d="M18,4 C19.1045696,4 20,3.10456955 20,2 C20,0.895430446 19.1045696,0 18,0 C16.8954304,0 16,0.895430446 16,2 C16,3.10456955 16.8954304,4 18,4 Z M18,4" id="Oval 1 copy 2"></path>
                </g>
                <path d="M0,16 L0,275 L230,275 L230,16 L0,16 Z M0,16" id="Rectangle 15" fill="#4A4A4A"></path>
                <g id="cool" transform="translate(29.000000, 31.000000)">
                    <path d="M2.99593743,0 C1.34132688,0 0,1.34651712 0,3 L0,3 C0,4.65685425 1.33730974,6 2.99593743,6 L57.0040626,6 C58.6586731,6 60,4.65348288 60,3 L60,3 C60,1.34314575 58.6626903,0 57.0040626,0 L2.99593743,0 Z M2.99593743,0" id="Rectangle 69" fill="#A8E7D6"></path>
                    <path d="M2.99485885,14 C1.34084398,14 0,15.3465171 0,17 L0,17 C0,18.6568542 1.33647919,20 2.99485885,20 L74.0051411,20 C75.659156,20 77,18.6534829 77,17 L77,17 C77,15.3431458 75.6635208,14 74.0051411,14 L2.99485885,14 Z M2.99485885,14" id="Rectangle 69 copy" fill="#F9EA89"></path>
                    <path d="M32.9948589,28 C31.340844,28 30,29.3465171 30,31 L30,31 C30,32.6568542 31.3364792,34 32.9948589,34 L104.005141,34 C105.659156,34 107,32.6534829 107,31 L107,31 C107,29.3431458 105.663521,28 104.005141,28 L32.9948589,28 Z M32.9948589,28" id="Rectangle 69 copy 2" fill="#EC9E92"></path>
                    <path d="M32.9948589,42 C31.340844,42 30,43.3465171 30,45 L30,45 C30,46.6568542 31.3364792,48 32.9948589,48 L104.005141,48 C105.659156,48 107,46.6534829 107,45 L107,45 C107,43.3431458 105.663521,42 104.005141,42 L32.9948589,42 Z M32.9948589,42" id="Rectangle 69 copy 3" fill="#EC9E92"></path>
                    <path d="M8.99263394,56 C7.33984785,56 6,57.3465171 6,59 L6,59 C6,60.6568542 7.3389342,62 8.99263394,62 L30.0073661,62 C31.6601521,62 33,60.6534829 33,59 L33,59 C33,57.3431458 31.6610658,56 30.0073661,56 L8.99263394,56 Z M8.99263394,56" id="Rectangle 69 copy 4" fill="#BA9FE5"></path>
                    <path d="M8.99263394,70 C7.33984785,70 6,71.3465171 6,73 L6,73 C6,74.6568542 7.3389342,76 8.99263394,76 L30.0073661,76 C31.6601521,76 33,74.6534829 33,73 L33,73 C33,71.3431458 31.6610658,70 30.0073661,70 L8.99263394,70 Z M8.99263394,70" id="Rectangle 69 copy 5" fill="#BA9FE5"></path>
                    <path d="M9.00125831,84 C7.34370912,84 6,85.3465171 6,87 L6,87 C6,88.6568542 7.34596999,90 9.00125831,90 L110.998742,90 C112.656291,90 114,88.6534829 114,87 L114,87 C114,85.3431458 112.65403,84 110.998742,84 L9.00125831,84 Z M9.00125831,84" id="Rectangle 69 copy 6" fill="#A8E7D6"></path>
                    <path d="M9.00963453,98 C7.34745928,98 6,99.3465171 6,101 L6,101 C6,102.656854 7.33359642,104 9.00963453,104 L77.9903655,104 C79.6525407,104 81,102.653483 81,101 L81,101 C81,99.3431458 79.6664036,98 77.9903655,98 L9.00963453,98 Z M9.00963453,98" id="Rectangle 69 copy 7" fill="#F9EA89"></path>
                    <path d="M19.9933697,112 C18.3401773,112 17,113.346517 17,115 L17,115 C17,116.656854 18.3477638,118 19.9933697,118 L127.00663,118 C128.659823,118 130,116.653483 130,115 L130,115 C130,113.343146 128.652236,112 127.00663,112 L19.9933697,112 Z M19.9933697,112" id="Rectangle 69 copy 8" fill="#EC9E92"></path>
                    <path d="M29.0065012,126 C27.3460564,126 26,127.346517 26,129 L26,129 C26,130.656854 27.3423094,132 29.0065012,132 L62.9934988,132 C64.6539436,132 66,130.653483 66,129 L66,129 C66,127.343146 64.6576906,126 62.9934988,126 L29.0065012,126 Z M29.0065012,126" id="Rectangle 69 copy 9" fill="#BA9FE5"></path>
                    <path d="M21.9962474,140 C20.3414656,140 19,141.346517 19,143 L19,143 C19,144.656854 20.3476562,146 21.9962474,146 L136.003753,146 C137.658534,146 139,144.653483 139,143 L139,143 C139,141.343146 137.652344,140 136.003753,140 L21.9962474,140 Z M21.9962474,140" id="Rectangle 69 copy 10" fill="#EC9E92"></path>
                    <path d="M20.9928014,154 C19.3399228,154 18,155.346517 18,157 L18,157 C18,158.656854 19.3380125,160 20.9928014,160 L115.007199,160 C116.660077,160 118,158.653483 118,157 L118,157 C118,155.343146 116.661987,154 115.007199,154 L20.9928014,154 Z M20.9928014,154" id="Rectangle 69 copy 11" fill="#A8E7D6"></path>
                    <path d="M8.99593743,168 C7.34132688,168 6,169.346517 6,171 L6,171 C6,172.656854 7.33730974,174 8.99593743,174 L63.0040626,174 C64.6586731,174 66,172.653483 66,171 L66,171 C66,169.343146 64.6626903,168 63.0040626,168 L8.99593743,168 Z M8.99593743,168" id="Rectangle 69 copy 12" fill="#F9EA89"></path>
                    <path d="M16.9978123,182 C15.3421663,182 14,183.346517 14,185 L14,185 C14,186.656854 15.3508546,188 16.9978123,188 L97.0021877,188 C98.6578337,188 100,186.653483 100,185 L100,185 C100,183.343146 98.6491454,182 97.0021877,182 L16.9978123,182 Z M16.9978123,182" id="Rectangle 69 copy 13" fill="#A8E7D6"></path>
                    <path d="M17.0065012,196 C15.3460564,196 14,197.346517 14,199 L14,199 C14,200.656854 15.3423094,202 17.0065012,202 L50.9934988,202 C52.6539436,202 54,200.653483 54,199 L54,199 C54,197.343146 52.6576906,196 50.9934988,196 L17.0065012,196 Z M17.0065012,196" id="Rectangle 69 copy 14" fill="#BA9FE5"></path>
                    <path d="M3.0065012,210 C1.34605644,210 0,211.346517 0,213 L0,213 C0,214.656854 1.34230941,216 3.0065012,216 L36.9934988,216 C38.6539436,216 40,214.653483 40,213 L40,213 C40,211.343146 38.6576906,210 36.9934988,210 L3.0065012,210 Z M3.0065012,210" id="Rectangle 69 copy 15" fill="#F9EA89"></path>
                    <path d="M3.0065012,224 C1.34605644,224 0,225.346517 0,227 L0,227 C0,228.656854 1.34230941,230 3.0065012,230 L36.9934988,230 C38.6539436,230 40,228.653483 40,227 L40,227 C40,225.343146 38.6576906,224 36.9934988,224 L3.0065012,224 Z M3.0065012,224" id="Rectangle 69 copy 16" fill="#A8E7D6"></path>
                </g>
            </g>
        </g>
    </g>
</svg>