<?xml version="1.0" encoding="UTF-8" standalone="no"?>
<svg width="34px" height="24px" viewBox="0 0 34 24" version="1.1" xmlns="http://www.w3.org/2000/svg" xmlns:xlink="http://www.w3.org/1999/xlink" xmlns:sketch="http://www.bohemiancoding.com/sketch/ns">
    <!-- Generator: Sketch 3.0.3 (7891) - http://www.bohemiancoding.com/sketch -->
    <title>buffalo-red-large</title>
    <desc>Created with Sketch.</desc>
    <defs></defs>
    <g id="Page-1" stroke="none" stroke-width="1" fill="none" fill-rule="evenodd" sketch:type="MSPage">
        <g id="buffalo-red-large" sketch:type="MSLayerGroup" transform="translate(1.000000, 1.000000)" fill="#EC6F66">
            <path d="M6.2684832,9.7591267 C6.25034606,9.72562326 6.25034606,9.72562326 6.23323727,9.69394829 C5.94853865,9.16587134 5.84958678,8.73849739 5.84958678,7.42716957 C5.84958678,5.63470968 6.98958516,4.11725199 8.24900826,4.11725199 C8.78676147,4.11725199 9.22257435,4.11520025 10.0001815,4.10996901 C10.676518,4.10541906 10.8716173,4.10425984 11.1916874,4.103307 C11.9168706,4.10114815 12.5277962,4.10490859 13.1726804,4.11708774 C14.4935686,4.14203376 15.3066894,3.80221559 16.3653832,2.99433628 C16.4186532,2.95368644 16.6663798,2.7624471 16.7339164,2.71110188 C17.7023656,1.97483104 18.4389064,1.68853306 19.9128926,1.68853306 C22.0509443,1.68853306 23.1650728,2.5500688 23.7698643,4.14163474 C23.9103535,4.51134546 24.0187228,4.90915912 24.1129162,5.37098447 C24.1651663,5.62716383 24.2986107,6.3992306 24.3131188,6.47414467 C24.3643389,6.73862634 24.4125382,6.92659053 24.4856354,7.10156403 C24.6651107,7.53117587 24.9803521,7.8586432 25.5204958,7.85864325 C25.8900536,7.85864329 26.1819953,7.75793219 26.4704357,7.56741019 C26.5011046,7.54715266 26.6858864,7.41616331 26.7260549,7.39175511 C26.9242357,7.27133142 27.2361781,7.19731397 27.9039669,7.19731397 C29.3280903,7.19731397 30.3583471,8.69421119 30.3583471,11.7847799 C30.3583471,13.2875369 30.0662431,14.2282468 29.6157225,14.7400024 C29.4750132,14.899837 29.3274553,15.0051922 29.1799241,15.0680872 C29.0879773,15.1072856 29.0109175,15.1232777 28.9882645,15.1232777 C28.3763572,15.1232777 28.120127,15.4329339 27.7916073,16.0567532 C27.6517622,16.3223022 27.5093201,16.6502669 27.3256122,17.1121952 C27.2899911,17.2017634 27.2530009,17.2958673 27.2090121,17.4086125 C26.8602771,18.3024345 26.8681383,18.2826026 26.7682689,18.5069205 C26.7130228,18.6310094 26.669592,18.716973 26.6464417,18.7535315 C26.6554545,18.7392987 26.6730526,18.7162813 26.7123885,18.6780935 C26.8477153,18.5467167 27.0304292,18.4469692 27.2978512,18.4469692 C27.5722418,18.4469692 27.762581,18.5534891 27.900473,18.6934641 C27.9425294,18.7361557 27.9620679,18.7633101 27.9729171,18.7817569 C27.9532996,18.7484014 27.9148286,18.6647569 27.866267,18.5432647 C27.7765518,18.318814 27.7618707,18.2769075 27.4774834,17.4484317 C27.4286527,17.3061784 27.389538,17.1933733 27.3515094,17.0855742 C27.1952937,16.6427519 27.0707646,16.3237156 26.9462086,16.0658861 C26.6444899,15.4413319 26.3951379,15.1232777 25.7702479,15.1232777 C25.3834215,15.1232777 25.3834215,15.1232777 24.7805118,15.1232777 C23.9582271,15.1232777 23.9582271,15.1232777 23.6841322,15.1232777 L22.7241322,15.1232777 L22.7241322,16.1232777 L22.7241322,21.0650822 L23.6841322,20.0650822 L21.5781818,20.0650822 L22.5381818,21.0650822 C22.5381818,20.8212204 22.5381818,20.8212204 22.5381818,20.0896352 C22.5381818,19.4886735 22.5381818,19.4886735 22.5381818,19.1580574 C22.5381818,18.7488066 22.2006615,18.021304 21.6605319,17.036326 C20.8404548,15.5408369 20.5542815,15.1232779 19.8282646,15.1232778 C19.7182069,15.1232778 17.1051307,15.1432453 16.8644714,15.1449966 C16.5471404,15.1473058 16.2460439,15.1494347 15.9572639,15.1514026 C14.5162527,15.1612224 13.437084,15.1666667 12.779453,15.1666667 C12.2538631,15.1666667 11.8176311,14.94774 11.3143501,14.4887995 C11.1771469,14.3636843 10.737459,13.9227282 10.6735316,13.8626257 C10.2896639,13.5017254 9.99834535,13.3157706 9.55173405,13.3157713 C8.91199342,13.3157724 8.5517123,13.6811639 8.25332415,14.2708029 C8.25602689,14.2654621 7.85702115,15.1542296 7.71481521,15.3927782 C7.5899299,15.6022717 7.45514615,15.7753989 7.29919768,15.920753 C7.11316879,16.094144 6.88368277,16.2559657 6.61984779,16.4030778 C6.30138355,16.5806508 5.95250429,16.7266 5.60281662,16.8404238 C5.39490241,16.9081001 5.23848305,16.9486424 5.16182768,16.9646983 L4.39107438,17.1261372 L4.39107438,17.9450752 L4.39107438,21.0650821 L5.35107438,20.0650821 L3.06842975,20.0650821 L4.02842975,21.0650821 C4.02842975,20.8355425 4.02842975,20.8355425 4.02842975,19.9743391 C4.02842975,19.372254 4.02842975,19.372254 4.02842975,18.7075405 C4.02842975,17.9364545 4.02842975,17.9364545 4.02842975,17.2631318 C4.02842975,16.6875724 4.02842975,16.6875724 4.02842975,16.405303 C4.02842975,16.6806789 3.92281062,16.8718777 3.79633445,16.990884 C3.78642053,17.0002123 3.87560847,16.9490108 4.11481733,16.8247732 C4.50787419,16.6206318 4.74537789,16.4848902 5.02371992,16.2886466 C6.18042927,15.4731147 6.86280992,14.2939738 6.86280992,12.6051992 C6.86280992,11.2057269 6.70085934,10.5584074 6.2684832,9.7591267 Z M3.94751974,14.6323661 C3.74244879,14.7769503 2.7212444,15.3073319 2.50932604,15.506734 C2.27021118,15.7317263 2.10842975,16.0245938 2.10842975,16.405303 C2.10842975,16.6875724 2.10842975,16.6875724 2.10842975,17.2631318 C2.10842975,17.9364545 2.10842975,17.9364545 2.10842975,18.7075405 C2.10842975,19.372254 2.10842975,19.372254 2.10842975,19.9743391 C2.10842975,20.8355425 2.10842975,20.8355425 2.10842975,21.0650821 L2.10842975,22.0650821 L3.06842975,22.0650821 L5.35107438,22.0650821 L6.31107438,22.0650821 L6.31107438,21.0650821 L6.31107438,17.9450752 L5.54032108,18.9254522 C6.05485102,18.8176808 6.7827713,18.5807419 7.52595201,18.1663506 C7.91694436,17.9483366 8.27122212,17.6985183 8.57948001,17.4112019 C8.88066954,17.1304737 9.12958366,16.8107481 9.34592042,16.4478461 C9.55970808,16.0892201 10.0012695,15.1056617 9.95179137,15.2034344 C9.87958823,15.2427972 9.72658918,15.3157711 9.55173702,15.3157713 C9.41601019,15.3157716 9.3273709,15.2832346 9.2720886,15.2479468 C9.28594442,15.2567913 9.32574604,15.2896351 9.3871034,15.3473213 C9.41597998,15.3744702 9.86991572,15.8297152 10.0496765,15.9936385 C10.8713953,16.7429617 11.7156675,17.1666667 12.779453,17.1666667 C13.4426035,17.1666667 14.5247014,17.1612076 15.9698242,17.1513598 C16.2589048,17.1493898 16.5602821,17.147259 16.877884,17.1449478 C17.1435482,17.1430146 19.7264254,17.1232778 19.8282644,17.1232778 C19.6212091,17.1232778 19.4784621,17.0631849 19.3628724,16.9813985 C19.3383898,16.9695597 19.392288,17.0397268 19.4595478,17.1378665 C19.6083091,17.3549259 19.7970327,17.6703177 19.9933523,18.0283253 C20.1772672,18.3637116 20.3557269,18.7146013 20.486797,18.9971143 C20.5479697,19.128968 20.5956465,19.2392227 20.6252571,19.3162878 C20.6180249,19.2974652 20.6181818,19.2980039 20.6181818,19.1580574 C20.6181818,19.4886735 20.6181818,19.4886735 20.6181818,20.0896352 C20.6181818,20.8212204 20.6181818,20.8212204 20.6181818,21.0650822 L20.6181818,22.0650822 L21.5781818,22.0650822 L23.6841322,22.0650822 L24.6441322,22.0650822 L24.6441322,21.0650822 L24.6441322,16.1232777 L23.6841322,17.1232777 C23.9582271,17.1232777 23.9582271,17.1232777 24.7805118,17.1232777 C25.3834215,17.1232777 25.3834215,17.1232777 25.770248,17.1232777 C25.5807591,17.1232777 25.4233415,17.0634403 25.2999701,16.9751883 C25.241325,16.9332374 25.2040394,16.8955014 25.1777781,16.8620046 C25.1773975,16.8615191 25.199646,16.8997552 25.2311254,16.9649173 C25.314319,17.1371271 25.4166549,17.3993055 25.5493363,17.7754155 C25.5851212,17.8768544 25.6224782,17.9845904 25.6695827,18.1218152 C25.9728995,19.0054363 25.9847823,19.0393551 26.0937692,19.3120201 C26.1772815,19.5209524 26.2536472,19.6869882 26.335729,19.8265518 C26.5607968,20.2092342 26.7949941,20.4469692 27.2978512,20.4469692 C27.7857655,20.4469692 28.015245,20.2241877 28.2491697,19.8547771 C28.3354691,19.7184945 28.4181178,19.5549062 28.510073,19.3483643 C28.5803581,19.1904961 28.6554742,19.008738 28.747339,18.7769852 C28.7826432,18.6879212 28.819184,18.5946631 28.8673539,18.4709502 C28.9275793,18.3160823 28.9275793,18.3160823 28.9877235,18.1616344 C29.0302225,18.0527077 29.0656699,17.9625286 29.0994264,17.8776487 C29.2581,17.4786684 29.37758,17.2035728 29.474958,17.0186638 C29.5147347,16.9431326 29.5441225,16.8961353 29.550266,16.8887109 C29.4465851,17.01401 29.2890373,17.1232777 28.9882644,17.1232777 C30.7357796,17.1232778 32.2783471,15.3710438 32.2783471,11.7847799 C32.2783471,7.70545081 30.552093,5.19731397 27.9039669,5.19731397 C26.9181677,5.19731397 26.276346,5.34960496 25.7586146,5.66420211 C25.649128,5.73073115 25.4221406,5.89163947 25.4422444,5.87836041 C25.7576595,5.85864328 25.9673094,5.95882951 26.1130416,6.11021358 C26.1857031,6.18569303 26.2234668,6.24919245 26.2461615,6.30351707 C26.2416171,6.29263896 26.2213085,6.21344086 26.1952044,6.07864896 C26.186804,6.03527237 26.0509793,5.24943432 25.9909975,4.95534707 C25.8761764,4.3923848 25.7396577,3.89123735 25.5550944,3.40554158 C24.6713087,1.07977595 22.8721687,-0.31146694 19.9128926,-0.31146694 C18.0006091,-0.31146694 16.8797127,0.124232408 15.6020168,1.09561044 C15.5273335,1.15238903 15.2777667,1.34504893 15.230737,1.38093684 C14.4817575,1.95247607 14.0490558,2.1333101 13.2074849,2.11741637 C12.5479109,2.10495979 11.9239275,2.10111898 11.1862003,2.10331517 C10.8629106,2.10427759 10.6666814,2.10544352 9.98778195,2.11001072 C9.21403174,2.11521601 8.78156657,2.11725199 8.24900826,2.11725199 C5.81182191,2.11725199 3.92958678,4.62270482 3.92958678,7.42716957 C3.92958678,9.06933266 4.10658819,9.83380321 4.55915942,10.6732609 C4.57800613,10.7081535 4.57800613,10.7081535 4.59577082,10.7409677 C4.86549837,11.23958 4.94280992,11.5485957 4.94280992,12.6051992 C4.94280992,13.5854079 4.60531675,14.1685898 3.94751974,14.6323661 Z" id="Path-1" sketch:type="MSShapeGroup"></path>
            <path d="M2.31930873,6.00593709 C1.80768692,6.82366242 1.39081523,7.69330281 1.05889014,8.56261431 C0.858554279,9.08729377 0.729216826,9.50162858 0.663938199,9.75279144 L0.96144812,9.25878804 C0.78796964,9.41557388 0.55985339,9.66919085 0.33422297,10.0139115 C-0.0599830916,10.6161838 -0.301306795,11.2918359 -0.295672287,12.0318634 C-0.284837697,13.4548616 0.625686596,15.2879082 1.56488687,15.3499252 C2.58033437,15.416977 3.63520661,13.4151655 3.63520661,11.9758953 C3.63520661,11.2250167 3.35509231,10.5502678 2.90605865,9.95334279 C2.65184148,9.615398 2.39730631,9.36861898 2.20554415,9.21720071 L1.04569552,10.8110362 C1.11633005,10.8668103 1.25538993,11.0016328 1.39476779,11.1869154 C1.60172587,11.4620361 1.71520661,11.7353924 1.71520661,11.9758953 C1.71520661,12.2941921 1.58752904,12.7154665 1.37846827,13.1121973 C1.29323488,13.2739431 1.20274007,13.4147487 1.13091359,13.5043894 C1.24803049,13.4131417 1.39534139,13.3347155 1.6863528,13.3539315 C1.92879552,13.3699404 2.05219931,13.4431981 2.15950387,13.539905 C2.0850131,13.4400575 2.00598089,13.3108683 1.93130187,13.1605262 C1.7431225,12.7816879 1.62693401,12.3662394 1.62426733,12.0160016 C1.62211138,11.7328431 1.72923322,11.432926 1.92059039,11.1405684 C2.04233885,10.9545598 2.16160147,10.821965 2.2197089,10.7694489 L2.4407453,10.5696813 L2.51721883,10.2754455 C2.52721486,10.2369852 2.55152405,10.1514766 2.5907503,10.0258146 C2.65847178,9.80886771 2.74236837,9.56520291 2.84295563,9.30176498 C3.13069215,8.54818326 3.49177218,7.79493045 3.92784479,7.09795544 C5.15908958,5.13005645 6.70559172,4.02321503 8.62625929,4.09288595 L8.69307962,2.09409751 C5.99387839,1.99618581 3.88269847,3.50717071 2.31930873,6.00593709 Z" id="Path-2" sketch:type="MSShapeGroup"></path>
            <path d="M28.7244089,7.21885137 C28.687082,7.06614723 28.6903959,6.82185723 28.7453609,6.56088322 C28.8611859,6.0109451 29.1373428,5.63190925 29.3540311,5.59035817 L29.0064288,3.62340776 C26.7410372,4.05780796 25.8188006,8.43659394 28.04102,9.05684591 L28.5379526,7.12499426 C28.6736474,7.16286855 28.7281678,7.23422926 28.7244089,7.21885137 Z" id="Path-3" sketch:type="MSShapeGroup"></path>
        </g>
    </g>
</svg>