<?xml version="1.0" encoding="UTF-8" standalone="no"?>
<svg width="32px" height="22px" viewBox="0 0 32 22" version="1.1" xmlns="http://www.w3.org/2000/svg" xmlns:xlink="http://www.w3.org/1999/xlink" xmlns:sketch="http://www.bohemiancoding.com/sketch/ns">
    <!-- Generator: Sketch 3.0.3 (7891) - http://www.bohemiancoding.com/sketch -->
    <title>buffalo-red</title>
    <desc>Created with Sketch.</desc>
    <defs></defs>
    <g id="Page-1" stroke="none" stroke-width="1" fill="none" fill-rule="evenodd" sketch:type="MSPage">
        <g id="buffalo-red" sketch:type="MSLayerGroup" fill="#EC6F66">
            <path d="M5.9896978,9.92276688 C5.97162274,9.8893783 5.97162274,9.8893783 5.9542243,9.85716705 C5.64154691,9.27719332 5.52958678,8.7936366 5.52958678,7.42716957 C5.52958678,5.4660422 6.79329128,3.78391865 8.24900826,3.78391865 C8.78589565,3.78391865 9.22115058,3.78186954 9.99811495,3.77664263 C10.6748785,3.7720898 10.8701662,3.77092946 11.1907729,3.76997503 C11.9180468,3.76780996 12.5311486,3.77158379 13.1784811,3.78380917 C14.4194831,3.80724648 15.1692007,3.49392567 16.1762755,2.72543638 C16.2285055,2.68558019 16.4765388,2.49410409 16.5452665,2.4418533 C17.5652568,1.66639793 18.3658569,1.35519973 19.9128926,1.35519973 C22.187815,1.35519973 23.4161121,2.30501999 24.0674026,4.01895254 C24.2152376,4.40799411 24.3282984,4.82303006 24.4259298,5.30171157 C24.4794684,5.56420891 24.6133096,6.3385709 24.6267997,6.40822871 C24.7825876,7.21265994 24.9132007,7.52530986 25.5204958,7.52530992 C25.8247639,7.52530995 26.0589013,7.4445396 26.2990705,7.28590189 C26.3212773,7.2712338 26.5130933,7.13525795 26.5648148,7.10382961 C26.8162541,6.95104367 27.1831763,6.86398064 27.9039669,6.86398064 C29.5320908,6.86398064 30.6783471,8.52941779 30.6783471,11.7847799 C30.6783471,13.3652478 30.3613035,14.3862747 29.8515698,14.9652917 C29.5486379,15.3093983 29.2033246,15.4566111 28.9882645,15.4566111 C28.3720973,15.456611 28.2018059,15.7799738 27.6212479,17.2397708 C27.5859376,17.3285576 27.5492045,17.4220074 27.505464,17.5341162 C27.153051,18.4373649 27.1617976,18.4152992 27.0585696,18.6471611 C26.9972053,18.7849922 26.9472381,18.8838932 26.9135631,18.9370725 C27.0122745,18.8426147 27.1264157,18.7803025 27.2978512,18.7803025 C27.5658612,18.7803025 27.6425962,18.8581967 27.7000524,18.9558894 C27.6700242,18.9048325 27.6252374,18.8074562 27.5708507,18.6713906 C27.4779235,18.4389042 27.4637088,18.398329 27.1761666,17.5606623 C27.1276236,17.4192471 27.0888019,17.3072868 27.0511472,17.2005478 C26.5466514,15.770461 26.3950323,15.456611 25.7702479,15.4566111 C25.3834215,15.4566111 25.3834215,15.4566111 24.7805118,15.4566111 C23.9582271,15.4566111 23.9582271,15.4566111 23.6841322,15.4566111 L23.0441322,15.4566111 L23.0441322,16.1232777 L23.0441322,21.0650822 L23.6841322,20.3984155 L21.5781818,20.3984155 L22.2181818,21.0650822 C22.2181818,20.8212204 22.2181818,20.8212204 22.2181818,20.0896352 C22.2181818,19.4886735 22.2181818,19.4886735 22.2181818,19.1580574 C22.2181818,18.8381523 21.8780917,18.1051104 21.3826687,17.2016592 C20.6818599,15.9236674 20.3617638,15.4566112 19.8282645,15.4566111 C19.7195766,15.4566111 17.1115336,15.4765402 16.8667068,15.4783218 C16.5493307,15.4806314 16.2481873,15.4827605 15.9593573,15.4847288 C14.5176608,15.4945533 13.4380039,15.5 12.779453,15.5 C12.1641638,15.5 11.6599251,15.2469437 11.1035712,14.739606 C10.9592751,14.6080228 10.5172125,14.1646852 10.4591269,14.1100749 C10.1327009,13.8031795 9.89132487,13.6491041 9.55173455,13.6491047 C9.0674478,13.6491055 8.78440974,13.9361583 8.53640202,14.4262415 C8.54690065,14.4054954 8.1408023,15.3100614 7.98666608,15.5686229 C7.84653886,15.8036844 7.69273338,16.0012447 7.51257806,16.1691611 C7.30617768,16.3615397 7.05589304,16.5380275 6.77086516,16.6969566 C6.43300589,16.8853441 6.0659021,17.0389173 5.69825937,17.1585855 C5.47893932,17.2299744 5.31188486,17.2732732 5.22490991,17.2914906 L4.71107438,17.3991165 L4.71107438,17.9450752 L4.71107438,21.0650821 L5.35107438,20.3984155 L3.06842975,20.3984155 L3.70842975,21.0650821 C3.70842975,20.8355425 3.70842975,20.8355425 3.70842975,19.9743391 C3.70842975,19.372254 3.70842975,19.372254 3.70842975,18.7075405 C3.70842975,17.9364545 3.70842975,17.9364545 3.70842975,17.2631318 C3.70842975,16.6875724 3.70842975,16.6875724 3.70842975,16.405303 C3.70842975,16.5713314 3.64737738,16.6818525 3.58183304,16.7435256 C3.59766009,16.7286334 4.4752152,16.2728587 4.84435323,16.0125999 C5.91791051,15.2556939 6.54280992,14.1758795 6.54280992,12.6051992 C6.54280992,11.2628717 6.39496585,10.6719362 5.9896978,9.92276688 Z M4.12688644,14.9084129 C3.88900207,15.076132 2.89652754,15.5915922 2.72382744,15.7540923 C2.54564442,15.9217515 2.42842975,16.1339413 2.42842975,16.405303 C2.42842975,16.6875724 2.42842975,16.6875724 2.42842975,17.2631318 C2.42842975,17.9364545 2.42842975,17.9364545 2.42842975,18.7075405 C2.42842975,19.372254 2.42842975,19.372254 2.42842975,19.9743391 C2.42842975,20.8355425 2.42842975,20.8355425 2.42842975,21.0650821 L2.42842975,21.7317488 L3.06842975,21.7317488 L5.35107438,21.7317488 L5.99107438,21.7317488 L5.99107438,21.0650821 L5.99107438,17.9450752 L5.47723885,18.5986599 C5.60549209,18.5717965 5.81508696,18.5174717 6.08003034,18.4312323 C6.51949333,18.2881866 6.95949525,18.1041173 7.37493464,17.8724718 C7.7447341,17.6662748 8.07821323,17.4311226 8.36609962,17.1627937 C8.6430823,16.9046279 8.8729747,16.6093354 9.07406955,16.2720014 C9.27592693,15.9333883 9.71039571,14.9656284 9.6687135,15.0479958 C9.71104144,14.9643524 9.74085925,14.9182665 9.75081595,14.9081685 C9.71296457,14.9465568 9.63773526,14.9824379 9.55173653,14.982438 C9.48342264,14.9824381 9.44852028,14.9696265 9.43928561,14.9637318 C9.47307635,14.9853011 9.52679463,15.0296288 9.60150811,15.099872 C9.63622648,15.1325132 10.0877876,15.5853767 10.2604554,15.742832 C11.0291013,16.4437581 11.8053668,16.8333333 12.779453,16.8333333 C13.4416836,16.8333333 14.5232933,16.8278768 15.9677308,16.8180336 C16.2567613,16.816064 16.5580918,16.8139335 16.8756486,16.8116226 C17.1371453,16.8097197 19.7250556,16.7899444 19.8282644,16.7899444 C19.6970007,16.7899444 19.6100817,16.7533538 19.5426768,16.7056609 C19.5810941,16.751454 19.6442284,16.8336449 19.7199895,16.9441889 C19.8759091,17.1716931 20.0699901,17.4960381 20.2712156,17.8629921 C20.4586445,18.2047865 20.6405216,18.5623957 20.7749153,18.8520723 C20.8390555,18.9903223 20.8896163,19.1072464 20.9223453,19.1924277 C20.9381818,19.4886735 20.9381818,19.4886735 20.9381818,20.0896352 C20.9381818,20.8212204 20.9381818,20.8212204 20.9381818,21.0650822 L20.9381818,21.7317489 L21.5781818,21.7317489 L23.6841322,21.7317489 L24.3241322,21.7317489 L24.3241322,21.0650822 L24.3241322,16.1232777 L23.6841322,16.7899444 C23.9582271,16.7899444 23.9582271,16.7899444 24.7805118,16.7899444 C25.3834215,16.7899444 25.3834215,16.7899444 25.770248,16.7899444 C25.6516567,16.7899444 25.55484,16.7531425 25.48112,16.700408 C25.442544,16.6727359 25.4759071,16.7300737 25.5169726,16.8150788 C25.6070599,17.0015585 25.7130947,17.2732133 25.8496985,17.660442 C25.8858573,17.7629409 25.9235073,17.8715217 25.9708995,18.0095846 C26.2710614,18.8840149 26.2834105,18.9192649 26.3891855,19.1838942 C26.675931,19.9012783 26.8008253,20.1136359 27.2978512,20.1136359 C27.7785024,20.1136359 27.9068975,19.9108763 28.2197724,19.2081237 C28.2877896,19.0553491 28.3612841,18.877515 28.4515612,18.6497676 C28.4865633,18.5614657 28.5228764,18.4687887 28.5708166,18.3456657 C28.6309521,18.1910287 28.6309521,18.1910287 28.6912716,18.0361307 C28.7340189,17.9265676 28.7697234,17.8357344 28.8037907,17.7500732 C28.9666367,17.3406015 29.0899437,17.0566944 29.1943995,16.8583454 C29.2440132,16.764135 29.2846304,16.6991795 29.3078798,16.6710824 C29.2592792,16.7298166 29.1725839,16.7899444 28.9882644,16.7899444 C30.5525631,16.7899445 31.9583471,15.1930855 31.9583471,11.7847799 C31.9583471,7.87024421 30.3480925,5.5306473 27.9039669,5.5306473 C26.9711695,5.5306473 26.3843276,5.6698927 25.9198547,5.95212761 C25.8219211,6.01163651 25.601968,6.16755833 25.6136097,6.15986871 C25.566525,6.19096925 25.563605,6.19197659 25.5204959,6.19197659 C25.7784637,6.19197661 25.9058653,6.32431914 25.9527405,6.43652489 C25.9367706,6.39829756 25.9118135,6.30097177 25.8815234,6.14456491 C25.8721051,6.09593207 25.7366771,5.31238924 25.677984,5.02461997 C25.5666008,4.47851385 25.4347737,3.9945887 25.2575561,3.52822377 C24.4202694,1.32482476 22.735298,0.021866393 19.9128926,0.021866393 C18.0736586,0.021866393 17.0168215,0.432665513 15.7906668,1.36485901 C15.7171745,1.42073205 15.4679145,1.61315518 15.4198447,1.64983675 C14.6192461,2.26076599 14.1231413,2.46809737 13.2016842,2.45069493 C12.5445585,2.43828459 11.9227513,2.43445717 11.1871148,2.43664714 C10.8643618,2.43760796 10.6683208,2.43877278 9.98984855,2.4433371 C9.21545551,2.44854671 8.78243238,2.45058532 8.24900826,2.45058532 C6.00811578,2.45058532 4.24958678,4.7913723 4.24958678,7.42716957 C4.24958678,9.01419345 4.41357993,9.72248123 4.8381724,10.5100421 C4.85672945,10.5443984 4.85672945,10.5443984 4.87455622,10.5773276 C5.17139187,11.1260512 5.26280992,11.4914509 5.26280992,12.6051992 C5.26280992,13.7035022 4.8678355,14.3860106 4.12688644,14.9084129 Z" id="Path-1" sketch:type="MSShapeGroup"></path>
            <path d="M2.58739808,6.18794015 C2.0883678,6.98554042 1.68079472,7.83578289 1.35623439,8.68580609 C1.16071099,9.19788172 1.03508401,9.60032995 0.972818304,9.83990045 L1.17115825,9.51056485 C1.01690828,9.64997241 0.806934299,9.88341901 0.598617541,10.2016876 C0.238219628,10.7523075 0.0192629013,11.3653371 0.0243176488,12.0292198 C0.0339904868,13.2996353 0.863512474,14.9696099 1.58513119,15.0172596 C2.35658214,15.0681999 3.31520661,13.249036 3.31520661,11.9758953 C3.31520661,11.3100793 3.06286457,10.7022292 2.65417684,10.1589382 C2.41909955,9.84643712 2.18381027,9.61831753 2.01223604,9.48283996 L1.23900363,10.545397 C1.32982609,10.6171117 1.48813185,10.7705936 1.6466496,10.9813199 C1.89395361,11.3100747 2.03520661,11.6503298 2.03520661,11.9758953 C2.03520661,12.3576617 1.89183441,12.8307209 1.65898573,13.2725935 C1.56422187,13.4524251 1.46230392,13.6110046 1.37658443,13.717984 C1.34719141,13.7546671 1.32496116,13.7785357 1.31812364,13.7843779 C1.33020914,13.7740516 1.34797516,13.7613949 1.37673479,13.7460837 C1.453563,13.7051815 1.54527338,13.6786182 1.66610848,13.6865971 C1.82005375,13.6967624 1.89159805,13.7392341 1.95013042,13.7919857 C1.94379455,13.7862756 1.92414252,13.7642386 1.89819913,13.7304423 C1.82132889,13.630304 1.7310531,13.4827356 1.64709344,13.3137099 C1.43742316,12.8916065 1.30738377,12.4266323 1.30427739,12.0186452 C1.30154169,11.6593419 1.4310305,11.2968023 1.65619582,10.9527923 C1.79525794,10.7403316 1.93266283,10.5875665 2.00999877,10.5176721 L2.15735637,10.3844937 L2.20833872,10.1883365 C2.2196894,10.1446641 2.24550743,10.0538482 2.28643402,9.92273911 C2.35620793,9.69921717 2.44240628,9.44886726 2.54561138,9.1785732 C2.84071267,8.40570319 3.2110913,7.63305244 3.65975545,6.91595238 C4.94635773,4.85957549 6.58697283,3.68537683 8.63739601,3.75975454 L8.68194289,2.42722892 C6.11249728,2.33402402 4.09543032,3.77765166 2.58739808,6.18794015 Z" id="Path-2" sketch:type="MSShapeGroup"></path>
            <path d="M29.2960974,5.2625331 L29.0643625,3.95123283 C27.0971858,4.32844883 26.2776575,8.21957514 28.1238421,8.73487063 L28.4551305,7.44696953 C28.113085,7.35149994 28.5217802,5.41101231 29.2960974,5.2625331 Z" id="Path-3" sketch:type="MSShapeGroup"></path>
        </g>
    </g>
</svg>