<?xml version="1.0" encoding="UTF-8" standalone="no"?>
<svg width="34px" height="23px" viewBox="0 0 34 23" version="1.1" xmlns="http://www.w3.org/2000/svg" xmlns:xlink="http://www.w3.org/1999/xlink" xmlns:sketch="http://www.bohemiancoding.com/sketch/ns">
    <!-- Generator: Sketch 3.0.3 (7891) - http://www.bohemiancoding.com/sketch -->
    <title>buffalo-blue</title>
    <desc>Created with Sketch.</desc>
    <defs></defs>
    <g id="Page-1" stroke="none" stroke-width="1" fill="none" fill-rule="evenodd" sketch:type="MSPage">
        <g id="buffalo-blue" sketch:type="MSLayerGroup" transform="translate(1.000000, 1.000000)" fill="#232830">
            <path d="M6.1290905,9.84094679 C6.1109844,9.80750078 6.1109844,9.80750078 6.09373078,9.77555767 C5.79504278,9.22153233 5.68958678,8.766067 5.68958678,7.42716957 C5.68958678,5.55037594 6.89143822,3.95058532 8.24900826,3.95058532 C8.78632856,3.95058532 9.22186246,3.94853489 9.99914825,3.94330582 C10.6756983,3.93875443 10.8708918,3.93759465 11.1912302,3.93664101 C11.9174587,3.93447906 12.5294724,3.93824619 13.1755807,3.95044846 C14.4565259,3.97464012 15.237945,3.64807063 16.2708294,2.85988633 C16.3235794,2.81963331 16.5714593,2.6282756 16.6395915,2.57647759 C17.6338112,1.82061448 18.4023816,1.52186639 19.9128926,1.52186639 C22.1193796,1.52186639 23.2905924,2.4275444 23.9186335,4.08029364 C24.0627956,4.45966979 24.1735106,4.86609459 24.269423,5.33634802 C24.3223174,5.59568637 24.4559602,6.36890075 24.4699592,6.44118669 C24.5190863,6.69486088 24.5649614,6.87376123 24.6323459,7.03506012 C24.7891861,7.4104902 25.0601633,7.69197654 25.5204958,7.69197659 C25.8574088,7.69197662 26.1204483,7.60123589 26.3847531,7.42665604 C26.4111909,7.40919323 26.5994899,7.27571063 26.6454349,7.24779236 C26.8702449,7.11118754 27.2096772,7.0306473 27.9039669,7.0306473 C29.4300906,7.0306473 30.5183471,8.61181449 30.5183471,11.7847799 C30.5183471,14.3922735 29.7280886,15.2899444 28.9882645,15.2899444 C28.2614076,15.2899443 28.1065827,15.5839382 27.4734301,17.175983 C27.4379644,17.2651605 27.4011027,17.3589373 27.357238,17.4713644 C27.006664,18.3698997 27.0149679,18.3489509 26.9134192,18.5770408 C26.8551141,18.7080008 26.808415,18.8004331 26.7800024,18.845302 C26.8652685,18.710651 26.9652004,18.6136359 27.2978512,18.6136359 C27.523087,18.6136359 27.6779628,18.7003092 27.7888063,18.8128272 C27.8199328,18.8444238 27.8319901,18.861181 27.8364847,18.8688231 C27.8116619,18.826617 27.770033,18.7361066 27.7185588,18.6073277 C27.6272377,18.3788591 27.6127897,18.3376182 27.326825,17.504547 C27.2781382,17.3627128 27.2391699,17.2503301 27.2013283,17.143061 C27.0470738,16.705798 26.9243941,16.3914999 26.803285,16.1408054 C26.5310864,15.5773575 26.3057567,15.2899444 25.7702479,15.2899444 C25.3834215,15.2899444 25.3834215,15.2899444 24.7805118,15.2899444 C23.9582271,15.2899444 23.9582271,15.2899444 23.6841322,15.2899444 L22.8841322,15.2899444 L22.8841322,16.1232777 L22.8841322,21.0650822 L23.6841322,20.2317489 L21.5781818,20.2317489 L22.3781818,21.0650822 C22.3781818,20.8212204 22.3781818,20.8212204 22.3781818,20.0896352 C22.3781818,19.4886735 22.3781818,19.4886735 22.3781818,19.1580574 C22.3781818,18.7934795 22.0393766,18.0632072 21.5216003,17.1189926 C20.7611573,15.7322522 20.4580227,15.2899445 19.8282646,15.2899444 C19.7188917,15.2899444 17.1083321,15.3098928 16.8655891,15.3116592 C16.5482355,15.3139686 16.2471156,15.3160976 15.9583106,15.3180657 C14.5169568,15.3278878 13.437544,15.3333333 12.779453,15.3333333 C12.2090135,15.3333333 11.7387781,15.0973418 11.2089606,14.6142027 C11.068211,14.4858535 10.6273357,14.0437067 10.5663293,13.9863503 C10.2111824,13.6524524 9.94483511,13.4824374 9.5517343,13.482438 C8.98972061,13.4824389 8.66806102,13.8086611 8.39486308,14.3485222 C8.40146377,14.3354787 7.99891173,15.2321455 7.85074064,15.4807006 C7.71823438,15.7029781 7.57393977,15.8883218 7.40588787,16.0449571 C7.20967323,16.2278419 6.96978791,16.3969966 6.69535648,16.5500172 C6.36719472,16.7329975 6.00920319,16.8827587 5.650538,16.9995046 C5.43692087,17.0690372 5.27518395,17.1109578 5.19336879,17.1280944 L4.55107438,17.2626268 L4.55107438,17.9450752 L4.55107438,21.0650821 L5.35107438,20.2317488 L3.06842975,20.2317488 L3.86842975,21.0650821 C3.86842975,20.8355425 3.86842975,20.8355425 3.86842975,19.9743391 C3.86842975,19.372254 3.86842975,19.372254 3.86842975,18.7075405 C3.86842975,17.9364545 3.86842975,17.9364545 3.86842975,17.2631318 C3.86842975,16.6875724 3.86842975,16.6875724 3.86842975,16.405303 C3.86842975,16.6260051 3.785094,16.7768651 3.68908375,16.8672048 C3.68530166,16.8707635 4.54849184,16.4224496 4.93403658,16.1506232 C6.04916989,15.3644043 6.70280992,14.2349266 6.70280992,12.6051992 C6.70280992,11.2342993 6.54791259,10.6151718 6.1290905,9.84094679 Z M4.03720309,14.7703895 C3.81572543,14.9265411 2.80888597,15.449462 2.61657674,15.6304132 C2.4079278,15.8267389 2.26842975,16.0792676 2.26842975,16.405303 C2.26842975,16.6875724 2.26842975,16.6875724 2.26842975,17.2631318 C2.26842975,17.9364545 2.26842975,17.9364545 2.26842975,18.7075405 C2.26842975,19.372254 2.26842975,19.372254 2.26842975,19.9743391 C2.26842975,20.8355425 2.26842975,20.8355425 2.26842975,21.0650821 L2.26842975,21.8984155 L3.06842975,21.8984155 L5.35107438,21.8984155 L6.15107438,21.8984155 L6.15107438,21.0650821 L6.15107438,17.9450752 L5.50877997,18.762056 C6.00929764,18.6572196 6.72351197,18.424742 7.45044333,18.0194112 C7.83083923,17.8073057 8.17471767,17.5648204 8.47278982,17.2869978 C8.76187592,17.0175508 9.00127918,16.7100418 9.20999499,16.3599238 C9.4178175,16.0113042 9.85583259,15.0356451 9.81025243,15.1257151 C9.84544439,15.056173 9.86682445,15.0231283 9.86243068,15.0275844 C9.7962764,15.094677 9.68216222,15.1491045 9.55173677,15.1491047 C9.44971642,15.1491048 9.38794559,15.1264306 9.3556871,15.1058393 C9.37951039,15.1210462 9.42627034,15.1596319 9.49430576,15.2235967 C9.52610323,15.2534917 9.97885165,15.707546 10.1550659,15.8682353 C10.9502483,16.5933599 11.7605171,17 12.779453,17 C13.4421436,17 14.5239973,16.9945422 15.9687775,16.9846967 C16.257833,16.9827269 16.559187,16.9805963 16.8767663,16.9782852 C17.1403467,16.9763671 19.7257405,16.9566111 19.8282644,16.9566111 C19.5763789,16.9566111 19.4967428,16.9002639 19.4237877,16.8218742 C19.459742,16.8605068 19.5182582,16.9366859 19.5897687,17.0410277 C19.7421091,17.2633095 19.9335114,17.5831779 20.132284,17.9456587 C20.3179558,18.2842491 20.4981243,18.6384985 20.6308561,18.9245933 C20.6935126,19.0596452 20.7426314,19.1732346 20.7738012,19.2543577 C20.7858864,19.2858111 20.7937492,19.3084751 20.7966177,19.3183229 C20.7861416,19.2823576 20.7781818,19.242015 20.7781818,19.1580574 C20.7781818,19.4886735 20.7781818,19.4886735 20.7781818,20.0896352 C20.7781818,20.8212204 20.7781818,20.8212204 20.7781818,21.0650822 L20.7781818,21.8984155 L21.5781818,21.8984155 L23.6841322,21.8984155 L24.4841322,21.8984155 L24.4841322,21.0650822 L24.4841322,16.1232777 L23.6841322,16.9566111 C23.9582271,16.9566111 23.9582271,16.9566111 24.7805118,16.9566111 C25.3834215,16.9566111 25.3834215,16.9566111 25.770248,16.9566111 C25.5169218,16.9566111 25.3839532,16.8614938 25.3017037,16.7565827 C25.3099707,16.7671275 25.3377766,16.8149145 25.374049,16.889998 C25.4606895,17.0693428 25.5648748,17.3362594 25.6995174,17.7179288 C25.7354892,17.8198977 25.7729927,17.9280561 25.8202411,18.0656999 C26.1219804,18.9447256 26.1340964,18.97931 26.2414773,19.2479571 C26.3220771,19.4496028 26.3952849,19.6087727 26.4721613,19.7394855 C26.6689767,20.0741304 26.8720808,20.2803025 27.2978512,20.2803025 C27.7111686,20.2803025 27.9107017,20.0865935 28.1156091,19.7630067 C28.196646,19.6350344 28.2760266,19.4779148 28.3649227,19.278244 C28.4340739,19.1229226 28.5083792,18.9431265 28.5994501,18.7133764 C28.6346033,18.6246935 28.6710302,18.5317259 28.7190852,18.408308 C28.7792657,18.2535555 28.7792657,18.2535555 28.8394975,18.0988826 C28.8821207,17.9896376 28.9176967,17.8991315 28.9516086,17.8138609 C29.1123684,17.409635 29.2337619,17.1301336 29.3346788,16.9385046 C29.3793739,16.8536338 29.4143765,16.7976574 29.4290729,16.7798966 C29.3529321,16.8719133 29.2308106,16.9566111 28.9882644,16.9566111 C30.6441713,16.9566111 32.1183471,15.2820647 32.1183471,11.7847799 C32.1183471,7.78784751 30.4500928,5.36398064 27.9039669,5.36398064 C26.9446686,5.36398064 26.3303368,5.50974883 25.8392346,5.80816486 C25.7355246,5.87118383 25.5120543,6.0295989 25.5279271,6.01911456 C25.8582749,6.02530995 26.0299407,6.20363346 26.099451,6.37002098 C26.0891938,6.34546826 26.066561,6.25720632 26.0383639,6.11160693 C26.0294545,6.06560222 25.8938282,5.28091178 25.8344908,4.98998352 C25.7213886,4.43544933 25.5872157,3.94291303 25.4063252,3.46688267 C24.545789,1.20230035 22.8037333,-0.144800274 19.9128926,-0.144800274 C18.0371339,-0.144800274 16.9482671,0.278448961 15.6963418,1.23023473 C15.622254,1.28656054 15.3728406,1.47910206 15.3252909,1.51538679 C14.5505018,2.10662103 14.0860985,2.30070374 13.2045845,2.28405565 C12.5462347,2.27162219 11.9233394,2.26778808 11.1866576,2.26998115 C10.8636362,2.27094278 10.6675011,2.27210815 9.98881525,2.27667391 C9.21474363,2.28188136 8.78199947,2.28391865 8.24900826,2.28391865 C5.90996884,2.28391865 4.08958678,4.70703856 4.08958678,7.42716957 C4.08958678,9.04176305 4.26008406,9.77814222 4.69866591,10.5916515 C4.71736779,10.626276 4.71736779,10.626276 4.73516352,10.6591477 C5.01844512,11.1828156 5.10280992,11.5200233 5.10280992,12.6051992 C5.10280992,13.644455 4.73657612,14.2773002 4.03720309,14.7703895 Z" id="Path-1" sketch:type="MSShapeGroup"></path>
            <path d="M2.45335341,6.09693862 C1.94802736,6.90460142 1.53580497,7.76454285 1.20756227,8.6242102 C1.00963263,9.14258774 0.882150417,9.55097927 0.818378251,9.79634595 L1.06630319,9.38467645 C0.902438959,9.53277315 0.683393845,9.77630493 0.466420255,10.1077995 C0.089118268,10.6842457 -0.141021947,11.3285865 -0.135677319,12.0305416 C-0.125423605,13.3772485 0.744599535,15.128759 1.57500903,15.1835924 C2.46845826,15.2425884 3.47520661,13.3321008 3.47520661,11.9758953 C3.47520661,11.267548 3.20897844,10.6262485 2.78011775,10.0561405 C2.53547052,9.73091756 2.29055829,9.49346825 2.1088901,9.35002033 L1.14234957,10.6782166 C1.22307807,10.741961 1.37176089,10.8861132 1.5207087,11.0841177 C1.74783974,11.3860554 1.87520661,11.6928611 1.87520661,11.9758953 C1.87520661,12.3259269 1.73968172,12.7730937 1.518727,13.1923954 C1.42872837,13.3631841 1.332522,13.5128766 1.25374901,13.6111867 C1.32531722,13.5218683 1.35223319,13.4988702 1.67623064,13.5202643 C1.94713164,13.5381524 1.97413105,13.5624853 2.02316095,13.6263562 C1.953171,13.5351808 1.86851699,13.3968019 1.78919765,13.2371181 C1.59027283,12.8366472 1.46715889,12.3964359 1.46427236,12.0173234 C1.46182653,11.6960925 1.58013186,11.3648642 1.78839311,11.0466803 C1.91879839,10.8474457 2.04713215,10.7047658 2.11485384,10.6435605 L2.29905083,10.4770875 L2.36277877,10.231891 C2.37345213,10.1908247 2.39851574,10.1026624 2.43859216,9.97427688 C2.50733985,9.75404244 2.59238733,9.50703508 2.6942835,9.24016909 C2.98570241,8.47694323 3.35143174,7.71399145 3.79380012,7.00695391 C5.05272365,4.99481597 6.64628228,3.85429593 8.63182765,3.92632025 L8.68751125,2.26066322 C6.05318784,2.16510492 3.9890644,3.64241119 2.45335341,6.09693862 Z" id="Path-2" sketch:type="MSShapeGroup"></path>
            <path d="M28.5693562,7.25997646 C28.5254137,7.08020761 28.5290786,6.81004423 28.5890778,6.52516761 C28.7172618,5.91654913 29.0336232,5.48233091 29.3250642,5.42644564 L29.0353957,3.78732029 C26.9191115,4.19312839 26.0482291,8.32808454 28.0824311,8.89585827 L28.4965415,7.28598189 C28.5689895,7.30620313 28.5861443,7.3286567 28.5693562,7.25997646 Z" id="Path-3" sketch:type="MSShapeGroup"></path>
        </g>
    </g>
</svg>