<?xml version="1.0" encoding="UTF-8" standalone="no"?>
<svg width="128px" height="128px" viewBox="0 0 128 128" version="1.1" xmlns="http://www.w3.org/2000/svg" xmlns:xlink="http://www.w3.org/1999/xlink" xmlns:sketch="http://www.bohemiancoding.com/sketch/ns">
    <!-- Generator: Sketch 3.2.2 (9983) - http://www.bohemiancoding.com/sketch -->
    <title>logo-color</title>
    <desc>Created with Sketch.</desc>
    <defs></defs>
    <g id="Logo" stroke="none" stroke-width="1" fill="none" fill-rule="evenodd" sketch:type="MSPage">
        <g id="logo-color" sketch:type="MSArtboardGroup">
            <g sketch:type="MSLayerGroup" transform="translate(14.000000, 6.000000)">
                <path d="M40.6471506,20.5750482 L22.6536145,111.070822 L77.4819277,111.070822 L40.6471506,20.5750482" id="Fill-1" fill="#FF4040" sketch:type="MSShapeGroup"></path>
                <path d="M40.6471506,20.5750482 L22.6536145,111.070822 L77.4819277,111.070822 L40.6471506,20.5750482" id="Stroke-2" stroke="#38345C" stroke-width="3.94334278" stroke-linecap="round" stroke-linejoin="round" sketch:type="MSShapeGroup"></path>
                <path d="M40.8543163,21.2684193 L104.885907,104.124295 L77.6460843,111.070822 L40.875,21.2378584 L40.8543163,21.2684193 L40.8543163,21.2684193 Z" id="Fill-3" fill="#EC7863" sketch:type="MSShapeGroup"></path>
                <path d="M40.8543163,21.2684193 L104.885907,104.124295 L77.6460843,111.070822 L40.875,21.2378584 L40.8543163,21.2684193 L40.8543163,21.2684193 Z" id="Stroke-4" stroke="#38345C" stroke-width="3.94334278" stroke-linecap="round" stroke-linejoin="round" sketch:type="MSShapeGroup"></path>
                <path d="M40.875,21.4021643 L22.6536145,111.070822 L0.12311747,92.2791501 L40.8543163,21.2684193 L40.875,21.4021643 L40.875,21.4021643 Z" id="Fill-5" fill="#E0594A" sketch:type="MSShapeGroup"></path>
                <path d="M40.875,21.4021643 L22.6536145,111.070822 L0.12311747,92.2791501 L40.8543163,21.2684193 L40.875,21.4021643 L40.875,21.4021643 Z" id="Stroke-6" stroke="#38345C" stroke-width="3.94334278" stroke-linecap="round" stroke-linejoin="round" sketch:type="MSShapeGroup"></path>
                <path id="Stroke-7" stroke="#FFFFFF" stroke-width="2.62889518" stroke-linecap="round" stroke-linejoin="round" sketch:type="MSShapeGroup"></path>
                <path d="M59.4795271,111.070822 L44.1581325,79.5240793 L39.9993886,111.070822 L59.4795271,111.070822 L59.4795271,111.070822 Z" id="Fill-8" fill="#38345C" sketch:type="MSShapeGroup"></path>
                <path d="M59.4795271,111.070822 L44.1581325,79.5240793 L39.9993886,111.070822 L59.4795271,111.070822 L59.4795271,111.070822 Z" id="Stroke-9" stroke="#38345C" stroke-width="2.62889518" stroke-linecap="round" stroke-linejoin="round" sketch:type="MSShapeGroup"></path>
                <path d="M45.2051235,0.206696884 L40.9718524,21.2378584 L45.2051235,0.206696884 L45.2051235,0.206696884 Z M35.113759,4.47865156 L40.875,21.2378584 L35.113759,4.47865156 L35.113759,4.47865156 Z" id="Stroke-10" stroke="#38345C" stroke-width="3.94334278" stroke-linecap="round" stroke-linejoin="round" sketch:type="MSShapeGroup"></path>
            </g>
        </g>
    </g>
</svg>