<?xml version="1.0" encoding="UTF-8" standalone="no"?>
<svg width="800px" height="600px" viewBox="0 0 800 600" version="1.1" xmlns="http://www.w3.org/2000/svg" xmlns:xlink="http://www.w3.org/1999/xlink" xmlns:sketch="http://www.bohemiancoding.com/sketch/ns">
    <!-- Generator: Sketch 3.2.2 (9983) - http://www.bohemiancoding.com/sketch -->
    <title>nomadpm-logos</title>
    <desc>Created with Sketch.</desc>
    <defs></defs>
    <g id="Logo" stroke="none" stroke-width="1" fill="none" fill-rule="evenodd" sketch:type="MSPage">
        <g id="nomadpm-logos" sketch:type="MSArtboardGroup">
            <rect id="Rectangle-1" fill="#E6988A" sketch:type="MSShapeGroup" x="0" y="0" width="800" height="300"></rect>
            <g id="logo-color" sketch:type="MSLayerGroup" transform="translate(332.000000, 78.000000)">
                <path d="M50.7157108,25.5414391 L28.2650602,137.88102 L96.6746988,137.88102 L50.7157108,25.5414391" id="Fill-1" fill="#FF4040" sketch:type="MSShapeGroup"></path>
                <path d="M50.7157108,25.5414391 L28.2650602,137.88102 L96.6746988,137.88102 L50.7157108,25.5414391" id="Stroke-2" stroke="#38345C" stroke-width="3.94334278" stroke-linecap="round" stroke-linejoin="round" sketch:type="MSShapeGroup"></path>
                <path d="M50.9741928,26.4021756 L130.866819,129.257745 L96.8795181,137.88102 L51,26.364238 L50.9741928,26.4021756 L50.9741928,26.4021756 Z" id="Fill-3" fill="#EC7863" sketch:type="MSShapeGroup"></path>
                <path d="M50.9741928,26.4021756 L130.866819,129.257745 L96.8795181,137.88102 L51,26.364238 L50.9741928,26.4021756 L50.9741928,26.4021756 Z" id="Stroke-4" stroke="#38345C" stroke-width="3.94334278" stroke-linecap="round" stroke-linejoin="round" sketch:type="MSShapeGroup"></path>
                <path d="M51,26.568204 L28.2650602,137.88102 L0.153614458,114.553428 L50.9741928,26.4021756 L51,26.568204 L51,26.568204 Z" id="Fill-5" fill="#E0594A" sketch:type="MSShapeGroup"></path>
                <path d="M51,26.568204 L28.2650602,137.88102 L0.153614458,114.553428 L50.9741928,26.4021756 L51,26.568204 L51,26.568204 Z" id="Stroke-6" stroke="#38345C" stroke-width="3.94334278" stroke-linecap="round" stroke-linejoin="round" sketch:type="MSShapeGroup"></path>
                <path id="Stroke-7" stroke="#FFFFFF" stroke-width="2.62889518" stroke-linecap="round" stroke-linejoin="round" sketch:type="MSShapeGroup"></path>
                <path d="M74.212988,137.88102 L55.0963855,98.7195467 L49.907494,137.88102 L74.212988,137.88102 L74.212988,137.88102 Z" id="Fill-8" fill="#38345C" sketch:type="MSShapeGroup"></path>
                <path d="M74.212988,137.88102 L55.0963855,98.7195467 L49.907494,137.88102 L74.212988,137.88102 L74.212988,137.88102 Z" id="Stroke-9" stroke="#38345C" stroke-width="2.62889518" stroke-linecap="round" stroke-linejoin="round" sketch:type="MSShapeGroup"></path>
                <path d="M56.4027229,0.256589235 L51.1208434,26.364238 L56.4027229,0.256589235 L56.4027229,0.256589235 Z M43.8116627,5.55970538 L51,26.364238 L43.8116627,5.55970538 L43.8116627,5.55970538 Z" id="Stroke-10" stroke="#38345C" stroke-width="3.94334278" stroke-linecap="round" stroke-linejoin="round" sketch:type="MSShapeGroup"></path>
            </g>
            <rect id="Rectangle-1" fill="#38345C" sketch:type="MSShapeGroup" x="0" y="300" width="400" height="300"></rect>
            <g id="Imported-Layers" sketch:type="MSLayerGroup" transform="translate(166.000000, 414.000000)">
                <path d="M25.3738313,14.5651525 L14.148506,70.5762712 L48.3533253,70.5762712 L25.3738313,14.5651525 L25.3738313,14.5651525 Z M25.5032771,15.007322 L65.4493855,66.2900339 L48.4557349,70.5894915 L25.5159759,14.9886102 L25.5032771,15.007322 L25.5032771,15.007322 Z M25.5159759,15.0903051 L14.148506,70.5894915 L0.0927831325,58.9584407 L25.5032771,15.007322 L25.5159759,15.0903051 L25.5159759,15.0903051 Z" id="Stroke-1" stroke="#FFFFFF" stroke-width="2.44067797" stroke-linecap="round" stroke-linejoin="round" sketch:type="MSShapeGroup"></path>
                <path id="Fill-2" fill="#FFFFFF" sketch:type="MSShapeGroup"></path>
                <path id="Stroke-3" stroke="#000000" stroke-width="1.62711864" stroke-linecap="round" stroke-linejoin="round" sketch:type="MSShapeGroup"></path>
                <path id="Fill-4" fill="#FFFFFF" sketch:type="MSShapeGroup"></path>
                <path id="Stroke-5" stroke="#000000" stroke-width="1.62711864" stroke-linecap="round" stroke-linejoin="round" sketch:type="MSShapeGroup"></path>
                <path id="Fill-6" fill="#FFFFFF" sketch:type="MSShapeGroup"></path>
                <path id="Stroke-7" stroke="#000000" stroke-width="1.62711864" stroke-linecap="round" stroke-linejoin="round" sketch:type="MSShapeGroup"></path>
                <path d="M37.1224699,70.5762712 L27.5641687,51.0508475 L24.9697229,70.5762712 L37.1224699,70.5762712 L37.1224699,70.5762712 Z" id="Stroke-8" stroke="#FFFFFF" stroke-width="2.44067797" stroke-linecap="round" stroke-linejoin="round" sketch:type="MSShapeGroup"></path>
                <path d="M28.2173373,1.97166102 L25.5763976,14.9886102 L28.2173373,1.97166102 L28.2173373,1.97166102 Z" id="Fill-9" fill="#FFFFFF" sketch:type="MSShapeGroup"></path>
                <path d="M28.2173373,1.97166102 L25.5763976,14.9886102 L28.2173373,1.97166102 L28.2173373,1.97166102 Z" id="Stroke-10" stroke="#FFFFFF" stroke-width="2.44067797" stroke-linecap="round" stroke-linejoin="round" sketch:type="MSShapeGroup"></path>
                <path d="M21.9218072,4.61572881 L25.5159759,14.9886102 L21.9218072,4.61572881 L21.9218072,4.61572881 Z" id="Fill-11" fill="#FFFFFF" sketch:type="MSShapeGroup"></path>
                <path d="M21.9218072,4.61572881 L25.5159759,14.9886102 L21.9218072,4.61572881 L21.9218072,4.61572881 Z" id="Stroke-12" stroke="#FFFFFF" stroke-width="2.44067797" stroke-linecap="round" stroke-linejoin="round" sketch:type="MSShapeGroup"></path>
            </g>
            <rect id="Rectangle-1" fill="#FFFFFF" sketch:type="MSShapeGroup" x="400" y="300" width="400" height="300"></rect>
            <g id="Imported-Layers-2" sketch:type="MSLayerGroup" transform="translate(566.000000, 414.000000)">
                <path d="M25.3738313,14.5651525 L14.148506,70.5762712 L48.3533253,70.5762712 L25.3738313,14.5651525 L25.3738313,14.5651525 Z M25.5032771,15.007322 L65.4493855,66.2900339 L48.4557349,70.5894915 L25.5159759,14.9886102 L25.5032771,15.007322 L25.5032771,15.007322 Z M25.5159759,15.0903051 L14.148506,70.5894915 L0.0927831325,58.9584407 L25.5032771,15.007322 L25.5159759,15.0903051 L25.5159759,15.0903051 Z" id="Stroke-1" stroke="#000000" stroke-width="2.44067797" stroke-linecap="round" stroke-linejoin="round" sketch:type="MSShapeGroup"></path>
                <path id="Fill-2" fill="#000000" sketch:type="MSShapeGroup"></path>
                <path id="Stroke-3" stroke="#000000" stroke-width="1.62711864" stroke-linecap="round" stroke-linejoin="round" sketch:type="MSShapeGroup"></path>
                <path id="Fill-4" fill="#000000" sketch:type="MSShapeGroup"></path>
                <path id="Stroke-5" stroke="#000000" stroke-width="1.62711864" stroke-linecap="round" stroke-linejoin="round" sketch:type="MSShapeGroup"></path>
                <path id="Fill-6" fill="#000000" sketch:type="MSShapeGroup"></path>
                <path id="Stroke-7" stroke="#000000" stroke-width="1.62711864" stroke-linecap="round" stroke-linejoin="round" sketch:type="MSShapeGroup"></path>
                <path d="M37.1224699,70.5762712 L27.5641687,51.0508475 L24.9697229,70.5762712 L37.1224699,70.5762712 L37.1224699,70.5762712 Z" id="Stroke-8" stroke="#000000" stroke-width="2.44067797" stroke-linecap="round" stroke-linejoin="round" sketch:type="MSShapeGroup"></path>
                <path d="M28.2173373,1.97166102 L25.5763976,14.9886102 L28.2173373,1.97166102 L28.2173373,1.97166102 Z" id="Fill-9" fill="#000000" sketch:type="MSShapeGroup"></path>
                <path d="M28.2173373,1.97166102 L25.5763976,14.9886102 L28.2173373,1.97166102 L28.2173373,1.97166102 Z" id="Stroke-10" stroke="#000000" stroke-width="2.44067797" stroke-linecap="round" stroke-linejoin="round" sketch:type="MSShapeGroup"></path>
                <path d="M21.9218072,4.61572881 L25.5159759,14.9886102 L21.9218072,4.61572881 L21.9218072,4.61572881 Z" id="Fill-11" fill="#000000" sketch:type="MSShapeGroup"></path>
                <path d="M21.9218072,4.61572881 L25.5159759,14.9886102 L21.9218072,4.61572881 L21.9218072,4.61572881 Z" id="Stroke-12" stroke="#000000" stroke-width="2.44067797" stroke-linecap="round" stroke-linejoin="round" sketch:type="MSShapeGroup"></path>
            </g>
        </g>
    </g>
</svg>