<?xml version="1.0" encoding="UTF-8" standalone="no"?>
<svg width="600px" height="400px" viewBox="0 0 600 400" version="1.1" xmlns="http://www.w3.org/2000/svg" xmlns:xlink="http://www.w3.org/1999/xlink" xmlns:sketch="http://www.bohemiancoding.com/sketch/ns">
    <title>Artboard 1</title>
    <description>Created with Sketch (http://www.bohemiancoding.com/sketch)</description>
    <defs></defs>
    <g id="Page 1" fill="#D8D8D8" fill-rule="evenodd">
        <g id="Artboard 1">
            <path d="M0,0 L0,400 L600,400 L600,0 L0,0 Z M0,0" id="Rectangle 2" fill="#0091DD"></path>
            <path d="M174,238.5 C174,216.679956 191.68455,199 213.499548,199 L215.002245,199 C215.275575,168.578405 240.465772,144 271.5,144 C277.494794,144 283.271526,144.917108 288.692724,146.616284 C298.814329,137.555662 312.471986,132 327.5,132 C357.103996,132 381.3902,153.559232 383.80307,181.001207 C407.135675,181.187162 426,202.829568 426,229.5 C426,256.285812 406.972103,278 383.5,278 C382.839554,278 382.182627,277.982808 381.529559,277.948795 C380.857484,277.982795 380.180978,278 379.500452,278 L213.499548,278 C191.693692,278 174,260.315248 174,238.5 Z M174,238.5" id="Rectangle 1 copy" fill="#B5C6DF"></path>
            <path d="M174,234.5 C174,212.679956 191.68455,195 213.499548,195 L215.002245,195 C215.275575,164.578405 240.465772,140 271.5,140 C277.494794,140 283.271526,140.917108 288.692724,142.616284 C298.814329,133.555662 312.471986,128 327.5,128 C357.103996,128 381.3902,149.559232 383.80307,177.001207 C407.135675,177.187162 426,198.829568 426,225.5 C426,252.285812 406.972103,274 383.5,274 C382.839554,274 382.182627,273.982808 381.529559,273.948795 C380.857484,273.982795 380.180978,274 379.500452,274 L213.499548,274 C191.693692,274 174,256.315248 174,234.5 Z M174,234.5" id="Rectangle 1 copy" fill="#FCFCFC"></path>
            <path d="M174,233.5 C174,211.679956 191.68455,194 213.499548,194 L215.002245,194 C215.275575,163.578405 240.465772,139 271.5,139 C277.494794,139 283.271526,139.917108 288.692724,141.616284 C298.814329,132.555662 312.471986,127 327.5,127 C357.103996,127 381.3902,148.559232 383.80307,176.001207 C407.135675,176.187162 426,197.829568 426,224.5 C426,251.285812 406.972103,273 383.5,273 C382.839554,273 382.182627,272.982808 381.529559,272.948795 C380.857484,272.982795 380.180978,273 379.500452,273 L213.499548,273 C191.693692,273 174,255.315248 174,233.5 Z M174,233.5" id="Rectangle 1" fill="#F4F8FC"></path>
        </g>
    </g>
</svg>