<?xml version="1.0" standalone="no"?>
<!DOCTYPE svg PUBLIC "-//W3C//DTD SVG 1.1//EN" "http://www.w3.org/Graphics/SVG/1.1/DTD/svg11.dtd" >
<svg xmlns="http://www.w3.org/2000/svg">
<metadata>
Created by FontPrep 20130207 at Thu Feb 27 20:44:33 2014
 By Cole Townsend
Copyright (c) 2013 by Carlos de Toro Hernando. All rights reserved. www.carlosdetoro.com
</metadata>
<defs>
<font id="32eea6b74acebc8acc3d847d837f5f1b" horiz-adv-x='1024' >
  <font-face 
    font-family="Born"
    font-weight="400"
    font-stretch="normal"
    units-per-em="2048"
    panose-1="0 0 0 0 0 0 0 0 0 0"
    ascent="1536"
    descent="-512"
    x-height="920"
    cap-height="1423"
    bbox="-84 -563 2108.33 1868"
    underline-thickness="102"
    underline-position="-102"
    unicode-range="U+000D-FB04"
  />
<missing-glyph horiz-adv-x="389" 
 />
    <glyph glyph-name="ff" unicode="ff" horiz-adv-x="1370" 
d="M82 68h98q27 0 31 38l6 478q0 29 6 194q-4 39 -30 39l-87 2q-8 0 -8 6v54q0 14 5 15q58 12 124 21q10 252 109 369q27 33 78 77q50 44 160 85t198 41q168 0 250 -82q61 53 149 99t187 46q152 0 213 -69l2 -23l-29 -190q0 -6 -8 -6h-96q-8 0 -8 8l-7 69q-6 45 -55 69
t-100 24q-154 0 -199 -146q-37 -115 -37 -483q0 -113 4 -363l6 -334q4 -39 29 -38h94q20 0 21 -74q-116 6 -186 6t-304 -6q0 74 21 74h108q27 0 31 38l4 334q0 118 8 338q-4 39 -30 39l-86 2q-8 0 -9 6v54q0 14 9 16l120 20q4 186 31 291q-2 84 -72 126q-71 42 -155 42
t-160 -49t-100 -117q-31 -104 -31 -469l4 -299l6 -331q4 -41 29 -41h94q20 0 21 -74q-115 6 -181 6t-299 -6q1 74 21 74z" />
    <glyph glyph-name="fi" unicode="fi" horiz-adv-x="1282" 
d="M541 68q20 0 20 -74q-113 6 -179 6t-300 -6q0 74 20 74h99q27 0 30 38l5 334q0 118 8 338q-4 39 -31 39l-86 2q-8 0 -8 6v54q0 14 5 15q58 12 124 21q10 252 108 369l11 10q18 27 80 76t137 83q76 34 220 34t222 -78l2 -23l-29 -190q0 -6 -8 -6h-96q-8 0 -8 8l-6 70
q-5 49 -63 78q-58 28 -136 28t-148 -48t-96 -116q-27 -96 -30 -284q4 -10 14 -11h358q82 -1 142 9t67 10l21 -6l41 -45v-570l10 -204q0 -32 20 -39h105q20 0 20 -74q-150 6 -250 6l-239 -6q0 74 20 74h99q31 -2 30 39q8 111 8 204v459q0 43 -49 45h-399q-18 0 -18 -26v-125
l4 -201v-23l6 -336q4 -39 28 -38h95z" />
    <glyph glyph-name="fl" unicode="fl" horiz-adv-x="1277" 
d="M446 68h95q20 0 20 -74q-113 6 -179 6t-300 -6q0 74 20 74h99q27 0 30 38l5 334q0 118 8 338q-4 39 -31 39l-86 2q-8 0 -8 6v54q0 14 5 15q58 12 124 21q6 141 34 235t108 173q80 80 175 122t201 42t178 -27l45 19l21 -9l41 -36v-1123l8 -205q4 -39 31 -38h96
q20 0 20 -74q-114 6 -186 6t-305 -6q0 74 20 74h101q25 0 28 38q10 111 10 205v977q-18 39 -70 63q-52 23 -126 23t-144 -48t-96 -116q-27 -96 -30 -284q4 -10 14 -11h194l-34 -98h-156q-18 0 -18 -26v-125l4 -201v-23l6 -333q4 -41 28 -41z" />
    <glyph glyph-name="ffi" unicode="ffi" horiz-adv-x="1884" 
d="M82 68h98q27 0 31 38l4 334q0 118 8 338q-4 39 -30 39l-87 2q-8 0 -8 6v54q0 14 5 15q58 12 124 21q10 252 109 369q29 35 65 64q63 57 174 98t197 41q168 0 250 -82q61 53 149 99t187 46q152 0 213 -69l2 -23l-29 -190q0 -6 -8 -6h-96q-8 0 -8 8l-7 69q-6 45 -55 69
t-100 24q-152 0 -201 -146q-23 -74 -29 -184t-6 -363l4 -299l6 -334q4 -39 29 -38h74q20 0 20 -74q-115 6 -175 6t-294 -6q0 74 21 74h108q27 0 31 38l4 334q0 118 8 338q-4 39 -30 39l-86 2q-8 0 -9 6v54q0 14 9 16l120 20q4 186 31 291q-2 84 -72 126q-71 42 -155 42
t-160 -49t-100 -117q-31 -104 -31 -469l4 -299l6 -331q4 -41 29 -41h115q20 0 20 -74q-113 6 -189 6t-311 -6q1 74 21 74zM1733 68q20 0 20 -74q-150 6 -250 6l-221 -6q0 74 21 74h79q31 -2 31 38q8 111 8 205v459q0 47 -57 47h-82q-10 0 -10 8v47q0 14 10 17l66 12
q68 11 127 21t61 10l20 -6l41 -45v-570l11 -205q0 -36 22 -36l6 -2h97z" />
    <glyph glyph-name="ffl" unicode="ffl" horiz-adv-x="1828" 
d="M1147 68q20 0 20 -74q-115 6 -179 6t-296 -6q0 74 21 74h114q27 0 31 38l4 334q0 118 8 338q-4 39 -30 39l-86 2q-8 0 -9 6v54q0 14 9 16l120 20q4 186 31 291q-2 84 -72 126q-71 42 -155 42t-160 -49t-100 -117q-31 -104 -31 -469l4 -299l6 -331q4 -41 29 -41h115
q20 0 20 -74q-113 6 -189 6t-311 -6q1 74 21 74h98q27 0 31 38l4 334q0 118 8 338q-4 39 -30 39l-87 2q-8 0 -8 6v54q0 14 5 15q58 12 124 21q10 252 109 369q27 33 78 77q50 44 160 85t198 41q168 0 250 -82q61 53 149 99q89 46 185 46t160 -30l34 16l21 -8l28 -43v-1174
q0 -178 9 -202q4 -41 30 -41h97q20 0 20 -74q-113 6 -250 6l-225 -6q0 74 20 74h84q25 0 29 38q10 111 10 205v1039q-10 41 -59 61t-94 21q-152 0 -201 -146q-35 -111 -35 -426l4 -420l6 -334q4 -39 29 -38h74z" />
    <glyph glyph-name=".notdef" horiz-adv-x="389" 
 />
    <glyph glyph-name=".null" horiz-adv-x="0" 
 />
    <glyph glyph-name="nonmarkingreturn" horiz-adv-x="681" 
 />
    <glyph glyph-name="NULL" horiz-adv-x="0" 
 />
    <glyph glyph-name="NULL" horiz-adv-x="0" 
 />
    <glyph glyph-name="CR" unicode="&#xd;" horiz-adv-x="389" 
 />
    <glyph glyph-name="space" unicode=" " horiz-adv-x="440" 
 />
    <glyph glyph-name="exclam" unicode="!" horiz-adv-x="587" 
d="M207 99q1 44 25 67t81 27t82 -25q27 -25 24 -72q-7 -112 -120 -110q-39 0 -72 39q-20 30 -20 74zM344 412q0 -10 -14 -9q-55 8 -66 13q-10 2 -10 14q-66 872 -71 905t20 39q149 35 175 38t34 -2q10 -5 8 -21q-76 -967 -76 -977z" />
    <glyph glyph-name="quotedbl" unicode="&#x22;" horiz-adv-x="550" 
d="M518 1380q0 -76 -15 -190t-31 -158q-16 -42 -32 -58q-33 -33 -37 -3q-4 354 -28 422q-2 8 8 14q85 57 105 62t25 -4t5 -85zM242 1368q0 -76 -16 -190t-31 -158q-15 -42 -31 -58t-22 -17q-16 -3 -15 13q-4 354 -29 422q-2 8 8 15q116 78 130 61q6 -12 6 -88z" />
    <glyph glyph-name="numbersign" unicode="#" horiz-adv-x="1216" 
d="M463 555h272q29 201 41 301h-270zM117 434q-12 0 -13 19q10 84 19 102q2 4 17 3t202 -3q8 65 22 160q15 96 21 141h-219q-12 0 -12 18q10 84 18 103q2 4 17 3t212 -3l60 446q0 10 12 7q59 -20 105 -46q6 -2 2 -14l-58 -393h271l59 450q0 10 12 7q61 -20 107 -45
q6 -2 2 -15l-58 -397h232q13 -7 -9 -63t-28 -58h-211l-43 -301h242q13 -6 -9 -63q-22 -56 -28 -58h-223q-64 -389 -84 -399q-10 -14 -90 -58q-18 -7 -21 -2q-5 6 9 72t65 387h-273q-51 -311 -73 -383q-6 -14 -11 -16q-10 -14 -90 -58q-17 -7 -20 -1q-4 4 14 92t62 366h-209z
" />
    <glyph glyph-name="dollar" unicode="$" horiz-adv-x="1056" 
d="M313 1112q0 -92 35 -158t160 -139q27 262 47 516h-27q-94 -3 -154 -65t-61 -154zM768 301q0 127 -215 260q-41 -401 -57 -512h26q135 2 191 84q55 82 55 168zM944 367q0 -143 -86 -239q-127 -143 -375 -159l-16 -88q-7 -33 -21 -42t-34 -17q-29 -12 -23 14l23 135
q-123 6 -228 49l-43 13q-6 8 -7 16t-17 119q-17 111 -17 121t6 14l76 21q8 2 13 -5q7 -20 22 -78q14 -58 50 -103q11 -13 55 -41t102 -40q47 342 59 545q-149 80 -245 178t-97 238q0 276 285 364q59 18 137 19l12 135q4 18 15 14l57 -34q6 -4 6 -17l-12 -100l123 -13l90 -14
l37 -37l4 -26l-10 -219q0 -8 -8 -9h-76q-8 0 -8 9q0 46 -17 100t-33 72q-29 43 -112 61q-33 -309 -56 -545q21 -12 124 -67q104 -55 129 -79q73 -71 85 -107q31 -95 31 -158z" />
    <glyph glyph-name="percent" unicode="%" horiz-adv-x="1443" 
d="M279 -150q-12 -12 -39 27t-34 48t1 22q72 104 294 443q552 842 642 939q25 25 106 27q31 0 17 -19q-189 -245 -449 -647q-259 -402 -538 -840zM782 326q0 166 106 286t271 119q117 1 192 -107t75 -282t-101 -285q-99 -111 -243 -111t-222 108q-78 106 -78 272zM930 375
q0 -154 48 -255q48 -102 132 -102t129 88t45 220t-41 233q-41 100 -125 100q-188 1 -188 -284zM308 520q-144 0 -222 106t-78 273q0 166 106 286t271 120q117 0 192 -108q75 -107 75 -281t-101 -285q-99 -111 -243 -111zM156 948q0 -154 48 -255t132 -101t129 88t45 220
t-41 233q-41 100 -125 100q-188 0 -188 -285z" />
    <glyph glyph-name="ampersand" unicode="&#x26;" horiz-adv-x="1628" 
d="M719 1151q0 73 -52 143t-127 70t-120 -56t-45 -139q0 -82 20 -133t45 -82t88 -98q61 47 93 75q31 28 64 87q34 59 34 133zM256 412q0 -123 116 -208t253 -85q90 0 143 33t141 127q4 4 0 10q-413 343 -483 420q-8 8 -20 0q-94 -81 -122 -143t-28 -154zM518 -25
q-202 1 -324 103t-122 305q0 119 67 207q68 88 226 180q-158 168 -158 322q0 122 100 234q99 112 243 112t233 -75t89 -204t-80 -202q-80 -72 -194 -148q-10 -8 6 -25q88 -84 410 -352q156 259 180 330q12 31 9 43t-27 12h-78q-20 0 -21 74q156 -4 238 -4t158 4
q0 -74 -21 -74h-66q-66 0 -96 -55l-217 -381l324 -266q45 -39 106 -39h62q29 0 28 -80q-78 4 -112 4l-195 -4q-25 0 -41 16l-106 88q-68 53 -162 131q-182 -256 -459 -256z" />
    <glyph glyph-name="quotesingle" unicode="'" horiz-adv-x="348" 
d="M131 913q-4 1 0 59q12 179 -33 419q-4 18 6 24l121 72q3 6 17 2t16 -21q8 -135 -12 -315t-84 -231q-10 -8 -15 -9h-16z" />
    <glyph glyph-name="parenleft" unicode="(" horiz-adv-x="534" 
d="M29 537q0 594 434 923q19 11 37 -33q2 -4 -2 -12q-342 -295 -342 -827t329 -854q13 -12 9 -20t-23 -31q-12 -10 -25 2q-213 151 -315 385t-102 467z" />
    <glyph glyph-name="parenright" unicode=")" horiz-adv-x="534" 
d="M514 537q0 -233 -102 -467t-316 -385q-14 -12 -24 -2q-18 23 -22 31t7 20q330 322 330 854t-342 827q-8 15 21 47q4 4 14 -2q434 -329 434 -923z" />
    <glyph glyph-name="asterisk" unicode="*" horiz-adv-x="819" 
d="M762 1274q0 -12 -16 -45t-31 -39q-27 -10 -102 -37t-119 -43q48 -39 122 -102q74 -62 96 -80t7 -27q-17 -8 -59 -14t-54 2q-70 61 -172 143q-53 -252 -57 -270t-12 -19q-23 0 -47 39q-24 40 -20 56t42 215l-283 -103q-34 0 31 88q11 15 27 21l196 74q-51 45 -122 103
t-84 70t-2 22q11 11 59 38q14 8 26 -2l189 -158l53 236q6 18 24 26t62 13q16 0 16 -15l-65 -278q159 66 225 86t68 16t2 -16z" />
    <glyph glyph-name="plus" unicode="+" 
d="M80 465q-10 0 -4 42t26 85q0 4 21 4h356v395q4 16 109 41q12 4 20 -4v-211q0 -184 2 -221h424q10 0 6 -17q-27 -114 -43 -114h-389v-170l2 -229q0 -20 -6 -21q-43 -20 -85 -27t-42 5l2 442h-399z" />
    <glyph glyph-name="comma" unicode="," horiz-adv-x="395" 
d="M358 0q0 -84 -66 -208q-32 -60 -94 -128t-78 -72t-38 4q-20 8 -22 17q-2 7 38 53q106 117 107 250q-1 32 -29 92t-30 65q-1 5 6 15q39 61 106 107q35 22 55 -7q45 -59 45 -188z" />
    <glyph glyph-name="hyphen" unicode="-" horiz-adv-x="688" 
d="M565 459l-426 -2q-2 0 -5 7t-1 11q8 66 31 113q0 4 28 2t410 -2q8 -8 4 -22q-29 -104 -41 -107z" />
    <glyph glyph-name="period" unicode="." horiz-adv-x="346" 
d="M88 12q-10 13 -15 54t-2 59t21 44t83 32t97 -33q16 -23 15 -94q-4 -49 -29 -72q-25 -22 -85 -22t-85 32z" />
    <glyph glyph-name="slash" unicode="/" horiz-adv-x="880" 
d="M707 1499q53 -43 64 -52t7 -20q-41 -102 -282 -736t-299 -746q-37 -31 -75 -38t-41 -3t1 12q162 352 612 1581q5 8 13 2z" />
    <glyph glyph-name="zero" unicode="0" 
d="M72 707q0 249 117 457q57 102 161 166t236 65q200 1 316 -179t116 -516t-138 -532t-362 -195q-224 0 -336 196q-110 196 -110 538zM566 57q88 0 142 65q81 98 107 355q8 80 8 164q0 348 -83 510t-211 162q-127 1 -195 -149t-68 -380t51 -453q29 -122 95 -198t154 -76z
" />
    <glyph glyph-name="one" unicode="1" 
d="M754 66h118q23 0 23 -72q-113 6 -262 6t-383 -6q0 72 20 72h131q35 0 56 18q20 18 20 45q6 100 6 195v850q0 51 -102 51h-84q-8 0 -8 6v47q0 14 8 16q7 2 155 43t150 41l21 -6l51 -53v-995l4 -195q0 -27 20 -45t56 -18z" />
    <glyph glyph-name="two" unicode="2" 
d="M821 0v4v-4zM934 -2h-111q-516 2 -612 2t-145 -4v2q-9 9 -9 24t2 23q33 27 153 148t144 153t79 100q149 186 196 297q47 110 47 219t-67 191t-183 82t-219 -78q-39 -41 -47 -164q0 -6 -6 -8q-95 0 -97 10l-6 170q0 16 8 25q18 12 68 55t125 80q136 68 278 68t240 -111
t98 -270q0 -80 -57 -206t-190 -276q-262 -297 -285 -319q-29 -35 -29 -44t38 -11t257 -2l199 2q61 6 84 69q18 47 31 107q4 10 14 7t72 -24q10 -4 10 -14q-35 -213 -51 -285q-8 -18 -29 -18z" />
    <glyph glyph-name="three" unicode="3" 
d="M469 45q139 0 225 72t86 209q0 328 -354 327q-44 0 -64 -1t-18 7q8 66 39 76q121 27 208 101t87 181t-67 180t-156 73t-158 -37q-31 -27 -41 -82q-2 -12 -8 -94q0 -4 -6 -8q-93 0 -95 10l-6 121q0 16 9 24q209 221 382 221q130 0 226 -89t96 -230q0 -69 -25 -121t-48 -77
q-23 -24 -45 -46t-42 -36t-26 -19l-9 -4q-20 -16 11 -21q93 -26 190 -102q51 -40 85 -104t34 -140q-1 -199 -161 -338t-365 -151q-125 0 -193 17t-106 73q-51 68 -56 235q0 10 11 15q61 20 71 23t15 -7q43 -154 84 -199q51 -59 190 -59z" />
    <glyph glyph-name="four" unicode="4" 
d="M207 481h411q10 0 17 15v651l-12 -2q-399 -616 -424 -653q-6 -11 8 -11zM811 1374v-878q4 -16 20 -17h199l-45 -131h-154q-20 0 -20 -20v-11q6 -356 6 -376q-57 4 -113 4t-83 -4l4 378q0 29 -11 29l-4 2h-579q-4 29 4 62l10 20l653 940q27 6 99 14q14 0 14 -12z" />
    <glyph glyph-name="five" unicode="5" 
d="M432 1368q272 0 490 -6q18 0 14 -27l-23 -243l-6 -7q-29 -4 -94 -4q-6 4 -6 9l-8 100q-4 31 -19 31q-123 4 -182 4h-172q-8 1 -14 -19t-33 -119q-28 -103 -25 -114q3 -10 9 -13q6 -4 10 -7t6 -3l80 -41q236 -118 332 -188q24 -12 60 -48q37 -36 61 -72q62 -90 63 -230
q0 -183 -156 -319t-352 -148h-12q-123 0 -205 35t-128 101q-46 65 -50 232q0 10 10 15q62 20 72 23t14 -7q35 -125 78 -170q109 -123 259 -123q300 0 300 299q0 70 -33 118t-115 124q-92 77 -297 182l-67 33l-53 31q-2 2 -7 6q-4 4 -9 21t3 40l144 482q8 23 57 22h4z" />
    <glyph glyph-name="six" unicode="6" 
d="M668 909q144 0 245 -126q101 -127 101 -321t-136 -341t-352 -148q-334 0 -413 295q-39 94 -39 238q0 282 184 556q92 136 252 250t367 181q8 4 19 -7q11 -10 15 -26t-4 -22q-47 -21 -143 -88q-96 -68 -165 -127t-139 -151t-104 -185q-10 -25 -12 -49t8 -25q172 96 316 96
zM276 502q0 -184 81 -312t211 -127q130 -1 194 95q63 96 63 233t-75 257q-76 120 -222 120q-252 0 -252 -266z" />
    <glyph glyph-name="seven" unicode="7" 
d="M969 1343q28 0 22 -26v-8l-47 -119q-547 -1219 -557 -1243t-22 -17h-7q-70 18 -75 45q-3 13 4 23q543 1146 551 1166t-4 24q-303 -4 -539 -4q-55 -6 -81 -36t-40 -110q-2 -8 -8 -8h-84q-10 0 -10 8l45 273q6 31 30 30h72q715 2 750 2z" />
    <glyph glyph-name="eight" unicode="8" 
d="M578 63q88 1 156 61t69 140q0 113 -73 192t-259 183q-10 6 -20 0q-91 -77 -133 -145t-42 -148q0 -117 84 -200t218 -83zM536 1317q-100 0 -154 -57q-54 -58 -54 -158t61 -172t211 -158q10 -8 21 0q152 127 151 272q0 121 -67 197q-69 76 -169 76zM170 1028q0 172 124 270
t278 97q155 -1 256 -95t102 -237q0 -86 -53 -165t-187 -169q-8 -6 0 -10q162 -102 220 -175t59 -188q0 -158 -120 -270q-119 -112 -309 -111q-190 0 -313 85t-123 249t285 365q6 2 6 7t-4 7q-125 84 -173 164t-48 176z" />
    <glyph glyph-name="nine" unicode="9" 
d="M516 1337q-121 0 -184 -95q-64 -95 -64 -232t84 -248t220 -111q136 1 190 55q53 54 54 192t-61 278q-33 72 -95 116t-144 45zM446 510q-152 0 -253 120q-103 120 -103 310t134 338q134 147 343 149q141 0 242 -66q100 -67 149 -181q62 -100 62 -265t-46 -303
q-108 -321 -390 -524q-160 -114 -367 -180q-8 -4 -19 7q-12 11 -16 27t4 21q44 20 142 87q98 68 167 128t139 152t100 176q28 84 14 88q-150 -84 -302 -84z" />
    <glyph glyph-name="colon" unicode=":" horiz-adv-x="415" 
d="M173 561q-60 0 -85 33q-10 12 -15 53t-2 59t21 45q18 25 83 31t97 -32q16 -23 15 -95q-4 -49 -29 -71t-85 -23zM88 20q-10 13 -15 54t-2 59t21 44t83 32t97 -33q16 -23 15 -94q-4 -49 -29 -72q-25 -22 -85 -22t-85 32z" />
    <glyph glyph-name="semicolon" unicode=";" horiz-adv-x="395" 
d="M358 0q0 -84 -66 -208q-32 -60 -94 -128t-78 -72t-38 4q-20 8 -22 17q-2 8 32 46q96 105 111 220q6 57 -9 89q-14 32 -32 69t-14 43t4 8q39 61 106 107q35 22 55 -7q45 -59 45 -188zM242 561q-60 0 -84 33q-11 12 -16 53t-2 59q4 18 22 45q18 26 67 29q80 8 113 -30
q16 -24 13 -84t-27 -82q-26 -22 -86 -23z" />
    <glyph glyph-name="less" unicode="&#x3c;" 
d="M1075 1118q0 -131 -35 -166q-53 -39 -375 -202q-321 -162 -339 -170q-10 -6 0 -13q27 -16 380 -188t388 -205q6 -6 -14 -60t-31 -72q-12 -18 -23 -11q-74 55 -430 237t-522 250q-12 6 0 46t26 46q885 461 961 520q14 8 14 -12z" />
    <glyph glyph-name="equal" unicode="=" 
d="M979 281l-897 -2q-6 0 -6 18q10 80 26 119q4 6 24 3t890 -3q13 -6 -9 -70q-22 -63 -28 -65zM983 651l-903 -2q-10 1 -4 43t28 88q0 4 28 2t888 -2q8 -8 4 -22q-30 -104 -41 -107z" />
    <glyph glyph-name="greater" unicode="&#x3e;" 
d="M180 184q64 48 715 373q9 6 -9 17q-18 12 -371 184t-388 205q-6 6 13 60q20 55 32 73t23 10q74 -56 430 -238t522 -250q12 -6 0 -46t-27 -46q-885 -461 -960 -520q-14 -6 -15 12q0 72 21 148q2 4 14 18z" />
    <glyph glyph-name="question" unicode="?" horiz-adv-x="774" 
d="M262 99q0 44 25 67t82 27t82 -25q27 -25 23 -72t-28 -79q-25 -31 -78 -31t-85 39q-21 30 -21 74zM111 1094q-23 0 -23 6q-16 86 -16 162t46 116q46 39 184 39t266 -99t128 -251q0 -119 -60 -189t-249 -225q-90 -74 12 -170q20 -16 -2 -30q-37 -18 -55 -31q-16 -6 -45 14
q-115 88 -111 185q0 27 19 41q145 102 268 210q33 31 54 77q22 46 22 81q-2 102 -97 170t-208 74q-59 -6 -60 -41q-2 -29 -2 -127q0 -4 -6 -8h-14q-28 -4 -51 -4z" />
    <glyph glyph-name="at" unicode="@" horiz-adv-x="1576" 
d="M713 467q59 0 211 78v184q-33 -8 -234 -67q-49 -14 -66 -38q-18 -24 -18 -70t24 -66t83 -21zM1206 348q107 0 167 123t61 313q0 266 -188 438t-470 171q-284 0 -441 -198q-157 -197 -157 -493t193 -474t506 -177q111 0 205 26t135 50l38 27q7 6 11 1t0 -40t-12 -38
t-25 -12q-139 -69 -287 -91q-56 -7 -111 -7q-186 1 -330 59t-229 142q-84 84 -137 194q-90 186 -90 373q0 299 215 512q214 213 528 213t525 -187t211 -445t-96 -410t-244 -152q-105 0 -163 25q-22 8 -40 30q-55 67 -55 146l-2 20q-33 -16 -85 -54q-197 -143 -303 -21
q-50 58 -50 135q0 78 37 109q38 30 107 57q68 27 294 71v119q0 53 -54 107t-145 55q-8 0 -84 -21q-18 -24 -21 -50q-2 -26 -4 -68t-6 -41q-51 0 -63 1t-12 7l-3 102q0 16 5 19q3 0 31 24q133 109 217 110q85 1 172 -48t87 -154v-284l3 -168q7 -62 24 -92q28 -54 135 -54z
" />
    <glyph glyph-name="A" unicode="A" horiz-adv-x="1476" 
d="M808 1417q30 0 48 2q35 -121 248 -697t225 -591q29 -55 84 -55h84q20 0 21 -82q-112 6 -226 6t-348 -6q0 82 21 82h82q47 0 65 16t10 39q-70 201 -149 434q-4 2 -10 2h-426q-6 0 -9 -2l-157 -432q-11 -25 11 -40t67 -15h96q23 0 22 -82q-113 6 -201 6t-323 -6q0 82 20 82
h99q24 0 52 15t38 40q426 1110 487 1286l17 -2h52zM575 666h349q6 0 10 4l-178 512l-189 -514q2 -2 8 -2z" />
    <glyph glyph-name="B" unicode="B" horiz-adv-x="1323" 
d="M668 1339q-126 0 -129 -49l-2 -8v-471q4 -8 16 -8h160q131 0 199 58q68 59 67 195q0 136 -92 210q-93 73 -219 73zM553 705q-12 0 -16 -11v-362q0 -47 6 -164q8 -45 65 -70t144 -24q143 0 231 72t88 220q1 148 -81 240t-232 99h-205zM375 0q-33 0 -266 -6q0 86 20 86h98
q53 0 83 17t30 40q4 100 4 195v950q0 23 -28 39t-52 16h-98q-20 0 -21 82q233 -6 287 -6h107q147 4 279 4t248 -78q116 -77 116 -241t-158 -264q-35 -23 -94 -41q96 -11 169 -51q120 -65 166 -191q17 -49 17 -94q0 -242 -227 -383q-125 -78 -334 -78l-176 4h-170z" />
    <glyph glyph-name="C" unicode="C" horiz-adv-x="1540" 
d="M168 672q0 162 35 279q35 118 88 195t128 136t145 91q176 81 342 81q167 0 489 -37l43 -41q8 -4 8 -15t-8 -122t-10 -120t-13 -9h-78q-8 0 -10 8q2 25 -16 70q-30 85 -91 114q-135 62 -319 62q-233 0 -367 -176t-134 -434t125 -459q93 -145 272 -205q99 -33 207 -33
t194 45t123 131q14 35 31 107q4 10 14 7t72 -23q10 -4 10 -15q-33 -201 -49 -272q-6 -13 -29 -19q-274 -61 -444 -61t-342 75q-113 48 -201 123t-152 215q-63 140 -63 302z" />
    <glyph glyph-name="D" unicode="D" horiz-adv-x="1667" 
d="M860 86q228 0 358 166t129 380q-1 216 -49 350q-126 350 -596 349q-165 0 -163 -57l-4 -514l2 -508v-78q16 -88 323 -88zM262 1337h-96q-20 0 -21 82q78 -2 207 -2t236 -4q109 4 311 4q281 1 477 -197t195 -477q-6 -329 -223 -541t-594 -212l-322 10q-246 0 -323 -2
q0 88 20 88h98q111 0 115 72q2 38 2 598l-2 526q0 23 -28 39t-52 16z" />
    <glyph glyph-name="E" unicode="E" horiz-adv-x="1251" 
d="M266 1286q0 23 -27 39q-28 16 -53 16h-96q-20 0 -20 82q233 -6 286 -6h688l37 -39q6 -4 6 -20l-10 -215q0 -8 -10 -8l-82 -5q-8 0 -8 9q-2 94 -28 137t-109 43h-322q-53 0 -57 -55v-486q2 -6 14 -6h320q127 0 127 82l8 64q2 16 28 22t52 -10q-16 -104 -16 -190t3 -236
q-27 -14 -51 -6t-24 30v54q0 44 -39 68t-88 24h-320q-10 0 -14 -8v-512q12 -57 65 -58h371q53 0 89 23q74 47 108 209q4 10 14 7t72 -24q10 -4 10 -14q-33 -201 -49 -272q-6 -16 -29 -19q-67 -6 -178 -6h-635q-33 0 -266 -6q0 86 20 86h99q110 0 114 72q2 38 2 104l-2 70
v960z" />
    <glyph glyph-name="F" unicode="F" horiz-adv-x="1185" 
d="M944 502v55q0 43 -39 65t-88 21h-338q-12 0 -16 -10v-307l4 -195q0 -19 28 -37t54 -18h96q20 0 21 -82q-113 6 -236 6t-356 -6q0 82 20 82h99q25 0 51 16t24 39q2 100 2 195v960q0 23 -27 39q-28 16 -53 16h-96q-20 0 -20 82q233 -6 286 -6h721l37 -39q6 -4 6 -20
l-10 -207q0 -8 -10 -8l-82 -4q-8 0 -8 8q-2 92 -28 132t-109 40h-351q-57 0 -61 -55l-2 -514q4 -8 16 -9h338q51 1 89 21t38 65l8 66q2 16 28 21t52 -11q-16 -105 -16 -189t4 -235q-28 -14 -52 -7t-24 30z" />
    <glyph glyph-name="G" unicode="G" horiz-adv-x="1554" 
d="M1509 564q0 -26 -18 -25l-74 -17q-55 -12 -55 -71l2 -404q0 -14 -16 -20l-66 -19l-248 -41q-72 -10 -161 -10t-169 13q-80 14 -192 62q-113 48 -201 123t-151 215t-64 322q0 334 209 549t569 215q174 0 449 -39l45 -43q6 -4 6 -20l-20 -236q0 -8 -11 -8h-81q-8 0 -9 8
q5 194 -284 238q-66 10 -140 10q-178 0 -305 -113q-84 -76 -132 -182q-48 -107 -56 -167t-8 -166t34 -233q115 -440 584 -448q102 -1 156 17t60 61q7 43 7 94l2 222q0 55 -69 63l-158 23q-20 2 -20 73q116 -6 234 -6t351 6v-46z" />
    <glyph glyph-name="H" unicode="H" horiz-adv-x="1716" 
d="M549 76h96q20 0 21 -82q-113 6 -236 6t-356 -6q0 82 20 82h99q25 0 51 16t24 39l4 195v960q0 23 -27 39q-28 16 -52 16h-99q-20 0 -20 82q233 -6 356 -6t236 6q0 -82 -21 -82h-96q-25 0 -53 -16t-31 -39v-508q4 -8 16 -8h764q10 0 15 10v506q0 20 -28 38t-52 17h-101
q-20 0 -20 82q233 -6 355 -6t237 6q0 -82 -21 -82h-96q-24 0 -52 -17t-30 -38v-960l6 -195q0 -23 26 -39t50 -16h96q20 0 21 -82q-115 6 -237 6t-355 -6q0 82 20 82h101q24 0 50 16t25 39l5 195v340q0 6 -15 6h-764q-10 0 -16 -10v-336q0 -168 8 -193q-1 -23 25 -40t51 -17z
" />
    <glyph glyph-name="I" unicode="I" horiz-adv-x="739" 
d="M645 1341h-96q-25 0 -53 -16t-31 -39v-960l6 -195q0 -19 27 -37t51 -18h96q20 0 21 -82q-113 6 -236 6t-356 -6q0 82 20 82h99q25 0 51 17t24 38l4 195v960q0 23 -27 39q-28 16 -52 16h-99q-20 0 -20 82q233 -6 356 -6t236 6q-1 -82 -21 -82z" />
    <glyph glyph-name="J" unicode="J" horiz-adv-x="768" 
d="M315 -231v690q2 371 2 432v395q0 25 -24 40q-25 15 -49 15h-101q-20 0 -20 82q233 -6 357 -6t235 6q-1 -82 -21 -82h-96q-30 0 -56 -14t-24 -41v-395l2 -432q0 -217 -24 -432q0 -26 -8 -74q-8 -49 -12 -87q-5 -38 -11 -57t-17 -64t-49 -114t-71 -107t-37 -43t-7 -7t-6 -5
q-12 -12 -20 -12l-20 -2l-218 2l-8 8q-4 41 -4 134q2 8 10 8q88 6 218 24q55 8 67 43q12 29 12 95z" />
    <glyph glyph-name="K" unicode="K" horiz-adv-x="1552" 
d="M1044 1303q0 39 -100 38h-82q-20 0 -20 82q233 -6 315 -6t234 8q-1 -82 -21 -82h-67q-74 0 -177 -112l-442 -488l604 -643q35 -39 117 -39h100q20 0 21 -65q-78 4 -164 4l-221 -4q-29 0 -43 16q-52 66 -60 74t-250 278t-276 300q-12 12 -29 20q-8 23 0 41q45 14 97 53
q157 143 358 381l61 72q45 45 45 72zM645 1341h-96q-27 0 -55 -17t-31 -38v-960l8 -195q0 -23 27 -39t51 -16h96q20 0 21 -82q-113 6 -236 6t-356 -6q0 82 20 82h99q25 0 51 16t26 39l4 195v960q0 20 -28 38q-29 17 -53 17h-99q-20 0 -20 82q233 -6 356 -6t236 6
q-1 -82 -21 -82z" />
    <glyph glyph-name="L" unicode="L" horiz-adv-x="1255" 
d="M682 1341h-96q-27 0 -56 -17t-28 -38v-969l8 -188q0 -27 27 -27q172 -14 401 -14q53 0 89 23q73 47 108 208q4 9 14 7t72 -23q10 -4 10 -14q-33 -201 -49 -273q-6 -16 -29 -18q-67 -6 -147 -6t-467 6h-142q-90 0 -323 -6q0 82 20 82h135q25 0 51 16t25 39q6 94 6 188v969
q0 20 -28 38q-29 17 -54 17h-98q-20 0 -20 84l286 -8q205 0 305 8q0 -84 -20 -84z" />
    <glyph glyph-name="M" unicode="M" horiz-adv-x="2048" 
d="M1937 1341h-98q-27 0 -55 -17t-29 -38q17 -998 23 -1102l4 -53q0 -23 24 -39t49 -16h99q20 0 20 -82q-114 6 -236 6t-356 -6q0 82 21 82h98q25 0 51 16t26 38q1 22 1 224q0 203 -10 766l-516 -1114q-2 -6 -13 -6h-18l-8 6l-545 1176q-8 -315 -8 -612t6 -404q4 -50 41 -70
t78 -20h96q20 0 20 -82q-114 6 -236 6t-355 -6q0 82 20 82h98q72 0 101 90q27 90 45 1014l2 102q0 27 -35 41t-66 14h-98q-20 0 -20 82q233 -6 286 -6l123 2l35 -88l469 -1020q31 66 162 353t242 524l108 235l98 -2q43 0 277 6q0 -82 -21 -82z" />
    <glyph glyph-name="N" unicode="N" horiz-adv-x="1751" 
d="M549 76h96q20 0 21 -82q-113 6 -236 6t-356 -6q0 82 20 82h99q85 0 102 112q10 64 10 748v346q0 33 -38 46t-74 13h-99q-20 0 -20 82q233 -6 286 -6h93l919 -1143v545q0 332 -20 467q-14 55 -86 55h-129q-20 0 -21 82q116 -6 222 -6t339 6q0 -82 -20 -82h-68
q-31 0 -59 -13t-35 -42q-20 -147 -20 -467v-823q-53 4 -74 4l-64 -4q-274 371 -919 1161q0 -823 10 -991q2 -46 42 -68t79 -22z" />
    <glyph glyph-name="O" unicode="O" horiz-adv-x="1642" 
d="M330 791q0 -363 163 -541t410 -178q154 0 274 134q62 70 100 192t38 284q0 287 -153 468t-374 182q-222 0 -340 -154t-118 -387zM856 1450q282 0 486 -214t204 -511q0 -348 -200 -556t-512 -208q-188 0 -336 67t-232 178q-170 227 -170 527q0 301 207 509t553 208z" />
    <glyph glyph-name="P" unicode="P" horiz-adv-x="1228" 
d="M465 662q0 -10 14 -11h172q60 -1 118 19t93 52t64 100t28 163q0 166 -96 262t-272 96q-117 0 -121 -49v-632zM730 1421q116 0 207 -38t139 -100q93 -120 91 -263q0 -88 -41 -192q-42 -104 -164 -188q-122 -83 -286 -83h-195q-16 0 -16 -18v-213l8 -195q0 -23 26 -39
t50 -16h96q20 0 21 -82q-113 6 -236 6t-356 -6q0 82 20 82h99q25 0 51 16t24 39q6 100 6 195v960q0 25 -25 40q-26 15 -56 15h-99q-20 0 -20 82q233 -6 286 -6h107q147 4 263 4z" />
    <glyph glyph-name="Q" unicode="Q" horiz-adv-x="1693" 
d="M901 72q152 0 274 134q62 70 100 192t38 284q0 287 -153 468t-374 182q-221 0 -340 -154t-118 -387q0 -362 162 -541q163 -178 411 -178zM854 1450q282 0 486 -214t204 -502t-132 -480t-353 -260q96 -32 133 -52q36 -20 59 -31t35 -18t19 -10q334 -166 542 -166
q143 0 219 37q14 8 19 4l22 -26q4 -6 -4 -15q-31 -27 -137 -79t-280 -54q-260 0 -461 146q-268 197 -439 233q-309 0 -500 218q-192 217 -192 535t207 526t553 208z" />
    <glyph glyph-name="R" unicode="R" horiz-adv-x="1437" 
d="M682 709q78 0 149 60q39 33 64 97t25 150q0 328 -334 327q-117 0 -121 -51v-571q0 -12 16 -12h201zM481 610q-16 0 -16 -12v-272l8 -195q0 -23 26 -39t50 -16h96q20 0 21 -82q-113 6 -236 6t-356 -6q0 82 20 82h99q25 0 51 16t24 39q6 100 6 195v960q0 20 -28 38
q-29 17 -53 17h-99q-20 0 -20 82q233 -6 286 -6h107q147 4 256 4q199 0 301 -105t102 -241q0 -233 -200 -354l-76 -47q2 -2 122 -171t279 -388q29 -39 107 -39h61q29 0 29 -80q-78 4 -113 4l-198 -4q-29 0 -43 17t-70 87q-219 340 -309 469q-29 39 -66 41h-168z" />
    <glyph glyph-name="S" unicode="S" horiz-adv-x="1056" 
d="M892 1118h-79q-8 0 -8 8q-2 49 -19 105q-16 56 -25 67t-13 16q-30 38 -92 51t-107 13q-104 0 -174 -58t-70 -163t37 -173t172 -144q43 -25 135 -73t130 -73q38 -24 90 -72q53 -48 73 -108t21 -141q0 -195 -150 -305t-364 -109q-143 0 -324 68q-6 8 -7 16t-19 124
q-17 116 -17 127t8 13l78 23q8 2 12 -6q6 -18 14 -45q24 -85 50 -124q27 -39 70 -63q88 -49 205 -49q116 0 188 73t71 189q0 156 -297 313q-356 193 -356 422q0 196 128 304t329 108l64 -2l116 -12h8l4 -2l94 -15l37 -39l6 -26l-12 -230q0 -8 -7 -8z" />
    <glyph glyph-name="T" unicode="T" horiz-adv-x="1443" 
d="M911 76h113q20 0 20 -82q-115 6 -268 6t-387 -6q0 82 21 82h125q29 0 57 14t29 41q6 100 6 195v977q-4 14 -17 16h-274q-137 0 -174 -201q-2 -8 -8 -8l-72 2q-10 0 -10 8l16 236l6 20l37 43l219 -2h750l219 2l47 -45q6 -4 6 -20l-12 -236q0 -8 -10 -8h-66q-6 0 -8 8
q-23 109 -56 155q-34 46 -106 46h-280q-16 -2 -17 -25v-968l8 -195q0 -27 29 -41t57 -14z" />
    <glyph glyph-name="U" unicode="U" horiz-adv-x="1673" 
d="M643 1341h-96q-29 0 -51 -18t-23 -53v-692q0 -194 85 -327q46 -73 137 -115t218 -42q255 0 336 158q68 133 68 326v278q0 346 -14 414q-7 31 -45 51t-89 20h-59q-20 0 -20 82q114 -6 266 -6t266 6q0 -82 -20 -82h-60q-39 1 -73 -21q-35 -22 -39 -64t-5 -199v-479
q0 -157 -41 -268t-95 -177t-157 -113t-241 -47q-342 1 -479 143t-138 462v692q0 33 -25 52q-26 19 -59 19h-98q-20 0 -20 82q232 -6 354 -6t238 6q-1 -82 -21 -82z" />
    <glyph glyph-name="V" unicode="V" horiz-adv-x="1519" 
d="M129 1348h-106q-23 0 -23 73q160 -4 340 -4t256 4q0 -74 -23 -73h-127q-34 0 -34 -16t395 -1101q420 1073 420 1082q0 33 -68 33h-137q-20 0 -21 73q157 -4 303 -4t222 4q0 -74 -21 -73h-82q-63 0 -82 -56q-469 -1133 -528 -1308q-37 4 -63 4t-62 -4q-39 127 -256 727
q-218 599 -232 619t-71 20z" />
    <glyph glyph-name="W" unicode="W" horiz-adv-x="2048" 
d="M80 1348h-98q-23 0 -23 73q160 -4 340 -4t256 4q0 -74 -23 -73h-126q-38 0 -33 -27q182 -795 276 -1069l385 1098q74 -14 113 0q25 -92 151 -496t189 -586q299 1030 299 1043q0 37 -64 37h-139q-20 0 -20 73q155 -4 303 -4t223 4q0 -74 -21 -73h-83q-61 0 -82 -56
q-301 -981 -396 -1310q-33 4 -65 4t-70 -4q-125 416 -336 1046q-311 -821 -372 -1046q-37 4 -68 4t-68 -4q-57 201 -212 761q-154 561 -166 583t-70 22z" />
    <glyph glyph-name="X" unicode="X" horiz-adv-x="1449" 
d="M1438 76q20 0 20 -82q-116 6 -246 6t-364 -6q0 82 20 82h68q74 0 47 55q-129 229 -276 483q-244 -360 -310 -483q-29 -55 31 -55h113q20 0 20 -82q-113 6 -214 6t-335 -6q0 82 21 82h100q49 0 105 55q172 190 419 567q-309 532 -359 588t-116 55h-98q-20 0 -21 82
q233 -6 355 -6t237 6q0 -82 -20 -82h-74q-57 0 -22 -55q109 -197 245 -432q195 279 258 432q23 55 -49 55h-98q-20 0 -21 82q233 -6 332 -6t211 6q0 -82 -22 -82l-86 -2q-66 0 -113 -55q-123 -137 -365 -510q289 -494 416 -643q39 -55 107 -55h84z" />
    <glyph glyph-name="Y" unicode="Y" horiz-adv-x="1286" 
d="M98 1341h-98q-20 0 -20 82q234 -6 340 -6t219 6q0 -82 -21 -82h-80q-23 0 -22 -18q0 -12 10 -37q125 -279 297 -579q78 121 182 317t127 262q14 29 -4 42t-53 13h-98q-20 0 -21 82q234 -6 322 -6t200 6q0 -82 -20 -82h-80q-53 0 -100 -56q-80 -95 -224 -353
q-145 -258 -176 -309q-8 -23 -8 -192t6 -241q10 -115 82 -114h96q20 0 21 -82q-115 6 -249 6t-368 -6q0 82 21 82h104q33 0 61 30t27 84l4 316q0 78 -20 119l-29 55q-242 479 -336 606q-37 55 -92 55z" />
    <glyph glyph-name="Z" unicode="Z" horiz-adv-x="1245" 
d="M369 1313q-86 0 -120 -38t-54 -142q-2 -8 -9 -9l-82 4q-10 0 -10 9l27 221l6 20l37 39h774l186 2l56 -53q-49 -92 -432 -671t-385 -587q-3 -8 1 -9l8 -2q3 -1 11 -1h12q23 -2 256 -2h289q90 0 125 43t72 166q2 8 8 8l80 -22q10 -2 10 -13l-31 -221q-10 -59 -53 -59h-211
l-788 8l-56 53q747 1084 828 1239q10 16 -2 17h-553z" />
    <glyph glyph-name="bracketleft" unicode="[" horiz-adv-x="534" 
d="M307 1374q-8 0 -11 -41t-3 -717t6 -813q4 -23 20 -26q31 -10 277 -10q10 0 10 -9q0 -88 -16 -90h-316q-70 6 -84 15l-4 10v1771q0 10 11 11h395q10 0 10 -7q0 -88 -16 -90q-131 -4 -279 -4z" />
    <glyph glyph-name="backslash" unicode="\" horiz-adv-x="880" 
d="M154 1499q8 6 12 -2q451 -1229 612 -1581q9 -18 -14 -14q-49 10 -88 32l-12 11q-61 115 -301 748q-241 633 -263 689t-18 58q19 16 72 59z" />
    <glyph glyph-name="bracketright" unicode="]" horiz-adv-x="534" 
d="M594 1475q8 0 12 -11v-1771l-6 -10q-14 -8 -84 -15h-315q-16 2 -17 90q0 8 11 9q246 0 276 10q16 4 21 26q6 135 6 813t-3 718t-12 40q-147 0 -278 4q-16 2 -17 90q0 6 11 7h395z" />
    <glyph glyph-name="asciicircum" unicode="^" 
d="M208 690l-52 2q-16 0 -17 13q35 43 192 343t179 351t27 53q18 8 65 18q8 0 14 -10q52 -118 188 -400t175 -345q2 -2 -4 -13q-15 -10 -63 -24t-52 -10q-34 31 -165 286q-130 256 -130 258l-12 2l-2 -2q-231 -470 -262 -505q-11 -17 -81 -17z" />
    <glyph glyph-name="underscore" unicode="_" 
d="M1085 -356v-117h-1083v117h1083z" />
    <glyph glyph-name="grave" unicode="`" horiz-adv-x="610" 
d="M279 1368q-16 19 1 26t150 23q23 2 25 -4q1 -6 25 -73q24 -66 48 -134t26 -76q5 -12 -38 -45q-12 -4 -20 7q-31 29 -217 276z" />
    <glyph glyph-name="a" unicode="a" horiz-adv-x="937" 
d="M443 942q59 0 111 -12q136 -31 196 -118q35 -52 34 -120v-342l4 -200q6 -78 78 -78h39q12 0 13 -9v-43q0 -14 -11 -16q-225 -35 -235 -35l-21 6l-41 45v109q-164 -156 -299 -156q-102 0 -170 67t-67 173q0 68 49 114t115 68q172 61 372 92v150q-2 74 -56 132t-166 58
t-122 -59q-6 -33 -10 -91t-10 -61q-99 0 -101 11l-4 137q-1 18 7 24t49 36q41 31 114 75q73 43 132 43zM238 215q0 -53 32 -86t76 -33q125 1 264 105v219q-176 -39 -274 -83t-98 -122z" />
    <glyph glyph-name="b" unicode="b" horiz-adv-x="1124" 
d="M358 319q0 -86 11 -163q4 -31 65 -64t125 -33q141 -1 217 99t76 260q0 397 -248 397q-84 1 -163 -53t-83 -111v-332zM662 942q369 0 368 -432q0 -219 -133 -379t-352 -160q-111 0 -195 24q-84 23 -96 23t-41 -36l-49 16q18 166 18 321v1006q0 49 -57 49h-105q-8 0 -8 8
v45q0 14 8 17l277 41l20 -6l41 -41v-660q16 18 45 46t109 73t150 45z" />
    <glyph glyph-name="c" unicode="c" horiz-adv-x="962" 
d="M730 629q-18 0 -17 8q-6 84 -15 123q-23 98 -170 98t-198 -105t-54 -300q0 -141 86 -260t220 -119t221 59l47 35q51 -47 33 -66l-21 -18q-123 -111 -323 -111q-143 0 -249 76q-196 142 -196 400q2 219 128 356t356 137q68 0 140 -22t111 -52q4 0 6 -9q3 -9 1 -19
l-25 -203q0 -6 -6 -6h-10l-20 -2h-45z" />
    <glyph glyph-name="d" unicode="d" horiz-adv-x="1157" 
d="M764 319v324q-4 45 -8 57q-63 147 -226 148q-126 0 -192 -119t-66 -259t40 -246q50 -126 204 -126q66 0 148 52t98 106q2 23 2 63zM1006 82h65q10 0 10 -6v-47q0 -13 -8 -15q-9 -2 -71 -13t-122 -21t-63 -11l-20 6l-41 45v113q-162 -162 -297 -162q-168 0 -266 127
q-99 126 -99 322t136 358t350 162q109 0 184 -31v416q0 51 -57 51h-103q-10 0 -10 6v45q0 14 10 17q246 41 275 41l20 -6l41 -41v-1119l10 -202q2 -35 56 -35z" />
    <glyph glyph-name="e" unicode="e" horiz-adv-x="972" 
d="M520 858q-225 0 -246 -301l447 39q0 100 -51 181q-52 81 -150 81zM530 -27q-220 1 -328 135t-107 343t135 350t316 141q356 0 355 -428l-629 -31q2 -178 84 -284q82 -107 238 -107t258 78q49 -45 31 -64q-133 -133 -353 -133z" />
    <glyph glyph-name="f" unicode="f" horiz-adv-x="753" 
d="M784 1190h-53q-8 0 -8 8l-6 70q-6 49 -35 66t-88 18q-98 0 -141 -105q-41 -96 -45 -321q4 -10 14 -11h194l-34 -98h-156q-18 0 -18 -29q0 -117 10 -679q4 -41 28 -41h129q20 0 21 -74q-112 6 -196 6t-318 -6q0 74 20 74h99q27 0 30 38l5 334q0 118 8 338q-4 39 -31 39
l-86 2q-8 0 -8 6v54q0 14 5 15q58 12 124 21q6 169 46 273t157 184q299 203 380 37l3 -23l-29 -190q-1 -6 -21 -6z" />
    <glyph glyph-name="g" unicode="g" horiz-adv-x="978" 
d="M246 653q0 -303 239 -303q92 0 122 54t30 145q0 317 -229 319q-90 0 -126 -66t-36 -149zM203 -219q0 -59 34 -101t111 -74q77 -30 187 -30q111 0 191 52t81 140q0 88 -97 138q-97 49 -268 53q-85 0 -110 -18q-2 -1 -16 -11t-17 -14q-4 -4 -16 -13q-11 -9 -17 -15l-16 -15
q-39 -39 -43 -61t-4 -31zM915 -131q0 -147 -86 -244q-61 -68 -175 -123t-244 -55t-245 89q-114 89 -114 198q0 66 34 108t194 150q-137 55 -140 125q0 16 13 28l163 131q-225 51 -225 324q0 156 117 249t264 93q90 0 180 -35q92 -31 172 -22q51 0 90 39q8 8 13 2l32 -45
l3 -13q-4 -46 -33 -78t-68 -32q-40 0 -62 8t-29 14t-11 4q-4 -4 0 -14q35 -74 35 -162q0 -131 -110 -233t-245 -109h-10q-92 -6 -92 -82q0 -81 128 -88q75 -4 176 -14t188 -68t87 -145z" />
    <glyph glyph-name="h" unicode="h" horiz-adv-x="1269" 
d="M545 68q20 0 20 -74q-150 6 -250 6l-239 -6q0 74 20 74h99q31 -2 30 38q8 111 8 205v1006q0 51 -57 51h-82q-10 0 -10 6v53q0 6 10 9l254 43l21 -9l41 -40v-658q2 0 20 18q142 146 299 146q109 0 206 -74t97 -192v-359l8 -205q4 -39 31 -38h96q20 0 21 -74q-114 6 -186 6
t-306 -6q1 74 21 74h100q25 0 29 38q10 111 10 205v275q0 94 -22 138q-39 82 -172 83q-88 0 -168 -53t-84 -111v-332l10 -205q0 -36 22 -36l7 -2h96z" />
    <glyph glyph-name="i" unicode="i" horiz-adv-x="641" 
d="M96 68h99q31 -2 30 38q8 111 8 205v465q0 49 -57 49h-82q-10 0 -10 9v45q0 14 10 16l66 10q68 13 127 23t61 10l21 -6l41 -45v-576l6 -205q0 -16 8 -26t16 -10l9 -2h98q20 0 20 -74q-152 6 -252 6l-239 -6q0 74 20 74zM219 1258q0 44 25 67t82 27t82 -25q28 -25 24 -72
t-29 -79t-78 -31q-53 0 -85 39q-21 30 -21 74z" />
    <glyph glyph-name="j" unicode="j" horiz-adv-x="598" 
d="M240 1258q0 86 104 94q59 4 84 -25q27 -25 24 -72t-28 -79t-78 -31q-53 0 -86 39q-20 30 -20 74zM430 346q0 -203 -12 -305t-23 -204t-28 -140q-17 -37 -38 -86t-100 -139q-25 -25 -41 -25l-157 4l-6 6q-4 29 -5 99q4 6 9 6q143 10 169 14t40 33q16 49 16 92v1075
q0 49 -57 49h-82q-10 0 -11 9v45q0 14 11 16l65 10q68 13 127 23t62 10l20 -6l41 -45v-541z" />
    <glyph glyph-name="k" unicode="k" horiz-adv-x="1140" 
d="M563 68q20 0 21 -74q-114 6 -186 6t-306 -6q0 74 21 74h100q25 0 29 38q10 111 10 205v1014q0 51 -57 51h-105q-8 0 -8 6v48q0 12 8 14q25 5 277 41l20 -8l41 -39v-928q51 0 107 39q219 240 219 244q47 55 -19 55h-71q-20 0 -21 74q156 -4 238 -4t157 4q0 -74 -20 -74
h-66q-41 0 -96 -55l-213 -240q-16 -16 -6 -37l356 -416q31 -41 74 -41h53q20 0 21 -65q-78 4 -142 4l-118 -4q-29 0 -43 16q-72 88 -72 90l-201 248q-70 76 -137 78v-115l8 -205q4 -39 31 -38h96z" />
    <glyph glyph-name="l" unicode="l" horiz-adv-x="645" 
d="M457 74h96q20 0 20 -74q-113 6 -185 6t-306 -6q0 74 20 74h101q25 0 28 39q10 111 11 204v1010q0 51 -58 51h-104q-8 0 -8 6v48q0 12 8 14q10 2 140 20t136 19l21 -8l41 -37v-1123l8 -204q4 -39 31 -39z" />
    <glyph glyph-name="m" unicode="m" horiz-adv-x="1869" 
d="M717 68h100q25 0 29 38q10 111 10 205v275q0 129 -46 174t-141 45t-175 -52t-84 -110v-332l10 -205q4 -39 29 -38h96q20 0 20 -74q-115 6 -185 6t-304 -6q0 74 20 74h99q25 0 30 38q8 111 8 205v459q0 49 -57 49h-82q-10 0 -10 8v45q0 14 10 17l66 12q68 11 127 21t61 10
l21 -6l41 -45v-109q2 0 20 18q143 139 299 142q84 0 168 -47t117 -129q176 176 336 176q110 0 206 -72t97 -190v-359l10 -205q4 -39 29 -38l96 6q20 0 20 -74h-249q-6 0 -240 -6q0 74 20 74h99q25 0 30 38q8 111 9 205v275q0 126 -44 172q-44 47 -141 47q-96 0 -176 -54
t-84 -112v-328l8 -205q4 -39 31 -38h96q20 0 21 -74q-114 6 -186 6t-306 -6q1 74 21 74z" />
    <glyph glyph-name="n" unicode="n" horiz-adv-x="1249" 
d="M717 68h100q25 0 29 38q10 111 10 205v275q0 92 -22 139q-39 86 -172 86q-88 0 -168 -55t-84 -113v-332l10 -205q4 -39 29 -38h96q20 0 20 -74q-115 6 -185 6t-304 -6q0 74 20 74h99q25 0 30 38q8 111 8 205v459q0 53 -57 53h-82q-10 0 -10 8v46q0 14 10 16l66 12
q68 11 127 21t61 10l21 -6l41 -45v-113q2 0 20 18q142 146 299 146q127 0 215 -72t88 -194v-359q0 -178 8 -202q4 -41 31 -41h96q20 0 21 -74q-114 6 -186 6t-306 -6q1 74 21 74z" />
    <glyph glyph-name="o" unicode="o" horiz-adv-x="1110" 
d="M94 437q0 209 136 357t354 148t324 -127q108 -127 108 -337t-136 -357t-354 -147t-324 126q-108 127 -108 337zM536 852q-134 0 -195 -104q-62 -104 -62 -268q0 -162 80 -290q81 -127 215 -127q134 1 195 105q62 104 62 267t-80 290q-81 127 -215 127z" />
    <glyph glyph-name="p" unicode="p" horiz-adv-x="1146" 
d="M696 938q82 0 166 -46t127 -128q63 -121 64 -256q0 -217 -123 -379t-312 -162q-143 0 -237 86v-299l8 -205q4 -39 31 -38h96q20 0 21 -74q-100 8 -218 8t-274 -8q1 74 21 74h100q25 0 29 38q10 111 10 205v1022q0 49 -58 49h-104q-8 0 -8 9v45q0 14 8 16l276 43l21 -6
l41 -45v-111q16 18 45 45t109 72q79 45 161 45zM627 811q-84 0 -163 -53t-83 -109v-356q4 -74 10 -86q63 -147 221 -148q127 0 195 114t67 261q1 377 -247 377z" />
    <glyph glyph-name="q" unicode="q" horiz-adv-x="1177" 
d="M582 938q80 0 166 -22t112 -23q25 0 45 31l53 -17q-14 -76 -14 -202v-951l8 -205q4 -38 31 -38h98q20 0 21 -74q-156 8 -274 8t-218 -8q0 74 23 74h96q25 0 29 38q10 115 10 205v387q-6 -6 -17 -18q-89 -97 -198 -137q-49 -18 -92 -19q-162 0 -264 120q-103 121 -103 323
t137 365t351 163zM543 844q-89 0 -153 -62q-116 -112 -116 -305q0 -148 41 -254q53 -129 209 -129q72 0 155 64t89 127v354q-20 205 -225 205z" />
    <glyph glyph-name="r" unicode="r" horiz-adv-x="839" 
d="M96 68h99q31 0 30 38q8 111 8 205v467q0 49 -57 49h-82q-10 0 -10 9v45q0 14 10 16l66 12q68 11 127 21t61 10l21 -6l41 -45v-133q8 34 96 110t166 76q119 0 143 -68l2 -24l-12 -164q0 -6 -8 -6h-74q-8 0 -8 8q-6 49 -13 80q-10 43 -80 42t-141 -72q-72 -71 -71 -130
v-297l10 -205q2 -39 67 -38h97q20 0 20 -74q-188 6 -289 6l-239 -6q0 74 20 74z" />
    <glyph glyph-name="s" unicode="s" horiz-adv-x="768" 
d="M614 629h-49q-8 0 -8 8q-11 163 -40 186q-9 8 -34 23q-131 53 -205 -17q-42 -39 -42 -95t26 -92t123 -89q213 -106 257 -168t44 -131q0 -141 -108 -212t-263 -71q-98 0 -223 43q-16 6 -16 29l-4 223q0 6 6 6l59 9q8 2 10 -7q18 -92 41 -134q50 -91 181 -91q152 0 151 144
q0 111 -201 200q-237 107 -237 271q0 132 95 204t245 72l88 -6l4 -2l94 -14l51 -54q8 -8 5 -26l-31 -203q0 -6 -19 -6z" />
    <glyph glyph-name="t" unicode="t" horiz-adv-x="702" 
d="M403 -16q-117 0 -167 55t-52 184v549q-4 33 -28 33l-86 2q-8 0 -9 8v51q0 14 9 17l114 20v195q0 10 9 16l98 105q4 6 16 6t45 -15q8 -2 8 -14v-278q4 -14 15 -15l241 2q0 -65 -11 -81q-11 -17 -32 -17h-194q-14 0 -19 -21v-563q0 -131 99 -131q72 0 131 31l20 10
q39 -59 0 -86q-90 -63 -207 -63z" />
    <glyph glyph-name="u" unicode="u" horiz-adv-x="1183" 
d="M823 590q0 66 -4 164q-4 43 -16 58t-43 15h-76q-10 0 -10 9v45q0 14 10 16l66 12q68 11 127 21t61 10l20 -6l41 -45v-735q1 -40 11 -56t47 -16h39q12 0 12 -8v-43q0 -14 -10 -17q-204 -32 -213 -41l-21 7l-41 43v106l-18 -18q-141 -141 -291 -144q-109 0 -206 72t-97 190
v361q0 16 -6 164q-3 43 -15 58t-43 15h-75q-10 0 -11 9v45q0 14 11 16l67 12q66 11 125 21t62 10l20 -6l41 -45v-576q0 -219 193 -219q76 0 156 56t87 114v326z" />
    <glyph glyph-name="v" unicode="v" horiz-adv-x="989" 
d="M997 848h-55q-30 0 -60 -18t-40 -48q-254 -610 -314 -786q-37 4 -53 4t-53 -4q-37 121 -168 461t-141 352q-20 39 -68 39h-74q-23 0 -22 74q386 -10 491 0q0 -74 -20 -74h-70q-25 0 -39 -10t-8 -29l221 -590l224 563q12 30 1 48t-42 18h-62q-20 0 -20 74l206 -7
q111 0 187 7q0 -74 -21 -74z" />
    <glyph glyph-name="w" unicode="w" horiz-adv-x="1486" 
d="M1495 852h-47q-78 0 -107 -64q-246 -616 -305 -792q-41 4 -54 4t-50 -4q-33 106 -207 620q-209 -547 -233 -620q-38 4 -54 4t-53 -4q-43 141 -156 475t-123 344q-14 33 -71 33h-66q-20 0 -20 74q384 -10 491 0q0 -74 -20 -74h-74q-16 0 -32 -10t-13 -29q88 -354 178 -602
l244 657q29 -4 65 -4t62 4q86 -410 176 -657l221 581q8 24 -4 42t-39 18h-61q-20 0 -21 74l205 -7q61 0 189 11q0 -74 -21 -74z" />
    <glyph glyph-name="x" unicode="x" horiz-adv-x="1069" 
d="M578 66h51q29 0 38 12t-5 28l-158 252l-174 -235q-16 -16 -11 -35q6 -18 43 -18h60q20 0 20 -74q-156 4 -241 4t-160 -4q0 74 20 74h60q55 0 106 53q113 152 230 311l-238 385q-16 29 -76 29h-59q-20 0 -21 74q356 -9 455 0q0 -74 -20 -74h-56q-47 0 -28 -29l149 -241
q160 215 160 217q39 55 -27 55h-63q-20 0 -21 74q156 -4 237 -4t157 4q0 -74 -21 -74h-57q-63 0 -103 -55l-215 -291l250 -398q10 -18 41 -29t53 -11h64q20 0 20 -72q-113 6 -250 6l-231 -6q0 72 21 72z" />
    <glyph glyph-name="y" unicode="y" horiz-adv-x="1007" 
d="M997 848h-59q-70 0 -94 -62l-438 -1095q-31 -76 -54 -115t-80 -104q-25 -25 -41 -25l-159 4l-6 6q-4 29 -5 97q0 6 9 6q148 10 168 15t32 30l156 383q-39 127 -172 469t-145 354q-20 37 -70 37h-70q-20 0 -20 74q384 -10 491 0q0 -74 -22 -74h-74q-43 0 -43 -27
q1 -6 67 -177t156 -419l226 561q10 25 -2 43t-39 19h-66q-20 0 -20 74l206 -7q113 0 189 7q0 -74 -21 -74z" />
    <glyph glyph-name="z" unicode="z" horiz-adv-x="876" 
d="M436 78h158q47 6 68 41q20 35 55 153q4 16 82 -6q6 -2 6 -10l-35 -236q-4 -19 -20 -24h-5l-102 2q-434 2 -545 2l-35 37q389 590 486 780q6 16 -2 17h-256q-66 -2 -86 -26t-55 -138q-2 -9 -37 -1q-35 7 -43 8t-9 7l35 211q4 20 19 23l6 2l160 -5l114 3h344l37 -37
q-121 -221 -463 -779q-6 -14 2 -18q12 -6 121 -6z" />
    <glyph glyph-name="braceleft" unicode="{" horiz-adv-x="729" 
d="M614 1485q19 1 19 -29t-8 -31q-141 -25 -191 -88t-49 -186l16 -350q0 -207 -225 -258q-4 -2 -4 -6t4 -7q225 -53 225 -258l-16 -350q0 -123 49 -186t191 -88q8 0 8 -30t-19 -30q-184 14 -268 112t-84 292l12 295q0 104 -48 158t-175 57q-8 0 -8 6q-2 11 -2 29t2 28
q0 6 8 6q127 1 175 55t48 158l-12 297q0 193 84 291t268 113z" />
    <glyph glyph-name="bar" unicode="|" horiz-adv-x="401" 
d="M147 1487h121v-1538h-121v1538z" />
    <glyph glyph-name="braceright" unicode="}" horiz-adv-x="729" 
d="M690 537q0 -18 -2 -29q0 -6 -8 -6q-127 -2 -175 -56t-48 -159l12 -295q0 -193 -84 -291t-268 -113q-7 0 -13 6t-6 46q0 8 8 8q141 25 191 88q49 63 49 186l-16 350q0 205 225 258q4 2 4 6t-4 7q-225 51 -225 258l16 350q0 123 -49 186t-191 88q-8 0 -8 30t19 30
q184 -15 268 -113t84 -291l-12 -297q0 -104 48 -157t175 -56q8 0 8 -6q2 -10 2 -28z" />
    <glyph glyph-name="asciitilde" unicode="~" horiz-adv-x="1183" 
d="M402 655q93 0 202 -56q108 -56 170 -56t136 45t106 78q20 16 18 -17q0 -14 -7 -43t-69 -76q-147 -115 -247 -114q-41 0 -158 58t-191 58q-111 0 -237 -114q-16 -14 -25 6q1 41 11 58t32 37q23 19 39 33q127 103 220 103z" />
    <glyph glyph-name="exclamdown" unicode="&#xa1;" horiz-adv-x="587" 
d="M207 1302q0 44 20 74q33 39 87 39t78 -32q24 -33 27 -79t-24 -71q-25 -29 -82 -25t-81 27t-25 67zM387 -12l-184 39q-25 6 -19 36l70 908q0 12 10 14l66 12q14 2 14 -10l76 -975q2 -16 -8 -21t-25 -3z" />
    <glyph glyph-name="cent" unicode="&#xa2;" horiz-adv-x="929" 
d="M555 1047q-151 1 -225 -105t-76 -285q0 -117 61 -225t166 -141q25 199 74 756zM823 834l-63 -3q-18 0 -19 9q-6 78 -14 108q-18 72 -98 90q-66 -678 -76 -759q147 0 240 63l47 35q51 -47 32 -66l-20 -18q-121 -106 -311 -115q-19 -163 -52 -184q-62 -37 -53 0
q23 127 31 186q-187 16 -291 158t-103 330q1 186 137 323t353 152l15 155q2 10 5 14t9 1l57 -35q6 -4 4 -20t-7 -58t-7 -57q135 -10 219 -72q3 0 5 -9q3 -9 1 -20l-24 -202q0 -6 -6 -6h-11z" />
    <glyph glyph-name="sterling" unicode="&#xa3;" horiz-adv-x="1179" 
d="M74 24v17q0 10 43 69q43 58 78 97t65 144q31 105 33 177v72q0 47 -31 47l-127 2q-8 0 -8 6v54q0 14 8 16l164 20q2 20 2 58q6 199 43 313t164 201q299 202 379 37l2 -23l-29 -190q0 -6 -20 -6h-54q-8 0 -8 8l-6 69q-6 48 -35 66t-88 18q-98 0 -142 -104t-44 -444
q2 -2 8 -3h317l-34 -98h-279q-8 0 -12 -6q-8 -258 -158 -430q-27 -33 -26 -43q0 -20 18 -21q43 -4 432 -4q94 0 138 30q45 30 67 81t39 123q4 10 39 1t37 -24q-43 -254 -60 -325q-7 -13 -41 -21t-334 -8t-401 16q-10 2 -33 2q-22 0 -58 -11t-40 -11q-8 16 -8 28z" />
    <glyph glyph-name="yen" unicode="&#xa5;" horiz-adv-x="1306" 
d="M911 76q20 0 21 -82q-113 6 -248 6t-344 -6q0 82 12 82h105q33 0 59 30t27 78v205h-221q-6 -1 -6 13t6 28t10 26t6 11h205v156h-224q2 0 27 73q0 4 13 2t155 -2h6q-162 299 -348 541q-37 55 -84 55h-98q-20 0 -21 82q233 -6 331 -6t212 6q0 -82 -20 -82h-80
q-23 0 -23 -18q0 -12 10 -37q117 -203 289 -473q31 49 151 232t142 241q14 29 -2 42t-47 13h-98q-20 0 -21 82q233 -6 312 -6t194 6q0 -82 -21 -82h-79q-53 0 -93 -55q-76 -86 -184 -243t-190 -298h219q12 -12 -7 -43q-18 -31 -22 -30h-207q-2 -10 -2 -156h232
q-30 -76 -31 -76l-199 -2q0 -113 6 -213t74 -100h96z" />
    <glyph glyph-name="dieresis" unicode="&#xa8;" horiz-adv-x="727" 
d="M465 1257q0 82 102 89q45 10 76 -23t21 -68q-2 -41 -28 -73t-72 -31t-72 33t-27 73zM51 1259q0 79 105 87q45 10 73 -23q29 -29 25 -67t-31 -72t-73 -33q-46 0 -78 39q-21 30 -21 69z" />
    <glyph glyph-name="copyright" unicode="&#xa9;" horiz-adv-x="1517" 
d="M780 266q-166 0 -275 73q-186 124 -183 357q0 117 38 204q40 87 92 132t135 79t185 34t152 -6l120 -13l27 -24q6 -2 6 -10t-5 -74q-5 -64 -6 -69t-9 -5h-45q-6 0 -6 10t-12 43t-33 49q-54 42 -194 41t-214 -109t-74 -270q0 -260 184 -351q69 -33 134 -33t92 8
q86 31 115 96q12 33 15 49t9 17q6 -2 28 -8t21 -15q-20 -119 -28 -162q-8 -8 -17 -10l-145 -27q-61 -6 -107 -6zM768 55q277 -1 456 189t179 468q-1 278 -189 472t-455 194t-456 -193q-188 -194 -188 -468t188 -468t465 -194zM765 1450q310 0 519 -213t209 -523t-214 -524
t-523 -215q-309 0 -520 211q-211 210 -211 522t215 527t525 215z" />
    <glyph glyph-name="ordfeminine" unicode="&#xaa;" horiz-adv-x="569" 
d="M258 1450q68 0 134 -36t65 -114v-206l2 -121q4 -47 47 -47h22q8 0 9 -4v-27q0 -8 -7 -10l-143 -21l-12 4l-25 27v66q-98 -95 -170 -95t-111 40q-40 40 -40 111t98 103q102 37 223 56v90q0 45 -33 80q-33 34 -100 34t-74 -34q-2 -14 -5 -51t-7 -42q-59 0 -59 7l-2 83
q0 9 4 13q67 58 115 76q49 18 69 18zM127 1020q0 -40 19 -59q19 -20 47 -21q73 1 157 64v131q-223 -45 -223 -115z" />
    <glyph glyph-name="guillemotleft" unicode="&#xab;" horiz-adv-x="1280" 
d="M1163 729q-141 -121 -368 -266q-10 -6 0 -12q188 -121 405 -281q12 -10 -35 -86q-6 -10 -10 -4q-37 43 -252 173t-315 169q-10 6 -7 30t19 29q109 45 294 161t277 185q12 8 13 -8q0 -57 -8 -73t-13 -17zM692 819q0 -57 -8 -73t-12 -17q-141 -121 -369 -266q-10 -6 0 -12
q188 -121 406 -281q12 -10 -35 -86q-6 -10 -10 -4q-37 43 -252 173t-316 169q-10 6 -7 30t20 29q109 45 293 161t278 185q12 8 12 -8z" />
    <glyph glyph-name="logicalnot" unicode="&#xac;" horiz-adv-x="1241" 
d="M989 721h2q11 0 21 -9t10 -20v-100l-2 -430q-8 -8 -22 -4q-104 29 -107 41l-2 346v18q0 29 -27 29l-745 -2q-10 0 -4 42t28 89q0 4 28 2t820 -2z" />
    <glyph glyph-name="registered" unicode="&#xae;" horiz-adv-x="667" 
d="M319 1174q18 0 35 14q16 14 17 49q0 66 -68 66q-20 0 -24 -11v-116l2 -2h38zM295 1049h20q2 0 2 -19q-14 2 -58 2t-60 -2q0 18 4 19h20q14 0 15 10q2 20 2 39v192q0 12 -17 13h-20q-4 0 -4 16q16 -2 57 -2h74q38 0 60 -22q22 -23 22 -57t-41 -60l-17 -11q35 -47 82 -112
q10 -6 21 -6h12q8 0 8 -17h-65q-6 0 -6 2l-17 19q-43 68 -59 94q-12 8 -17 8h-32q-2 -2 -2 -4v-86l2 -6q0 -10 14 -10zM104 1168q0 -96 66 -164t159 -68t156 64t63 164q0 99 -64 168t-157 69t-158 -68t-65 -165zM329 1446q117 0 195 -79t78 -200t-80 -199t-198 -79
q-118 0 -195 79q-78 78 -78 196t81 200t197 82z" />
    <glyph glyph-name="degree" unicode="&#xb0;" horiz-adv-x="804" 
d="M410 1444q124 0 208 -85t84 -208t-85 -208t-207 -85t-208 85q-85 85 -85 208t85 208t208 85zM238 1151q0 -84 53 -133t119 -49t118 49t54 133q0 84 -54 133t-118 49q-66 0 -119 -49t-53 -133z" />
    <glyph glyph-name="plusminus" unicode="&#xb1;" 
d="M342 145h678q8 -8 4 -22q-30 -104 -41 -107l-903 -2q-10 0 -4 42t28 89q0 4 28 2t210 -2zM352 795h125l2 395q2 10 109 41q12 4 20 -4v-211q0 -182 2 -219q37 -2 215 -2h209q8 -9 4 -23q-29 -104 -41 -106l-389 -2v-170l2 -230q0 -20 -6 -20q-43 -20 -85 -27t-42 4l2 445
l-399 -2q-10 0 -4 42t28 89q0 4 28 2t220 -2z" />
    <glyph glyph-name="acute" unicode="&#xb4;" horiz-adv-x="409" 
d="M332 1388q0 -10 -6 -16q-201 -268 -222 -287q-8 -10 -20 -6q-43 32 -37 49q16 32 61 150q46 118 48 125q2 8 26 10l142 -16q8 1 8 -9z" />
    <glyph glyph-name="paragraph" unicode="&#xb6;" horiz-adv-x="1232" 
d="M766 1276h-18q-92 0 -148 -108t-57 -244q0 -465 221 -518l2 94v776zM764 1417h106q53 0 287 6q0 -82 -20 -82h-99q-30 0 -56 -15t-26 -40q0 -752 -7 -956q-7 -205 -7 -234q0 -311 -201 -567q-2 -2 -7 -8t-7 -7q-2 -2 -7 -6t-13 -8q-9 -4 -13 -2t-12 0h-217l-8 8
q-4 41 -4 134q2 8 10 8q88 6 217 24q56 8 68 41t16 594q-63 -31 -166 -31q-217 0 -389 162t-172 385q0 481 446 563q166 31 281 31z" />
    <glyph glyph-name="cedilla" unicode="&#xb8;" horiz-adv-x="1705" 
d="M758 -508q-72 0 -119 57q-6 6 -6 36t12 26q76 -39 130 -39t89 31t35 67t-8 57q-8 22 -50 42t-126 26q-16 4 -2 23q63 86 106 143h82l-59 -90q61 -12 111 -53q51 -41 51 -111t-48 -121q-48 -50 -103 -72q-54 -22 -95 -22z" />
    <glyph glyph-name="ordmasculine" unicode="&#xba;" horiz-adv-x="569" 
d="M269 862q-131 0 -195 77t-64 203t81 214t211 88t196 -77t66 -202t-83 -214q-82 -89 -212 -89zM453 1140q1 98 -49 174q-50 77 -130 77q-80 -1 -116 -63t-37 -160q0 -98 48 -175q48 -75 128 -75t118 62t38 160z" />
    <glyph glyph-name="guillemotright" unicode="&#xbb;" horiz-adv-x="1280" 
d="M109 819q0 16 12 8q92 -69 277 -185t294 -161q16 -5 20 -29t-7 -30q-99 -39 -315 -169t-253 -173q-4 -6 -10 4q-47 76 -35 86q217 160 406 281q10 6 0 12q-228 145 -369 266q-4 1 -12 17t-8 73zM600 819q0 16 12 8q92 -69 278 -185t294 -161q16 -5 19 -29t-7 -30
q-100 -39 -315 -169t-252 -173q-4 -6 -11 4q-47 76 -34 86q217 160 405 281q10 6 0 12q-227 145 -368 266q-21 0 -21 90z" />
    <glyph glyph-name="questiondown" unicode="&#xbf;" horiz-adv-x="774" 
d="M506 1304q0 -44 -25 -67t-82 -27t-82 25q-27 25 -23 72t28 79q25 32 78 31q53 0 85 -39q21 -30 21 -74zM696 140q0 -76 -46 -115t-184 -39t-266 99t-128 251q0 118 60 188t249 226q90 74 -12 170q-20 16 2 30q37 18 55 31q16 6 45 -14q115 -88 111 -185q0 -27 -19 -41
q-145 -102 -268 -211q-33 -30 -55 -76t-21 -81q2 -104 96 -171t209 -73q55 2 60 37q4 80 2 131q0 7 20 10l68 2q6 0 6 -6q16 -87 16 -163z" />
    <glyph glyph-name="Agrave" unicode="&#xc0;" horiz-adv-x="1476" 
d="M594 1772q-16 18 1 25t150 24q23 1 25 -5t48 -132t50 -142t0 -20l-16 -16q-29 -26 -41 -11q-31 29 -217 277zM808 1417q30 0 48 2q35 -121 248 -697t225 -591q29 -55 84 -55h84q20 0 21 -82q-112 6 -226 6t-348 -6q0 82 21 82h82q47 0 65 16t10 39q-70 201 -149 434
q-4 2 -10 2h-426q-6 0 -9 -2l-157 -432q-11 -25 11 -40t67 -15h96q23 0 22 -82q-113 6 -201 6t-323 -6q0 82 20 82h99q24 0 52 15t38 40q426 1110 487 1286l17 -2h52zM575 666h349q6 0 10 4l-178 512l-189 -514q2 -2 8 -2z" />
    <glyph glyph-name="Aacute" unicode="&#xc1;" horiz-adv-x="1476" 
d="M999 1793q0 -9 -6 -15q-201 -268 -215 -282t-32 -6q-18 9 -26 20q-9 12 -6 20t56 139t55 139q2 9 25 11l141 -17q8 0 8 -9zM808 1417q30 0 48 2q35 -121 248 -697t225 -591q29 -55 84 -55h84q20 0 21 -82q-112 6 -226 6t-348 -6q0 82 21 82h82q47 0 65 16t10 39
q-70 201 -149 434q-4 2 -10 2h-426q-6 0 -9 -2l-157 -432q-11 -25 11 -40t67 -15h96q23 0 22 -82q-113 6 -201 6t-323 -6q0 82 20 82h99q24 0 52 15t38 40q426 1110 487 1286l17 -2h52zM575 666h349q6 0 10 4l-178 512l-189 -514q2 -2 8 -2z" />
    <glyph glyph-name="Acircumflex" unicode="&#xc2;" horiz-adv-x="1476" 
d="M584 1487q-35 0 -21 20q18 17 91 155t79 157q12 23 21 28l61 17l14 -9q33 -75 91 -183t73 -130q10 -20 0 -24q-11 -10 -45 -20t-51 1q-31 33 -119 191q-8 18 -18 2l-105 -174q-18 -31 -71 -31zM808 1417q30 0 48 2q35 -121 248 -697t225 -591q29 -55 84 -55h84
q20 0 21 -82q-112 6 -226 6t-348 -6q0 82 21 82h82q47 0 65 16t10 39q-70 201 -149 434q-4 2 -10 2h-426q-6 0 -9 -2l-157 -432q-11 -25 11 -40t67 -15h96q23 0 22 -82q-113 6 -201 6t-323 -6q0 82 20 82h99q24 0 52 15t38 40q426 1110 487 1286l17 -2h52zM575 666h349
q6 0 10 4l-178 512l-189 -514q2 -2 8 -2z" />
    <glyph glyph-name="Atilde" unicode="&#xc3;" horiz-adv-x="1476" 
d="M688 1681q40 1 109 -27q70 -28 110 -28q78 0 154 76q16 14 16 -14q0 -12 -7 -38t-60 -69q-90 -66 -160 -65q-37 0 -108 26q-72 26 -116 25q-44 0 -124 -68q-8 -8 -14 -5q-5 3 -5 7l-2 4q1 40 11 56q24 41 90 81t106 39zM808 1417q30 0 48 2q35 -121 248 -697t225 -591
q29 -55 84 -55h84q20 0 21 -82q-112 6 -226 6t-348 -6q0 82 21 82h82q47 0 65 16t10 39q-70 201 -149 434q-4 2 -10 2h-426q-6 0 -9 -2l-157 -432q-11 -25 11 -40t67 -15h96q23 0 22 -82q-113 6 -201 6t-323 -6q0 82 20 82h99q24 0 52 15t38 40q426 1110 487 1286l17 -2h52z
M575 666h349q6 0 10 4l-178 512l-189 -514q2 -2 8 -2z" />
    <glyph glyph-name="Adieresis" unicode="&#xc4;" horiz-adv-x="1476" 
d="M885 1591q0 82 102 88q45 9 76 -23t20 -67q-1 -41 -27 -73t-72 -31t-72 33t-27 73zM471 1593q0 80 104 86q45 9 74 -21t25 -68t-31 -72t-73 -33q-46 0 -78 39q-21 30 -21 69zM808 1417q30 0 48 2q35 -121 248 -697t225 -591q29 -55 84 -55h84q20 0 21 -82q-112 6 -226 6
t-348 -6q0 82 21 82h82q47 0 65 16t10 39q-70 201 -149 434q-4 2 -10 2h-426q-6 0 -9 -2l-157 -432q-11 -25 11 -40t67 -15h96q23 0 22 -82q-113 6 -201 6t-323 -6q0 82 20 82h99q24 0 52 15t38 40q426 1110 487 1286l17 -2h52zM575 666h349q6 0 10 4l-178 512l-189 -514
q2 -2 8 -2z" />
    <glyph glyph-name="Aring" unicode="&#xc5;" horiz-adv-x="1476" 
d="M901 1634q0 82 -100 82t-101 -80q0 -35 31 -55t72 -20q41 -1 69 21t29 52zM800 1792q79 0 122 -43t43 -111t-47 -110q-48 -42 -112 -43q-64 0 -118 37q-53 36 -53 110t43 117t122 43zM808 1417q30 0 48 2q35 -121 248 -697t225 -591q29 -55 84 -55h84q20 0 21 -82
q-112 6 -226 6t-348 -6q0 82 21 82h82q47 0 65 16t10 39q-70 201 -149 434q-4 2 -10 2h-426q-6 0 -9 -2l-157 -432q-11 -25 11 -40t67 -15h96q23 0 22 -82q-113 6 -201 6t-323 -6q0 82 20 82h99q24 0 52 15t38 40q426 1110 487 1286l17 -2h52zM575 666h349q6 0 10 4
l-178 512l-189 -514q2 -2 8 -2z" />
    <glyph glyph-name="AE" unicode="&#xc6;" horiz-adv-x="1980" 
d="M1014 772q12 0 12 23v491q0 51 -14 51l-6 -6l-287 -545q-4 -14 12 -14h283zM1026 660q0 2 -5 8t-15 6h-334q-8 0 -17 -8l-280 -533q-15 -29 7 -42t71 -13h84q23 0 22 -82q-113 6 -195 6t-317 -6q0 82 21 82h98q59 0 90 55q516 907 659 1208h-127q-20 0 -20 82
q233 -6 348 -6h688l37 -39q6 -4 6 -20l-10 -215q0 -8 -10 -8l-82 -5q-8 0 -8 9q-2 94 -28 137t-110 43h-321q-53 0 -57 -55v-486q4 -6 14 -6h319q127 0 127 82l9 64q2 16 28 22t51 -10q-16 -104 -16 -190t4 -236q-29 -14 -53 -6t-23 30v54q0 44 -39 68t-88 24h-319
q-10 0 -14 -8v-512q12 -57 65 -58h363q39 0 61 5t54 34q63 60 89 193q5 10 15 7t71 -24q10 -4 11 -14q-33 -201 -49 -272q-6 -16 -29 -19q-68 -6 -178 -6h-635q-33 0 -266 -6q0 86 20 86h98q111 0 115 72q2 38 2 104l-2 70v334z" />
    <glyph glyph-name="Ccedilla" unicode="&#xc7;" horiz-adv-x="1540" 
d="M922 -43q-16 0 -34 1l-38 -58q62 -12 112 -54t50 -110q0 -70 -48 -121t-102 -73t-96 -21q-72 0 -119 57q-6 6 -6 35t12 27q77 -39 131 -39q54 1 88 31t35 66q0 36 -8 58t-50 41q-42 20 -126 27q-16 4 -2 22q51 69 88 119q-17 2 -65 10q-48 9 -160 57t-201 123
q-88 75 -152 215q-63 140 -63 302t35 279q35 118 88 195t128 136t145 91q176 81 342 81q167 0 489 -37l43 -41q8 -4 8 -15t-8 -122t-10 -120t-13 -9h-78q-8 0 -10 8q2 25 -16 70q-30 85 -91 114q-135 62 -319 62q-233 0 -367 -176t-134 -434t125 -459q93 -145 272 -205
q99 -33 207 -33t194 45t123 131q14 35 31 107q4 10 14 7t72 -23q10 -4 10 -15q-33 -201 -49 -272q-6 -13 -29 -19q-274 -61 -448 -61z" />
    <glyph glyph-name="Egrave" unicode="&#xc8;" horiz-adv-x="1251" 
d="M440 1772q-16 18 1 25t151 24q22 1 24 -5t26 -72t48 -134t26 -76q5 -13 -38 -45q-12 -4 -21 6q-31 29 -217 277zM266 1286q0 23 -27 39q-28 16 -53 16h-96q-20 0 -20 82q233 -6 286 -6h688l37 -39q6 -4 6 -20l-10 -215q0 -8 -10 -8l-82 -5q-8 0 -8 9q-2 94 -28 137
t-109 43h-322q-53 0 -57 -55v-486q2 -6 14 -6h320q127 0 127 82l8 64q2 16 28 22t52 -10q-16 -104 -16 -190t3 -236q-27 -14 -51 -6t-24 30v54q0 44 -39 68t-88 24h-320q-10 0 -14 -8v-512q12 -57 65 -58h371q53 0 89 23q74 47 108 209q4 10 14 7t72 -24q10 -4 10 -14
q-33 -201 -49 -272q-6 -16 -29 -19q-67 -6 -178 -6h-635q-33 0 -266 -6q0 86 20 86h99q110 0 114 72q2 38 2 104l-2 70v960z" />
    <glyph glyph-name="Eacute" unicode="&#xc9;" horiz-adv-x="1251" 
d="M795 1797q0 -9 -7 -15q-201 -268 -215 -282t-32 -6q-18 9 -26 20q-9 12 -6 20t56 139t51 133q6 15 29 17l141 -17q9 0 9 -9zM266 1286q0 23 -27 39q-28 16 -53 16h-96q-20 0 -20 82q233 -6 286 -6h688l37 -39q6 -4 6 -20l-10 -215q0 -8 -10 -8l-82 -5q-8 0 -8 9
q-2 94 -28 137t-109 43h-322q-53 0 -57 -55v-486q2 -6 14 -6h320q127 0 127 82l8 64q2 16 28 22t52 -10q-16 -104 -16 -190t3 -236q-27 -14 -51 -6t-24 30v54q0 44 -39 68t-88 24h-320q-10 0 -14 -8v-512q12 -57 65 -58h371q53 0 89 23q74 47 108 209q4 10 14 7t72 -24
q10 -4 10 -14q-33 -201 -49 -272q-6 -16 -29 -19q-67 -6 -178 -6h-635q-33 0 -266 -6q0 86 20 86h99q110 0 114 72q2 38 2 104l-2 70v960z" />
    <glyph glyph-name="Ecircumflex" unicode="&#xca;" horiz-adv-x="1251" 
d="M424 1489q-35 0 -21 20q17 17 91 155t79 157q12 23 21 28l61 17l15 -8q33 -76 90 -184t74 -130q10 -20 0 -24q-10 -10 -45 -20t-52 1q-31 33 -119 191q-8 18 -16 5t-28 -49t-48 -78q-27 -42 -30 -50q-18 -31 -72 -31zM266 1286q0 23 -27 39q-28 16 -53 16h-96
q-20 0 -20 82q233 -6 286 -6h688l37 -39q6 -4 6 -20l-10 -215q0 -8 -10 -8l-82 -5q-8 0 -8 9q-2 94 -28 137t-109 43h-322q-53 0 -57 -55v-486q2 -6 14 -6h320q127 0 127 82l8 64q2 16 28 22t52 -10q-16 -104 -16 -190t3 -236q-27 -14 -51 -6t-24 30v54q0 44 -39 68t-88 24
h-320q-10 0 -14 -8v-512q12 -57 65 -58h371q53 0 89 23q74 47 108 209q4 10 14 7t72 -24q10 -4 10 -14q-33 -201 -49 -272q-6 -16 -29 -19q-67 -6 -178 -6h-635q-33 0 -266 -6q0 86 20 86h99q110 0 114 72q2 38 2 104l-2 70v960z" />
    <glyph glyph-name="Edieresis" unicode="&#xcb;" horiz-adv-x="1251" 
d="M725 1593q0 82 102 88q45 9 76 -23t21 -67q-2 -41 -28 -73t-72 -31t-72 33t-27 73zM311 1595q0 80 105 86q46 9 74 -21t24 -68t-31 -72t-73 -33q-46 0 -78 39q-21 30 -21 69zM266 1286q0 23 -27 39q-28 16 -53 16h-96q-20 0 -20 82q233 -6 286 -6h688l37 -39q6 -4 6 -20
l-10 -215q0 -8 -10 -8l-82 -5q-8 0 -8 9q-2 94 -28 137t-109 43h-322q-53 0 -57 -55v-486q2 -6 14 -6h320q127 0 127 82l8 64q2 16 28 22t52 -10q-16 -104 -16 -190t3 -236q-27 -14 -51 -6t-24 30v54q0 44 -39 68t-88 24h-320q-10 0 -14 -8v-512q12 -57 65 -58h371
q53 0 89 23q74 47 108 209q4 10 14 7t72 -24q10 -4 10 -14q-33 -201 -49 -272q-6 -16 -29 -19q-67 -6 -178 -6h-635q-33 0 -266 -6q0 86 20 86h99q110 0 114 72q2 38 2 104l-2 70v960z" />
    <glyph glyph-name="Igrave" unicode="&#xcc;" horiz-adv-x="739" 
d="M156 1774q-16 18 1 25t150 24q23 2 25 -4t26 -73q24 -66 46 -134q24 -68 27 -76t-1 -12l-16 -16q-29 -26 -41 -11q-31 29 -217 277zM645 1341h-96q-25 0 -53 -16t-31 -39v-960l6 -195q0 -19 27 -37t51 -18h96q20 0 21 -82q-113 6 -236 6t-356 -6q0 82 20 82h99
q25 0 51 17t24 38l4 195v960q0 23 -27 39q-28 16 -52 16h-99q-20 0 -20 82q233 -6 356 -6t236 6q-1 -82 -21 -82z" />
    <glyph glyph-name="Iacute" unicode="&#xcd;" horiz-adv-x="739" 
d="M596 1797q0 -9 -6 -15q-201 -268 -215 -282t-27 -11q-43 32 -37 49q15 32 61 150t48 125q2 8 26 10l142 -17q8 0 8 -9zM645 1341h-96q-25 0 -53 -16t-31 -39v-960l6 -195q0 -19 27 -37t51 -18h96q20 0 21 -82q-113 6 -236 6t-356 -6q0 82 20 82h99q25 0 51 17t24 38
l4 195v960q0 23 -27 39q-28 16 -52 16h-99q-20 0 -20 82q233 -6 356 -6t236 6q-1 -82 -21 -82z" />
    <glyph glyph-name="Icircumflex" unicode="&#xce;" horiz-adv-x="739" 
d="M174 1489q-35 0 -20 20q18 17 91 155t81 159t18 26l62 17l14 -8q33 -76 90 -184t74 -130q10 -20 0 -24q-10 -10 -45 -20t-52 1q-31 33 -118 191q-9 18 -17 5t-28 -49t-48 -78t-30 -50q-18 -31 -72 -31zM645 1341h-96q-25 0 -53 -16t-31 -39v-960l6 -195q0 -19 27 -37
t51 -18h96q20 0 21 -82q-113 6 -236 6t-356 -6q0 82 20 82h99q25 0 51 17t24 38l4 195v960q0 23 -27 39q-28 16 -52 16h-99q-20 0 -20 82q233 -6 356 -6t236 6q-1 -82 -21 -82z" />
    <glyph glyph-name="Idieresis" unicode="&#xcf;" horiz-adv-x="761" 
d="M586 1487q-46 1 -72 33q-27 32 -27 73q0 82 103 88q45 9 76 -23t20 -67q-2 -41 -28 -73t-72 -31zM74 1595q0 80 104 86q45 9 74 -21t22 -69q-2 -37 -28 -71q-27 -33 -73 -33t-79 39q-20 30 -20 69zM666 1341h-97q-25 0 -53 -16t-31 -39v-960l7 -195q0 -20 26 -38
q27 -17 51 -17h97q20 0 20 -82q-114 6 -236 6t-356 -6q0 82 21 82h98q25 0 51 17t25 38l4 195v960q0 23 -28 39t-52 16h-98q-20 0 -21 82q232 -6 356 -6t236 6q0 -82 -20 -82z" />
    <glyph glyph-name="Ntilde" unicode="&#xd1;" horiz-adv-x="1751" 
d="M1001 1628q78 0 154 76q16 14 16 -14q0 -12 -7 -38t-60 -69q-90 -66 -160 -65q-38 0 -108 26t-115 25q-45 0 -125 -68q-8 -8 -13 -5t-5 7l-3 4q1 40 11 56q24 41 90 81t106 40t109 -28q70 -28 110 -28zM549 76h96q20 0 21 -82q-113 6 -236 6t-356 -6q0 82 20 82h99
q85 0 102 112q10 64 10 748v346q0 33 -38 46t-74 13h-99q-20 0 -20 82q233 -6 286 -6h93l919 -1143v545q0 332 -20 467q-14 55 -86 55h-129q-20 0 -21 82q116 -6 222 -6t339 6q0 -82 -20 -82h-68q-31 0 -59 -13t-35 -42q-20 -147 -20 -467v-823q-53 4 -74 4l-64 -4
q-274 371 -919 1161q0 -823 10 -991q2 -46 42 -68t79 -22z" />
    <glyph glyph-name="Ograve" unicode="&#xd2;" horiz-adv-x="1642" 
d="M616 1769q-16 19 1 26t151 24q23 1 25 -5q1 -6 25 -72t48 -134t26 -76q5 -13 -38 -45q-12 -4 -20 6q-31 29 -218 276zM330 791q0 -363 163 -541t410 -178q154 0 274 134q62 70 100 192t38 284q0 287 -153 468t-374 182q-222 0 -340 -154t-118 -387zM856 1450
q282 0 486 -214t204 -511q0 -348 -200 -556t-512 -208q-188 0 -336 67t-232 178q-170 227 -170 527q0 301 207 509t553 208z" />
    <glyph glyph-name="Oacute" unicode="&#xd3;" horiz-adv-x="1642" 
d="M1028 1797q0 -9 -6 -15q-201 -268 -215 -282t-27 -11q-43 32 -37 49q28 55 110 275q3 8 26 10l141 -17q8 0 8 -9zM330 791q0 -363 163 -541t410 -178q154 0 274 134q62 70 100 192t38 284q0 287 -153 468t-374 182q-222 0 -340 -154t-118 -387zM856 1450q282 0 486 -214
t204 -511q0 -348 -200 -556t-512 -208q-188 0 -336 67t-232 178q-170 227 -170 527q0 301 207 509t553 208z" />
    <glyph glyph-name="Ocircumflex" unicode="&#xd4;" horiz-adv-x="1642" 
d="M625 1487q-35 0 -21 20q18 17 91 155t79 157q12 23 21 28l61 17l14 -9q32 -75 90 -183t74 -130q10 -20 0 -24q-10 -10 -44 -20t-52 1q-31 33 -119 191q-8 18 -18 2l-105 -174q-18 -31 -71 -31zM330 791q0 -363 163 -541t410 -178q154 0 274 134q62 70 100 192t38 284
q0 287 -153 468t-374 182q-222 0 -340 -154t-118 -387zM856 1450q282 0 486 -214t204 -511q0 -348 -200 -556t-512 -208q-188 0 -336 67t-232 178q-170 227 -170 527q0 301 207 509t553 208z" />
    <glyph glyph-name="Otilde" unicode="&#xd5;" horiz-adv-x="1642" 
d="M728 1686q40 0 110 -28t110 -28q78 0 154 76q16 14 16 -14q0 -12 -7 -38t-60 -69q-90 -66 -160 -65q-37 0 -108 26t-115 25q-44 0 -125 -68q-8 -8 -14 -5q-5 3 -5 7l-2 4q0 40 10 56q25 41 91 81q65 40 105 40zM330 791q0 -363 163 -541t410 -178q154 0 274 134
q62 70 100 192t38 284q0 287 -153 468t-374 182q-222 0 -340 -154t-118 -387zM856 1450q282 0 486 -214t204 -511q0 -348 -200 -556t-512 -208q-188 0 -336 67t-232 178q-170 227 -170 527q0 301 207 509t553 208z" />
    <glyph glyph-name="Odieresis" unicode="&#xd6;" horiz-adv-x="1642" 
d="M926 1591q0 82 102 88q45 9 76 -23t20 -67q-2 -41 -28 -73t-71 -31q-47 1 -73 33t-26 73zM512 1593q0 80 104 86q45 9 74 -21t25 -68t-31 -72t-73 -33q-46 0 -79 39q-20 30 -20 69zM330 791q0 -363 163 -541t410 -178q154 0 274 134q62 70 100 192t38 284q0 287 -153 468
t-374 182q-222 0 -340 -154t-118 -387zM856 1450q282 0 486 -214t204 -511q0 -348 -200 -556t-512 -208q-188 0 -336 67t-232 178q-170 227 -170 527q0 301 207 509t553 208z" />
    <glyph glyph-name="Oslash" unicode="&#xd8;" horiz-adv-x="1767" 
d="M973 72q153 0 273 134q139 155 139 495q0 181 -82 341q-483 -475 -773 -753q156 -217 443 -217zM399 780q0 -244 88 -418q342 338 764 762q-151 205 -403 209q-211 -1 -330 -155t-119 -398zM926 1450q262 0 460 -188l187 190q8 8 20 2l72 -35q10 -6 -2 -18l-211 -211
q164 -205 164 -465q0 -348 -200 -556t-515 -208t-514 189q-160 -154 -205 -193q-12 -8 -24 -2l-54 25q-12 6 -2 16q100 88 230 215q-166 207 -166 515t207 516t553 208z" />
    <glyph glyph-name="Ugrave" unicode="&#xd9;" horiz-adv-x="1673" 
d="M653 1772q-16 18 1 25t151 24q23 1 25 -5t25 -72t47 -134t27 -76q5 -13 -38 -45q-12 -4 -21 6q-31 29 -217 277zM643 1341h-96q-29 0 -51 -18t-23 -53v-692q0 -194 85 -327q46 -73 137 -115t218 -42q255 0 336 158q68 133 68 326v278q0 346 -14 414q-7 31 -45 51t-89 20
h-59q-20 0 -20 82q114 -6 266 -6t266 6q0 -82 -20 -82h-60q-39 1 -73 -21q-35 -22 -39 -64t-5 -199v-479q0 -157 -41 -268t-95 -177t-157 -113t-241 -47q-342 1 -479 143t-138 462v692q0 33 -25 52q-26 19 -59 19h-98q-20 0 -20 82q232 -6 354 -6t238 6q-1 -82 -21 -82z" />
    <glyph glyph-name="Uacute" unicode="&#xda;" horiz-adv-x="1673" 
d="M1098 1797q0 -9 -6 -15q-201 -268 -222 -287q-8 -10 -26 -1t-26 20q-9 12 -6 20q4 8 56 136t54 140q2 11 26 13l142 -17q8 0 8 -9zM643 1341h-96q-29 0 -51 -18t-23 -53v-692q0 -194 85 -327q46 -73 137 -115t218 -42q255 0 336 158q68 133 68 326v278q0 346 -14 414
q-7 31 -45 51t-89 20h-59q-20 0 -20 82q114 -6 266 -6t266 6q0 -82 -20 -82h-60q-39 1 -73 -21q-35 -22 -39 -64t-5 -199v-479q0 -157 -41 -268t-95 -177t-157 -113t-241 -47q-342 1 -479 143t-138 462v692q0 33 -25 52q-26 19 -59 19h-98q-20 0 -20 82q232 -6 354 -6t238 6
q-1 -82 -21 -82z" />
    <glyph glyph-name="Ucircumflex" unicode="&#xdb;" horiz-adv-x="1673" 
d="M651 1487q-35 0 -20 20q18 17 91 155t81 159t18 26l62 17l14 -9q33 -75 90 -183t74 -130q10 -20 0 -24q-10 -10 -45 -20t-51 1q-31 33 -119 191q-8 18 -19 2l-104 -174q-18 -31 -72 -31zM643 1341h-96q-29 0 -51 -18t-23 -53v-692q0 -194 85 -327q46 -73 137 -115
t218 -42q255 0 336 158q68 133 68 326v278q0 346 -14 414q-7 31 -45 51t-89 20h-59q-20 0 -20 82q114 -6 266 -6t266 6q0 -82 -20 -82h-60q-39 1 -73 -21q-35 -22 -39 -64t-5 -199v-479q0 -157 -41 -268t-95 -177t-157 -113t-241 -47q-342 1 -479 143t-138 462v692
q0 33 -25 52q-26 19 -59 19h-98q-20 0 -20 82q232 -6 354 -6t238 6q-1 -82 -21 -82z" />
    <glyph glyph-name="Udieresis" unicode="&#xdc;" horiz-adv-x="1673" 
d="M1051 1487q-47 1 -73 33t-26 73q0 82 103 88q45 10 73 -22q33 -33 23 -68q-2 -41 -28 -73t-72 -31zM539 1595q0 80 104 86q45 9 74 -21t22 -69q-2 -37 -28 -71q-27 -33 -73 -33t-79 39q-20 30 -20 69zM643 1341h-96q-29 0 -51 -18t-23 -53v-692q0 -194 85 -327
q46 -73 137 -115t218 -42q255 0 336 158q68 133 68 326v278q0 346 -14 414q-7 31 -45 51t-89 20h-59q-20 0 -20 82q114 -6 266 -6t266 6q0 -82 -20 -82h-60q-39 1 -73 -21q-35 -22 -39 -64t-5 -199v-479q0 -157 -41 -268t-95 -177t-157 -113t-241 -47q-342 1 -479 143
t-138 462v692q0 33 -25 52q-26 19 -59 19h-98q-20 0 -20 82q232 -6 354 -6t238 6q-1 -82 -21 -82z" />
    <glyph glyph-name="Yacute" unicode="&#xdd;" horiz-adv-x="1286" 
d="M954 1795q0 -9 -6 -15q-201 -268 -215 -282t-32 -6q-18 9 -26 20q-9 12 -6 20t56 139t55 139q2 9 25 11l141 -17q8 0 8 -9zM98 1341h-98q-20 0 -20 82q234 -6 340 -6t219 6q0 -82 -21 -82h-80q-23 0 -22 -18q0 -12 10 -37q125 -279 297 -579q78 121 182 317t127 262
q14 29 -4 42t-53 13h-98q-20 0 -21 82q234 -6 322 -6t200 6q0 -82 -20 -82h-80q-53 0 -100 -56q-80 -95 -224 -353q-145 -258 -176 -309q-8 -23 -8 -192t6 -241q10 -115 82 -114h96q20 0 21 -82q-115 6 -249 6t-368 -6q0 82 21 82h104q33 0 61 30t27 84l4 316q0 78 -20 119
l-29 55q-242 479 -336 606q-37 55 -92 55z" />
    <glyph glyph-name="germandbls" unicode="&#xdf;" horiz-adv-x="1177" 
d="M152 68h73q27 0 31 38l4 334q0 118 8 338q-4 39 -30 39l-86 2q-8 0 -9 6v54q-1 14 5 15t36 7t88 14q12 298 154 416q50 47 150 100t168 53t125 -29q56 -30 89 -73q68 -92 68 -198q0 -162 -170 -312q-22 -22 -38 -37t-17 -37q0 -24 8 -36t197 -180q96 -88 96 -230
t-115 -261q-115 -118 -260 -118q-72 0 -115 31q-18 12 -19 33t13 108q2 23 19 7q82 -66 167 -66q169 0 169 152q0 85 -28 133t-49 68q-21 19 -51 49t-149 122l-31 27q-14 10 -19 59t19 74q229 207 230 332q0 154 -82 231q-37 35 -64 40t-71 5q-143 0 -203 -168
q-31 -104 -31 -471v-73l4 -201v-23l6 -336q4 -39 29 -38h68q20 0 20 -74q-113 6 -211 6l-217 -6q1 74 21 74z" />
    <glyph glyph-name="agrave" unicode="&#xe0;" horiz-adv-x="937" 
d="M328 1360q-16 18 1 25t150 24q23 2 25 -4q15 -46 56 -161q42 -114 44 -122q4 -12 -39 -45q-12 -4 -20 6q-31 29 -217 277zM443 942q59 0 111 -12q136 -31 196 -118q35 -52 34 -120v-342l4 -200q6 -78 78 -78h39q12 0 13 -9v-43q0 -14 -11 -16q-225 -35 -235 -35l-21 6
l-41 45v109q-164 -156 -299 -156q-102 0 -170 67t-67 173q0 68 49 114t115 68q172 61 372 92v150q-2 74 -56 132t-166 58t-122 -59q-6 -33 -10 -91t-10 -61q-99 0 -101 11l-4 137q-1 18 7 24t49 36q41 31 114 75q73 43 132 43zM238 215q0 -53 32 -86t76 -33q125 1 264 105
v219q-176 -39 -274 -83t-98 -122z" />
    <glyph glyph-name="aacute" unicode="&#xe1;" horiz-adv-x="937" 
d="M688 1388q0 -10 -6 -16q-201 -268 -215 -282t-27 -11q-41 31 -37 49q28 55 110 275q3 8 26 10l141 -16q8 1 8 -9zM443 942q59 0 111 -12q136 -31 196 -118q35 -52 34 -120v-342l4 -200q6 -78 78 -78h39q12 0 13 -9v-43q0 -14 -11 -16q-225 -35 -235 -35l-21 6l-41 45v109
q-164 -156 -299 -156q-102 0 -170 67t-67 173q0 68 49 114t115 68q172 61 372 92v150q-2 74 -56 132t-166 58t-122 -59q-6 -33 -10 -91t-10 -61q-99 0 -101 11l-4 137q-1 18 7 24t49 36q41 31 114 75q73 43 132 43zM238 215q0 -53 32 -86t76 -33q125 1 264 105v219
q-176 -39 -274 -83t-98 -122z" />
    <glyph glyph-name="acircumflex" unicode="&#xe2;" horiz-adv-x="937" 
d="M436 1415l62 17l14 -9q33 -75 90 -183t74 -130q10 -20 0 -25q-10 -10 -45 -20t-51 2q-31 33 -119 190q-9 17 -17 5t-28 -48t-47 -78t-31 -51q-18 -31 -72 -30q-35 0 -20 20q18 17 91 155t81 158t18 27zM443 942q59 0 111 -12q136 -31 196 -118q35 -52 34 -120v-342
l4 -200q6 -78 78 -78h39q12 0 13 -9v-43q0 -14 -11 -16q-225 -35 -235 -35l-21 6l-41 45v109q-164 -156 -299 -156q-102 0 -170 67t-67 173q0 68 49 114t115 68q172 61 372 92v150q-2 74 -56 132t-166 58t-122 -59q-6 -33 -10 -91t-10 -61q-99 0 -101 11l-4 137q-1 18 7 24
t49 36q41 31 114 75q73 43 132 43zM238 215q0 -53 32 -86t76 -33q125 1 264 105v219q-176 -39 -274 -83t-98 -122z" />
    <glyph glyph-name="atilde" unicode="&#xe3;" horiz-adv-x="937" 
d="M368 1321q40 0 110 -28t110 -27q78 0 153 75q16 14 17 -14q0 -12 -7 -38t-61 -68q-90 -66 -160 -66q-38 0 -108 26q-70 25 -115 25t-125 -67q-8 -8 -13 -5t-5 7l-2 4q0 39 10 55q24 41 90 81t106 40zM443 942q59 0 111 -12q136 -31 196 -118q35 -52 34 -120v-342l4 -200
q6 -78 78 -78h39q12 0 13 -9v-43q0 -14 -11 -16q-225 -35 -235 -35l-21 6l-41 45v109q-164 -156 -299 -156q-102 0 -170 67t-67 173q0 68 49 114t115 68q172 61 372 92v150q-2 74 -56 132t-166 58t-122 -59q-6 -33 -10 -91t-10 -61q-99 0 -101 11l-4 137q-1 18 7 24t49 36
q41 31 114 75q73 43 132 43zM238 215q0 -53 32 -86t76 -33q125 1 264 105v219q-176 -39 -274 -83t-98 -122z" />
    <glyph glyph-name="adieresis" unicode="&#xe4;" horiz-adv-x="937" 
d="M664 1151q-46 1 -72 33t-27 73q0 82 103 89q45 10 73 -23q33 -33 23 -68q-2 -41 -28 -73t-72 -31zM152 1259q0 79 104 87q45 10 74 -21t22 -70q-2 -37 -28 -71q-27 -33 -73 -33t-79 39q-20 30 -20 69zM443 942q59 0 111 -12q136 -31 196 -118q35 -52 34 -120v-342l4 -200
q6 -78 78 -78h39q12 0 13 -9v-43q0 -14 -11 -16q-225 -35 -235 -35l-21 6l-41 45v109q-164 -156 -299 -156q-102 0 -170 67t-67 173q0 68 49 114t115 68q172 61 372 92v150q-2 74 -56 132t-166 58t-122 -59q-6 -33 -10 -91t-10 -61q-99 0 -101 11l-4 137q-1 18 7 24t49 36
q41 31 114 75q73 43 132 43zM238 215q0 -53 32 -86t76 -33q125 1 264 105v219q-176 -39 -274 -83t-98 -122z" />
    <glyph glyph-name="aring" unicode="&#xe5;" horiz-adv-x="937" 
d="M469 1321q-100 0 -100 -80q1 -35 31 -55t71 -20t70 21q29 22 28 52q0 82 -100 82zM468 1397q79 0 122 -43t43 -111q0 -69 -47 -111q-48 -42 -112 -42t-118 36q-53 37 -53 111t43 117t122 43zM443 942q59 0 111 -12q136 -31 196 -118q35 -52 34 -120v-342l4 -200
q6 -78 78 -78h39q12 0 13 -9v-43q0 -14 -11 -16q-225 -35 -235 -35l-21 6l-41 45v109q-164 -156 -299 -156q-102 0 -170 67t-67 173q0 68 49 114t115 68q172 61 372 92v150q-2 74 -56 132t-166 58t-122 -59q-6 -33 -10 -91t-10 -61q-99 0 -101 11l-4 137q-1 18 7 24t49 36
q41 31 114 75q73 43 132 43zM238 215q0 -53 32 -86t76 -33q125 1 264 105v219q-176 -39 -274 -83t-98 -122z" />
    <glyph glyph-name="ae" unicode="&#xe6;" horiz-adv-x="1464" 
d="M238 215q0 -53 32 -86t76 -33q125 0 264 105v213q-172 -31 -272 -76t-100 -123zM1008 858q-242 0 -248 -348l452 80q0 100 -53 184t-151 84zM1026 -27q-250 0 -369 164q-14 14 -26 -2q-66 -74 -154 -118t-178 -44t-158 67t-67 173q0 68 49 114t115 68q172 61 372 92v150
q0 74 -54 132t-181 58q-32 0 -74 -14q-31 -14 -36 -46t-9 -90t-10 -61q-99 0 -101 11l-4 137q0 20 4 23q130 98 197 127q67 28 126 28q60 0 142 -30t129 -91q137 121 305 121t255 -108t87 -308l-624 -88q10 -160 92 -253t232 -93t253 78q49 -45 31 -64q-133 -133 -344 -133z
" />
    <glyph glyph-name="ccedilla" unicode="&#xe7;" horiz-adv-x="962" 
d="M730 629q-18 0 -17 8q-6 84 -15 123q-23 98 -170 98t-198 -105t-54 -300q0 -141 86 -260t220 -119t221 59l47 35q51 -47 33 -66l-21 -18q-116 -105 -302 -110l-54 -83q61 -12 111 -53q51 -40 51 -110t-48 -121t-102 -73t-96 -21q-72 0 -119 57q-6 6 -6 36t12 25
q77 -39 131 -39t88 31t35 67q0 36 -8 58t-50 41q-42 20 -126 27q-16 4 -2 22q61 82 103 139q-107 13 -201 81t-140 171q-45 104 -45 220q2 219 128 356t356 137q68 0 140 -22t111 -52q4 0 6 -9q3 -9 1 -19l-25 -203q0 -6 -6 -6h-10l-20 -2h-45z" />
    <glyph glyph-name="egrave" unicode="&#xe8;" horiz-adv-x="972" 
d="M342 1360q-16 18 1 25t151 24q22 2 24 -4t48 -134t50 -143q4 -14 -4 -22t-32 -29q-12 -4 -21 6q-31 29 -217 277zM520 858q-225 0 -246 -301l447 39q0 100 -51 181q-52 81 -150 81zM530 -27q-220 1 -328 135t-107 343t135 350t316 141q356 0 355 -428l-629 -31
q2 -178 84 -284q82 -107 238 -107t258 78q49 -45 31 -64q-133 -133 -353 -133z" />
    <glyph glyph-name="eacute" unicode="&#xe9;" horiz-adv-x="972" 
d="M698 1386q0 -10 -6 -16q-201 -268 -215 -282t-26 -11q-43 31 -38 43q4 12 56 142q53 130 55 139q2 8 25 10l141 -16q8 1 8 -9zM520 858q-225 0 -246 -301l447 39q0 100 -51 181q-52 81 -150 81zM530 -27q-220 1 -328 135t-107 343t135 350t316 141q356 0 355 -428
l-629 -31q2 -178 84 -284q82 -107 238 -107t258 78q49 -45 31 -64q-133 -133 -353 -133z" />
    <glyph glyph-name="ecircumflex" unicode="&#xea;" horiz-adv-x="972" 
d="M547 1423q33 -75 90 -183t74 -130q10 -20 0 -25q-10 -10 -45 -20t-52 2q-31 33 -118 190q-8 17 -16 5t-29 -48q-19 -36 -47 -78t-31 -51q-18 -31 -72 -30q-35 0 -20 20q18 17 91 155t82 158t14 24q5 3 18 7q14 4 26 8t20 5zM520 858q-225 0 -246 -301l447 39
q0 100 -51 181q-52 81 -150 81zM530 -27q-220 1 -328 135t-107 343t135 350t316 141q356 0 355 -428l-629 -31q2 -178 84 -284q82 -107 238 -107t258 78q49 -45 31 -64q-133 -133 -353 -133z" />
    <glyph glyph-name="edieresis" unicode="&#xeb;" horiz-adv-x="972" 
d="M635 1257q0 82 102 89q45 10 76 -23t21 -68q-2 -41 -28 -73t-72 -31t-72 33t-27 73zM221 1259q0 79 105 87q45 10 73 -23q29 -29 25 -67t-31 -72t-73 -33q-46 0 -78 39q-21 30 -21 69zM520 858q-225 0 -246 -301l447 39q0 100 -51 181q-52 81 -150 81zM530 -27
q-220 1 -328 135t-107 343t135 350t316 141q356 0 355 -428l-629 -31q2 -178 84 -284q82 -107 238 -107t258 78q49 -45 31 -64q-133 -133 -353 -133z" />
    <glyph glyph-name="igrave" unicode="&#xec;" horiz-adv-x="641" 
d="M125 1358q-16 18 1 25t150 24q23 2 25 -4t48 -134t50 -143q4 -14 0 -18q-19 -19 -37 -33q-12 -4 -20 6q-31 29 -217 277zM96 68h99q31 -2 30 38q8 111 8 205v465q0 49 -57 49h-82q-10 0 -10 9v45q0 14 10 16l66 10q68 13 127 23t61 10l21 -6l41 -45v-576l10 -205
q0 -16 7 -26t15 -10l7 -2h96q20 0 20 -74q-150 6 -250 6l-239 -6q0 74 20 74z" />
    <glyph glyph-name="iacute" unicode="&#xed;" horiz-adv-x="641" 
d="M477 1388q0 -10 -6 -16q-201 -268 -215 -282t-27 -11q-42 31 -36 49q24 47 109 275q3 8 26 10l141 -16q8 1 8 -9zM96 68h99q31 -2 30 38q8 111 8 205v465q0 49 -57 49h-82q-10 0 -10 9v45q0 14 10 16l66 10q68 13 127 23t61 10l21 -6l41 -45v-576l10 -205q0 -16 7 -26
t15 -10l7 -2h96q20 0 20 -74q-150 6 -250 6l-239 -6q0 74 20 74z" />
    <glyph glyph-name="icircumflex" unicode="&#xee;" horiz-adv-x="641" 
d="M375 1421q33 -75 90 -183t74 -130q10 -20 0 -25q-10 -10 -45 -20t-52 2q-31 33 -118 190q-8 18 -19 2l-104 -174q-18 -31 -72 -30q-35 0 -20 20q18 17 91 155t82 158t14 24q5 3 18 7q14 4 26 8t20 5zM96 68h99q31 -2 30 38q8 111 8 205v465q0 49 -57 49h-82q-10 0 -10 9
v45q0 14 10 16l66 10q68 13 127 23t61 10l21 -6l41 -45v-576l10 -205q0 -16 7 -26t15 -10l7 -2h96q20 0 20 -74q-150 6 -250 6l-239 -6q0 74 20 74z" />
    <glyph glyph-name="idieresis" unicode="&#xef;" horiz-adv-x="765" 
d="M589 1143q-46 1 -73 33t-27 73q0 82 103 88q45 9 76 -23t20 -67q-2 -41 -28 -73t-71 -31zM76 1251q0 80 104 86q45 9 74 -21t22 -69q-2 -37 -28 -71q-27 -33 -73 -33t-79 39q-20 30 -20 69zM168 68h98q31 -2 31 38q8 111 8 205v465q0 49 -57 49h-82q-10 0 -10 9v45
q0 14 10 16l67 10q182 33 187 33l20 -6l41 -45v-576l11 -205q0 -16 7 -26t13 -10l8 -2h96q20 0 21 -74q-150 6 -250 6l-240 -6q0 74 21 74z" />
    <glyph glyph-name="ntilde" unicode="&#xf1;" horiz-adv-x="1249" 
d="M548 1317q40 0 110 -28t110 -27q78 0 154 75q16 14 16 -14q0 -12 -7 -38t-61 -68q-90 -66 -159 -66q-37 0 -108 26q-71 25 -115 25t-126 -67q-8 -7 -13 -5t-5 7l-2 4q0 39 10 55q24 41 90 81t106 40zM717 68h100q25 0 29 38q10 111 10 205v275q0 92 -22 139
q-39 86 -172 86q-88 0 -168 -55t-84 -113v-332l10 -205q4 -39 29 -38h96q20 0 20 -74q-115 6 -185 6t-304 -6q0 74 20 74h99q25 0 30 38q8 111 8 205v459q0 53 -57 53h-82q-10 0 -10 8v46q0 14 10 16l66 12q68 11 127 21t61 10l21 -6l41 -45v-113q2 0 20 18q142 146 299 146
q127 0 215 -72t88 -194v-359q0 -178 8 -202q4 -41 31 -41h96q20 0 21 -74q-114 6 -186 6t-306 -6q1 74 21 74z" />
    <glyph glyph-name="ograve" unicode="&#xf2;" horiz-adv-x="1110" 
d="M412 1362q-16 18 1 25t150 24q23 2 25 -4t26 -73q24 -66 46 -134q24 -68 27 -76q4 -12 -38 -45q-12 -4 -20 6q-31 29 -217 277zM94 437q0 209 136 357t354 148t324 -127q108 -127 108 -337t-136 -357t-354 -147t-324 126q-108 127 -108 337zM536 852q-134 0 -195 -104
q-62 -104 -62 -268q0 -162 80 -290q81 -127 215 -127q134 1 195 105q62 104 62 267t-80 290q-81 127 -215 127z" />
    <glyph glyph-name="oacute" unicode="&#xf3;" horiz-adv-x="1110" 
d="M727 1388q0 -10 -6 -16q-201 -268 -215 -282t-27 -11q-8 5 -20 17q-13 12 -17 16t-1 12t55 136t53 137q6 14 29 16l141 -16q8 1 8 -9zM94 437q0 209 136 357t354 148t324 -127q108 -127 108 -337t-136 -357t-354 -147t-324 126q-108 127 -108 337zM536 852
q-134 0 -195 -104q-62 -104 -62 -268q0 -162 80 -290q81 -127 215 -127q134 1 195 105q62 104 62 267t-80 290q-81 127 -215 127z" />
    <glyph glyph-name="ocircumflex" unicode="&#xf4;" horiz-adv-x="1110" 
d="M565 1413l62 17l14 -9q33 -75 90 -183t74 -130q10 -20 0 -25q-10 -10 -45 -20t-51 2q-31 33 -119 190q-8 18 -19 2l-104 -174q-18 -31 -72 -30q-35 0 -20 20q18 17 91 155t81 158t18 27zM94 437q0 209 136 357t354 148t324 -127q108 -127 108 -337t-136 -357t-354 -147
t-324 126q-108 127 -108 337zM536 852q-134 0 -195 -104q-62 -104 -62 -268q0 -162 80 -290q81 -127 215 -127q134 1 195 105q62 104 62 267t-80 290q-81 127 -215 127z" />
    <glyph glyph-name="otilde" unicode="&#xf5;" horiz-adv-x="1110" 
d="M505 1321q39 0 109 -28t111 -27q78 0 154 75q16 14 16 -14q0 -12 -7 -38t-61 -68q-90 -66 -159 -66q-37 0 -108 26q-72 25 -116 25t-125 -67q-13 -13 -20 2v4q0 39 10 55q25 41 91 81t105 40zM94 437q0 209 136 357t354 148t324 -127q108 -127 108 -337t-136 -357
t-354 -147t-324 126q-108 127 -108 337zM536 852q-134 0 -195 -104q-62 -104 -62 -268q0 -162 80 -290q81 -127 215 -127q134 1 195 105q62 104 62 267t-80 290q-81 127 -215 127z" />
    <glyph glyph-name="odieresis" unicode="&#xf6;" horiz-adv-x="1110" 
d="M802 1151q-46 1 -73 33t-27 73q0 82 103 89q45 10 76 -23t20 -68q-2 -41 -28 -73q-25 -32 -71 -31zM289 1259q0 79 104 87q45 10 74 -21t22 -70q-2 -37 -28 -71q-27 -33 -73 -33t-79 39q-20 30 -20 69zM94 437q0 209 136 357t354 148t324 -127q108 -127 108 -337
t-136 -357t-354 -147t-324 126q-108 127 -108 337zM536 852q-134 0 -195 -104q-62 -104 -62 -268q0 -162 80 -290q81 -127 215 -127q134 1 195 105q62 104 62 267t-80 290q-81 127 -215 127z" />
    <glyph glyph-name="divide" unicode="&#xf7;" 
d="M542 690q-60 0 -85 33q-11 12 -16 53q-5 42 -2 60t21 44t68 29q80 8 113 -30q16 -23 13 -83q-4 -60 -28 -84q-24 -22 -84 -22zM457 150q-11 12 -16 53t-2 59t21 44t84 32q64 6 97 -33q16 -23 13 -83q-4 -60 -28 -83t-84 -23t-85 34zM1008 567q0 -20 -6 -58t-11 -40
q-12 -2 -426 -3t-436 1l-6 14q8 59 18 92q3 7 12 8t391 2t453 -1q10 0 11 -9v-6z" />
    <glyph glyph-name="oslash" unicode="&#xf8;" horiz-adv-x="1064" 
d="M526 63q128 1 190 105t62 246q1 88 -22 174q-203 -197 -437 -416q80 -109 207 -109zM477 852q-127 0 -189 -104t-63 -252q0 -146 58 -265q143 135 446 433q-82 188 -252 188zM41 436q0 210 136 358t355 148t334 -141l135 137q8 8 21 2l49 -29q10 -6 -2 -18l-160 -160
q53 -104 54 -254q-1 -211 -137 -358t-351 -148q-172 0 -280 82q-57 -57 -109 -96q-8 -6 -20 0l-39 18q-12 6 -2 17l120 108q-104 123 -104 334z" />
    <glyph glyph-name="ugrave" unicode="&#xf9;" horiz-adv-x="1183" 
d="M371 1362q-16 18 1 25t150 24q23 2 25 -4q15 -46 56 -161q41 -114 43 -122q4 -12 -38 -45q-12 -4 -20 6q-31 29 -217 277zM823 590q0 66 -4 164q-4 43 -16 58t-43 15h-76q-10 0 -10 9v45q0 14 10 16l66 12q68 11 127 21t61 10l20 -6l41 -45v-735q1 -40 11 -56t47 -16h39
q12 0 12 -8v-43q0 -14 -10 -17q-204 -32 -213 -41l-21 7l-41 43v106l-18 -18q-141 -141 -291 -144q-109 0 -206 72t-97 190v361q0 16 -6 164q-3 43 -15 58t-43 15h-75q-10 0 -11 9v45q0 14 11 16l67 12q66 11 125 21t62 10l20 -6l41 -45v-576q0 -219 193 -219q76 0 156 56
t87 114v326z" />
    <glyph glyph-name="uacute" unicode="&#xfa;" horiz-adv-x="1183" 
d="M786 1386q0 -10 -6 -16q-201 -268 -215 -282t-26 -11q-43 31 -38 43q4 12 56 142q53 130 55 139q2 8 25 10l141 -16q8 1 8 -9zM823 590q0 66 -4 164q-4 43 -16 58t-43 15h-76q-10 0 -10 9v45q0 14 10 16l66 12q68 11 127 21t61 10l20 -6l41 -45v-735q1 -40 11 -56t47 -16
h39q12 0 12 -8v-43q0 -14 -10 -17q-204 -32 -213 -41l-21 7l-41 43v106l-18 -18q-141 -141 -291 -144q-109 0 -206 72t-97 190v361q0 16 -6 164q-3 43 -15 58t-43 15h-75q-10 0 -11 9v45q0 14 11 16l67 12q66 11 125 21t62 10l20 -6l41 -45v-576q0 -219 193 -219
q76 0 156 56t87 114v326z" />
    <glyph glyph-name="ucircumflex" unicode="&#xfb;" horiz-adv-x="1183" 
d="M373 1063q-35 0 -21 20q18 17 91 155t81 159t19 26l61 17l14 -8q32 -76 90 -184t74 -130q10 -20 0 -24q-10 -10 -44 -20t-52 1q-31 33 -119 191q-8 18 -18 2l-105 -174q-18 -31 -71 -31zM823 590q0 66 -4 164q-4 43 -16 58t-43 15h-76q-10 0 -10 9v45q0 14 10 16l66 12
q68 11 127 21t61 10l20 -6l41 -45v-735q1 -40 11 -56t47 -16h39q12 0 12 -8v-43q0 -14 -10 -17q-204 -32 -213 -41l-21 7l-41 43v106l-18 -18q-141 -141 -291 -144q-109 0 -206 72t-97 190v361q0 16 -6 164q-3 43 -15 58t-43 15h-75q-10 0 -11 9v45q0 14 11 16l67 12
q66 11 125 21t62 10l20 -6l41 -45v-576q0 -219 193 -219q76 0 156 56t87 114v326z" />
    <glyph glyph-name="udieresis" unicode="&#xfc;" horiz-adv-x="1183" 
d="M664 1251q0 82 102 88q45 9 76 -23t20 -67q-2 -41 -28 -73t-71 -31q-47 1 -73 33t-26 73zM250 1253q0 80 104 86q45 9 74 -21t25 -68t-31 -72t-73 -33q-46 0 -79 39q-20 30 -20 69zM823 590q0 66 -4 164q-4 43 -16 58t-43 15h-76q-10 0 -10 9v45q0 14 10 16l66 12
q68 11 127 21t61 10l20 -6l41 -45v-735q1 -40 11 -56t47 -16h39q12 0 12 -8v-43q0 -14 -10 -17q-204 -32 -213 -41l-21 7l-41 43v106l-18 -18q-141 -141 -291 -144q-109 0 -206 72t-97 190v361q0 16 -6 164q-3 43 -15 58t-43 15h-75q-10 0 -11 9v45q0 14 11 16l67 12
q66 11 125 21t62 10l20 -6l41 -45v-576q0 -219 193 -219q76 0 156 56t87 114v326z" />
    <glyph glyph-name="yacute" unicode="&#xfd;" horiz-adv-x="1007" 
d="M686 1388q0 -10 -6 -16q-201 -268 -215 -282t-27 -11q-8 5 -20 17l-16 16t-2 12q4 8 56 136t52 137q6 14 29 16l141 -16q8 1 8 -9zM997 848h-59q-70 0 -94 -62l-438 -1095q-31 -76 -54 -115t-80 -104q-25 -25 -41 -25l-159 4l-6 6q-4 29 -5 97q0 6 9 6q148 10 168 15
t32 30l156 383q-39 127 -172 469t-145 354q-20 37 -70 37h-70q-20 0 -20 74q384 -10 491 0q0 -74 -22 -74h-74q-43 0 -43 -27q1 -6 67 -177t156 -419l226 561q10 25 -2 43t-39 19h-66q-20 0 -20 74l206 -7q113 0 189 7q0 -74 -21 -74z" />
    <glyph glyph-name="ydieresis" unicode="&#xff;" horiz-adv-x="1007" 
d="M598 1249q0 82 102 88q45 9 76 -23t21 -67q-2 -41 -28 -73t-72 -31q-47 1 -73 33t-26 73zM184 1251q0 80 105 86q45 9 73 -21t25 -68q-4 -38 -31 -72t-73 -33q-46 0 -78 39q-21 30 -21 69zM997 848h-59q-70 0 -94 -62l-438 -1095q-31 -76 -54 -115t-80 -104
q-25 -25 -41 -25l-159 4l-6 6q-4 29 -5 97q0 6 9 6q148 10 168 15t32 30l156 383q-39 127 -172 469t-145 354q-20 37 -70 37h-70q-20 0 -20 74q384 -10 491 0q0 -74 -22 -74h-74q-43 0 -43 -27q1 -6 67 -177t156 -419l226 561q10 25 -2 43t-39 19h-66q-20 0 -20 74l206 -7
q113 0 189 7q0 -74 -21 -74z" />
    <glyph glyph-name="dotlessi" unicode="&#x131;" horiz-adv-x="641" 
d="M96 68h99q31 -2 30 38q8 111 8 205v465q0 49 -57 49h-82q-10 0 -10 9v45q0 14 10 16l66 10q68 13 127 23t61 10l21 -6l41 -45v-576l10 -205q0 -16 7 -26t15 -10l7 -2h96q20 0 20 -74q-150 6 -250 6l-239 -6q0 74 20 74z" />
    <glyph glyph-name="OE" unicode="&#x152;" horiz-adv-x="2158" 
d="M1034 1092q0 108 -11 138t-30 40q-123 63 -243 63q-211 -1 -330 -155t-119 -387q1 -363 163 -541t410 -178q141 0 154 67q6 31 8 117l-2 70v766zM1632 0h-483q-85 0 -109 -6t-28 -6l-25 -6q-86 -20 -182 -21q-187 0 -335 67q-148 66 -232 178q-170 226 -170 527t206 509
q207 208 553 208q81 0 149 -15t118 -18h718l37 -39q6 -4 6 -20l-10 -215q0 -8 -10 -8l-82 -5q-8 0 -8 9q-2 94 -28 137t-109 43h-322q-53 0 -57 -55v-486q4 -6 14 -6h320q127 0 127 82l8 64q2 16 28 22t52 -10q-16 -104 -16 -190t3 -236q-29 -14 -53 -6t-22 30v54
q0 44 -39 68t-88 24h-320q-10 0 -14 -8v-512q12 -57 65 -58h371q53 0 89 23q74 47 108 209q4 10 14 7t72 -24q10 -4 10 -14q-33 -201 -49 -272q-6 -16 -29 -19q-78 -6 -248 -6z" />
    <glyph glyph-name="oe" unicode="&#x153;" horiz-adv-x="1724" 
d="M1229 858q-225 0 -246 -301l447 39q0 100 -52 181t-149 81zM485 852q-133 0 -195 -104t-63 -268q0 -162 81 -290t214 -127q134 1 196 105t62 267t-81 290t-214 127zM1247 -27q-270 0 -379 195q-142 -195 -376 -195t-342 127t-107 337q0 209 136 357t351 148
q260 0 369 -188q63 88 159 138t204 50q348 0 348 -428l-629 -31q2 -178 84 -284q82 -107 238 -107t258 78q49 -45 30 -64q-133 -133 -344 -133z" />
    <glyph glyph-name="Scaron" unicode="&#x160;" horiz-adv-x="1056" 
d="M723 1868q35 0 20 -21q-18 -18 -91 -155t-79 -156q-12 -23 -17 -26t-18 -7q-14 -4 -26 -8t-20 -4l-15 8q-33 75 -90 183t-74 130q-10 20 0 25q10 11 45 21t52 -3q31 -33 118 -190q8 -18 16 -5t29 49q20 36 48 78q27 42 30 50q18 31 72 31zM892 1118h-79q-8 0 -8 8
q-2 49 -19 105q-16 56 -25 67t-13 16q-30 38 -92 51t-107 13q-104 0 -174 -58t-70 -163t37 -173t172 -144q43 -25 135 -73t130 -73q38 -24 90 -72q53 -48 73 -108t21 -141q0 -195 -150 -305t-364 -109q-143 0 -324 68q-6 8 -7 16t-19 124q-17 116 -17 127t8 13l78 23
q8 2 12 -6q6 -18 14 -45q24 -85 50 -124q27 -39 70 -63q88 -49 205 -49q116 0 188 73t71 189q0 156 -297 313q-356 193 -356 422q0 196 128 304t329 108l64 -2l116 -12h8l4 -2l94 -15l37 -39l6 -26l-12 -230q0 -8 -7 -8z" />
    <glyph glyph-name="scaron" unicode="&#x161;" horiz-adv-x="768" 
d="M580 1434q35 0 20 -21q-18 -17 -91 -155t-82 -158t-17 -27l-62 -16l-14 8q-33 75 -90 183t-74 130q-10 20 0 25q10 10 45 20t51 -2q31 -33 119 -190q8 -18 18 -2l105 174q18 31 72 31zM614 629h-49q-8 0 -8 8q-11 163 -40 186q-9 8 -34 23q-131 53 -205 -17
q-42 -39 -42 -95t26 -92t123 -89q213 -106 257 -168t44 -131q0 -141 -108 -212t-263 -71q-98 0 -223 43q-16 6 -16 29l-4 223q0 6 6 6l59 9q8 2 10 -7q18 -92 41 -134q50 -91 181 -91q152 0 151 144q0 111 -201 200q-237 107 -237 271q0 132 95 204t245 72l88 -6l4 -2
l94 -14l51 -54q8 -8 5 -26l-31 -203q0 -6 -19 -6z" />
    <glyph glyph-name="Ydieresis" unicode="&#x178;" horiz-adv-x="1286" 
d="M931 1487q-46 1 -73 33t-27 73q0 82 103 88q45 9 76 -23t20 -67q-2 -41 -28 -73t-71 -31zM418 1595q0 80 104 86q45 9 74 -21t22 -69q-2 -37 -28 -71q-27 -33 -73 -33t-79 39q-20 30 -20 69zM98 1341h-98q-20 0 -20 82q234 -6 340 -6t219 6q0 -82 -21 -82h-80
q-23 0 -22 -18q0 -12 10 -37q125 -279 297 -579q78 121 182 317t127 262q14 29 -4 42t-53 13h-98q-20 0 -21 82q234 -6 322 -6t200 6q0 -82 -20 -82h-80q-53 0 -100 -56q-80 -95 -224 -353q-145 -258 -176 -309q-8 -23 -8 -192t6 -241q10 -115 82 -114h96q20 0 21 -82
q-115 6 -249 6t-368 -6q0 82 21 82h104q33 0 61 30t27 84l4 316q0 78 -20 119l-29 55q-242 479 -336 606q-37 55 -92 55z" />
    <glyph glyph-name="Zcaron" unicode="&#x17d;" horiz-adv-x="1245" 
d="M817 1864q35 0 21 -21q-18 -18 -92 -155t-78 -156q-12 -23 -18 -26t-18 -7q-14 -4 -26 -8t-20 -4l-15 8q-33 75 -90 183t-73 130q-10 20 0 25q10 11 44 21t52 -3q31 -33 119 -190q8 -18 18 -2l104 174q18 31 72 31zM369 1313q-86 0 -120 -38t-54 -142q-2 -8 -9 -9l-82 4
q-10 0 -10 9l27 221l6 20l37 39h774l186 2l56 -53q-49 -92 -432 -671t-385 -587q-3 -8 1 -9l8 -2q3 -1 11 -1h12q23 -2 256 -2h289q90 0 125 43t72 166q2 8 8 8l80 -22q10 -2 10 -13l-31 -221q-10 -59 -53 -59h-211l-788 8l-56 53q747 1084 828 1239q10 16 -2 17h-553z" />
    <glyph glyph-name="zcaron" unicode="&#x17e;" horiz-adv-x="876" 
d="M633 1434q35 0 20 -21q-18 -17 -91 -155t-82 -158t-17 -27l-62 -16l-14 8q-33 75 -90 183t-74 130q-10 20 0 25q10 10 45 20t51 -2q31 -33 119 -190q8 -18 19 -2l104 174q18 31 72 31zM436 78h158q47 6 68 41q20 35 55 153q4 16 82 -6q6 -2 6 -10l-35 -236
q-4 -19 -20 -24h-5l-102 2q-434 2 -545 2l-35 37q389 590 486 780q6 16 -2 17h-256q-66 -2 -86 -26t-55 -138q-2 -9 -37 -1q-35 7 -43 8t-9 7l35 211q4 20 19 23l6 2l160 -5l114 3h344l37 -37q-121 -221 -463 -779q-6 -14 2 -18q12 -6 121 -6z" />
    <glyph glyph-name="circumflex" unicode="&#x2c6;" horiz-adv-x="931" 
d="M309 1071q-35 0 -20 21q18 18 91 155t81 158t18 27l62 16l14 -8q33 -76 90 -184t74 -130q10 -20 0 -24q-10 -10 -45 -20t-51 1q-31 33 -119 191q-8 18 -16 5t-29 -49q-20 -36 -47 -78t-31 -50q-18 -31 -72 -31z" />
    <glyph glyph-name="caron" unicode="&#x2c7;" horiz-adv-x="593" 
d="M227 1055q-33 75 -90 183t-74 130q-10 20 0 25q10 10 45 20t52 -2q31 -33 119 -190q8 -18 18 -2l104 174q18 31 72 30q35 0 21 -20q-18 -17 -92 -155t-78 -156q-12 -23 -18 -26t-18 -7q-14 -4 -26 -8t-20 -4z" />
    <glyph glyph-name="dotaccent" unicode="&#x2d9;" horiz-adv-x="604" 
d="M205 1258q1 44 25 67t81 27t82 -25q27 -25 24 -72t-28 -79t-78 -31q-53 0 -86 39q-20 30 -20 74z" />
    <glyph glyph-name="ring" unicode="&#x2da;" horiz-adv-x="493" 
d="M254 1362q-100 0 -100 -80q0 -35 30 -55q30 -21 72 -21q41 0 70 22t28 52q0 82 -100 82zM253 1438q79 0 122 -43t43 -111t-47 -110t-111 -44q-64 0 -119 37q-53 37 -53 111t43 117t122 43z" />
    <glyph glyph-name="tilde" unicode="&#x2dc;" horiz-adv-x="1005" 
d="M486 1321q40 0 110 -28t111 -27q78 0 153 75q16 14 17 -14q1 -12 -7 -38t-61 -68q-90 -66 -160 -66q-37 0 -107 26q-70 25 -116 25q-45 0 -125 -67q-8 -8 -13 -5t-5 7l-2 4q0 39 10 55q25 41 91 81q64 40 104 40z" />
    <glyph glyph-name="hungarumlaut" unicode="&#x2dd;" horiz-adv-x="819" 
d="M680 1388q0 -10 -4 -14q-5 -5 -105 -144t-113 -153t-26 -10q-43 32 -37 49q14 29 61 154q46 125 48 133t26 10l142 -16q8 1 8 -9zM414 1388q0 -10 -5 -15t-95 -143t-101 -150q-12 -12 -25 -7q-42 31 -37 42t46 147l39 135q5 14 28 16l142 -16q8 1 8 -9z" />
    <glyph glyph-name="endash" unicode="&#x2013;" horiz-adv-x="1060" 
d="M963 567q1 -20 -5 -58t-12 -40q-12 -2 -426 -3t-436 1l-6 14q13 99 26 100q12 1 394 2t454 -1q10 0 11 -9v-6z" />
    <glyph glyph-name="emdash" unicode="&#x2014;" horiz-adv-x="2086" 
d="M1966 573v-6q0 -20 -5 -58t-11 -40q-12 -2 -928 -3t-938 1l-6 14q13 99 26 100q12 1 896 2t956 -1q10 0 10 -9z" />
    <glyph glyph-name="quoteleft" unicode="&#x2018;" horiz-adv-x="444" 
d="M315 1440q11 0 29 -12t18 -22q0 -9 -18 -17q-78 -37 -123 -89t-45 -102q0 -51 59 -91t61 -45t3 -9q-6 -37 -117 -111q-30 -18 -53 0q-45 37 -68 73q-23 37 -23 101t22 116t103 123t148 85h4z" />
    <glyph glyph-name="quoteright" unicode="&#x2019;" horiz-adv-x="419" 
d="M111 942q-12 0 -30 12q-17 12 -18 23q1 9 49 31t93 73t45 103t-59 91q-59 40 -61 45t-3 9q6 37 117 111q30 18 53 0q45 -37 68 -73q23 -37 23 -101t-22 -116t-102 -122t-149 -86h-4z" />
    <glyph glyph-name="quotesinglbase" unicode="&#x201a;" horiz-adv-x="567" 
d="M307 -46q0 60 -43 120t-52 80q-9 18 2 35t59 63t79 66t51 -9q53 -72 53 -220t-79 -258q-49 -67 -128 -114t-124 -59q-11 -2 -29 10t-21 20t17 21q119 76 167 131q48 54 48 114z" />
    <glyph glyph-name="quotedblleft" unicode="&#x201c;" horiz-adv-x="714" 
d="M362 1116q0 64 22 116t104 123t147 85h4q11 0 29 -12t18 -22q0 -9 -18 -17q-78 -37 -123 -89t-45 -102q0 -51 59 -91t61 -45t3 -9q-6 -37 -117 -111q-30 -18 -53 0q-45 37 -68 73q-23 37 -23 101zM20 1116q0 64 22 116t104 123t147 85h4q11 0 29 -12t18 -22q0 -9 -18 -17
q-78 -37 -123 -89t-45 -102q0 -51 59 -91t61 -45t3 -9q-6 -37 -117 -111q-30 -18 -53 0q-45 37 -68 73q-23 37 -23 101z" />
    <glyph glyph-name="quotedblright" unicode="&#x201d;" horiz-adv-x="757" 
d="M68 942q-12 0 -30 12q-17 12 -18 23q0 9 48 31t94 73q45 51 45 103t-59 91q-60 40 -62 45t-2 9q6 37 117 111q30 18 53 0q45 -37 68 -73q22 -37 22 -101t-22 -116t-101 -122q-80 -70 -149 -86h-4zM410 942q-12 0 -30 12q-17 12 -18 23q0 9 48 31t94 73q45 51 45 103
t-59 91q-60 40 -62 45t-2 9q6 37 117 111q30 18 53 0q45 -37 68 -73q22 -37 22 -101t-22 -116t-101 -122q-80 -70 -149 -86h-4z" />
    <glyph glyph-name="quotedblbase" unicode="&#x201e;" horiz-adv-x="950" 
d="M618 -283q-78 -47 -124 -59q-10 -2 -28 10t-22 20t17 21q119 76 167 131q48 54 48 114t-43 120t-52 80q-9 18 2 35t59 63t79 66t51 -9q53 -72 53 -221q0 -246 -207 -371zM307 -46q0 60 -43 120t-52 80q-9 18 2 35t59 63t79 66t51 -9q53 -72 53 -220t-79 -258
q-49 -67 -128 -114t-124 -59q-11 -2 -29 10t-21 20t17 21q119 76 167 131q48 54 48 114z" />
    <glyph glyph-name="bullet" unicode="&#x2022;" horiz-adv-x="686" 
d="M336 678q94 0 158 -58t64 -168t-63 -172q-61 -62 -165 -62t-166 62t-62 164t70 168t164 66z" />
    <glyph glyph-name="ellipsis" unicode="&#x2026;" horiz-adv-x="1720" 
d="M1343 20q-10 13 -15 54t-2 59q4 18 22 44t82 32t98 -33q16 -23 13 -83t-27 -83q-24 -22 -86 -22q-60 0 -85 32zM729 20q-10 13 -15 54t-2 59t21 44t83 32t97 -33q16 -23 15 -94q-4 -49 -29 -72q-25 -22 -85 -22t-85 32zM115 20q-11 13 -16 54t-2 59t21 44t84 32
q64 6 97 -33q16 -23 13 -83q-4 -60 -28 -83q-24 -22 -84 -22t-85 32z" />
    <glyph glyph-name="guilsinglleft" unicode="&#x2039;" horiz-adv-x="860" 
d="M692 819q0 -57 -8 -73t-12 -17q-141 -121 -369 -266q-10 -6 0 -12q188 -121 406 -281q12 -10 -35 -86q-6 -10 -10 -4q-37 43 -252 173t-316 169q-10 6 -7 30t20 29q109 45 293 161t278 185q12 8 12 -8z" />
    <glyph glyph-name="guilsinglright" unicode="&#x203a;" horiz-adv-x="860" 
d="M109 819q0 16 12 8q92 -69 277 -185t294 -161q16 -5 20 -29t-7 -30q-99 -39 -315 -169t-253 -173q-4 -6 -10 4q-47 76 -35 86q217 160 406 281q10 6 0 12q-228 145 -369 266q-4 1 -12 17t-8 73z" />
    <glyph glyph-name="fraction" unicode="&#x2044;" horiz-adv-x="880" 
d="M745 1489q11 18 97 -64q4 -5 -20 -65t-182 -474q-428 -1130 -466 -1158q-38 -27 -76 -34t-43 -3q-3 4 21 56t95 227t164 418t153 405q60 163 156 419t101 273z" />
    <glyph glyph-name="Euro" unicode="&#x20ac;" horiz-adv-x="1046" 
d="M-63 758q-13 0 14 82q0 2 12 1t80 -1q28 212 147 379q60 82 152 129t207 47q72 0 242 -47l26 -11l41 -41q8 -4 8 -58t-14 -155q-2 -8 -12 -8h-64q-14 0 -14 8q-2 20 -22 80t-84 108q-66 48 -156 48q-115 0 -196 -136t-93 -343h418q4 -2 4 -11q1 -9 -11 -39t-14 -32h-399
q0 -80 4 -119h395q2 -1 2 -17t-9 -42t-13 -27h-367q27 -221 114 -358t245 -138q120 -1 164 53t79 195q3 10 19 6t47 -14q10 -6 10 -14q-23 -172 -45 -238q-2 -6 -29 -18q-123 -53 -239 -54q-268 1 -396 149t-149 431h-123q-2 1 -2 17t14 65q4 6 18 5t87 -1v119h-98z" />
    <glyph glyph-name="trademark" unicode="&#x2122;" horiz-adv-x="1005" 
d="M590 1047h24q6 0 7 -23l-84 2l-80 -2q0 23 6 23h26q21 0 27 19q12 37 12 243l2 69q0 16 -26 17h-27q-6 0 -6 22l78 -2h35l139 -305q30 66 61 133t50 109l18 41l12 24h103q0 -23 -4 -22h-29q-23 0 -23 -15l9 -319q0 -14 20 -14h27q6 0 6 -23l-84 2l-80 -2q0 23 6 23h27
q20 0 20 14q2 25 -4 272l-141 -307h-10l-152 328l-2 -180q0 -78 4 -103q0 -24 33 -24zM154 1047h32q27 0 27 14v325q0 2 -2 3h-80q-39 0 -45 -56q0 -2 -4 -2h-21v4l2 70l11 10h329l13 -10v-72q0 -2 -6 -2h-19v2q-8 33 -15 43t-26 13h-80q-6 0 -6 -3v-325q0 -14 27 -14h26
q8 0 9 -23q-23 2 -90 2l-84 -2q0 23 2 23z" />
    <glyph glyph-name="infinity" unicode="&#x221e;" horiz-adv-x="1640" 
d="M156 424q0 -88 62 -154t160 -66t173 70q76 70 180 256q6 10 0 21q-77 92 -145 133t-148 41q-118 0 -200 -83t-82 -218zM1136 213q130 1 202 69t71 184q0 116 -64 178q-65 62 -154 62t-127 -32q-38 -33 -54 -47q-37 -33 -146 -226q-8 -10 0 -20q142 -168 272 -168z
M1487 426q0 -148 -108 -252t-224 -102q-180 4 -350 258q-6 8 -10 0q-164 -260 -363 -260q-160 0 -262 102t-102 297q0 127 96 246t233 119l17 2q112 0 188 -57q86 -59 164 -167q8 -14 14 -2q84 125 164 173t176 48q170 0 268 -105t99 -300z" />
    <glyph glyph-name="integral" unicode="&#x222b;" horiz-adv-x="1024" 
d="M112 -160h54q8 0 8 -8l6 -70q6 -49 35 -66q29 -18 88 -18t97 42q63 70 63 190t-41 462t-41 621q0 369 225 514q133 97 227 99t132 -74l2 -23l-29 -190q0 -6 -20 -6h-54q-8 0 -8 8l-6 70q-6 49 -35 66t-83 17q-166 2 -181 -305q-2 -41 -2 -151t30 -444q29 -334 29 -496
t-45 -271t-176 -180q-117 -80 -188 -82q-96 0 -133 76l-3 23l29 190q0 6 20 6z" />
    <glyph glyph-name="notequal" unicode="&#x2260;" 
d="M137 322q-6 0 -6 18q10 80 27 119q4 6 20 3t336 -3l104 233h-483q-10 0 -4 42t29 89q0 4 22 2t494 -2l115 260q2 7 11 9t11 -2q49 -48 55 -58t2 -20l-86 -189h291q8 -8 4 -22q-30 -105 -41 -107l-313 -2l-107 -233h453q13 -6 -9 -70q-22 -63 -28 -65l-477 -2l-127 -281
q-12 -18 -58 40q-11 13 -16 18t40 98q45 94 59 125h-318z" />
    <glyph glyph-name="lessequal" unicode="&#x2264;" horiz-adv-x="1171" 
d="M301 70h776q8 -8 4 -22q-29 -103 -41 -107l-1001 -2q-10 0 -4 42t28 89q0 4 28 2t210 -2zM1044 1225q0 -70 -20 -148q0 -4 -14 -18q-64 -48 -715 -373q-9 -6 9 -17t371 -183t388 -205q6 -7 -13 -61q-20 -54 -32 -72t-23 -11q-74 55 -430 237t-522 251q-12 6 0 46t27 46
q885 461 960 520q14 8 14 -12z" />
    <glyph glyph-name="greaterequal" unicode="&#x2265;" 
d="M74 285q0 27 729 391q9 6 -9 17t-371 183t-388 205q-6 7 13 61q20 54 32 72t22 11q74 -55 430 -237t523 -251q12 -6 0 -46t-27 -46q-885 -461 -960 -520q-14 -6 -15 12q0 70 21 148zM297 70h776q8 -8 4 -22q-29 -103 -41 -107l-1001 -2q-10 0 -4 42t28 89q0 4 28 2
t210 -2z" />
    <glyph glyph-name="_0129" horiz-adv-x="0" 
 />
    </font>
</defs>
</svg>
