<?xml version="1.0" encoding="UTF-8" standalone="no"?>
<svg width="1440px" height="400px" viewBox="0 0 1440 400" version="1.1" xmlns="http://www.w3.org/2000/svg" xmlns:xlink="http://www.w3.org/1999/xlink" xmlns:sketch="http://www.bohemiancoding.com/sketch/ns">
    <title>Slice 1</title>
    <description>Created with Sketch (http://www.bohemiancoding.com/sketch)</description>
    <defs></defs>
    <g id="Page-1" stroke="none" stroke-width="1" fill="none" fill-rule="evenodd" sketch:type="MSPage">
        <g id="box-app" sketch:type="MSLayerGroup">
            <g id="Page-1" sketch:type="MSShapeGroup">
                <g id="box-app">
                    <g id="Page-1">
                        <g id="Artboard-1">
                            <path d="M0,400 L1440,400 L1440,0 L0,0 L0,400 Z" id="Rectangle-2" fill="#0091DD"></path>
                            <g id="Rectangle-1-copy-+-Rectangle-1-copy-+-Rectangle-1" transform="translate(594.000000, 125.000000)">
                                <path d="M0,111.5 C0,89.679956 17.68455,72 39.499548,72 L41.002245,72 C41.275575,41.578405 66.465772,17 97.5,17 C103.494794,17 109.271526,17.917108 114.692724,19.616284 C124.814329,10.555662 138.471986,5 153.5,5 C183.103996,5 207.3902,26.559232 209.80307,54.001207 C233.135675,54.187162 252,75.829568 252,102.5 C252,129.285812 232.972103,151 209.5,151 C208.839554,151 208.182627,150.982808 207.529559,150.948795 C206.857484,150.982795 206.180978,151 205.500452,151 L39.499548,151 C17.693692,151 0,133.315248 0,111.5 L0,111.5 L0,111.5 Z" id="Rectangle-1-copy" fill="#B5C6DF"></path>
                                <path d="M0,107.5 C0,85.679956 17.68455,68 39.499548,68 L41.002245,68 C41.275575,37.578405 66.465772,13 97.5,13 C103.494794,13 109.271526,13.917108 114.692724,15.616284 C124.814329,6.555662 138.471986,1 153.5,1 C183.103996,1 207.3902,22.559232 209.80307,50.001207 C233.135675,50.187162 252,71.829568 252,98.5 C252,125.285812 232.972103,147 209.5,147 C208.839554,147 208.182627,146.982808 207.529559,146.948795 C206.857484,146.982795 206.180978,147 205.500452,147 L39.499548,147 C17.693692,147 0,129.315248 0,107.5 L0,107.5 L0,107.5 Z" id="Rectangle-1-copy" fill="#FCFCFC"></path>
                                <path d="M0,106.5 C0,84.679956 17.68455,67 39.499548,67 L41.002245,67 C41.275575,36.578405 66.465772,12 97.5,12 C103.494794,12 109.271526,12.917108 114.692724,14.616284 C124.814329,5.555662 138.471986,0 153.5,0 C183.103996,0 207.3902,21.559232 209.80307,49.001207 C233.135675,49.187162 252,70.829568 252,97.5 C252,124.285812 232.972103,146 209.5,146 C208.839554,146 208.182627,145.982808 207.529559,145.948795 C206.857484,145.982795 206.180978,146 205.500452,146 L39.499548,146 C17.693692,146 0,128.315248 0,106.5 L0,106.5 L0,106.5 Z" id="Rectangle-1" fill="#F4F8FC"></path>
                            </g>
                        </g>
                    </g>
                </g>
            </g>
        </g>
    </g>
</svg>