<?xml version="1.0" encoding="UTF-8" standalone="no"?>
<svg width="1200px" height="400px" viewBox="0 0 1200 400" version="1.1" xmlns="http://www.w3.org/2000/svg" xmlns:xlink="http://www.w3.org/1999/xlink" xmlns:sketch="http://www.bohemiancoding.com/sketch/ns">
    <title>Slice 1</title>
    <description>Created with Sketch (http://www.bohemiancoding.com/sketch)</description>
    <defs></defs>
    <g id="Page-1" stroke="none" stroke-width="1" fill="none" fill-rule="evenodd" sketch:type="MSPage">
        <g id="branch-app-logo" sketch:type="MSLayerGroup" transform="translate(0.000000, -200.000000)">
            <g id="Large-icons" sketch:type="MSShapeGroup">
                <g id="Branch">
                    <path d="M0,200 L0,600 L1200,600 L1200,200 L0,200 L0,200 Z" id="Rectangle-99" fill="#FFDBCC"></path>
                    <g id="brance" transform="translate(561.000000, 338.000000)">
                        <path d="M48,84 C31.431457,84 18,70.568543 18,54 C18,53.913989 18.000362,53.828063 18.001084,53.742233 C18.000362,53.696963 18,53.651607 18,53.606166 L18,41.8 L8.897828,41.8 C3.97759,41.8 0,37.815334 0,32.9 C0,27.983585 3.983693,24 8.897828,24 L18,24 L18,8.393834 C18,3.761869 21.760808,0 26.4,0 C31.029752,0 34.8,3.758048 34.8,8.393834 L34.8,24 L46.102172,24 C46.327206,24 46.550267,24.008335 46.771067,24.024713 C47.17867,24.00829 47.588367,24 48,24 C64.568543,24 78,37.431457 78,54 C78,70.568543 64.568543,84 48,84 L48,84 Z M48.317057,66.81684 C55.772902,66.81684 61.817057,61.2204 61.817057,54.31684 C61.817057,47.413281 55.772902,41.81684 48.317057,41.81684 L34.817057,41.81684 L34.817057,54.31684 C34.817057,61.2204 40.861213,66.81684 48.317057,66.81684 L48.317057,66.81684 Z" id="Oval-46" fill="#FF4B00"></path>
                        <path d="M18,24 L18,41.8 L34.8,41.8 L34.8,24 L18,24 L18,24 Z" id="Rectangle-107" fill="#AF0000"></path>
                    </g>
                    <path d="M0,564 L0,600 L1200,600 L1200,564 L0,564 L0,564 Z" id="Rectangle-108" fill="#FF4B00"></path>
                </g>
            </g>
        </g>
    </g>
</svg>