<?xml version="1.0" encoding="UTF-8" standalone="no"?>
<svg width="1400px" height="600px" viewBox="0 0 1400 600" version="1.1" xmlns="http://www.w3.org/2000/svg" xmlns:xlink="http://www.w3.org/1999/xlink" xmlns:sketch="http://www.bohemiancoding.com/sketch/ns">
    <title>thenews</title>
    <description>Created with Sketch (http://www.bohemiancoding.com/sketch)</description>
    <defs>
        <path id="path-1" d="M120,63.6066632 L120,64.0870351 L119.996126,67.4496384 L119.996126,67.9300103 L119.996126,71.3003616 L119.996126,71.7729855 L119.984504,75.1549587 L119.984504,75.6082128 L119.96126,79.0250517 L119.953512,79.4240702 L119.899277,82.9300103 L119.779184,86.8930785 L119.75594,87.4083161 L119.577738,90.584969 L119.55062,90.9684917 L119.26782,94.1180269 L119.209711,94.6061467 L119.136105,95.2259814 L118.806818,97.503874 L118.640238,98.4529959 L118.361312,99.84375 L118.16374,100.707645 L117.745351,102.299845 L117.307593,103.698347 L116.687758,105.356405 L116.350723,106.14282 L115.901343,107.088068 L114.855372,108.943698 L114.142562,109.989669 L113.220558,111.159607 L112.046746,112.414773 L111.306818,113.096591 L110.404184,113.832645 L109.106405,114.746901 L108.192149,115.308626 L106.634814,116.126033 L105.306043,116.711002 L104.337552,117.082903 L103.895919,117.241736 L102.524535,117.679494 L100.916839,118.113378 L100.479081,118.217975 L99.7856405,118.372934 L97.7208161,118.771952 L96.6244835,118.942407 L95.15625,119.143853 L94.338843,119.240702 L92.7698864,119.403409 L90.8871384,119.558368 L88.9152893,119.682335 L87.1526343,119.767562 L85.0606921,119.845041 L83.4181302,119.887655 L82.8292872,119.903151 L81.206095,119.930269 L79.6293905,119.953512 L78.9165806,119.96126 L77.347624,119.972882 L75.8019112,119.984504 L75.0348657,119.984504 L73.4930269,119.992252 L71.958936,119.996126 L71.1725207,119.996126 L69.6384298,119.996126 L68.1082128,119.996126 L67.3140496,119.996126 L65.7838326,119.996126 L64.2536157,120 L63.4594525,120 L61.9292355,119.996126 L60.3990186,120 L59.6009814,120 L58.0707645,119.996126 L56.5405475,120 L55.7463843,120 L54.2161674,119.996126 L52.6859504,119.996126 L51.8917872,119.996126 L50.3615702,119.996126 L48.8274793,119.996126 L48.041064,119.996126 L46.5069731,119.992252 L44.9651343,119.984504 L44.1980888,119.984504 L42.652376,119.972882 L41.0834194,119.96126 L40.3706095,119.953512 L38.7977789,119.930269 L37.1707128,119.903151 L36.5818698,119.887655 L34.9393079,119.845041 L33.1960227,119.783058 L31.0847107,119.682335 L29.1942149,119.562242 L27.2301136,119.403409 L25.661157,119.240702 L24.84375,119.143853 L23.3755165,118.942407 L22.2791839,118.771952 L20.2182335,118.372934 L19.5209194,118.217975 L19.0831612,118.113378 L17.4754649,117.679494 L16.1040806,117.241736 L15.6624483,117.082903 L14.6939566,116.711002 L13.365186,116.126033 L11.8078512,115.308626 L10.893595,114.746901 L9.59581612,113.832645 L8.69318182,113.096591 L7.95325413,112.414773 L6.77944215,111.159607 L5.85743802,109.989669 L5.1446281,108.943698 L4.09865702,107.088068 L3.78873967,106.452738 L3.31224174,105.356405 L2.69240702,103.698347 L2.25464876,102.299845 L1.83626033,100.707645 L1.63868802,99.84375 L1.3597624,98.4529959 L1.19318182,97.503874 L0.863894628,95.2259814 L0.790289256,94.6061467 L0.732179752,94.1180269 L0.449380165,90.9684917 L0.422262397,90.584969 L0.244059917,87.4083161 L0.220816116,86.9356921 L0.104597107,83.208936 L0.0464876033,79.4240702 L0.0387396694,79.0250517 L0.0154958678,75.6082128 L0.0154958678,75.1549587 L0.00387396694,71.7729855 L0.00387396694,71.3003616 L0.00387396694,67.9300103 L0.00387396694,67.4496384 L0,64.0870351 L0,63.6066632 L0,60.240186 L0,59.759814 L0,56.3933368 L0,55.9129649 L0.00387396694,52.5503616 L0.00387396694,52.0699897 L0.00387396694,48.6996384 L0.00387396694,48.2270145 L0.0154958678,44.8450413 L0.0154958678,44.3917872 L0.0387396694,40.9749483 L0.0464876033,40.5759298 L0.10072314,37.0699897 L0.220816116,33.1069215 L0.244059917,32.5916839 L0.422262397,29.415031 L0.449380165,29.0315083 L0.732179752,25.8819731 L0.790289256,25.3938533 L0.863894628,24.7740186 L1.19318182,22.496126 L1.3597624,21.5470041 L1.63868802,20.15625 L1.83626033,19.2923554 L2.25464876,17.700155 L2.69240702,16.3016529 L3.31224174,14.643595 L3.64927686,13.8571798 L4.09865702,12.9119318 L5.1446281,11.0563017 L5.85743802,10.0103306 L6.77944215,8.84039256 L7.95325413,7.58522727 L8.69318182,6.90340909 L9.59581612,6.16735537 L10.893595,5.25309917 L11.8078512,4.69137397 L13.365186,3.87396694 L14.6939566,3.28899793 L15.6624483,2.91709711 L16.1040806,2.75826446 L17.4754649,2.3205062 L19.0831612,1.8866219 L19.5209194,1.78202479 L20.2182335,1.62706612 L22.2791839,1.22804752 L23.3755165,1.05759298 L24.84375,0.856146694 L25.661157,0.759297521 L27.2301136,0.596590909 L29.1128616,0.441632231 L31.0847107,0.317665289 L32.8473657,0.232438017 L34.9393079,0.154958678 L36.5818698,0.112345041 L37.1707128,0.0968491736 L38.7977789,0.069731405 L40.3706095,0.0464876033 L41.0834194,0.0387396694 L42.652376,0.0271177686 L44.1980888,0.0154958678 L44.9651343,0.0154958678 L46.5069731,0.00774793388 L48.041064,0.00387396694 L48.8274793,0.00387396694 L50.3615702,0.00387396694 L51.8917872,0.00387396694 L52.6859504,0.00387396694 L54.2161674,0.00387396694 L55.7463843,0 L56.5405475,0 L58.0707645,0.00387396694 L59.6009814,0 L60.3990186,0 L61.9292355,0.00387396694 L63.4594525,0 L64.2536157,0 L65.7838326,0.00387396694 L67.3140496,0.00387396694 L68.1082128,0.00387396694 L69.6384298,0.00387396694 L71.1725207,0.00387396694 L71.958936,0.00387396694 L73.4930269,0.00774793388 L75.0348657,0.0154958678 L75.8019112,0.0154958678 L77.347624,0.0271177686 L78.9165806,0.0387396694 L79.6293905,0.0464876033 L81.206095,0.069731405 L82.8292872,0.0968491736 L83.4181302,0.112345041 L85.0606921,0.154958678 L86.8039773,0.216942149 L88.9152893,0.317665289 L90.8057851,0.437758264 L92.7698864,0.596590909 L94.338843,0.759297521 L95.15625,0.856146694 L96.6244835,1.05759298 L97.7208161,1.22804752 L99.7856405,1.62706612 L100.479081,1.78202479 L100.916839,1.8866219 L102.524535,2.3205062 L103.895919,2.75826446 L104.337552,2.91709711 L105.306043,3.28899793 L106.634814,3.87396694 L108.192149,4.69137397 L109.106405,5.25309917 L110.404184,6.16735537 L111.306818,6.90340909 L112.046746,7.58522727 L113.220558,8.84039256 L114.142562,10.0103306 L114.855372,11.0563017 L115.901343,12.9119318 L116.21126,13.5472624 L116.687758,14.643595 L117.307593,16.3016529 L117.745351,17.700155 L118.16374,19.2923554 L118.361312,20.15625 L118.640238,21.5470041 L118.806818,22.496126 L119.136105,24.7740186 L119.209711,25.3938533 L119.26782,25.8819731 L119.55062,29.0315083 L119.577738,29.415031 L119.75594,32.5916839 L119.779184,33.0643079 L119.895403,36.791064 L119.953512,40.5759298 L119.96126,40.9749483 L119.984504,44.3917872 L119.984504,44.8450413 L119.996126,48.2270145 L119.996126,48.6996384 L119.996126,52.0699897 L119.996126,52.5503616 L120,55.9129649 L120,56.3933368 L120,59.759814 L120,63.6066632 Z"></path>
        <filter x="-50%" y="-50%" width="200%" height="200%" filterUnits="objectBoundingBox" id="filter-3">
            <feOffset dx="-1" dy="0" in="SourceAlpha" result="shadowOffsetOuter1"></feOffset>
            <feGaussianBlur stdDeviation="0" in="shadowOffsetOuter1" result="shadowBlurOuter1"></feGaussianBlur>
            <feColorMatrix values="0 0 0 0 0   0 0 0 0 0   0 0 0 0 0  0 0 0 0.7 0" in="shadowBlurOuter1" type="matrix" result="shadowMatrixOuter1"></feColorMatrix>
            <feMerge>
                <feMergeNode in="shadowMatrixOuter1"></feMergeNode>
                <feMergeNode in="SourceGraphic"></feMergeNode>
            </feMerge>
        </filter>
        <filter x="-50%" y="-50%" width="200%" height="200%" filterUnits="objectBoundingBox" id="filter-4">
            <feOffset dx="-1" dy="0" in="SourceAlpha" result="shadowOffsetOuter1"></feOffset>
            <feGaussianBlur stdDeviation="0" in="shadowOffsetOuter1" result="shadowBlurOuter1"></feGaussianBlur>
            <feColorMatrix values="0 0 0 0 0   0 0 0 0 0   0 0 0 0 0  0 0 0 0.7 0" in="shadowBlurOuter1" type="matrix" result="shadowMatrixOuter1"></feColorMatrix>
            <feMerge>
                <feMergeNode in="shadowMatrixOuter1"></feMergeNode>
                <feMergeNode in="SourceGraphic"></feMergeNode>
            </feMerge>
        </filter>
        <filter x="-50%" y="-50%" width="200%" height="200%" filterUnits="objectBoundingBox" id="filter-5">
            <feOffset dx="-1" dy="0" in="SourceAlpha" result="shadowOffsetOuter1"></feOffset>
            <feGaussianBlur stdDeviation="0" in="shadowOffsetOuter1" result="shadowBlurOuter1"></feGaussianBlur>
            <feColorMatrix values="0 0 0 0 0   0 0 0 0 0   0 0 0 0 0  0 0 0 0.7 0" in="shadowBlurOuter1" type="matrix" result="shadowMatrixOuter1"></feColorMatrix>
            <feMerge>
                <feMergeNode in="shadowMatrixOuter1"></feMergeNode>
                <feMergeNode in="SourceGraphic"></feMergeNode>
            </feMerge>
        </filter>
        <filter x="-50%" y="-50%" width="200%" height="200%" filterUnits="objectBoundingBox" id="filter-6">
            <feOffset dx="0" dy="1" in="SourceAlpha" result="shadowOffsetOuter1"></feOffset>
            <feGaussianBlur stdDeviation="0.5" in="shadowOffsetOuter1" result="shadowBlurOuter1"></feGaussianBlur>
            <feColorMatrix values="0 0 0 0 0   0 0 0 0 0   0 0 0 0 0  0 0 0 0.7 0" in="shadowBlurOuter1" type="matrix" result="shadowMatrixOuter1"></feColorMatrix>
            <feMerge>
                <feMergeNode in="shadowMatrixOuter1"></feMergeNode>
                <feMergeNode in="SourceGraphic"></feMergeNode>
            </feMerge>
        </filter>
    </defs>
    <g id="Page-1" stroke="none" stroke-width="1" fill="none" fill-rule="evenodd" sketch:type="MSPage">
        <g id="thenews" sketch:type="MSArtboardGroup">
            <rect id="Rectangle-1" fill="#5984D0" sketch:type="MSShapeGroup" x="0" y="0" width="1400" height="600"></rect>
            <g id="TheNEws" sketch:type="MSLayerGroup" transform="translate(640.000000, 240.000000)">
                <mask id="mask-2" sketch:name="Shape" fill="white">
                    <use xlink:href="#path-1"></use>
                </mask>
                <use id="Shape" fill="#67CAAC" sketch:type="MSShapeGroup" xlink:href="#path-1"></use>
                <g id="Rectangle-24-+-Rectangle-17-copy-+-Group" mask="url(#mask-2)" transform="translate(-28.000000, -5.000000)">
                    <g id="Rectangle-24-+-Rectangle-17-copy" sketch:type="MSShapeGroup">
                        <path d="M52,81.4986124 L52,117.002775 C52,121.419521 55.5907123,125 60,125 C64.418278,125 68,121.417496 68,117.002775 L68,114 L163,114 L163,28 L52,28 L52,81.4986124 Z" id="Rectangle-24" fill="#E6E6E6"></path>
                        <g>
                            <path d="M57,77.9974922 L57,121.005016 C57,123.211385 58.7953562,125 61,125 C63.209139,125 65,123.206679 65,121.005016 L65,111 L168,111 L168,38 L57,38 L57,77.9974922 Z" id="Rectangle-24" fill="#F0F0F0" filter="url(#filter-3)"></path>
                            <path d="M60,125 L171,125 L171,31 L63,31 L63,31 L63,121.007385 C63,122.866175 61.7252272,124.430489 60,124.874097 L60,125 Z" id="Rectangle-17-copy" fill="#FAFAFA" filter="url(#filter-4)"></path>
                        </g>
                        <path d="M60,125 L172,125 L172,25 L68,25 L68,116.998561 C68,121.408638 64.418278,125 60,125 L60,125 Z" id="Rectangle-17-copy" fill="#FFFFFF" filter="url(#filter-5)"></path>
                    </g>
                    <g id="Group" transform="translate(58.000000, 41.000000)">
                        <g id="Rectangle-24-+-Rectangle-17-copy"></g>
                        <g id="Line-3" transform="translate(31.000000, 49.000000)" sketch:type="MSShapeGroup">
                            <path d="M0,11 L74,11 L74,15 L0,15 L0,11 Z" id="Fill-1" fill="#E0E0E0"></path>
                            <path d="M0,0.04 L90,0.04 L90,8.04 L0,8.04 L0,0.04 Z" id="Fill-2" fill="#67CAB4"></path>
                        </g>
                        <g id="Line-2" transform="translate(31.000000, 26.000000)" sketch:type="MSShapeGroup">
                            <path d="M0,11 L74,11 L74,15 L0,15 L0,11 Z" id="Fill-1" fill="#E0E0E0"></path>
                            <path d="M0,0.04 L90,0.04 L90,8.04 L0,8.04 L0,0.04 Z" id="Fill-2" fill="#67CAB4"></path>
                        </g>
                        <g id="Line-1" transform="translate(31.000000, 3.000000)" sketch:type="MSShapeGroup">
                            <path d="M0,11 L74,11 L74,15 L0,15 L0,11 Z" id="Fill-1" fill="#E0E0E0"></path>
                            <path d="M0,0.04 L90,0.04 L90,8.04 L0,8.04 L0,0.04 Z" id="Fill-2" fill="#67CAB4"></path>
                        </g>
                    </g>
                </g>
            </g>
            <text id="TheNews" fill="#FFFFFF" filter="url(#filter-6)" sketch:type="MSTextLayer" font-family="Helvetica Neue" font-size="16" font-weight="260" line-spacing="24" letter-spacing="1">
                <tspan x="664" y="376" fill="#000000">TheNews</tspan>
            </text>
        </g>
    </g>
</svg>