<?xml version="1.0" encoding="UTF-8" standalone="no"?>
<svg width="1440px" height="400px" viewBox="0 0 1440 400" version="1.1" xmlns="http://www.w3.org/2000/svg" xmlns:xlink="http://www.w3.org/1999/xlink" xmlns:sketch="http://www.bohemiancoding.com/sketch/ns">
    <title>Slice 1</title>
    <description>Created with Sketch (http://www.bohemiancoding.com/sketch)</description>
    <defs></defs>
    <g id="Page-1" stroke="none" stroke-width="1" fill="none" fill-rule="evenodd" sketch:type="MSPage">
        <g id="tuch-logo" sketch:type="MSLayerGroup">
            <g id="Page-1" sketch:type="MSShapeGroup">
                <g id="tuch-logo">
                    <g id="Page-1">
                        <g id="Layer_1">
                            <path d="M0,400 L1440,400 L1440,0 L0,0 L0,400 L0,400 Z" id="Rectangle" fill="#D8655D"></path>
                            <g id="Shape-+-Shape" transform="translate(645.000000, 131.000000)" fill="#FFFFFF">
                                <path d="M-0.5,124.162 L-0.5,122.314 L12.098,122.314 L12.098,124.162 L6.821,124.162 L6.821,138.925 L4.754,138.925 L4.754,124.162 L-0.5,124.162 L-0.5,124.162 Z M17.324,132.479 L17.324,122.314 L19.391,122.314 L19.391,132.418 C19.391,133.958 19.792,135.17 20.596,136.054 C21.399,136.938 22.558,137.379 24.072,137.379 C25.586,137.379 26.751,136.94 27.567,136.06 C28.382,135.181 28.791,133.967 28.791,132.418 L28.791,122.314 L30.858,122.314 L30.858,132.455 C30.858,134.563 30.277,136.219 29.118,137.423 C27.957,138.627 26.278,139.229 24.079,139.229 C21.896,139.229 20.225,138.627 19.064,137.423 C17.903,136.219 17.324,134.571 17.324,132.479 L17.324,132.479 L17.324,132.479 Z M39.033,136.821 C37.4,135.216 36.583,133.152 36.583,130.632 C36.583,128.111 37.4,126.047 39.033,124.443 C40.667,122.838 42.696,122.035 45.119,122.035 C47.794,122.035 49.894,123.134 51.418,125.331 L49.703,126.304 C49.225,125.575 48.575,124.989 47.751,124.547 C46.928,124.105 46.051,123.884 45.119,123.884 C43.279,123.884 41.752,124.514 40.54,125.775 C39.328,127.036 38.722,128.655 38.722,130.633 C38.722,132.595 39.332,134.21 40.552,135.479 C41.772,136.748 43.294,137.381 45.118,137.381 C46.05,137.381 46.926,137.156 47.744,136.706 C48.563,136.257 49.215,135.675 49.702,134.962 L51.441,135.91 C49.836,138.123 47.728,139.229 45.118,139.229 C42.696,139.229 40.667,138.426 39.033,136.821 L39.033,136.821 L39.033,136.821 Z M56.583,138.925 L56.583,122.315 L58.65,122.315 L58.65,129.453 L68.354,129.453 L68.354,122.315 L70.421,122.315 L70.421,138.925 L68.354,138.925 L68.354,131.301 L58.65,131.301 L58.65,138.925 L56.583,138.925 L56.583,138.925 Z M76.804,132.479 L76.804,122.314 L78.871,122.314 L78.871,132.418 C78.871,133.958 79.272,135.17 80.076,136.054 C80.879,136.938 82.038,137.379 83.552,137.379 C85.066,137.379 86.231,136.94 87.047,136.06 C87.862,135.181 88.271,133.967 88.271,132.418 L88.271,122.314 L90.338,122.314 L90.338,132.455 C90.338,134.563 89.757,136.219 88.598,137.423 C87.437,138.627 85.758,139.229 83.558,139.229 C81.375,139.229 79.704,138.627 78.544,137.423 C77.383,136.219 76.804,134.571 76.804,132.479 L76.804,132.479 L76.804,132.479 Z M94.372,138.925 L101.072,122.315 L103.637,122.315 L110.313,138.925 L107.955,138.925 L106.483,135.24 L98.214,135.24 L96.742,138.925 L94.372,138.925 L94.372,138.925 Z M98.835,133.392 L102.349,124.43 L105.888,133.392 L98.835,133.392 L98.835,133.392 Z M114.969,138.925 L114.969,122.315 L117.084,122.315 L126.642,135.29 L126.642,122.315 L128.709,122.315 L128.709,138.925 L126.715,138.925 L117.035,125.67 L117.035,138.925 L114.969,138.925 L114.969,138.925 Z M136.873,136.846 C135.223,135.241 134.398,133.169 134.398,130.632 C134.398,128.094 135.218,126.028 136.86,124.43 C138.502,122.833 140.537,122.034 142.967,122.034 C145.614,122.034 147.769,123.063 149.426,125.121 L147.753,126.165 C147.219,125.469 146.523,124.914 145.67,124.502 C144.817,124.089 143.907,123.883 142.941,123.883 C141.098,123.883 139.57,124.515 138.357,125.778 C137.144,127.041 136.537,128.663 136.537,130.644 C136.537,132.61 137.148,134.228 138.369,135.498 C139.591,136.769 141.115,137.404 142.941,137.404 C143.857,137.404 144.714,137.225 145.509,136.867 C146.304,136.509 146.946,136.09 147.432,135.609 L147.432,132.224 L141.742,132.224 L141.742,130.375 L149.5,130.375 L149.5,136.378 C147.794,138.294 145.615,139.252 142.968,139.252 C140.553,139.253 138.522,138.45 136.873,136.846 L136.873,136.846 L136.873,136.846 Z" id="Shape"></path>
                                <path d="M51.688,14.467 L109.088,6.4 L109.062,20.857 L88.013,23.815 L87.91,78.886 L72.605,81.036 L72.707,25.966 L51.661,28.924 L51.688,14.467 L51.688,14.467 Z M60.934,30.846 L69.11,29.697 L68.899,78.898 L61.081,74.384 L60.934,30.846 L60.934,30.846 Z M105.777,4.489 L48.252,12.484 L48.254,26.958 L39.912,22.228 L39.938,7.786 L39.912,7.771 L97.564,-0.253 L105.777,4.489 L105.777,4.489 Z" id="Shape"></path>
                            </g>
                        </g>
                    </g>
                </g>
            </g>
        </g>
    </g>
</svg>