<?xml version="1.0" encoding="UTF-8" standalone="no"?>
<svg width="1440px" height="400px" viewBox="0 0 1440 400" version="1.1" xmlns="http://www.w3.org/2000/svg" xmlns:xlink="http://www.w3.org/1999/xlink" xmlns:sketch="http://www.bohemiancoding.com/sketch/ns">
    <title>Slice 1</title>
    <description>Created with Sketch (http://www.bohemiancoding.com/sketch)</description>
    <defs></defs>
    <g id="Page-1" stroke="none" stroke-width="1" fill="none" fill-rule="evenodd" sketch:type="MSPage">
        <g id="woc-logo" sketch:type="MSLayerGroup">
            <g id="Page-1" sketch:type="MSShapeGroup">
                <g id="woc-logo">
                    <g id="Page-1">
                        <g id="Feature-Image">
                            <rect id="Rectangle-1" fill="#383838" x="0" y="0" width="1440" height="400"></rect>
                            <g id="WOC-Logo" transform="translate(595.000000, 140.000000)" fill="#FFFFFF">
                                <g id="W-O-C">
                                    <path d="M85.3573047,1.25847458 L100.095131,1.25847458 L65.3886962,70.5966102 L50.4599657,42.5135593 L36.4475768,70.5966102 L9.32150792e-05,1.25847458 L16.3033359,1.25847458 L36.9973817,41.2322034 L43.4117723,28.8838983 L28.9412126,1.25847458 L45.2368191,1.25847458 L65.9385011,41.2322034 L85.3573047,1.25847458" id="Fill-1"></path>
                                    <path d="M98.0103605,35.3822034 C98.0103605,15.8033898 113.763798,0.0686440678 133.274237,0.0686440678 C152.868673,0.0686440678 168.62211,15.8033898 168.62211,35.3822034 C168.62211,54.7703389 152.868673,70.5966102 133.36587,70.5966102 C113.763798,70.5966102 98.0103605,54.7703389 98.0103605,35.3822034 L98.0103605,35.3822034 L98.0103605,35.3822034 Z M112.572555,35.3822034 C112.572555,47.4559322 121.644336,56.9669492 133.36587,56.9669492 C144.904137,56.9669492 154.067553,47.4559322 154.067553,35.3822034 C154.067553,23.209322 144.812504,13.5152543 133.274237,13.5152543 C121.644336,13.5152543 112.572555,23.209322 112.572555,35.3822034 L112.572555,35.3822034 L112.572555,35.3822034 Z M140.963869,35.3822034 C140.963869,39.4016949 137.947578,42.8796611 133.36587,42.8796611 C128.875797,42.8796611 125.760236,39.4016949 125.760236,35.3822034 C125.760236,31.0805085 128.875797,27.7855932 133.36587,27.7855932 C137.848308,27.7855932 140.963869,31.0805085 140.963869,35.3822034 L140.963869,35.3822034 L140.963869,35.3822034 Z" id="Fill-2"></path>
                                    <path d="M246.236236,39.3101695 C244.227921,56.7838983 229.19992,70.5966102 211.071631,70.5966102 C191.561193,70.5966102 175.991023,54.8618644 175.991023,35.3822034 C175.991023,15.8949152 191.561193,0.0686440678 210.979996,0.0686440678 C223.709507,0.0686440678 234.972872,6.65084746 241.104724,16.6271186 L230.024627,24.490678 C225.08402,17.1762712 218.119824,13.6067797 211.071631,13.6067797 C199.624998,13.6067797 190.553217,23.3008475 190.553217,35.3822034 C190.553217,47.3567797 199.624998,56.9669491 211.071631,56.9669491 C221.32702,56.9669491 229.94063,49.5533898 231.864947,39.3101695 L246.236236,39.3101695" id="Fill-3"></path>
                                </g>
                                <path d="M250.46668,119.745766 L250.46668,104.491529 L99.6923528,104.491529 L113.015453,119.745766 L250.46668,119.745766 L250.46668,119.745766 Z" id="Rectangle-1"></path>
                                <path d="M115.306214,66.4271181 L80.5888653,119.816949 L66.0198773,95.5206492 L51.0635115,119.816949 L16.0358832,66.4271181 L32.0772845,66.4271181 L51.0635115,94.4120727 L58.4444999,83.7288282 L47.2663606,66.4271181 L62.6876741,66.4271181 L80.5888653,94.4120727 L100.117611,66.4271181 L115.306214,66.4271181 L115.306214,66.4271181 Z" id="Fill-1" transform="translate(65.634686, 93.052118) scale(1, -1) translate(-65.634686, -93.052118) "></path>
                                <path d="M250.46668,96.1016948 L250.46668,80.8474575 L101.408311,80.8474575 L110.724693,96.1016948 L250.46668,96.1016948 L250.46668,96.1016948 Z" id="Rectangle-1"></path>
                            </g>
                        </g>
                    </g>
                </g>
            </g>
        </g>
    </g>
</svg>