<?xml version="1.0" encoding="UTF-8" standalone="no"?>
<svg width="400px" height="300px" viewBox="0 0 400 300" version="1.1" xmlns="http://www.w3.org/2000/svg" xmlns:xlink="http://www.w3.org/1999/xlink" xmlns:sketch="http://www.bohemiancoding.com/sketch/ns">
    <title>Slice 1</title>
    <description>Created with Sketch (http://www.bohemiancoding.com/sketch)</description>
    <defs>
        <path d="M121.25,91.5 L121.25,375.5 L281.25,375.5 L281.25,91.5 L121.25,91.5 Z M121.25,91.5" id="path-1" fill-rule="evenodd"></path>
        <mask id="mask-2">
            <use xlink:href="#path-1" fill="white"></use>
        </mask>
    </defs>
    <g id="Page 1" fill="#D8D8D8" fill-rule="evenodd">
        <g id="Artboard 1">
            <path d="M-42.5,-57 L-42.5,443 L457.5,443 L457.5,-57 L-42.5,-57 Z M-42.5,-57" id="Rectangle 14" stroke="rgb(132,132,132)" stroke-width="1" fill="#BC5B4C"></path>
            <g id="iPhone" fill="#E0E0E0">
                <path d="M106.508081,159.75 C105.951333,159.75 105.5,160.199949 105.5,160.756845 L105.5,172.743155 C105.5,173.29922 105.95352,173.75 106.508081,173.75 L111.741919,173.75 C112.298667,173.75 112.75,173.300051 112.75,172.743155 L112.75,160.756845 C112.75,160.20078 112.29648,159.75 111.741919,159.75 L106.508081,159.75 Z M106.508081,159.75" id="left-button3" fill="#D9D8D0"></path>
                <path d="M106.508081,127 C105.951333,127 105.5,127.449949 105.5,128.006845 L105.5,139.993155 C105.5,140.54922 105.95352,141 106.508081,141 L111.741919,141 C112.298667,141 112.75,140.550051 112.75,139.993155 L112.75,128.006845 C112.75,127.45078 112.29648,127 111.741919,127 L106.508081,127 Z M106.508081,127" id="left-button2" fill="#D9D8D0"></path>
                <path d="M106.508081,89.75 C105.951333,89.75 105.5,90.2001728 105.5,90.7410169 L105.5,106.258983 C105.5,106.806307 105.95352,107.25 106.508081,107.25 L111.741919,107.25 C112.298667,107.25 112.75,106.799827 112.75,106.258983 L112.75,90.7410169 C112.75,90.1936934 112.29648,89.75 111.741919,89.75 L106.508081,89.75 Z M106.508081,89.75" id="left-button1" fill="#D9D8D0"></path>
                <path d="M233.505625,33 C232.950234,33 232.5,33.4437166 232.5,33.9998075 L232.5,37.0001925 C232.5,37.5523709 232.946545,38 233.505625,38 L262.244375,38 C262.799766,38 263.25,37.5562834 263.25,37.0001925 L263.25,33.9998075 C263.25,33.4476291 262.803455,33 262.244375,33 L233.505625,33 Z M233.505625,33" id="top-button" fill="#D9D8D0"></path>
                <path d="M135.493652,35.25 C120.309327,35.25 108,47.5593523 108,62.7511427 L108,402.748857 C108,417.937319 120.308911,430.25 135.493652,430.25 L267.006348,430.25 C282.190673,430.25 294.5,417.940648 294.5,402.748857 L294.5,62.7511427 C294.5,47.562681 282.191089,35.25 267.006348,35.25 L135.493652,35.25 Z M135.493652,35.25" id="iphone" fill="#E9EAE4"></path>
                <path d="M121.259552,90 C120.42585,90 119.75,90.6775187 119.75,91.5097494 L119.75,375.490251 C119.75,376.324062 120.423916,377 121.259552,377 L281.240448,377 C282.07415,377 282.75,376.322481 282.75,375.490251 L282.75,91.5097494 C282.75,90.6759378 282.076084,90 281.240448,90 L121.259552,90 Z M121.259552,90" id="screen-border" fill-opacity="0.609346278" fill="#ABA99F"></path>
                <use id="screen" xlink:href="#path-1" fill="#C5C3BA"></use>
                <g id="Splash Screen!" fill="#D8D8D8" mask="url(#mask-2)">
                    <path d="M121.5,90 L121.5,390 L296.5,390 L296.5,90 L121.5,90 Z M121.5,90" id="screen" fill="#BC5B4C"></path>
                    <path d="M200.899391,267.910291 C201.093083,268.105 201.408978,268.103132 201.600811,267.910291 L219.627879,249.788531 L221.464167,247.942597 C221.717673,247.687759 222.129855,247.685071 222.382431,247.938974 L226.062216,251.638088 C226.313206,251.890396 226.313178,252.305271 226.058611,252.561175 L224.222323,254.407109 L201.601747,277.146507 C201.407538,277.341736 201.091139,277.340204 200.898455,277.146507 L178.277879,254.407109 L176.44159,252.561175 C176.188084,252.306337 176.18541,251.891991 176.437986,251.638088 L180.117771,247.938974 C180.368761,247.686665 180.781468,247.686693 181.036035,247.942597 L182.872323,249.788531 L200.899391,267.910291 Z M200.899391,267.910291" id="Rectangle 193" opacity="0.65" fill="#FFFEF6"></path>
                    <g id="Peck">
                        <path d="M150.122,179.184 C150.122,178.624 150.57,178.12 151.186,178.12 L163.954,178.12 C170.842,178.12 176.498,183.72 176.498,190.496 C176.498,197.44 170.842,203.096 164.01,203.096 L155.89,203.096 L155.89,216.256 C155.89,216.816 155.386,217.32 154.826,217.32 L151.186,217.32 C150.57,217.32 150.122,216.816 150.122,216.256 Z M155.89,197.608 L163.618,197.608 C167.482,197.608 170.73,194.472 170.73,190.44 C170.73,186.632 167.482,183.72 163.618,183.72 L155.89,183.72 Z M178.682,206.12 C178.682,199.792 183.162,194.36 189.882,194.36 C195.706,194.36 200.186,198.728 200.186,204.72 C200.186,205.112 200.13,205.84 200.074,206.232 C200.018,206.792 199.57,207.184 199.066,207.184 L183.834,207.184 C184.002,210.208 186.634,213.176 190.274,213.176 C192.29,213.176 194.138,212.28 195.258,211.552 C195.93,211.16 196.322,210.936 196.77,211.496 L198.338,213.624 C198.73,214.072 198.898,214.52 198.226,215.08 C196.602,216.48 193.69,217.88 189.938,217.88 C183.162,217.88 178.682,212.56 178.682,206.12 Z M184.114,203.656 L194.978,203.656 C194.81,200.968 192.57,198.672 189.826,198.672 C186.802,198.672 184.45,200.856 184.114,203.656 Z M203.882,206.176 C203.882,199.568 209.426,194.36 215.642,194.36 C219.058,194.36 221.69,195.76 223.762,198.336 C224.154,198.84 224.042,199.512 223.538,199.904 L221.69,201.584 C221.018,202.2 220.626,201.752 220.178,201.36 C219.17,200.24 217.546,199.232 215.698,199.232 C212.058,199.232 209.202,202.312 209.202,206.12 C209.202,209.984 212.002,213.064 215.642,213.064 C218.498,213.064 219.674,211.608 220.85,210.488 C221.354,209.984 221.858,209.984 222.362,210.376 L223.874,211.608 C224.434,212.056 224.658,212.616 224.266,213.176 C222.474,216.032 219.45,217.88 215.586,217.88 C209.314,217.88 203.882,212.896 203.882,206.176 Z M229.866,216.256 L229.866,179.184 C229.866,178.624 230.37,178.12 230.93,178.12 L234.178,178.12 C234.738,178.12 235.242,178.624 235.242,179.184 L235.242,203.432 L243.978,195.592 C244.37,195.256 244.818,194.92 245.378,194.92 L249.298,194.92 C250.25,194.92 250.418,195.984 249.914,196.432 L240.618,204.888 L251.594,215.864 C252.098,216.368 251.93,217.32 250.978,217.32 L246.386,217.32 C245.994,217.32 245.546,217.096 245.378,216.872 L235.242,206.456 L235.242,216.256 C235.242,216.816 234.738,217.32 234.178,217.32 L230.93,217.32 C230.37,217.32 229.866,216.816 229.866,216.256 Z M229.866,216.256" fill="#EBCDC2"></path>
                    </g>
                </g>
                <path d="M201.25,58.25 C203.321068,58.25 205,56.5710679 205,54.5 C205,52.4289321 203.321068,50.75 201.25,50.75 C199.178932,50.75 197.5,52.4289321 197.5,54.5 C197.5,56.5710679 199.178932,58.25 201.25,58.25 Z M201.25,58.25" id="camera" fill="#C5C3BA" mask="url(#mask-2)"></path>
                <path d="M201.25,56 C202.078427,56 202.75,55.3284272 202.75,54.5 C202.75,53.6715728 202.078427,53 201.25,53 C200.421573,53 199.75,53.6715728 199.75,54.5 C199.75,55.3284272 200.421573,56 201.25,56 Z M201.25,56" id="camera-inner" fill-opacity="0.609346278" fill="#ABA99F" mask="url(#mask-2)"></path>
                <path d="M188.254524,65.75 C185.904815,65.75 184,67.6575659 184,70 L184,70 C184,72.3472102 185.900842,74.25 188.254524,74.25 L213.745476,74.25 C216.095185,74.25 218,72.3424341 218,70 L218,70 C218,67.6527898 216.099158,65.75 213.745476,65.75 L188.254524,65.75 Z M188.254524,65.75" id="speaker" fill="#DDD5D5" mask="url(#mask-2)"></path>
                <path d="M188.245943,67.5 C186.867472,67.5 185.75,68.6096621 185.75,70 L185.75,70 C185.75,71.3807119 186.871683,72.5 188.245943,72.5 L213.754057,72.5 C215.132528,72.5 216.25,71.3903379 216.25,70 L216.25,70 C216.25,68.6192881 215.128317,67.5 213.754057,67.5 L188.245943,67.5 Z M188.245943,67.5" id="speaker-inner" fill-opacity="0.609346278" fill="#ABA99F" mask="url(#mask-2)"></path>
            </g>
        </g>
    </g>
</svg>