<?xml version="1.0" encoding="UTF-8" standalone="no"?>
<svg width="50px" height="33px" viewBox="0 0 50 33" version="1.1" xmlns="http://www.w3.org/2000/svg" xmlns:xlink="http://www.w3.org/1999/xlink" xmlns:sketch="http://www.bohemiancoding.com/sketch/ns">
    <!-- Generator: Sketch 3.0.3 (7891) - http://www.bohemiancoding.com/sketch -->
    <title>buffalo</title>
    <desc>Created with Sketch.</desc>
    <defs></defs>
    <g id="Page-1" stroke="none" stroke-width="1" fill="none" fill-rule="evenodd" sketch:type="MSPage">
        <g id="buffalo" sketch:type="MSLayerGroup" transform="translate(1.000000, 1.000000)" stroke="#979797" stroke-width="2">
            <path d="M8.2231405,17.9077988 C8.2231405,13.29468 6.63997934,15.4235539 6.63997934,10.1407544 C6.63997934,6.81443006 8.90612087,3.67587798 11.8890754,3.67587798 C14.87203,3.67587798 16.9057806,3.62685859 19.6095041,3.67587808 C24.2290481,3.75963207 23.7843492,0.0327995895 30.1138946,0.0327995895 C39.2660124,0.0327995895 37.831095,9.28796478 38.8757748,9.28796488 C39.9204545,9.28796498 39.5973657,8.29597095 42.5999483,8.29597095 C45.4444731,8.29597095 47.9349174,10.8298041 47.9349174,16.6771698 C47.9349174,22.5245355 45.0023244,23.1849166 44.2941632,23.1849166 C43.5860021,23.1849165 42.174845,28.1704538 41.6528926,28.1704538 C41.1309401,28.1704538 39.9524793,23.1849165 39.2660124,23.1849166 C38.5795455,23.1849166 36.0064566,23.1849166 36.0064566,23.1849166 L36.0064566,30.5976233 L32.7159091,30.5976233 C32.7159091,30.5976233 32.7159091,28.1704538 32.7159091,27.7370861 C32.7159091,27.3037184 30.4971591,23.1849167 29.9816632,23.1849167 C29.4661674,23.1849166 21.8472288,23.25 18.9678953,23.25 C16.0885618,23.25 14.7889979,20.4736557 13.9245868,20.473657 C13.0601756,20.4736584 12.9987704,22.5730825 11.4052169,23.9989662 C9.81166345,25.4248498 7.36105372,25.9176129 7.36105372,25.9176129 L7.36105372,30.5976232 L3.79442149,30.5976232 C3.79442149,30.5976232 3.79442149,24.4000524 3.79442149,23.6079545 C3.79442149,22.8158567 8.2231405,22.5209176 8.2231405,17.9077988 Z" id="Path-1" sketch:type="MSShapeGroup"></path>
            <path d="M12.5307335,3.6402376 C4.37267571,3.35614669 1.48527893,14.0211777 1.48527893,14.0211777 C1.48527893,14.0211777 0.0241093504,15.2889261 0.037964876,17.0358988 C0.0518204017,18.7828714 1.25000005,20.5095074 1.54003099,20.5278926 C1.83006194,20.5462778 3.18001033,18.6633542 3.18001033,16.963843 C3.18001033,15.2643318 1.54003099,14.0211777 1.54003099,14.0211777" id="Path-2" sketch:type="MSShapeGroup"></path>
            <path d="M43.93396,10.9209595 C42.2839966,10.9209595 41.8416138,6.50372314 43.9257202,5.51275635" id="Path-3" sketch:type="MSShapeGroup" transform="translate(42.750000, 8.250000) rotate(15.000000) translate(-42.750000, -8.250000) "></path>
        </g>
    </g>
</svg>