<?xml version="1.0" encoding="UTF-8" standalone="no"?>
<svg width="800px" height="600px" viewBox="0 0 800 600" version="1.1" xmlns="http://www.w3.org/2000/svg" xmlns:xlink="http://www.w3.org/1999/xlink" xmlns:sketch="http://www.bohemiancoding.com/sketch/ns">
    <title>Branch</title>
    <description>Created with Sketch (http://www.bohemiancoding.com/sketch)</description>
    <defs></defs>
    <g id="Large icons" fill="#D8D8D8" fill-rule="evenodd">
        <g id="Branch">
            <path d="M0,0 L0,600 L800,600 L800,0 L0,0 Z M0,0" id="Rectangle 99" fill="#FFDBCC"></path>
            <g id="brance">
                <path d="M409,342 C392.431457,342 379,328.568543 379,312 C379,311.913989 379.000362,311.828063 379.001084,311.742233 C379.000362,311.696963 379,311.651607 379,311.606166 L379,299.8 L369.897828,299.8 C364.97759,299.8 361,295.815334 361,290.9 C361,285.983585 364.983693,282 369.897828,282 L379,282 L379,266.393834 C379,261.761869 382.760808,258 387.4,258 C392.029752,258 395.8,261.758048 395.8,266.393834 L395.8,282 L407.102172,282 C407.327206,282 407.550267,282.008335 407.771067,282.024713 C408.17867,282.00829 408.588367,282 409,282 C425.568543,282 439,295.431457 439,312 C439,328.568543 425.568543,342 409,342 Z M409.317057,324.81684 C416.772902,324.81684 422.817057,319.2204 422.817057,312.31684 C422.817057,305.413281 416.772902,299.81684 409.317057,299.81684 L395.817057,299.81684 L395.817057,312.31684 C395.817057,319.2204 401.861213,324.81684 409.317057,324.81684 Z M409.317057,324.81684" id="Oval 46" fill="#FF4B00"></path>
                <path d="M379,282 L379,299.8 L395.8,299.8 L395.8,282 L379,282 Z M379,282" id="Rectangle 107" fill="#AF0000"></path>
            </g>
            <path d="M0,564 L0,600 L800,600 L800,564 L0,564 Z M0,564" id="Rectangle 108" fill="#FF4B00"></path>
        </g>
    </g>
</svg>