<?xml version="1.0" encoding="UTF-8" standalone="no"?>
<svg width="800px" height="600px" viewBox="0 0 800 600" version="1.1" xmlns="http://www.w3.org/2000/svg" xmlns:xlink="http://www.w3.org/1999/xlink" xmlns:sketch="http://www.bohemiancoding.com/sketch/ns">
    <title>LIP Mach 2000</title>
    <description>Created with Sketch (http://www.bohemiancoding.com/sketch)</description>
    <defs></defs>
    <g id="Page 1" fill="#D8D8D8" fill-rule="evenodd">
        <g id="Artboard 1">
            <path d="M0,0 L0,600 L800,600 L800,0 L0,0 Z M0,0" id="Rectangle 1" fill="#83DCCD"></path>
            <g id="WATCH">
                <path d="M380,367.5 C416.450795,367.5 446,337.950795 446,301.5 C446,265.049205 416.450795,235.5 380,235.5 C343.549205,235.5 314,265.049205 314,301.5 C314,337.950795 343.549205,367.5 380,367.5 Z M378.5,397.5 C324.652234,397.5 281,353.847766 281,300 C281,246.152234 324.652234,202.5 378.5,202.5 C379.001002,202.5 379.501122,202.503779 380,202.511304 L380,202.5 L490.005271,202.5 C494.420222,202.5 498,206.085202 498,210.507773 L498,215.499998 C486.40202,215.5 477,224.90202 477,236.5 C477,248.09798 486.40202,257.5 498,257.5 L498,389.492227 C498,393.927878 494.420638,397.5 490.005271,397.5 L380,397.5 L380,397.488696 C379.501122,397.496221 379.001002,397.5 378.5,397.5 Z M378.5,397.5" id="Oval 1" fill="#2E2929"></path>
                <path d="M385,298.5 L385,339.5 L393,339.5 L393,298.5 L385,298.5 Z M385,298.5" id="Rectangle 4" fill="#CF3D3D" transform="translate(389.000000, 319.000000) rotate(-30.000000) translate(-389.000000, -319.000000)"></path>
                <path d="M376,245.5 L376,301.5 L384,301.5 L384,245.5 L376,245.5 Z M376,245.5" id="Rectangle 4 copy" fill="#FFFEF6" transform="translate(380.000000, 273.500000) rotate(-180.000000) translate(-380.000000, -273.500000)"></path>
                <path d="M379.5,310.5 C384.194421,310.5 388,306.694421 388,302 C388,297.305579 384.194421,293.5 379.5,293.5 C374.805579,293.5 371,297.305579 371,302 C371,306.694421 374.805579,310.5 379.5,310.5 Z M379.5,310.5" id="dial" fill="#D4D4D4"></path>
                <path d="M497.5,251.5 C506.060414,251.5 513,244.560414 513,236 C513,227.439586 506.060414,220.5 497.5,220.5 C488.939586,220.5 482,227.439586 482,236 C482,244.560414 488.939586,251.5 497.5,251.5 Z M497.5,251.5" id="Path copy" fill="#CF3D3D"></path>
            </g>
        </g>
    </g>
</svg>