<?xml version="1.0" encoding="UTF-8" standalone="no"?>
<svg width="1200px" height="400px" viewBox="0 0 1200 400" version="1.1" xmlns="http://www.w3.org/2000/svg" xmlns:xlink="http://www.w3.org/1999/xlink" xmlns:sketch="http://www.bohemiancoding.com/sketch/ns">
    <title>Slice 1</title>
    <description>Created with Sketch (http://www.bohemiancoding.com/sketch)</description>
    <defs></defs>
    <g id="Page-1" stroke="none" stroke-width="1" fill="none" fill-rule="evenodd" sketch:type="MSPage">
        <g id="mach-2000" sketch:type="MSLayerGroup">
            <g id="Page-1" sketch:type="MSShapeGroup">
                <g id="Artboard-1">
                    <path d="M0,0 L0,400 L1200,400 L1200,0 L0,0 L0,0 Z" id="Rectangle-1" fill="#83DCCD"></path>
                    <g id="WATCH" transform="translate(484.000000, 103.000000)">
                        <path d="M99,164.5 C135.450795,164.5 165,134.950795 165,98.5 C165,62.049205 135.450795,32.5 99,32.5 C62.549205,32.5 33,62.049205 33,98.5 C33,134.950795 62.549205,164.5 99,164.5 L99,164.5 Z M97.5,194.5 C43.652234,194.5 0,150.847766 0,97 C0,43.152234 43.652234,-0.5 97.5,-0.5 C98.001002,-0.5 98.501122,-0.496221 99,-0.488696 L99,-0.5 L209.005271,-0.5 C213.420222,-0.5 217,3.085202 217,7.507773 L217,12.499998 C205.40202,12.5 196,21.90202 196,33.5 C196,45.09798 205.40202,54.5 217,54.5 L217,186.492227 C217,190.927878 213.420638,194.5 209.005271,194.5 L99,194.5 L99,194.488696 C98.501122,194.496221 98.001002,194.5 97.5,194.5 L97.5,194.5 Z" id="Oval-1" fill="#2E2929"></path>
                        <path d="M104,95.5 L104,136.5 L112,136.5 L112,95.5 L104,95.5 L104,95.5 Z" id="Rectangle-4" fill="#CF3D3D" transform="translate(108.000000, 116.000000) rotate(-30.000000) translate(-108.000000, -116.000000) "></path>
                        <path d="M95,42.5 L95,98.5 L103,98.5 L103,42.5 L95,42.5 L95,42.5 Z" id="Rectangle-4-copy" fill="#FFFEF6" transform="translate(99.000000, 70.500000) rotate(180.000000) translate(-99.000000, -70.500000) "></path>
                        <path d="M98.5,107.5 C103.194421,107.5 107,103.694421 107,99 C107,94.305579 103.194421,90.5 98.5,90.5 C93.805579,90.5 90,94.305579 90,99 C90,103.694421 93.805579,107.5 98.5,107.5 L98.5,107.5 Z" id="dial" fill="#D4D4D4"></path>
                        <path d="M216.5,48.5 C225.060414,48.5 232,41.560414 232,33 C232,24.439586 225.060414,17.5 216.5,17.5 C207.939586,17.5 201,24.439586 201,33 C201,41.560414 207.939586,48.5 216.5,48.5 L216.5,48.5 Z" id="Path-copy" fill="#CF3D3D"></path>
                    </g>
                </g>
            </g>
        </g>
    </g>
</svg>