<?xml version="1.0" encoding="UTF-8" standalone="no"?>
<svg width="600px" height="400px" viewBox="0 0 600 400" version="1.1" xmlns="http://www.w3.org/2000/svg" xmlns:xlink="http://www.w3.org/1999/xlink" xmlns:sketch="http://www.bohemiancoding.com/sketch/ns">
    <title>Peck Cover</title>
    <description>Created with Sketch (http://www.bohemiancoding.com/sketch)</description>
    <defs></defs>
    <g id="Page 1" fill="#D8D8D8" fill-rule="evenodd">
        <g id="Loading Page">
            <path d="M0,0 L0,400 L600,400 L600,0 L0,0 Z M0,0" id="Rectangle 538" fill="#BC5B4C"></path>
            <path d="M299.624447,210.239201 C299.831971,210.45085 300.164074,210.455295 300.375957,210.239201 L336.755758,173.136364 L340.428334,169.390796 C340.935346,168.873707 341.759709,168.868252 342.264862,169.383445 L349.624431,176.889283 C350.126412,177.401241 350.126357,178.243059 349.617223,178.762311 L345.944647,182.507879 L300.383594,228.974442 C300.171852,229.190392 299.833838,229.195784 299.616809,228.974442 L254.055757,182.507879 L250.383181,178.762311 C249.876168,178.245222 249.87082,177.404475 250.375972,176.889283 L257.735542,169.383445 C258.237523,168.871487 259.062936,168.871544 259.57207,169.390796 L263.244646,173.136364 L299.624447,210.239201 Z M299.624447,210.239201" id="Rectangle 193" fill="#E7C4BA"></path>
        </g>
    </g>
</svg>