<?xml version="1.0" encoding="UTF-8" standalone="no"?>
<svg width="1200px" height="400px" viewBox="0 0 1200 400" version="1.1" xmlns="http://www.w3.org/2000/svg" xmlns:xlink="http://www.w3.org/1999/xlink" xmlns:sketch="http://www.bohemiancoding.com/sketch/ns">
    <title>Slice 1</title>
    <description>Created with Sketch (http://www.bohemiancoding.com/sketch)</description>
    <defs></defs>
    <g id="Page-1" stroke="none" stroke-width="1" fill="none" fill-rule="evenodd" sketch:type="MSPage">
        <g id="peck-app" sketch:type="MSLayerGroup">
            <g id="Page-1" sketch:type="MSShapeGroup">
                <g id="peck-app">
                    <g id="Page-1">
                        <g id="Loading-Page">
                            <path d="M0,0 L0,400 L1200,400 L1200,0 L0,0 L0,0 Z" id="Rectangle-538" fill="#BC5B4C"></path>
                            <path d="M599.624447,226.239201 C599.831971,226.45085 600.164074,226.455295 600.375957,226.239201 L636.755758,189.136364 L640.428334,185.390796 C640.935346,184.873707 641.759709,184.868252 642.264862,185.383445 L649.624431,192.889283 C650.126412,193.401241 650.126357,194.243059 649.617223,194.762311 L645.944647,198.507879 L600.383594,244.974442 C600.171852,245.190392 599.833838,245.195784 599.616809,244.974442 L554.055757,198.507879 L550.383181,194.762311 C549.876168,194.245222 549.87082,193.404475 550.375972,192.889283 L557.735542,185.383445 C558.237523,184.871487 559.062936,184.871544 559.57207,185.390796 L563.244646,189.136364 L599.624447,226.239201 L599.624447,226.239201 Z" id="Rectangle-193" fill="#E7C4BA"></path>
                        </g>
                    </g>
                </g>
            </g>
        </g>
    </g>
</svg>