<?xml version="1.0" encoding="UTF-8" standalone="no"?>
<svg width="1440px" height="400px" viewBox="0 0 1440 400" version="1.1" xmlns="http://www.w3.org/2000/svg" xmlns:xlink="http://www.w3.org/1999/xlink" xmlns:sketch="http://www.bohemiancoding.com/sketch/ns">
    <title>Slice 1</title>
    <description>Created with Sketch (http://www.bohemiancoding.com/sketch)</description>
    <defs></defs>
    <g id="Page-1" stroke="none" stroke-width="1" fill="none" fill-rule="evenodd" sketch:type="MSPage">
        <g id="purp-cray" sketch:type="MSLayerGroup">
            <g id="Page-1" sketch:type="MSShapeGroup">
                <g id="purp-cray">
                    <g id="Page-1">
                        <g id="Purple-Crayon">
                            <path d="M0,0 L0,400 L1440,400 L1440,0 L0,0 L0,0 Z" id="Rectangle-1" fill="#9DE2CE"></path>
                            <g id="Group" transform="translate(611.000000, 110.000000)">
                                <g id="icon" fill="#705B90">
                                    <g id="Small_Icons">
                                        <g id="Artboard_2">
                                            <path d="M72.3301751,9.84802431 L64.0575,24.0700108 L83.1594845,35.0151976 L91.4325,20.7923665 L72.3301751,9.84802431 L72.3301751,9.84802431 Z M58.1713779,33.3738602 L16.9725,104.965489 L35.998283,115.987842 L77.1975,44.3963838 L58.1713779,33.3738602 L58.1713779,33.3738602 Z M80.6885695,1.96856467 L93.391755,9.31801751 C100.459027,13.4005753 102.80529,22.3176827 98.7707965,29.3163532 L92.3334105,40.4680434 L86.8402605,49.9948604 L40.1469577,130.991142 L11.4495801,149.958015 C4.50455494,154.542975 -0.459762113,151.490693 0.0338041611,143.354271 L2.09369309,108.987268 L48.7875042,27.991326 L54.2806544,18.4645089 L60.703798,7.31179997 C64.7520249,0.313978469 73.6787752,-2.07816775 80.6885695,1.96856467 L80.6885695,1.96856467 L80.6885695,1.96856467 Z M10.4025,138.966565 L30.66,125.378187 L11.8584638,114.346505 L10.4025,138.966565 L10.4025,138.966565 Z" id="pencil_copy_2"></path>
                                        </g>
                                    </g>
                                </g>
                                <path d="M3.96524013,164.969958 C123.325329,217.832236 111.48262,110.612629 219,155.739868" id="Path-5" stroke="#705B90" stroke-width="11.659919"></path>
                            </g>
                        </g>
                    </g>
                </g>
            </g>
        </g>
    </g>
</svg>