<?xml version="1.0" encoding="UTF-8" standalone="no"?>
<svg width="800px" height="400px" viewBox="0 0 800 400" version="1.1" xmlns="http://www.w3.org/2000/svg" xmlns:xlink="http://www.w3.org/1999/xlink" xmlns:sketch="http://www.bohemiancoding.com/sketch/ns">
    <title>tuch-feature</title>
    <description>Created with Sketch (http://www.bohemiancoding.com/sketch)</description>
    <defs></defs>
    <g id="Page 1" stroke="none" stroke-width="1" fill="none" fill-rule="evenodd">
        <g id="Layer_1">
            <path d="M0.5,0.5 L0.5,399.5 L799.5,399.5 L799.5,0.5 L0.5,0.5 Z M0.5,0.5" id="Rectangle" stroke="#000000" fill="#D8655D"></path>
            <path d="M325.5,254.162 L325.5,252.314 L338.098,252.314 L338.098,254.162 L332.821,254.162 L332.821,268.925 L330.754,268.925 L330.754,254.162 Z M343.324,262.479 L343.324,252.314 L345.391,252.314 L345.391,262.418 C345.391,263.958 345.792,265.17 346.596,266.054 C347.399,266.938 348.558,267.379 350.072,267.379 C351.586,267.379 352.751,266.94 353.567,266.06 C354.382,265.181 354.791,263.967 354.791,262.418 L354.791,252.314 L356.858,252.314 L356.858,262.455 C356.858,264.563 356.277,266.219 355.118,267.423 C353.957,268.627 352.278,269.229 350.079,269.229 C347.896,269.229 346.225,268.627 345.064,267.423 C343.903,266.219 343.324,264.571 343.324,262.479 Z M365.033,266.821 C363.4,265.216 362.583,263.152 362.583,260.632 C362.583,258.111 363.4,256.047 365.033,254.443 C366.667,252.838 368.696,252.035 371.119,252.035 C373.794,252.035 375.894,253.134 377.418,255.331 L375.703,256.304 C375.225,255.575 374.575,254.989 373.751,254.547 C372.928,254.105 372.051,253.884 371.119,253.884 C369.279,253.884 367.752,254.514 366.54,255.775 C365.328,257.036 364.722,258.655 364.722,260.633 C364.722,262.595 365.332,264.21 366.552,265.479 C367.772,266.748 369.294,267.381 371.118,267.381 C372.05,267.381 372.926,267.156 373.744,266.706 C374.563,266.257 375.215,265.675 375.702,264.962 L377.441,265.91 C375.836,268.123 373.728,269.229 371.118,269.229 C368.696,269.229 366.667,268.426 365.033,266.821 Z M382.583,268.925 L382.583,252.315 L384.65,252.315 L384.65,259.453 L394.354,259.453 L394.354,252.315 L396.421,252.315 L396.421,268.925 L394.354,268.925 L394.354,261.301 L384.65,261.301 L384.65,268.925 Z M402.804,262.479 L402.804,252.314 L404.871,252.314 L404.871,262.418 C404.871,263.958 405.272,265.17 406.076,266.054 C406.879,266.938 408.038,267.379 409.552,267.379 C411.066,267.379 412.231,266.94 413.047,266.06 C413.862,265.181 414.271,263.967 414.271,262.418 L414.271,252.314 L416.338,252.314 L416.338,262.455 C416.338,264.563 415.757,266.219 414.598,267.423 C413.437,268.627 411.758,269.229 409.558,269.229 C407.375,269.229 405.704,268.627 404.544,267.423 C403.383,266.219 402.804,264.571 402.804,262.479 Z M420.372,268.925 L427.072,252.315 L429.637,252.315 L436.313,268.925 L433.955,268.925 L432.483,265.24 L424.214,265.24 L422.742,268.925 Z M424.835,263.392 L428.349,254.43 L431.888,263.392 Z M440.969,268.925 L440.969,252.315 L443.084,252.315 L452.642,265.29 L452.642,252.315 L454.709,252.315 L454.709,268.925 L452.715,268.925 L443.035,255.67 L443.035,268.925 Z M462.873,266.846 C461.223,265.241 460.398,263.169 460.398,260.632 C460.398,258.094 461.218,256.028 462.86,254.43 C464.502,252.833 466.537,252.034 468.967,252.034 C471.614,252.034 473.769,253.063 475.426,255.121 L473.753,256.165 C473.219,255.469 472.523,254.914 471.67,254.502 C470.817,254.089 469.907,253.883 468.941,253.883 C467.098,253.883 465.57,254.515 464.357,255.778 C463.144,257.041 462.537,258.663 462.537,260.644 C462.537,262.61 463.148,264.228 464.369,265.498 C465.591,266.769 467.115,267.404 468.941,267.404 C469.857,267.404 470.714,267.225 471.509,266.867 C472.304,266.509 472.946,266.09 473.432,265.609 L473.432,262.224 L467.742,262.224 L467.742,260.375 L475.5,260.375 L475.5,266.378 C473.794,268.294 471.615,269.252 468.968,269.252 C466.553,269.253 464.522,268.45 462.873,266.846 Z M462.873,266.846" id="Shape" fill="#FFFFFF"></path>
            <path d="M377.688,144.467 L435.088,136.4 L435.062,150.857 L414.013,153.815 L413.91,208.886 L398.605,211.036 L398.707,155.966 L377.661,158.924 Z M386.934,160.846 L395.11,159.697 L394.899,208.898 L387.081,204.384 Z M431.777,134.489 L374.252,142.484 L374.254,156.958 L365.912,152.228 L365.938,137.786 L365.912,137.771 L423.564,129.747 Z M431.777,134.489" id="Shape" fill="#FFFFFF"></path>
        </g>
    </g>
</svg>