<?xml version="1.0" encoding="UTF-8" standalone="no"?>
<svg width="600px" height="400px" viewBox="0 0 600 400" version="1.1" xmlns="http://www.w3.org/2000/svg" xmlns:xlink="http://www.w3.org/1999/xlink" xmlns:sketch="http://www.bohemiancoding.com/sketch/ns">
    <title>Artboard 1</title>
    <description>Created with Sketch (http://www.bohemiancoding.com/sketch)</description>
    <defs></defs>
    <g id="Page 1" stroke="none" stroke-width="1" fill="none" fill-rule="evenodd" sketch:type="MSPage">
        <g id="Artboard 1" sketch:type="MSArtboardGroup">
            <rect d="M0,0 L0,400 L600,400 L600,0 L0,0 Z M0,0" id="Rectangle 2" fill="#41A274" sketch:type="MSShapeGroup" x="0" y="0" width="600" height="400"></rect>
            <g id="logo" sketch:type="MSLayerGroup" transform="translate(157.000000, 156.000000)" fill="#FAFAFA">
                <g id="Group" transform="translate(0.000000, 2.000000)" sketch:type="MSShapeGroup">
                    <path d="M7.899,15.675 C7.045,16.343 6.173,16.974 5.283,17.568 C4.392,18.162 3.371,18.459 2.222,18.459 C1.07,18.459 0.496,17.457 0.496,15.453 C0.496,11.372 2.389,8.032 6.174,5.433 C9.81,2.762 14.152,1.426 19.2,1.426 C24.246,1.426 28.031,3.505 30.555,7.66 C32.484,10.704 33.45,14.136 33.45,17.958 C33.45,21.782 33.041,25.492 32.225,29.091 C31.407,32.692 30.536,36.384 29.609,40.168 C28.68,43.954 27.809,47.795 26.993,51.692 C26.176,55.588 25.768,58.782 25.768,61.266 C25.768,63.754 25.88,65.405 26.102,66.221 C27.141,69.487 29.96,71.117 34.563,71.117 C38.051,71.117 41.316,70.115 44.36,68.111 C52.746,62.621 58.09,51.746 60.391,35.492 C54.38,35.122 49.759,33.209 46.531,29.758 C43.302,26.307 41.688,21.65 41.688,15.786 C41.688,11.555 43.061,7.994 45.807,5.098 C48.552,2.203 52.3,0.738 57.051,0.701 C61.8,0.664 65.362,2.315 67.739,5.655 C70.114,8.995 71.301,13.523 71.301,19.237 L71.301,21.798 C71.301,22.688 71.263,23.542 71.19,24.358 C72.451,23.765 73.528,23.153 74.419,22.522 C75.309,21.892 76.2,21.575 77.091,21.575 C78.575,21.575 79.318,22.206 79.318,23.468 C79.318,25.918 78.556,28.052 77.036,29.869 C75.514,31.689 73.454,33.08 70.857,34.044 C70.114,43.618 68.909,50.93 67.238,55.977 C65.568,61.024 63.787,65.215 61.895,68.555 C60.001,71.897 57.57,74.828 54.603,77.352 C48.368,82.622 40.314,85.254 30.444,85.254 C23.837,85.254 18.588,83.606 14.691,80.301 C10.794,77 8.846,71.785 8.846,64.658 C8.846,62.953 9.793,58.443 11.685,51.133 C13.577,43.822 15.08,37.812 16.193,33.097 C17.307,28.385 17.863,24.656 17.863,21.909 C17.863,15.897 16.341,12.891 13.299,12.891 C12.258,12.891 11.312,13.188 10.46,13.781 C9.606,14.377 8.751,15.006 7.899,15.675 L7.899,15.675 Z M61.393,24.025 C61.541,21.948 61.616,19.833 61.616,17.679 C61.616,12.855 60.503,10.442 58.276,10.442 C56.717,10.369 55.938,11.594 55.938,14.116 C55.938,18.719 57.756,22.021 61.393,24.025 L61.393,24.025 Z M61.393,24.025" id="Shape"></path>
                    <path d="M89.058,85.255 C81.635,85.255 77.925,78.317 77.925,64.437 C77.925,56.867 78.852,50.003 80.708,43.841 C83.603,34.342 86.868,29.591 90.505,29.591 C92.657,29.591 94.363,31.038 95.627,33.932 C96.665,36.16 97.147,38.349 97.073,40.5 C97.073,43.471 96.183,48.703 94.401,56.197 C92.693,62.73 91.841,66.775 91.841,68.332 C91.841,69.893 92.23,70.969 93.009,71.561 C93.789,72.157 94.716,72.454 95.793,72.454 C96.868,72.454 98.223,71.747 99.856,70.337 C101.488,68.929 103.122,67.388 104.754,65.718 C106.386,64.048 107.889,62.509 109.263,61.099 C110.636,59.689 111.581,58.982 112.102,58.982 C113.141,58.982 113.662,60.246 113.662,62.767 C113.662,67.964 111.045,73.029 105.812,77.964 C100.579,82.899 94.994,85.329 89.058,85.255 L89.058,85.255 Z M89.058,85.255" id="Shape"></path>
                    <path d="M121.277,27.387 C123.949,27.387 126.471,29.948 128.848,35.069 C132.335,31.433 136.659,29.614 141.818,29.614 C146.974,29.614 148.194,30.329 150.793,32.593 C153.392,34.858 155.895,38.86 155.895,42.979 C155.895,47.098 155.581,49.468 154.503,53.699 C153.427,57.929 152.354,63.549 152.155,64.717 C151.255,70.053 154.259,70.346 155.025,70.631 C162.358,73.338 182.403,59.235 183.779,57.824 C185.151,56.416 190.804,61.836 185.684,66.658 C177.073,71.707 161.23,84.72 147.287,84.199 C144.144,84.08 142.096,82.865 140.587,80.834 C138.945,78.623 137.341,68.602 139.481,57.78 C140.16,54.347 140.835,51.881 141.208,50.322 C141.577,48.763 141.762,47.169 141.762,45.535 C141.762,42.863 140.221,41.526 137.145,41.526 C134.063,41.526 131.131,43.809 128.348,48.373 C125.565,52.937 123.69,57.669 122.726,62.566 L122.726,63.347 C122.726,65.87 123.117,68.466 123.895,71.138 C124.675,73.81 125.064,75.667 125.064,76.704 C125.064,79.229 121.909,81.718 115.601,84.165 C114.635,84.536 113.782,84.72 113.04,84.72 C111.184,84.72 109.903,83.755 109.199,81.829 C108.493,79.899 108.141,76.891 108.141,72.809 C108.141,62.272 108.548,54.663 109.366,49.987 C110.479,43.012 113.002,36.516 116.936,30.504 C118.271,28.427 119.719,27.387 121.277,27.387 L121.277,27.387 Z M121.277,27.387" id="Shape"></path>
                    <path d="M193.816,72.786 C199.606,72.786 205.208,70.485 210.628,65.884 C212.631,64.177 214.262,62.601 215.525,61.154 C216.787,59.707 217.752,58.982 218.42,58.982 C219.458,58.982 219.978,60.023 219.978,62.101 C219.978,64.177 219.423,66.496 218.309,69.056 C217.195,71.616 215.338,74.122 212.743,76.572 C206.358,82.586 197.601,85.592 186.468,85.592 C177.635,85.592 171.625,82.401 168.435,76.016 C167.32,73.789 166.763,70.598 166.763,66.444 C166.763,62.288 167.581,57.964 169.214,53.473 C170.845,48.983 173.017,45.106 175.727,41.84 C178.434,38.574 181.571,36.033 185.134,34.213 C188.697,32.395 192.499,31.485 196.544,31.485 C200.588,31.485 203.706,32.486 205.897,34.49 C208.085,36.496 209.18,39.094 209.18,42.284 C209.18,45.477 208.375,48.088 206.788,50.132 C202.98,55.032 189.178,65.322 183.32,67.848 L183.32,67.848 C183.771,69.098 184.315,69.895 186.467,71.006 C188.62,72.12 191.068,72.716 193.816,72.786 L193.816,72.786 Z M191.922,41.393 C188.063,41.393 181.292,51.119 182.453,57.873 C182.767,59.718 190.745,52.307 192.773,50.335 C195.015,48.157 195.724,46.226 195.374,44.176 C195.176,43.013 194.222,41.393 191.922,41.393 L191.922,41.393 Z M191.922,41.393" id="Shape"></path>
                    <path d="M282.77,58.649 C284.107,58.649 284.773,60.356 284.773,63.77 C284.773,65.625 283.996,67.872 282.435,70.504 C280.878,73.139 278.853,75.551 276.369,77.74 C273.883,79.929 271.118,81.73 268.074,83.14 C265.029,84.55 262.061,85.253 259.167,85.253 C255.085,85.253 252.413,81.913 251.151,75.235 C246.699,82.286 240.091,85.811 231.334,85.811 C225.991,85.811 221.724,84.176 218.532,80.913 C215.342,77.645 213.781,73.675 213.857,69.001 C213.857,56.383 218.048,46.439 226.436,39.165 C232.225,34.192 238.238,31.705 244.473,31.705 C247.291,31.705 249.517,31.928 251.151,32.373 L253.712,33.041 C256.756,18.718 260.281,9.143 264.29,4.318 C265.625,2.687 266.962,1.868 268.297,1.868 C270.449,1.868 272.453,3.354 274.309,6.322 C275.94,8.771 276.758,10.886 276.758,12.668 C276.758,14.449 276.497,16.194 275.978,17.9 C275.459,19.608 274.81,21.185 274.033,22.632 C273.253,24.079 272.38,25.49 271.415,26.862 C270.45,28.237 269.485,29.628 268.52,31.037 C266.368,39.054 264.772,48.034 263.734,57.98 C263.435,60.8 263.288,63.064 263.288,64.769 C263.288,69.892 264.142,72.453 265.849,72.453 C267.779,72.453 272.454,68.594 279.877,60.875 C281.212,59.392 282.174,58.649 282.77,58.649 L282.77,58.649 Z M230.222,65.327 C230.222,71.044 232.337,73.899 236.569,73.899 C239.091,73.899 241.632,72.938 244.193,71.004 C246.754,69.074 248.74,65.848 250.151,61.32 C250.297,54.638 251.078,47.293 252.489,39.277 C246.55,40.465 241.355,43.36 236.901,47.959 C232.448,52.563 230.222,58.353 230.222,65.327 L230.222,65.327 Z M230.222,65.327" id="Shape"></path>
                </g>
                <ellipse d="M97.1247333,22.2146418 C101.303313,22.2146418 104.69072,17.8095794 104.69072,12.3756589 C104.69072,6.94173849 101.303313,2.53667611 97.1247333,2.53667611 C92.9461539,2.53667611 89.5587463,6.94173849 89.5587463,12.3756589 C89.5587463,17.8095794 92.9461539,22.2146418 97.1247333,22.2146418 Z M97.1247333,22.2146418" id="Oval" sketch:type="MSShapeGroup" transform="translate(97.124733, 12.375659) rotate(-343.536738) translate(-97.124733, -12.375659) " cx="97.1247333" cy="12.3756589" rx="7.56598697" ry="9.83898283"></ellipse>
            </g>
        </g>
    </g>
</svg>