<?xml version="1.0" encoding="UTF-8" standalone="no"?>
<svg width="800px" height="400px" viewBox="0 0 800 400" version="1.1" xmlns="http://www.w3.org/2000/svg" xmlns:xlink="http://www.w3.org/1999/xlink" xmlns:sketch="http://www.bohemiancoding.com/sketch/ns">
    <title>Feature-Image</title>
    <description>Created with Sketch (http://www.bohemiancoding.com/sketch)</description>
    <defs></defs>
    <g id="Page-1" stroke="none" stroke-width="1" fill="none" fill-rule="evenodd" sketch:type="MSPage">
        <g id="Feature-Image" sketch:type="MSArtboardGroup">
            <rect id="Rectangle-1" fill="#383838" sketch:type="MSShapeGroup" x="0" y="0" width="800" height="400"></rect>
            <g id="WOC-Logo" sketch:type="MSLayerGroup" transform="translate(227.000000, 120.000000)" fill="#FFFFFF">
                <g id="W-O-C" sketch:type="MSShapeGroup">
                    <path d="M113.583027,1.6779661 L133.194318,1.6779661 L87.0112531,94.1288136 L67.1459305,56.6847458 L48.4999627,94.1288136 L0.000124039189,1.6779661 L21.6944789,1.6779661 L49.2315757,54.9762712 L57.7670595,38.5118644 L38.5114144,1.6779661 L60.1956079,1.6779661 L87.742866,54.9762712 L113.583027,1.6779661" id="Fill-1"></path>
                    <path d="M130.420161,47.1762712 C130.420161,21.0711864 151.382903,0.0915254237 177.345,0.0915254237 C203.418871,0.0915254237 224.381613,21.0711864 224.381613,47.1762712 C224.381613,73.0271186 203.418871,94.1288136 177.466935,94.1288136 C151.382903,94.1288136 130.420161,73.0271186 130.420161,47.1762712 L130.420161,47.1762712 Z M149.797742,47.1762712 C149.797742,63.2745763 161.869355,75.9559322 177.466935,75.9559322 C192.820645,75.9559322 205.014194,63.2745763 205.014194,47.1762712 C205.014194,30.9457627 192.69871,18.020339 177.345,18.020339 C161.869355,18.020339 149.797742,30.9457627 149.797742,47.1762712 L149.797742,47.1762712 Z M187.577419,47.1762712 C187.577419,52.5355932 183.56371,57.1728814 177.466935,57.1728814 C171.492097,57.1728814 167.34629,52.5355932 167.34629,47.1762712 C167.34629,41.440678 171.492097,37.0474576 177.466935,37.0474576 C183.431613,37.0474576 187.577419,41.440678 187.577419,47.1762712 L187.577419,47.1762712 Z" id="Fill-2"></path>
                    <path d="M327.660968,52.4135593 C324.988548,75.7118644 304.991129,94.1288136 280.868226,94.1288136 C254.906129,94.1288136 234.187258,73.1491525 234.187258,47.1762712 C234.187258,21.1932203 254.906129,0.0915254237 280.74629,0.0915254237 C297.685161,0.0915254237 312.673065,8.86779661 320.832581,22.1694915 L306.088548,32.6542373 C299.514194,22.9016949 290.247097,18.1423729 280.868226,18.1423729 C265.636452,18.1423729 253.564839,31.0677966 253.564839,47.1762712 C253.564839,63.1423729 265.636452,75.9559322 280.868226,75.9559322 C294.514839,75.9559322 305.976774,66.0711864 308.537419,52.4135593 L327.660968,52.4135593" id="Fill-3"></path>
                </g>
                <path d="M333.290323,159.661021 L333.290323,139.322038 L132.65835,139.322038 L150.387097,159.661021 L333.290323,159.661021 Z" id="Rectangle-1" sketch:type="MSShapeGroup"></path>
                <path d="M153.43536,88.3830508 L107.237773,159.569492 L87.8511515,127.174426 L67.9490551,159.569492 L21.3385856,88.3830508 L42.684514,88.3830508 L67.9490551,125.696324 L77.7707688,111.451998 L62.8962727,88.3830508 L83.4170643,88.3830508 L107.237773,125.696324 L133.224231,88.3830508 L153.43536,88.3830508 Z" id="Fill-1" sketch:type="MSShapeGroup" transform="translate(84.338710, 123.976271) scale(1, -1) translate(-84.338710, -123.976271) "></path>
                <path d="M333.290323,128.135593 L333.290323,107.79661 L134.941737,107.79661 L147.338834,128.135593 L333.290323,128.135593 Z" id="Rectangle-1" sketch:type="MSShapeGroup"></path>
            </g>
        </g>
    </g>
</svg>