<?xml version="1.0" standalone="no"?>
<!DOCTYPE svg PUBLIC "-//W3C//DTD SVG 1.1//EN" "http://www.w3.org/Graphics/SVG/1.1/DTD/svg11.dtd" >
<svg xmlns="http://www.w3.org/2000/svg">
<metadata>
Created by FontPrep 20130207 at Thu May 29 17:20:55 2014
 By Cole Townsend
Converted by Andrey V. Panov from TeX fonts
</metadata>
<defs>
<font id="2ae7b7d98fe624b2c3960ac4a1b0ff13" horiz-adv-x='1024' >
  <font-face 
    font-family="CMUConcrete-Bold"
    font-weight="700"
    font-stretch="normal"
    units-per-em="2048"
    panose-1="2 0 8 3 0 0 0 0 0 0"
    ascent="1638"
    descent="-410"
    x-height="967"
    cap-height="1423"
    bbox="-2742 -934 3483.01 2324"
    underline-thickness="102"
    underline-position="-205"
    unicode-range="U+0020-10147"
  />
<missing-glyph horiz-adv-x="1556" 
d="M848 795l565 -566v1129zM215 1444l563 -565l563 565h-1126zM215 143h1126l-563 566zM143 229l566 566l-566 563v-1129zM20 20v1547h1516v-1547h-1516z" />
    <glyph glyph-name="igrave" unicode="i&#x300;" horiz-adv-x="665" 
d="M2 1327q0 37 27.5 67.5t57.5 30.5q31 1 63 -19q98 -59 299 -196l-78 -133q-11 5 -101 54t-179 95t-89 101zM98 0v154h154v567q0 51 -21.5 65.5t-107.5 14.5h-17v155l330 23v-825h137v-154h-475z" />
    <glyph glyph-name="iacute" unicode="i&#x301;" horiz-adv-x="665" 
d="M532.5 1425q30.5 0 59.5 -30.5t29 -62.5t-16.5 -53.5t-28 -27.5t-73.5 -38.5t-130 -69.5t-90.5 -49.5t-32.5 -16.5l-78 133q70 45 176.5 117t130 85t54 13zM96 0v154h154v567q0 51 -21.5 65.5t-107.5 14.5h-17v155l330 23v-825h137v-154h-475z" />
    <glyph glyph-name="icircumflex" unicode="i&#x302;" horiz-adv-x="665" 
d="M0 1339l340 254h2l340 -254l-92 -122l-248 198h-2l-246 -198zM96 0v154h154v567q0 51 -21.5 65.5t-107.5 14.5h-17v155l330 23v-825h137v-154h-475z" />
    <glyph glyph-name="idieresis" unicode="i&#x308;" horiz-adv-x="796" 
d="M502 1285q0 54 39 95t95 41t96 -37.5t40 -96t-40 -98.5t-97 -40t-95 41t-38 95zM164 0v154h153v567q0 51 -21.5 65.5t-107.5 14.5h-16v155l330 23v-825h137v-154h-475zM43 1286q0 55 40 95t96 40t96 -37.5t40 -96t-41 -98.5t-97 -40t-95 41t-39 96z" />
    <glyph glyph-name="Aogonek" unicode="A&#x328;" horiz-adv-x="1734" 
d="M598 578h492l-211 522l-35 100q-33 -98 -135.5 -348.5t-110.5 -273.5zM82 0v154h174l502 1210q14 33 30.5 46t53.5 13h43q45 0 59 -14t37 -66l494 -1189h174v-154h-88q-57 0 -106.5 -59.5t-49.5 -101.5t18.5 -66.5t42.5 -24.5t53 23.5t45 23.5t56.5 -29.5t40.5 -58.5
t-65.5 -78t-150.5 -49t-159 59.5t-74 157.5t109 203h-164v154h109l-111 268h-623l-110 -268h108v-154h-448z" />
    <glyph glyph-name="imacron" unicode="i&#x304;" horiz-adv-x="665" 
d="M-82 1284v160h850v-160h-850zM96 0v154h154v567q0 51 -21.5 65.5t-107.5 14.5h-17v155l330 23v-825h137v-154h-475z" />
    <glyph glyph-name="ibreve" unicode="i&#x306;" horiz-adv-x="665" 
d="M338 1278q96 0 173 78t81 225h156q-4 -211 -124 -340t-286 -129t-281.5 134t-117.5 335h153q4 -137 77 -220t169 -83zM96 0v154h154v567q0 51 -21.5 65.5t-107.5 14.5h-17v155l330 23v-825h137v-154h-475z" />
    <glyph glyph-name="IJ" unicode="IJ" horiz-adv-x="1996" 
d="M940 231q0 53 32 85t77 32t78.5 -31.5t33.5 -71.5t-22 -79q88 -33 174 -33q211 0 211 191v944h-207v155h520v-155h-119v-949q0 -178 -116.5 -260t-281.5 -82t-272.5 70.5t-107.5 183.5zM141 0v154h168v1114h-168v155h535v-155h-166v-1114h166v-154h-535z" />
    <glyph glyph-name="ij" unicode="ij" horiz-adv-x="1384" 
d="M907 1286q0 53 39 95t95 42t97.5 -38.5t41.5 -96.5t-41 -97.5t-97 -39.5t-95.5 41t-39.5 94zM815 -410q-102 0 -158.5 48t-56.5 106t31 86.5t73 28.5t74.5 -26t32.5 -87l37 -2q150 0 149 186v801q-2 45 -27.5 57.5t-115.5 12.5h-25v155l351 23v-1010l2 -45
q0 -94 -41 -163.5t-132.5 -120t-193.5 -50.5zM205 1289q0 56 42 95t95 39t94 -38.5t41 -96t-41 -97.5t-97 -40t-95 41t-39 97zM125 0v154h154v567q0 51 -21.5 65.5t-107.5 14.5h-17v155l330 23v-825h137v-154h-475z" />
    <glyph glyph-name="jcircumflex" unicode="j&#x302;" horiz-adv-x="731" 
d="M80 1339l340 254h2l340 -254l-92 -122l-248 198h-2l-246 -198zM136 -410q-105 0 -162.5 48t-57.5 105.5t30.5 86.5t73 29t75 -26t32.5 -87l43 -2q160 0 160 180v805q-2 45 -28 58.5t-116 13.5h-24v155l350 23v-1010l2 -45q0 -94 -42 -163.5t-108 -104.5
q-124 -66 -228 -66z" />
    <glyph glyph-name="uni01D0" unicode="i&#x30c;" horiz-adv-x="665" 
d="M10 1548v2l74 62h2l256 -291h2l256 291h2l74 -62v-2l-332 -413h-2zM96 0v154h154v567q0 51 -21.5 65.5t-107.5 14.5h-17v155l330 23v-825h137v-154h-475z" />
    <glyph glyph-name="uni01F0" unicode="j&#x30c;" horiz-adv-x="731" 
d="M90 1548v2l74 62h2l256 -291h2l256 291h2l74 -62v-2l-332 -413h-2zM136 -410q-105 0 -162.5 48t-57.5 105.5t30.5 86.5t73 29t75 -26t32.5 -87l43 -2q160 0 160 180v805q-2 45 -28 58.5t-116 13.5h-24v155l350 23v-1010l2 -45q0 -94 -42 -163.5t-108 -104.5
q-124 -66 -228 -66z" />
    <glyph glyph-name="uni0410_acutecomb" unicode="&#x410;&#x301;" horiz-adv-x="1734" 
d="M1024 1821q34 0 58 -30t24 -73t-34 -63t-58 -27q-24 -6 -27 -8l-291 -94l-53 145q348 150 381 150zM598 578h492l-211 522l-35 100q-34 -98 -136 -348t-110 -274zM82 0v154h174l502 1210q14 33 30 46t54 13h43q45 0 59 -14t37 -66l494 -1189h174v-154h-492v154h109
l-111 268h-623l-110 -268h108v-154h-448z" />
    <glyph glyph-name="ff" unicode="ff" horiz-adv-x="1374" 
d="M412 967h477v163l4 41q-49 41 -47 105q-4 4 -98 4q-268 0 -324 -121q-12 -25 -12 -65v-127zM1067 967h262v-154h-258v-659h193v-154h-529v154h154v659h-471v-659h153v-154h-489v154h154v659h-173v154h173v133q0 96 59 164.5t202.5 119t364.5 50.5h6q102 0 158 -80
q129 80 322 80q72 0 102.5 -47.5t30.5 -98.5t-31 -78.5t-74 -27.5q-88 0 -102 98q-209 -2 -209 -182l2 -31v-100z" />
    <glyph glyph-name="fi" unicode="fi" horiz-adv-x="1314" 
d="M63 813v154h173v112q0 119 102 237t536 118q98 0 140.5 -64t42.5 -130t-36 -94t-79 -28t-74.5 31t-31.5 68t6 57q-47 6 -90 6q-268 0 -328 -121q-12 -25 -12 -67v-125h323v14l336 12v-839h154v-154h-490v154h154v600q0 51 -17.5 55t-35.5 4h-418v-659h153v-154h-489v154
h154v659h-173z" />
    <glyph glyph-name="fl" unicode="fl" horiz-adv-x="1314" 
d="M412 967h477v231q-37 33 -43 80q-31 2 -94 2h-2q-270 0 -326 -121q-12 -25 -12 -65v-127zM1071 154h154v-154h-490v154h154v659h-471v-659h153v-154h-489v154h154v659h-173v154h173v131q0 96 61 166.5t206 120t367 49.5q49 0 76 -10.5t43 -10.5l82 10v-1269z" />
    <glyph glyph-name="ffi" unicode="ffi" horiz-adv-x="1968" 
d="M412 967h477v161q-59 45 -60 101q0 16 9 45q-47 6 -90 6q-264 0 -324 -119q-12 -27 -12 -69v-125zM63 813v154h173v127q0 96 51 157q86 102 250.5 142.5t324.5 40.5h4q35 0 57.5 -4.5t54.5 -29t54 -71.5q186 104 494 105q57 0 98 -24t63.5 -74t22.5 -102t-31.5 -84
t-79 -32t-79 31t-31.5 65t8 60q-47 6 -92 6q-266 0 -328 -121q-10 -20 -10 -67v-125h322v14l335 12v-839h154v-154h-489v154h153v600q0 52 -17.5 55.5t-35.5 3.5h-418v-659h154v-154h-490v154h154v659h-471v-659h153v-154h-489v154h154v659h-173z" />
    <glyph glyph-name="ffl" unicode="ffl" horiz-adv-x="1968" 
d="M1067 967h475v231q-37 33 -43 80q-31 2 -94 2q-272 0 -328 -121q-10 -20 -10 -65v-127zM412 967h477v94q0 78 6 110q-49 41 -49 95v10q-35 4 -105 4q-260 -2 -317 -119q-12 -27 -12 -69v-125zM63 813v154h173v127q0 98 53 164t194.5 121t380.5 55q37 0 60.5 -4.5
t55.5 -28t56 -68.5q195 100 494 101q37 0 65.5 -9.5t42.5 -9.5t86 8v-1269h154v-154h-489v154h153v659h-471v-659h154v-154h-490v154h154v659h-471v-659h153v-154h-489v154h154v659h-173z" />
    <glyph glyph-name=".notdef" horiz-adv-x="1556" 
d="M848 795l565 -566v1129zM215 1444l563 -565l563 565h-1126zM215 143h1126l-563 566zM143 229l566 566l-566 563v-1129zM20 20v1547h1516v-1547h-1516z" />
    <glyph glyph-name=".null" horiz-adv-x="0" 
 />
    <glyph glyph-name="nonmarkingreturn" horiz-adv-x="681" 
 />
    <glyph glyph-name="space" unicode=" " horiz-adv-x="784" 
 />
    <glyph glyph-name="exclam" unicode="!" horiz-adv-x="739" 
d="M231 1307q0 70 44.5 103.5t94.5 33.5t92 -35t42 -100q0 -23 -4 -68l-51 -741q-4 -41 -11.5 -51.5t-42.5 -10.5h-47q-33 0 -45 7.5t-14 35.5l-51 750q-7 74 -7 76zM231 136q0 54 40.5 95t96.5 41t96 -38t40 -96t-41 -98t-97 -40t-95.5 41t-39.5 95z" />
    <glyph glyph-name="quotedbl" unicode="&#x22;" 
d="M680 1344q0 42 34 69t72.5 27t71.5 -25.5t33 -85.5l-29 -512h-153q-29 485 -29 527zM388 1440q38 0 73 -27t35 -86l-27 -510h-156l-26 512q0 59 31.5 85t69.5 26z" />
    <glyph glyph-name="numbersign" unicode="#" horiz-adv-x="1961" 
d="M754 346h350l100 330h-350zM131 268q0 78 92 78h369l100 330h-454q-39 0 -58 6q-49 16 -49 72q0 78 98 77h512l156 517q18 73 82 73q31 0 53.5 -22.5t22.5 -49.5t-113 -397l-39 -121h350l156 517q18 73 82 73q31 0 53.5 -22.5t22.5 -49.5t-113 -397l-39 -121h301
q42 0 58 -3t35.5 -24.5t19.5 -42.5t-4 -36.5t-26.5 -32t-61.5 -16.5h-371l-100 -330h456q43 0 61 -6t32 -26.5t14 -45.5q0 -76 -98 -75h-514q-4 -14 -156 -515q-27 -76 -80 -75q-33 0 -54.5 23.5t-21.5 47.5t19.5 91t60.5 197t70 231h-350q-35 -125 -156 -517
q-27 -74 -80 -73q-35 0 -56.5 23.5t-21.5 45.5t22.5 99t63.5 205t66 217h-299q-42 0 -58 3t-35.5 23t-19.5 49z" />
    <glyph glyph-name="dollar" unicode="$" 
d="M874 399q0 62 -52 128.5t-156 93.5l-2 -72v-399q143 33 176.5 110t33.5 139zM299 1067q0 -68 54.5 -126t156.5 -81v414q-88 -16 -139.5 -60.5t-61.5 -78t-10 -68.5zM129 398q0 54 34 82t75 28t71.5 -29t30.5 -75t-43 -89q51 -137 213 -165v505q-172 33 -276.5 136.5
t-104.5 251.5t100.5 258t280.5 129v106h154v-106q119 -16 200.5 -61.5t130.5 -126.5t49 -185q0 -59 -32.5 -86t-74.5 -27t-72.5 28t-30.5 74t43 89q-59 115 -213 139v-449q184 -35 282 -154.5t98 -271.5t-68.5 -232.5t-141 -119.5t-170.5 -53v-107h-154v107q-119 14 -201 63
t-117.5 116t-49 119t-13.5 106z" />
    <glyph glyph-name="percent" unicode="%" horiz-adv-x="1961" 
d="M1350 289q0 -248 157 -248q68 0 122 60.5t54 196.5t-55.5 196.5t-113.5 60.5q-110 0 -137 -81.5t-27 -184.5zM1176 293q0 201 94 309.5t234 108.5t232.5 -107.5t92.5 -305.5t-92 -304.5t-227.5 -106.5t-234.5 102.5t-99 303.5zM303 1114q0 -248 158 -248q68 0 122 60.5
t54 196.5t-55.5 196.5t-113.5 60.5q-110 0 -137.5 -81.5t-27.5 -184.5zM129 1123q0 196 95 304.5t237 108.5q61 0 101 -16.5t100 -55.5q219 -141 461 -141t329.5 105.5t116.5 105.5t47 -19.5t16 -58.5q12 -16 12 -27t-21 -37t-46 -47.5t-55 -47t-43 -43t-133 -173.5
l-895 -1153q-31 -41 -60 -41t-46 18.5t-17 42.5t57 97l889 1145q-74 -12 -152 -12q-154 0 -348 67q10 -66 10 -123q0 -186 -90 -298.5t-232 -112.5t-237.5 108t-95.5 304z" />
    <glyph glyph-name="ampersand" unicode="&#x26;" horiz-adv-x="1837" 
d="M539 1099q0 -97 51 -261q39 27 86 60.5t109.5 104t62.5 125.5t-37 108.5t-100 53.5t-117.5 -47t-54.5 -144zM297 346q0 -94 84 -153.5t202 -59.5t251 72q-193 164 -324 385h-4q-139 -93 -169.5 -133t-35 -63t-4.5 -48zM96 328q0 114 53 175t76 78t32 24t26.5 18.5
t23.5 15.5t56.5 39t76.5 53q-68 186 -68 339t101 263.5t235 110.5t210.5 -101.5t76.5 -220.5q0 -203 -338 -426q104 -190 316 -383q31 33 56.5 63t45 52.5t44 56t36.5 51t40 59.5t39 60.5t46 74.5t51 83h-149v154h530v-154h-221q-229 -393 -416 -580q168 -100 293 -100
q168 0 184 123h148q-6 -131 -104 -205t-218 -74t-215.5 34t-153 67t-66.5 33t-63.5 -33t-149.5 -67t-204 -34q-186 0 -308 104t-122 247z" />
    <glyph glyph-name="quotesingle" unicode="'" horiz-adv-x="653" 
d="M219 1339q0 47 34 74t73 27t71.5 -27t32.5 -91t-27 -505h-155q-29 475 -29 522z" />
    <glyph glyph-name="parenleft" unicode="(" horiz-adv-x="915" 
d="M184 522q0 307 113 565.5t311 419.5q39 29 70 29h57q45 0 45 -23q0 -8 -43 -48t-103.5 -114.5t-121.5 -180t-104 -280t-43 -362.5t32.5 -341.5t74.5 -251t115.5 -204t132.5 -156.5q60 -49 60 -68t-45 -19h-55q-37 0 -70 27q-215 172 -320.5 436t-105.5 571z" />
    <glyph glyph-name="parenright" unicode=")" horiz-adv-x="915" 
d="M176 -512q-43 0 -43 23q0 14 37 44.5t104.5 106.5t122.5 182q152 291 152 668q0 286 -76 491t-160 311t-126 141.5t-48 42.5t-6 15q0 23 37 23h63q37 0 70 -27q215 -172 320.5 -436t105.5 -561t-105.5 -561t-320.5 -436q-35 -29 -70 -29l-26 2h-31z" />
    <glyph glyph-name="asterisk" unicode="*" 
d="M506 634q0 16 24 320q-211 -145 -242.5 -164.5t-58.5 -19.5t-51 23.5t-24 59.5t30 57.5t289 142.5q-12 4 -81.5 38t-172.5 80q-65 31 -65 73t24 66.5t50 24.5t55.5 -19.5t246.5 -166.5q-25 303 -24 307q0 33 23.5 55.5t54.5 22.5t57.5 -20t26.5 -48t-8.5 -114t-16.5 -203
q255 176 271 181t28 5h2q29 -2 53.5 -25.5t24.5 -59.5t-31 -58.5t-289 -138.5q18 -7 92 -43.5t151 -71.5t77 -77t-24.5 -66.5t-51.5 -24.5t-63.5 22.5t-239.5 161.5l25 -295q0 -37 -21 -63.5t-57 -26.5q-37 0 -60.5 24.5t-23.5 40.5z" />
    <glyph glyph-name="plus" unicode="+" horiz-adv-x="1830" 
d="M1698 512q0 -78 -107 -78h-600v-598q0 -109 -76 -108q-78 0 -77 96v610h-607q-100 0 -100 78t98 78h609v598q0 109 77 108q76 0 76 -98v-608h598q109 0 109 -78z" />
    <glyph glyph-name="comma" unicode="," horiz-adv-x="653" 
d="M188 140q0 52 38 92t105 40t111.5 -69t44.5 -179t-39.5 -210.5t-84 -153.5t-63.5 -53t-58 41t-39 52t29.5 46t62.5 101.5t37 152.5q-78 2 -111 45t-33 95z" />
    <glyph glyph-name="hyphen" unicode="-" horiz-adv-x="784" 
d="M25 393v180h626v-180h-626z" />
    <glyph glyph-name="period" unicode="." horiz-adv-x="653" 
d="M188 138q0 56 42 95t95.5 39t94.5 -38.5t41 -96t-41 -97.5t-97 -40t-95.5 41t-39.5 97z" />
    <glyph glyph-name="slash" unicode="/" 
d="M131 -444q0 22 19 77l727 1807q35 94 92 94q29 0 52 -22t23 -48t-16 -63l-729 -1811q0 -2 -7 -18t-20 -49t-65 -33q-29 0 -52.5 22t-23.5 44z" />
    <glyph glyph-name="zero" unicode="0" 
d="M592 133q127 0 203 94q90 113 90 449v123q0 265 -49.5 343.5t-107.5 113t-140 34.5q-147 0 -220 -103t-77 -409v-110q2 -98 6 -162t26.5 -154t63.5 -135q78 -84 205 -84zM90 711q0 83 4 153t22.5 166t52.5 165t126 159t291 90q281 0 373 -170.5t108 -301.5t16 -247
q0 -115 -4 -183.5t-22.5 -161.5t-51 -159.5t-124 -155t-293.5 -88.5q-273 0 -377.5 174t-112.5 325.5t-8 234.5z" />
    <glyph glyph-name="one" unicode="1" 
d="M649 1444h8q25 0 37.5 -11.5t14.5 -22.5t2 -34v-1222h293v-154h-777v154h295v1063q-135 -68 -307 -70v156q117 2 200 24.5t115.5 48t63.5 47t55 21.5z" />
    <glyph glyph-name="two" unicode="2" 
d="M117 0v117q0 23 42 62.5t193 175.5t218 194.5t89.5 80t109.5 118.5t87 240q0 144 -116 223t-256 79t-197 -141q47 -41 47 -90t-32 -80t-74 -31t-76.5 28t-34.5 89q0 150 125.5 264.5t325.5 114.5t345.5 -125t145.5 -324q0 -113 -46 -191.5t-107.5 -138t-91.5 -84.5
t-120 -95t-342 -291h416l106 2q12 41 31 155h154l-51 -352h-891z" />
    <glyph glyph-name="three" unicode="3" 
d="M459 850h41q168 0 240.5 94t72.5 176t-49 137.5t-182 55.5h-2q-145 -2 -230 -64v-2q29 -39 29 -81t-33 -71.5t-77 -29.5t-75.5 30.5t-31.5 82.5q0 119 117.5 191.5t304.5 74.5h2q119 0 207 -31t153.5 -104t65.5 -183q0 -209 -228 -358q145 -41 219 -140.5t74 -224.5
q0 -170 -124 -298t-349 -128t-366.5 93.5t-141.5 238.5q0 61 36 89t79 28t74.5 -30.5t31.5 -80t-36 -86.5v-4q103 -104 281 -104t244 83t66 199q0 287 -311 287h-96q-51 0 -62.5 8.5t-11.5 44.5v25l-2 20q0 39 16.5 50.5t53.5 11.5z" />
    <glyph glyph-name="four" unicode="4" 
d="M702 535v741q-27 -140 -395 -655q-39 -57 -59 -86h454zM63 379v123q0 31 25 67l557 793q23 33 35 47t53 14h74q37 0 52 -11t15 -50v-827h236v-156h-236v-225h230v-154h-641v154h227v225h-627z" />
    <glyph glyph-name="five" unicode="5" 
d="M117 311q0 53 30.5 83t75.5 30t77 -30t32 -76t-37 -82q84 -115 252 -115q135 0 223 71.5t88 247.5q0 305 -248 305q-165 0 -220.5 -68.5t-64.5 -72.5t-55 -4h-8q-27 0 -46 3.5t-19 64.5v712q0 61 24 62q10 0 57.5 -16.5t128 -34t175 -17.5t176.5 17.5t129 34t53 16.5
q27 0 27 -58v-47q0 -27 -8.5 -37t-43.5 -24q-188 -80 -403 -80q-96 0 -160 12v-389q125 82 264 82q199 0 321 -128t122 -336t-140.5 -334t-348.5 -126t-330.5 99.5t-122.5 234.5z" />
    <glyph glyph-name="six" unicode="6" 
d="M605 811q-130 0 -214 -87t-84 -220t43 -222t102.5 -125t141.5 -36q280 0 280 332l3 49q0 166 -71 237.5t-201 71.5zM96 707q0 164 40 295t103.5 211.5t181.5 155.5t278 75q161 0 240 -67.5t79 -172.5q0 -57 -33 -84.5t-74 -27.5t-72.5 29.5t-31.5 70.5t29 80v2
q-55 39 -121 39q-186 0 -300 -143.5t-114 -389.5q147 184 393 185q174 0 278.5 -135.5t104.5 -356.5q0 -135 -35.5 -219t-109.5 -152q-130 -125 -352 -125q-222 -1 -353 175t-131 555z" />
    <glyph glyph-name="seven" unicode="7" 
d="M1143 1327q0 -28 -6.5 -37.5t-9.5 -14.5t-11 -15t-136 -172t-184 -241t-101.5 -225.5t-53.5 -255t-11 -206t-7 -109.5q-10 -39 -41.5 -56.5t-55.5 -17.5t-44.5 7.5t-43 37t-22.5 78.5q8 481 270 836q6 8 14.5 18.5t24.5 32t36.5 47t63.5 78.5t93 117h-488l-117 -2
q-12 -39 -30 -158h-154l59 406h154q6 -35 23.5 -43.5t76.5 -8.5h45l220 -2l436 2v-96z" />
    <glyph glyph-name="eight" unicode="8" 
d="M846 1108q0 102 -75 153.5t-197 51.5t-184 -54t-62 -121t42 -109t255 -167q221 88 221 246zM274 369q0 -123 90 -185.5t238 -62.5t222.5 68.5t74.5 152.5t-45.5 129.5t-120.5 93t-186 111.5q-94 -33 -155.5 -80t-89.5 -112t-28 -115zM162 1103q0 149 116 246t302 97
t309 -85t123 -241t-75.5 -227t-160.5 -123q2 -2 36 -21.5t44 -25.5t42 -27.5t46 -36t40 -40t38 -49t33.5 -65t21.5 -126.5q0 -180 -133 -291t-351 -111t-357.5 98.5t-139.5 281.5t81 259t118 100.5t92 55.5q-79 48 -152 115t-73 216z" />
    <glyph glyph-name="nine" unicode="9" 
d="M784 702q82 90 82 226t-60 260.5t-209 124.5q-298 0 -298 -344v-37l-2 -31q0 -107 55.5 -198t202.5 -91t229 90zM592 1444q485 0 485 -719q0 -170 -39 -305t-100 -216t-171.5 -154t-282.5 -73q-171 0 -249.5 73t-78.5 169q0 51 30.5 81t74.5 30t75 -30t31 -70t-25 -76
q55 -33 133 -33t136.5 20.5t119 71.5t99 161.5t44.5 268.5q-158 -186 -395 -186q-172 0 -278 137q-61 78 -83 159.5t-22 198.5q0 232 140 362t356 130z" />
    <glyph glyph-name="colon" unicode=":" horiz-adv-x="653" 
d="M188 832q0 56 42 96t96 39q54 0 94 -39q41 -38 41 -96t-41 -98t-97 -40t-96 41q-39 41 -39 97zM188 138q0 56 42 95t96 39t94 -39q41 -39 41 -96t-41 -97t-97 -40t-96 41q-39 41 -39 97z" />
    <glyph glyph-name="semicolon" unicode=";" horiz-adv-x="653" 
d="M188 832q0 56 42 96t96 39q54 0 94 -39q41 -38 41 -96t-41 -98t-97 -40t-96 41q-39 41 -39 97zM188 140q0 52 38 92t105 40t111 -68t45 -180q0 -110 -40 -210t-83 -154q-44 -53 -64 -53t-58 41q-39 41 -39 52t29 46q30 36 63 102t37 152q-78 2 -111 45t-33 95z" />
    <glyph glyph-name="less" unicode="&#x3c;" horiz-adv-x="1830" 
d="M197 508q0 14 2 24.5t14.5 27t60.5 40.5l1229 637q33 16 59 16t48 -23.5t22 -44.5t-4 -32.5t-10 -21t-33 -25.5t-31 -16l-1114 -578q14 -6 39 -20.5t37 -20.5l1038 -537q2 0 12.5 -6t38 -20t27.5 -66q0 -27 -22.5 -49t-49.5 -22q-28 -1 -146 61t-161 84l-977 506
q-62 34 -70.5 53t-8.5 33z" />
    <glyph glyph-name="equal" unicode="=" horiz-adv-x="1830" 
d="M131 753.5q0 77.5 100 77.5h1371q39 0 67.5 -19.5t28.5 -46.5t-5 -41.5t-28 -31t-59 -16.5h-1381q-94 0 -94 77.5zM131 268q0 39 26.5 58.5t65.5 19.5h1383q39 0 65.5 -19.5t26.5 -56.5q0 -78 -101 -77h-1364q-102 -1 -102 75z" />
    <glyph glyph-name="greater" unicode="&#x3e;" horiz-adv-x="1830" 
d="M197 -157q0 28 16 48.5t24.5 24.5t34.5 18l1117 578l-1117 578q-2 2 -16 9t-36.5 21t-22.5 51q0 36 22.5 59t45.5 23t61 -18l1226 -635q23 -9 42.5 -24t28.5 -28.5t9 -29.5t-2 -26.5t-8 -18.5t-10 -13t-14.5 -11.5t-28.5 -18.5l-1243 -643q-33 -16 -59 -16t-48 22t-22 50
z" />
    <glyph glyph-name="question" unicode="?" horiz-adv-x="1112" 
d="M385 136q0 54 40 95t96 41t96 -38t40 -96t-41 -98t-97 -40t-95 41t-39 95zM129 1137q0 123 111.5 210t267.5 87q295 0 383 -97.5t88 -204.5q0 -108 -66 -182q-20 -23 -80.5 -66.5t-106.5 -81.5t-86 -112t-40 -162v-28q0 -41 -9 -51.5t-52 -10.5h-45q-31 0 -40.5 12.5
t-9.5 36.5v45q0 303 244 472q6 0 34 23.5t42 46t14 63.5q0 86 -63.5 114.5t-167.5 28.5h-6q-147 0 -230 -74q29 -44 29 -82t-30.5 -67t-74.5 -29t-75 30t-31 79z" />
    <glyph glyph-name="at" unicode="@" horiz-adv-x="1830" 
d="M623 712q0 -142 80.5 -226.5t209.5 -84.5t210 71t81 161v147q0 109 -86 175.5t-210 66.5t-204.5 -84t-80.5 -226zM129 709q0 326 213 525.5t569 199.5h2q360 0 573.5 -201t213.5 -522q0 -199 -86 -331t-223 -132q-104 0 -164 108q-147 -111 -316 -110q-209 0 -338 128
t-129 337t128 337t341 128q133 0 235.5 -55.5t158.5 -153.5h26q27 0 39 -10.5t12 -41.5v-440q0 -72 56 -72q112 1 112 285t-176 438t-466 154t-462 -159.5t-172 -409.5q0 -167 65 -273t135.5 -163.5t186 -94.5t299.5 -37t393.5 37t217.5 37h80q43 0 43 -18t-41 -39
q-348 -170 -723 -170t-589 196.5t-214 522.5z" />
    <glyph glyph-name="A" unicode="A" horiz-adv-x="1734" 
d="M598 578h492l-211 522l-35 100q-33 -98 -135.5 -348.5t-110.5 -273.5zM82 0v154h174l502 1210q14 33 30.5 46t53.5 13h43q45 0 59 -14t37 -66l494 -1189h174v-154h-492v154h109l-111 268h-623l-110 -268h108v-154h-448z" />
    <glyph glyph-name="B" unicode="B" horiz-adv-x="1652" 
d="M502 817h360q211 0 303 74t92 163t-66.5 140t-135 62.5t-150.5 11.5h-403v-451zM502 154h401q299 0 387 143q29 47 29 94t-14.5 86t-51 85t-119.5 74t-204 28h-428v-510zM154 0v154h159v1114h-159v155h759q156 0 267.5 -35.5t167.5 -93.5q104 -108 104 -235
q0 -225 -311 -314q156 -23 267.5 -112.5t111.5 -241.5q0 -82 -44 -172t-168 -154.5t-350 -64.5h-804z" />
    <glyph glyph-name="C" unicode="C" horiz-adv-x="1701" 
d="M1569 938q-1 -49 -35 -49q-13 0 -34.5 1t-44.5 1t-34.5 9t-8 30t-38 111.5t-139.5 169.5q-97 79 -243 79q-284 0 -471 -139.5t-187 -437.5q0 -133 41 -237.5t105.5 -168t152.5 -103.5q156 -71 337 -71t304 88t137 232q4 37 13.5 46t43.5 9h48q31 0 41 -8t10 -37
q0 -180 -177.5 -333t-453 -153t-479.5 120.5t-285 349.5q-43 121 -43 266q0 330 217 530.5t574 200.5q264 0 466 -174q76 125 97.5 149.5t46.5 24.5q39 0 39 -47v-459z" />
    <glyph glyph-name="D" unicode="D" horiz-adv-x="1783" 
d="M506 154h350q154 6 219 22q375 92 375 522q0 569 -596 570h-348v-1114zM152 0v154h159v1114h-159v155h737q365 1 563 -197t199 -512q0 -314 -172 -499.5t-467 -210.5q-41 -4 -123 -4h-737z" />
    <glyph glyph-name="E" unicode="E" horiz-adv-x="1501" 
d="M508 154h315q327 0 367 23q20 11 36.5 57t53.5 292h156l-78 -526h-1208v154h159v1108h-159v155h1169l51 -473h-156q-14 121 -21 173q-15 115 -47 127q-43 17 -370 18h-268v-449h117q162 0 189.5 8t30.5 52.5t3 113.5v17h153v-537h-153v18q0 106 -7 135t-41 34t-175 5
l-117 -2v-503z" />
    <glyph glyph-name="F" unicode="F" horiz-adv-x="1435" 
d="M745 629l-124 2h-113v-477h201v-154h-559v154h159v1108h-159v155h1136l51 -473h-153q-31 264 -57.5 291t-335.5 27h-283v-476l113 -2q154 0 180 9.5t30 76t5 107.5h153v-537h-153q0 139 -11.5 163t-79.5 26z" />
    <glyph glyph-name="G" unicode="G" horiz-adv-x="1841" 
d="M1569 938q-1 -49 -35 -49q-13 0 -23 2h-6q-80 0 -86 12t-13 49q-27 141 -167 256q-100 82 -258 82q-285 0 -466 -144.5t-181 -432.5q0 -250 137 -394.5t377 -177.5q59 -8 193 -8t209 18.5t96.5 46t21.5 83.5v159h-295v154h660v-154h-164v-374q0 -61 -25 -62
q-27 0 -100 78q-131 -104 -506 -105q-207 0 -367.5 62.5t-254.5 168.5q-188 212 -187 503q0 332 218 532.5t573 200.5q264 0 466 -174q76 125 97.5 149.5t46.5 24.5q39 0 39 -47v-459z" />
    <glyph glyph-name="H" unicode="H" horiz-adv-x="1820" 
d="M150 0v154h159v1114h-159v155h518v-155h-160v-451h803v451h-160v155h518v-155h-158v-1114h158v-154h-518v154h160v510h-803v-510h160v-154h-518z" />
    <glyph glyph-name="I" unicode="I" horiz-adv-x="819" 
d="M141 0v154h168v1114h-168v155h535v-155h-166v-1114h166v-154h-535z" />
    <glyph glyph-name="J" unicode="J" horiz-adv-x="1193" 
d="M135 231q0 51 33 84t78 33t77.5 -31.5t32.5 -71.5t-22 -79q72 -33 176 -33q209 0 209 193v942h-207v155h520v-155h-119v-949q0 -168 -110.5 -255t-280.5 -87t-278.5 70.5t-108.5 183.5z" />
    <glyph glyph-name="K" unicode="K" horiz-adv-x="1800" 
d="M154 0v154h159v1114h-159v155h508v-155h-160v-617l725 617h-33v155h473v-155h-180q-25 0 -34 -5.5t-54 -41.5l-441 -375v-2l560 -690h182v-154h-457v154h53l-469 579l-288 -244q-27 -25 -32 -35t-5 -36v-264h160v-154h-508z" />
    <glyph glyph-name="L" unicode="L" horiz-adv-x="1370" 
d="M150 0v154h159v1114h-159v155h559v-155h-201v-1114h246q252 0 292 26q22 14 34.5 62t37.5 284h154l-51 -526h-1071z" />
    <glyph glyph-name="M" unicode="M" horiz-adv-x="2213" 
d="M164 0v154h160v1114h-160v155h340q37 0 54 -11t34 -48l465 -1059q43 -96 49 -112l512 1169q16 37 34.5 49t55.5 12h340v-155h-160v-1114h160v-154h-492v154h160v964l-2 142q-10 -25 -30.5 -71t-24.5 -56l-471 -1076q-16 -37 -33.5 -47t-56.5 -10h-13q-43 0 -59 14.5
t-39 65.5l-512 1167v-1093h160v-154h-471z" />
    <glyph glyph-name="N" unicode="N" horiz-adv-x="1820" 
d="M154 0v154h159v1114h-159v155h311q29 0 41 -7t33 -34l813 -1056v942h-160v155h471v-155h-160v-1198q0 -43 -14 -56.5t-41 -13.5h-37q-29 0 -41 7t-33 34l-872 1133v-1020h160v-154h-471z" />
    <glyph glyph-name="O" unicode="O" horiz-adv-x="1746" 
d="M334 733q0 -272 143.5 -427.5t395 -155.5t394 156.5t142.5 426.5t-148.5 408.5t-389.5 138.5t-389 -137.5t-148 -409.5zM129 704q0 332 203 536t540.5 204t539.5 -204t202 -535t-203 -529.5t-540 -198.5t-539.5 197.5t-202.5 529.5z" />
    <glyph glyph-name="P" unicode="P" horiz-adv-x="1587" 
d="M506 711h315q137 0 232.5 23.5t145.5 93t50 154.5t-31.5 140.5t-73.5 83.5q-95 62 -304 62h-334v-557zM152 0v154h159v1114h-159v155h716q250 0 392 -88q195 -119 194 -346q0 -151 -110 -279q-60 -68 -181 -110.5t-289 -42.5h-364v-403h160v-154h-518z" />
    <glyph glyph-name="Q" unicode="Q" horiz-adv-x="1746" 
d="M866.5 207q-75.5 0 -75.5 -32t75 -32h8q53 0 115 11q-47 53 -122.5 53zM330 702q0 -193 78.5 -327.5t222.5 -188.5q12 86 82.5 131t156.5 45q147 0 234 -178q145 53 227 186.5t82 329.5q0 276 -146.5 427t-395.5 151t-395 -151t-146 -425zM1552 -20q4 55 39 55
q35 1 35 -65q0 -90 -54 -218q-28 -64 -86.5 -106.5t-143.5 -42.5q-86 1 -136 51q-20 20 -32.5 33.5t-28 45t-22.5 45.5q-18 35 -64 218q-111 -18 -189 -19q-338 0 -539.5 198.5t-201.5 529.5t200.5 535t535.5 204t542 -200t207 -544q0 -258 -125 -433t-326 -242
q41 -123 88 -170.5t114 -47.5t121 46.5t66 126.5z" />
    <glyph glyph-name="R" unicode="R" horiz-adv-x="1718" 
d="M506 788h262q170 0 274.5 31t149.5 113q25 47 25 96q0 123 -119 186q-100 53 -318 54h-274v-480zM1331 313q0 -180 136 -180q73 -1 89 61q8 26 14.5 36.5t45.5 11.5h35q57 0 57 -49q0 -72 -59.5 -144t-185 -72t-220 62.5t-110.5 179.5q-4 45 -5 68v125q0 70 -24 108
q-76 115 -336 115h-262v-481h158v-154h-512v154h159v1114h-159v155h620q406 0 565 -180q84 -96 84 -206.5t-63.5 -198.5t-186.5 -140v-2q98 -63 130 -141t32 -176z" />
    <glyph glyph-name="S" unicode="S" horiz-adv-x="1308" 
d="M129 27v403q2 29 13.5 36t35.5 7h43q45 0 52 -10t11 -45q10 -98 74 -168q115 -117 353 -117q150 0 218 73t68 156t-43 139t-94 80.5t-231 60.5t-232 56q-109 43 -188.5 136.5t-79.5 224.5q0 164 121 274.5t340 110.5t375 -139q63 124 83 135q8 4 23 4q39 0 39 -49v-402
q-2 -31 -15.5 -38t-70.5 -7h-14q-35 0 -42 9.5t-16.5 48t-29 86t-56.5 96.5t-109.5 80.5t-185 31.5t-188.5 -60t-76 -146.5t55.5 -139.5t107.5 -68t206.5 -48t195.5 -45q121 -39 212.5 -143.5t91.5 -267.5t-120 -284t-366.5 -121t-417.5 136q-49 -94 -64 -115t-40 -21
q-39 1 -39 50z" />
    <glyph glyph-name="T" unicode="T" horiz-adv-x="1615" 
d="M1069 1257h-162v-1103h226v-154h-652v154h226v1103h-213q-188 0 -212 -25.5t-44 -293.5h-154l35 473h1376l35 -473h-156q-19 284 -51 301q-31 18 -254 18z" />
    <glyph glyph-name="U" unicode="U" horiz-adv-x="1777" 
d="M150 1268v155h518v-155h-160v-770q0 -365 402.5 -365t402.5 365v770h-160v155h473v-155h-158v-768q0 -150 -54 -257.5t-143 -161.5q-171 -104 -359 -104q-302 0 -468 157q-60 56 -97.5 150.5t-37.5 213.5v770h-159z" />
    <glyph glyph-name="V" unicode="V" horiz-adv-x="1734" 
d="M51 1268v155h486v-155h-105l397 -903l60 -142l61 150l393 895h-104v155h442v-155h-168l-536 -1211q-16 -35 -34.5 -46t-53.5 -11h-31q-51 0 -69.5 12.5t-43.5 67.5l-526 1188h-168z" />
    <glyph glyph-name="W" unicode="W" horiz-adv-x="2390" 
d="M47 1268v155h461v-155h-113l242 -688q104 -311 113 -357q18 100 354 1045h-129v155h461v-155h-115l231 -658q113 -338 125 -387l21 78l100 303l234 664h-131v155h438v-155h-152l-432 -1211q-12 -35 -29.5 -46t-52.5 -11h-33q-39 0 -55 14.5t-33 59.5l-372 1042
q-47 -201 -353 -1061q-12 -33 -29.5 -44t-49.5 -11h-37q-34 0 -44 7t-15 9t-10 14.5t-7 15.5t-8 20.5t-6 19.5l-422 1182h-152z" />
    <glyph glyph-name="X" unicode="X" horiz-adv-x="1734" 
d="M72 0v154h211l456 583v2l-428 529h-205v155h500v-155h-53l307 -377l297 377h-65v155h473v-155h-179q-25 0 -35 -7.5t-36 -41.5l-354 -453l495 -612h205v-154h-500v154h51l-372 460l-361 -460h64v-154h-471z" />
    <glyph glyph-name="Y" unicode="Y" horiz-adv-x="1734" 
d="M43 1268v155h504v-155h-62l408 -539l403 539h-59v155h453v-155h-199l-502 -666q-18 -25 -21 -35t-3 -49v-364h157v-154h-512v154h160v362q0 39 -3 49t-22 35l-503 668h-199z" />
    <glyph glyph-name="Z" unicode="Z" horiz-adv-x="1439" 
d="M776 1268q-262 0 -324 -10q-60 -10 -80 -28q-42 -40 -55 -280h-155l20 473h1061q41 0 52.5 -14t11.5 -58t-33 -85l-862 -1100h280q274 0 338 9t83.5 31.5t30.5 96.5t21 246h154l-31 -549h-1095q-35 0 -49.5 11t-14.5 48v27l2 27q0 18 8 26t13.5 15.5t7.5 9.5l868 1104
h-252z" />
    <glyph glyph-name="bracketleft" unicode="[" horiz-adv-x="653" 
d="M233 -512v2048h367v-154h-182v-1740h182v-154h-367z" />
    <glyph glyph-name="backslash" unicode="\" 
d="M131 1461q0 30 23.5 51.5t52.5 21.5q53 0 84 -78l729 -1814q24 -59 24 -82t-22.5 -46.5t-48.5 -23.5q-45 0 -63 27t-31 61l-732 1817q-16 36 -16 66z" />
    <glyph glyph-name="bracketright" unicode="]" horiz-adv-x="653" 
d="M51 -358h185v1740h-185v154h367v-2048h-367v154z" />
    <glyph glyph-name="asciicircum" unicode="^" horiz-adv-x="1439" 
d="M262 1102l457 207l457 -207l-64 -141q-383 166 -393 165.5t-393 -165.5z" />
    <glyph glyph-name="underscore" unicode="_" horiz-adv-x="1830" 
d="M276 -698q-79 0 -79 62t79 63h1272q82 -1 82 -63t-82 -62h-1272z" />
    <glyph glyph-name="grave" unicode="`" 
d="M246 1327q0 37 27.5 67.5t57.5 30.5t105.5 -45t255.5 -170l-78 -133q-10 4 -80.5 43t-209.5 113q-78 39 -78 94z" />
    <glyph glyph-name="a" unicode="a" horiz-adv-x="1150" 
d="M285 280q0 -42 53 -89.5t144.5 -47.5t153.5 26q118 50 118 157v151q-360 -5 -448 -127q-20 -28 -21 -70zM94 300q0 72 62 136t164 96q197 60 434 60v47q0 109 -82 156q-59 35 -183 34q-53 0 -110 -4q-2 -61 -36 -87.5t-74 -26.5t-70.5 29.5t-30.5 76.5q0 166 332 166
q332 -1 416 -201q26 -62 26 -141v-428q2 -35 27.5 -46t85 -12t74 -12.5t14.5 -46.5v-35q0 -37 -13.5 -49t-46.5 -12h-57q-139 0 -190.5 30.5t-65.5 90.5q-152 -133 -399 -133q-96 0 -162 54t-90.5 119t-24.5 139z" />
    <glyph glyph-name="b" unicode="b" horiz-adv-x="1318" 
d="M709 143q330 0 329.5 340t-307.5 340q-109 0 -206 -49t-97 -123v-289q2 -74 84 -146.5t197 -72.5zM86 1245v156l338 22v-553q190 109 436 109q172 0 275.5 -133t103.5 -360.5t-121 -361.5t-329.5 -134t-378.5 139l-17 -129h-153v1167q0 49 -23.5 63.5t-105.5 14.5h-25z
" />
    <glyph glyph-name="c" unicode="c" horiz-adv-x="1046" 
d="M238 868q129 118 371 117q243 0 309 -74q34 -37 34 -88t-30.5 -81.5t-68.5 -30.5q-98 0 -110 104h-2q-82 4 -123 4q-340 0 -339 -332q0 -94 34.5 -163.5t90.5 -104.5q105 -65 237 -65q72 0 113 34.5t59 77.5t26.5 48t65.5 5h27q45 0 45 -26q0 -38 -39 -101t-80 -103
t-113.5 -69.5t-160.5 -29.5q-225 0 -365.5 134t-140.5 366t160 378z" />
    <glyph glyph-name="d" unicode="d" horiz-adv-x="1318" 
d="M610 823q-331 0 -331 -340t303 -340q123 0 215 75t92 151v282q0 43 -29 74q-90 98 -250 98zM78 483q0 213 106.5 354.5t323.5 141.5t387 -105v297q-2 49 -27.5 61.5t-113.5 12.5h-13v156l336 22v-1190q0 -51 22.5 -65t106.5 -14h25v-154l-342 -10v131
q-182 -131 -402 -131q-149 0 -269 103q-62 54 -101 154.5t-39 235.5z" />
    <glyph glyph-name="e" unicode="e" horiz-adv-x="1048" 
d="M546.5 829q-225.5 0 -272.5 -223h535q-37 223 -262.5 223zM63 484q0 226 135.5 362.5t356.5 136.5q121 0 209 -41q88 -42 133 -110q84 -128 84 -297q0 -35 -13.5 -46.5t-43.5 -13.5h-660q8 -103 30 -142q53 -92 129.5 -134.5t208.5 -42.5t184 100q22 41 30 47t39 6h18
q74 0 74 -39q0 -58 -93 -162q-44 -50 -125 -84t-175 -34q-225 0 -373 134t-148 360z" />
    <glyph glyph-name="f" unicode="f" horiz-adv-x="718" 
d="M74 813v154h170v125q0 106 49 178q115 164 412 164q74 0 102.5 -48.5t28.5 -97.5t-30 -77.5t-73 -28.5q-90 0 -102 98q-209 -2 -209 -182v-131h262v-154h-256v-659h190v-154h-528v154h154v659h-170z" />
    <glyph glyph-name="g" unicode="g" 
d="M319 628q0 -212 202 -212t202 212t-202 212t-202 -212zM236 -127q0 -66 92 -104.5t247 -40.5h5q135 0 221 25.5t111.5 55t25.5 60.5q0 121 -332 121h-194q-92 0 -134 -34t-42 -83zM63 -131q0 141 144 213q-47 76 -47 159t55 160q-80 96 -80 240t104.5 241t282.5 97
q133 0 242 -68q104 78 227 78q63 0 106.5 -35.5t43.5 -83t-27 -72t-63 -24.5q-57 0 -86 62l-117 -7q59 -98 59 -200q0 -158 -105.5 -255.5t-279.5 -97.5q-119 0 -231 60q-10 -29 -10 -71t35.5 -71.5t93.5 -29.5h221q296 0 398 -100q81 -79 81 -184q0 -106 -104 -190
q-54 -44 -162.5 -72t-257.5 -28q-281 0 -402 86.5t-121 192.5z" />
    <glyph glyph-name="h" unicode="h" horiz-adv-x="1318" 
d="M94 0v154h154v1020q-2 45 -25.5 58t-105.5 13h-23v156l338 22v-598q137 154 340 154q232 -1 290 -151q28 -72 28 -181v-493h153v-154h-495v154h153v487q0 41 -5 67q-6 26 -26 56q-39 59 -190 59q-94 0 -169 -63.5t-75 -216.5v-389h154v-154h-496z" />
    <glyph glyph-name="i" unicode="i" horiz-adv-x="665" 
d="M176 1285q0 54 39 96t95 42t96 -38.5t40 -97t-40.5 -97.5t-97 -39t-94.5 40t-38 94zM96 0v154h154v567q0 51 -21.5 65.5t-107.5 14.5h-17v155l330 23v-825h137v-154h-475z" />
    <glyph glyph-name="j" unicode="j" horiz-adv-x="731" 
d="M240 1286q0 53 38.5 95t95 42t97.5 -38.5t41 -97t-41 -97.5t-97 -39t-95 41t-39 94zM136 -410q-105 0 -162.5 48t-57.5 105.5t30.5 86.5t73 29t75 -26t32.5 -87l43 -2q160 0 160 180v805q-2 45 -28 58.5t-116 13.5h-24v155l350 23v-1010l2 -45q0 -94 -42 -163.5
t-108 -104.5q-124 -66 -228 -66z" />
    <glyph glyph-name="k" unicode="k" horiz-adv-x="1253" 
d="M92 0v154h154v1020q-2 45 -25.5 58t-105.5 13h-23v156l328 22v-888l313 278h-63v154h491v-154h-176q-25 0 -45 -14.5t-90 -79t-148 -129.5q2 -2 157 -201t170 -217.5t40 -17.5h145v-154h-432v154h52l-252 325h-2q-46 -44 -99 -88.5t-60 -56.5t-7 -33v-147h153v-154h-475z
" />
    <glyph glyph-name="l" unicode="l" horiz-adv-x="665" 
d="M96 0v154h154v1020q-2 45 -25.5 58t-105.5 13h-23v156l338 22v-1269h154v-154h-492z" />
    <glyph glyph-name="m" unicode="m" horiz-adv-x="1974" 
d="M94 0v154h154v567q0 53 -22.5 66.5t-112.5 13.5h-19v155l332 23v-162q137 162 344 162q161 0 221 -54t82 -116q139 170 352 170q243 0 297 -158q24 -68 23 -176v-491h153v-154h-495v154h153v487q0 94 -40.5 137t-174.5 45q-100 0 -174.5 -64.5t-74.5 -215.5v-389h153
v-154h-495v154h153v487q0 90 -41 135t-159.5 46t-192.5 -62.5t-74 -216.5v-389h154v-154h-496z" />
    <glyph glyph-name="n" unicode="n" horiz-adv-x="1318" 
d="M94 0v154h154v567q0 53 -22.5 66.5t-112.5 13.5h-19v155l332 23v-162q137 162 346 162q241 0 294 -158q24 -72 24 -176v-491h153v-154h-495v154h153v487q0 41 -5 67q-6 26 -26 56q-39 59 -190 59q-94 0 -169 -63.5t-75 -216.5v-389h154v-154h-496z" />
    <glyph glyph-name="o" unicode="o" 
d="M264 502q0 -348 322 -348q180 0 251.5 94t71.5 254q0 328 -319 327q-326 1 -326 -327zM63 480q0 224 143.5 363.5t380.5 139.5t380 -140.5t143 -363.5t-142.5 -356t-381 -133t-381 133t-142.5 357z" />
    <glyph glyph-name="p" unicode="p" horiz-adv-x="1318" 
d="M428 360q0 -72 83 -144.5t212 -72.5t222 91.5t93 245.5t-85 243.5t-210 89.5t-202.5 -40t-104.5 -83q-8 -12 -8 -43v-287zM86 -244h154v975q-2 45 -26 57.5t-105 12.5h-23v155l338 23v-109q188 109 457 109q168 0 263 -135t95 -370q0 -236 -128 -360q-127 -124 -321 -124
t-362 123v-357h154v-155h-496v155z" />
    <glyph glyph-name="q" unicode="q" horiz-adv-x="1253" 
d="M279 484q0 -157 85 -249t214 -92t207.5 70t103.5 137q6 18 6 58v170q0 88 -86 161.5t-213 73.5t-222 -86t-95 -243zM78 485q0 227 114.5 360.5t307.5 133.5q231 0 411 -143l17 143h149v-1223h154v-155h-496v155h154v371q-178 -137 -380.5 -137t-316.5 134t-114 361z" />
    <glyph glyph-name="r" unicode="r" horiz-adv-x="929" 
d="M424 154h190v-154h-528v154h154v567q0 53 -22.5 66.5t-113.5 13.5h-18v155l326 23v-92l2 -72q109 164 270 164h2q70 0 123 -43t53 -97.5t-30.5 -83t-73.5 -28.5q-82 0 -101 94q-115 -27 -175 -119t-60 -237l2 -45v-266z" />
    <glyph glyph-name="s" unicode="s" horiz-adv-x="929" 
d="M78 43v279q2 27 13 35t42 8t47.5 -1.5t26.5 -2.5q24 -2 39 -64q55 -154 225 -154q115 0 160 40t45 86t-20.5 73t-60.5 42t-76 23.5t-92 18.5t-85 16q-106 27 -185 93.5t-79 169.5t74.5 190.5t302.5 87.5q127 0 217 -55h2q4 4 12 13t11 12t10.5 9.5t10.5 9.5t11 7t28 4
t27 -11t7 -38v-225q-2 -25 -13.5 -33t-57.5 -8q-89 0 -85 30q7 50 -42.5 97t-152.5 47q-188 0 -188 -109q0 -41 38 -68.5t83 -37t117.5 -21.5t105.5 -22q102 -29 178 -102.5t76 -185t-69 -200.5q-84 -108 -308 -108q-150 0 -260 92q-9 -14 -20 -27.5t-17 -23t-15 -18.5
t-13.5 -11t-11 -6t-22.5 -4q-36 0 -36 53z" />
    <glyph glyph-name="t" unicode="t" horiz-adv-x="915" 
d="M784 383v-51q0 -96 -36 -168t-94 -106q-112 -68 -210 -68q-158 0 -198 178q-14 61 -15 162v483h-188v154q219 14 223 415h156v-415h321v-154h-321v-487q0 -111 34 -141t71.5 -29.5t70.5 40.5t33 140l-2 47h155z" />
    <glyph glyph-name="u" unicode="u" horiz-adv-x="1318" 
d="M94 801v155l342 23v-709q0 -76 32 -101.5t151 -25.5t200.5 53.5t81.5 163.5v367q0 49 -24.5 61.5t-110.5 12.5h-18v155l342 23v-750q0 -49 26.5 -62t108.5 -13h18v-154l-336 -10v139q-156 -139 -411 -139q-197 0 -232 139q-16 63 -16 152v444q0 51 -25.5 63.5
t-120.5 12.5h-8z" />
    <glyph glyph-name="v" unicode="v" horiz-adv-x="1253" 
d="M51 813v154h451v-154h-103l205 -506l37 -112q16 76 242 618h-103v154h422v-154h-160l-309 -750q-16 -37 -32.5 -50t-53.5 -13h-39q-52 0 -72 32q-8 12 -20 42l-305 739h-160z" />
    <glyph glyph-name="w" unicode="w" horiz-adv-x="1712" 
d="M47 813v154h440v-154h-108l119 -346l41 -131l24 -96l10 -45q8 96 193 618h-125v154h424v-154h-111q193 -569 203 -618q14 86 104.5 337.5t98.5 280.5h-125v154h428v-154h-147l-263 -747q-14 -39 -29.5 -51.5t-47.5 -14.5h-41q-37 0 -52.5 12.5t-29.5 48.5l-211 601
q-25 -147 -185 -601q-12 -37 -28.5 -49t-55.5 -12h-32q-37 0 -53.5 14.5t-32.5 57.5l-260 741h-148z" />
    <glyph glyph-name="x" unicode="x" horiz-adv-x="1253" 
d="M41 0v154h170q27 2 43 17t268 323v2q-14 14 -134.5 159.5t-130 151.5t-34.5 6h-168v154h451v-154h-45l162 -195l157 195h-49v154h443v-154h-181q-18 0 -62 -49t-212 -262l258 -307q33 -37 44 -39t21 -2h168v-154h-450v154h45l-187 225l-184 -225h47v-154h-440z" />
    <glyph glyph-name="y" unicode="y" horiz-adv-x="1253" 
d="M51 -238q0 47 30 75t69 28t71.5 -25.5t32.5 -83.5v-12q166 0 230 114q56 101 58 144q0 10 -12 37l-319 774h-160v154h451v-154h-103l205 -506l37 -112q18 72 242 618h-103v154h422v-154h-160l-360 -872q-14 -46 -54 -116.5t-82 -114.5t-117 -82t-161 -38t-151.5 49
t-65.5 123z" />
    <glyph glyph-name="z" unicode="z" horiz-adv-x="1048" 
d="M63 57v31q0 10 2.5 19.5t3.5 15.5t7 14t9 14t21 23l553 639h-129q-212 0 -240 -16t-28 -68q-8 -70 -12 -143h-154l21 381h760q55 0 61 -32q2 -11 2 -38t-5 -43t-10 -22.5t-28 -30.5l-551 -635h178q176 0 209 12t43 82q4 31 15 170h155l-31 -430h-784q-25 0 -36 2
t-21.5 15t-10.5 40z" />
    <glyph glyph-name="braceleft" unicode="{" 
d="M682 190v-426q0 -39 13.5 -60t86 -41.5t213.5 -20.5h13q31 0 40 -9.5t9 -38.5v-57q0 -33 -10.5 -41t-38.5 -8h-60q-319 0 -386.5 97t-67.5 186v440q0 80 -54.5 132t-118 66.5t-124 21.5t-62.5 9q-16 10 -16 45v56q0 37 15.5 43t73.5 9t118 24q123 43 145.5 102.5
t22.5 111.5v418q0 101 70.5 194t389.5 93h60q27 0 35 -10t8 -41v-53q0 -35 -12.5 -42.5t-45.5 -7.5h-24q-178 0 -235.5 -30.5t-57.5 -94.5v-383l2 -40q0 -166 -87 -228.5t-177 -93.5q206 -73 234 -162.5t28 -159.5z" />
    <glyph glyph-name="bar" unicode="|" horiz-adv-x="653" 
d="M264 -428v1872q0 90 61.5 90t61.5 -80v-1874q0 -90 -61.5 -90t-61.5 82z" />
    <glyph glyph-name="braceright" unicode="}" 
d="M119 -408q0 46 14 48t35 2q193 2 259.5 27.5t66.5 97.5v423q0 45 5 76t39.5 107.5t217.5 138.5q-207 68 -234.5 161.5t-27.5 160.5v426q0 72 -64.5 95t-245.5 27q-55 0 -60 14.5t-5 33.5v57q0 29 9 39t38 10h61q322 0 388.5 -97t66.5 -186v-430q0 -115 102 -176
q61 -37 121 -48t88.5 -7t46 -8.5t17.5 -53.5v-49q0 -29 -11.5 -38t-64 -9t-121.5 -24q-131 -45 -154.5 -106.5t-23.5 -110.5v-418q0 -102 -27.5 -139t-104 -92.5t-333.5 -55.5h-55q-27 2 -35 12.5t-8 38.5v53z" />
    <glyph glyph-name="asciitilde" unicode="~" horiz-adv-x="1439" 
d="M878 1280q54 0 102 25.5t71.5 47t74.5 70.5l113 -106q-160 -183 -227.5 -224.5t-127.5 -41.5t-165 71.5t-160 71.5t-104 -26.5t-75 -49t-73 -67.5l-112 104q12 14 49 54t52 56.5t48.5 50t90.5 69.5t117 36t166 -70.5t160 -70.5z" />
    <glyph glyph-name="uni00A0" unicode="&#xa0;" horiz-adv-x="784" 
 />
    <glyph glyph-name="exclamdown" unicode="&#xa1;" horiz-adv-x="739" 
d="M231 887q0 53 40.5 95t96.5 42t96 -39t40 -97t-41 -97t-97 -39t-95.5 41t-39.5 94zM231 -283q0 20 5 62l53 753q4 41 14.5 48.5t64.5 7.5t64 -8.5t14 -40.5l58 -797v-29q0 -59 -41 -96t-93 -37t-95.5 35.5t-43.5 101.5z" />
    <glyph glyph-name="cent" unicode="&#xa2;" 
d="M279 486q0 -128 78.5 -212t217.5 -108v647q-158 -20 -227 -109.5t-69 -217.5zM78 482q0 206 133 342.5t364 156.5v190h156v-188q193 -8 262 -39q92 -41 92 -127q0 -47 -30.5 -76.5t-62.5 -29.5t-51 6t-40.5 30.5t-26.5 65.5l-143 6v-665q68 4 116 26.5t65.5 46t33 51
t22.5 34.5q8 7 74 7t66 -24q0 -34 -36 -89.5t-75 -93.5t-109.5 -72t-156.5 -46v-193h-156v191q-223 16 -360 150t-137 340z" />
    <glyph glyph-name="sterling" unicode="&#xa3;" horiz-adv-x="1505" 
d="M975 1487q178 0 286.5 -130t108.5 -282q0 -59 -32.5 -85.5t-73.5 -26.5t-72 28.5t-31 76.5t43 85q-66 180 -229 180q-63 0 -108.5 -21.5t-82 -67.5t-36.5 -195v-261h210q27 -2 35 -13t8 -42v-49q0 -31 -8 -39t-37 -10h-208v-258q0 -82 -21 -146l70 -20q231 -66 307 -66
t110.5 21.5t46 47.5t18.5 52.5t14 33.5t57 7h12q33 0 53.5 -1.5t20.5 -37.5q0 -98 -98.5 -188t-253.5 -90t-305 47t-152 47q-115 -94 -297 -94q-92 0 -146.5 37t-54.5 97t62.5 110.5t224.5 50.5q66 0 133 -11q10 41 10 105v256h-143q-31 0 -39 11t-8 42v51q0 31 11 40t36 9
h143v213l-2 46q0 127 42 219t138.5 156.5t237.5 64.5z" />
    <glyph glyph-name="currency" unicode="&#xa4;" horiz-adv-x="1667" 
d="M322 620q0 -234 139 -370.5t373 -136.5t370.5 139t136.5 373t-138.5 371t-372.5 137t-371 -139.5t-137 -373.5zM106 -44q0 24 23 50t97 98t104 103v4q-133 166 -133 411t133 412v2q-172 170 -198 199t-25 55t18.5 42t41.5 16t53.5 -27t197.5 -197h2q164 131 412 131
t411 -131h2q201 203 217 213q16 11 38 11t39 -18.5t17 -42.5t-17 -44t-96 -98t-110 -109v-2q131 -166 131 -412t-131 -411v-2q203 -201 213 -217t10 -37t-17 -39t-42 -18t-53.5 26.5t-198.5 196.5h-2q-164 -133 -411 -133t-412 133h-2q-199 -201 -217 -212t-38 -11t-38.5 17
t-18.5 41z" />
    <glyph glyph-name="yen" unicode="&#xa5;" horiz-adv-x="1734" 
d="M809 842l84 -113l82 113h-166zM147 842q-98 0 -98 76t105 77h292l-204 273h-199v155h504v-155h-62l205 -273h404l202 273h-59v155h453v-155h-199l-205 -273h291q41 0 57 -4t32.5 -25.5t16.5 -49.5t-18.5 -48t-34.5 -23t-51 -3h-410q-25 -35 -111 -147.5t-89 -124.5
q-4 -11 -4 -58h614q104 0 104 -78q0 -55 -53 -72q-12 -4 -55 -4h-610v-204h157v-154h-512v154h160v204h-616q-104 0 -105 76q0 78 109 78h612v25q0 29 -34 73t-92 124q-58 79 -74.5 93.5t-53.5 14.5h-369z" />
    <glyph glyph-name="brokenbar" unicode="&#xa6;" horiz-adv-x="393" 
d="M133 774v674q0 86 61.5 86t61.5 -80v-678q0 -82 -61 -82q-29 0 -45.5 23.5t-16.5 56.5zM133 248q0 82 62 82q28 0 44.5 -23.5t16.5 -56.5v-680q0 -82 -59 -82q-31 0 -47.5 23.5t-16.5 56.5v680z" />
    <glyph glyph-name="section" unicode="&#xa7;" horiz-adv-x="1046" 
d="M295 532q0 -74 71.5 -127t141.5 -71l72 -19q45 0 107.5 51.5t62.5 125.5t-72 127t-141 71l-72 19q-45 0 -107.5 -51.5t-62.5 -125.5zM162 1084q0 154 108.5 252t248.5 98t234.5 -86t94.5 -197q0 -53 -31 -75.5t-67 -22.5t-63.5 25.5t-27.5 59.5t19 64q-62 76 -154 76
t-160.5 -54.5t-68.5 -133.5q0 -51 38 -91.5t81 -59.5t113.5 -47t103.5 -43q58 -26 154 -114t96 -245q0 -156 -146 -271q145 -121 145 -273t-104 -254t-248 -102t-237.5 86t-93.5 195q0 53 30.5 76.5t66.5 23.5t62.5 -25.5t26.5 -58.5t-16 -65q63 -76 153 -76t159 55.5
t69 135.5q0 51 -38 91t-81 58t-114 46t-103 43q-60 28 -155 114.5t-95 242.5t147 273q-147 125 -147 279z" />
    <glyph glyph-name="dieresis" unicode="&#xa8;" 
d="M680 1285q0 58 40 97t95 39t96 -39t41 -95t-41 -97t-96 -41t-95 39t-40 97zM223 1287q0 54 38 94t97.5 40t97.5 -40t38 -96t-40 -96t-98 -40t-95.5 42t-37.5 96z" />
    <glyph glyph-name="copyright" unicode="&#xa9;" horiz-adv-x="2617" 
d="M1829 342q0 -160 -154.5 -262.5t-376.5 -102.5q-293 0 -469 144t-176 376t175.5 376.5t469.5 144.5q207 0 365 -115q88 100 102 109q12 6 39 6t27 -9v-364q-2 -29 -13.5 -37t-37.5 -8h-17q-61 0 -71.5 5t-20.5 42q-23 84 -102.5 150.5t-219.5 66.5t-245 -35.5t-155 -94
t-70.5 -116t-20.5 -121t21.5 -121t71.5 -115.5t154.5 -93t242.5 -35t225.5 53.5t101.5 147.5q4 29 13.5 37t31.5 8l17 -2h6l33 2q53 0 53 -37zM254 512q0 -418 284.5 -670t768 -252t769 252t285.5 670q0 367 -185 566.5t-393 277.5t-476 78q-483 0 -768 -252t-285 -670z
M129 511q0 464 318.5 756t856.5 292t860 -288t322 -755t-318.5 -759t-857.5 -292t-860 291t-321 755z" />
    <glyph glyph-name="ordfeminine" unicode="&#xaa;" horiz-adv-x="1046" 
d="M285 967q27 -55 135 -55t172 77q-219 1 -307 -22zM920 924h18q47 0 60.5 -13.5t13.5 -60.5v-21q0 -43 -16.5 -52t-67.5 -9h-47q-119 0 -172.5 15.5t-61.5 34t-8 65.5q-9 -14 -94.5 -70.5t-214.5 -56.5t-182.5 70t-53.5 128t65 100.5t464 49.5v61q0 234 -185 234l-61 -2
q2 -66 -31 -94.5t-75 -28.5t-72.5 28.5t-30.5 84.5t50 97.5t108.5 54.5t159.5 13t214 -80t113 -301l-2 -55v-186q47 -6 109 -6zM53 568q0 28 19.5 49.5t41.5 24.5t54 3h721q100 0 100 -78q0 -38 -28.5 -58t-67.5 -20h-746q-55 0 -74.5 25.5t-19.5 53.5z" />
    <glyph glyph-name="guillemotleft" unicode="&#xab;" horiz-adv-x="1308" 
d="M1128 1024q43 0 43 -27q0 -16 -25.5 -78.5t-105 -181.5t-188.5 -225q102 -96 182 -214t108.5 -185.5t28.5 -83.5q0 -29 -43 -29h-59q-34 0 -40.5 9t-8.5 12.5t-7 15.5t-27 60t-75 124t-96 123t-80 82t-58.5 56.5t-21.5 29.5t21.5 29.5t127 121t200.5 304.5q2 6 8 18
t9 22.5t5 10.5l12 2zM737 1024q43 0 43 -27q0 -16 -25.5 -77.5t-105.5 -181.5t-188 -226q102 -96 182 -214t108.5 -185.5t28.5 -83.5q0 -29 -43 -29h-59q-34 0 -41.5 10.5t-68.5 143t-275 319.5q-29 25 -29 37t50.5 60t128.5 131.5t167 265.5q2 6 8.5 18t9.5 22.5t6 10.5
l11 2z" />
    <glyph glyph-name="logicalnot" unicode="&#xac;" horiz-adv-x="1570" 
d="M131 740q0 60 86 61h1137q39 0 58.5 -15.5t22.5 -32t3 -42.5v-486q0 -92 -62 -92q-39 0 -57 39q-4 8 -4 57v449h-1110q-74 2 -74 62z" />
    <glyph glyph-name="uni00AD" unicode="&#xad;" horiz-adv-x="393" 
d="M25 393v180h626v-180h-626z" />
    <glyph glyph-name="registered" unicode="&#xae;" horiz-adv-x="2617" 
d="M1012 575h245q334 0 334 134q-2 133 -356 133h-223v-267zM659 0v154h158v688h-158v153h558q372 0 475.5 -102.5t103.5 -176.5q0 -75 -48 -134.5t-134 -96.5q18 -16 30.5 -31.5t22.5 -26.5t16.5 -28.5t10.5 -27t6 -33t5 -50.5t4 -58q1 -44 18 -70.5t79 -26.5t78.5 14.5
t18.5 47t61 32.5h27q68 0 67 -47q0 -61 -53 -132t-157 -71t-170 17.5t-120.5 56.5t-54.5 154v84q0 33 -6 50t-42.5 49t-237.5 32h-205v-266h159v-154h-512zM254 512q0 -418 284.5 -670t768 -252t769 252t285.5 670q0 367 -185 566.5t-393 277.5t-476 78q-483 0 -768 -252
t-285 -670zM129 511q0 464 318.5 756t856.5 292t860 -288t322 -755t-318.5 -759t-857.5 -292t-860 291t-321 755z" />
    <glyph glyph-name="macron" unicode="&#xaf;" 
d="M164 1284v160h850v-160h-850z" />
    <glyph glyph-name="degree" unicode="&#xb0;" horiz-adv-x="784" 
d="M256 1160q0 -64 37 -100t99 -36t99 37t37 101t-37 100t-99 36t-99 -37t-37 -101zM131 1161.5q0 112.5 71.5 186t189.5 73.5t189.5 -73.5t71.5 -187.5t-72.5 -186.5t-189.5 -72.5t-188.5 74t-71.5 186.5z" />
    <glyph glyph-name="plusminus" unicode="&#xb1;" horiz-adv-x="1830" 
d="M1604 770q94 0 94 -61q0 -45 -45 -60q-16 -4 -49 -4h-627v-598h641q80 0 80 -62t-82 -63h-1403q-33 0 -57.5 15.5t-24.5 46.5q0 63 86 63h635v598h-629q-92 1 -92 63t82 62h639v629q0 92 62 92t63 -92v-629h627z" />
    <glyph glyph-name="twosuperior" unicode="&#xb2;" horiz-adv-x="1046" 
d="M399 905h254l90 2q8 31 29 148h-2l-186 -66zM117 711v125q0 29 12.5 40.5t64.5 35.5t153 73t160.5 71.5t88.5 37.5q129 57 129 158t-113.5 126t-246.5 25h-35q4 -14 4 -51t-32 -68t-77 -31t-76.5 31t-31.5 80q0 195 366 195q225 0 335 -93.5t110 -213.5t-135 -187h135
l-51 -354h-760z" />
    <glyph glyph-name="threesuperior" unicode="&#xb3;" horiz-adv-x="1046" 
d="M96 884q0 58 32 90t79 32t78.5 -31t31.5 -80q0 -14 -4 -39q63 -12 191 -12q201 0 231 90q6 16 2 41q-23 100 -233 100h-60q-31 0 -41 7.5t-12 35.5v29q0 53 4.5 66.5t35.5 16.5t48 4t41.5 4t93 19.5t68.5 86.5q0 81 -154 81q-119 0 -184 -71q33 -37 33 -82t-32 -76
t-77 -31t-75.5 32t-30.5 83q0 115 103 197t263 82t256.5 -58.5t96.5 -154.5q0 -121 -129 -197q195 -57 194 -193q0 -108 -115 -182t-335 -74q-400 0 -400 184z" />
    <glyph glyph-name="acute" unicode="&#xb4;" 
d="M844 1425q31 0 59.5 -30.5t28.5 -62.5t-16.5 -53.5t-28 -28t-73.5 -38.5t-130 -69t-90.5 -49.5t-32.5 -16.5l-78 133q71 45 177 117t129.5 85t54.5 13z" />
    <glyph glyph-name="uni00B5" unicode="&#xb5;" horiz-adv-x="1318" 
d="M94 -244h154v975q-2 45 -25.5 57.5t-105.5 12.5h-23v155l342 23v-709q0 -76 32 -101.5t151 -25.5t200.5 53.5t81.5 163.5v367q0 49 -24.5 61.5t-110.5 12.5h-18v155l342 23v-750q0 -49 26.5 -62t108.5 -13h18v-154l-336 -10v139q-158 -139 -405 -139q-45 0 -66 2v-236
h154v-155h-496v155z" />
    <glyph glyph-name="paragraph" unicode="&#xb6;" horiz-adv-x="1439" 
d="M887 -274h164v1572h-164v-1572zM569 -337q0 60 93 63h102v725q-270 14 -452.5 144t-182.5 335t165 349t451 144h541q84 0 84 -62t-82 -63h-112v-1572h100q94 0 94 -62t-80 -63h-643q-78 2 -78 62z" />
    <glyph glyph-name="periodcentered" unicode="&#xb7;" horiz-adv-x="569" 
d="M145 513q0 56 42 95q41 39 95 39t95 -39t41 -96t-41 -97t-97 -40t-96 41q-39 41 -39 97z" />
    <glyph glyph-name="cedilla" unicode="&#xb8;" horiz-adv-x="1046" 
d="M231 -293q205 0 298.5 17.5t93.5 70.5q-6 82 -195 82v156q180 -2 282.5 -67.5t102.5 -174.5q0 -143 -126 -185t-239.5 -48.5t-216.5 -6.5v156z" />
    <glyph glyph-name="onesuperior" unicode="&#xb9;" horiz-adv-x="1046" 
d="M588 1559q35 0 46 -14.5t11 -51.5v-627h236v-155h-686v155h262v457q-119 -72 -295 -74v156q96 2 174 23.5t113.5 45t67.5 51t38 30.5t29 4h4z" />
    <glyph glyph-name="ordmasculine" unicode="&#xba;" horiz-adv-x="1046" 
d="M264 1175q0 -123 53.5 -188t188.5 -65t203.5 53t68.5 177t-55 185.5t-191 61.5t-202 -50.5t-66 -173.5zM63 1146q0 177 123 291.5t333 114.5t335 -113.5t125 -283.5t-113.5 -283.5t-333.5 -113.5t-344.5 105.5t-124.5 282.5zM53 568q0 28 19.5 49.5t41.5 24.5t54 3h721
q100 0 100 -78q0 -38 -28.5 -58t-67.5 -20h-746q-55 0 -74.5 25.5t-19.5 53.5z" />
    <glyph glyph-name="guillemotright" unicode="&#xbb;" horiz-adv-x="1308" 
d="M524 27q0 16 24.5 75.5t104.5 179t193 230.5q-96 90 -176 206t-113 187.5t-33 91.5q0 27 43 27h60q41 0 47 -13.5t10 -19.5t10 -24q111 -236 318 -416q28 -29 28 -40t-33.5 -44t-123.5 -113t-152 -214.5t-79.5 -137t-37.5 -2.5h-45q-45 0 -45 27zM133 27q0 18 27.5 82.5
t106.5 181.5t186 221q-102 96 -182.5 215t-109 186.5t-28.5 83.5q0 27 43 27h60q12 0 20 -2t13.5 -3t16.5 -20t15 -32q109 -233 320 -416q29 -29 29 -40t-35 -44t-126.5 -116t-152 -214.5t-77.5 -134t-38 -2.5h-45q-43 0 -43 27z" />
    <glyph glyph-name="onequarter" unicode="&#xbc;" horiz-adv-x="1046" 
d="M571 -43v281q-38 -50 -284 -281h284zM162 1329v156q247 0 319 37t103 37h4q55 0 57 -56v-594h236v-155h-686v155h262v453q-111 -33 -295 -33zM575 383h101q35 0 50 -10.5t17 -44.5v-371h236v-154h-236v-47h230v-155h-643v155h229v47h-496v125q2 23 8.5 33t34.5 37
l379 352q23 20 37.5 26.5t52.5 6.5zM4 567q0 64 96 64h854q84 0 84 -64q0 -59 -80 -59h-878q-76 2 -76 59z" />
    <glyph glyph-name="onehalf" unicode="&#xbd;" horiz-adv-x="1046" 
d="M422 -205h231l90 2q4 12 27 150l-152 -58zM162 1329v156q247 0 319 37t103 37h4q55 0 57 -56v-594h236v-155h-686v155h262v453q-111 -33 -295 -33zM334 250q-7 -111 -112 -111q-42 0 -73.5 31t-31.5 81q0 103 106.5 129t222.5 26h39q129 0 221.5 -27t156 -90t63.5 -167
t-133 -167h133l-52 -354h-759v108q0 25 8 36t43 30q299 153 351 174.5t67.5 29t77 40t61.5 107.5t-93 99.5t-282 24.5h-14zM4 567q0 64 96 64h854q84 0 84 -64q0 -59 -80 -59h-878q-76 2 -76 59z" />
    <glyph glyph-name="threequarters" unicode="&#xbe;" horiz-adv-x="1046" 
d="M571 -43v281q-38 -50 -284 -281h284zM96 914q0 58 32 89t79 31t78.5 -30.5t31.5 -79.5q0 -12 -4 -37q70 -10 179 -10h32q117 0 166 32.5t49 73.5q0 106 -235 107h-58q-33 0 -43 7t-12 36v43q0 45 4.5 56t20.5 12t42.5 3t65.5 5.5t97.5 27t58.5 74.5q0 72 -162 71h-2
q-102 0 -154 -18q38 -84 -5.5 -126t-87.5 -42t-75.5 32t-31.5 81q0 80 83 143.5t277 63.5t276.5 -64.5t82.5 -142.5q0 -113 -123 -189q188 -57 188 -182q0 -92 -101.5 -170t-322.5 -78h-20q-289 0 -347.5 61.5t-58.5 119.5zM575 383h101q35 0 50 -10.5t17 -44.5v-371h236
v-154h-236v-47h230v-155h-643v155h229v47h-496v125q2 23 8.5 33t34.5 37l379 352q23 20 37.5 26.5t52.5 6.5zM4 567q0 64 96 64h854q84 0 84 -64q0 -59 -80 -59h-878q-76 2 -76 59z" />
    <glyph glyph-name="questiondown" unicode="&#xbf;" horiz-adv-x="1112" 
d="M385 887q0 53 40 95t96 42t96 -39t40 -97t-41 -97t-97 -39t-95 41t-39 94zM287 164.5q158 122.5 157 329.5v32q0 41 11 50.5t65 9.5t67 -7.5t13 -46.5v-40q0 -119 -35 -219.5t-69.5 -145.5t-85 -94t-52.5 -51q-29 -39 -28 -95q0 -90 47 -116.5t143 -26.5q186 0 277 72v2
q-27 36 -27 78t29.5 71t73.5 29t75 -29.5t31 -79.5q0 -133 -129 -215t-349 -82t-296 98t-76 199q0 155 158 277.5z" />
    <glyph glyph-name="Agrave" unicode="&#xc0;" horiz-adv-x="1734" 
d="M598 578h492l-211 522l-35 100q-33 -98 -135.5 -348.5t-110.5 -273.5zM559 1716q0 43 25.5 74t66.5 31h4q20 0 369 -150l-55 -145q-63 20 -193.5 60t-173.5 63.5t-43 66.5zM82 0v154h174l502 1210q14 33 30.5 46t53.5 13h43q45 0 59 -14t37 -66l494 -1189h174v-154h-492
v154h109l-111 268h-623l-110 -268h108v-154h-448z" />
    <glyph glyph-name="Aacute" unicode="&#xc1;" horiz-adv-x="1734" 
d="M1024 1821q33 0 57.5 -30t24.5 -61t-9.5 -48t-25.5 -27t-29.5 -16.5t-33 -11.5t-21.5 -7l-291 -94l-53 145q348 150 381 150zM598 578h492l-211 522l-35 100q-33 -98 -135.5 -348.5t-110.5 -273.5zM82 0v154h174l502 1210q14 33 30.5 46t53.5 13h43q45 0 59 -14t37 -66
l494 -1189h174v-154h-492v154h109l-111 268h-623l-110 -268h108v-154h-448z" />
    <glyph glyph-name="Acircumflex" unicode="&#xc2;" horiz-adv-x="1734" 
d="M512 1649l352 399h2l353 -399l-119 -99l-234 320h-2l-231 -320zM598 578h492l-211 522l-35 100q-33 -98 -135.5 -348.5t-110.5 -273.5zM82 0v154h174l502 1210q14 33 30.5 46t53.5 13h43q45 0 59 -14t37 -66l494 -1189h174v-154h-492v154h109l-111 268h-623l-110 -268
h108v-154h-448z" />
    <glyph glyph-name="Atilde" unicode="&#xc3;" horiz-adv-x="1734" 
d="M1012 1917q51 0 90 25.5t51 41t41 52.5l129 -80q-31 -49 -52.5 -86t-41 -65.5t-30.5 -40t-28.5 -30t-48.5 -30.5t-73.5 -12t-161.5 59t-177 59t-98 -36q-12 -10 -19 -16q-20 -14 -30.5 -33.5t-23.5 -32.5l-131 82q10 16 29.5 50t28.5 47t25.5 39.5t26.5 38t26 29.5
q52 59 117.5 58.5t182.5 -60t168 -59.5zM598 578h492l-211 522l-35 100q-33 -98 -135.5 -348.5t-110.5 -273.5zM82 0v154h174l502 1210q14 33 30.5 46t53.5 13h43q45 0 59 -14t37 -66l494 -1189h174v-154h-492v154h109l-111 268h-623l-110 -268h108v-154h-448z" />
    <glyph glyph-name="Adieresis" unicode="&#xc4;" horiz-adv-x="1734" 
d="M958 1661q0 55 39 95t95.5 40t97.5 -39t41 -97t-40 -97t-97 -39t-96.5 41t-39.5 96zM598 578h492l-211 522l-35 100q-33 -98 -135.5 -348.5t-110.5 -273.5zM500 1662q0 56 42 95t96 39t94 -38t40 -95t-40 -97t-97 -40t-96 40t-39 96zM82 0v154h174l502 1210
q14 33 30.5 46t53.5 13h43q45 0 59 -14t37 -66l494 -1189h174v-154h-492v154h109l-111 268h-623l-110 -268h108v-154h-448z" />
    <glyph glyph-name="Aring" unicode="&#xc5;" horiz-adv-x="1734" 
d="M868 1862q-80 0 -106 -36t-27 -107q0 -71 28 -105q27 -34 101 -35q74 0 103 33q29 32 29 104t-24 109t-104 37zM864 1425q-116 0 -188 80t-72 216t74 215t190 79t188 -81q70 -81 70 -216t-72 -214t-190 -79zM598 578h492l-211 522l-35 100q-34 -98 -136 -348t-110 -274z
M82 0v154h174l502 1210q14 33 30 46t54 13h43q45 0 59 -14t37 -66l494 -1189h174v-154h-492v154h109l-111 268h-623l-110 -268h108v-154h-448z" />
    <glyph glyph-name="AE" unicode="&#xc6;" horiz-adv-x="2111" 
d="M963 762v506h-74l-213 -506h287zM1159 154h297q227 0 289.5 8t81 44t61.5 320h154l-76 -526h-1122v154h119v452h-351l-188 -452h106v-154h-448v154h174l465 1114h-47v155h1251l51 -473h-153q-25 216 -39.5 255.5t-26.5 44.5q-43 18 -336 18h-262v-506h187q147 0 173.5 9
t30.5 60q2 16 2 105v16h156v-536h-156v16q0 109 -9 137.5t-46 33.5t-199 5l-139 -2v-452z" />
    <glyph glyph-name="Ccedilla" unicode="&#xc7;" horiz-adv-x="1701" 
d="M1411 926q0 50 -39 123q-43 90 -140 165.5t-253 75.5q-319 0 -499 -174q-64 -62 -105 -168t-41 -239.5t41 -236.5t105.5 -165.5t152.5 -103.5q150 -70 331 -70t306 87t141 237q2 19 4 27q6 24 49 24h47q33 0 44.5 -8t11.5 -40t-9.5 -74t-41 -104.5t-83 -114.5
t-147.5 -102.5t-221 -74.5q150 -66 149 -201q0 -66 -36 -112q-36 -45 -86 -69q-121 -56 -459 -57v156q205 0 298 17.5t93 70.5q-6 82 -195 82v105q-340 35 -520 233.5t-180 512t218 515t571 201.5q268 0 468 -174q74 123 97.5 148.5t48.5 25.5q37 0 37 -47v-459
q0 -31 -11.5 -40t-35.5 -9l-11 2q-47 0 -63 1t-26.5 10.5t-10.5 23.5z" />
    <glyph glyph-name="Egrave" unicode="&#xc8;" horiz-adv-x="1501" 
d="M518 1732.5q0 24.5 26.5 56.5t65.5 32h4q18 0 367 -150l-53 -145q-324 102 -330 104q-70 29 -78 68q-2 10 -2 34.5zM508 154h315q327 0 367 23q20 11 36.5 57t53.5 292h156l-78 -526h-1208v154h159v1108h-159v155h1169l51 -473h-156q-14 121 -21 173q-15 115 -47 127
q-43 17 -370 18h-268v-449h117q162 0 189.5 8t30.5 52.5t3 113.5v17h153v-537h-153v18q0 106 -7 135t-41 34t-175 5l-117 -2v-503z" />
    <glyph glyph-name="Eacute" unicode="&#xc9;" horiz-adv-x="1501" 
d="M1012 1821q33 0 58.5 -31t25.5 -74t-40 -65.5t-173 -63.5t-197 -61l-53 145q346 150 379 150zM508 154h315q327 0 367 23q20 11 36.5 57t53.5 292h156l-78 -526h-1208v154h159v1108h-159v155h1169l51 -473h-156q-14 121 -21 173q-15 115 -47 127q-43 17 -370 18h-268
v-449h117q162 0 189.5 8t30.5 52.5t3 113.5v17h153v-537h-153v18q0 106 -7 135t-41 34t-175 5l-117 -2v-503z" />
    <glyph glyph-name="Ecircumflex" unicode="&#xca;" horiz-adv-x="1501" 
d="M406 1649l352 399h2l352 -399l-119 -99l-233 320h-2l-232 -320zM508 154h315q327 0 367 23q20 11 36.5 57t53.5 292h156l-78 -526h-1208v154h159v1108h-159v155h1169l51 -473h-156q-14 121 -21 173q-15 115 -47 127q-43 17 -370 18h-268v-449h117q162 0 189.5 8
t30.5 52.5t3 113.5v17h153v-537h-153v18q0 106 -7 135t-41 34t-175 5l-117 -2v-503z" />
    <glyph glyph-name="Edieresis" unicode="&#xcb;" horiz-adv-x="1501" 
d="M852 1663q0 55 39 94t95 39t96 -38t40 -96t-41 -98t-97 -40t-94 42t-38 97zM393 1660q0 54 39 95t97 41t97.5 -41t39.5 -96t-40 -95t-97.5 -40t-96.5 41t-39 95zM508 154h315q327 0 367 23q20 11 36.5 57t53.5 292h156l-78 -526h-1208v154h159v1108h-159v155h1169
l51 -473h-156q-14 121 -21 173q-15 115 -47 127q-43 17 -370 18h-268v-449h117q162 0 189.5 8t30.5 52.5t3 113.5v17h153v-537h-153v18q0 106 -7 135t-41 34t-175 5l-117 -2v-503z" />
    <glyph glyph-name="Igrave" unicode="&#xcc;" horiz-adv-x="819" 
d="M135 1734.5q0 24.5 26.5 56.5t65.5 32h4q18 0 367 -150l-53 -145q-324 102 -330 104q-70 29 -78 68q-2 10 -2 34.5zM141 0v154h168v1114h-168v155h535v-155h-166v-1114h166v-154h-535z" />
    <glyph glyph-name="Iacute" unicode="&#xcd;" horiz-adv-x="819" 
d="M584 1821q33 0 58.5 -31t25.5 -74t-40 -65.5t-173 -63.5t-197 -61l-53 145q346 150 379 150zM141 0v154h168v1114h-168v155h535v-155h-166v-1114h166v-154h-535z" />
    <glyph glyph-name="Icircumflex" unicode="&#xce;" horiz-adv-x="819" 
d="M55 1649l353 399h2l352 -399l-119 -99l-233 320h-2l-232 -320zM141 0v154h168v1114h-168v155h535v-155h-166v-1114h166v-154h-535z" />
    <glyph glyph-name="Idieresis" unicode="&#xcf;" horiz-adv-x="819" 
d="M502 1662q0 56 40 95t95 39t96 -39t41 -96t-42 -97t-98 -40t-94 41t-38 97zM141 0v154h168v1114h-168v155h535v-155h-166v-1114h166v-154h-535zM43 1662q0 56 42 95t95 39t94 -39t41 -96t-41 -97t-97 -40t-95 41t-39 97z" />
    <glyph glyph-name="Eth" unicode="&#xd0;" horiz-adv-x="1783" 
d="M506 154h350q154 6 219 22q375 92 375 522q0 569 -596 570h-348v-492h405q27 0 40.5 -11t15.5 -21.5t2 -32.5v-29q0 -33 -13.5 -47t-46.5 -14h-403v-467zM152 0v154h159v467h-104q-37 0 -46 16t-9 49v23q0 47 14 57t55 10h90v492h-159v155h737q365 1 563 -197t199 -512
q0 -314 -172 -499.5t-467 -210.5q-41 -4 -123 -4h-737z" />
    <glyph glyph-name="Ntilde" unicode="&#xd1;" horiz-adv-x="1820" 
d="M887 1976q117 -60 168 -59q51 0 90 26q39 27 51 41t41 52l129 -80q-54 -86 -77 -128t-40 -58l-35 -35q-42 -43 -104 -43q-61 0 -180 59t-176 59t-100 -36q-11 -10 -25 -21t-24 -30q-9 -18 -23 -31l-131 82q10 16 29 50t29 47q9 13 35 56t65 71q51 38 106 38t172 -60z
M154 0v154h159v1114h-159v155h311q29 0 41 -7t33 -34l813 -1056v942h-160v155h471v-155h-160v-1198q0 -42 -14 -56t-41 -14h-37q-29 0 -41 7t-33 34l-872 1133v-1020h160v-154h-471z" />
    <glyph glyph-name="Ograve" unicode="&#xd2;" horiz-adv-x="1746" 
d="M631 1732.5q0 24.5 26.5 56.5t65.5 32h4q18 0 367 -150l-54 -145q-324 102 -329 104q-70 29 -78 68q-2 10 -2 34.5zM334 733q0 -272 143.5 -427.5t395 -155.5t394 156.5t142.5 426.5t-148.5 408.5t-389.5 138.5t-389 -137.5t-148 -409.5zM129 704q0 332 203 536
t540.5 204t539.5 -204t202 -535t-203 -529.5t-540 -198.5t-539.5 197.5t-202.5 529.5z" />
    <glyph glyph-name="Oacute" unicode="&#xd3;" horiz-adv-x="1746" 
d="M1028 1821q33 0 58.5 -31t25.5 -74t-40 -65.5t-173 -63.5t-197 -61l-53 145q346 150 379 150zM334 733q0 -272 143.5 -427.5t395 -155.5t394 156.5t142.5 426.5t-148.5 408.5t-389.5 138.5t-389 -137.5t-148 -409.5zM129 704q0 332 203 536t540.5 204t539.5 -204
t202 -535t-203 -529.5t-540 -198.5t-539.5 197.5t-202.5 529.5z" />
    <glyph glyph-name="Ocircumflex" unicode="&#xd4;" horiz-adv-x="1746" 
d="M518 1649l352 399h2l353 -399l-119 -99l-234 320h-2l-231 -320zM334 733q0 -272 143.5 -427.5t395 -155.5t394 156.5t142.5 426.5t-148.5 408.5t-389.5 138.5t-389 -137.5t-148 -409.5zM129 704q0 332 203 536t540.5 204t539.5 -204t202 -535t-203 -529.5t-540 -198.5
t-539.5 197.5t-202.5 529.5z" />
    <glyph glyph-name="Otilde" unicode="&#xd5;" horiz-adv-x="1746" 
d="M850 1976.5q117 -59.5 172.5 -59.5t79.5 19.5t32.5 25.5t20.5 20.5t16.5 19.5t14.5 19.5t12 16.5l131 -82q-10 -16 -29.5 -50t-28.5 -47.5t-25.5 -40t-27 -38t-25.5 -28.5q-51 -58 -117 -58t-183 59t-171.5 59t-80 -19t-33.5 -25.5t-20.5 -20.5t-16.5 -19.5t-14 -19.5
t-12 -16l-131 82q10 16 29.5 50t28.5 47t25.5 39.5t27 38t25.5 29.5q50 58 116.5 58t183.5 -59.5zM334 733q0 -272 143.5 -427.5t395 -155.5t394 156.5t142.5 426.5t-148.5 408.5t-389.5 138.5t-389 -137.5t-148 -409.5zM129 704q0 332 203 536t540.5 204t539.5 -204
t202 -535t-203 -529.5t-540 -198.5t-539.5 197.5t-202.5 529.5z" />
    <glyph glyph-name="Odieresis" unicode="&#xd6;" horiz-adv-x="1746" 
d="M965 1661q0 53 38.5 94t95 41t97.5 -39t41 -95t-40 -97t-97 -41t-96 42t-39 95zM506 1661q0 55 39 95t99 40t97 -42t37 -94t-39 -94t-97 -42t-97 41t-39 96zM334 733q0 -272 143.5 -427.5t395 -155.5t394 156.5t142.5 426.5t-148.5 408.5t-389.5 138.5t-389 -137.5
t-148 -409.5zM129 704q0 332 203 536t540.5 204t539.5 -204t202 -535t-203 -529.5t-540 -198.5t-539.5 197.5t-202.5 529.5z" />
    <glyph glyph-name="multiply" unicode="&#xd7;" horiz-adv-x="1830" 
d="M344 2q0 27 35 61l448 449l-448 449q-35 39 -35 63t18 41.5t44 17.5t94 -67l415 -416l451 449q60 60 90.5 29t30.5 -57t-37 -63l-446 -446l448 -451q35 -37 35 -61t-17.5 -41.5t-44.5 -17.5h-4q-23 0 -77 52t-429 431l-450 -451q-60 -60 -90.5 -29t-30.5 58z" />
    <glyph glyph-name="Oslash" unicode="&#xd8;" horiz-adv-x="1830" 
d="M911 131q299 0 448.5 151.5t149.5 415.5q0 311 -192 473l-660 -1001q127 -39 254 -39zM319 702q0 -313 191 -454l661 1001q-127 41 -262 41q-293 -2 -441.5 -158t-148.5 -430zM129 700q0 334 213 539t571 205q184 0 347 -62l120 185h2l138 -90l-113 -172
q135 -90 214 -247t79 -356q0 -328 -214 -526.5t-568 -198.5q-184 0 -351 60l-118 -182l-140 92l111 168q-141 96 -216 247.5t-75 337.5z" />
    <glyph glyph-name="Ugrave" unicode="&#xd9;" horiz-adv-x="1777" 
d="M647 1716q0 43 25.5 74t66.5 31h4q20 0 369 -150l-55 -145q-63 20 -193.5 60t-173.5 63.5t-43 66.5zM150 1268v155h518v-155h-160v-770q0 -365 402.5 -365t402.5 365v770h-160v155h473v-155h-158v-768q0 -150 -54 -257.5t-143 -161.5q-171 -104 -359 -104
q-302 0 -468 157q-60 56 -97.5 150.5t-37.5 213.5v770h-159z" />
    <glyph glyph-name="Uacute" unicode="&#xda;" horiz-adv-x="1777" 
d="M1227 1729q0 -30 -9.5 -47t-25.5 -27t-29.5 -16.5t-33 -11.5t-21.5 -7l-291 -94l-53 145q350 147 371 150q41 0 66.5 -31t25.5 -61zM150 1268v155h518v-155h-160v-770q0 -365 402.5 -365t402.5 365v770h-160v155h473v-155h-158v-768q0 -150 -54 -257.5t-143 -161.5
q-171 -104 -359 -104q-302 0 -468 157q-60 56 -97.5 150.5t-37.5 213.5v770h-159z" />
    <glyph glyph-name="Ucircumflex" unicode="&#xdb;" horiz-adv-x="1777" 
d="M547 1649l352 399h2l352 -399l-118 -99l-234 320h-2l-231 -320zM150 1268v155h518v-155h-160v-770q0 -365 402.5 -365t402.5 365v770h-160v155h473v-155h-158v-768q0 -150 -54 -257.5t-143 -161.5q-171 -104 -359 -104q-302 0 -468 157q-60 56 -97.5 150.5t-37.5 213.5
v770h-159z" />
    <glyph glyph-name="Udieresis" unicode="&#xdc;" horiz-adv-x="1777" 
d="M981 1660q0 58 41 97t95 39t95 -39t41 -94t-37.5 -97t-95 -42t-98.5 39t-41 97zM524 1658q0 58 41 98t95 40t94.5 -39t40.5 -97t-41 -97t-95.5 -39t-94.5 38t-40 96zM150 1268v155h518v-155h-160v-770q0 -365 402.5 -365t402.5 365v770h-160v155h473v-155h-158v-768
q0 -150 -54 -257.5t-143 -161.5q-171 -104 -359 -104q-302 0 -468 157q-60 56 -97.5 150.5t-37.5 213.5v770h-159z" />
    <glyph glyph-name="Yacute" unicode="&#xdd;" horiz-adv-x="1734" 
d="M1122 1821q33 0 57.5 -30t24.5 -74t-46 -68.5t-177 -64.5t-186 -58l-54 145q348 150 381 150zM43 1268v155h504v-155h-62l408 -539l403 539h-59v155h453v-155h-199l-502 -666q-18 -25 -21 -35t-3 -49v-364h157v-154h-512v154h160v362q0 39 -3 49t-22 35l-503 668h-199z
" />
    <glyph glyph-name="Thorn" unicode="&#xde;" horiz-adv-x="1456" 
d="M502 524h233q176 0 271 58q117 70 116 198q0 98 -77.5 175t-268.5 77h-274v-508zM154 0v154h159v1114h-159v155h508v-155h-160v-80h325q248 0 372 -122t124 -288q0 -117 -91.5 -263t-430.5 -146h-299v-215h160v-154h-508z" />
    <glyph glyph-name="germandbls" unicode="&#xdf;" horiz-adv-x="1183" 
d="M587 -10q-34 0 -34 51v268q2 27 10 36t42 9h19l50 -4q31 -4 32 -12t2 -11t3 -17.5t9 -57.5t25.5 -76t64.5 -33t83 31t37 89q0 112 -86 145q-6 2 -62.5 13t-98.5 35t-86 86t-44 167q0 250 219 274q-8 110 -8 168.5t-25 85.5q-41 43 -153 43h-6q-102 -2 -129 -35t-27 -106
v-1139h-338v154h154v659h-154v154h154v178q0 139 80.5 214t271.5 75q328 0 328 -287q0 -260 -107 -299l-22 -6q-25 -6 -34 -12.5t-20.5 -31t-11.5 -65.5t8 -66.5t26.5 -38.5t115 -31.5t162 -106.5t65.5 -216t-78 -206t-217 -78q-80 0 -148 51q-2 -2 -8 -11.5t-8 -12.5
t-9 -10t-12.5 -9t-13.5 -5t-21 -3z" />
    <glyph glyph-name="agrave" unicode="&#xe0;" horiz-adv-x="1150" 
d="M375 1327q0 37 27.5 67.5t57.5 30.5q30 1 62 -19q118 -71 299 -196l-78 -133q-10 4 -80.5 43t-209.5 113q-78 39 -78 94zM285 280q0 -42 53 -89.5t144.5 -47.5t153.5 26q118 50 118 157v151q-360 -5 -448 -127q-20 -28 -21 -70zM94 300q0 72 62 136t164 96q197 60 434 60
v47q0 109 -82 156q-59 35 -183 34q-53 0 -110 -4q-2 -61 -36 -87.5t-74 -26.5t-70.5 29.5t-30.5 76.5q0 166 332 166q332 -1 416 -201q26 -62 26 -141v-428q2 -35 27.5 -46t85 -12t74 -12.5t14.5 -46.5v-35q0 -37 -13.5 -49t-46.5 -12h-57q-139 0 -190.5 30.5t-65.5 90.5
q-152 -133 -399 -133q-96 0 -162 54t-90.5 119t-24.5 139z" />
    <glyph glyph-name="aacute" unicode="&#xe1;" horiz-adv-x="1150" 
d="M713 1425q31 0 59.5 -30.5t28.5 -62.5t-16.5 -53.5t-28 -27.5t-73.5 -38.5t-130 -69.5t-90.5 -49.5t-32.5 -16.5l-78 133q70 45 176.5 117t130 85t54.5 13zM285 280q0 -42 53 -89.5t144.5 -47.5t153.5 26q118 50 118 157v151q-360 -5 -448 -127q-20 -28 -21 -70zM94 300
q0 72 62 136t164 96q197 60 434 60v47q0 109 -82 156q-59 35 -183 34q-53 0 -110 -4q-2 -61 -36 -87.5t-74 -26.5t-70.5 29.5t-30.5 76.5q0 166 332 166q332 -1 416 -201q26 -62 26 -141v-428q2 -35 27.5 -46t85 -12t74 -12.5t14.5 -46.5v-35q0 -37 -13.5 -49t-46.5 -12h-57
q-139 0 -190.5 30.5t-65.5 90.5q-152 -133 -399 -133q-96 0 -162 54t-90.5 119t-24.5 139z" />
    <glyph glyph-name="acircumflex" unicode="&#xe2;" horiz-adv-x="1150" 
d="M180 1339l340 254h2l340 -254l-92 -122l-248 198h-2l-246 -198zM285 280q0 -42 53 -89.5t144.5 -47.5t153.5 26q118 50 118 157v151q-360 -5 -448 -127q-20 -28 -21 -70zM94 300q0 72 62 136t164 96q197 60 434 60v47q0 109 -82 156q-59 35 -183 34q-53 0 -110 -4
q-2 -61 -36 -87.5t-74 -26.5t-70.5 29.5t-30.5 76.5q0 166 332 166q332 -1 416 -201q26 -62 26 -141v-428q2 -35 27.5 -46t85 -12t74 -12.5t14.5 -46.5v-35q0 -37 -13.5 -49t-46.5 -12h-57q-139 0 -190.5 30.5t-65.5 90.5q-152 -133 -399 -133q-96 0 -162 54t-90.5 119
t-24.5 139z" />
    <glyph glyph-name="atilde" unicode="&#xe3;" horiz-adv-x="1150" 
d="M504 1421q37 0 59.5 -34.5t46 -70.5t52.5 -36q30 0 62 20q48 30 104 86l38 37l113 -106q-172 -184 -222 -224t-87 -40t-60.5 33.5t-46 68.5t-49 36t-49.5 -9.5t-47 -28.5q-32 -25 -82 -73l-29 -29l-112 104q172 186 222 226t87 40zM285 280q0 -42 53 -89.5t144.5 -47.5
t153.5 26q118 50 118 157v151q-360 -5 -448 -127q-20 -28 -21 -70zM94 300q0 72 62 136t164 96q197 60 434 60v47q0 109 -82 156q-59 35 -183 34q-53 0 -110 -4q-2 -61 -36 -87.5t-74 -26.5t-70.5 29.5t-30.5 76.5q0 166 332 166q332 -1 416 -201q26 -62 26 -141v-428
q2 -35 27.5 -46t85 -12t74 -12.5t14.5 -46.5v-35q0 -37 -13.5 -49t-46.5 -12h-57q-139 0 -190.5 30.5t-65.5 90.5q-152 -133 -399 -133q-96 0 -162 54t-90.5 119t-24.5 139z" />
    <glyph glyph-name="adieresis" unicode="&#xe4;" horiz-adv-x="1150" 
d="M680 1285q0 58 40 97t95 39t96 -39t41 -95t-41 -97t-96 -41t-95 39t-40 97zM223 1287q0 54 38 94t97.5 40t97.5 -40t38 -96t-40 -96t-97.5 -40t-95.5 42t-38 96zM285 280q0 -42 53 -89.5t144.5 -47.5t153.5 26q118 50 118 157v151q-360 -5 -448 -127q-20 -28 -21 -70z
M94 300q0 72 62 136t164 96q197 60 434 60v47q0 109 -82 156q-59 35 -183 34q-53 0 -110 -4q-2 -61 -36 -87.5t-74 -26.5t-70.5 29.5t-30.5 76.5q0 166 332 166q332 -1 416 -201q26 -62 26 -141v-428q2 -35 27.5 -46t85 -12t74 -12.5t14.5 -46.5v-35q0 -37 -13.5 -49
t-46.5 -12h-57q-139 0 -190.5 30.5t-65.5 90.5q-152 -133 -399 -133q-96 0 -162 54t-90.5 119t-24.5 139z" />
    <glyph glyph-name="aring" unicode="&#xe5;" horiz-adv-x="1150" 
d="M391 1329q0 -43 5 -71.5t36 -57.5t88 -29q131 0 131 150q0 43 -5 71.5t-35.5 57.5t-88.5 29q-131 0 -131 -150zM285 280q0 -42 53 -89.5t145 -47.5t181.5 38t89.5 145v151q-361 -5 -415 -80t-54 -117zM260 1325q0 115 71.5 185.5t189.5 70.5t189.5 -70.5t71.5 -186.5
t-71.5 -185.5t-189.5 -69.5t-189.5 70.5t-71.5 185.5zM94 300q0 74 61.5 137t211 109t387.5 46v47q0 109 -82 156q-59 35 -183 34q-53 0 -110 -4q-2 -61 -36 -87.5t-74 -26.5t-70.5 29.5t-30.5 76.5q0 166 333 166t387 -131t54 -211v-428q2 -35 27 -46t85 -12t74.5 -12.5
t14.5 -46.5v-35q0 -37 -13.5 -49t-46.5 -12h-57q-139 0 -190.5 30.5t-65.5 90.5q-152 -133 -399 -133q-96 0 -162 54t-90.5 119t-24.5 139z" />
    <glyph glyph-name="ae" unicode="&#xe6;" horiz-adv-x="1701" 
d="M1233 829q-147 0 -223 -97q-40 -50 -56 -126h508q-35 223 -229 223zM291 281q0 -51 51 -94.5t158 -43.5q203 0 254 90q12 23 12 54t-10 143q-180 -2 -322.5 -35.5t-142.5 -113.5zM100 266q0 174 216 236q185 53 440 61v72q0 113 -82 160q-59 35 -182 34q-55 0 -113 -4
q-2 -63 -34 -88.5t-74 -25.5t-72.5 29.5t-30.5 76.5q0 166 342 166q123 0 211 -26.5t160 -112.5q131 139 354 139q115 0 197 -41q82 -40 123 -110q79 -131 79 -295q0 -41 -15 -51.5t-48 -10.5h-627q10 -156 106.5 -237.5t270.5 -81.5q101 0 149 100q18 39 28.5 46t55.5 7h19
q57 0 57 -39q0 -62 -87 -162q-42 -48 -116.5 -83t-164.5 -35q-229 0 -377 147q-131 -150 -510 -149q-137 0 -206 93t-69 185z" />
    <glyph glyph-name="ccedilla" unicode="&#xe7;" horiz-adv-x="1046" 
d="M78 483q0 215 133 358.5t388 143.5t321 -74q32 -37 32 -89t-30.5 -81.5t-69.5 -29.5q-97 0 -109 104h-2q-82 4 -126 4t-79.5 -4t-87 -22.5t-86 -52t-59 -98t-24.5 -156t33.5 -160t89.5 -104.5q104 -66 233 -66t177 108q19 43 26.5 49t33.5 6h60q45 0 45 -28
q0 -20 -19.5 -68.5t-89 -119t-172.5 -101.5q182 -72 183 -213q0 -159 -189 -203q-151 -34 -393 -35v156h22q179 0 227 8.5t80 17.5q62 18 62 60q0 84 -194 84v119q-111 18 -193 67.5t-123 102.5q-40 53 -70 135q-30 83 -30 182z" />
    <glyph glyph-name="egrave" unicode="&#xe8;" horiz-adv-x="1048" 
d="M375 1327q0 37 27.5 67.5t57.5 30.5q30 1 62 -19q118 -71 299 -196l-78 -133q-10 4 -80.5 43t-209.5 113q-78 39 -78 94zM546.5 829q-225.5 0 -272.5 -223h535q-37 223 -262.5 223zM63 484q0 226 135.5 362.5t356.5 136.5q121 0 209 -41q88 -42 133 -110q84 -128 84 -297
q0 -35 -13.5 -46.5t-43.5 -13.5h-660q8 -103 30 -142q53 -92 129.5 -134.5t208.5 -42.5t184 100q22 41 30 47t39 6h18q74 0 74 -39q0 -58 -93 -162q-44 -50 -125 -84t-175 -34q-225 0 -373 134t-148 360z" />
    <glyph glyph-name="eacute" unicode="&#xe9;" horiz-adv-x="1048" 
d="M649 1425q31 0 59.5 -30.5t28.5 -62.5t-16 -53.5t-27.5 -27.5t-74 -38.5t-130 -69.5t-90 -49.5t-32.5 -16.5l-78 133q70 45 176.5 117t129.5 85t54 13zM546.5 829q-225.5 0 -272.5 -223h535q-37 223 -262.5 223zM63 484q0 226 135.5 362.5t356.5 136.5q121 0 209 -41
q88 -42 133 -110q84 -128 84 -297q0 -35 -13.5 -46.5t-43.5 -13.5h-660q8 -103 30 -142q53 -92 129.5 -134.5t208.5 -42.5t184 100q22 41 30 47t39 6h18q74 0 74 -39q0 -58 -93 -162q-44 -50 -125 -84t-175 -34q-225 0 -373 134t-148 360z" />
    <glyph glyph-name="ecircumflex" unicode="&#xea;" horiz-adv-x="1048" 
d="M180 1339l340 254h2l340 -254l-92 -122l-248 198h-2l-246 -198zM546.5 829q-225.5 0 -272.5 -223h535q-37 223 -262.5 223zM63 484q0 226 135.5 362.5t356.5 136.5q121 0 209 -41q88 -42 133 -110q84 -128 84 -297q0 -35 -13.5 -46.5t-43.5 -13.5h-660q8 -103 30 -142
q53 -92 129.5 -134.5t208.5 -42.5t184 100q22 41 30 47t39 6h18q74 0 74 -39q0 -58 -93 -162q-44 -50 -125 -84t-175 -34q-225 0 -373 134t-148 360z" />
    <glyph glyph-name="edieresis" unicode="&#xeb;" horiz-adv-x="1048" 
d="M614 1287q0 54 38 94t95.5 40t98.5 -39t41 -96t-40 -97t-97 -40t-96.5 42t-39.5 96zM546.5 829q-225.5 0 -272.5 -223h535q-37 223 -262.5 223zM158 1286q0 55 39 95t95 40t97 -39t41 -95t-40 -97t-98 -41t-96 41t-38 96zM63 484q0 226 135.5 362.5t356.5 136.5
q121 0 209 -41q88 -42 133 -110q84 -128 84 -297q0 -35 -13.5 -46.5t-43.5 -13.5h-660q8 -103 30 -142q53 -92 129.5 -134.5t208.5 -42.5t184 100q22 41 30 47t39 6h18q74 0 74 -39q0 -58 -93 -162q-44 -50 -125 -84t-175 -34q-225 0 -373 134t-148 360z" />
    <glyph glyph-name="eth" unicode="&#xf0;" 
d="M264 493q0 -337 322 -337q176 0 249.5 95t73.5 230t-68.5 241.5t-254.5 106.5q-322 1 -322 -336zM145 1329q0 12 3 15l22 22q19 19 31 25q39 33 78 32q156 0 333 -73q106 68 128 68t49.5 -48.5t27.5 -62.5q0 -20 -51 -47q94 -74 137 -123q207 -229 207 -531v-98
q0 -147 -48 -255t-164 -185.5t-312 -77.5q-238 0 -380.5 133t-142.5 356t142.5 363.5t380.5 140.5q127 0 239 -55q-47 82 -119 157.5t-94 75.5t-67 -27.5t-61 -27.5t-44 47t-28 63.5t39 40.5q-131 51 -252 52l-11 -2q-43 0 -43 22z" />
    <glyph glyph-name="ntilde" unicode="&#xf1;" horiz-adv-x="1318" 
d="M587 1421q36 0 59.5 -34.5t46.5 -70.5t49 -36t46.5 8t50 31.5t41.5 34.5l68 69l113 -106q-172 -186 -222 -226t-83 -40q-54 0 -88.5 70.5t-76.5 70.5t-87 -35.5t-115 -105.5l-113 104q176 190 225.5 228t85.5 38zM94 0v154h154v567q0 53 -22.5 66.5t-112.5 13.5h-19v155
l332 23v-162q137 162 346 162q241 0 279.5 -115t38.5 -219v-491h153v-154h-495v154h153v487q0 41 -5 66.5t-35 70.5t-181 45q-94 0 -169 -63.5t-75 -216.5v-389h154v-154h-496z" />
    <glyph glyph-name="ograve" unicode="&#xf2;" 
d="M375 1327q0 37 27.5 67.5t57.5 30.5q30 1 62 -19q118 -71 299 -196l-78 -133q-10 4 -80.5 43t-209.5 113q-78 39 -78 94zM264 502q0 -348 322 -348q180 0 251.5 94t71.5 254q0 328 -319 327q-326 1 -326 -327zM63 480q0 224 143.5 363.5t380.5 139.5t380 -140.5
t143 -363.5t-142.5 -356t-381 -133t-381 133t-142.5 357z" />
    <glyph glyph-name="oacute" unicode="&#xf3;" 
d="M713 1425q31 0 59.5 -30.5t28.5 -62.5t-16.5 -53.5t-28 -27.5t-73.5 -38.5t-130 -69.5t-90.5 -49.5t-32.5 -16.5l-78 133q70 45 176.5 117t130 85t54.5 13zM264 502q0 -348 322 -348q180 0 251.5 94t71.5 254q0 328 -319 327q-326 1 -326 -327zM63 480q0 224 143.5 363.5
t380.5 139.5t380 -140.5t143 -363.5t-142.5 -356t-381 -133t-381 133t-142.5 357z" />
    <glyph glyph-name="ocircumflex" unicode="&#xf4;" 
d="M246 1339l340 254h2l340 -254l-92 -122l-248 198h-2l-246 -198zM264 502q0 -348 322 -348q180 0 251.5 94t71.5 254q0 328 -319 327q-326 1 -326 -327zM63 480q0 224 143.5 363.5t380.5 139.5t380 -140.5t143 -363.5t-142.5 -356t-381 -133t-381 133t-142.5 357z" />
    <glyph glyph-name="otilde" unicode="&#xf5;" 
d="M504 1421q37 0 59.5 -34.5t46 -70.5t52.5 -36q30 0 62 20q48 30 104 86l38 37l113 -106q-172 -184 -222 -224t-87 -40t-60.5 33.5t-46 68.5t-49 36t-49.5 -9.5t-47 -28.5q-32 -25 -82 -73l-29 -29l-112 104q172 186 222 226t87 40zM264 502q0 -348 322 -348
q180 0 251.5 94t71.5 254q0 328 -319 327q-326 1 -326 -327zM63 480q0 224 143.5 363.5t380.5 139.5t380 -140.5t143 -363.5t-142.5 -356t-381 -133t-381 133t-142.5 357z" />
    <glyph glyph-name="odieresis" unicode="&#xf6;" 
d="M680 1287q0 56 40 95t95 39t96 -39t41 -95t-40 -97t-97 -41t-96 41t-39 97zM264 502q0 -348 322 -348q180 0 251.5 94t71.5 254q0 328 -319 327q-326 1 -326 -327zM221 1287q0 54 39 94t98.5 40t97.5 -40t38 -96t-40 -96t-97.5 -40t-96.5 42t-39 96zM63 480
q0 224 143.5 363.5t380.5 139.5t380 -140.5t143 -363.5t-142.5 -356t-381 -133t-381 133t-142.5 357z" />
    <glyph glyph-name="divide" unicode="&#xf7;" horiz-adv-x="1830" 
d="M739 1043q0 73 51.5 124.5t125.5 51.5t124 -52.5t50 -123.5t-51.5 -123t-126.5 -52t-124 51t-49 124zM739 -18q0 74 51.5 124t123.5 50t124 -52t52 -124t-51.5 -124.5t-126.5 -52.5t-124 52.5t-49 126.5zM131 512q0 49 51 59q8 2 51 2h1375q35 0 41 -2q47 -10 47 -59
q0 -61 -82 -61h-1405q-78 0 -78 61z" />
    <glyph glyph-name="oslash" unicode="&#xf8;" 
d="M922 473q0 166 -82 266h-2l-365 -585q49 -10 117 -11q332 0 332 330zM252 477q0 -164 84 -252l366 592q-59 12 -118 12q-332 0 -332 -352zM72 464q0 234 138 376.5t376 142.5q111 0 200 -31l160 256l131 -84l-153 -247q178 -137 178 -402q0 -219 -140.5 -352t-375.5 -133
q-104 0 -197 28l-162 -258l-131 82l154 246v2q-178 140 -178 374z" />
    <glyph glyph-name="ugrave" unicode="&#xf9;" horiz-adv-x="1318" 
d="M424 1327q0 37 27.5 67.5t57.5 30.5q31 1 63 -19q118 -71 298 -196l-77 -133q-11 5 -101 54t-179 95t-89 101zM94 801v155l342 23v-709q0 -76 32 -101.5t151 -25.5t200.5 53.5t81.5 163.5v367q0 49 -24.5 61.5t-110.5 12.5h-18v155l342 23v-750q0 -49 26.5 -62t108.5 -13
h18v-154l-336 -10v139q-156 -139 -411 -139q-197 0 -232 139q-16 63 -16 152v444q0 51 -25.5 63.5t-120.5 12.5h-8z" />
    <glyph glyph-name="uacute" unicode="&#xfa;" horiz-adv-x="1318" 
d="M794.5 1425q30.5 0 59.5 -30.5t29 -62.5t-16.5 -53.5t-28 -27.5t-73.5 -38.5t-130 -69.5t-90.5 -49.5t-32.5 -16.5l-78 133q70 45 176.5 117t130 85t54 13zM94 801v155l342 23v-709q0 -76 32 -101.5t151 -25.5t200.5 53.5t81.5 163.5v367q0 49 -24.5 61.5t-110.5 12.5
h-18v155l342 23v-750q0 -49 26.5 -62t108.5 -13h18v-154l-336 -10v139q-156 -139 -411 -139q-197 0 -232 139q-16 63 -16 152v444q0 51 -25.5 63.5t-120.5 12.5h-8z" />
    <glyph glyph-name="ucircumflex" unicode="&#xfb;" horiz-adv-x="1318" 
d="M328 1337l340 256h2l342 -256l-94 -120h-3l-245 198h-2l-244 -198h-2zM94 801v155l342 23v-709q0 -76 32 -101.5t151 -25.5t200.5 53.5t81.5 163.5v367q0 49 -24.5 61.5t-110.5 12.5h-18v155l342 23v-750q0 -49 26.5 -62t108.5 -13h18v-154l-336 -10v139
q-156 -139 -411 -139q-197 0 -232 139q-16 63 -16 152v444q0 51 -25.5 63.5t-120.5 12.5h-8z" />
    <glyph glyph-name="udieresis" unicode="&#xfc;" horiz-adv-x="1318" 
d="M762 1287q0 56 40 95t95 39t96 -39t41 -96t-41 -97t-97 -40t-95 41t-39 97zM303 1287q0 56 42 95t95.5 39t94 -39t40.5 -96t-40.5 -97t-97 -40t-95.5 41t-39 97zM94 801v155l342 23v-709q0 -76 32 -101.5t151 -25.5t200.5 53.5t81.5 163.5v367q0 49 -24.5 61.5
t-110.5 12.5h-18v155l342 23v-750q0 -49 26.5 -62t108.5 -13h18v-154l-336 -10v139q-156 -139 -411 -139q-197 0 -232 139q-16 63 -16 152v444q0 51 -25.5 63.5t-120.5 12.5h-8z" />
    <glyph glyph-name="yacute" unicode="&#xfd;" horiz-adv-x="1253" 
d="M883 1425q31 0 59.5 -30.5t28.5 -62.5t-16.5 -53.5t-28 -27.5t-73.5 -38.5t-130 -69.5t-90.5 -49.5t-32.5 -16.5l-78 133q70 45 176.5 117t130 85t54.5 13zM51 -238q0 47 30 75t69 28t71.5 -25.5t32.5 -83.5v-12q166 0 230 114q56 101 58 144q0 10 -12 37l-319 774h-160
v154h451v-154h-103l205 -506l37 -112q18 72 242 618h-103v154h422v-154h-160l-360 -872q-14 -46 -54 -116.5t-82 -114.5t-117 -82t-161 -38t-151.5 49t-65.5 123z" />
    <glyph glyph-name="thorn" unicode="&#xfe;" horiz-adv-x="1318" 
d="M428 360q0 -72 83 -144.5t212 -72.5t222 91.5t93 245.5t-85 243.5t-210 89.5t-202.5 -40t-104.5 -83q-8 -12 -8 -43v-287zM86 -244h154v1426q0 49 -26 62t-116 13h-12v154l338 23v-564q188 109 457 109q168 0 263 -135t95 -370t-127.5 -359.5t-321.5 -124.5t-362 123
v-357h154v-155h-496v155z" />
    <glyph glyph-name="ydieresis" unicode="&#xff;" horiz-adv-x="1253" 
d="M719 1287q0 54 38 94t95 40t98 -39t41 -95t-39 -97t-97 -41t-97 42t-39 96zM262 1285q0 56 38 96t95 40t98.5 -39t41.5 -95t-40 -97t-95.5 -41t-96.5 40t-41 96zM51 -238q0 47 30 75t69 28t71.5 -25.5t32.5 -83.5v-12q166 0 230 114q56 101 58 144q0 10 -12 37l-319 774
h-160v154h451v-154h-103l205 -506l37 -112q18 72 242 618h-103v154h422v-154h-160l-360 -872q-14 -46 -54 -116.5t-82 -114.5t-117 -82t-161 -38t-151.5 49t-65.5 123z" />
    <glyph glyph-name="Amacron" unicode="&#x100;" horiz-adv-x="1734" 
d="M406 1579v162h915v-162h-915zM598 578h492l-211 522l-35 100q-33 -98 -135.5 -348.5t-110.5 -273.5zM82 0v154h174l502 1210q14 33 30.5 46t53.5 13h43q45 0 59 -14t37 -66l494 -1189h174v-154h-492v154h109l-111 268h-623l-110 -268h108v-154h-448z" />
    <glyph glyph-name="amacron" unicode="&#x101;" horiz-adv-x="1150" 
d="M82 1284v160h850v-160h-850zM285 280q0 -42 53 -89.5t144.5 -47.5t153.5 26q118 50 118 157v151q-360 -5 -448 -127q-20 -28 -21 -70zM94 300q0 72 62 136t164 96q197 60 434 60v47q0 109 -82 156q-59 35 -183 34q-53 0 -110 -4q-2 -61 -36 -87.5t-74 -26.5t-70.5 29.5
t-30.5 76.5q0 166 332 166q332 -1 416 -201q26 -62 26 -141v-428q2 -35 27.5 -46t85 -12t74 -12.5t14.5 -46.5v-35q0 -37 -13.5 -49t-46.5 -12h-57q-139 0 -190.5 30.5t-65.5 90.5q-152 -133 -399 -133q-96 0 -162 54t-90.5 119t-24.5 139z" />
    <glyph glyph-name="Abreve" unicode="&#x102;" horiz-adv-x="1734" 
d="M598 578h492l-211 522l-35 100q-33 -98 -135.5 -348.5t-110.5 -273.5zM865 1765q93 0 169 71t82 202h154q-4 -197 -125 -318t-284 -121t-280.5 125.5t-119.5 313.5h155q4 -125 80 -199t169 -74zM82 0v154h174l502 1210q14 33 30.5 46t53.5 13h43q45 0 59 -14t37 -66
l494 -1189h174v-154h-492v154h109l-111 268h-623l-110 -268h108v-154h-448z" />
    <glyph glyph-name="abreve" unicode="&#x103;" horiz-adv-x="1150" 
d="M285 280q0 -42 53 -89.5t144.5 -47.5t153.5 26q118 50 118 157v151q-360 -5 -448 -127q-20 -28 -21 -70zM581.5 1278q96.5 0 173 78t81.5 225h155q-2 -203 -119.5 -336t-283.5 -133t-284 131t-122 338h156q4 -137 75.5 -220t168 -83zM94 300q0 72 62 136t164 96
q197 60 434 60v47q0 109 -82 156q-59 35 -183 34q-53 0 -110 -4q-2 -61 -36 -87.5t-74 -26.5t-70.5 29.5t-30.5 76.5q0 166 332 166q332 -1 416 -201q26 -62 26 -141v-428q2 -35 27.5 -46t85 -12t74 -12.5t14.5 -46.5v-35q0 -37 -13.5 -49t-46.5 -12h-57q-139 0 -190.5 30.5
t-65.5 90.5q-152 -133 -399 -133q-96 0 -162 54t-90.5 119t-24.5 139z" />
    <glyph glyph-name="aogonek" unicode="&#x105;" horiz-adv-x="1150" 
d="M285 280q0 -42 53 -89.5t144.5 -47.5t153.5 26q118 50 118 157v151q-360 -5 -448 -127q-20 -28 -21 -70zM94 300q0 72 62 136t164 96q197 60 434 60v47q0 109 -82 156q-59 35 -183 34q-53 0 -110 -4q0 -61 -35 -87.5t-75 -26.5t-70.5 28.5t-30.5 77.5q0 166 340 166
q250 0 354 -117q80 -90 80 -231v-420q2 -39 27.5 -48t88 -12t74 -16.5t11.5 -48.5v-35q-2 -33 -15.5 -44t-44.5 -11h-22q-43 0 -82 -35q-74 -66 -74 -135q0 -31 16.5 -55.5t41.5 -24.5t54.5 23.5t44.5 23.5t57 -27.5t42 -49t-24.5 -52t-76.5 -59.5t-114 -29
q-100 0 -165.5 65.5t-65.5 149.5q0 117 131 230q-63 31 -76 96q-152 -133 -399 -133q-96 0 -162 54t-90.5 119t-24.5 139z" />
    <glyph glyph-name="Cacute" unicode="&#x106;" horiz-adv-x="1701" 
d="M1102 1821q33 0 58.5 -31t25.5 -74t-40 -65.5t-173 -63.5t-197 -61l-53 145q346 150 379 150zM1569 938q-1 -49 -35 -49q-13 0 -34.5 1t-44.5 1t-34.5 9t-8 30t-38 111.5t-139.5 169.5q-97 79 -243 79q-284 0 -471 -139.5t-187 -437.5q0 -133 41 -237.5t105.5 -168
t152.5 -103.5q156 -71 337 -71t304 88t137 232q4 37 13.5 46t43.5 9h48q31 0 41 -8t10 -37q0 -180 -177.5 -333t-453 -153t-479.5 120.5t-285 349.5q-43 121 -43 266q0 330 217 530.5t574 200.5q264 0 466 -174q76 125 97.5 149.5t46.5 24.5q39 0 39 -47v-459z" />
    <glyph glyph-name="cacute" unicode="&#x107;" horiz-adv-x="1046" 
d="M745.5 1425q30.5 0 59.5 -30.5t29 -62.5t-16.5 -53.5t-28 -27.5t-73.5 -38.5t-130 -69.5t-90.5 -49.5t-32.5 -16.5l-78 133q70 45 176.5 117t130 85t54 13zM238 868q129 118 371.5 117.5t308.5 -74.5q34 -37 34 -88t-30.5 -81.5t-68.5 -30.5q-98 0 -110 104h-2
q-82 4 -123 4q-340 0 -339 -332q0 -94 34.5 -163.5t90.5 -104.5q105 -65 237 -65q72 0 113 34.5t59 77.5t26.5 48t65.5 5h27q45 0 45 -26q0 -38 -39 -101t-80 -103t-113.5 -69.5t-160.5 -29.5q-225 0 -365.5 134t-140.5 366t160 378z" />
    <glyph glyph-name="Ccircumflex" unicode="&#x108;" horiz-adv-x="1701" 
d="M563 1649l352 399h3l352 -399l-119 -99l-233 320h-3l-231 -320zM1569 938q-1 -49 -35 -49q-13 0 -34.5 1t-44.5 1t-34.5 9t-8 30t-38 111.5t-139.5 169.5q-97 79 -243 79q-284 0 -471 -139.5t-187 -437.5q0 -133 41 -237.5t105.5 -168t152.5 -103.5q156 -71 337 -71
t304 88t137 232q4 37 13.5 46t43.5 9h48q31 0 41 -8t10 -37q0 -180 -177.5 -333t-453 -153t-479.5 120.5t-285 349.5q-43 121 -43 266q0 330 217 530.5t574 200.5q264 0 466 -174q76 125 97.5 149.5t46.5 24.5q39 0 39 -47v-459z" />
    <glyph glyph-name="ccircumflex" unicode="&#x109;" horiz-adv-x="1046" 
d="M262 1339l340 254h2l340 -254l-92 -122l-248 198h-2l-246 -198zM238 868q129 118 371 117q243 0 309 -74q34 -37 34 -88t-30.5 -81.5t-68.5 -30.5q-98 0 -110 104h-2q-82 4 -123 4q-340 0 -339 -332q0 -94 34.5 -163.5t90.5 -104.5q105 -65 237 -65q72 0 113 34.5
t59 77.5t26.5 48t65.5 5h27q45 0 45 -26q0 -38 -39 -101t-80 -103t-113.5 -69.5t-160.5 -29.5q-225 0 -365.5 134t-140.5 366t160 378z" />
    <glyph glyph-name="Cdotaccent" unicode="&#x10a;" horiz-adv-x="1701" 
d="M782 1683.5q0 57.5 40 97.5t94.5 40t95.5 -40t41 -97.5t-41 -96.5t-94.5 -39t-94.5 39t-41 96.5zM1569 938q-1 -49 -35 -49q-13 0 -34.5 1t-44.5 1t-34.5 9t-8 30t-38 111.5t-139.5 169.5q-97 79 -243 79q-284 0 -471 -139.5t-187 -437.5q0 -133 41 -237.5t105.5 -168
t152.5 -103.5q156 -71 337 -71t304 88t137 232q4 37 13.5 46t43.5 9h48q31 0 41 -8t10 -37q0 -180 -177.5 -333t-453 -153t-479.5 120.5t-285 349.5q-43 121 -43 266q0 330 217 530.5t574 200.5q264 0 466 -174q76 125 97.5 149.5t46.5 24.5q39 0 39 -47v-459z" />
    <glyph glyph-name="cdotaccent" unicode="&#x10b;" horiz-adv-x="1046" 
d="M469 1285q0 58 41 98t95 40t94 -38.5t40 -97t-41 -97.5t-95 -39t-94 38t-40 96zM238 868q129 118 371.5 117.5t308.5 -74.5q34 -37 34 -88t-30.5 -81.5t-68.5 -30.5q-98 0 -110 104h-2q-82 4 -123 4q-340 0 -339 -332q0 -94 34.5 -163.5t90.5 -104.5q105 -65 237 -65
q72 0 113 34.5t59 77.5t26.5 48t65.5 5h27q45 0 45 -26q0 -38 -39 -101t-80 -103t-113.5 -69.5t-160.5 -29.5q-225 0 -365.5 134t-140.5 366t160 378z" />
    <glyph glyph-name="Ccaron" unicode="&#x10c;" horiz-adv-x="1701" 
d="M990 1831q11 0 44 21.5t97.5 64.5t123.5 78l60 -78v-2l-324 -270h-2l-323 270v2l57 78q33 -20 100.5 -64.5t111.5 -72t55 -27.5zM1569 938q-1 -49 -35 -49q-13 0 -34.5 1t-44.5 1t-34.5 9t-8 30t-38 111.5t-139.5 169.5q-97 79 -243 79q-284 0 -471 -139.5t-187 -437.5
q0 -133 41 -237.5t105.5 -168t152.5 -103.5q156 -71 337 -71t304 88t137 232q4 37 13.5 46t43.5 9h48q31 0 41 -8t10 -37q0 -180 -177.5 -333t-453 -153t-479.5 120.5t-285 349.5q-43 121 -43 266q0 330 217 530.5t574 200.5q264 0 466 -174q76 125 97.5 149.5t46.5 24.5
q39 0 39 -47v-459z" />
    <glyph glyph-name="ccaron" unicode="&#x10d;" horiz-adv-x="1046" 
d="M242 1548v2l73 62h2l256 -291h2l256 291h3l73 -62v-2l-332 -413h-2zM238 868q129 118 371 117q243 0 309 -74q34 -37 34 -88t-30.5 -81.5t-68.5 -30.5q-98 0 -110 104h-2q-82 4 -123 4q-340 0 -339 -332q0 -94 34.5 -163.5t90.5 -104.5q105 -65 237 -65q72 0 113 34.5
t59 77.5t26.5 48t65.5 5h27q45 0 45 -26q0 -38 -39 -101t-80 -103t-113.5 -69.5t-160.5 -29.5q-225 0 -365.5 134t-140.5 366t160 378z" />
    <glyph glyph-name="Dcaron" unicode="&#x10e;" horiz-adv-x="1783" 
d="M506 154h350q154 6 219 22q375 92 375 522q0 569 -596 570h-348v-1114zM783 1831q11 0 44 21.5t97.5 64.5t124.5 78l57 -78v-2l-324 -270h-2l-321 270v2l57 78q35 -20 100.5 -63.5t110.5 -72t56 -28.5zM152 0v154h159v1114h-159v155h737q365 0 563.5 -197.5t198.5 -511
t-172 -499.5t-467 -211q-41 -4 -123 -4h-737z" />
    <glyph glyph-name="dcaron" unicode="&#x10f;" horiz-adv-x="1619" 
d="M1171 1390q0 53 39 92.5t106 39.5t115 -62.5t48 -150.5t-42 -167t-86.5 -116t-64.5 -37t-60 40t-40 53t22.5 27.5t55 49.5t51.5 90q-78 2 -111 45t-33 96zM610 823q-331 0 -331 -340t303 -340q123 0 215 75t92 151v282q0 43 -29 74q-90 98 -250 98zM78 483
q0 213 106.5 354.5t323.5 141.5t387 -105v297q-2 49 -27.5 61.5t-113.5 12.5h-13v156l336 22v-1190q0 -51 22.5 -65t106.5 -14h25v-154l-342 -10v131q-182 -131 -402 -131q-149 0 -240 78.5t-130 179t-39 235.5z" />
    <glyph glyph-name="Dcroat" unicode="&#x110;" horiz-adv-x="1783" 
d="M506 154h350q154 6 219 22q375 92 375 522q0 569 -596 570h-348v-492h405q47 0 56 -33q2 -10 2 -32v-29q1 -33 -13 -47t-47 -14h-403v-467zM152 0v154h159v467h-104q-37 0 -46 16t-9 49v23q0 47 14 57t55 10h90v492h-159v155h737q365 1 563 -197t199 -512
q0 -314 -172 -499q-172 -186 -467 -211q-41 -4 -123 -4h-737z" />
    <glyph glyph-name="dcroat" unicode="&#x111;" horiz-adv-x="1318" 
d="M610 823q-331 0 -331 -340t303 -340q123 0 215 75t92 151v282q0 43 -29 74q-90 98 -250 98zM78 483q0 213 106.5 354.5t323.5 141.5t387 -105v160h-500v156h500q-8 37 -31.5 46t-109.5 9h-13v156l336 22v-233h117v-156h-117v-803q0 -49 24.5 -63t108.5 -14h21v-154
l-342 -10v131q-182 -131 -402 -131q-149 0 -240 78.5t-130 179t-39 235.5z" />
    <glyph glyph-name="Emacron" unicode="&#x112;" horiz-adv-x="1501" 
d="M336 1579v162h915v-162h-915zM508 154h315q327 0 367 23q20 11 36.5 57t53.5 292h156l-78 -526h-1208v154h159v1108h-159v155h1169l51 -473h-156q-14 121 -21 173q-15 115 -47 127q-43 17 -370 18h-268v-449h117q162 0 189.5 8t30.5 52.5t3 113.5v17h153v-537h-153v18
q0 106 -7 135t-41 34t-175 5l-117 -2v-503z" />
    <glyph glyph-name="emacron" unicode="&#x113;" horiz-adv-x="1048" 
d="M131 1284v160h850v-160h-850zM546.5 829q-225.5 0 -272.5 -223h535q-37 223 -262.5 223zM63 484q0 226 135.5 362.5t356.5 136.5q121 0 209 -41q88 -42 133 -110q84 -128 84 -297q0 -35 -13.5 -46.5t-43.5 -13.5h-660q8 -103 30 -142q53 -92 129.5 -134.5t208.5 -42.5
t184 100q22 41 30 47t39 6h18q74 0 74 -39q0 -58 -93 -162q-44 -50 -125 -84t-175 -34q-225 0 -373 134t-148 360z" />
    <glyph glyph-name="Ebreve" unicode="&#x114;" horiz-adv-x="1501" 
d="M787.5 1765q95.5 0 172 70t82.5 203h154q-2 -190 -120 -314.5t-283.5 -124.5t-284.5 124.5t-121 314.5h154q4 -121 77.5 -197t169 -76zM508 154h315q327 0 367 23q20 11 36.5 57t53.5 292h156l-78 -526h-1208v154h159v1108h-159v155h1169l51 -473h-156q-14 121 -21 173
q-15 115 -47 127q-43 17 -370 18h-268v-449h117q162 0 189.5 8t30.5 52.5t3 113.5v17h153v-537h-153v18q0 106 -7 135t-41 34t-175 5l-117 -2v-503z" />
    <glyph glyph-name="ebreve" unicode="&#x115;" horiz-adv-x="1048" 
d="M551 1278q96 0 173 78t81 225h156q-4 -211 -124 -340t-286 -129t-281.5 134t-117.5 335h153q4 -137 77 -220t169 -83zM546.5 829q-225.5 0 -272.5 -223h535q-37 223 -262.5 223zM63 484q0 226 135.5 362.5t356.5 136.5q121 0 209 -41q88 -42 133 -110q84 -128 84 -297
q0 -35 -13.5 -46.5t-43.5 -13.5h-660q8 -103 30 -142q53 -92 129.5 -134.5t208.5 -42.5t184 100q22 41 30 47t39 6h18q74 0 74 -39q0 -58 -93 -162q-44 -50 -125 -84t-175 -34q-225 0 -373 134t-148 360z" />
    <glyph glyph-name="Edotaccent" unicode="&#x116;" horiz-adv-x="1501" 
d="M657 1683.5q0 57.5 40 97.5t94.5 40t95.5 -40t41 -97.5t-41 -96.5t-94.5 -39t-94.5 39t-41 96.5zM508 154h315q327 0 367 23q20 11 36.5 57t53.5 292h156l-78 -526h-1208v154h159v1108h-159v155h1169l51 -473h-156q-14 121 -21 173q-15 115 -47 127q-43 17 -370 18h-268
v-449h117q162 0 189.5 8t30.5 52.5t3 113.5v17h153v-537h-153v18q0 106 -7 135t-41 34t-175 5l-117 -2v-503z" />
    <glyph glyph-name="edotaccent" unicode="&#x117;" horiz-adv-x="1048" 
d="M420 1285q0 58 41 98t95 40t94 -38.5t40 -97t-41 -97.5t-95 -39t-94 38t-40 96zM546.5 829q-225.5 0 -272.5 -223h535q-37 223 -262.5 223zM63 484q0 226 135.5 362.5t356.5 136.5q121 0 209 -41q88 -42 133 -110q84 -128 84 -297q0 -35 -13.5 -46.5t-43.5 -13.5h-660
q8 -103 30 -142q53 -92 129.5 -134.5t208.5 -42.5t184 100q22 41 30 47t39 6h18q74 0 74 -39q0 -58 -93 -162q-44 -50 -125 -84t-175 -34q-225 0 -373 134t-148 360z" />
    <glyph glyph-name="Eogonek" unicode="&#x118;" horiz-adv-x="1501" 
d="M508 154h315q275 0 325 11t57 20.5t22.5 52t52.5 288.5h156l-78 -526h-139q-51 0 -101.5 -57.5t-50.5 -99.5t17.5 -68.5t42 -26.5t54 23.5t45 23.5t56.5 -29.5t41 -58.5t-65.5 -78t-156.5 -49t-159 64.5t-68 159.5t109 196h-833v154h159v1108h-159v155h1169l51 -473h-156
q-14 121 -21 173q-15 115 -47 127q-43 17 -370 18h-268v-449h117q178 0 197 12t22.5 52.5t3.5 109.5v17h153v-537h-153v18q0 106 -7 135t-41 34t-175 5l-117 -2v-503z" />
    <glyph glyph-name="eogonek" unicode="&#x119;" horiz-adv-x="1048" 
d="M546.5 829q-225.5 0 -272.5 -223h535q-37 223 -262.5 223zM63 489q0 219 135.5 356.5t358.5 137.5q121 0 208 -41q87 -40 132 -110q84 -130 84 -302q0 -25 -10 -38t-20.5 -15t-30.5 -2h-656q25 -319 375 -319q127 0 182 112q16 36 42 40q7 1 42 1h17q55 0 55 -41
q0 -35 -45 -104q-41 -59 -124 -114.5t-137.5 -104.5t-54.5 -115q0 -33 18.5 -57.5t42 -24.5t52.5 23.5t45 23.5t56 -30.5t40 -59.5t-64.5 -77t-155.5 -48t-158.5 64.5t-67.5 156.5t98 191q-117 14 -205 58t-134 97.5t-83 142.5t-37 199z" />
    <glyph glyph-name="Ecaron" unicode="&#x11a;" horiz-adv-x="1501" 
d="M681 1831q11 0 44 21.5t97.5 64.5t123.5 78l58 -78v-2l-324 -270h-2l-324 270v2l60 78q35 -20 100.5 -63.5t110.5 -72t56 -28.5zM508 154h315q327 0 367 23q20 11 36.5 57t53.5 292h156l-78 -526h-1208v154h159v1108h-159v155h1169l51 -473h-156q-14 121 -21 173
q-15 115 -47 127q-43 17 -370 18h-268v-449h117q162 0 189.5 8t30.5 52.5t3 113.5v17h153v-537h-153v18q0 106 -7 135t-41 34t-175 5l-117 -2v-503z" />
    <glyph glyph-name="ecaron" unicode="&#x11b;" horiz-adv-x="1048" 
d="M546.5 829q-225.5 0 -272.5 -223h535q-37 223 -262.5 223zM223 1548v2l74 62h2l256 -291l256 291h2l74 -62v-2l-332 -413zM63 484q0 226 135.5 362.5t356.5 136.5q121 0 209 -41q88 -42 133 -110q84 -128 84 -297q0 -35 -13.5 -46.5t-43.5 -13.5h-660q8 -103 30 -142
q53 -92 129.5 -134.5t208.5 -42.5t184 100q22 41 30 47t39 6h18q74 0 74 -39q0 -58 -93 -162q-44 -50 -125 -84t-175 -34q-225 0 -373 134t-148 360z" />
    <glyph glyph-name="Gcircumflex" unicode="&#x11c;" horiz-adv-x="1841" 
d="M563 1649l352 399h3l352 -399l-119 -99l-233 320h-3l-231 -320zM1569 938q-1 -49 -35 -49q-13 0 -23 2h-6q-80 0 -86 12t-13 49q-27 141 -167 256q-100 82 -258 82q-285 0 -466 -144.5t-181 -432.5q0 -250 137 -394.5t377 -177.5q59 -8 193 -8t209 18.5t96.5 46
t21.5 83.5v159h-295v154h660v-154h-164v-374q0 -61 -25 -62q-27 0 -100 78q-131 -104 -506 -105q-207 0 -367.5 62.5t-254.5 168.5q-188 212 -187 503q0 332 218 532.5t573 200.5q264 0 466 -174q76 125 97.5 149.5t46.5 24.5q39 0 39 -47v-459z" />
    <glyph glyph-name="gcircumflex" unicode="&#x11d;" 
d="M178 1339l340 254h2l340 -254l-92 -122l-248 198h-2l-246 -198zM319 628q0 -212 202 -212t202 212t-202 212t-202 -212zM236 -127q0 -66 92 -104.5t247 -40.5h5q135 0 221 25.5t111.5 55t25.5 60.5q0 121 -332 121h-194q-92 0 -134 -34t-42 -83zM63 -131q0 141 144 213
q-47 76 -47 159t55 160q-80 96 -80 240t104.5 241t282.5 97q133 0 242 -68q104 78 227 78q63 0 106.5 -35.5t43.5 -83t-27 -72t-63 -24.5q-57 0 -86 62l-117 -7q59 -98 59 -200q0 -158 -105.5 -255.5t-279.5 -97.5q-119 0 -231 60q-10 -29 -10 -71t35.5 -71.5t93.5 -29.5
h221q296 0 398 -100q81 -79 81 -184q0 -106 -104 -190q-54 -44 -162.5 -72t-257.5 -28q-281 0 -402 86.5t-121 192.5z" />
    <glyph glyph-name="Gbreve" unicode="&#x11e;" horiz-adv-x="1841" 
d="M922 1765q92 0 168.5 70t83.5 203h153q-4 -197 -124.5 -318t-282.5 -121t-280 125.5t-120 313.5h154q4 -125 80 -199t168 -74zM991 1444q253 0 329.5 -23.5t84.5 -23.5t54 23.5t71 23.5q39 0 39 -53v-117q0 -35 -13.5 -43t-66.5 -8h-8q-60 0 -67.5 14.5t-86.5 34.5
q-79 18 -281 18t-331 -41t-200 -100t-114 -142t-55 -152t-12 -151t31 -211.5t185 -245.5t476 -116q321 0 331.5 58.5t10.5 86.5v164h-295v154h660v-154h-164v-374q0 -61 -25 -62q-27 0 -100 78q-131 -104 -504 -105q-205 0 -364.5 60.5t-303 217.5t-143.5 456q0 211 79 349
t168 214t236.5 124t335.5 48l29 -2h14z" />
    <glyph glyph-name="gbreve" unicode="&#x11f;" 
d="M319 628q0 -212 202 -212t202 212t-202 212t-202 -212zM236 -127q0 -66 92 -104.5t247 -40.5h5q135 0 221 25.5t111.5 55t25.5 60.5q0 121 -332 121h-194q-92 0 -134 -34t-42 -83zM582 1278q96 0 172.5 78t81.5 225h155q-2 -203 -119.5 -336t-283.5 -133t-284 131
t-122 338h156q4 -137 76 -220t168 -83zM63 -131q0 141 144 213q-47 76 -47 159t55 160q-80 96 -80 240t104.5 241t282.5 97q133 0 242 -68q104 78 227 78q63 0 106.5 -35.5t43.5 -83.5t-27 -72t-63 -24q-57 0 -86 62l-117 -7q59 -98 59 -200q0 -158 -105.5 -255.5
t-279.5 -97.5q-119 0 -231 60q-10 -29 -10 -71t35.5 -71.5t93.5 -29.5h221q296 0 387.5 -89t91.5 -195t-79 -170t-187.5 -92t-257.5 -28q-281 0 -402 86.5t-121 192.5z" />
    <glyph glyph-name="Gdotaccent" unicode="&#x120;" horiz-adv-x="1841" 
d="M782 1683.5q0 57.5 40 97.5t94.5 40t95.5 -40t41 -97.5t-41 -96.5t-94.5 -39t-94.5 39t-41 96.5zM1569 938q-1 -49 -35 -49q-13 0 -23 2h-6q-80 0 -86 12t-13 49q-27 141 -167 256q-100 82 -258 82q-285 0 -466 -144.5t-181 -432.5q0 -250 137 -394.5t377 -177.5
q59 -8 193 -8t209 18.5t96.5 46t21.5 83.5v159h-295v154h660v-154h-164v-374q0 -61 -25 -62q-27 0 -100 78q-131 -104 -506 -105q-207 0 -367.5 62.5t-254.5 168.5q-188 212 -187 503q0 332 218 532.5t573 200.5q264 0 466 -174q76 125 97.5 149.5t46.5 24.5q39 0 39 -47
v-459z" />
    <glyph glyph-name="gdotaccent" unicode="&#x121;" 
d="M385 1285q0 58 41 98t95 40t94 -38.5t40 -97t-41 -97.5t-95 -39t-94 38t-40 96zM319 628q0 -212 202 -212t202 212t-202 212t-202 -212zM236 -127q0 -66 92 -104.5t247 -40.5h5q135 0 221 25.5t111.5 55t25.5 60.5q0 121 -332 121h-194q-92 0 -134 -34t-42 -83zM63 -131
q0 141 144 213q-47 76 -47 159t55 160q-80 96 -80 240t104.5 241t282.5 97q133 0 242 -68q104 78 227 78q63 0 106.5 -35.5t43.5 -83t-27 -72t-63 -24.5q-57 0 -86 62l-117 -7q59 -98 59 -200q0 -158 -105.5 -255.5t-279.5 -97.5q-119 0 -231 60q-10 -29 -10 -71t35.5 -71.5
t93.5 -29.5h221q296 0 398 -100q81 -79 81 -184.5t-104 -189.5q-54 -44 -162.5 -72t-257.5 -28q-281 0 -402 86.5t-121 192.5z" />
    <glyph glyph-name="Hcircumflex" unicode="&#x124;" horiz-adv-x="1820" 
d="M555 1649l352 399h2l353 -399l-119 -99l-234 320h-2l-231 -320zM150 0v154h159v1114h-159v155h518v-155h-160v-451h803v451h-160v155h518v-155h-158v-1114h158v-154h-518v154h160v510h-803v-510h160v-154h-518z" />
    <glyph glyph-name="hcircumflex" unicode="&#x125;" horiz-adv-x="1318" 
d="M326 1780l340 254h2l340 -254l-93 -123l-247 198h-2l-246 -198zM94 0v154h154v1020q-2 45 -25.5 58t-105.5 13h-23v156l338 22v-598q137 154 340 154q232 -1 290 -151q28 -72 28 -181v-493h153v-154h-495v154h153v487q0 41 -5 67q-6 26 -26 56q-39 59 -190 59
q-94 0 -169 -63.5t-75 -216.5v-389h154v-154h-496z" />
    <glyph glyph-name="uni0127" unicode="&#x127;" horiz-adv-x="1380" 
d="M84 1106v24q0 20 1 30.5t13.5 23t36.5 12.5h174q-12 35 -36.5 42t-108.5 7h-8v156l336 22v-227h239q50 0 53.5 -22.5t3.5 -45.5v-24q0 -39 -14 -51.5t-47 -12.5h-235v-215q137 154 356 154t261 -110t42 -222v-493h154v-154h-496v154h154v487q0 139 -73 160.5t-158 21.5
t-159.5 -63.5t-74.5 -216.5v-389h153v-154h-495v154h153v886h-174q-35 0 -43 16.5t-8 49.5z" />
    <glyph glyph-name="Itilde" unicode="&#x128;" horiz-adv-x="819" 
d="M141 0v154h168v1114h-168v155h535v-155h-166v-1114h166v-154h-535zM486 1911q34 0 69 28.5t86 88.5l121 -97q-14 -18 -38 -47t-36 -44t-30.5 -38.5t-30 -36t-46.5 -48.5t-88 -36q-30 0 -77 50.5t-82 50.5t-61.5 -21.5t-38 -30.5t-26.5 -27.5t-34 -37.5l-119 96
q14 18 38 47t36 44.5t30.5 39t30 35.5t46.5 48t87 36q29 0 79 -50t84 -50z" />
    <glyph glyph-name="itilde" unicode="&#x129;" horiz-adv-x="665" 
d="M100 0v154h154v567q0 51 -21.5 65.5t-107.5 14.5h-16v155l329 23v-825h137v-154h-475zM416 1454q29 0 64 23t98 96l120 -98q-141 -174 -182 -211t-79 -37t-85 50t-79 50t-49 -12t-27.5 -18.5t-24.5 -21.5t-20.5 -21.5t-22.5 -25t-18 -20.5l-119 99q14 18 38.5 47.5t37 45
t32 39t30.5 36t45.5 47t73.5 34.5q40 0 89 -51t78 -51z" />
    <glyph glyph-name="Imacron" unicode="&#x12a;" horiz-adv-x="819" 
d="M-16 1546v160h850v-160h-850zM141 0v154h168v1114h-168v155h535v-155h-166v-1114h166v-154h-535z" />
    <glyph glyph-name="Ibreve" unicode="&#x12c;" horiz-adv-x="819" 
d="M404.5 1765q95.5 0 172 70t82.5 203h154q-2 -190 -120 -314.5t-283.5 -124.5t-284.5 124.5t-121 314.5h154q4 -121 77.5 -197t169 -76zM141 0v154h168v1114h-168v155h535v-155h-166v-1114h166v-154h-535z" />
    <glyph glyph-name="Idotaccent" unicode="&#x130;" horiz-adv-x="819" 
d="M274 1754q0 58 41 98t95 40t95 -39q40 -39 40 -97t-41 -97t-95 -39t-95 38q-40 38 -40 96zM141 0v154h168v1114h-168v155h535v-155h-166v-1114h166v-154h-535z" />
    <glyph glyph-name="dotlessi" unicode="&#x131;" horiz-adv-x="665" 
d="M96 0v154h154v567q0 51 -21.5 65.5t-107.5 14.5h-17v155l330 23v-825h137v-154h-475z" />
    <glyph glyph-name="Jcircumflex" unicode="&#x134;" horiz-adv-x="1193" 
d="M461 1649l352 399h2l352 -399l-118 -99l-234 320h-2l-231 -320zM135 231q0 51 33 84t78 33t77.5 -31.5t32.5 -71.5t-22 -79q72 -33 176 -33q209 0 209 193v942h-207v155h520v-155h-119v-949q0 -168 -110.5 -255t-280.5 -87t-278.5 70.5t-108.5 183.5z" />
    <glyph glyph-name="Lacute" unicode="&#x139;" horiz-adv-x="1370" 
d="M565 1821q33 0 57.5 -30t24.5 -61t-9 -48t-25.5 -27t-30 -16.5t-33 -11.5t-21.5 -7l-290 -94l-54 145q348 150 381 150zM150 0v154h159v1114h-159v155h559v-155h-201v-1114h246q252 0 282.5 20t43.5 68t38 284h154l-51 -526h-1071z" />
    <glyph glyph-name="lacute" unicode="&#x13a;" horiz-adv-x="665" 
d="M596 1821q32 0 58 -31t26 -74q0 -44 -40 -66t-173 -63t-197 -61l-53 145q346 150 379 150zM96 0v154h154v1020q-2 45 -26 58t-105 13h-23v156l338 22v-1269h154v-154h-492z" />
    <glyph glyph-name="Lcaron" unicode="&#x13d;" horiz-adv-x="1370" 
d="M784 1528q0 53 39 92t106 39t114 -62.5t47 -150.5t-41 -167t-85 -117t-64 -38t-60.5 41t-40.5 55t49 45t80 121q-78 2 -111 45.5t-33 96.5zM150 0v154h159v1114h-159v155h559v-155h-201v-1114h246q252 0 282.5 20t43.5 68t38 284h154l-51 -526h-1071z" />
    <glyph glyph-name="lcaron" unicode="&#x13e;" horiz-adv-x="976" 
d="M530 1390q0 53 39 92.5t106 39.5t114 -62.5t47 -150.5t-42 -167t-86 -116t-64 -37t-59.5 40t-39.5 53q0 20 51 53t76 114q-78 2 -110 45t-32 96zM98 0v154h154v1020q-2 45 -25.5 58t-105.5 13h-23v156l338 22v-1269h154v-154h-492z" />
    <glyph glyph-name="Lslash" unicode="&#x141;" horiz-adv-x="1370" 
d="M150 0v154h159v411l-53 -41l-94 123q105 76 125 97.5t22 43.5v480h-159v155h559v-155h-201v-355l299 230l94 -123q-86 -66 -216 -165t-153.5 -119t-23.5 -32v-550h246q252 0 282.5 20t43.5 68t38 284h154l-51 -526h-1071z" />
    <glyph glyph-name="lslash" unicode="&#x142;" horiz-adv-x="802" 
d="M317 790v384q-2 47 -27.5 59t-109.5 12h-16v156l336 22v-516l98 76l94 -123l-192 -147v-559h153v-154h-489v154h153v417l-71 -55l-94 123q124 86 144.5 110.5t20.5 40.5z" />
    <glyph glyph-name="Nacute" unicode="&#x143;" horiz-adv-x="1820" 
d="M1149 1729q0 -30 -9.5 -47t-25.5 -27t-29.5 -16.5t-33 -11.5t-21.5 -7l-291 -94l-53 145q350 147 371 150q41 0 66.5 -31t25.5 -61zM154 0v154h159v1114h-159v155h311q29 0 41 -7t33 -34l813 -1056v942h-160v155h471v-155h-160v-1198q0 -43 -14 -56.5t-41 -13.5h-37
q-29 0 -41 7t-33 34l-872 1133v-1020h160v-154h-471z" />
    <glyph glyph-name="nacute" unicode="&#x144;" horiz-adv-x="1318" 
d="M860 1425q30 -1 60 -31q28 -30 28 -62t-16 -54t-28 -27q-12 -6 -109 -57q-98 -51 -217 -117l-78 133q70 45 176 117t130 85t54 13zM94 0v154h154v567q0 53 -23 66t-112 14h-19v155l332 23v-162q137 162 346 162q241 0 294 -158q22 -66 24 -176v-491h153v-154h-495v154
h153v487q0 41 -5 67q-6 26 -26 56q-39 59 -190 59q-94 0 -169 -63t-75 -217v-389h154v-154h-496z" />
    <glyph glyph-name="Ncaron" unicode="&#x147;" horiz-adv-x="1820" 
d="M910 1831q11 0 44 21.5t97.5 64.5t124.5 78l57 -78v-2l-324 -270h-2l-323 270v2l59 78q35 -20 100.5 -63.5t110.5 -72t56 -28.5zM154 0v154h159v1114h-159v155h311q29 0 41 -7t33 -34l813 -1056v942h-160v155h471v-155h-160v-1198q0 -43 -14 -56.5t-41 -13.5h-37
q-29 0 -41 7t-33 34l-872 1133v-1020h160v-154h-471z" />
    <glyph glyph-name="ncaron" unicode="&#x148;" horiz-adv-x="1318" 
d="M250 1548v2l74 62h2l256 -291h2l256 291h2l73 -62v-2l-331 -413h-2zM94 0v154h154v567q0 53 -23 66t-112 14h-19v155l332 23v-162q137 162 346 162q241 0 294 -158q22 -66 24 -176v-491h153v-154h-495v154h153v487q0 41 -5 67q-6 26 -26 56q-39 59 -190 59
q-94 0 -169 -63t-75 -217v-389h154v-154h-496z" />
    <glyph glyph-name="Eng" unicode="&#x14a;" horiz-adv-x="1849" 
d="M1323 -23q-168 0 -276.5 72t-108.5 184q0 53 31.5 84t79 31t79 -31.5t31.5 -70.5t-22 -80q88 -33 165 -33q147 0 181.5 65t34.5 113v615q0 115 -54.5 198.5t-180.5 145t-284 61.5q-211 0 -351 -99t-140 -190v-888h160v-154h-518v154h159v1114h-159v155h358v-110
q224 172 498 172t477 -129t231 -352q2 -14 2 -84v-572l2 -35q0 -166 -113.5 -251t-281.5 -85z" />
    <glyph glyph-name="eng" unicode="&#x14b;" horiz-adv-x="1318" 
d="M94 0v154h154v567q0 53 -22.5 66.5t-112.5 13.5h-19v155l332 23v-162q137 162 346 162q241 0 294 -158q24 -72 24 -176v-577q0 -131 -33 -229.5t-86 -149.5q-103 -99 -219 -99q-86 0 -146.5 46.5t-60.5 104.5t30.5 88t70.5 30t75 -27t35 -88h14q45 0 69.5 17.5t43 89
t18.5 204.5v582q0 80 -24.5 119t-72.5 53t-124 14q-119 0 -181 -82t-63 -196v-391h154v-154h-496z" />
    <glyph glyph-name="Omacron" unicode="&#x14c;" horiz-adv-x="1746" 
d="M418 1579v162h915v-162h-915zM334 733q0 -272 143.5 -427.5t395 -155.5t394 156.5t142.5 426.5t-148.5 408.5t-389.5 138.5t-389 -137.5t-148 -409.5zM129 704q0 332 203 536t540.5 204t539.5 -204t202 -535t-203 -529.5t-540 -198.5t-539.5 197.5t-202.5 529.5z" />
    <glyph glyph-name="omacron" unicode="&#x14d;" 
d="M164 1284v160h850v-160h-850zM264 502q0 -348 322 -348q180 0 251.5 94t71.5 254q0 328 -319 327q-326 1 -326 -327zM63 480q0 224 143.5 363.5t380.5 139.5t380 -140.5t143 -363.5t-142.5 -356t-381 -133t-381 133t-142.5 357z" />
    <glyph glyph-name="Obreve" unicode="&#x14e;" horiz-adv-x="1746" 
d="M869 1765q95 0 172 70t83 203h154q-2 -190 -120 -314.5t-283.5 -124.5t-284.5 124.5t-121 314.5h154q4 -121 77.5 -197t168.5 -76zM334 733q0 -272 143.5 -427.5t395 -155.5t394 156.5t142.5 426.5t-148.5 408.5t-389.5 138.5t-389 -137.5t-148 -409.5zM129 704
q0 332 203 536t540.5 204t539.5 -204t202 -535t-203 -529.5t-540 -198.5t-539.5 197.5t-202.5 529.5z" />
    <glyph glyph-name="obreve" unicode="&#x14f;" 
d="M583.5 1278q96.5 0 173.5 78t81 225h155q-4 -211 -123.5 -340t-285.5 -129t-282 134t-118 335h154q4 -137 76.5 -220t169 -83zM264 502q0 -348 322 -348q180 0 251.5 94t71.5 254q0 328 -319 327q-326 1 -326 -327zM63 480q0 224 143.5 363.5t380.5 139.5t380 -140.5
t143 -363.5t-142.5 -356t-381 -133t-381 133t-142.5 357z" />
    <glyph glyph-name="Ohungarumlaut" unicode="&#x150;" horiz-adv-x="1746" 
d="M930 1821q29 0 55.5 -28t26.5 -77v-14q285 117 303 119q41 0 65.5 -31t24.5 -73t-47 -68t-361 -123l-43 112l-350 -112l-55 145q260 113 306 131.5t75 18.5zM334 733q0 -272 143.5 -427.5t395 -155.5t394 156.5t142.5 426.5t-148.5 408.5t-389.5 138.5t-389 -137.5
t-148 -409.5zM129 704q0 332 203 536t540.5 204t539.5 -204t202 -535t-203 -529.5t-540 -198.5t-539.5 197.5t-202.5 529.5z" />
    <glyph glyph-name="ohungarumlaut" unicode="&#x151;" 
d="M647 1425q31 0 59.5 -30.5t28.5 -62.5t-16.5 -53.5t-27.5 -27.5t-73.5 -38.5t-130 -69.5t-90 -49.5t-32.5 -16.5l-78 133q70 45 176.5 117t129.5 85t54 13zM1038.5 1425q30.5 0 59 -30.5t28.5 -62.5t-16 -53.5t-27.5 -27.5t-73.5 -38.5t-130 -69.5t-90.5 -49.5
t-32.5 -16.5l-78 133q70 45 176.5 117t130 85t54 13zM264 502q0 -348 322 -348q180 0 251.5 94t71.5 254q0 328 -319 327q-326 1 -326 -327zM63 480q0 224 143.5 363.5t380.5 139.5t380 -140.5t143 -363.5t-142.5 -356t-381 -133t-381 133t-142.5 357z" />
    <glyph glyph-name="OE" unicode="&#x152;" horiz-adv-x="2371" 
d="M346 735q0 -264 155.5 -434t438.5 -170q162 0 206 62.5t46 271.5v521q0 115 -9 147t-20.5 65t-28 44t-49 29.5t-150.5 18.5t-228.5 -35.5t-176 -91t-108.5 -131.5q-76 -134 -76 -297zM1649 1268h-265v-453h160q197 0 240 5t53 33t10 136v17h154v-535h-154v16
q0 109 -9 136.5t-53 32.5t-241 6h-160v-508h314q225 2 289.5 6t90.5 29.5t72 336.5h154l-76 -526h-915q-80 0 -201 -11.5t-184 -11.5q-356 0 -569.5 198.5t-213.5 528.5t214 535t571 205q63 0 183 -11.5t198 -11.5l63 2h813l51 -473h-153q-27 258 -57 289q-16 16 -71 22.5
t-308 6.5z" />
    <glyph glyph-name="oe" unicode="&#x153;" horiz-adv-x="1830" 
d="M1362 829q-155 -1 -234 -117q-31 -46 -43 -106h508q-35 223 -231 223zM252 500q0 -193 88 -275t227.5 -82t228.5 82t89 269.5t-89 261t-227 73.5q-317 1 -317 -329zM63 488q0 224 139.5 359.5t345 135.5t310.5 -76q71 -52 119 -106q135 182 385 182q116 0 198 -41
q82 -42 124 -110q79 -129 79 -295q0 -41 -14 -51.5t-47 -10.5h-629q6 -97 45 -165q40 -68 100 -99q107 -55 225 -55t163 110q12 27 25.5 35t37.5 8h27q66 0 65 -39q0 -72 -100 -176t-266 -104q-264 0 -416 188q-139 -188 -412 -188q-227 0 -365.5 137t-138.5 361z" />
    <glyph glyph-name="Racute" unicode="&#x154;" horiz-adv-x="1718" 
d="M1024 1821q33 0 57.5 -30t24.5 -61t-9.5 -48t-25.5 -27t-28.5 -16.5t-32 -11.5t-21.5 -7l-293 -94l-53 145q348 150 381 150zM506 788h262q170 0 274.5 31t149.5 113q25 47 25 96q0 123 -119 186q-100 53 -318 54h-274v-480zM1331 313q0 -180 136 -180q73 -1 89 61
q8 26 14.5 36.5t45.5 11.5h35q57 0 57 -49q0 -72 -59.5 -144t-185 -72t-220 62.5t-110.5 179.5q-4 45 -5 68v125q0 70 -24 108q-76 115 -336 115h-262v-481h158v-154h-512v154h159v1114h-159v155h620q406 0 565 -180q84 -96 84 -206.5t-63.5 -198.5t-186.5 -140v-2
q98 -63 130 -141t32 -176z" />
    <glyph glyph-name="racute" unicode="&#x155;" horiz-adv-x="929" 
d="M690 1425q31 0 59.5 -30.5t28.5 -62.5t-16.5 -53.5t-27.5 -27.5t-73.5 -38.5t-130 -69.5t-90 -49.5t-32.5 -16.5l-78 133q70 45 176.5 117t129.5 85t54 13zM424 154h190v-154h-528v154h154v567q0 53 -22.5 66.5t-113.5 13.5h-18v155l326 23v-92l2 -72q109 164 270 164h2
q70 0 123 -43t53 -97.5t-30.5 -83t-73.5 -28.5q-82 0 -101 94q-115 -27 -175 -119t-60 -237l2 -45v-266z" />
    <glyph glyph-name="Rcaron" unicode="&#x158;" horiz-adv-x="1718" 
d="M506 788h262q170 0 274.5 31t149.5 113q25 47 25 96q0 123 -119 186q-100 53 -318 54h-274v-480zM738 1831q11 0 44 21.5t97.5 64.5t124.5 78l59 -78v-2l-324 -270h-2l-323 270v2l57 78q33 -20 100.5 -64.5t111.5 -72t55 -27.5zM1331 313q0 -180 136 -180q73 -1 89 61
q8 26 14.5 36.5t45.5 11.5h35q57 0 57 -49q0 -72 -59.5 -144t-185 -72t-220 62.5t-110.5 179.5q-4 45 -5 68v125q0 70 -24 108q-76 115 -336 115h-262v-481h158v-154h-512v154h159v1114h-159v155h620q406 0 565 -180q84 -96 84 -206.5t-63.5 -198.5t-186.5 -140v-2
q98 -63 130 -141t32 -176z" />
    <glyph glyph-name="rcaron" unicode="&#x159;" horiz-adv-x="929" 
d="M176 1548v2l74 62l256 -291h2l256 291h2l74 -62v-2l-332 -413h-2zM424 154h190v-154h-528v154h154v567q0 53 -22.5 66.5t-113.5 13.5h-18v155l326 23v-92l2 -72q109 164 270 164h2q70 0 123 -43t53 -97.5t-30.5 -83t-73.5 -28.5q-82 0 -101 94q-115 -27 -175 -119
t-60 -237l2 -45v-266z" />
    <glyph glyph-name="Sacute" unicode="&#x15a;" horiz-adv-x="1308" 
d="M776 1821q33 0 58.5 -31t25.5 -74t-40 -65.5t-173 -63.5t-196 -61l-54 145q346 150 379 150zM129 27v403q2 29 13.5 36t35.5 7h43q45 0 52 -10t11 -45q10 -98 74 -168q115 -117 353 -117q150 0 218 73t68 156t-43 139t-94 80.5t-231 60.5t-232 56q-109 43 -188.5 136.5
t-79.5 224.5q0 164 121 274.5t340 110.5t375 -139q63 124 83 135q8 4 23 4q39 0 39 -49v-402q-2 -31 -15.5 -38t-70.5 -7h-14q-35 0 -42 9.5t-16.5 48t-29 86t-56.5 96.5t-109.5 80.5t-185 31.5t-188.5 -60t-76 -146.5t55.5 -139.5t107.5 -68t206.5 -48t195.5 -45
q121 -39 212.5 -143.5t91.5 -267.5t-120 -284t-366.5 -121t-417.5 136q-49 -94 -64 -115t-40 -21q-39 1 -39 50z" />
    <glyph glyph-name="sacute" unicode="&#x15b;" horiz-adv-x="929" 
d="M655.5 1425q30.5 0 59 -30.5t28.5 -62.5t-16 -53.5t-27.5 -27.5t-73.5 -38.5t-130 -69.5t-90.5 -49.5t-32.5 -16.5l-78 133q70 45 176.5 117t130 85t54 13zM78 43v279q2 27 13 35t42 8t47.5 -1.5t26.5 -2.5q24 -2 39 -62q55 -156 227 -156q203 0 203 131q0 106 -195 142
q-44 0 -126.5 23.5t-108.5 36.5q-85 42 -126.5 95t-41.5 140q0 272 373 272q131 0 221 -55h2q43 57 80 57t37 -51v-225q-2 -25 -13.5 -33t-57.5 -8q-89 0 -85 30q7 50 -42.5 97t-154.5 47q-186 0 -186 -107q0 -44 27.5 -63t44 -27t49.5 -16t49 -11.5t53 -9.5t57.5 -10
t45 -10t81 -29.5t93 -53.5t67.5 -87.5t31 -126.5q0 -303 -373 -303q-74 0 -133 19.5t-77.5 31.5t-53.5 41q-9 -14 -20 -27.5t-17 -23t-15 -18.5t-13.5 -11t-11 -6t-22.5 -4q-36 0 -36 53z" />
    <glyph glyph-name="Scircumflex" unicode="&#x15c;" horiz-adv-x="1308" 
d="M233 1649l353 399h2l352 -399l-119 -99l-233 320h-2l-232 -320zM129 27v403q2 29 13.5 36t35.5 7h43q45 0 52 -10t11 -45q10 -98 74 -168q115 -117 353 -117q150 0 218 73t68 156t-43 139t-94 80.5t-231 60.5t-232 56q-109 43 -188.5 136.5t-79.5 224.5q0 164 121 274.5
t340 110.5t375 -139q63 124 83 135q8 4 23 4q39 0 39 -49v-402q-2 -31 -15.5 -38t-70.5 -7h-14q-35 0 -42 9.5t-16.5 48t-29 86t-56.5 96.5t-109.5 80.5t-185 31.5t-188.5 -60t-76 -146.5t55.5 -139.5t107.5 -68t206.5 -48t195.5 -45q121 -39 212.5 -143.5t91.5 -267.5
t-120 -284t-366.5 -121t-417.5 136q-49 -94 -64 -115t-40 -21q-39 1 -39 50z" />
    <glyph glyph-name="scircumflex" unicode="&#x15d;" horiz-adv-x="929" 
d="M113 1339l340 254h2l340 -254l-93 -122l-247 198h-2l-246 -198zM78 43v279q2 27 13 35t42 8t47.5 -1.5t26.5 -2.5q24 -2 39 -64q55 -154 225 -154q115 0 160 40t45 86t-20.5 73t-60.5 42t-76 23.5t-92 18.5t-85 16q-106 27 -185 93.5t-79 169.5t74.5 190.5t302.5 87.5
q127 0 217 -55h2q4 4 12 13t11 12t10.5 9.5t10.5 9.5t11 7t28 4t27 -11t7 -38v-225q-2 -25 -13.5 -33t-57.5 -8q-89 0 -85 30q7 50 -42.5 97t-152.5 47q-188 0 -188 -109q0 -41 38 -68.5t83 -37t117.5 -21.5t105.5 -22q102 -29 178 -102.5t76 -185t-69 -200.5
q-84 -108 -308 -108q-150 0 -260 92q-9 -14 -20 -27.5t-17 -23t-15 -18.5t-13.5 -11t-11 -6t-22.5 -4q-36 0 -36 53z" />
    <glyph glyph-name="Scedilla" unicode="&#x15e;" horiz-adv-x="1308" 
d="M129 27v403q2 29 13.5 36t35.5 7h43q45 0 52 -10t13.5 -76.5t71.5 -136.5q115 -117 353 -117q154 0 220 75t66 157t-43 137.5t-94 79.5t-231 60t-232 56q-109 43 -188.5 136.5t-79.5 224.5q0 164 121 274.5t340 110.5t375 -139q62 124 76 131.5t30 7.5q39 0 39 -49v-402
q-2 -31 -15.5 -38t-70.5 -7h-14q-35 0 -47 15q-2 2 -10.5 43t-29 87t-56.5 95t-108.5 80.5t-186.5 31.5t-189.5 -60t-75.5 -155q0 -119 129 -184q45 -23 225.5 -61.5t204.5 -46.5q125 -41 217.5 -144.5t92.5 -255.5q0 -61 -15.5 -122.5t-72 -136.5t-150.5 -114
q-23 -10 -86 -28q156 -63 156 -201q0 -78 -47.5 -130t-163.5 -81t-289 -29h-80v156h25q266 0 315 28.5t49 57.5q0 84 -194 84v105q-217 18 -351 131q-61 -117 -75 -126t-29 -10q-39 1 -39 50z" />
    <glyph glyph-name="scedilla" unicode="&#x15f;" horiz-adv-x="929" 
d="M78 43v279q2 27 13 35t42 8t47.5 -1.5t33.5 -3t32 -61.5q55 -156 227 -156q203 0 203 131q0 106 -195 142q-44 0 -126.5 23.5t-138.5 51t-97 80.5t-41 140q0 272 373 272q131 0 221 -55h2q4 4 12 13t11 12t10.5 9.5t14.5 13.5t30 7q39 0 39 -49v-223q-2 -27 -13.5 -35
t-65.5 -8t-66.5 11t-14.5 46t-45 76t-148 41q-186 0 -186 -109q0 -41 39 -68.5t86 -38t118.5 -22.5t104.5 -22q94 -29 172 -101.5t78 -189.5q0 -168 -86.5 -221t-175.5 -74q166 -61 166 -207q0 -66 -36 -112t-121 -86t-425 -40v156q205 0 299 17.5t92 72.5q-6 80 -194 80
v123q-82 20 -156 80q-4 -4 -14.5 -19.5t-15.5 -21.5t-21 -28.5t-44 -22.5q-40 0 -40 55z" />
    <glyph glyph-name="Scaron" unicode="&#x160;" horiz-adv-x="1308" 
d="M654 1831q11 0 44 21.5t97.5 64.5t124.5 78l57 -78v-2l-324 -270h-2l-321 270v2l57 78q33 -20 100.5 -64.5t111.5 -72t55 -27.5zM129 27v403q2 29 13.5 36t35.5 7h43q45 0 52 -10t11 -45q10 -98 74 -168q115 -117 353 -117q150 0 218 73t68 156t-43 139t-94 80.5
t-231 60.5t-232 56q-109 43 -188.5 136.5t-79.5 224.5q0 164 121 274.5t340 110.5t375 -139q63 124 83 135q8 4 23 4q39 0 39 -49v-402q-2 -31 -15.5 -38t-70.5 -7h-14q-35 0 -42 9.5t-16.5 48t-29 86t-56.5 96.5t-109.5 80.5t-185 31.5t-188.5 -60t-76 -146.5t55.5 -139.5
t107.5 -68t206.5 -48t195.5 -45q121 -39 212.5 -143.5t91.5 -267.5t-120 -284t-366.5 -121t-417.5 136q-49 -94 -64 -115t-40 -21q-39 1 -39 50z" />
    <glyph glyph-name="scaron" unicode="&#x161;" horiz-adv-x="929" 
d="M102 1548v2l74 62h2l256 -291h2l256 291l74 -62v-2l-330 -413h-2zM78 43v279q2 27 13 35t42 8t47.5 -1.5t26.5 -2.5q24 -2 39 -62q55 -156 227 -156q203 0 203 131q0 76 -96 117q-35 15 -120 27q-211 31 -296.5 112t-85.5 179q0 274 373 274q131 0 221 -55h2q43 57 80 57
t37 -51v-225q-2 -25 -13.5 -33t-57.5 -8q-89 0 -85 30q7 50 -42.5 97t-154.5 47q-186 0 -186 -109q0 -41 39 -68.5t85 -38t118.5 -22.5t103.5 -20q98 -29 175 -101.5t77 -191.5q0 -303 -373 -303q-74 0 -133 19.5t-77.5 31.5t-53.5 41q-9 -14 -20 -27.5t-17 -23t-15 -18.5
t-13.5 -11t-11 -6t-22.5 -4q-36 0 -36 53z" />
    <glyph glyph-name="Tcommaaccent" unicode="&#x162;" horiz-adv-x="1615" 
d="M1069 1257h-162v-1103h226v-154h-211q176 -61 176 -211q0 -114 -98 -166t-214 -62t-217 -10h-53v156q205 0 299 17.5t92 72.5q-8 80 -194 80v123h-232v154h226v1103h-213q-188 1 -212 -25t-44 -294h-154l35 473h1376l35 -473h-156q-19 284 -50.5 301.5t-254.5 17.5z" />
    <glyph glyph-name="tcommaaccent" unicode="&#x163;" horiz-adv-x="915" 
d="M43 813v154q219 14 223 415h156v-415h321v-154h-321v-494q0 -120 32.5 -141.5t70.5 -21.5t71 37.5t33 134.5v55h155v-49q0 -221 -202 -318q233 -59 233 -225q0 -112 -92.5 -164.5t-218.5 -64t-268 -11.5v156h28q360 0 361 86q0 84 -193 84v113q-134 12 -167.5 105.5
t-33.5 221.5v496h-188z" />
    <glyph glyph-name="Tcaron" unicode="&#x164;" horiz-adv-x="1615" 
d="M808 1831q11 0 44 21.5t97.5 64.5t123.5 78l57 -78v-2l-321 -270h-2l-324 270v2l58 78q35 -20 100.5 -63.5t110.5 -72t56 -28.5zM1069 1257h-162v-1103h226v-154h-652v154h226v1103h-213q-188 0 -212 -25.5t-44 -293.5h-154l35 473h1376l35 -473h-156
q-19 284 -50.5 301.5t-254.5 17.5z" />
    <glyph glyph-name="tcaron" unicode="&#x165;" horiz-adv-x="915" 
d="M608 1524q0 53 39 92t105 39t113.5 -62.5t47.5 -150.5t-42 -167t-86 -117t-64 -38t-59 41t-39 53t14 23.5t49.5 35.5t63.5 109q-78 2 -110 45.5t-32 96.5zM43 813v154q221 14 223 415h156v-415h321v-154h-321v-494q0 -120 32.5 -141.5t70.5 -21.5t71 38.5t33 133.5v55
h155v-51q0 -96 -36.5 -168t-120 -123t-169.5 -51q-163 0 -195 108t-32 219v496h-188z" />
    <glyph glyph-name="Utilde" unicode="&#x168;" horiz-adv-x="1777" 
d="M977 1911q35 0 69.5 28.5t86.5 88.5l120 -97q-141 -176 -184 -213t-80 -37t-83 50.5t-80 50.5t-61.5 -21.5t-33.5 -26.5q-21 -18 -36 -36.5t-29 -32.5l-119 96q14 18 38.5 48t37 45.5t32 39t30.5 36t27 27.5q56 54 94 54t87 -50t84 -50zM150 1268v155h518v-155h-160v-770
q0 -365 402.5 -365t402.5 365v770h-160v155h473v-155h-158v-768q0 -150 -54 -257.5t-143 -161.5q-171 -104 -359 -104q-302 0 -468 157q-60 56 -97.5 150.5t-37.5 213.5v770h-159z" />
    <glyph glyph-name="utilde" unicode="&#x169;" horiz-adv-x="1318" 
d="M713 1454q35 0 70.5 29.5t86.5 89.5l119 -98q-143 -178 -185 -213t-78 -35t-83 50t-78.5 50t-49 -12t-28 -18.5t-24.5 -21.5t-20.5 -21.5t-23 -25t-18.5 -20.5l-118 99q14 18 37.5 46.5t36 44t31 39t29.5 35.5q11 14 27 30q54 54 95 54t90 -51t84 -51zM94 801v155l342 23
v-709q0 -76 32 -101.5t151 -25.5t200.5 53.5t81.5 163.5v367q0 49 -24.5 61.5t-110.5 12.5h-18v155l342 23v-750q0 -49 26.5 -62t108.5 -13h18v-154l-336 -10v139q-156 -139 -411 -139q-197 0 -232 139q-16 63 -16 152v444q0 51 -25.5 63.5t-120.5 12.5h-8z" />
    <glyph glyph-name="Umacron" unicode="&#x16a;" horiz-adv-x="1777" 
d="M432 1579v162h916v-162h-916zM150 1268v155h518v-155h-160v-770q0 -365 402.5 -365t402.5 365v770h-160v155h473v-155h-158v-768q0 -150 -54 -257.5t-143 -161.5q-171 -104 -359 -104q-302 0 -468 157q-60 56 -97.5 150.5t-37.5 213.5v770h-159z" />
    <glyph glyph-name="umacron" unicode="&#x16b;" horiz-adv-x="1318" 
d="M244 1284v160h850v-160h-850zM94 801v155l342 23v-709q0 -76 32 -101.5t151 -25.5t200.5 53.5t81.5 163.5v367q0 49 -24.5 61.5t-110.5 12.5h-18v155l342 23v-750q0 -49 26.5 -62t108.5 -13h18v-154l-336 -10v139q-156 -139 -411 -139q-197 0 -232 139q-16 63 -16 152
v444q0 51 -25.5 63.5t-120.5 12.5h-8z" />
    <glyph glyph-name="Ubreve" unicode="&#x16c;" horiz-adv-x="1777" 
d="M883.5 1765q95.5 0 172.5 70t83 203h153q-2 -190 -119.5 -314.5t-283.5 -124.5t-285 124.5t-121 314.5h154q4 -121 77.5 -197t169 -76zM150 1268v155h518v-155h-160v-770q0 -365 402.5 -365t402.5 365v770h-160v155h473v-155h-158v-768q0 -150 -54 -257.5t-143 -161.5
q-171 -104 -359 -104q-302 0 -468 157q-60 56 -97.5 150.5t-37.5 213.5v770h-159z" />
    <glyph glyph-name="ubreve" unicode="&#x16d;" horiz-adv-x="1318" 
d="M663.5 1278q96.5 0 173 78t81.5 225h155q-4 -211 -124 -340t-285.5 -129t-281.5 134t-118 335h154q4 -137 76.5 -220t169 -83zM94 801v155l342 23v-709q0 -76 32 -101.5t151 -25.5t200.5 53.5t81.5 163.5v367q0 49 -24.5 61.5t-110.5 12.5h-18v155l342 23v-750
q0 -49 26.5 -62t108.5 -13h18v-154l-336 -10v139q-156 -139 -411 -139q-197 0 -232 139q-16 63 -16 152v444q0 51 -25.5 63.5t-120.5 12.5h-8z" />
    <glyph glyph-name="Uring" unicode="&#x16e;" horiz-adv-x="1777" 
d="M780 1740.5q0 -71.5 27 -106.5t101 -35t103 33t29 106t-26.5 108.5t-103.5 35.5t-103.5 -35t-26.5 -106.5zM649 1741q0 135 73.5 215t189.5 80t187.5 -81t71.5 -216t-72.5 -214t-189.5 -79t-188.5 80t-71.5 215zM150 1268v155h518v-155h-160v-770q0 -365 402 -365
t403 365v770h-160v155h473v-155h-158v-768q0 -150 -54 -257.5t-184 -186.5t-318 -79q-301 0 -414 106.5t-151 201t-38 213.5v770h-159z" />
    <glyph glyph-name="uring" unicode="&#x16f;" horiz-adv-x="1318" 
d="M670 1479q-131 0 -131 -154t131 -154t131 150q0 43 -6 73t-37 58t-88 27zM670 1581q118 0 190 -71q72 -72 72 -186t-72 -184t-190 -71q-118 1 -190 71t-72 186t72 186t190 69zM94 801v155l342 23v-709q0 -76 32 -102t151 -25q119 -1 201 53t81 164v367q0 49 -24 61
q-25 12 -111 13h-18v155l342 23v-750q0 -49 26 -62t109 -13h18v-154l-336 -10v139q-156 -139 -411 -139q-197 0 -232 139q-16 63 -16 152v444q0 51 -26 63t-120 13h-8z" />
    <glyph glyph-name="Uhungarumlaut" unicode="&#x170;" horiz-adv-x="1777" 
d="M1030 1714v-12q285 117 303 119q41 0 65.5 -31t24.5 -74q0 -42 -45 -66q-76 -40 -364 -124l-43 112l-350 -112l-54 145q352 147 373 150q39 0 64.5 -29t25.5 -78zM150 1268v155h518v-155h-160v-770q0 -365 402.5 -365t402.5 365v770h-160v155h473v-155h-158v-768
q0 -150 -54 -257.5t-143 -161.5q-171 -104 -359 -104q-302 0 -468 157q-60 56 -97.5 150.5t-37.5 213.5v770h-159z" />
    <glyph glyph-name="uhungarumlaut" unicode="&#x171;" horiz-adv-x="1318" 
d="M731 1425q31 0 59.5 -30.5t28.5 -62.5t-16.5 -53.5t-27.5 -27.5t-73.5 -38.5t-130 -69.5t-90 -49.5t-32.5 -16.5l-78 133q70 45 176.5 117t129.5 85t54 13zM1122.5 1425q30.5 0 59 -30.5t28.5 -62.5t-16 -53.5t-27.5 -27.5t-74 -38.5t-130 -69.5t-90 -49.5t-32.5 -16.5
l-78 133q70 45 176.5 117t130 85t54 13zM94 801v155l342 23v-709q0 -76 32 -101.5t151 -25.5t200.5 53.5t81.5 163.5v367q0 49 -24.5 61.5t-110.5 12.5h-18v155l342 23v-750q0 -49 26.5 -62t108.5 -13h18v-154l-336 -10v139q-156 -139 -411 -139q-197 0 -232 139
q-16 63 -16 152v444q0 51 -25.5 63.5t-120.5 12.5h-8z" />
    <glyph glyph-name="Wcircumflex" unicode="&#x174;" horiz-adv-x="2390" 
d="M838 1649l352 399h2l352 -399l-119 -99l-233 320h-2l-232 -320zM47 1268v155h461v-155h-113l242 -688q104 -311 113 -357q18 100 354 1045h-129v155h461v-155h-115l231 -658q113 -338 125 -387l21 78l100 303l234 664h-131v155h438v-155h-152l-432 -1211
q-12 -35 -29.5 -46t-52.5 -11h-33q-39 0 -55 14.5t-33 59.5l-372 1042q-47 -201 -353 -1061q-12 -33 -29.5 -44t-49.5 -11h-37q-34 0 -44 7t-15 9t-10 14.5t-7 15.5t-8 20.5t-6 19.5l-422 1182h-152z" />
    <glyph glyph-name="wcircumflex" unicode="&#x175;" horiz-adv-x="1712" 
d="M512 1339l340 254h2l340 -254l-92 -122l-248 198h-2l-246 -198zM47 813v154h440v-154h-108l119 -346l41 -131l24 -96l10 -45q8 96 193 618h-125v154h424v-154h-111q193 -569 203 -618q14 86 104.5 337.5t98.5 280.5h-125v154h428v-154h-147l-263 -747
q-14 -39 -29.5 -51.5t-47.5 -14.5h-41q-37 0 -52.5 12.5t-29.5 48.5l-211 601q-25 -147 -185 -601q-12 -37 -28.5 -49t-55.5 -12h-32q-37 0 -53.5 14.5t-32.5 57.5l-260 741h-148z" />
    <glyph glyph-name="Ycircumflex" unicode="&#x176;" horiz-adv-x="1734" 
d="M510 1649l352 399h2l353 -399l-119 -99l-234 320h-2l-231 -320zM43 1268v155h504v-155h-62l408 -539l403 539h-59v155h453v-155h-199l-502 -666q-18 -25 -21 -35t-3 -49v-364h157v-154h-512v154h160v362q0 39 -3 49t-22 35l-503 668h-199z" />
    <glyph glyph-name="ycircumflex" unicode="&#x177;" horiz-adv-x="1253" 
d="M285 1339l340 254h2l340 -254l-93 -122l-247 198h-2l-246 -198zM51 -238q0 47 30 75t69 28t71.5 -25.5t32.5 -83.5v-12q166 0 230 114q56 101 58 144q0 10 -12 37l-319 774h-160v154h451v-154h-103l205 -506l37 -112q18 72 242 618h-103v154h422v-154h-160l-360 -872
q-14 -46 -54 -116.5t-82 -114.5t-117 -82t-161 -38t-151.5 49t-65.5 123z" />
    <glyph glyph-name="Ydieresis" unicode="&#x178;" horiz-adv-x="1734" 
d="M958 1662q0 56 41 95t96.5 39t95.5 -38t40 -97t-40 -98t-97 -39t-96.5 41t-39.5 97zM502 1660q0 58 41 97t95 39t95 -39t41 -95t-40 -97t-96 -41t-96 39t-40 97zM43 1268v155h504v-155h-62l408 -539l403 539h-59v155h453v-155h-199l-502 -666q-18 -25 -21 -35t-3 -49
v-364h157v-154h-512v154h160v362q0 39 -3 49t-22 35l-503 668h-199z" />
    <glyph glyph-name="Zacute" unicode="&#x179;" horiz-adv-x="1439" 
d="M907 1821q33 0 58.5 -31t25.5 -74t-40 -65.5t-173 -63.5t-196 -61l-54 145q346 150 379 150zM776 1268q-262 0 -324 -10q-60 -10 -80 -28q-42 -40 -55 -280h-155l20 473h1061q41 0 52.5 -14t11.5 -58t-33 -85l-862 -1100h280q274 0 338 9t83.5 31.5t30.5 96.5t21 246h154
l-31 -549h-1095q-35 0 -49.5 11t-14.5 48v27l2 27q0 18 8 26t13.5 15.5t7.5 9.5l868 1104h-252z" />
    <glyph glyph-name="zacute" unicode="&#x17a;" horiz-adv-x="1048" 
d="M713 1425q31 0 59.5 -30.5t28.5 -62.5t-16.5 -53.5t-28 -27.5t-73.5 -38.5t-130 -69.5t-90.5 -49.5t-32.5 -16.5l-78 133q70 45 176.5 117t130 85t54.5 13zM63 57v31q0 10 2.5 19.5t3.5 15.5t7 14t9.5 14t20.5 23l553 639h-129q-211 0 -239.5 -15.5t-28.5 -68.5
q-8 -70 -12 -143h-154l21 381h760q55 0 61 -32q2 -11 2 -38t-5 -43t-10 -22.5t-28 -30.5l-551 -635h178q176 0 209 12t43 82q4 31 15 170h155l-31 -430h-784q-25 0 -36 2t-21.5 15t-10.5 40z" />
    <glyph glyph-name="Zdotaccent" unicode="&#x17b;" horiz-adv-x="1439" 
d="M649 1754q0 58 41 98t95 40t94.5 -38.5t40.5 -97t-41 -97.5t-95.5 -39t-94.5 38t-40 96zM776 1268q-262 0 -324 -10q-60 -10 -80 -28q-42 -40 -55 -280h-155l20 473h1061q41 0 52.5 -14t11.5 -58t-33 -85l-862 -1100h280q274 0 338 9t83.5 31.5t30.5 96.5t21 246h154
l-31 -549h-1095q-35 0 -49.5 11t-14.5 48v27l2 27q0 18 8 26t13.5 15.5t7.5 9.5l868 1104h-252z" />
    <glyph glyph-name="zdotaccent" unicode="&#x17c;" horiz-adv-x="1048" 
d="M420 1285q0 58 41 98t95 40t94 -38.5t40 -97t-41 -97.5t-95 -39t-94 38t-40 96zM63 57v31q0 10 2.5 19.5t3.5 15.5t7 14t9.5 14t20.5 23l553 639h-129q-211 0 -239.5 -15.5t-28.5 -68.5q-8 -70 -12 -143h-154l21 381h760q55 0 61 -32q2 -11 2 -38t-5 -43t-10 -22.5
t-28 -30.5l-551 -635h178q176 0 209 12t43 82q4 31 15 170h155l-31 -430h-784q-25 0 -36 2t-21.5 15t-10.5 40z" />
    <glyph glyph-name="Zcaron" unicode="&#x17d;" horiz-adv-x="1439" 
d="M718 1831q11 0 44 21.5t97.5 64.5t123.5 78l57 -78v-2l-323 -270h-2l-322 270v2l58 78q35 -20 100 -63.5t110.5 -72t56.5 -28.5zM776 1268q-262 0 -324 -10q-60 -10 -80 -28q-42 -40 -55 -280h-155l20 473h1061q41 0 52.5 -14t11.5 -58t-33 -85l-862 -1100h280
q274 0 338 9t83.5 31.5t30.5 96.5t21 246h154l-31 -549h-1095q-35 0 -49.5 11t-14.5 48v27l2 27q0 18 8 26t13.5 15.5t7.5 9.5l868 1104h-252z" />
    <glyph glyph-name="zcaron" unicode="&#x17e;" horiz-adv-x="1048" 
d="M166 1548v2l74 62h2l256 -291h2l256 291h2l73 -62v-2l-331 -413h-2zM63 57v31q0 10 2.5 19.5t3.5 15.5t7 14t9 14t21 23l553 639h-129q-212 0 -240 -16t-28 -68q-8 -70 -12 -143h-154l21 381h760q55 0 61 -32q2 -11 2 -38t-5 -43t-10 -22.5t-28 -30.5l-551 -635h178
q176 0 209 12t43 82q4 31 15 170h155l-31 -430h-784q-25 0 -36 2t-21.5 15t-10.5 40z" />
    <glyph glyph-name="longs" unicode="&#x17f;" horiz-adv-x="718" 
d="M76 811v156h170v106q0 239 216 320q110 41 232 41q78 0 112 -47.5t34 -96.5t-31 -78.5t-72 -29.5q-84 0 -104 96q-92 -6 -147.5 -43t-55.5 -131v-948h191v-156h-529v156h154v655h-170z" />
    <glyph glyph-name="uni0180" unicode="&#x180;" horiz-adv-x="1318" 
d="M711 143q329 0 329 340t-307 340q-109 0 -206 -49t-97 -123v-289q2 -74 84 -146.5t197 -72.5zM0 1108v22q0 33 9 48.5t46 17.5h187q-12 35 -37 42t-109 7h-8v156l336 22v-227h272q39 0 50.5 -15.5t11.5 -47.5v-29q0 -33 -10.5 -47.5t-45.5 -16.5h-278v-170
q190 109 438 109q172 0 275.5 -133t103.5 -372t-131.5 -361.5t-329.5 -122.5t-368 139l-17 -129h-153v1040h-189q-37 2 -45 17.5t-8 50.5z" />
    <glyph glyph-name="uni0186" unicode="&#x186;" horiz-adv-x="1701" 
d="M188 913q-51 0 -51 33v17q0 182 181.5 331.5t463.5 149.5q356 0 574.5 -202t218.5 -533.5t-219 -532.5t-563 -201q-283 0 -476 177q-104 -172 -127 -172l-18 -3q-37 1 -37 48v458q0 36 17 41l4 4q4 2 37 2h57q47 0 47 -61q17 -91 109 -203q48 -58 131.5 -96.5t191 -38.5
t213 26.5t205.5 88t160.5 180.5t60.5 283q0 272 -171 426.5t-470 154.5q-176 0 -296.5 -92.5t-137.5 -219.5q-6 -46 -12 -55t-45 -10h-48z" />
    <glyph glyph-name="uni0188" unicode="&#x188;" 
d="M78 483q0 179 81 292.5t189.5 160.5t242.5 47t208 -14v59q0 96 41 167t132 122t189 51q97 0 137.5 -46t40.5 -94t-30.5 -78t-72.5 -30t-68.5 23.5t-32.5 48.5l-7 22q-174 -4 -174 -186v-194q0 -72 -33.5 -97.5t-69.5 -25.5t-69.5 23.5t-38.5 80.5h-2q-82 4 -123 4
q-340 0 -339 -330q0 -94 33.5 -162.5t113.5 -119.5t219 -51q102 0 134 49t38.5 79.5t48.5 34.5h68q43 0 43 -26q0 -47 -42 -109.5t-85 -101.5t-113.5 -65.5t-152.5 -26.5q-223 0 -364.5 134t-141.5 359z" />
    <glyph glyph-name="uni018E" unicode="&#x18e;" horiz-adv-x="1501" 
d="M1350 1417v-155h-160v-1108h160v-154h-1209l-78 526h156q45 -292 65 -324t90 -40t341 -8h276v503h-237q-68 0 -85.5 -20.5t-17.5 -108.5v-61h-153v537h153v-62q0 -76 12.5 -102.5t90.5 -26.5h237v449h-260l-215 -2q-150 0 -173 -24t-31.5 -76t-11.5 -74.5t-8 -76
t-7 -65.5h-156l51 473h1170z" />
    <glyph glyph-name="uni018F" unicode="&#x18f;" horiz-adv-x="1574" 
d="M716 143q79 0 124 5.5t115.5 30t125 65.5t104.5 124t70 195h-997q28 -216 154 -320q50 -42 137.5 -71t166.5 -29zM129 1397q0 47 39 47q25 0 40 -17.5t97 -126.5h2q168 143 416 144q338 0 545 -201t207 -528.5t-196 -532.5t-534 -205q-158 0 -279.5 42t-195.5 109
t-122 159q-84 164 -85 377q0 33 13.5 44t44.5 11h1147q-4 166 -55.5 283.5t-135.5 177.5q-156 110 -332 110t-304 -76t-154 -212q-5 -27 -15.5 -34t-25.5 -7l-58 -3q-35 0 -46 8.5t-13 37.5v393z" />
    <glyph glyph-name="uni0190" unicode="&#x190;" horiz-adv-x="1439" 
d="M1364 393q0 -184 -186.5 -300t-464.5 -116q-168 0 -295 41q-128 40 -194 106q-128 127 -128 269q0 262 422 350q-115 23 -192.5 66t-109.5 93q-54 84 -54 150t30.5 129.5t96 125t191.5 99.5t294 38q252 0 415 -103.5t163 -269.5q0 -59 -32 -86t-74 -27t-73.5 29t-31.5 75
t37 83v2q-109 143 -398 143q-227 0 -330.5 -73.5t-103.5 -163.5t93 -163t311 -73h180q31 0 40 -11t9 -36v-55q0 -33 -8 -41t-37 -10h-182q-240 0 -352.5 -77t-112.5 -183.5t102.5 -188.5t325.5 -82q156 0 261 33t161.5 81.5t71.5 134.5q3 18 5.5 24t3.5 13q2 11 74 11h4
l19 2q49 0 49 -39z" />
    <glyph glyph-name="florin" unicode="&#x192;" horiz-adv-x="1228" 
d="M399 813q-57 0 -57 43q2 25 14 62q10 49 62 49h194q43 241 72 307t98.5 113t142.5 47t158.5 -26t85.5 -116q0 -51 -35.5 -90t-84.5 -39q-82 0 -82 80q0 23 4 35l-113 2q-29 -78 -67 -313h225q55 0 55 -43q0 -14 -9 -50t-21.5 -48.5t-47.5 -12.5h-231q-125 -721 -162 -859
t-84 -210q-104 -154 -235 -154q-98 0 -161 39t-63 106t44 96.5t79 29.5q82 0 82 -80q0 -10 -4 -35l35 -2q53 0 84 66q45 98 147 667q16 96 60 336h-185z" />
    <glyph glyph-name="uni0195" unicode="&#x195;" horiz-adv-x="1816" 
d="M94 0v154h154v1020q-2 45 -25.5 58t-105.5 13h-23v156l338 22v-598q143 154 340 154q241 0 279.5 -115t38.5 -221v-43q0 -158 28.5 -266.5t116.5 -157.5q53 -33 119 -33t111.5 43t77.5 147t32 223t-21.5 178t-43 86.5t-21.5 63.5t30.5 65.5t69.5 29.5q141 0 140 -365v-12
q0 -172 -36 -299t-120.5 -220t-214.5 -93q-221 0 -338 145q-74 90 -96.5 205t-22.5 264v25q0 47 -4 71.5t-30.5 73.5t-186.5 49q-83 0 -163.5 -56.5t-80.5 -223.5v-389h154v-154h-496z" />
    <glyph glyph-name="uni0199" unicode="&#x199;" horiz-adv-x="1253" 
d="M92 0v154h154v907q0 246 204 309.5t334 63.5t189 -61t59 -119t-30.5 -87.5t-73.5 -29.5t-74 27.5t-31 61.5t2 46q-74 8 -112 8q-137 0 -208 -53t-83 -119q-2 -10 -2 -61v-512l313 278h-63v154h491v-154h-176q-25 0 -45 -14.5t-90 -79t-148 -129.5q2 -2 157 -201t170 -217
t40 -18h145v-154h-432v154h52l-252 325h-2q-46 -44 -99 -88.5t-60 -56.5t-7 -33v-147h153v-154h-475z" />
    <glyph glyph-name="uni019A" unicode="&#x19a;" horiz-adv-x="915" 
d="M141 780v27q0 20 1 29.5t13.5 21.5t37.5 12h174v301q-2 49 -28 61.5t-114 12.5h-12v156l336 22v-553h174q35 0 43 -17t8 -52v-21q0 -40 -14.5 -51.5t-38.5 -11.5h-172v-563h153v-154h-489v154h154v563h-174q-33 0 -42.5 16t-9.5 47z" />
    <glyph glyph-name="uni019b" unicode="&#x19b;" horiz-adv-x="1243" 
d="M1155 12q0 -30 -63 -22h-76q-51 0 -92 37q-25 23 -326 548h-2q-10 -18 -155.5 -266t-159.5 -270q-31 -51 -75 -51t-75 27.5t-31 59.5t47 103l316 467q45 68 51 76l-43 78q-273 -158 -289 -158t-50 57.5t-34 73.5t45 42t90.5 51.5t67 39t38.5 23.5t26.5 14t15.5 8
q-10 20 -82 144t-77 131.5t-12 13.5t-11 10t-15.5 7.5t-17.5 4.5t-22.5 2t-37.5 3t-64 3q-42 1 -61.5 23.5t-19.5 53.5q0 78 94 77h8q217 0 262 -35.5t73 -85.5t55.5 -98.5t41 -72t24.5 -42t16.5 -27.5t9.5 -18q274 158 289 158t49.5 -57.5t34.5 -73.5t-45 -42t-90.5 -51.5
t-67 -38.5t-39 -23.5t-26.5 -14.5t-15 -8l434 -754q49 -78 67.5 -95.5t18.5 -31.5z" />
    <glyph glyph-name="uni019E" unicode="&#x19e;" horiz-adv-x="1253" 
d="M94 0v154h154v567q0 53 -22.5 66.5t-112.5 13.5h-19v155l332 23v-162q133 162 346 162q90 0 154.5 -24.5t95.5 -56.5t47 -87t18.5 -87t2.5 -89v-879h153v-155h-495v155h153v883q0 140 -73.5 162t-157.5 22t-159 -64.5t-75 -215.5v-389h154v-154h-496z" />
    <glyph glyph-name="Ohorn" unicode="&#x1a0;" horiz-adv-x="1746" 
d="M334 733q0 -272 143.5 -427.5t395 -155.5t394 156.5t142.5 426.5t-148.5 408.5t-389.5 138.5t-389 -137.5t-148 -409.5zM129 707q0 333 205 535t538 202q106 0 192.5 -19.5t92.5 -19.5q33 0 66 39q-55 55 -55.5 113.5t36.5 97.5t98 39t99.5 -53.5t38.5 -139.5
q0 -139 -76 -215v-2q117 -94 183.5 -246.5t66.5 -335.5q0 -328 -202 -526.5t-541 -198.5t-540.5 198.5t-201.5 531.5z" />
    <glyph glyph-name="ohorn" unicode="&#x1a1;" 
d="M264 502q0 -348 322 -348q180 0 251.5 94t71.5 254q0 328 -319 327q-326 1 -326 -327zM63 478q0 224 143.5 364.5t379.5 140.5q82 0 151.5 -17.5t75.5 -17.5q31 0 66 41q-55 49 -55.5 109.5t36.5 100.5t98 40t99.5 -53t38.5 -139q0 -172 -101 -232q115 -150 115 -355.5
t-141.5 -337.5t-381 -132t-382 132t-142.5 356z" />
    <glyph glyph-name="uni01A5" unicode="&#x1a5;" horiz-adv-x="1253" 
d="M362 362q0 -70 82 -144.5t199 -74.5q330 0 330 340t-307 340q-109 0 -206.5 -49t-97.5 -123v-289zM20 -244h154v1309q0 180 153.5 274.5t534.5 94.5h4q147 0 216 -59t69 -119t-32 -89.5t-77 -29.5t-72.5 29.5t-27.5 82.5v19q-80 12 -176 12q-326 0 -393 -131
q-14 -29 -15 -92v-187q190 109 439 109q172 0 274.5 -133t102.5 -365t-124 -361.5t-318 -129.5t-370 123v-357h154v-155h-496v155z" />
    <glyph glyph-name="uni01A7" unicode="&#x1a7;" horiz-adv-x="1308" 
d="M1004 1089q0 83 -72 147t-199 64t-229 -60t-128 -168.5t-33.5 -115t-29.5 -6.5h-63q-27 0 -38 7.5t-11 35.5v389q0 33 2 39q0 23 31 23t41 -11.5t34 -59.5t37 -68q139 139 375 139q123 0 216 -36t169 -122.5t76 -227.5q0 -142 -86 -231.5t-166 -121.5t-244 -60.5
t-268.5 -84t-104.5 -189.5q0 -68 56.5 -154t260.5 -86q116 0 238.5 57.5t151.5 188.5l6 49q0 47 37 47h63q29 0 42.5 -7t13.5 -36v-410q0 -43 -41 -43q-33 0 -62 58t-41 78q-158 -133 -438 -133q-129 0 -224 39.5t-168 132.5t-73 239q0 145 86 252t217 150q16 6 180 40.5
t218 50.5t111 69t57 136z" />
    <glyph glyph-name="uni01A8" unicode="&#x1a8;" horiz-adv-x="929" 
d="M852 43q0 -53 -34 -53q-30 0 -40 10t-18 20.5t-12.5 16.5t-14.5 20.5t-16 22.5q-113 -92 -264 -92q-109 0 -187 29.5t-132 98.5t-54 175q0 150 141 244q85 55 221 74.5t186 48t50 73.5t-40 78t-128 33h-18q-164 0 -193 -113q-2 -6 -3 -15t-2 -13.5t-5.5 -17.5t-42.5 -13
h-62q-45 0 -45 39v225q0 49 39 49q31 0 78 -55h2q90 57 212 57q229 0 305.5 -88.5t76.5 -175.5q0 -88 -37 -143.5t-100.5 -85t-119.5 -46t-127 -28.5t-88 -16t-39 -12.5t-51.5 -35t-35.5 -61.5v-27q0 -49 51 -86t137 -37h17q144 0 184.5 75t50.5 112q12 30 22 32t27 3h64
q45 0 45 -43v-279z" />
    <glyph glyph-name="uni01AA" unicode="&#x1aa;" horiz-adv-x="829" 
d="M199 1196q0 -35 19.5 -58.5t43.5 -23.5t35.5 16.5t20 49t10.5 39.5q-29 59 -62 59t-50 -23.5t-17 -58.5zM43 1191q0 97 60.5 170t160.5 73t181 -88.5t81 -227.5v-1194q0 -180 140 -180h14q0 61 35 88t75 27t70.5 -29t30.5 -82t-50.5 -105.5t-134.5 -52.5t-160.5 30
t-139 110t-62.5 194v1053q-43 -18 -86 -19q-86 0 -150.5 68t-64.5 165z" />
    <glyph glyph-name="uni01AB" unicode="&#x1ab;" horiz-adv-x="980" 
d="M784 383v-453q0 -100 -36.5 -171.5t-117 -120t-163.5 -48.5q-82 0 -129 50.5t-47 104.5t30.5 85t62.5 31t52.5 -7.5t42 -35t23.5 -74.5q127 4 127 180v117q-92 -51 -185 -51q-150 0 -194 160q-18 61 -19 169v494h-188v154q219 14 223 415h156v-415h321v-154h-321v-487
q0 -111 34 -141q34 -29 72 -29t70.5 40t32.5 140l-2 47h155z" />
    <glyph glyph-name="uni01AD" unicode="&#x1ad;" horiz-adv-x="980" 
d="M784 383v-51q0 -96 -36.5 -168t-121.5 -123t-182 -51q-158 0 -198 178q-14 61 -15 162v483h-188v154h195q8 111 103 217t294 106q109 0 161 -49t52 -101t-30 -83t-71 -31t-73.5 24.5t-36.5 86.5h-47q-147 0 -168 -170h321v-154h-321v-487q0 -111 34 -141q34 -29 72 -29
t70.5 40t32.5 140l-2 47h155z" />
    <glyph glyph-name="Uhorn" unicode="&#x1af;" horiz-adv-x="1777" 
d="M150 1268v155h518v-155h-160v-770q0 -365 402.5 -365t402.5 365v770h-160v155h315v-30l52 18l34 23q-78 45 -77 125q0 55 37.5 95t100.5 40t99.5 -54.5t36.5 -106.5t-12.5 -90t-41 -80t-88 -77t-141.5 -49v-739q0 -231 -146.5 -376t-424.5 -145q-206 0 -383 104
q-92 54 -148.5 160.5t-56.5 254.5v772h-159z" />
    <glyph glyph-name="uhorn" unicode="&#x1b0;" horiz-adv-x="1318" 
d="M94 801v155l342 23v-709q0 -76 32 -101.5t151 -25.5t200.5 53.5t81.5 163.5v367q0 49 -24.5 61.5t-110.5 12.5h-18v155l247 17v4h25q80 0 133 22v2q-43 47 -43 104.5t38 96.5t100.5 39t98 -58.5t35.5 -126t-29.5 -118.5t-72.5 -79q-90 -59 -162 -68l-28 -7v-548
q0 -53 23.5 -67.5t113.5 -14.5h16v-154l-336 -10v139q-156 -139 -411 -139q-197 0 -232 139q-16 63 -16 152v444q0 51 -25.5 63.5t-120.5 12.5h-8z" />
    <glyph glyph-name="uni01B7" unicode="&#x1b7;" horiz-adv-x="1310" 
d="M475 662q-29 0 -40 2q-29 5 -29 65v31q0 37 36 67l566 455h-359q-293 0 -329 -22q-16 -10 -31.5 -53t-38.5 -257h-154l51 473h992q41 0 52 -15t11 -48v-62q0 -29 -7 -42t-34 -35l-491 -398q146 -4 256 -46q110 -41 168 -105q114 -123 114 -254.5t-80 -245.5t-266 -166
q-104 -29 -235 -29q-515 1 -531 306v10q0 59 33 90t78 31t77.5 -32t32.5 -79t-38 -86q43 -43 108.5 -57.5t216.5 -16.5q397 0 397 261.5t-372 261.5l-113 -4h-41z" />
    <glyph glyph-name="uni01B9" unicode="&#x1b9;" horiz-adv-x="1048" 
d="M96 16q0 186 89 301t245 138q-297 357 -312 379t-16 45v24q0 35 10.5 49.5t53.5 14.5h760l20 -334h-153q-10 139 -26.5 154.5t-54.5 18.5t-206 3h-178l358 -432q27 -31 27 -57t-54 -29h-30q-39 0 -61 5t-40 5t-48.5 -8t-77 -31.5t-76 -86t-29.5 -152.5q0 -276 252 -277
q133 0 209 45q-23 39 -23 78t30 67.5t75 28.5t75.5 -29.5t30.5 -78.5q0 -119 -115 -193t-303 -74t-310 120t-122 306z" />
    <glyph glyph-name="uni01BA" unicode="&#x1ba;" horiz-adv-x="1048" 
d="M879 967q64 0 62 -53q-1 -28 -1 -44t-21 -41t-129 -133l-161 -161q49 -7 116.5 -32.5t104.5 -51t66.5 -74.5t29.5 -119t-67.5 -134.5t-246.5 -144.5t-186 -192q0 -14 14 -28.5t114 -14.5t165.5 18.5t100 37t48.5 18.5t52.5 -39t38.5 -57t-53.5 -49t-144.5 -57t-177 -26
q-152 0 -251 65.5t-99 170.5q0 68 51 125t125 97t199 103t125 158q0 90 -250 90h-10l8 -12h-90q-82 0 -82 37q0 14 26 44t146 150l192 191l-164 2q-150 0 -200 -5t-61 -33t-19 -140h-154l21 334h762z" />
    <glyph glyph-name="uni01BF" unicode="&#x1bf;" horiz-adv-x="1189" 
d="M895 575.5q0 100.5 -58.5 165t-136.5 64.5q-25 0 -124 -31t-148 -45v-547q287 74 311 84q76 35 116 122t40 187.5zM240 -299v1024q0 66 -9 90q-2 0 -161 -24v153l354 68v-99q55 16 110.5 34t97 31t99.5 13q156 0 273.5 -116.5t117.5 -287.5t-94 -304t-242 -191
q-76 -29 -358 -94v-485l-358 -76v153q60 10 83 16.5t40.5 10.5t30 14t14.5 28.5t2 41.5z" />
    <glyph glyph-name="uni01C0" unicode="&#x1c0;" horiz-adv-x="653" 
d="M242 1360q0 37 14 50t45 13h49q31 0 44.5 -11t15.5 -44v-1706q0 -39 -14.5 -50t-45.5 -11h-49q-31 0 -44 11t-15 44v1704z" />
    <glyph glyph-name="uni01C1" unicode="&#x1c1;" horiz-adv-x="1046" 
d="M711 1423h34q33 0 47.5 -10t16.5 -45v-1706q0 -39 -13.5 -50t-43.5 -11h-37q-33 0 -46.5 10t-15.5 45v1685l-2 21q0 35 13.5 48t46.5 13zM233 1360q0 37 14.5 50t45.5 13h35q33 0 47 -10t16 -45v-1706q0 -39 -14.5 -50t-44.5 -11h-35q-33 0 -47.5 11t-16.5 46v1702z" />
    <glyph glyph-name="uni01C2" unicode="&#x1c2;" horiz-adv-x="1308" 
d="M1176 303q0 -33 -10.5 -45t-45.5 -14h-383v-586q0 -35 -13 -46t-46 -11h-49q-35 0 -47.5 13t-12.5 46v584h-381q-31 0 -45 11t-14 50v51q0 33 11.5 46.5t45.5 13.5h383v143h-376q-33 0 -48.5 11.5t-15.5 50.5v49q0 33 10.5 47t46.5 14h383v631q-2 35 12.5 48t47.5 13h51
q31 0 44 -12t13 -47v-633h383q35 0 45.5 -13t10.5 -48v-49q0 -39 -14.5 -50.5t-47.5 -11.5h-377v-143h377q33 0 48.5 -11.5t15.5 -50.5l-2 -22v-29z" />
    <glyph glyph-name="uni01C3" unicode="&#x1c3;" horiz-adv-x="739" 
d="M231 1307q0 69 44 103q45 34 95 34t92 -35t42 -100q0 -23 -4 -68l-51 -741q-3 -41 -11 -51t-43 -11h-47q-33 0 -45 7t-14 36l-51 750q-7 74 -7 76zM231 136q0 54 40 95q41 41 97 41t96 -38t40 -96t-41 -98t-97 -40t-96 41q-39 41 -39 95z" />
    <glyph glyph-name="uni01C4" unicode="&#x1c4;" horiz-adv-x="3223" 
d="M2234 1995q35 -20 145 -92t123 -72q14 1 110 65t155 99l57 -78v-2l-323 -270h-2l-322 270v2zM2560 1268q-262 0 -324 -10t-80 -27q-42 -40 -55 -281h-155l20 473h1061q41 0 52 -14t11 -58t-32 -85l-863 -1100h281q274 0 338 9t83 32q35 42 52 342h154l-31 -549h-1096
q-35 0 -49 11t-14 48v27l2 27q0 18 8 26q8 7 13 15t8 10l868 1104h-252zM506 154h350q154 6 219 22q375 92 375 522q0 569 -596 570h-348v-1114zM152 0v154h159v1114h-159v155h737q365 1 563 -197t199 -512q0 -314 -172 -499q-172 -186 -467 -211q-41 -4 -123 -4h-737z" />
    <glyph glyph-name="uni01C5" unicode="&#x1c5;" horiz-adv-x="2832" 
d="M1950 1548v2l73 62h2l256 -291h3l256 291h2l73 -62v-2l-331 -413h-3zM1847 57v31q0 10 2 20l3 15q1 6 8 14q6 7 11 15t19 22l553 639h-129q-212 0 -240 -16t-28 -68q-8 -70 -12 -143h-154l21 381h759q53 0 62 -32q2 -11 2 -48t-10 -50q-10 -12 -33 -36l-551 -635h178
q176 0 209 12t43 82q4 31 14 170h156l-31 -430h-784q-25 0 -36 2t-21 15t-11 40zM506 154h350q154 6 219 22q375 92 375 522q0 569 -596 570h-348v-1114zM152 0v154h159v1114h-159v155h737q365 1 563 -197t199 -512q0 -314 -172 -499q-172 -186 -467 -211q-41 -4 -123 -4
h-737z" />
    <glyph glyph-name="uni01C6" unicode="&#x1c6;" horiz-adv-x="2367" 
d="M1485 1548v2l74 62h2l256 -291h2l256 291h2l73 -62v-2l-331 -413h-2zM1382 57v31q0 32 10 44t14 20q5 8 19 22l553 639h-129q-211 0 -239 -16t-29 -68q-8 -70 -12 -143h-154l21 381h759q31 -1 45 -11t17 -21q2 -11 2 -47t-10 -50t-33 -37l-551 -635h178q176 0 209 12
t43 82q4 31 14 170h156l-31 -430h-784q-25 0 -36 2q-12 2 -22 15t-10 40zM610 823q-331 0 -331 -340t303 -340q123 0 215 75t92 151v282q0 43 -29 74q-90 98 -250 98zM78 483q0 213 106 355t324 141q218 0 387 -105v297q-2 49 -28 61t-113 13h-13v156l336 22v-1190
q0 -51 23 -65t106 -14h25v-154l-342 -10v131q-182 -131 -402 -131q-151 0 -269 103q-62 55 -101 155t-39 235z" />
    <glyph glyph-name="uni01C7" unicode="&#x1c7;" horiz-adv-x="2564" 
d="M1505 231q0 51 33 84t78 33t78 -32q61 -59 10 -150q72 -33 176 -33q209 0 209 193v942h-207v155h520v-155h-118v-949q0 -169 -111 -255t-281 -86t-278 70t-109 183zM150 0v154h159v1114h-159v155h559v-155h-201v-1114h246q251 0 292 26q22 14 34 62t38 284h154l-51 -526
h-1071z" />
    <glyph glyph-name="uni01C8" unicode="&#x1c8;" horiz-adv-x="2101" 
d="M1610 1286q0 53 39 95t95 42t97 -39t41 -97t-41 -97t-97 -39t-95 41t-39 94zM1286 -256q0 58 31 86q31 29 73 29t74 -26t33 -87l43 -2q160 0 160 180v805q-2 45 -28 58t-116 14h-24v155l350 23v-1010l2 -45q0 -94 -42 -164t-108 -104q-120 -63 -226 -65q-106 -1 -164 47
t-58 106zM150 0v154h159v1114h-159v155h559v-155h-201v-1114h246q251 0 292 26q22 14 34 62t38 284h154l-51 -526h-1071z" />
    <glyph glyph-name="uni01C9" unicode="&#x1c9;" horiz-adv-x="1396" 
d="M905 1286q0 53 39 95t95 42q55 0 97 -39t42 -97t-41 -97t-97 -39t-96 41q-39 41 -39 94zM582 -256q0 58 30 86q31 29 73 29t75 -26t33 -87l43 -2q160 0 159 180v805q-2 45 -27 58q-26 13 -116 14h-25v155l351 23v-1010l2 -45q0 -94 -42 -164t-108 -104q-121 -63 -228 -65
q-106 -1 -163 47t-57 106zM96 0v154h154v1020q-2 45 -26 58t-105 13h-23v156l338 22v-1269h154v-154h-492z" />
    <glyph glyph-name="uni01CA" unicode="&#x1ca;" horiz-adv-x="3014" 
d="M1956 231q0 51 33 84t77 33t78 -32q33 -32 33 -72t-23 -78q72 -33 177 -33q209 0 209 193v942h-207v155h520v-155h-119v-949q0 -169 -111 -255t-281 -86t-278 70t-108 183zM154 0v154h159v1114h-159v155h311q29 0 41 -7t33 -34l813 -1056v942h-160v155h471v-155h-160
v-1198q0 -42 -14 -56t-41 -14h-37q-29 0 -41 7t-33 34l-872 1133v-1020h160v-154h-471z" />
    <glyph glyph-name="uni01CB" unicode="&#x1cb;" horiz-adv-x="2551" 
d="M2060 1286q0 53 39 95t95 42t98 -39t41 -97q0 -58 -41 -97t-97 -39t-96 41q-39 41 -39 94zM1737 -256q0 58 30 86q31 29 73 29t75 -26t33 -87l43 -2q160 0 159 180v805q-2 45 -27 58q-26 13 -116 14h-25v155l351 23v-1010l2 -45q0 -94 -42 -164t-108 -104
q-121 -63 -228 -65q-106 -1 -163 47t-57 106zM154 0v154h159v1114h-159v155h311q29 0 41 -7t33 -34l813 -1056v942h-160v155h471v-155h-160v-1198q0 -42 -14 -56t-41 -14h-37q-29 0 -41 7t-33 34l-872 1133v-1020h160v-154h-471z" />
    <glyph glyph-name="uni01CC" unicode="&#x1cc;" horiz-adv-x="2050" 
d="M1559 1286q0 53 38 95q39 42 95 42t98 -39q41 -39 41 -97t-41 -97t-97 -39t-96 41q-38 41 -38 94zM1235 -256q0 58 31 86q30 29 72 29t75 -26t33 -87l43 -2q160 0 160 180v805q-2 45 -28 58t-116 14h-24v155l350 23v-1010l2 -45q0 -94 -42 -164t-108 -104
q-121 -63 -227 -65q-106 -1 -164 47t-57 106zM94 0v154h154v567q0 53 -23 66t-112 14h-19v155l332 23v-162q137 162 346 162q241 0 294 -158q22 -66 24 -176v-491h153v-154h-495v154h153v487q0 41 -5 67q-6 26 -26 56q-39 59 -190 59q-94 0 -169 -63t-75 -217v-389h154v-154
h-496z" />
    <glyph glyph-name="uni01CD" unicode="&#x1cd;" horiz-adv-x="1734" 
d="M859 1769q13 0 57.5 28t111 72t100.5 64l58 -78v-2l-324 -270l-323 270v2l57 78q250 -164 263 -164zM598 578h492l-211 522l-35 100q-33 -98 -135.5 -348.5t-110.5 -273.5zM82 0v154h174l502 1210q14 33 30.5 46t53.5 13h43q45 0 59 -14t37 -66l494 -1189h174v-154h-492
v154h109l-111 268h-623l-110 -268h108v-154h-448z" />
    <glyph glyph-name="uni01CE" unicode="&#x1ce;" horiz-adv-x="1150" 
d="M174 1548v2l74 62h2l256 -291h2l256 291h2l74 -62v-2l-332 -413h-2zM285 280q0 -42 53 -89.5t144.5 -47.5t153.5 26q118 50 118 157v151q-360 -5 -448 -127q-20 -28 -21 -70zM94 300q0 72 62 136t164 96q197 60 434 60v47q0 109 -82 156q-59 35 -183 34q-53 0 -110 -4
q-2 -61 -36 -87.5t-74 -26.5t-70.5 29.5t-30.5 76.5q0 166 332 166q332 -1 416 -201q26 -62 26 -141v-428q2 -35 27.5 -46t85 -12t74 -12.5t14.5 -46.5v-35q0 -37 -13.5 -49t-46.5 -12h-57q-139 0 -190.5 30.5t-65.5 90.5q-152 -133 -399 -133q-96 0 -162 54t-90.5 119
t-24.5 139z" />
    <glyph glyph-name="uni01CF" unicode="&#x1cf;" horiz-adv-x="819" 
d="M406.5 1769q13.5 0 57.5 28t110.5 72t101.5 64l57 -78v-2l-323 -270l-324 270v2l57 78q250 -164 263.5 -164zM141 0v154h168v1114h-168v155h535v-155h-166v-1114h166v-154h-535z" />
    <glyph glyph-name="uni01D1" unicode="&#x1d1;" horiz-adv-x="1746" 
d="M608 1933q250 -164 263.5 -164t57.5 28t110.5 72t101.5 64l57 -78v-2l-324 -270l-323 270v2zM334 733q0 -272 143.5 -427.5t395 -155.5t394 156.5t142.5 426.5t-148.5 408.5t-389.5 138.5t-389 -137.5t-148 -409.5zM129 704q0 332 203 536t540.5 204t539.5 -204t202 -535
t-203 -529.5t-540 -198.5t-539.5 197.5t-202.5 529.5z" />
    <glyph glyph-name="uni01D2" unicode="&#x1d2;" 
d="M256 1548v2l74 62h2l256 -291h2l256 291h2l74 -62v-2l-332 -413h-2zM264 502q0 -348 322 -348q180 0 251.5 94t71.5 254q0 328 -319 327q-326 1 -326 -327zM63 480q0 224 143.5 363.5t380.5 139.5t380 -140.5t143 -363.5t-142.5 -356t-381 -133t-381 133t-142.5 357z" />
    <glyph glyph-name="uni01D3" unicode="&#x1d3;" horiz-adv-x="1777" 
d="M886 1769q13 0 57 28t110.5 72t101.5 64l57 -78v-2l-323 -270l-324 270v2l58 78q250 -164 263 -164zM150 1268v155h518v-155h-160v-770q0 -365 402.5 -365t402.5 365v770h-160v155h473v-155h-158v-768q0 -150 -54 -257.5t-143 -161.5q-171 -104 -359 -104
q-302 0 -468 157q-60 56 -97.5 150.5t-37.5 213.5v770h-159z" />
    <glyph glyph-name="uni01D4" unicode="&#x1d4;" horiz-adv-x="1318" 
d="M336 1548v2l74 62h2l256 -291h2l256 291h2l73 -62v-2l-331 -413h-2zM94 801v155l342 23v-709q0 -76 32 -101.5t151 -25.5t200.5 53.5t81.5 163.5v367q0 49 -24.5 61.5t-110.5 12.5h-18v155l342 23v-750q0 -49 26.5 -62t108.5 -13h18v-154l-336 -10v139
q-156 -139 -411 -139q-197 0 -232 139q-16 63 -16 152v444q0 51 -25.5 63.5t-120.5 12.5h-8z" />
    <glyph glyph-name="uni01DD" unicode="&#x1dd;" horiz-adv-x="1048" 
d="M236 371q37 -223 261.5 -223.5t272.5 223.5h-534zM63 428q0 47 11.5 59.5t44.5 14.5h661q-4 37 -8 63.5t-26.5 79.5t-58.5 88t-109.5 62.5t-159 27.5t-128 -30.5t-63 -70.5t-28.5 -47t-39 -7h-19q-76 0 -75 39q0 72 108.5 177t286.5 105q225 0 372.5 -135t147.5 -361.5
t-135 -362.5t-357 -136q-273 0 -373 206q-52 110 -53 228z" />
    <glyph glyph-name="uni01E2" unicode="&#x1e2;" horiz-adv-x="2111" 
d="M604 1579v162h916v-162h-916zM963 762v506h-74l-213 -506h287zM1159 154h297q227 0 289.5 8t81 44t61.5 320h154l-76 -526h-1122v154h119v452h-351l-188 -452h106v-154h-448v154h174l465 1114h-47v155h1251l51 -473h-153q-25 216 -39.5 255.5t-26.5 44.5q-43 18 -336 18
h-262v-506h187q147 0 173.5 9t30.5 60q2 16 2 105v16h156v-536h-156v16q0 109 -9 137.5t-46 33.5t-199 5l-139 -2v-452z" />
    <glyph glyph-name="uni01E3" unicode="&#x1e3;" horiz-adv-x="1701" 
d="M416 1284v160h850v-160h-850zM1233 829q-147 0 -223 -97q-40 -50 -56 -126h508q-35 223 -229 223zM291 281q0 -51 51 -94.5t158 -43.5q203 0 254 90q12 23 12 54t-10 143q-180 -2 -322.5 -35.5t-142.5 -113.5zM100 266q0 174 216 236q185 53 440 61v72q0 113 -82 160
q-59 35 -182 34q-55 0 -113 -4q-2 -63 -34 -88.5t-74 -25.5t-72.5 29.5t-30.5 76.5q0 166 342 166q123 0 211 -26.5t160 -112.5q131 139 354 139q115 0 197 -41q82 -40 123 -110q79 -131 79 -295q0 -41 -15 -51.5t-48 -10.5h-627q10 -156 106.5 -237.5t270.5 -81.5
q101 0 149 100q18 39 28.5 46t55.5 7h19q57 0 57 -39q0 -62 -87 -162q-42 -48 -116.5 -83t-164.5 -35q-229 0 -377 147q-131 -150 -510 -149q-137 0 -206 93t-69 185z" />
    <glyph glyph-name="Gcaron" unicode="&#x1e6;" horiz-adv-x="1841" 
d="M651 1933q250 -164 263.5 -164t57.5 28t110.5 72t101.5 64l57 -78v-2l-323 -270l-324 270v2zM1569 938q-1 -49 -35 -49q-13 0 -23 2h-6q-80 0 -86 12t-13 49q-27 141 -167 256q-100 82 -258 82q-285 0 -466 -144.5t-181 -432.5q0 -250 137 -394.5t377 -177.5
q59 -8 193 -8t209 18.5t96.5 46t21.5 83.5v159h-295v154h660v-154h-164v-374q0 -61 -25 -62q-27 0 -100 78q-131 -104 -506 -105q-207 0 -367.5 62.5t-254.5 168.5q-188 212 -187 503q0 332 218 532.5t573 200.5q264 0 466 -174q76 125 97.5 149.5t46.5 24.5q39 0 39 -47
v-459z" />
    <glyph glyph-name="gcaron" unicode="&#x1e7;" 
d="M188 1548v2l74 62h2l256 -291h2l256 291h2l74 -62v-2l-332 -413h-2zM319 628q0 -212 202 -212t202 212t-202 212t-202 -212zM236 -127q0 -66 92 -104.5t247 -40.5h5q135 0 221 25.5t111.5 55t25.5 60.5q0 121 -332 121h-194q-92 0 -134 -34t-42 -83zM63 -131
q0 141 144 213q-47 76 -47 159t55 160q-80 96 -80 240t104.5 241t282.5 97q133 0 242 -68q104 78 227 78q63 0 106.5 -35.5t43.5 -83t-27 -72t-63 -24.5q-57 0 -86 62l-117 -7q59 -98 59 -200q0 -158 -105.5 -255.5t-279.5 -97.5q-119 0 -231 60q-10 -29 -10 -71t35.5 -71.5
t93.5 -29.5h221q296 0 398 -100q81 -79 81 -184q0 -106 -104 -190q-54 -44 -162.5 -72t-257.5 -28q-281 0 -402 86.5t-121 192.5z" />
    <glyph glyph-name="uni01E8" unicode="&#x1e8;" horiz-adv-x="1800" 
d="M922.5 1769q13.5 0 57.5 28t110.5 72t101.5 64l57 -78v-2l-323 -270l-324 270v2l57 78q250 -164 263.5 -164zM154 0v154h159v1114h-159v155h508v-155h-160v-617l725 617h-33v155h473v-155h-180q-25 0 -34 -5.5t-54 -41.5l-441 -375v-2l560 -690h182v-154h-457v154h53
l-469 579l-288 -244q-27 -25 -32 -35t-5 -36v-264h160v-154h-508z" />
    <glyph glyph-name="uni01E9" unicode="&#x1e9;" horiz-adv-x="1253" 
d="M322 1989v2l73 61h2l256 -291h2l256 291h2l74 -61v-2l-332 -414h-2zM92 0v154h154v1020q-2 45 -25.5 58t-105.5 13h-23v156l328 22v-888l313 278h-63v154h491v-154h-176q-25 0 -45 -14.5t-90 -79t-148 -129.5q2 -2 157 -201t170 -217.5t40 -17.5h145v-154h-432v154h52
l-252 325h-2q-46 -44 -99 -88.5t-60 -56.5t-7 -33v-147h153v-154h-475z" />
    <glyph glyph-name="uni01EE" unicode="&#x1ee;" horiz-adv-x="1310" 
d="M648.5 1769q13.5 0 57.5 28t110.5 72t101.5 64l57 -78v-2l-324 -270l-323 270v2l57 78q250 -164 263.5 -164zM475 662q-29 0 -40 2q-29 5 -29 65v31q0 37 36 67l566 455h-359q-293 0 -329 -22q-16 -10 -31.5 -53t-38.5 -257h-154l51 473h992q41 0 52 -15t11 -48v-62
q0 -29 -7 -42t-34 -35l-491 -398q146 -4 256 -46q110 -41 168 -105q114 -123 114 -254.5t-80 -245.5t-266 -166q-104 -29 -235 -29q-515 1 -531 306v10q0 59 33 90t78 31t77.5 -32t32.5 -79t-38 -86q43 -43 108.5 -57.5t216.5 -16.5q397 0 397 261.5t-372 261.5l-113 -4h-41
z" />
    <glyph glyph-name="uni01EF" unicode="&#x1ef;" horiz-adv-x="1048" 
d="M201 1548v2l73 62h2l256 -291h3l256 291h2l73 -62v-2l-331 -413h-3zM879 967q35 0 49 -13.5t12 -50.5v-18q0 -35 -33 -72q-270 -301 -336 -379q168 -31 282 -136t114 -281t-120 -301.5t-318.5 -125.5t-315.5 73t-117 192q0 49 30 79.5t74 30.5t75.5 -29.5t31.5 -66.5
t-22 -76q84 -47 223 -47q258 0 258 272q0 258 -399 271q-76 0 -76 37q0 8 28 51l388 432l-168 2q-154 0 -205 -5t-63.5 -33t-20.5 -140h-154l21 334h762z" />
    <glyph glyph-name="uni01F1" unicode="&#x1f1;" horiz-adv-x="3223" 
d="M2560 1268q-262 0 -324 -10t-80 -27q-42 -40 -55 -281h-155l20 473h1061q41 0 52 -14t11 -58t-32 -85l-863 -1100h281q274 0 338 9t83 32q35 42 52 342h154l-31 -549h-1096q-35 0 -49 11t-14 48v27l2 27q0 18 8 26q8 7 13 15t8 10l868 1104h-252zM506 154h350
q154 6 219 22q375 92 375 522q0 569 -596 570h-348v-1114zM152 0v154h159v1114h-159v155h737q365 1 563 -197t199 -512q0 -314 -172 -499q-172 -186 -467 -211q-41 -4 -123 -4h-737z" />
    <glyph glyph-name="uni01F2" unicode="&#x1f2;" horiz-adv-x="2832" 
d="M1847 57v31q0 10 2 20l3 15q1 6 8 14q6 7 11 15t19 22l553 639h-129q-212 0 -240 -16t-28 -68q-8 -70 -12 -143h-154l21 381h759q53 0 62 -32q2 -11 2 -48t-10 -50q-10 -12 -33 -36l-551 -635h178q176 0 209 12t43 82q4 31 14 170h156l-31 -430h-784q-25 0 -36 2t-21 15
t-11 40zM506 154h350q154 6 219 22q375 92 375 522q0 569 -596 570h-348v-1114zM152 0v154h159v1114h-159v155h737q365 1 563 -197t199 -512q0 -314 -172 -499q-172 -186 -467 -211q-41 -4 -123 -4h-737z" />
    <glyph glyph-name="uni01F3" unicode="&#x1f3;" horiz-adv-x="2367" 
d="M1382 57v31q0 32 10 44t14 20q5 8 19 22l553 639h-129q-211 0 -239 -16t-29 -68q-8 -70 -12 -143h-154l21 381h759q31 -1 45 -11t17 -21q2 -11 2 -47t-10 -50t-33 -37l-551 -635h178q176 0 209 12t43 82q4 31 14 170h156l-31 -430h-784q-25 0 -36 2q-12 2 -22 15t-10 40z
M610 823q-331 0 -331 -340t303 -340q123 0 215 75t92 151v282q0 43 -29 74q-90 98 -250 98zM78 483q0 213 106 355t324 141q218 0 387 -105v297q-2 49 -28 61t-113 13h-13v156l336 22v-1190q0 -51 23 -65t106 -14h25v-154l-342 -10v131q-182 -131 -402 -131q-151 0 -269 103
q-62 55 -101 155t-39 235z" />
    <glyph glyph-name="uni01F4" unicode="&#x1f4;" horiz-adv-x="1841" 
d="M1071 1821q33 0 58.5 -31t25.5 -74t-40 -65.5t-173 -63.5t-197 -61l-53 145q346 150 379 150zM1569 938q-1 -49 -35 -49q-13 0 -23 2h-6q-80 0 -86 12t-13 49q-27 141 -167 256q-100 82 -258 82q-285 0 -466 -144.5t-181 -432.5q0 -250 137 -394.5t377 -177.5
q59 -8 193 -8t209 18.5t96.5 46t21.5 83.5v159h-295v154h660v-154h-164v-374q0 -61 -25 -62q-27 0 -100 78q-131 -104 -506 -105q-207 0 -367.5 62.5t-254.5 168.5q-188 212 -187 503q0 332 218 532.5t573 200.5q264 0 466 -174q76 125 97.5 149.5t46.5 24.5q39 0 39 -47
v-459z" />
    <glyph glyph-name="uni01F5" unicode="&#x1f5;" 
d="M645 1425q31 0 59.5 -30.5t28.5 -62.5t-16.5 -53.5t-27.5 -27.5t-73.5 -38.5t-130 -69.5t-90 -49.5t-33.5 -16.5l-77 133q70 45 176.5 117t129.5 85t54 13zM319 628q0 -212 202 -212t202 212t-202 212t-202 -212zM236 -127q0 -66 92 -104.5t247 -40.5h5q135 0 221 25.5
t111.5 55t25.5 60.5q0 121 -332 121h-194q-92 0 -134 -34t-42 -83zM63 -131q0 141 144 213q-47 76 -47 159t55 160q-80 96 -80 240t104.5 241t282.5 97q133 0 242 -68q104 78 227 78q63 0 106.5 -35.5t43.5 -83t-27 -72t-63 -24.5q-57 0 -86 62l-117 -7q59 -98 59 -200
q0 -158 -105.5 -255.5t-279.5 -97.5q-119 0 -231 60q-10 -29 -10 -71t35.5 -71.5t93.5 -29.5h221q296 0 398 -100q81 -79 81 -184.5t-104 -189.5q-54 -44 -162.5 -72t-257.5 -28q-281 0 -402 86.5t-121 192.5z" />
    <glyph glyph-name="uni01F8" unicode="&#x1f8;" horiz-adv-x="1820" 
d="M666 1732.5q0 24.5 26.5 56.5t65.5 32h4q18 0 366 -150l-53 -145q-324 102 -330 104q-70 29 -77 68q-2 10 -2 34.5zM154 0v154h159v1114h-159v155h311q29 0 41 -7t33 -34l813 -1056v942h-160v155h471v-155h-160v-1198q0 -43 -14 -56.5t-41 -13.5h-37q-29 0 -41 7t-33 34
l-872 1133v-1020h160v-154h-471z" />
    <glyph glyph-name="uni01F9" unicode="&#x1f9;" horiz-adv-x="1318" 
d="M455 1327q0 37 27.5 67.5t57.5 30.5q30 1 62 -19q118 -71 299 -196l-78 -133q-10 4 -84 45t-207 111q-77 39 -77 94zM94 0v154h154v567q0 53 -22.5 66.5t-112.5 13.5h-19v155l332 23v-162q137 162 346 162q241 0 294 -158q24 -72 24 -176v-491h153v-154h-495v154h153v487
q0 41 -5 67q-6 26 -26 56q-39 59 -190 59q-94 0 -169 -63.5t-75 -216.5v-389h154v-154h-496z" />
    <glyph glyph-name="AEacute" unicode="&#x1fc;" horiz-adv-x="2111" 
d="M1214.5 1821q32.5 0 58 -31t25.5 -74t-39.5 -65.5t-172.5 -63.5t-197 -61l-53 145q346 150 378.5 150zM963 762v506h-74l-213 -506h287zM1159 154h297q227 0 289.5 8t81 44t61.5 320h154l-76 -526h-1122v154h119v452h-351l-188 -452h106v-154h-448v154h174l465 1114h-47
v155h1251l51 -473h-153q-25 216 -39.5 255.5t-26.5 44.5q-43 18 -336 18h-262v-506h187q147 0 173.5 9t30.5 60q2 16 2 105v16h156v-536h-156v16q0 109 -9 137.5t-46 33.5t-199 5l-139 -2v-452z" />
    <glyph glyph-name="aeacute" unicode="&#x1fd;" horiz-adv-x="1701" 
d="M964.5 1425q30.5 0 59.5 -30.5t29 -62.5t-16.5 -53.5t-28 -27.5t-73.5 -38.5t-130 -69.5t-90.5 -49.5t-32.5 -16.5l-78 133q70 45 176.5 117t130 85t54 13zM1233 829q-147 0 -223 -97q-40 -50 -56 -126h508q-35 223 -229 223zM291 281q0 -51 51 -94.5t158 -43.5
q203 0 254 90q12 23 12 54t-10 143q-180 -2 -322.5 -35.5t-142.5 -113.5zM100 266q0 174 216 236q185 53 440 61v72q0 113 -82 160q-59 35 -182 34q-55 0 -113 -4q-2 -63 -34 -88.5t-74 -25.5t-72.5 29.5t-30.5 76.5q0 166 342 166q123 0 211 -26.5t160 -112.5
q131 139 354 139q115 0 197 -41q82 -40 123 -110q79 -131 79 -295q0 -41 -15 -51.5t-48 -10.5h-627q10 -156 106.5 -237.5t270.5 -81.5q101 0 149 100q18 39 28.5 46t55.5 7h19q57 0 57 -39q0 -62 -87 -162q-42 -48 -116.5 -83t-164.5 -35q-229 0 -377 147
q-131 -150 -510 -149q-137 0 -206 93t-69 185z" />
    <glyph glyph-name="Oslashacute" unicode="&#x1fe;" horiz-adv-x="1830" 
d="M1145 1860q0 -42 -40 -66q-40 -23 -173 -64t-197 -61l-53 146q346 149 379 149t59 -31t25 -73zM911 131q299 0 449 152t149 415q0 311 -192 473l-660 -1001q127 -39 254 -39zM319 702q0 -313 191 -454l661 1001q-127 41 -262 41q-293 -2 -441 -158t-149 -430zM129 700
q0 334 213 539t571 205q184 0 347 -62l120 185h2l138 -90l-113 -172q135 -90 214 -247t79 -356q0 -328 -214 -526t-568 -199q-184 0 -351 60l-118 -182l-140 92l111 168q-141 95 -216 247t-75 338z" />
    <glyph glyph-name="oslashacute" unicode="&#x1ff;" 
d="M724 1659q30 0 58 -31q28 -30 29 -62q0 -32 -16 -54q-15 -22 -27 -28t-80 -41q-68 -36 -153 -82t-95 -50l-78 133q70 44 176 116t131 86t55 13zM922 473q0 166 -82 266h-2l-365 -585q49 -10 117 -11q332 0 332 330zM252 477q0 -164 84 -252l366 592q-59 12 -118 12
q-332 0 -332 -352zM72 464q0 234 138 376t376 143q111 0 200 -31l160 256l131 -84l-153 -247q178 -137 178 -402q0 -219 -140 -352t-376 -133q-104 0 -197 28l-162 -258l-131 82l154 246v2q-178 140 -178 374z" />
    <glyph glyph-name="uni0200" unicode="&#x200;" horiz-adv-x="1734" 
d="M808.5 1821q28.5 0 75 -18.5t306.5 -131.5l-53 -145l-353 112l-41 -112l-190 60q-133 42 -175 64.5t-42 64.5t24.5 74t59 32t309.5 -119l-2 14q0 49 26.5 77t55 28zM598 578h492l-211 522l-35 100q-33 -98 -135.5 -348.5t-110.5 -273.5zM82 0v154h174l502 1210
q14 33 30.5 46t53.5 13h43q45 0 59 -14t37 -66l494 -1189h174v-154h-492v154h109l-111 268h-623l-110 -268h108v-154h-448z" />
    <glyph glyph-name="uni0201" unicode="&#x201;" horiz-adv-x="1150" 
d="M-33 1327q0 37 28 67q27 31 57 31q30 1 62 -19q98 -59 300 -196l-78 -133q-10 4 -70 37.5t-221 118.5q-78 39 -78 94zM358 1327q0 37 28 67.5t58 30.5q30 1 62 -19q118 -71 299 -196l-78 -133q-10 4 -84 45t-207 111q-78 39 -78 94zM285 280q0 -42 53 -89.5t144.5 -47.5
t153.5 26q118 50 118 157v151q-360 -5 -448 -127q-20 -28 -21 -70zM94 300q0 72 62 136t164 96q197 60 434 60v47q0 109 -82 156q-59 35 -183 34q-53 0 -110 -4q-2 -61 -36 -87.5t-74 -26.5t-70.5 29.5t-30.5 76.5q0 166 332 166q332 -1 416 -201q26 -62 26 -141v-428
q2 -35 27.5 -46t85 -12t74 -12.5t14.5 -46.5v-35q0 -37 -13.5 -49t-46.5 -12h-57q-139 0 -190.5 30.5t-65.5 90.5q-152 -133 -399 -133q-96 0 -162 54t-90.5 119t-24.5 139z" />
    <glyph glyph-name="uni0202" unicode="&#x202;" horiz-adv-x="1734" 
d="M862 2038q166 0 285 -124t121 -315h-154q-4 121 -77.5 197t-169 76t-172.5 -69.5t-83 -203.5h-153q2 190 119.5 314.5t283.5 124.5zM598 578h492l-211 522l-35 100q-33 -98 -135.5 -348.5t-110.5 -273.5zM82 0v154h174l502 1210q14 33 30.5 46t53.5 13h43q45 0 59 -14
t37 -66l494 -1189h174v-154h-492v154h109l-111 268h-623l-110 -268h108v-154h-448z" />
    <glyph glyph-name="uni0203" unicode="&#x203;" horiz-adv-x="1150" 
d="M512 1415q-96 0 -173 -77.5t-81 -225.5h-156q4 211 124 340t286 129t281.5 -134t117.5 -335h-153q-4 137 -77 220t-169 83zM285 280q0 -42 53 -89.5t144.5 -47.5t153.5 26q118 50 118 157v151q-360 -5 -448 -127q-20 -28 -21 -70zM94 300q0 72 62 136t164 96
q197 60 434 60v47q0 109 -82 156q-59 35 -183 34q-53 0 -110 -4q-2 -61 -36 -87.5t-74 -26.5t-70.5 29.5t-30.5 76.5q0 166 332 166q332 -1 416 -201q26 -62 26 -141v-428q2 -35 27.5 -46t85 -12t74 -12.5t14.5 -46.5v-35q0 -37 -13.5 -49t-46.5 -12h-57q-139 0 -190.5 30.5
t-65.5 90.5q-152 -133 -399 -133q-96 0 -162 54t-90.5 119t-24.5 139z" />
    <glyph glyph-name="uni0204" unicode="&#x204;" horiz-adv-x="1501" 
d="M739.5 1821q28.5 0 74.5 -18.5t306 -131.5l-53 -145l-352 112l-41 -112q-57 18 -190.5 60t-175.5 64.5t-42 64.5t24.5 74t59 32t309.5 -119l-2 14q0 49 27 77t55.5 28zM508 154h315q327 0 367 23q20 11 36.5 57t53.5 292h156l-78 -526h-1208v154h159v1108h-159v155h1169
l51 -473h-156q-14 121 -21 173q-15 115 -47 127q-43 17 -370 18h-268v-449h117q162 0 189.5 8t30.5 52.5t3 113.5v17h153v-537h-153v18q0 106 -7 135t-41 34t-175 5l-117 -2v-503z" />
    <glyph glyph-name="uni0205" unicode="&#x205;" horiz-adv-x="1048" 
d="M16 1327q0 37 28 67.5t58 30.5q30 1 62 -19q118 -71 299 -196l-78 -133q-10 4 -84 45t-207 111q-78 39 -78 94zM408 1327q0 37 27.5 67.5t57.5 30.5q31 1 63 -19q118 -71 298 -196l-78 -133q-10 4 -84 45t-207 111q-77 39 -77 94zM546.5 829q-225.5 0 -272.5 -223h535
q-37 223 -262.5 223zM63 484q0 226 135.5 362.5t356.5 136.5q121 0 209 -41q88 -42 133 -110q84 -128 84 -297q0 -35 -13.5 -46.5t-43.5 -13.5h-660q8 -103 30 -142q53 -92 129.5 -134.5t208.5 -42.5t184 100q22 41 30 47t39 6h18q74 0 74 -39q0 -58 -93 -162
q-44 -50 -125 -84t-175 -34q-225 0 -373 134t-148 360z" />
    <glyph glyph-name="uni0206" unicode="&#x206;" horiz-adv-x="1501" 
d="M792.5 2038q165.5 0 284.5 -124t121 -315h-154q-4 121 -77.5 197t-168.5 76t-172 -69.5t-83 -203.5h-154q2 190 120 314.5t283.5 124.5zM508 154h315q327 0 367 23q20 11 36.5 57t53.5 292h156l-78 -526h-1208v154h159v1108h-159v155h1169l51 -473h-156q-14 121 -21 173
q-15 115 -47 127q-43 17 -370 18h-268v-449h117q162 0 189.5 8t30.5 52.5t3 113.5v17h153v-537h-153v18q0 106 -7 135t-41 34t-175 5l-117 -2v-503z" />
    <glyph glyph-name="uni0207" unicode="&#x207;" horiz-adv-x="1048" 
d="M561 1415q-96 0 -173 -77.5t-81 -225.5h-156q4 211 124 340t286 129t281.5 -134t117.5 -335h-153q-4 137 -77 220t-169 83zM546.5 829q-225.5 0 -272.5 -223h535q-37 223 -262.5 223zM63 484q0 226 135.5 362.5t356.5 136.5q121 0 209 -41q88 -42 133 -110
q84 -128 84 -297q0 -35 -13.5 -46.5t-43.5 -13.5h-660q8 -103 30 -142q53 -92 129.5 -134.5t208.5 -42.5t184 100q22 41 30 47t39 6h18q74 0 74 -39q0 -58 -93 -162q-44 -50 -125 -84t-175 -34q-225 0 -373 134t-148 360z" />
    <glyph glyph-name="uni0208" unicode="&#x208;" horiz-adv-x="819" 
d="M356.5 1821q28.5 0 74.5 -18.5t306 -131.5l-53 -145l-352 112l-41 -112q-57 18 -190.5 60t-175.5 64.5t-42 64.5t24.5 74t59 32t309.5 -119l-2 14q0 49 27 77t55.5 28zM141 0v154h168v1114h-168v155h535v-155h-166v-1114h166v-154h-535z" />
    <glyph glyph-name="uni0209" unicode="&#x209;" horiz-adv-x="665" 
d="M-197 1327q0 37 28 67.5t58 30.5q31 1 63 -19q118 -71 298 -196l-78 -133q-10 4 -84 45t-207 111q-78 39 -78 94zM195 1327q0 37 27.5 67.5t57.5 30.5q30 1 62 -19q118 -71 299 -196l-78 -133q-10 4 -84 45t-207 111q-77 39 -77 94zM96 0v154h154v567q0 51 -21.5 65.5
t-107.5 14.5h-17v155l330 23v-825h137v-154h-475z" />
    <glyph glyph-name="uni020A" unicode="&#x20a;" horiz-adv-x="819" 
d="M409.5 2038q165.5 0 284.5 -124t121 -315h-153q-4 121 -78 197t-169 76t-172 -69.5t-83 -203.5h-154q2 190 120 314.5t283.5 124.5zM141 0v154h168v1114h-168v155h535v-155h-166v-1114h166v-154h-535z" />
    <glyph glyph-name="uni020B" unicode="&#x20b;" horiz-adv-x="665" 
d="M348 1415q-96 0 -173 -77.5t-81 -225.5h-156q4 211 124 340t286 129t281.5 -134t117.5 -335h-153q-4 137 -77 220t-169 83zM96 0v154h154v567q0 51 -21.5 65.5t-107.5 14.5h-17v155l330 23v-825h137v-154h-475z" />
    <glyph glyph-name="uni020C" unicode="&#x20c;" horiz-adv-x="1746" 
d="M821 1821q28 0 74.5 -18.5t306.5 -131.5l-53 -145l-352 112l-41 -112q-57 18 -190.5 60t-175.5 64.5t-42 64.5t24.5 74t59 32t309.5 -119l-2 14q0 49 27 77t55 28zM334 733q0 -272 143.5 -427.5t395 -155.5t394 156.5t142.5 426.5t-148.5 408.5t-389.5 138.5t-389 -137.5
t-148 -409.5zM129 704q0 332 203 536t540.5 204t539.5 -204t202 -535t-203 -529.5t-540 -198.5t-539.5 197.5t-202.5 529.5z" />
    <glyph glyph-name="uni020D" unicode="&#x20d;" 
d="M49 1327q0 37 27.5 67.5t57.5 30.5q30 1 62 -19q98 -59 300 -196l-78 -133q-11 5 -101 54t-179 95t-89 101zM440 1327q0 37 28 67.5t57.5 30.5t88 -34.5t273.5 -180.5l-78 -133q-10 4 -70 37.5t-221 118.5q-78 39 -78 94zM264 502q0 -348 322 -348q180 0 251.5 94
t71.5 254q0 328 -319 327q-326 1 -326 -327zM63 480q0 224 143.5 363.5t380.5 139.5t380 -140.5t143 -363.5t-142.5 -356t-381 -133t-381 133t-142.5 357z" />
    <glyph glyph-name="uni020E" unicode="&#x20e;" horiz-adv-x="1746" 
d="M874.5 2038q165.5 0 284.5 -124t121 -315h-154q-4 121 -77.5 197t-169 76t-172 -69.5t-82.5 -203.5h-154q2 190 120 314.5t283.5 124.5zM334 733q0 -272 143.5 -427.5t395 -155.5t394 156.5t142.5 426.5t-148.5 408.5t-389.5 138.5t-389 -137.5t-148 -409.5zM129 704
q0 332 203 536t540.5 204t539.5 -204t202 -535t-203 -529.5t-540 -198.5t-539.5 197.5t-202.5 529.5z" />
    <glyph glyph-name="uni020F" unicode="&#x20f;" 
d="M594 1415q-96 0 -173 -77.5t-81 -225.5h-156q4 211 124 340t286 129t281.5 -134t117.5 -335h-153q-4 137 -77 220t-169 83zM264 502q0 -348 322 -348q180 0 251.5 94t71.5 254q0 328 -319 327q-326 1 -326 -327zM63 480q0 224 143.5 363.5t380.5 139.5t380 -140.5
t143 -363.5t-142.5 -356t-381 -133t-381 133t-142.5 357z" />
    <glyph glyph-name="uni0210" unicode="&#x210;" horiz-adv-x="1718" 
d="M698.5 1821q28.5 0 74.5 -18.5t306 -131.5l-53 -145l-352 112l-41 -112q-57 18 -190.5 60t-175.5 64.5t-42 64.5t24.5 74t59 32t309.5 -119l-2 14q0 49 27 77t55.5 28zM506 788h262q170 0 274.5 31t149.5 113q25 47 25 96q0 123 -119 186q-100 53 -318 54h-274v-480z
M1331 313q0 -180 136 -180q73 -1 89 61q8 26 14.5 36.5t45.5 11.5h35q57 0 57 -49q0 -72 -59.5 -144t-185 -72t-220 62.5t-110.5 179.5q-4 45 -5 68v125q0 70 -24 108q-76 115 -336 115h-262v-481h158v-154h-512v154h159v1114h-159v155h620q406 0 565 -180q84 -96 84 -206.5
t-63.5 -198.5t-186.5 -140v-2q98 -63 130 -141t32 -176z" />
    <glyph glyph-name="uni0211" unicode="&#x211;" horiz-adv-x="929" 
d="M-70 1327q0 37 28 67.5t58 30.5q30 1 62 -19q118 -71 299 -196l-78 -133q-10 4 -84 45t-207 111q-78 39 -78 94zM322 1327q0 37 27.5 67.5t57.5 30.5q31 1 63 -19q118 -71 298 -196l-78 -133q-10 4 -84 45t-207 111q-77 39 -77 94zM424 154h190v-154h-528v154h154v567
q0 53 -22.5 66.5t-113.5 13.5h-18v155l326 23v-92l2 -72q109 164 270 164h2q70 0 123 -43t53 -97.5t-30.5 -83t-73.5 -28.5q-82 0 -101 94q-115 -27 -175 -119t-60 -237l2 -45v-266z" />
    <glyph glyph-name="uni0212" unicode="&#x212;" horiz-adv-x="1718" 
d="M752 2038q166 0 284.5 -124t120.5 -315h-153q-4 121 -78 197t-169 76t-172 -69.5t-83 -203.5h-154q2 190 120 314.5t284 124.5zM506 788h262q170 0 274.5 31t149.5 113q25 47 25 96q0 123 -119 186q-100 53 -318 54h-274v-480zM1331 313q0 -180 136 -180q73 -1 89 61
q8 26 14.5 36.5t45.5 11.5h35q57 0 57 -49q0 -72 -59.5 -144t-185 -72t-220 62.5t-110.5 179.5q-4 45 -5 68v125q0 70 -24 108q-76 115 -336 115h-262v-481h158v-154h-512v154h159v1114h-159v155h620q406 0 565 -180q84 -96 84 -206.5t-63.5 -198.5t-186.5 -140v-2
q98 -63 130 -141t32 -176z" />
    <glyph glyph-name="uni0213" unicode="&#x213;" horiz-adv-x="929" 
d="M475 1415q-96 0 -173 -77.5t-81 -225.5h-156q4 211 124 340t286 129t281.5 -134t117.5 -335h-153q-4 137 -77 220t-169 83zM424 154h190v-154h-528v154h154v567q0 53 -22.5 66.5t-113.5 13.5h-18v155l326 23v-92l2 -72q109 164 270 164h2q70 0 123 -43t53 -97.5
t-30.5 -83t-73.5 -28.5q-82 0 -101 94q-115 -27 -175 -119t-60 -237l2 -45v-266z" />
    <glyph glyph-name="uni0214" unicode="&#x214;" horiz-adv-x="1777" 
d="M835.5 1821q28.5 0 74.5 -18.5t307 -131.5l-54 -145l-352 112l-41 -112l-190 60q-133 42 -175.5 64.5t-42.5 64.5t25 74t60 32t153 -51.5t156 -67.5l-2 14q0 49 26.5 77t55 28zM150 1268v155h518v-155h-160v-770q0 -365 402.5 -365t402.5 365v770h-160v155h473v-155h-158
v-768q0 -150 -54 -257.5t-143 -161.5q-171 -104 -359 -104q-302 0 -468 157q-60 56 -97.5 150.5t-37.5 213.5v770h-159z" />
    <glyph glyph-name="uni0215" unicode="&#x215;" horiz-adv-x="1318" 
d="M129 1327q0 37 27.5 67.5t57.5 30.5q30 1 62 -19q118 -71 299 -196l-77 -133q-11 5 -101 54t-179 95t-89 101zM520 1327q0 37 27.5 67.5t57.5 30.5q31 1 63 -19q98 -59 299 -196l-78 -133q-10 4 -70 37t-221 119q-78 39 -78 94zM94 801v155l342 23v-709q0 -76 32 -101.5
t151 -25.5t200.5 53.5t81.5 163.5v367q0 49 -24.5 61.5t-110.5 12.5h-18v155l342 23v-750q0 -49 26.5 -62t108.5 -13h18v-154l-336 -10v139q-156 -139 -411 -139q-197 0 -232 139q-16 63 -16 152v444q0 51 -25.5 63.5t-120.5 12.5h-8z" />
    <glyph glyph-name="uni0216" unicode="&#x216;" horiz-adv-x="1777" 
d="M889 2038q166 0 284.5 -124t120.5 -315h-153q-4 121 -78 197t-169 76t-172 -69.5t-83 -203.5h-154q2 190 120 314.5t284 124.5zM150 1268v155h518v-155h-160v-770q0 -365 402.5 -365t402.5 365v770h-160v155h473v-155h-158v-768q0 -150 -54 -257.5t-143 -161.5
q-171 -104 -359 -104q-302 0 -468 157q-60 56 -97.5 150.5t-37.5 213.5v770h-159z" />
    <glyph glyph-name="uni0217" unicode="&#x217;" horiz-adv-x="1318" 
d="M674 1415q-96 0 -173 -77.5t-81 -225.5h-156q4 211 124 340t286 129t281.5 -134t117.5 -335h-154q-4 137 -76.5 220t-168.5 83zM94 801v155l342 23v-709q0 -76 32 -101.5t151 -25.5t200.5 53.5t81.5 163.5v367q0 49 -24.5 61.5t-110.5 12.5h-18v155l342 23v-750
q0 -49 26.5 -62t108.5 -13h18v-154l-336 -10v139q-156 -139 -411 -139q-197 0 -232 139q-16 63 -16 152v444q0 51 -25.5 63.5t-120.5 12.5h-8z" />
    <glyph glyph-name="Scommaaccent" unicode="&#x218;" horiz-adv-x="1308" 
d="M549 -219q1 37 27 65t73 29q47 0 78 -49t31 -127t-29 -149q-29 -70 -59 -106t-42 -36q-13 0 -41 27t-28 37q1 10 21 34q64 74 69 177q-53 0 -77 30q-23 31 -23 68zM129 27v403q2 29 13 36t36 7h43q45 0 52 -10t11 -45q10 -100 74 -168q115 -117 353 -117q151 0 219 73
t68 156t-44 139q-43 57 -94 81t-231 60t-232 56q-109 42 -189 136t-79 225q0 165 121 275t340 110t375 -139q62 125 83 135q7 4 23 4q39 0 39 -49v-402q-2 -31 -15 -38t-71 -7h-14q-35 0 -42 10t-17 48q-69 297 -365 294q-127 0 -203 -60t-76 -146t55 -140q56 -53 108 -68
t207 -48t195 -45q121 -39 212 -143q92 -104 92 -268q0 -163 -120 -284t-366 -121t-418 136q-49 -95 -64 -115t-40 -21q-39 1 -39 50z" />
    <glyph glyph-name="scommaaccent" unicode="&#x219;" horiz-adv-x="929" 
d="M360 -209q0 37 27 66t74 29t78 -50q31 -49 31 -127q0 -79 -30 -149q-28 -70 -58 -106t-43 -36t-41 27t-28 37t21 34q63 76 70 177q-53 1 -77 31t-24 67zM78 43v279q2 26 13 34t66 9t64 -10q17 -23 25 -58q55 -154 225 -154q115 0 160 40t45 86t-20 73q-38 50 -229 84
q-56 10 -85 16q-106 27 -185 94t-79 170t68 182q82 95 309 95q127 0 217 -55h2q4 4 14 15t18 18q9 8 12 11t11 7t28 4q21 0 27 -11t7 -38v-225q-1 -25 -13 -33t-58 -8q-89 0 -85 29q2 13 -5 41t-36 55q-51 49 -154 49q-188 0 -188 -109q0 -41 38 -69t83 -36q45 -10 117 -22
t106 -22q102 -29 178 -103t76 -185t-69 -200q-39 -49 -117 -79t-191 -29q-150 0 -260 92q-19 -27 -25 -34t-12 -16t-14 -18t-14 -12q-5 -2 -12 -6t-28 -4q-30 0 -30 53z" />
    <glyph glyph-name="uni021A" unicode="&#x21a;" horiz-adv-x="1615" 
d="M702 -197q0 37 27 66t74 29t78 -50t31 -127q0 -79 -30 -149q-28 -70 -58 -106t-43 -36t-41 28q-28 26 -28 36t21 34q63 76 70 177q-53 1 -77 31t-24 67zM1069 1257h-162v-1103h226v-154h-652v154h226v1103h-213q-188 1 -212 -25t-44 -294h-154l35 473h1376l35 -473h-156
q-19 285 -51 302q-33 17 -254 17z" />
    <glyph glyph-name="uni021B" unicode="&#x21b;" horiz-adv-x="915" 
d="M309 -207q0 37 27 66q28 29 74 29t77 -50q31 -49 31 -127q0 -79 -29 -149t-59 -106t-42 -36q-13 0 -41 27t-28 37t21 34q63 76 70 177q-53 1 -77 31t-24 67zM784 383v-51q0 -96 -36 -168t-94 -107q-110 -67 -210 -67q-158 0 -198 178q-14 61 -15 162v483h-188v154
q219 14 223 415h156v-415h321v-154h-321v-487q0 -111 34 -141q34 -29 72 -29t70 40q33 40 33 140l-2 47h155z" />
    <glyph glyph-name="uni021E" unicode="&#x21e;" horiz-adv-x="1820" 
d="M643 1933q250 -164 263.5 -164t57.5 28t110.5 72t101.5 64l57 -78v-2l-324 -270l-323 270v2zM150 0v154h159v1114h-159v155h518v-155h-160v-451h803v451h-160v155h518v-155h-158v-1114h158v-154h-518v154h160v510h-803v-510h160v-154h-518z" />
    <glyph glyph-name="uni021F" unicode="&#x21f;" horiz-adv-x="1318" 
d="M336 1989v2l74 61h2l256 -291h2l256 291h2l73 -61v-2l-331 -414h-2zM94 0v154h154v1020q-2 45 -25.5 58t-105.5 13h-23v156l338 22v-598q137 154 340 154q232 -1 290 -151q28 -72 28 -181v-493h153v-154h-495v154h153v487q0 41 -5 67q-6 26 -26 56q-39 59 -190 59
q-94 0 -169 -63.5t-75 -216.5v-389h154v-154h-496z" />
    <glyph glyph-name="uni0221" unicode="&#x221;" horiz-adv-x="1449" 
d="M1221 131q41 0 41 29t-39.5 63.5t-132.5 -4.5q53 -88 131 -88zM279 483q0 -186 85 -263t213 -77t220 75t92 151v268q-1 53 -11 67q-93 120 -270 119q-329 0 -329 -340zM506 979q215 0 389 -105v297q-2 49 -27.5 61.5t-113.5 12.5h-13v156l336 22v-1044q53 16 92 16
q100 0 174 -70.5t74 -159.5t-60.5 -134t-150.5 -45q-174 0 -274 141q-178 -139 -324 -424q-14 -25 -26.5 -32t-38.5 -7h-35q-57 0 -57 38t165 298q-72 -10 -129 -10q-160 0 -283.5 117.5t-125.5 377.5q0 213 106.5 353.5t321.5 140.5z" />
    <glyph glyph-name="uni0225" unicode="&#x225;" horiz-adv-x="1179" 
d="M96 637l4 65l10 150q5 86 19.5 100.5t40.5 14.5h715q27 0 40 -11.5t15 -23.5t2 -35v-10q0 -27 -6 -39t-43 -53l-539 -611h189l67 2q221 0 333 -107t112 -223t-82 -183.5t-201 -67.5q-57 0 -142 18.5t-93 50.5q-2 4 -2 25t11 57.5t38 36.5q10 0 72.5 -17.5t117.5 -17.5
t91 24.5t36 73.5t-66.5 96.5t-230.5 47.5h-463q-49 0 -63.5 10.5t-14.5 61.5v30q0 35 35 74l561 637h-92q-266 0 -286 -14q-19 -10 -22 -73.5t-8 -92.5t-19 -38t-64 -9h-14q-57 0 -58 51z" />
    <glyph glyph-name="uni0226" unicode="&#x226;" horiz-adv-x="1734" 
d="M727 1683.5q0 57.5 40 97.5t94 40t95 -40t41 -97.5t-41 -96.5t-94 -39t-94 39t-41 96.5zM598 578h492l-211 522l-35 100q-33 -98 -135.5 -348.5t-110.5 -273.5zM82 0v154h174l502 1210q14 33 30.5 46t53.5 13h43q45 0 59 -14t37 -66l494 -1189h174v-154h-492v154h109
l-111 268h-623l-110 -268h108v-154h-448z" />
    <glyph glyph-name="uni0227" unicode="&#x227;" horiz-adv-x="1150" 
d="M371 1285q0 58 41 98t95 40t94 -38.5t40 -97t-41 -97.5t-95 -39t-94 38t-40 96zM285 280q0 -42 53 -89.5t144.5 -47.5t153.5 26q118 50 118 157v151q-360 -5 -448 -127q-20 -28 -21 -70zM94 300q0 72 62 136t164 96q197 60 434 60v47q0 109 -82 156q-59 35 -183 34
q-53 0 -110 -4q-2 -61 -36 -87.5t-74 -26.5t-70.5 29.5t-30.5 76.5q0 166 332 166q332 -1 416 -201q26 -62 26 -141v-428q2 -35 27.5 -46t85 -12t74 -12.5t14.5 -46.5v-35q0 -37 -13.5 -49t-46.5 -12h-57q-139 0 -190.5 30.5t-65.5 90.5q-152 -133 -399 -133q-96 0 -162 54
t-90.5 119t-24.5 139z" />
    <glyph glyph-name="uni022E" unicode="&#x22e;" horiz-adv-x="1746" 
d="M739 1683.5q0 57.5 40 97.5t94 40t95.5 -40t41.5 -97.5t-41 -96.5t-94.5 -39t-94.5 39t-41 96.5zM334 733q0 -272 143.5 -427.5t395 -155.5t394 156.5t142.5 426.5t-148.5 408.5t-389.5 138.5t-389 -137.5t-148 -409.5zM129 704q0 332 203 536t540.5 204t539.5 -204
t202 -535t-203 -529.5t-540 -198.5t-539.5 197.5t-202.5 529.5z" />
    <glyph glyph-name="uni022F" unicode="&#x22f;" 
d="M453 1285q0 58 41 98t95 40t94 -38.5t40 -97t-41 -97.5t-95 -39t-94 38t-40 96zM264 502q0 -348 322 -348q180 0 251.5 94t71.5 254q0 328 -319 327q-326 1 -326 -327zM63 480q0 224 143.5 363.5t380.5 139.5t380 -140.5t143 -363.5t-142.5 -356t-381 -133t-381 133
t-142.5 357z" />
    <glyph glyph-name="uni0232" unicode="&#x232;" horiz-adv-x="1734" 
d="M408 1579v162h915v-162h-915zM43 1268v155h504v-155h-62l408 -539l403 539h-59v155h453v-155h-199l-502 -666q-18 -25 -21 -35t-3 -49v-364h157v-154h-512v154h160v362q0 39 -3 49t-22 35l-503 668h-199z" />
    <glyph glyph-name="uni0233" unicode="&#x233;" horiz-adv-x="1253" 
d="M203 1284v160h850v-160h-850zM51 -238q0 47 30 75t69 28t71.5 -25.5t32.5 -83.5v-12q166 0 230 114q56 101 58 144q0 10 -12 37l-319 774h-160v154h451v-154h-103l205 -506l37 -112q18 72 242 618h-103v154h422v-154h-160l-360 -872q-14 -46 -54 -116.5t-82 -114.5
t-117 -82t-161 -38t-151.5 49t-65.5 123z" />
    <glyph glyph-name="uni0235" unicode="&#x235;" horiz-adv-x="1449" 
d="M1238 133q34 0 34 28t-27.5 52.5t-63.5 24.5t-87 -23q25 -45 67.5 -63.5t76.5 -18.5zM94 0v154h154v567q0 53 -22.5 66.5t-112.5 13.5h-19v155l332 23v-162q137 162 346 162q163 0 210.5 -46t77.5 -88.5t30 -213.5v-252q51 16 90 16h2q100 0 172.5 -69.5t72.5 -159.5
t-64.5 -135t-152.5 -45q-170 0 -266 120q-95 -95 -149.5 -194.5t-86.5 -164.5t-44.5 -74t-40.5 -9h-35q-57 0 -58 35q0 18 49.5 120.5t141.5 240t180 208.5v377q0 90 -44 134t-177 44q-84 0 -164 -57.5t-80 -224.5v-387h154v-154h-496z" />
    <glyph glyph-name="uni0236" unicode="&#x236;" horiz-adv-x="915" 
d="M666 182q0 39 -60 39t-135 -37q53 -30 124 -30t71 28zM233 813h-188v154q219 14 223 415h156v-415h321v-154h-321v-481q98 43 181 43t150.5 -54.5t67.5 -128.5q0 -138 -115 -168t-272 -34q-51 0 -82.5 15t-64.5 54h-2q-84 -88 -131 -168.5t-55.5 -121.5t-21.5 -66
t-44 -25h-62q-47 0 -47 31t32 109t88.5 184t191.5 215l-5 121v475z" />
    <glyph glyph-name="dotlessj" unicode="&#x237;" horiz-adv-x="731" 
d="M136 -410q-105 0 -162.5 48t-57.5 105.5t30.5 86.5t73 29t75 -26t32.5 -87l43 -2q160 0 160 180v805q-2 45 -28 58.5t-116 13.5h-24v155l350 23v-1010l2 -45q0 -94 -42 -163.5t-108 -104.5q-124 -66 -228 -66z" />
    <glyph glyph-name="uni0238" unicode="&#x238;" horiz-adv-x="1961" 
d="M1077 365q0 -74 84 -148t207 -74t219 72t96 266q0 342 -303 342q-109 0 -206 -49t-97 -123v-286zM606 823q-327 0 -327 -340t301 -340q121 0 212 75t91 151v290q0 57 -82 110.5t-195 53.5zM499 979q210 0 390 -105v297q-2 49 -26.5 61.5t-112.5 12.5h-15v156l336 22v-553
q190 109 438 109q154 0 263.5 -122t109.5 -373t-129 -372.5t-327 -121.5t-367 139l-17 -129h-153v125q-186 -135 -404 -135q-178 0 -291.5 127t-114.5 353t104.5 367.5t315.5 141.5z" />
    <glyph glyph-name="uni0239" unicode="&#x239;" horiz-adv-x="1961" 
d="M1071 373q0 -74 83 -152t215 -78t222 92.5t90 246.5t-85 242.5t-208 88.5t-220 -51t-97 -125v-264zM279 483.5q0 -153.5 85 -247t212 -93.5t204.5 69t102.5 138q6 18 6 56v174q0 88 -84 160.5t-212 72.5t-221 -88t-93 -241.5zM78 484q0 228 115.5 361.5t306.5 133.5
q229 0 407 -143l17 143h147v-109q188 109 459 109q166 0 259 -134t93 -371t-128 -360.5t-322 -123.5t-361 127v-361h154v-155h-496v155h154v369q-177 -137 -377 -137t-314 134t-114 362z" />
    <glyph glyph-name="uni0245" unicode="&#x245;" horiz-adv-x="1734" 
d="M55 -2v156h168l537 1210q25 57 86 57h16q37 0 61 -1t43 -33.5t62 -130.5t62 -140l428 -962h168v-156h-486v156h105l-310 698l-147 346l-152 -358l-303 -686h105v-156h-443z" />
    <glyph glyph-name="uni0250" unicode="&#x250;" horiz-adv-x="1150" 
d="M650 823q-91 0 -174 -41t-83 -141v-149q469 12 469 184q-2 66 -61.5 106.5t-150.5 40.5zM4 872v29q0 43 14.5 54.5t61.5 11.5h43q137 0 187 -29t67 -90q150 131 399 131q96 -1 162 -55q115 -95 115 -244q1 -86 -61 -150t-164 -94q-200 -60 -435 -59v-49q0 -109 82 -156
q59 -35 182 -35q45 0 111 4v2q2 66 36 89.5t75.5 23.5t70.5 -30.5t29 -75.5q0 -166 -340 -166q-127 0 -218 32t-135 84q-81 97 -81 213v592q-12 -8 -39 -27.5t-59.5 -41t-59.5 -21.5q-43 0 -43 57z" />
    <glyph glyph-name="uni0251" unicode="&#x251;" horiz-adv-x="1318" 
d="M279 483q0 -340 305 -340q117 0 211 66.5t94 138.5v318q0 43 -31 71q-96 86 -248 86q-331 0 -331 -340zM78 487q0 211 104.5 351.5t304.5 140.5q242 0 426 -109l15 109h149v-260q0 -45 6.5 -86t6.5 -54t-13 -30v-37q12 -16 12.5 -34.5t-6 -59.5t-6.5 -82v-92
q0 -53 28 -65.5t126 -12.5v-156l-342 -20v125q-184 -125 -406 -125q-147 0 -265 103q-62 54 -101 155.5t-39 238.5z" />
    <glyph glyph-name="uni0252" unicode="&#x252;" horiz-adv-x="1318" 
d="M709 143q330 0 329.5 340t-307.5 340q-109 0 -206 -49t-97 -123v-289q2 -74 84 -146.5t197 -72.5zM86 801v155l338 23v-109q190 109 436 109q172 0 275.5 -133t103.5 -360.5t-121 -361.5t-329.5 -134t-378.5 139l-17 -129h-153v727q0 49 -27 61.5t-109 12.5h-18z" />
    <glyph glyph-name="uni0253" unicode="&#x253;" horiz-adv-x="1243" 
d="M358 362q0 -72 81 -145.5t196 -73.5q328 0 328 340t-304 340q-117 0 -192.5 -44t-97.5 -83q-10 -18 -11 -45v-289zM170 0v1014q0 121 64 209q62 88 166 131q193 80 378 80t258.5 -63.5t73.5 -139.5q0 -49 -30.5 -79t-73.5 -30t-74 30t-31 59.5t4 54.5q-80 14 -161 14
t-141 -12.5t-118.5 -41t-94.5 -85t-36 -133.5v-138q186 109 432 109q170 0 273.5 -132t103.5 -373t-131 -362.5t-327.5 -121.5t-364.5 139l-16 -129h-154z" />
    <glyph glyph-name="uni0254" unicode="&#x254;" horiz-adv-x="1046" 
d="M68 676q0 39 37.5 101.5t78.5 102.5t114 69.5t161 29.5q225 0 365.5 -135t140.5 -363q0 -171 -105 -322q-55 -79 -163.5 -127t-256.5 -48q-249 0 -316 73q-34 37 -34 88.5t31 81t76 29.5q92 0 104 -102v-2q41 -2 123 -2q342 0 342 327q0 96 -38 165q-38 68 -102 104
q-121 66 -268 67q-49 0 -77.5 -27.5t-47 -78t-31 -55.5t-52.5 -5h-37q-45 0 -45 29z" />
    <glyph glyph-name="uni0255" unicode="&#x255;" horiz-adv-x="1046" 
d="M647 154q156 0 156 75q0 33 -32 48.5t-66 15.5q-121 0 -207 -119q70 -20 149 -20zM104 -299q-49 0 -49 22.5t91.5 174t115.5 186.5v2q-186 137 -186 399q0 199 120 343q60 72 164 114q106 42 206 43q160 -1 256 -23q130 -30 130 -145q0 -47 -30.5 -76.5t-73.5 -29.5
q-94 0 -107 104h-2q-82 4 -125 4h-10q-328 0 -328 -332q0 -150 89 -237q137 197 331 196q109 0 187 -61t78 -157.5t-91.5 -167t-279.5 -70.5q-109 0 -197 28q-137 -207 -162.5 -255t-36 -55t-49.5 -7h-41z" />
    <glyph glyph-name="uni0256" unicode="&#x256;" horiz-adv-x="1314" 
d="M606 823q-327 0 -327 -340t301 -340q121 0 212 75t91 151v290q0 57 -82 110.5t-195 53.5zM498.5 979q209.5 0 390.5 -105v297q-2 49 -26.5 61.5t-112.5 12.5h-15v156l336 22v-1497q0 -182 139 -182h17q2 68 35.5 92.5t71.5 24.5t71 -30t33 -85t-51.5 -105.5t-136.5 -50.5
t-163.5 30t-141 110t-62.5 194v197q-174 -131 -398 -131q-164 0 -284.5 119.5t-122.5 375.5q0 211 105.5 352.5t315 141.5z" />
    <glyph glyph-name="uni0257" unicode="&#x257;" horiz-adv-x="1318" 
d="M610 823q-331 0 -331 -340t303 -340q123 0 215 75t92 151v282q0 43 -29 74q-90 98 -250 98zM78 483q0 213 105.5 354.5t317.5 141.5t388 -100v129q0 123 50 213t127 133q143 80 271 80q84 0 128 -57.5t44 -116t-29.5 -88t-73.5 -29.5t-76 29.5t-32 74.5q0 10 5 31h-23
q-80 0 -130 -54.5t-61.5 -105.5t-11.5 -125v-768q2 -45 26.5 -58t104.5 -13h23v-154l-342 -10v131q-182 -131 -402 -131q-149 0 -271 104q-62 53 -100 153.5t-38 235.5z" />
    <glyph glyph-name="uni0258" unicode="&#x258;" horiz-adv-x="1048" 
d="M489 829q-216 0 -253 -223h534q-16 76 -54 125q-76 98 -227 98zM63 546q0 44 8.5 97t36 116.5t72.5 112t125 80t184 31.5q221 0 356.5 -136t135.5 -362.5t-146.5 -360.5t-373.5 -134q-178 0 -286.5 105.5t-108.5 174.5q0 39 63 39h31q37 0 45 -10q8 -11 16 -29
q50 -114 182.5 -114t235.5 56q129 70 141 263h-659q-33 2 -45.5 14.5t-12.5 56.5z" />
    <glyph glyph-name="uni0259" unicode="&#x259;" horiz-adv-x="1048" 
d="M492.5 137q232.5 0 279.5 223h-551q39 -223 271.5 -223zM47 410.5q0 58.5 12.5 70t44.5 11.5h680q-7 101 -29 140q-56 98 -117 130q-95 52 -235 51.5t-196 -115.5q-13 -26 -17 -27t-9 -5q-11 -9 -38 -9h-22q-72 0 -72 41q0 76 117 178.5t295 102.5q236 0 379 -138.5
t143 -361.5t-135 -359t-359 -136q-125 0 -216 42t-138 111.5t-67.5 142t-20.5 131z" />
    <glyph glyph-name="uni025A" unicode="&#x25a;" horiz-adv-x="1505" 
d="M731 473q0 51 -14 121h-2q-433 -306 -457 -311h-6q27 -145 207 -146q96 -1 176 57q96 70 96 279zM379 813q-113 0 -158 -113q-10 -25 -21.5 -34t-39.5 -9h-37q-57 0 -57 41q0 58 85 159q42 50 117.5 86t167.5 36q209 0 352 -133h3l157 110q35 23 68 23h108
q35 0 49.5 -12.5t12.5 -46.5v-220q0 -90 69 -90q53 0 80 39q4 6 10.5 26.5t18.5 29t41 8.5h33q63 0 63 -49q0 -74 -68.5 -141.5t-174 -67.5t-193.5 45q-111 57 -111 198v62l-71 -49q49 -119 49 -234q0 -217 -126 -355t-347 -138q-271 0 -357 166q-40 77 -39.5 120t4 51.5
t5.5 13.5q5 12 26.5 26.5t26.5 19.5l438 305q45 33 68 47q-106 80 -252 80z" />
    <glyph glyph-name="uni025B" unicode="&#x25b;" horiz-adv-x="1046" 
d="M864 711q-41 0 -73.5 24.5t-34.5 87.5q-70 6 -211 6h-8q-242 0 -242 -116q0 -41 24 -68q41 -47 179 -47h67q31 0 39 -11.5t8 -54t-6 -54t-45 -11.5h-6q-168 0 -225 -47t-57.5 -106.5t51.5 -97.5q83 -60 246 -60t235 123q6 10 12 25t14.5 26.5t34.5 11.5h66q45 0 45 -25
q0 -42 -41 -110t-87 -112t-130 -75.5t-191 -31.5q-108 0 -192 22q-143 36 -209 130q-49 70 -49 167q0 143 131 228q-104 68 -105 184q0 145 107.5 204.5t318.5 59.5h33l43 2q360 0 361 -168q0 -47 -31 -76.5t-72 -29.5z" />
    <glyph glyph-name="uni025C" unicode="&#x25c;" horiz-adv-x="1112" 
d="M535 858q-145 0 -220 -31q39 -81 -13 -131q-30 -28 -72 -28t-71.5 29.5t-29.5 76.5q0 215 426 215q225 0 324.5 -80t99.5 -180q0 -141 -156 -223q188 -72 189 -225q0 -113 -108.5 -208.5t-340.5 -95.5q-152 0 -307.5 64t-155.5 115q12 106 41 106q12 0 63.5 -34.5
t144.5 -70.5t222 -36t186.5 49t57.5 112.5t-57.5 112.5t-202.5 49h-25q-53 0 -63 10.5t-10 49.5v41q0 31 7 42t29.5 13t61.5 4t69 3.5t85 25.5q74 39 73 98q0 127 -247 127z" />
    <glyph glyph-name="uni025D" unicode="&#x25d;" horiz-adv-x="1505" 
d="M522 858q-133 0 -207 -31q37 -81 -13 -131q-28 -28 -70 -28t-72 28q-30 26 -31 62q-1 62 31 114q44 71 190 101q88 16 207 16q279 0 387 -147q242 131 253 134t22 3h122q43 0 55.5 -8t12.5 -39v-289q8 14 13 29.5t11.5 25t36.5 9.5h60q49 0 49 -37q0 -59 -48 -123
t-132 -64t-146.5 49.5t-72.5 126.5q-2 20 -2 64v92l-201 -106q-8 -63 -39 -109.5t-115 -93.5q188 -74 189 -225q0 -131 -121 -217.5t-330 -86.5q-111 0 -240.5 40t-203.5 106q-17 17 -17 33q12 106 45 106q8 0 58.5 -34.5t144.5 -70.5t223 -36t185.5 49t56.5 110.5
t-53 112.5t-230 51h-10q-43 0 -53 9.5t-10 46.5v47q0 29 7 40t24.5 12t54.5 3t50 3t45 6t47 12.5t46.5 23t48.5 64.5q-10 13 -10 22l10 19q-18 55 -71.5 80.5t-186.5 25.5z" />
    <glyph glyph-name="uni025E" unicode="&#x25e;" 
d="M522 488v28q0 55 6.5 68.5t26.5 14.5t57 3q65 4 107 11t85.5 40t43.5 79t-57.5 86t-211 40t-257 -110.5t-103.5 -256.5t103.5 -258t266.5 -112t227.5 49t64.5 112.5t-64.5 111.5t-220.5 50h-27q-25 0 -27.5 3.5t-8 5.5t-6.5 6t-3 11t-2 18zM63 488q0 204 149.5 352.5
t368 148.5t341 -71.5t122.5 -200.5t-161 -213q195 -74 194 -223q0 -106 -101 -197q-52 -47 -151.5 -77t-230.5 -30q-233 0 -382 153.5t-149 357.5z" />
    <glyph glyph-name="uni025F" unicode="&#x25f;" horiz-adv-x="718" 
d="M147 408q-53 0 -53 67v23q0 20 1 29.5t13.5 21.5t38.5 12h177v252h-191v154h529v-154h-154v-252h147q25 -2 37.5 -15.5t12.5 -49.5v-21q0 -33 -8.5 -49t-41.5 -18h-147v-478q0 -131 -74 -213q-115 -127 -319 -127q-90 0 -147.5 47t-57.5 105.5t30.5 88.5t71.5 30
t74 -24.5t35 -90.5l43 -2q160 0 160 195v469h-177z" />
    <glyph glyph-name="uni0260" unicode="&#x260;" horiz-adv-x="1314" 
d="M279 497q0 -139 85 -214.5t214 -75.5t209.5 76.5t97.5 177.5q6 35 6 112v21q0 80 -82 154.5t-214 74.5t-224 -93.5t-92 -232.5zM889 -41v231q-176 -139 -385.5 -139t-317.5 120.5t-108 326.5t115.5 343.5t319.5 137.5t378 -125v90q0 119 55 192.5t165 113.5t209 40
t144 -59.5t45 -114.5t-29.5 -86t-74.5 -31t-75 28t-30 62.5t3 45.5q-14 2 -64 2t-107 -42t-57 -139v-208l2 -279v-508q0 -195 -135 -289t-356 -94q-455 0 -455 223q0 51 29.5 81t74 30t75 -28.5t30.5 -66t-10 -61.5q74 -25 241 -24q318 0 318 227z" />
    <glyph glyph-name="uni0261" unicode="&#x261;" horiz-adv-x="1253" 
d="M279 489q0 -80 30.5 -139t78.5 -89q90 -56 194 -56t195 65q52 37 85 117t33 184.5t-87 178t-198 73.5q-150 0 -240.5 -93.5t-90.5 -240.5zM889 -41v231q-180 -139 -387.5 -139t-315.5 120.5t-108 326.5t116.5 343.5t328.5 137.5t388 -141l17 141h149v-1022
q0 -133 -90 -245q-49 -60 -151.5 -97t-247.5 -37q-457 0 -457 225q0 49 31 79t75 30t73.5 -31t29.5 -65t-10 -60q74 -25 241 -24q318 0 318 227z" />
    <glyph glyph-name="uni0262" unicode="&#x262;" horiz-adv-x="1470" 
d="M1203 983q38 0 38 -57v-301q-2 -29 -13 -37t-36 -8h-25q-55 0 -65 6t-21 39q-25 88 -104.5 146t-208.5 58t-226.5 -33.5t-143.5 -89.5q-83 -100 -83 -223q0 -164 118 -254t368 -90h18q172 0 234 25v100h-232v125h547v-125h-127v-215q0 -45 -24 -45q-16 0 -80 37
q-98 -57 -334 -57t-363 50t-202.5 133t-99 159.5t-23.5 156.5q0 223 171 361.5t445 138.5q203 0 346 -109q86 94 99 103q10 6 27 6z" />
    <glyph glyph-name="uni0263" unicode="&#x263;" horiz-adv-x="1253" 
d="M631 -264q57 0 57 112q0 56 -63 156q-58 -82 -58 -146q0 -122 64 -122zM51 813v154h451v-154h-99q225 -535 238 -569q14 53 236 569h-99v154h422v-154h-164l-305 -707q131 -176 131 -280t-67.5 -175t-157.5 -71t-152.5 66.5t-62.5 171.5t110 262l-317 733h-164z" />
    <glyph glyph-name="uni0264" unicode="&#x264;" horiz-adv-x="1243" 
d="M547 239q0 -53 21.5 -78.5t48 -25.5t45 22.5t18.5 50t-2 42t-5 25t-11.5 29t-12.5 27.5t-17.5 35.5t-19.5 39.5q-65 -114 -65 -167zM29 805q0 66 67.5 125t181.5 59t208 -59.5t143 -159.5q63 123 158.5 171t194 48t164.5 -58.5t66 -125.5q0 -25 -12 -30t-43 -5h-49
q-33 0 -53.5 33t-105.5 33t-127 -38q-12 -10 -18.5 -16t-14 -18t-12.5 -19.5t-33.5 -71t-28.5 -74.5t76.5 -159.5t76.5 -216.5q0 -104 -73.5 -175t-172.5 -71t-166 72t-67 155t68.5 215t68.5 150t-46 108.5t-64 108.5q-49 49 -127.5 49.5t-99.5 -30.5t-33 -33t-37 -2h-37
q-53 0 -53 35z" />
    <glyph glyph-name="uni0265" unicode="&#x265;" horiz-adv-x="1318" 
d="M72 813v154h495v-154h-153v-485q0 -81 26 -117q47 -68 195 -68q94 0 169 63.5t75 217.5v389h-154v154h496v-154h-154v-977q2 -43 26.5 -56t104.5 -13h23v-154l-336 -23v553q-137 -153 -347 -153t-268 112q-28 56 -36.5 102t-8.5 115v494h-153z" />
    <glyph glyph-name="uni0266" unicode="&#x266;" horiz-adv-x="1318" 
d="M772 979q232 -1 290 -151q28 -72 28 -181v-493h153v-154h-495v154h153v487q0 41 -5 67q-6 26 -26 56q-39 59 -190 59q-94 0 -169 -63.5t-75 -216.5v-389h154v-154h-496v154h154v841q0 94 9 146.5t42 101.5q133 190 563 191q135 0 199.5 -59.5t64.5 -120t-31.5 -89
t-74.5 -28.5t-74 28.5t-31 75.5q0 8 5 29q-61 10 -169 10t-207.5 -44t-109.5 -140v-23q-4 -46 -4 -92l2 -45v-111q137 154 340 154z" />
    <glyph glyph-name="uni0267" unicode="&#x267;" horiz-adv-x="1249" 
d="M901 -68v699q0 45 -4 69q-3 24 -23 59q-37 64 -194 64q-109 0 -176.5 -72.5t-67.5 -205.5v-391h154v-154h-496v154h154v874q0 192 110 280q54 44 166.5 84.5t286.5 41.5q121 0 181.5 -60.5t60.5 -119t-31 -88t-75 -29.5t-74.5 28.5t-30.5 75.5q0 10 4 31q-70 8 -119 8
q-113 0 -199 -47t-94 -137v-23q-4 -46 -4 -92l2 -45v-111q139 154 340 154q88 0 150.5 -23.5t94.5 -54.5q73 -71 73 -258v-721q0 -92 -46 -162t-116 -104q-133 -66 -257.5 -66t-178.5 51.5t-54 105.5t31 83t71 29t73.5 -27t33.5 -86l68 -2q186 0 186 188z" />
    <glyph glyph-name="uni0268" unicode="&#x268;" horiz-adv-x="743" 
d="M215 1286q0 53 40 95t96 42t96 -38.5t40 -97t-40.5 -97.5t-97 -39t-95.5 41t-39 94zM92 471v35q0 55 62 55h137v156q0 55 -21.5 69.5t-115.5 14.5h-11v155l330 23v-418h135q25 0 36 -3q30 -8 30 -64v-21q0 -43 -14.5 -54t-45.5 -11h-141v-254h139v-154h-475v154h154v254
h-135q-39 0 -51.5 13t-12.5 50z" />
    <glyph glyph-name="uni0269" unicode="&#x269;" horiz-adv-x="784" 
d="M702 358q64 0 64 -49q0 -70 -46 -180q-24 -59 -77 -99t-110.5 -40t-102.5 13t-92 42t-77 86t-30 135v453q0 53 -23.5 67.5t-115.5 14.5h-14v155l342 23v-717q0 -47 26.5 -82t66.5 -35q40 1 56 23q41 61 41 127q8 46 20.5 54.5t45.5 8.5h26z" />
    <glyph glyph-name="uni026A" unicode="&#x26a;" horiz-adv-x="675" 
d="M123 0v125h119v717h-119v125h428v-125h-121v-717h121v-125h-428z" />
    <glyph glyph-name="uni026B" unicode="&#x26b;" horiz-adv-x="1005" 
d="M313 870q20 0 109 11v288q0 49 -25.5 62.5t-115.5 13.5h-13v156l336 22v-518l123 8l29 -6l6 -4l4 -8v-8l-6 -17l112 -104l-108 -119q2 6 2 15q0 25 -57 24q-16 0 -105 -10v-522h154v-154h-490v154h154v497q-68 -8 -109.5 -8t-52.5 16v9l6 18l-112 105l108 116l-2 -10
q0 -27 53 -27z" />
    <glyph glyph-name="uni026C" unicode="&#x26c;" horiz-adv-x="927" 
d="M211 762q0 -47 38 -89t134 -44v192l-57 2q-115 0 -115 -61zM55 770q0 80 71 140.5t257 62.5v196q0 51 -26.5 63.5t-120.5 12.5h-7v156l336 22v-749q115 57 226 160l98 -119q-152 -145 -324 -199v-362h154v-154h-490v154h154v338q-150 6 -239 83.5t-89 194.5z" />
    <glyph glyph-name="uni026D" unicode="&#x26d;" horiz-adv-x="659" 
d="M571 -256h17q0 61 32.5 88t74.5 27t72 -30t30 -82t-50.5 -104.5t-134.5 -52.5t-160.5 30t-139 108.5t-62.5 193.5v1249q-2 49 -26.5 61.5t-112.5 12.5h-15v156l338 22v-1456l-2 -39q0 -184 139 -184z" />
    <glyph glyph-name="uni026E" unicode="&#x26e;" horiz-adv-x="1329" 
d="M98 0v154h154v1020q-2 45 -25.5 58t-105.5 13h-23v156l338 22v-456h723q29 0 43.5 -11.5t16.5 -22.5t2 -40t-5.5 -41t-25.5 -37l-352 -381q33 -8 43 -10t62 -20q52 -16 82 -34q113 -66 153 -123q68 -97 67.5 -233t-96.5 -268q-51 -70 -152.5 -113t-240.5 -43
q-434 0 -434 226q0 49 30.5 79.5t74.5 30.5t74.5 -30.5t30.5 -62t-12 -64.5q84 -25 209 -25h23q293 0 292 276q0 260 -423 271q-68 2 -68 33q0 18 29 51l401 434h-547v-655h154v-154h-492z" />
    <glyph glyph-name="uni026F" unicode="&#x26f;" horiz-adv-x="1974" 
d="M74 813v154h495v-154h-153v-485q0 -98 43 -141.5t158.5 -43.5t189.5 63.5t74 217.5v389h-154v154h496v-154h-154v-485q0 -98 43 -141.5t158.5 -43.5t189.5 63.5t74 217.5v389h-154v154h496v-154h-154v-567q0 -53 22.5 -66.5t115.5 -13.5h16v-156l-330 -20v90l-2 70
q-135 -160 -344 -160q-162 0 -220.5 55t-80.5 115q-141 -172 -352 -172q-87 0 -151 24t-96 54q-73 70 -73 256v491h-153z" />
    <glyph glyph-name="uni0270" unicode="&#x270;" horiz-adv-x="1974" 
d="M74 813v154h495v-154h-153v-485q0 -98 43 -141.5t158.5 -43.5t189.5 63.5t74 217.5v389h-154v154h496v-154h-154v-485q0 -98 43 -141.5t158.5 -43.5t189.5 63.5t74 217.5v389h-154v154h496v-154h-154v-975q2 -45 27 -58t104 -13h23v-154l-330 -23v478l-2 82
q-135 -160 -344 -160q-164 0 -221 53.5t-80 116.5q-141 -172 -352 -172q-87 0 -151 24t-96 54q-73 70 -73 256v491h-153z" />
    <glyph glyph-name="uni0271" unicode="&#x271;" horiz-adv-x="1902" 
d="M1283 -410q-116 0 -172 51.5t-56 105.5t29.5 83t70.5 29t75 -26t34 -85q53 -4 79 -4q88 0 140 35q72 49 71 151v699q0 45 -4 68.5t-22 58.5q-34 67 -174 67t-209 -90q-55 -70 -55 -188v-391h153v-154h-495v154h153v487q0 90 -40 135t-175 47q-100 0 -175 -64.5
t-75 -215.5v-389h154v-154h-496v154h154v567q0 53 -22.5 66.5t-112.5 13.5h-19v155l332 23v-162q137 162 344 162q159 0 219 -54.5t82 -115.5q139 170 356 170q217 1 274 -119q28 -58 35 -102.5t7 -114.5v-694l2 -29q0 -78 -34 -138q-59 -104 -185.5 -148t-242.5 -44z" />
    <glyph glyph-name="uni0272" unicode="&#x272;" horiz-adv-x="1318" 
d="M-80 -254q0 55 32 84t71 29t73.5 -27t34.5 -88q119 2 119 186v797q0 47 -24.5 60.5t-108.5 13.5h-21v155l332 23v-156q139 156 335.5 156t263.5 -85t67 -247v-493h153v-154h-497v154h153v485q0 139 -95 169q-48 15 -124 15q-133 0 -191.5 -84t-58.5 -190v-594
q0 -102 -36 -178t-92 -114q-108 -73 -199 -73t-139 50.5t-48 105.5z" />
    <glyph glyph-name="uni0273" unicode="&#x273;" horiz-adv-x="1314" 
d="M94 0v154h154v567q0 53 -22.5 66.5t-112.5 13.5h-19v155l332 23v-162q137 162 351 162q215 1 271 -119q28 -58 35 -102.5t7 -112.5v-717q0 -184 137 -184h14q0 61 35 88t75 27t70.5 -30t30.5 -82t-50 -104.5t-135.5 -52.5t-158 33t-113.5 69q-94 83 -94 234v703
q1 80 -15 111q-41 83 -198 83q-102 0 -177 -62.5t-75 -217.5v-389h154v-154h-496z" />
    <glyph glyph-name="uni0274" unicode="&#x274;" horiz-adv-x="1478" 
d="M133 0v125h113v717h-113v125h260q41 0 70 -31l612 -660v566h-112v125h378v-125h-112v-774q0 -24 -2 -36q-5 -32 -56 -32h-36q-29 0 -42.5 8t-43.5 43l-650 699v-625h113v-125h-379z" />
    <glyph glyph-name="uni0275" unicode="&#x275;" 
d="M587 154q278 0 316 254h-633q39 -254 317 -254zM586.5 829q-291.5 0 -320.5 -268h641q-29 268 -320.5 268zM63 480q0 224 143.5 363.5t380.5 139.5t380 -140.5t143 -363.5t-142.5 -356t-381 -133t-381 133t-142.5 357z" />
    <glyph glyph-name="uni0276" unicode="&#x276;" horiz-adv-x="1888" 
d="M328 496q0 -57 20.5 -115.5t66.5 -115t134 -91.5t209 -35t157.5 34t36.5 140v330q0 59 -4 86t-22.5 54.5t-59.5 36.5t-137 9t-185 -31.5t-133 -85t-63.5 -106.5t-19.5 -110zM270 146q-136 146 -136 332q-2 186 138 339q70 76 193 121t283 45l315 -16h672l37 -297h-154
q-14 111 -26.5 138.5t-58.5 30.5t-241 3h-157v-269h155q106 0 129 6.5t26 26.5t3 76h156v-360h-156q0 80 -13.5 92t-82.5 14l-107 2h-110v-305h163q268 0 289 5t29 13q27 25 53 176h154l-56 -319h-704l-315 -16q-162 0 -286 44t-192 118z" />
    <glyph glyph-name="uni0277" unicode="&#x277;" horiz-adv-x="1439" 
d="M264 434q0 -109 47 -200t135.5 -91t144.5 64.5t56 103.5q0 8 -12 76t-12 158t30.5 119.5t64.5 29.5t63.5 -30.5t29.5 -95t-8 -125t-15.5 -98.5t-7.5 -44q0 -37 46 -97.5t134 -60.5t149.5 87t61.5 204q0 170 -131 291t-320 121t-322.5 -119t-133.5 -293zM63 434
q0 238 190.5 402.5t462 164.5t464 -164.5t192.5 -400.5q0 -193 -125 -319.5t-288 -126.5t-248 153h-2q-98 -154 -258 -153.5t-274 128.5t-114 316z" />
    <glyph glyph-name="uni0278" unicode="&#x278;" horiz-adv-x="1439" 
d="M1149 506q0 121 -76 210t-260 113l-2 -90v-557q338 45 338 324zM287 506q0 -123 76.5 -212t259.5 -112v647q-336 -44 -336 -323zM102 506q0 207 149.5 334t371.5 145v283h-154v155h496v-155h-154v-283h2q133 -10 237 -57q102 -47 162 -116q118 -137 118.5 -322t-144 -314
t-373.5 -147l-2 -2v-271h154v-155h-496v155h154v273q-135 10 -239 58q-104 47 -164 117q-118 138 -118 302z" />
    <glyph glyph-name="uni0279" unicode="&#x279;" horiz-adv-x="929" 
d="M63 126.5q0 55.5 31 84.5t74 29q82 0 100 -95q62 11 138 73q98 79 98 284v311h-193v154h529v-154h-154v-567q0 -53 22.5 -66.5t112.5 -13.5h19v-156l-326 -20v164q-109 -164 -274 -164q-74 0 -125.5 40.5t-51.5 96z" />
    <glyph glyph-name="uni027A" unicode="&#x27a;" horiz-adv-x="929" 
d="M63 126.5q0 55.5 31 84.5t74 29q82 0 100 -95q78 18 130.5 64.5t79 126t26.5 164.5v710h-193v156h529v-156h-154v-974q2 -45 26.5 -57.5t104.5 -12.5h23v-156l-326 -20v164q-109 -164 -274 -164q-74 0 -125.5 40.5t-51.5 96z" />
    <glyph glyph-name="uni027B" unicode="&#x27b;" horiz-adv-x="929" 
d="M686 -63q0 -193 139 -193h17q2 68 35.5 92.5t73.5 24.5t70 -32t30 -88.5t-53.5 -103.5t-120 -47t-123 15.5t-115.5 51.5t-97 105.5t-38 165.5v156q0 8 -1 25.5t-1 25.5q-104 -145 -262 -145q-80 0 -128.5 45t-48.5 96t31 80t74 29q82 0 100 -95q62 11 138 73
q98 79 98 284v311h-193v154h529v-154h-154v-876z" />
    <glyph glyph-name="uni027C" unicode="&#x27c;" horiz-adv-x="929" 
d="M86 -244h154v975q-2 45 -26 57.5t-105 12.5h-23v155l326 23v-92l2 -72q109 164 272 164q70 0 123 -43q53 -44 53 -98t-30.5 -82.5t-73.5 -28.5q-82 0 -101 94q-233 -53 -233 -356v-709h190v-155h-528v155z" />
    <glyph glyph-name="uni027D" unicode="&#x27d;" horiz-adv-x="929" 
d="M627 -256q27 0 75 4q2 59 36 85t75 26t70.5 -29t29.5 -83t-55 -105.5t-190.5 -51.5t-265.5 67t-156 189q-6 31 -6 93v784q0 53 -26 65.5t-122 12.5h-6v155l326 23v-92l2 -72q109 164 270 164h2q70 0 123 -43t53 -97.5t-30.5 -83t-73.5 -28.5q-82 0 -101 94
q-121 -27 -178 -122t-57 -234l2 -49v-461l-2 -31q0 -88 57 -134t148 -46z" />
    <glyph glyph-name="uni027E" unicode="&#x27e;" horiz-adv-x="929" 
d="M86 0v154h154v551q0 11 8 39t12 42.5t28.5 52.5t58.5 65.5t102.5 51t172.5 23.5t172 -66.5t68 -142.5q0 -47 -29.5 -75.5t-72.5 -28.5t-73 30t-30 60t9 59q-33 8 -80 8q-47 -1 -92 -19q-46 -18 -58 -38t-12 -64v-548h190v-154h-528z" />
    <glyph glyph-name="uni027F" unicode="&#x27f;" horiz-adv-x="790" 
d="M115 608h-27q-68 0 -68 51q0 73 48 185q24 58 76 96q54 39 140 39q86 1 166 -59q103 -77 103 -224v-542h154v-154h-498v154h153v551q0 49 -27 83.5t-71 34.5q-70 0 -86 -139l-2 -30q0 -46 -61 -46z" />
    <glyph glyph-name="uni0280" unicode="&#x280;" horiz-adv-x="1376" 
d="M428 561h215q287 0 287 126t-297 126h-205v-252zM131 0v125h113v717h-113v125h492q221 0 342 -58q63 -31 114 -86t51 -135q0 -143 -163 -221q62 -54 73 -105t14 -87.5t7 -69.5t24.5 -48t59.5 -16.5t55 6.5q12 37 57 37h39q57 0 58 -45q0 -49 -47 -102t-144 -53
q-301 0 -301 215v82q0 66 -48 96.5t-198 30.5h-188v-283h113v-125h-410z" />
    <glyph glyph-name="uni0281" unicode="&#x281;" horiz-adv-x="1376" 
d="M428 154h213q289 0 289 127q0 88 -115 111q-80 16 -184 16h-203v-254zM131 0v125h113v717h-113v125h410v-125h-113v-281h184q154 0 202 31t48 96v64q0 124 72 177q72 54 227 54q100 0 146.5 -53t46.5 -103q0 -45 -66 -45h-22q-45 0 -60.5 22.5t-45.5 22.5t-47 -5
t-27.5 -10t-15.5 -22.5t-7 -28.5t-5 -44t-5 -53q-12 -90 -86 -162q164 -80 163 -221q0 -117 -112.5 -193t-296.5 -86q-33 -2 -100 -2h-490z" />
    <glyph glyph-name="uni0282" unicode="&#x282;" horiz-adv-x="929" 
d="M78 -74v383q0 33 8 44.5t39 11.5h61q23 0 32 -7.5t18 -29.5q55 -184 235 -185q115 0 160 40t45 93q0 80 -107 119q-25 10 -132 26.5t-192 53.5t-132 113q-35 50 -35 110q0 107 68 188q83 97 309 97q127 0 217 -55h2q4 4 12 13t11 12t10.5 9.5t10.5 9.5t11 7t28 4t27 -11
t7 -38v-225q-2 -25 -13.5 -33t-57.5 -8q-89 0 -85 30q7 50 -42.5 97t-152.5 47q-188 0 -188 -109q0 -41 38 -68.5t83 -37t117.5 -21.5t105.5 -22q102 -29 178 -102.5t76 -185.5t-69 -199q-85 -107 -308 -107q-152 0 -260 90l-23 -31q25 -6 33 -17.5t8 -43.5v-45
q0 -98 21.5 -141.5t64.5 -57.5q2 68 37 92.5t73 24.5t69.5 -30t31.5 -85t-42 -105.5t-128.5 -50.5t-183 83t-96.5 253z" />
    <glyph glyph-name="uni0283" unicode="&#x283;" horiz-adv-x="784" 
d="M641.5 1434q100.5 0 154.5 -45.5t54 -101.5t-31 -86t-70 -30t-72.5 25t-37.5 84h-14q-139 0 -140 -184v-1174q0 -88 -35.5 -155.5t-93.5 -104.5q-112 -72 -215.5 -72t-153.5 51.5t-50 106.5t31.5 83t71.5 28t75 -28t32 -87h17q139 0 139 184v1129l-2 45q0 88 36 155.5
t93 104.5q111 72 211.5 72z" />
    <glyph glyph-name="uni0284" unicode="&#x284;" horiz-adv-x="784" 
d="M301 -61v495h-233v156h233v428q0 104 61 166q104 106 351 106q84 0 127 -53t43 -105.5t-29 -84t-74 -31.5t-77.5 28.5t-30.5 92.5h-35q-152 0 -152 -113v-434h236v-156h-236v-500q0 -133 -64 -205.5t-149.5 -105.5t-170.5 -33t-141 48t-56 105.5t30.5 87.5t71.5 30
t74 -24.5t35 -90.5l37 -2q102 0 139 98q10 27 10 97z" />
    <glyph glyph-name="uni0285" unicode="&#x285;" horiz-adv-x="864" 
d="M20 657q0 73 48 185q24 58 78.5 97.5t110.5 39.5t100 -12.5t92.5 -41t79 -87t30.5 -136.5v-839q0 -49 27.5 -83t68.5 -34q76 0 95 133q2 7 3 27q1 25 11.5 40t54.5 15h29q59 0 59 -49q-1 -72 -47 -184q-24 -58 -78.5 -98t-140.5 -40t-179 67t-93 204v846q0 47 -27 81.5
t-70 34.5q-74 0 -92 -135q-4 -70 -32 -77q-12 -3 -37 -3h-29q-62 0 -62 49z" />
    <glyph glyph-name="uni0286" unicode="&#x286;" horiz-adv-x="784" 
d="M66 -215q0 -51 106 -51q51 0 75.5 33.5t35.5 115.5q-49 8 -60 8q-70 0 -113.5 -34.5t-43.5 -71.5zM666 -436q-69 0 -64 58q2 26 -31.5 75t-107.5 98q-84 -215 -283 -215q-113 0 -184.5 54.5t-71.5 153.5t95.5 167t232.5 68h8q29 0 36 7t7 42v995l-2 37q1 116 65 194
q112 136 296 136q88 0 138 -48.5t50 -100.5t-31 -83t-74 -31t-73.5 30t-32.5 79h-21q-133 0 -133 -193v-1011q0 -35 7.5 -52.5t7.5 -50.5l-2 -16q100 -49 163.5 -122t80 -124t16.5 -94q0 -53 -60 -53h-32z" />
    <glyph glyph-name="uni0287" unicode="&#x287;" horiz-adv-x="915" 
d="M129 584v53q0 203 168 295q86 46 159.5 46.5t116.5 -27t63 -61.5q46 -75 46 -253v-483h188v-154q-219 -14 -223 -414h-155v414h-322v154h322v528q0 82 -52 116q-20 14 -56 13.5t-68.5 -40.5t-32.5 -140v-47h-154z" />
    <glyph glyph-name="uni0288" unicode="&#x288;" horiz-adv-x="849" 
d="M746.5 -139q37.5 0 69.5 -29t32 -88.5t-58.5 -106.5t-133 -47t-137 14.5t-131.5 48.5t-113 105.5t-44 169.5v885h-188v154q219 14 223 415h156v-415h258v-154h-258v-850l-2 -31q0 -188 168 -188l49 2q2 66 37 90.5t72.5 24.5z" />
    <glyph glyph-name="uni0289" unicode="&#x289;" horiz-adv-x="1318" 
d="M438 305q0 -106 27 -134t150 -28t205.5 51.5t82.5 172.5v41h-465v-103zM90 471v37q0 35 15.5 44t44.5 9h100v156q0 57 -21.5 70.5t-124.5 13.5h-8v155l342 23v-418h465v156q0 57 -21.5 70.5t-123.5 13.5h-8v155l342 23v-418h104q27 0 40 -12t14 -22.5t1 -32.5v-19
q0 -45 -13 -56t-46 -11h-100v-177q0 -51 25.5 -64t115.5 -13h12v-154l-336 -10v139q-156 -139 -409 -139q-188 0 -230 130q-20 61 -20 150v138h-96q-35 0 -49.5 10t-14.5 53z" />
    <glyph glyph-name="uni028A" unicode="&#x28a;" horiz-adv-x="1308" 
d="M129 967h309q55 0 56 -52q0 -78 -66 -238.5t-66 -246.5q0 -137 77 -217t213 -80t213 79t77 218q0 82 -65.5 246t-65.5 237q0 33 14.5 43.5t44.5 10.5h306v-90l-183 -66q18 -41 61.5 -117t66 -136t22.5 -128q0 -186 -127 -319.5t-359.5 -133.5t-362.5 130.5t-130 320.5
q0 70 22.5 131.5t66.5 138t60 113.5l-184 66v90z" />
    <glyph glyph-name="uni028B" unicode="&#x28b;" horiz-adv-x="1206" 
d="M94 801v155l342 23v-653q0 -182 166 -183q133 0 232.5 123t99.5 290q0 168 -54 268q-18 32 -18 64t32 61.5t71 29.5q125 0 125 -324v-82q0 -252 -147.5 -417.5t-346.5 -165.5q-348 0 -348 340v397q0 49 -25.5 61.5t-111.5 12.5h-17z" />
    <glyph glyph-name="uni028C" unicode="&#x28c;" horiz-adv-x="1253" 
d="M51 0v154h160l305 739q12 31 20 42q22 32 72 32h37q39 0 55.5 -12.5t32.5 -51.5l309 -749h160v-154h-450v154h100l-203 508l-37 110q-16 -66 -241 -618h102v-154h-422z" />
    <glyph glyph-name="uni028D" unicode="&#x28d;" horiz-adv-x="1712" 
d="M47 0v154h148l262 747q14 39 28.5 51.5t49.5 14.5h40q37 0 52.5 -12.5t29.5 -49.5l211 -600q25 129 185 600q14 37 29.5 49.5t54.5 12.5h34q37 0 52.5 -13.5t31.5 -58.5l261 -741h147v-154h-440v154h108l-119 348l-41 131l-26 96l-8 43q-8 -86 -193 -618h125v-154h-424
v154h111q-193 569 -203 618q-14 -84 -104.5 -337t-98.5 -281h125v-154h-428z" />
    <glyph glyph-name="uni028E" unicode="&#x28e;" horiz-adv-x="1253" 
d="M51 0v154h160l360 872q135 350 412 350q98 0 157.5 -52t59.5 -109.5t-28.5 -84t-69.5 -26.5t-72 26.5t-31 79.5v13q-113 0 -179 -54t-99 -168q-10 -25 -10 -33.5t12 -37.5l319 -776h160v-154h-450v154h102l-203 501l-39 117q-16 -66 -241 -618h102v-154h-422z" />
    </font>
</defs>
</svg>
