<?xml version="1.0" standalone="no"?>
<!DOCTYPE svg PUBLIC "-//W3C//DTD SVG 1.1//EN" "http://www.w3.org/Graphics/SVG/1.1/DTD/svg11.dtd" >
<svg xmlns="http://www.w3.org/2000/svg">
<metadata></metadata>
<defs>
<font id="cmu_concreteroman" horiz-adv-x="1024" >
<font-face units-per-em="2048" ascent="1638" descent="-410" />
<missing-glyph horiz-adv-x="681" />
<glyph unicode="i&#x300;" horiz-adv-x="579" d="M2 1292q0 27 20.5 50.5t49.5 23.5h6q14 0 43 -20.5t133 -104.5q82 -68 139 -113l-71 -94q-10 6 -254 176q-2 0 -10.5 6.5t-13.5 10.5t-14.5 11t-14.5 15.5t-9 18.5t-4 20zM61 0v121h170v608q0 49 -17 60.5t-114 11.5h-30v121l299 28v-829h153v-121h-461z" />
<glyph unicode="i&#x301;" horiz-adv-x="579" d="M150 1128q37 29 94 76q150 121 179.5 141.5t49.5 20.5q31 0 50.5 -23.5t19.5 -50.5q0 -12 -5 -24.5t-15.5 -21.5l-17.5 -15t-19 -14l-11 -7q-244 -170 -254 -176zM61 0v121h170v608q0 49 -17 60.5t-114 11.5h-30v121l299 28v-829h153v-121h-461z" />
<glyph unicode="i&#x302;" horiz-adv-x="579" d="M2 1108v2l297 266l297 -266v-2l-82 -84h-2l-213 215l-213 -215h-2zM59 0v121h170v608q0 49 -17 60.5t-114 11.5h-30v121l299 28v-829h153v-121h-461z" />
<glyph unicode="i&#x308;" horiz-adv-x="694" d="M49 1290q0 47 33 78t76 31q47 0 76.5 -32t29.5 -75t-29.5 -75.5t-76.5 -32.5t-78 31.5t-31 74.5zM117 0v121h170v608q0 49 -17.5 60.5t-113.5 11.5h-31v121l299 28v-829h154v-121h-461zM449 1290q0 43 30.5 76t75.5 33q43 0 76 -31t33 -78q0 -45 -33 -75.5t-74 -30.5 q-45 0 -76.5 32.5t-31.5 73.5z" />
<glyph unicode="A&#x328;" horiz-adv-x="1513" d="M70 0v121h174l422 1227q16 49 30.5 62t53.5 13h12q20 0 31.5 -2t23.5 -14t21 -35l430 -1251h174v-121h-101q-70 0 -106.5 -55.5t-36.5 -108.5q0 -47 23.5 -82t54.5 -35q18 0 40.5 18.5t35.5 18.5q20 0 47.5 -21.5t27.5 -39.5q0 -29 -53 -72t-123 -43q-82 0 -147.5 65.5 t-65.5 155.5q0 98 97 199h-174v121h151l-111 317h-522l-108 -317h149v-121h-450zM522 559h439l-220 635z" />
<glyph unicode="i&#x304;" horiz-adv-x="579" d="M-70 1296v125h738v-125h-738zM61 0v121h170v608q0 49 -17 60.5t-114 11.5h-30v121l299 28v-829h153v-121h-461z" />
<glyph unicode="i&#x306;" horiz-adv-x="579" d="M-45 1366h121q4 -72 46 -120t87 -63.5t90 -15.5q82 0 149.5 50.5t73.5 148.5h121q-2 -145 -105.5 -236.5t-238.5 -91.5t-237.5 91.5t-106.5 236.5zM61 0v121h170v608q0 49 -17 60.5t-114 11.5h-30v121l299 28v-829h153v-121h-461z" />
<glyph unicode="IJ" horiz-adv-x="1740" d="M90 0v121h191v1159h-191v119h537v-119h-191v-1159h191v-121h-537zM836 227q0 41 24.5 66.5t63.5 25.5q35 0 61.5 -23.5t26.5 -62.5q0 -35 -31 -69q66 -66 174 -66q51 0 90 17.5t57.5 45t26.5 46t12 37.5q6 37 7 73v963h-238v119h522v-119h-137v-967q0 -96 -31.5 -164.5 t-85 -104.5t-107.5 -51.5t-112 -15.5q-141 0 -232 74t-91 176z" />
<glyph unicode="ij" horiz-adv-x="1206" d="M88 0v121h170v608q0 49 -17.5 60.5t-113.5 11.5h-31v121l299 28v-829h154v-121h-461zM186 1315q0 43 31 75.5t76 32.5q43 0 75.5 -30.5t32.5 -77.5q0 -45 -32.5 -76t-73.5 -31q-45 0 -77 33t-32 74zM545 -268q0 35 25.5 58.5t58.5 23.5q35 0 57.5 -23.5t22.5 -66.5v-11 q6 0 19 -2t22 -2q133 0 133 209v832q-2 35 -25.5 43t-122.5 8h-39v121l324 28v-1028q0 -90 -29.5 -158.5t-78 -104.5t-95.5 -52.5t-92 -16.5q-74 0 -127 40.5t-53 101.5zM805 1315q0 47 32.5 77.5t75.5 30.5t75 -30.5t32 -77.5q0 -45 -33 -76t-74 -31q-43 0 -75.5 31 t-32.5 76z" />
<glyph unicode="j&#x302;" horiz-adv-x="636" d="M72 1110l297 266l297 -266l-82 -88l-215 217l-215 -217zM-51 -270q0 39 25.5 61.5t58.5 22.5q35 0 57.5 -23.5t22.5 -66.5v-11q8 0 24.5 -1t24.5 -1q139 2 139 215v824q-2 35 -26.5 43t-122.5 8h-39v121l325 28v-1024q0 -94 -32.5 -164.5t-84 -105.5t-97.5 -50.5 t-89 -15.5q-76 0 -131 39.5t-55 100.5z" />
<glyph unicode="i&#x30c;" horiz-adv-x="579" d="M18 1331l70 70l209 -213h2l209 213l67 -70l-276 -289h-2zM61 0v121h170v608q0 49 -17 60.5t-114 11.5h-30v121l299 28v-829h153v-121h-461z" />
<glyph unicode="j&#x30c;" horiz-adv-x="636" d="M88 1331l70 70l209 -213h2l209 213l67 -70l-276 -289h-2zM-51 -270q0 39 25.5 61.5t58.5 22.5q35 0 57.5 -23.5t22.5 -66.5v-11q8 0 24.5 -1t24.5 -1q139 2 139 215v824q-2 35 -26.5 43t-122.5 8h-39v121l325 28v-1024q0 -94 -32.5 -164.5t-84 -105.5t-97.5 -50.5 t-89 -15.5q-76 0 -131 39.5t-55 100.5z" />
<glyph unicode="&#x410;&#x301;" horiz-adv-x="1513" d="M70 0v121h174l422 1227q16 49 30.5 62t53.5 13h12q20 0 31.5 -2t23.5 -14t21 -35l430 -1251h174v-121h-481v121h151l-111 317h-522l-108 -317h149v-121h-450zM522 559h439l-220 635zM561 1597q328 160 350 164q31 0 50.5 -23.5t19.5 -49.5q0 -49 -84 -82 q-262 -111 -287 -119z" />
<glyph unicode="ff" horiz-adv-x="1193" d="M43 0v121h170v698h-160v119h160v164q0 92 49 159.5t131 103.5t168 52.5t178 16.5h6q96 0 142 -86q115 86 266 86q63 0 89 -42t26 -85q0 -37 -22.5 -59.5t-57.5 -22.5q-76 0 -80 88q-113 -2 -154 -59.5t-41 -155.5v-160h240v-119h-233v-698h213v-121h-521v121h170v698 h-432v-698h172v-121h-479zM346 938h436v123q0 100 11 141q-51 27 -52 76q0 18 2 29q-39 6 -79 6h-11q-307 0 -307 -221v-154z" />
<glyph unicode="fi" horiz-adv-x="1142" d="M43 0v121h170v698h-160v119h160v166q0 92 52 158.5t118 98.5t154 50.5t129 20.5t73 2h11q49 0 82.5 -21.5t48 -55.5t19.5 -58.5t5 -45.5q0 -49 -28.5 -70.5t-59.5 -21.5q-37 0 -61.5 24.5t-24.5 61.5q0 12 14 51q-43 14 -104 15q-84 0 -144.5 -20.5t-88 -44t-43 -61.5 t-17.5 -55.5t-2 -41.5v-152h266v14l308 11v-842h170v-121h-478v121h170v657q0 23 -7 32t-38 9h-387v-698h172v-121h-479z" />
<glyph unicode="fl" horiz-adv-x="1142" d="M43 0v121h170v698h-160v119h160v166q0 94 51 161.5t135 102.5t170 50.5t179 15.5q59 0 98 -27l74 16v-1302h170v-121h-478v121h170v698h-432v-698h172v-121h-479zM346 938h436v293q-41 33 -43 80q-27 2 -75 2q-172 0 -245 -56.5t-73 -162.5v-156z" />
<glyph unicode="ffi" horiz-adv-x="1712" d="M43 0v121h170v698h-160v119h160v172q0 145 141.5 234.5t393.5 89.5q102 0 143 -113q166 113 428 113q63 0 101 -39t46.5 -74t8.5 -68q0 -49 -28 -70.5t-58 -21.5q-37 0 -63 24.5t-26 61.5q0 18 13 51q-43 14 -103 15q-102 0 -169.5 -26.5t-91 -71t-30 -70t-6.5 -55.5 v-152h267v14l309 11v-842h170v-121h-479v121h172v657q0 23 -8.5 32t-38.5 9h-385v-698h170v-121h-478v121h170v698h-432v-698h172v-121h-479zM346 938h436v121l4 104q-59 29 -59 84q0 23 12 51q-43 14 -100 15q-227 0 -281 -133q-12 -29 -12 -88v-154z" />
<glyph unicode="ffl" horiz-adv-x="1712" d="M43 0v121h170v698h-160v119h160v158q0 86 43 151.5t102.5 99t139.5 55t136 27t109 5.5h2q113 0 148 -111q162 111 418 111q63 0 104 -27l74 16v-1302h170v-121h-479v121h172v698h-432v-698h170v-121h-478v121h170v698h-432v-698h172v-121h-479zM346 938h436v119 q0 104 15 143q-55 29 -56 80q0 16 2 27q-6 6 -92 6q-305 0 -305 -219v-156zM913 938h439v293q-41 33 -43 80q-23 2 -68 2h-24q-303 0 -304 -219v-156z" />
<glyph unicode="&#xd;" horiz-adv-x="681" />
<glyph unicode=" "  horiz-adv-x="681" />
<glyph unicode="&#x09;" horiz-adv-x="681" />
<glyph unicode="&#xa0;" horiz-adv-x="681" />
<glyph unicode="!" horiz-adv-x="569" d="M174 109q0 47 33 77.5t76 30.5t74.5 -30.5t31.5 -77.5q0 -45 -32.5 -76t-73.5 -31q-43 0 -76 31t-33 76zM174 1331q0 55 34 84t75 29q43 0 75.5 -30t32.5 -81q0 -2 -1 -8t-1 -8l-45 -866q-2 -41 -9 -51.5t-30 -10.5h-33h-16t-12 2t-9.5 3t-6.5 5t-4 6.5t-2 8.5t-1 9 t-1 11t-1 15l-43 845q0 6 -1 18.5t-1 18.5z" />
<glyph unicode="&#x22;" d="M256 1348q0 47 26.5 67.5t57.5 20.5q16 0 32.5 -5.5t33 -28t16.5 -56.5q0 -20 -10.5 -246t-12.5 -309h-120q-2 12 -12.5 276.5t-10.5 280.5zM600 1346q0 51 26.5 70.5t55.5 19.5q31 0 56.5 -19.5t25.5 -68.5q0 -16 -10.5 -280.5t-12.5 -276.5h-118q0 31 -6.5 167 t-11.5 258t-5 130z" />
<glyph unicode="#" horiz-adv-x="1705" d="M115 301q0 59 78 59h331l80 304h-409q-80 0 -80 59q0 61 84 61h436l149 564q14 74 68 73q25 0 41 -17.5t16 -41.5q0 -14 -24.5 -108.5t-64.5 -239t-60 -230.5h327l150 564q14 74 68 73q25 0 41 -17.5t16 -41.5q0 -14 -24.5 -108.5t-64.5 -239t-61 -230.5h291q86 0 86 -61 q0 -59 -76 -59h-333l-80 -304h409q80 0 80 -59q0 -61 -84 -61h-438l-149 -564q-14 -74 -66 -73q-25 0 -41 17.5t-16 41.5q0 14 24.5 110.5t64.5 244t58 223.5h-328l-149 -564q-14 -74 -66 -73q-25 0 -41 17.5t-16 41.5q0 14 25.5 110.5t64.5 243t60 224.5h-281q-96 0 -96 61 zM647 360h330l78 304h-328z" />
<glyph unicode="$" d="M113 383q0 53 26.5 72.5t57.5 19.5q33 0 56 -22.5t23 -57.5q0 -41 -36 -71q20 -92 71 -141.5t140 -69.5v563q-78 16 -111 33q-94 41 -160.5 132t-66.5 216q0 147 89 250.5t249 122.5v106h120v-104q106 -14 179 -59.5t104 -107t42 -107.5t11 -91q0 -51 -26.5 -71.5 t-55.5 -20.5q-31 0 -56.5 23.5t-25.5 58.5q0 33 37 69q-37 154 -209 183v-504q63 -14 105 -35q98 -45 165.5 -144.5t67.5 -230.5q0 -47 -10 -96t-41 -118.5t-104.5 -121t-182.5 -67.5v-105h-120v105q-166 18 -252 131t-86 260zM246 1075q0 -78 49 -144.5t156 -96.5v475 q-68 -14 -113 -46t-63.5 -71t-23.5 -64.5t-5 -52.5zM571 115q104 23 154.5 95.5t50.5 166.5q0 86 -48 160.5t-157 107.5v-530z" />
<glyph unicode="%" horiz-adv-x="1705" d="M113 1120q0 117 28.5 203t73.5 130t92 63.5t94 19.5q51 0 85 -14.5t81 -50t80 -54.5q158 -90 320 -90q221 0 354 160q2 4 8 10t8 9t7.5 8.5l7.5 7.5t6 5t7 4t7 2t8 1q35 0 41 -47q23 -16 23 -29q0 -33 -101 -119q-6 -6 -17 -14t-15 -12t-13.5 -15.5t-19.5 -27.5 l-905 -1342q-29 -39 -49 -39q-37 0 -37 39q0 8 16 41l854 1270q-92 -25 -180 -25q-145 0 -311 66q16 -86 16 -158q0 -215 -87 -313t-194 -98q-109 0 -198.5 98t-89.5 311zM246 1124q0 -176 53 -241q41 -51 102.5 -51.5t113.5 69.5t52 223q0 143 -50 217t-118 74 q-59 0 -102 -55q-51 -68 -51 -236zM1022 297q0 217 89 315.5t198 98.5q106 0 194 -97.5t88 -314.5t-87 -314.5t-193 -97.5q-109 0 -199 98.5t-90 311.5zM1155 299q0 -176 53 -242q39 -49 102.5 -49t115 68.5t51.5 222.5q0 143 -49.5 217t-116.5 74q-63 0 -105 -53 q-51 -68 -51 -238z" />
<glyph unicode="&#x26;" horiz-adv-x="1599" d="M84 309q0 115 80 207q23 27 239 219q-70 180 -69 355q0 166 86 260t194.5 94t173 -92t64.5 -209q0 -180 -291 -428q37 -80 107.5 -182.5t112.5 -155.5t63 -76q4 4 23.5 31.5t21.5 31t19.5 27t21.5 31.5t20.5 33.5t26.5 45t29.5 53.5t40 72t46 85t58.5 108h-205v119h541 v-119h-213q-211 -414 -356 -594q147 -127 270 -127q70 0 119 43t55 121h115q-4 -127 -87 -206t-202 -79q-186 0 -359 154h-2q-164 -154 -370 -154q-160 0 -266.5 97.5t-106.5 234.5zM240 328q0 -92 71.5 -161t180.5 -69q135 0 260 107v2q-184 203 -297 411 q-16 -14 -53 -45.5t-49.5 -43t-38 -36t-34 -39t-20.5 -37t-16 -43.5t-4 -46zM459 1124q0 -125 53 -293q225 201 225 314q0 59 -30.5 118.5t-94.5 59.5q-55 0 -104 -50.5t-49 -148.5z" />
<glyph unicode="'" horiz-adv-x="569" d="M201 1343q0 53 26.5 73t55.5 20q84 0 84 -90q0 -23 -10.5 -262.5t-12.5 -292.5h-121q-2 57 -12 291t-10 261z" />
<glyph unicode="(" horiz-adv-x="796" d="M166 512q0 328 98 581t273 412q33 31 67 31h31q41 0 41 -18q0 -8 -25.5 -35t-66.5 -74t-86 -113.5t-89 -178t-71 -245.5q-35 -180 -35 -356q0 -211 38 -389t93 -283.5t110.5 -179.5t93.5 -111.5t38 -46.5q0 -18 -51 -18h-23q-23 0 -42 12.5t-68 63.5q-326 348 -326 948z " />
<glyph unicode=")" horiz-adv-x="796" d="M119 -494q0 8 38 46t92 113t109.5 180.5t93 281.5t37.5 383q0 621 -327 954q-43 43 -43 57.5t57 14.5h12q25 0 43.5 -11.5t63.5 -56.5q332 -342 332 -956q0 -330 -97.5 -583t-273.5 -412q-31 -29 -68 -29h-30q-39 0 -39 18z" />
<glyph unicode="*" d="M133 868q0 6 1 12.5t4 11.5t5 9t9.5 10.5t12.5 9.5t15 10t18.5 11t24 13.5t25.5 15.5l164 94v2q-8 4 -24.5 14.5t-68 40t-126.5 72.5q-59 35 -60 72q0 27 19.5 46t42.5 19h4q18 0 88 -49q16 -10 59 -41q68 -47 113 -78q-12 285 -13 297q0 41 20.5 57.5t43.5 16.5 q25 0 45 -16.5t20 -57.5q0 -12 -12 -297q233 162 244 166q6 2 18 2q23 0 43.5 -20.5t20.5 -44.5q0 -12 -5 -22.5t-10.5 -17.5t-19.5 -16.5t-21.5 -14.5t-29 -16.5t-29.5 -17.5q-18 -10 -76.5 -44t-89.5 -50v-2l219 -125q2 0 10.5 -5t11.5 -7t11 -7.5t11 -10.5t8.5 -11 t7.5 -14t2 -17q0 -25 -20.5 -45t-43.5 -20h-2q-18 0 -88 49q-16 10 -59 41q-68 47 -113 78q12 -285 12 -297q0 -41 -21.5 -57.5t-43.5 -16.5q-12 0 -24.5 4t-26 21.5t-13.5 48.5q0 12 13 297q-47 -33 -115 -80q-94 -66 -113.5 -77t-35.5 -11q-23 0 -42.5 19t-19.5 46z" />
<glyph unicode="+" horiz-adv-x="1593" d="M115 512q0 61 78 61h542v533q0 86 60 86q61 0 61 -84v-535h535q84 0 84 -61q0 -41 -41 -55q-12 -4 -41 -4h-537v-535q0 -86 -61 -86q-59 0 -60 86v535h-545q-75 0 -75 59z" />
<glyph unicode="," horiz-adv-x="569" d="M174 109q0 45 31 75.5t78 30.5q72 0 101.5 -67.5t29.5 -159.5q0 -90 -32 -182.5t-69 -144.5t-57 -52q-14 0 -43 27.5t-29 44.5q0 8 27 45.5t54.5 109.5t27.5 164q-47 2 -76 23.5t-36 42t-7 43.5z" />
<glyph unicode="-" horiz-adv-x="681" d="M20 399v140h545v-140h-545z" />
<glyph unicode="." horiz-adv-x="569" d="M174 109q0 43 31 74.5t78 31.5q45 0 76.5 -32.5t31.5 -73.5q0 -43 -31.5 -76t-76.5 -33t-77 34t-32 75z" />
<glyph unicode="/" d="M115 -451q0 16 20 74l647 1850q23 61 66 61q25 0 42 -17.5t17 -41.5q0 -12 -16 -62l-647 -1843q-8 -27 -15.5 -41t-21.5 -26.5t-35 -12.5q-23 0 -40 17t-17 42z" />
<glyph unicode="0" d="M86 653q0 416 137 570q111 119 287 118q190 0 297 -131q127 -156 127 -551q0 -422 -141 -569q-106 -113 -283 -113q-190 0 -297 132q-127 155 -127 544zM240 672q0 -371 82 -479q68 -94 188 -95q125 0 192 101q78 113 78 477q0 106 -2 167.5t-20.5 147.5t-52.5 135 q-70 96 -195 97q-131 0 -199 -103q-33 -49 -50 -136t-19 -147.5t-2 -164.5z" />
<glyph unicode="1" d="M197 1090v120q94 2 162.5 22.5t97 45.5t54.5 44t46 19q33 0 41 -14t8 -49v-1157h256v-121h-655v121h256v1042q-112 -69 -266 -73z" />
<glyph unicode="2" d="M102 0v76q0 31 19.5 53.5t167.5 163.5q41 41 115.5 110.5t106.5 101.5t84 85t74.5 86t49 78t36 87t9.5 87q0 141 -105.5 218t-230.5 77q-143 0 -197 -181q45 -35 45 -77q0 -33 -26.5 -58.5t-61.5 -25.5q-16 0 -33.5 6t-35 29.5t-17.5 64.5q0 127 103.5 243.5t281.5 116.5 q186 0 310.5 -115.5t124.5 -293.5q0 -55 -16.5 -107.5t-36 -89.5t-66.5 -89t-75 -78.5t-93.5 -86t-93.5 -86.5l-265 -248h279l207 5l22 94l17 102h121l-58 -348h-762z" />
<glyph unicode="3" d="M84 301q0 51 28.5 72.5t59.5 21.5q35 0 61.5 -24.5t26.5 -63.5q0 -41 -39 -74q82 -141 289 -141q133 0 199.5 77t66.5 204q0 119 -57 190.5t-162 85.5q-25 4 -76 4h-90q-23 0 -32 2t-14 11.5t-5 31.5q0 61 8 68q8 8 36 10t68 4t66 8q90 20 149.5 96.5t59.5 166.5 q0 88 -56.5 135t-160.5 47q-152 0 -229 -90l6 -8q6 -6 11 -12.5t9 -19.5t4 -28q0 -37 -24.5 -60.5t-61.5 -23.5t-60.5 24.5t-23.5 65.5q0 111 105.5 185.5t267.5 74.5q166 0 265.5 -79.5t99.5 -210.5q0 -209 -213 -338q125 -33 197.5 -124t72.5 -220q0 -160 -109.5 -276 t-312.5 -116q-182 0 -306 94.5t-124 229.5z" />
<glyph unicode="4" d="M55 356v88q0 35 23 68l493 772q27 41 38.5 50t37.5 12h49q18 0 28.5 -3.5t19 -15.5t8.5 -35v-817h213v-119h-213v-235h198v-121h-538v121h198v235h-555zM197 475h424v717q-20 -59 -107.5 -206.5t-192 -311.5t-124.5 -199z" />
<glyph unicode="5" d="M102 299q0 47 28 68.5t56 21.5q37 0 60.5 -25.5t23.5 -58.5q0 -35 -34 -69q31 -63 96 -103.5t151 -40.5q119 0 201 72t82 246q0 307 -227 307h-2q-143 0 -230 -103q-16 -23 -27.5 -28.5t-37.5 -5.5q-43 0 -53.5 12t-10.5 51v643q0 51 23 51q8 0 48 -15t109.5 -30.5 t151.5 -15.5q86 0 154.5 15.5t106.5 30.5t48 15q23 0 23 -43v-30q0 -18 -4 -26.5t-33 -24t-90 -35.5q-127 -41 -258 -41q-80 0 -158 18v-395q115 78 240 78q172 0 276.5 -118t104.5 -310q0 -203 -123 -318t-314 -115q-174 0 -277.5 101.5t-103.5 220.5z" />
<glyph unicode="6" d="M92 649q0 158 35 282t90 198.5t128 125t140.5 68.5t137.5 18q137 0 200.5 -64.5t63.5 -141.5q0 -47 -26.5 -67.5t-57.5 -20.5q-33 0 -57.5 22.5t-24.5 56.5q0 31 27 64q-49 43 -123 43q-61 0 -121 -23.5t-118 -76t-96 -157t-40 -245.5q131 160 340 160q184 0 284 -182 q57 -104 58 -273q0 -180 -82 -293q-125 -166 -332 -166q-276 0 -379 299q-47 140 -47 373zM258 479q0 -96 19.5 -177t81 -145.5t159.5 -64.5q123 0 191 84q66 82 65 254v43q0 78 -19.5 140.5t-76.5 109.5t-150 47q-121 0 -195.5 -87t-74.5 -204z" />
<glyph unicode="7" d="M113 973l67 413h121v-28l12 -35l115 -2h565v-57q0 -33 -4 -44.5t-31 -45.5q-217 -297 -245 -343q-90 -139 -130 -320t-45.5 -325.5t-5.5 -148.5q-16 -57 -79 -57q-29 0 -53.5 20t-26.5 51q-2 12 -2 35q2 98 14 190.5t26.5 161t48.5 149.5t53 125t70.5 122.5t73 108.5 t85 116t81.5 112h-436l-115 -4q-8 -23 -39 -194h-120z" />
<glyph unicode="8" d="M84 334q0 248 278 383q-2 2 -29.5 19.5t-40.5 26.5t-41 30.5t-42 43t-32.5 50t-27 63.5t-8.5 74q0 143 100.5 230t268.5 87q170 0 269.5 -82.5t99.5 -222.5q0 -68 -22.5 -123t-67 -96t-71 -59.5t-69.5 -42.5q4 -2 42 -25.5t49.5 -32t45 -33t48 -41t39 -46t35 -56 t19.5 -62.5t9 -75q0 -166 -115.5 -266.5t-310.5 -100.5q-197 0 -311.5 97.5t-114.5 259.5zM221 336q0 -119 82 -181.5t207 -62.5q135 0 211 61.5t76 168.5q0 33 -11.5 64.5t-22.5 49t-37 40t-31 25.5t-29 19q-33 20 -70 45t-52.5 35t-31.5 19.5t-23.5 12.5t-15.5 3 t-32.5 -10.5t-62.5 -34t-73 -56t-59.5 -86t-24.5 -112.5zM266 1051q0 -18 5 -36t10.5 -31t20.5 -29.5t24.5 -25.5t34 -27.5t39 -27t48 -30t52.5 -33.5q29 -18 41 -18q14 0 60 22.5t99.5 81.5t53.5 137q0 96 -70 147.5t-174 51.5q-102 0 -173 -45t-71 -137z" />
<glyph unicode="9" d="M92 883q0 178 74 282q123 176 350 176q205 0 309 -167q106 -170 107 -500q0 -197 -49 -340.5t-129 -217t-162 -106.5t-168 -33q-152 0 -219.5 63.5t-67.5 143.5q0 47 28 68.5t56 21.5q33 0 56.5 -22.5t23.5 -58.5q0 -27 -22 -60q57 -41 143 -41q125 0 207 80t111.5 185.5 t31.5 232.5q-133 -160 -340 -160q-178 0 -280 176q-60 103 -60 277zM248 848q0 -123 56 -210t190 -87q125 0 198.5 89t73.5 206q0 158 -58.5 272.5t-191.5 114.5t-201 -86q-43 -53 -55 -110.5t-12 -147.5v-41z" />
<glyph unicode=":" horiz-adv-x="569" d="M174 109q0 43 31 74.5t78 31.5q45 0 76.5 -32.5t31.5 -73.5q0 -43 -31.5 -76t-76.5 -33t-77 34t-32 75zM174 830q0 43 31 74.5t78 31.5q45 0 76.5 -32.5t31.5 -73.5q0 -43 -31.5 -76t-76.5 -33t-77 34t-32 75z" />
<glyph unicode=";" horiz-adv-x="569" d="M174 830q0 43 31 74.5t78 31.5q45 0 76.5 -32.5t31.5 -73.5q0 -43 -31.5 -76t-76.5 -33t-77 34t-32 75zM174 109q0 45 31 75.5t78 30.5q72 0 101.5 -67.5t29.5 -159.5q0 -90 -32 -182.5t-69 -144.5t-57 -52q-14 0 -43 27.5t-29 44.5q0 8 27 45.5t54.5 109.5t27.5 164 q-47 2 -76 23.5t-36 42t-7 43.5z" />
<glyph unicode="&#x3c;" horiz-adv-x="1593" d="M172 512q0 8 2 15.5t6 12.5t9.5 11t9.5 10t12 8t11 6.5t11 6.5l7 2l1044 542q61 31 78 31q25 0 41 -17.5t16 -41.5q0 -8 -2 -15.5t-5 -12.5t-9 -11t-10 -9t-12.5 -8.5t-11.5 -7.5t-11 -6t-10 -4l-836 -434q-82 -45 -152 -78q25 -12 152 -78l836 -434q72 -33 71 -74 q0 -25 -16.5 -42t-40.5 -17q-16 0 -78 31l-1044 542q-2 0 -7.5 3t-8.5 4.5t-9 5.5t-10 7t-10.5 7t-9.5 9t-6 10.5t-5 12.5t-2 13z" />
<glyph unicode="=" horiz-adv-x="1593" d="M115 301q0 59 75 59h1209q76 0 76 -61q-2 -59 -80 -59h-1198q-82 0 -82 61zM115 723q0 61 82 61h1198q80 0 80 -61q-2 -59 -78 -59h-1204q-78 0 -78 59z" />
<glyph unicode="&#x3e;" horiz-adv-x="1593" d="M172 -74q0 41 72 74l835 434q127 66 152 78q-25 12 -152 78l-835 434q-72 33 -72 74q0 25 16.5 42t40.5 17q16 0 78 -31l1045 -542q2 0 7 -3t8 -4.5t9 -5.5l10.5 -7l10.5 -7t9 -9t6 -10.5t5 -12.5t2 -13q0 -8 -2 -15.5t-6 -12.5t-9 -11t-9 -10t-12.5 -8t-11.5 -6.5 t-9 -6.5l-8 -2l-1080 -561q-25 -12 -43 -12q-25 0 -41 17t-16 42z" />
<glyph unicode="?" horiz-adv-x="966" d="M113 1139q0 104 92 199.5t256 95.5q119 0 201.5 -29t120.5 -79t53.5 -96t15.5 -100q0 -102 -57 -178q-4 -6 -86 -77.5t-137.5 -162.5t-57.5 -210v-72q0 -27 -8 -34t-41 -7h-27q-31 0 -38 9.5t-7 35.5v23q0 88 10 149q37 219 203 363q2 2 16.5 14t18.5 16.5t16.5 17.5 t16.5 22.5t11 24.5t9 32.5t2 38.5q0 98 -57 139t-172 41q-156 0 -219 -117q29 -29 28.5 -65.5t-24 -59t-55.5 -22.5q-31 0 -57.5 20.5t-26.5 67.5zM346 109q0 47 33 77.5t76 30.5t74.5 -30.5t31.5 -77.5q0 -45 -32.5 -76t-73.5 -31q-43 0 -76 31t-33 76z" />
<glyph unicode="@" horiz-adv-x="1593" d="M113 713q0 326 187 523.5t495 197.5q305 0 493.5 -197t188.5 -530q0 -193 -61.5 -323t-190.5 -130q-104 0 -146 119q-119 -119 -284 -119q-180 0 -295 123t-115 336q0 209 113.5 331.5t294.5 122.5q215 0 323 -166q14 -23 31.5 -30.5t29 -5.5t19.5 -5.5t8 -31.5v-457 q0 -94 53 -94q106 0 107 278q0 8 -1 22.5t-1 16.5q0 141 -37 253t-95.5 178.5t-136 110.5t-150.5 60.5t-148 16.5q-254 0 -411 -163t-157 -439q0 -268 154 -435t424 -167q147 0 270 22.5t199 45t108 22.5h43q47 0 48 -17q0 -14 -35 -32q-295 -160 -633 -160 q-328 0 -510 200.5t-182 522.5zM522 713q0 -172 82 -255t193 -83q113 0 192.5 76.5t79.5 195.5v125q0 123 -81 200t-191 77q-125 0 -200 -91t-75 -245z" />
<glyph unicode="A" horiz-adv-x="1513" d="M70 0v121h174l422 1227q16 49 30.5 62t53.5 13h12q20 0 31.5 -2t23.5 -14t21 -35l430 -1251h174v-121h-481v121h151l-111 317h-522l-108 -317h149v-121h-450zM522 559h439l-220 635z" />
<glyph unicode="B" horiz-adv-x="1439" d="M102 0v121h183v1159h-183v119h689q139 0 239 -36t148.5 -94.5t68 -112.5t19.5 -109q0 -229 -289 -316q152 -20 249 -113.5t97 -238.5q0 -156 -106.5 -257.5t-280.5 -117.5q-35 -4 -105 -4h-729zM428 121h363q209 0 292.5 80t83.5 184q0 41 -12 82t-45 90t-108.5 80 t-184.5 31h-389v-547zM428 788h305q2 0 8.5 -1t10.5 -1q188 0 276 79t88 179q0 92 -72.5 164t-255.5 72h-360v-492z" />
<glyph unicode="C" horiz-adv-x="1478" d="M113 698q0 340 195.5 531.5t488.5 191.5q238 0 417 -186q18 35 43 84q37 74 47.5 87t28.5 13h4q27 0 27 -43v-452q0 -31 -11.5 -38t-60.5 -7q-27 0 -37 5t-14 27q-27 162 -128 275.5t-265 113.5q-102 0 -195.5 -28.5t-182.5 -92t-143.5 -187.5t-54.5 -294 q0 -172 55.5 -295.5t146.5 -186t184.5 -90.5t195.5 -28q162 0 267.5 101.5t119.5 242.5q2 37 10.5 45.5t40.5 8.5h27q45 0 45 -37q0 -102 -60.5 -210t-194.5 -190t-310 -82q-305 0 -495.5 197.5t-190.5 523.5z" />
<glyph unicode="D" horiz-adv-x="1552" d="M100 0v121h183v1159h-183v119h672q154 0 273.5 -45t191.5 -116t119 -167t64.5 -189.5t17.5 -195.5q0 -61 -9.5 -124.5t-37 -161t-98 -185.5t-177.5 -143q-137 -72 -346 -72h-670zM430 121h315q154 0 263.5 47t167 131t82 178t24.5 211q0 94 -14.5 175t-51 160t-96 134 t-155 89t-220.5 34h-315v-1159z" />
<glyph unicode="E" horiz-adv-x="1382" d="M98 0v121h183v1153h-183v119h1112l58 -519h-121q-29 262 -47 330q-10 33 -29.5 45.5t-90.5 18.5t-243 6h-303v-490h158q182 0 205 17q16 14 20 69q4 90 4 134v20h119v-600h-119v20q0 43 -4 134q-4 57 -20 69q-23 16 -203 17h-160v-543h328q225 0 295 12q49 8 65 37 q25 43 74 356q2 23 8 58h121l-86 -584h-1141z" />
<glyph unicode="F" horiz-adv-x="1325" d="M98 0v121h183v1153h-183v119h1084l55 -519h-119q-16 152 -25.5 219.5t-23.5 109.5t-25.5 48t-39.5 11h-3q-84 12 -278 12h-289v-516h191q127 0 151.5 11t28.5 73q4 86 4 133v20h119v-598h-119v23q0 45 -4 131q0 4 -2 14q-4 49 -25 60q-25 12 -203 12h-141v-516h228v-121 h-564z" />
<glyph unicode="G" horiz-adv-x="1601" d="M113 698q0 340 196.5 531.5t487.5 191.5q242 0 417 -186q18 35 43 84q37 74 47.5 87t28.5 13h4q27 0 27 -43v-452q0 -31 -10.5 -38t-50.5 -7q-27 0 -38.5 2t-17.5 11t-6 21.5t-6 42t-18 62.5q-37 104 -128.5 193t-236.5 89q-80 0 -155.5 -15t-154.5 -58t-137.5 -108.5 t-95.5 -174t-37 -248.5q0 -283 156 -440.5t436 -157.5q264 0 326 99q18 33 18 92v188h-256v119h553v-119h-141v-438q0 -33 -16 -33q-29 0 -88 92q-152 -121 -449 -121q-326 0 -512 201t-186 520z" />
<glyph unicode="H" horiz-adv-x="1513" d="M98 0v121h183v1159h-183v119h520v-119h-182v-492h641v492h-182v119h518v-119h-182v-1159h182v-121h-518v121h182v547h-641v-547h182v-121h-520z" />
<glyph unicode="I" horiz-adv-x="716" d="M90 0v121h191v1159h-191v119h537v-119h-191v-1159h191v-121h-537z" />
<glyph unicode="J" horiz-adv-x="1040" d="M135 227q0 45 26.5 68.5t63.5 23.5q33 0 59.5 -24.5t26.5 -61.5q0 -35 -30 -69q66 -66 174 -66q51 0 89 17.5t57.5 46t27.5 47t12 37.5q6 37 6 71v963h-237v119h522v-119h-137v-967q0 -96 -32 -164.5t-85 -104.5t-107.5 -51.5t-111.5 -15.5q-139 0 -231.5 74t-92.5 176z " />
<glyph unicode="K" horiz-adv-x="1570" d="M102 0v121h183v1159h-183v119h512v-119h-182v-662l674 662h-115v119h463v-119h-151q-27 0 -38.5 -7t-43.5 -40l-406 -397l483 -686q20 -27 50 -29h137v-121h-438v121h112l-438 620q-279 -274 -283 -280q0 -2 -2 -6q-4 -12 -4 -41v-293h182v-121h-512z" />
<glyph unicode="L" horiz-adv-x="1267" d="M98 0v121h183v1159h-183v119h564v-119h-228v-1159h262q205 4 253 16.5t63 67.5q20 78 49 379h121l-58 -584h-1026z" />
<glyph unicode="M" horiz-adv-x="1855" d="M111 0v121h182v1159h-182v119h311q33 0 48 -10.5t28 -42.5l428 -1176q12 39 41 117l387 1059q12 33 27.5 43t48.5 10h311v-119h-182v-1159h182v-121h-494v121h183v983l-3 145q-8 -25 -24.5 -69.5t-20.5 -57.5l-391 -1069q-10 -31 -24.5 -41t-44.5 -12q-39 0 -53.5 12.5 t-32.5 61.5l-424 1159v-1112h182v-121h-483z" />
<glyph unicode="N" horiz-adv-x="1513" d="M102 0v121h183v1159h-183v119h277q43 0 67 -39l662 -1073v993h-182v119h485v-119h-182v-1214q0 -23 -1 -33t-13.5 -21.5t-38.5 -11.5h-13q-29 0 -41 8t-26 33l-690 1122v-1042h182v-121h-486z" />
<glyph unicode="O" horiz-adv-x="1593" d="M113 692q0 334 187 531.5t497 197.5q305 0 492.5 -197.5t187.5 -527.5q0 -332 -189.5 -525.5t-494.5 -193.5q-307 0 -493.5 195.5t-186.5 519.5zM272 725q0 -176 49.5 -303t132.5 -192.5t167 -94.5t174 -29q72 0 139 16.5t139 60.5t124 110.5t86 178.5t34 253 q0 160 -48 276.5t-128 178t-165 89t-179.5 27.5t-179.5 -27.5t-166.5 -88t-130 -178t-48.5 -277.5z" />
<glyph unicode="P" horiz-adv-x="1382" d="M100 0v121h183v1159h-183v119h674q231 0 362.5 -114t131.5 -296q0 -68 -22.5 -133t-75 -131t-157 -105.5t-249.5 -39.5h-328v-459h182v-121h-518zM430 700h272q131 0 220.5 24t140.5 101q43 68 43 166q0 164 -121 236q-88 53 -278 53h-277v-580z" />
<glyph unicode="Q" horiz-adv-x="1593" d="M113 694q0 332 187 529.5t495 197.5q297 0 489.5 -192.5t192.5 -532.5q0 -92 -17.5 -181t-60.5 -187.5t-132 -180t-214 -127.5q14 -53 19 -74.5t22.5 -65.5t35 -63.5t47 -37t66.5 -17.5q68 0 120 55.5t62 153.5q0 57 31 58q12 0 22.5 -12.5t10.5 -32.5 q0 -55 -12.5 -114.5t-38 -123t-78.5 -103.5t-125 -40q-31 0 -56.5 7t-45 16t-38 29.5t-30.5 34t-24.5 45.5t-18.5 47t-15.5 54t-12.5 52.5t-11 56.5t-10 53q-106 -20 -178 -21q-303 0 -492.5 193.5t-189.5 523.5zM266 692q0 -426 328 -555v21q0 82 62.5 132t140.5 50 q152 0 219 -195q307 135 307 543q0 143 -36 255t-90 176.5t-127 106.5t-139.5 56t-135.5 14q-94 0 -181.5 -28.5t-168 -93t-130 -188.5t-49.5 -294zM715 160q0 -20 20.5 -39t65.5 -19q53 0 135 17q-47 100 -137 100q-37 0 -60.5 -17t-23.5 -42z" />
<glyph unicode="R" horiz-adv-x="1497" d="M100 0v121h183v1159h-183v119h572q133 0 235.5 -25.5t162.5 -64.5t99 -91.5t53.5 -100.5t14.5 -97q0 -104 -61.5 -192.5t-184.5 -139.5q35 -20 60.5 -43.5t43 -42t30 -46.5t18.5 -44t10 -52t5 -52.5t2 -62.5t1 -64q2 -119 64 -162q31 -20 59 -21q68 0 82 80l5 22.5 t7 14.5t17.5 12t29.5 2q16 0 23.5 -1t19 -4t15.5 -12t4 -26q0 -70 -51.5 -139.5t-147.5 -69.5q-47 0 -92 12.5t-91 43t-75 94t-29 154.5v129q0 68 -20 102q-76 127 -305 127h-246v-518h182v-121h-512zM430 760h232q297 0 378 129q37 57 37 131q0 147 -135 213 q-96 47 -283 47h-229v-520z" />
<glyph unicode="S" horiz-adv-x="1138" d="M113 18v406q0 25 8 32t33 9h28q39 0 47 -16l4 -52q6 -51 35 -111.5t86 -105.5q106 -82 262 -82q143 0 206 82t63 178q0 82 -41 145.5t-105 94.5q-33 16 -196.5 56t-200.5 57q-96 43 -162.5 132t-66.5 208q0 164 108.5 267t288.5 103q209 0 338 -147q55 131 65 141 q8 6 23 6q29 0 29 -43v-405q-2 -27 -10.5 -33t-30.5 -6h-19q-49 0 -57 14q-2 2 -9.5 46t-25.5 92.5t-51 100.5t-98.5 86t-153.5 34q-127 0 -192.5 -71t-65.5 -165q0 -139 135 -211q37 -18 199 -57t205 -58q100 -45 165.5 -143t65.5 -227q0 -166 -103.5 -282t-300.5 -116 q-236 0 -389 148q-41 -102 -54 -123.5t-32 -21.5q-30 -1 -30 38z" />
<glyph unicode="T" horiz-adv-x="1478" d="M72 870l41 519h1249l41 -519h-121q-25 283 -33 332q-6 29 -22.5 41t-65.5 18.5t-160 6.5h-186v-1147h256v-121h-668v121h256v1147h-186q-111 0 -160 -6.5t-65.5 -18.5t-22.5 -41q-8 -49 -32 -332h-121z" />
<glyph unicode="U" horiz-adv-x="1513" d="M98 1280v119h520v-119h-182v-788q0 -219 103 -314q86 -80 227 -80q152 0 249 90.5t97 300.5v791h-184v119h485v-119h-182v-782q0 -147 -43 -255t-116 -162t-148.5 -79t-159.5 -25t-162 24t-153.5 78t-121.5 160.5t-46 254.5v786h-183z" />
<glyph unicode="V" horiz-adv-x="1513" d="M41 1280v119h473v-119h-145l401 -1083l404 1083h-148v119h444v-119h-167l-463 -1243q-14 -33 -28.5 -43t-49.5 -10h-14q-39 0 -53.5 14t-32.5 63l-453 1219h-168z" />
<glyph unicode="W" horiz-adv-x="2082" d="M39 1280v119h455v-119h-154q289 -956 324 -1075l32 117l271 895l10 40v23h-154v119h455v-119h-154l265 -872l57 -203l43 149l280 926h-172v119h445v-119h-154l-379 -1243q-10 -33 -25.5 -43t-49.5 -10h-9q-37 0 -50 13t-25 58l-287 936q-4 12 -15.5 52t-19.5 63 q-16 -88 -88 -344l-158 -537q-63 -205 -71 -217q-18 -25 -60 -24h-10q-12 0 -22.5 2t-17.5 7t-12 9t-9.5 13.5t-5.5 14.5t-5 17t-6 19l-370 1214h-154z" />
<glyph unicode="X" horiz-adv-x="1513" d="M55 0v121h197l410 610l-349 496q-33 47 -45 51q-6 2 -22 2h-160v119h479v-119h-112l292 -422h3l282 422h-121v119h461v-119h-164q-23 0 -32 -8t-33 -43l-320 -477l443 -631h192v-121h-481v121h112l-352 504l-340 -504h121v-121h-461z" />
<glyph unicode="Y" horiz-adv-x="1513" d="M31 1280v119h483v-119h-119l377 -588l377 588h-119v119h451v-119h-189l-440 -686q-23 -37 -23 -74v-399h183v-121h-512v121h182v399q0 37 -23 74l-440 686h-188z" />
<glyph unicode="Z" horiz-adv-x="1251" d="M113 61q0 10 1 19.5t3 15.5t9 16.5t12 18.5t19.5 28.5t26.5 37.5l748 1083h-273q-182 0 -250.5 -10t-93 -38t-34.5 -104q-8 -59 -19 -247h-121l23 518h915q33 0 45.5 -10.5t12.5 -45.5q0 -10 -1 -16t-4.5 -15t-5.5 -14.5t-9 -16.5t-12 -18.5t-18.5 -25.5t-21.5 -31 l-748 -1081h293q268 6 312 18q53 14 67 72q4 20 12 80q12 100 25 309h121l-35 -604h-938q-23 0 -34 3t-19 16t-8 42z" />
<glyph unicode="[" horiz-adv-x="569" d="M213 -512v2048h309v-121h-172v-1806h172v-121h-309z" />
<glyph unicode="\" d="M115 1475q0 25 17.5 42t41.5 17q20 0 35.5 -15.5t19.5 -24.5t15 -38l651 -1857q12 -33 12 -52q0 -25 -18.5 -41t-41 -16t-39.5 20.5t-20.5 29.5t-13.5 40l-641 1825q-18 52 -18 70z" />
<glyph unicode="]" horiz-adv-x="569" d="M43 -391h172v1806h-172v121h309v-2048h-309v121z" />
<glyph unicode="^" horiz-adv-x="1251" d="M225 1065l400 235l399 -235l-61 -104l-338 204l-338 -204z" />
<glyph unicode="_" horiz-adv-x="1593" d="M172 -498q0 41 61 41h1123q61 0 61 -41t-57 -41h-1129q-59 0 -59 41z" />
<glyph unicode="`" d="M211 1292q0 27 20.5 50.5t49.5 23.5q20 0 43.5 -16.5t148.5 -116.5q78 -63 131 -105l-72 -94q-10 6 -253 176q-25 18 -31 23.5t-18.5 17t-15.5 20.5t-3 21z" />
<glyph unicode="a" horiz-adv-x="1001" d="M92 266q0 55 23.5 106.5t82 102.5t178.5 83t290 34v47l2 4v8q0 184 -234 185q-47 0 -115 -7q2 -51 -23.5 -73.5t-57.5 -22.5q-39 0 -60.5 24.5t-21.5 59.5q0 137 288 137q168 0 267.5 -78.5t99.5 -224.5q0 -2 -1 -5t-1 -5v-426q0 -33 4 -47q10 -37 85 -45t77 -10 q18 -10 18 -58q0 -33 -13 -44t-46 -11h-37q-178 2 -211 109q-152 -121 -362 -121q-111 0 -171.5 86t-60.5 192zM236 270q0 -70 57 -115.5t137 -45.5q37 0 74 8t75.5 28.5t63.5 62.5t25 101q0 6 -1 15.5t-1 13.5v149q-223 -8 -328 -67q-102 -56 -102 -150z" />
<glyph unicode="b" horiz-adv-x="1148" d="M49 1274v119l307 30v-585q156 111 367 110q168 0 258 -133t90 -342q0 -133 -36 -231.5t-96 -150.5t-124.5 -76.5t-132.5 -24.5q-184 0 -332 133l-10 -123h-121v1217q0 37 -19.5 47t-111.5 10h-39zM362 326q0 -61 72 -139t182 -78q49 0 93.5 12t94.5 46t80.5 110.5 t30.5 189.5q0 362 -280 362q-98 0 -185.5 -54t-87.5 -136v-313z" />
<glyph unicode="c" horiz-adv-x="909" d="M76 467q0 86 20.5 165t68.5 154.5t142 121.5t223 46q55 0 93.5 -3t92.5 -14t83.5 -42t29.5 -78q0 -37 -22.5 -60.5t-58.5 -23.5q-80 0 -84 90q-66 6 -113 6q-154 0 -227 -73q-94 -94 -95 -279q0 -102 32 -178t84 -114t104.5 -54t109.5 -16q66 0 104.5 34.5t56 76.5 t23.5 46q8 8 58 9q47 0 47 -27q0 -16 -17.5 -54t-52.5 -88.5t-106.5 -86t-161.5 -35.5q-193 0 -313.5 129t-120.5 348z" />
<glyph unicode="d" horiz-adv-x="1148" d="M76 467q0 217 98 350t276.5 133t337.5 -108v377q-2 39 -25.5 47t-119.5 8h-25v119l308 30v-1243q0 -37 19.5 -48t107.5 -11h45v-121l-316 -10v129q-158 -129 -344 -129q-164 0 -263 129t-99 348zM229 467q0 -109 27 -185.5t73 -111.5t89 -48t92 -13q109 0 190.5 74.5 t81.5 158.5v283q0 2 1 8t1 8q0 78 -78.5 133t-175.5 55q-53 0 -99 -13t-95 -49t-78 -112.5t-29 -187.5z" />
<glyph unicode="e" horiz-adv-x="909" d="M63 477q0 215 116 346t304 131q104 0 180 -37.5t115 -101t55.5 -131.5t16.5 -141q0 -33 -14.5 -42t-40.5 -9h-578q0 -109 29.5 -186t81 -116.5t108 -57t121.5 -17.5q119 0 168 135q12 27 22.5 35t40.5 8h9q51 0 51 -37q0 -70 -97.5 -168t-244.5 -98q-188 0 -315.5 128 t-127.5 359zM229 604h498q-33 231 -242 231t-256 -231z" />
<glyph unicode="f" horiz-adv-x="626" d="M55 0v121h170v698h-159v119h159v162q0 80 28 142.5t68.5 97t94 57t97.5 30t87 7.5q59 0 85 -41t26 -84q0 -35 -22.5 -59.5t-57.5 -24.5q-29 0 -53.5 19.5t-26.5 68.5q-111 -2 -152 -59.5t-41 -155.5v-160h240v-119h-236v-698h216v-121h-523z" />
<glyph unicode="g" d="M55 -133q0 51 28 114.5t103 104.5q-49 78 -49 150q0 86 53 161q-61 96 -61 213q0 152 89 246t235 94q104 0 200 -61q100 72 209 72q55 0 92 -30t37 -73q0 -31 -20.5 -51.5t-48.5 -20.5q-49 0 -70 54l-64 -9l-65 -16q55 -98 55 -203q0 -152 -90 -245t-235 -93 q-102 0 -191 54q-18 -45 -18 -72q0 -41 23.5 -73.5t64.5 -37.5q14 -2 43 -2h149q80 0 137.5 -6t122 -23.5t107.5 -59.5t61 -105q12 -39 13 -82q0 -109 -106.5 -193t-344.5 -84q-248 0 -353.5 85.5t-105.5 191.5zM186 -129q0 -66 73 -116t255 -50q170 0 245 49t75 111 q0 147 -318 147h-154q-104 0 -140 -44t-36 -97zM266 614q0 -225 186.5 -225t186.5 221q0 225 -184 226q-189 -1 -189 -222z" />
<glyph unicode="h" horiz-adv-x="1148" d="M57 0v121h170v1098q0 37 -20.5 46t-110.5 9h-39v119l308 30v-516l2 -88q121 131 295 131q92 0 152 -26.5t86 -76.5t33 -92t7 -106v-528h170v-121h-483v121h170v522q0 39 -5.5 64.5t-22.5 57.5t-60 48t-113 16q-102 0 -163.5 -73.5t-61.5 -196.5v-438h170v-121h-484z" />
<glyph unicode="i" horiz-adv-x="579" d="M158 1315q0 47 32.5 77.5t75.5 30.5t75 -30.5t32 -77.5q0 -45 -33 -76t-74 -31q-43 0 -75.5 31t-32.5 76zM61 0v121h170v608q0 49 -17 60.5t-114 11.5h-30v121l299 28v-829h153v-121h-461z" />
<glyph unicode="j" horiz-adv-x="636" d="M221 1315q0 47 32.5 77.5t75.5 30.5t75 -30.5t32 -77.5q0 -45 -33 -76t-74 -31q-43 0 -75.5 31t-32.5 76zM-51 -270q0 39 25.5 61.5t58.5 22.5q35 0 57.5 -23.5t22.5 -66.5v-11q8 0 24.5 -1t24.5 -1q139 2 139 215v824q-2 35 -26.5 43t-122.5 8h-39v121l325 28v-1024 q0 -94 -32.5 -164.5t-84 -105.5t-97.5 -50.5t-89 -15.5q-76 0 -131 39.5t-55 100.5z" />
<glyph unicode="k" horiz-adv-x="1091" d="M53 0v121h170v1098q0 37 -20.5 46t-110.5 9h-39v119l301 30v-911l314 307h-133v119h477v-119h-148q-25 0 -39 -11t-100 -95q-37 -35 -59 -58l-80 -75v-5l313 -454h158v-121h-406v121h103l-254 371q-29 -29 -74 -72q-57 -57 -67.5 -70.5t-10.5 -38.5v-2v-188h170v-121 h-465z" />
<glyph unicode="l" horiz-adv-x="579" d="M61 0v121h170v1098q0 37 -21.5 46t-109.5 9h-39v119l308 30v-1302h172v-121h-480z" />
<glyph unicode="m" horiz-adv-x="1718" d="M57 0v121h170v622q0 37 -21.5 47.5t-117.5 10.5h-31v121l303 28v-137q119 137 302 137q207 0 260 -147q82 88 159 119q70 29 152 28q76 0 129 -19.5t82 -47t44 -71.5t19 -79t4 -84v-528h170v-121h-485v121h172v522q0 39 -5 64.5t-22.5 57.5t-61.5 48t-114 16 q-102 0 -163.5 -73.5t-61.5 -196.5v-438h172v-121h-485v121h170v522q0 39 -5.5 64.5t-22.5 57.5t-60 48t-113 16q-102 0 -163.5 -73.5t-61.5 -196.5v-438h170v-121h-484z" />
<glyph unicode="n" horiz-adv-x="1148" d="M57 0v121h170v622q0 37 -21.5 47.5t-117.5 10.5h-31v121l303 28v-137q119 137 299 137q94 0 154.5 -26.5t86.5 -76.5t33 -92t7 -106v-528h170v-121h-483v121h170v522q0 39 -5.5 64.5t-22.5 57.5t-60 48t-113 16q-102 0 -163.5 -73.5t-61.5 -196.5v-438h170v-121h-484z " />
<glyph unicode="o" d="M63 465q0 223 122 356t325 133q199 0 322.5 -133t123.5 -354t-123.5 -349t-322.5 -128t-323 128t-124 347zM217 489q0 -375 293 -374q291 0 291 372q0 348 -291 349q-293 -1 -293 -347z" />
<glyph unicode="p" horiz-adv-x="1148" d="M49 -279h170v1027q-2 35 -23.5 44t-109.5 9h-37v121l307 28v-114q158 113 375 112q164 0 252 -132t88 -343q0 -250 -116.5 -366.5t-272.5 -116.5q-178 0 -320 123v-392h170v-120h-483v120zM362 334q0 -76 74 -150.5t180 -74.5q121 0 210 91t89 269q0 180 -82.5 267 t-199.5 87q-96 0 -183.5 -54t-87.5 -132v-303z" />
<glyph unicode="q" horiz-adv-x="1091" d="M76 465q0 131 34.5 230.5t93 151.5t122 77.5t131.5 25.5q190 0 344 -139l12 139h113v-1229h172v-120h-486v120h170v412q-152 -143 -338 -143q-164 0 -266 128t-102 347zM231 469q0 -172 80 -266t199 -94q117 0 197.5 92t80.5 186v197q0 80 -72.5 159.5t-185.5 79.5 q-117 0 -208 -87t-91 -267z" />
<glyph unicode="r" horiz-adv-x="802" d="M49 0v121h170v622q0 37 -21.5 47.5t-117.5 10.5h-31v121l297 28v-143q106 141 250 141q63 0 105 -33.5t42 -85.5q0 -35 -23.5 -57t-55.5 -22q-27 0 -52.5 18t-27.5 61q-106 -18 -168 -112q-59 -92 -60 -250v-346h215v-121h-522z" />
<glyph unicode="s" horiz-adv-x="806" d="M68 43v285q0 25 9 34t44 9q25 0 37 -1t20 -9.5t10 -13.5t7.5 -27.5t11.5 -38.5q53 -172 203 -172q111 0 153.5 47t42.5 106q0 25 -8 47.5t-20.5 37.5t-31 28.5t-34.5 20.5t-37.5 13.5t-34 9.5t-28.5 7l-17 2q-2 0 -20.5 3t-35.5 7t-45 12.5t-51.5 18.5t-50 24.5t-48 35 t-40 44t-27.5 56.5t-9 69q0 45 13 85t46 81t101.5 65.5t164.5 24.5q117 0 199 -63q4 6 9 14t8 12.5t8.5 10.5t7.5 9t7 7t8 6t8 3t9 1q23 0 27 -12t4 -39v-213q0 -39 -10 -48t-55 -9q-18 0 -29.5 1t-17 8t-6.5 11t-3 19.5t-4 25.5q-4 29 -16 56.5t-56.5 57.5t-109.5 30 q-100 0 -140 -39t-40 -88q0 -47 36.5 -78t77.5 -43t110 -25.5t95 -21.5q82 -27 150.5 -96.5t68.5 -178.5q0 -49 -13 -93t-46 -89t-101.5 -72.5t-166.5 -27.5q-137 0 -236 98q-4 -6 -12 -22.5t-14.5 -26.5t-14.5 -23.5t-17 -19.5t-20 -6q-12 0 -22 8q-8 6 -8 45z" />
<glyph unicode="t" horiz-adv-x="796" d="M37 819v119q102 8 148 102.5t48 300.5h121v-403h293v-119h-293v-536q0 -168 101 -168q49 0 80 49q27 43 26 131v98h121v-112q0 -82 -32 -143.5t-81 -91.5t-93 -43t-81 -13q-53 0 -90 23.5t-54.5 52t-27.5 75.5t-11 72t-1 63v543h-174z" />
<glyph unicode="u" horiz-adv-x="1148" d="M57 801v121l314 28v-671q0 -94 30.5 -132t141.5 -38q98 0 176 61t78 205v360q0 45 -19.5 55.5t-122.5 10.5h-28v121l313 28v-768q0 -43 20.5 -52t118.5 -9h31v-121l-307 -10v133q-133 -133 -334 -133q-66 0 -113 18.5t-71.5 44t-38 67.5t-16.5 72.5t-3 75.5v477 q0 35 -22.5 45.5t-106.5 10.5h-41z" />
<glyph unicode="v" horiz-adv-x="1091" d="M41 819v119h432v-119h-137l182 -532l35 -115l31 96l188 551h-137v119h416v-119h-158q-12 -43 -41 -122t-35 -95l-190 -551q-14 -39 -27.5 -49t-48.5 -10h-8q-37 0 -52.5 12t-29.5 55l-185 535q-61 176 -77 225h-158z" />
<glyph unicode="w" horiz-adv-x="1490" d="M39 819v119h424v-119h-141q174 -586 184 -647q12 74 94 344t82 281q0 2 -1 10t-1 12h-145v119h405v-119h-141l192 -647l195 647h-160v119h424v-119h-145l-232 -758q-10 -31 -15 -42t-20.5 -19t-44.5 -8h-10q-31 0 -44 11t-24 42q-39 129 -72.5 238.5t-50 164t-29.5 97.5 t-19.5 63.5t-12.5 36.5q-25 -160 -158 -600q-10 -31 -24 -42t-45 -11h-12q-33 0 -46.5 11t-27.5 54l-234 762h-145z" />
<glyph unicode="x" horiz-adv-x="1091" d="M29 0v121h184l256 364l-242 334h-186v119h424v-119h-98l172 -235h2l164 235h-101v119h424v-119h-154q-25 -2 -40 -20q-10 -12 -224 -312v-4l264 -362h187v-121h-424v121h98l-194 268l-189 -268h99v-121h-422z" />
<glyph unicode="y" horiz-adv-x="1091" d="M41 819v119h432v-119h-137q176 -487 217 -647l84 256l135 391h-137v119h416v-119h-158l-315 -899q-23 -63 -36.5 -97t-46 -82t-77.5 -83q-84 -68 -185 -68q-74 0 -130 43t-56 107q0 37 22.5 58.5t55.5 21.5q31 0 55.5 -21.5t24.5 -58.5q0 -6 -4 -27q4 0 14 -1t14 -1 q33 0 61.5 9.5t50 21.5t40 32.5t30 38t23.5 43t16.5 40t11.5 38t9 27.5q10 27 10 37q0 8 -10 39l-272 782h-158z" />
<glyph unicode="z" horiz-adv-x="913" d="M55 59q0 8 1 15.5t2 12.5t3 11t4.5 9.5t6.5 9.5t6 8t8 9t8 11l522 674h-174q-115 0 -153.5 -6t-52 -23.5t-19.5 -72.5l-12 -185h-121l22 406h654q31 0 44 -10t13 -45q0 -12 -1 -21.5t-6 -20t-8 -14.5t-12.5 -16t-13.5 -16l-518 -670h160q90 0 123.5 1t70.5 6t44.5 17.5 t14.5 32t11 51.5v7q4 33 20 217h121l-35 -457h-677q-27 0 -39.5 9t-14.5 18t-2 32z" />
<glyph unicode="{" d="M111 496v26q0 20 2 30.5t10 14.5t18.5 5t34 4.5t47.5 7.5q84 18 141.5 65t71.5 109q4 20 4 63v428q0 39 2 61.5t23.5 65.5t64.5 76q109 84 299 84h29q23 0 33 -1t15 -11.5t5 -15.5v-27v-23q0 -16 -2 -25.5t-12 -12.5t-18.5 -4t-30 -1t-39.5 -2q-127 -10 -176 -46 t-49 -107v-435q0 -133 -74 -211q-68 -74 -170 -102q78 -23 132 -63.5t75.5 -88t29 -79t7.5 -62.5v-450q0 -45 12 -70q25 -47 92.5 -67.5t136 -22.5t70.5 -4q16 -6 16 -45v-29q0 -25 -9 -33t-30 -10h-30q-78 0 -144.5 12.5t-127 42t-95.5 87t-35 137.5v436q0 49 -6 73 q-20 78 -101 123t-175 52q-20 2 -28.5 4t-13.5 11.5t-5 29.5z" />
<glyph unicode="|" horiz-adv-x="569" d="M242 -449v1907q0 76 41 76t41 -61v-1907q0 -76 -41 -76t-41 61z" />
<glyph unicode="}" d="M111 -440q0 14 2 23t5 14.5t12 7.5t17.5 3t29 1t36.5 2q78 6 127 22.5t69.5 41t25.5 44t5 48.5v442q0 221 244 303q-244 82 -244 297v446q0 31 -4 50.5t-23.5 41t-54.5 37.5q-76 31 -155 31q-8 0 -21.5 -1t-19.5 -1q-29 0 -40 9.5t-11 41.5v29q0 25 8 34t33 9h30 q201 0 307 -82q94 -72 95 -197v-436q0 -49 6 -71q18 -72 93 -120t185 -57q31 -2 37 -12t6 -43v-18q0 -20 -2 -29.5t-11 -13.5t-19.5 -5t-34 -4.5t-45.5 -7.5q-84 -18 -140.5 -64t-70.5 -110q-4 -20 -4 -63v-445q0 -78 -37 -133t-97.5 -83.5t-122 -41t-124.5 -12.5h-49 q-27 0 -35 8t-8 39v25z" />
<glyph unicode="~" horiz-adv-x="1251" d="M170 1219q8 12 33.5 43.5t35 44t31 36t35.5 33.5t35.5 22.5t44.5 17.5t47 5q59 0 185 -51t186 -51q43 0 82 20.5t54 36t46 47.5l94 -75q-10 -12 -30.5 -40t-29.5 -39.5t-27.5 -33t-30 -31.5t-30 -24.5t-34.5 -20.5t-36.5 -11t-43.5 -5q-59 0 -184 51t-184 51 q-92 0 -185 -102z" />
<glyph unicode="&#xa1;" horiz-adv-x="569" d="M174 -309q0 6 1 16t1 14l43 846q0 8 1 20.5t1 17.5t3 12.5t8.5 10.5t13.5 5t22 2h31q31 0 37 -10.5t8 -44.5l45 -840q0 -6 1 -22.5t1 -24.5q0 -55 -32.5 -84t-73.5 -29t-76 29t-35 82zM174 915q0 47 33 78t76 31t74.5 -30.5t31.5 -78.5q0 -45 -32.5 -75.5t-73.5 -30.5 q-43 0 -76 30.5t-33 75.5z" />
<glyph unicode="&#xa2;" d="M76 471q0 195 111.5 326t320.5 155v191h121v-189q47 0 73.5 -2t79 -9t82 -20.5t54 -41t24.5 -66.5q0 -35 -23.5 -58.5t-58.5 -23.5q-29 0 -54.5 19.5t-27.5 68.5q-66 8 -149 8v-714q145 8 200 112q18 37 27.5 44.5t40.5 7.5h23q41 0 41 -21q0 -18 -17.5 -55t-53.5 -82 t-105.5 -82t-155.5 -47v-191h-121v191q-209 23 -320.5 153.5t-111.5 325.5zM229 471q0 -285 279 -346v700q-90 -14 -151.5 -58t-86 -103.5t-33 -103.5t-8.5 -89z" />
<glyph unicode="&#xa3;" horiz-adv-x="1308" d="M113 121q0 74 70.5 119t178.5 45q61 0 127 -17q6 41 7 181v202h-138q-20 0 -27 11.5t-7 50.5q0 41 6 50t30 9h136v270q0 106 25.5 188.5t63.5 127.5t89 73.5t93 37t83 8.5q158 0 251 -126t93 -276q0 -47 -26.5 -68.5t-55.5 -21.5q-33 0 -58.5 23.5t-25.5 58.5q0 37 39 70 q-14 72 -45 120t-65.5 67t-59.5 25.5t-47 6.5q-113 0 -168 -92q-43 -72 -43 -228v-264h188q29 0 36 -10t7 -33v-24q0 -35 -10 -44.5t-41 -9.5h-180v-274q0 -92 -18 -154q4 -2 64 -27.5t99 -41t97.5 -30.5t97.5 -15q127 0 149 153q4 27 12.5 33t30.5 6h33q25 0 35 -6t10 -29 q0 -92 -85 -184t-226 -92q-31 0 -67.5 6t-65.5 14t-72 23.5t-61.5 24t-63.5 27.5t-51 21q-100 -117 -268 -116q-76 0 -126 36t-50 95zM244 127q0 -18 45 -18q72 0 133 43q-57 14 -96 14q-31 0 -51.5 -8t-25.5 -16.5t-5 -14.5z" />
<glyph unicode="&#xa4;" horiz-adv-x="1591" d="M88 -63q0 18 55 73q12 12 47 45q76 76 132 131q-141 164 -142 416q0 244 142 418q-219 217 -230 233q-4 8 -4 19q0 14 12.5 25.5t24.5 11.5q18 0 40.5 -19.5t102.5 -101.5q63 -66 109 -111q188 141 417.5 141.5t417.5 -141.5q219 219 230 226q10 6 20 6q14 0 25.5 -12.5 t11.5 -24.5q0 -20 -20.5 -43t-102.5 -105q-63 -61 -106 -104q139 -186 139 -418q0 -229 -139 -416q27 -27 55.5 -54.5t46 -45.5t36.5 -37.5t30.5 -31t24 -23.5t17.5 -20.5t10 -15.5t7 -12t2 -12q0 -37 -37 -36q-16 0 -35.5 17t-130.5 128l-86 86q-170 -139 -417 -139 q-229 0 -416 139q-215 -217 -232 -227q-8 -4 -18 -4q-16 0 -27.5 12.5t-11.5 26.5zM262 602q0 -238 142.5 -384t388 -146t390 144t144.5 388q0 240 -144.5 386.5t-385.5 146.5q-244 0 -389.5 -144.5t-145.5 -390.5z" />
<glyph unicode="&#xa5;" horiz-adv-x="1513" d="M31 1280v119h483v-119h-119l215 -334h285q27 0 36 5t27 32l191 297h-119v119h451v-119h-189l-213 -334h269q80 0 79 -59q0 -61 -86 -62h-340l-147 -231l-20 -35l-5 -37h517q82 0 81.5 -59.5t-81.5 -59.5h-517v-282h183v-121h-512v121h182v282h-514q-86 0 -86 60 q0 61 82 61h4l4 -2h510q0 29 -10 49.5t-66 106.5q-37 55 -61 94q-27 39 -36 46t-36 7h-311q-78 2 -78 60q0 20 13.5 37.5t33.5 21.5q8 2 41 2h260l-213 334h-188zM688 825l84 -133l86 133h-170z" />
<glyph unicode="&#xa6;" horiz-adv-x="342" d="M129 276q0 63 39 64q43 0 43 -61v-725q0 -63 -41 -63.5t-41 60.5v725zM129 748v722q0 63 41 63.5t41 -63.5v-722q0 -61 -41 -61t-41 61z" />
<glyph unicode="&#xa7;" horiz-adv-x="909" d="M141 524q0 86 40 163t110 122q-43 39 -68.5 69.5t-53.5 91t-28 128.5q0 129 87 232.5t227 103.5q123 0 202.5 -84t79.5 -183q0 -43 -23.5 -61.5t-47.5 -18.5q-27 0 -48.5 19.5t-21.5 48.5q0 27 14 49q-45 109 -157 109q-90 0 -148.5 -66.5t-58.5 -146.5q0 -47 21.5 -85 t59.5 -65.5t69.5 -45t76.5 -36t55 -24.5q113 -59 175.5 -150.5t62.5 -193.5q0 -86 -40 -163t-110 -122q43 -39 69 -69.5t53.5 -91t27.5 -128.5q0 -129 -87 -232.5t-226 -103.5q-123 0 -203 84t-80 183q0 43 23.5 61.5t48.5 18.5q29 0 49 -18.5t20 -49.5q0 -27 -14 -49 q45 -109 158 -109q78 0 142.5 60.5t64.5 152.5q0 57 -36 103.5t-72 68t-100.5 50t-74.5 34.5q-113 59 -175.5 150.5t-62.5 193.5zM246 526q0 -74 60.5 -132t114.5 -80.5t75 -22.5q51 0 108.5 61.5t57.5 145.5q0 74 -60.5 132t-116 80.5t-73.5 22.5q-51 0 -108.5 -61.5 t-57.5 -145.5z" />
<glyph unicode="&#xa8;" d="M205 1290q0 47 31.5 78t74.5 31t76 -31t33 -78q0 -45 -33 -75.5t-74 -30.5q-47 0 -77.5 31.5t-30.5 74.5zM600 1290q0 47 33 78t76 31t74.5 -31t31.5 -78q0 -45 -32.5 -75.5t-73.5 -30.5q-43 0 -76 30.5t-33 75.5z" />
<glyph unicode="&#xa9;" horiz-adv-x="2275" d="M113 514q0 473 281.5 759t744.5 286q459 0 740.5 -286t281.5 -763q0 -471 -281 -758t-745 -287q-461 0 -741.5 287t-280.5 762zM195 510q0 -451 262 -707t676 -256q426 0 686 259.5t260 707.5q0 451 -262.5 707t-675.5 256q-428 0 -687 -261.5t-259 -705.5zM567 489 q0 229 156 370.5t403 141.5q184 0 328 -120q55 82 72.5 101t36.5 19q29 0 28 -38v-328q-2 -23 -11 -31t-42 -8t-47 5t-17.5 13.5t-8.5 35t-17 52.5q-78 178 -268 179q-80 0 -153 -17.5t-143.5 -58.5t-112.5 -122t-42 -191q0 -195 125 -294.5t330 -99.5q113 0 192.5 61.5 t93.5 162.5q4 29 12.5 36t35.5 7h18q33 0 44 -6.5t11 -28.5q0 -125 -124 -239t-339 -114q-256 0 -408.5 143.5t-152.5 368.5z" />
<glyph unicode="&#xaa;" horiz-adv-x="909" d="M55 627q0 23 15.5 38t33.5 19q12 2 39 2h627q84 0 84 -61q0 -59 -80 -60h-643q-76 1 -76 62zM92 938q0 76 111 106q137 37 344 37h6v82q0 115 -27 174q-43 94 -131 95q-51 0 -96 -37q20 -35 20 -58q0 -35 -24.5 -58.5t-56.5 -23.5q-29 0 -55.5 20.5t-26.5 67.5 q0 78 67.5 143.5t173.5 65.5q51 0 98.5 -17t95.5 -56t76.5 -120t28.5 -192v-270h2q41 -6 81 -8t55.5 -2t29 -6.5t15.5 -18.5t2 -41q0 -35 -14.5 -44t-53.5 -9h-72q-90 2 -126.5 17.5t-45.5 60.5q-12 -10 -34.5 -25.5t-100.5 -40t-166 -24.5q-92 0 -134 61.5t-42 120.5z M242 934q0 -8 8 -20.5t38.5 -24.5t80.5 -12q137 0 180 100q-307 0 -307 -43z" />
<glyph unicode="&#xab;" horiz-adv-x="1138" d="M231 524q0 10 31 43q100 100 170 212t100.5 183.5t32.5 73.5q10 10 43 11h33q35 0 35 -21q0 -18 -25.5 -83.5t-100.5 -188.5t-175 -232q123 -123 212 -287.5t89 -214.5q0 -20 -39 -20h-29q-29 0 -39 7t-20 34q-35 88 -81 168t-86 131t-75 91t-55.5 62.5t-20.5 30.5z M571 524.5q0 12.5 31 42.5q100 100 171 212t101.5 183.5t32.5 73.5q10 10 41 11h33q37 0 37 -21q0 -18 -27.5 -88t-101.5 -191.5t-172 -224.5q123 -123 211 -287.5t88 -214.5q0 -20 -39 -20h-27q-29 0 -39 7t-20 34q-59 143 -140 257t-130.5 164t-49.5 62.5z" />
<glyph unicode="&#xac;" horiz-adv-x="1366" d="M115 731q0 41 59 41h1012q35 0 50 -12t15 -53q0 -2 -1 -10.5t-1 -10.5v-432q0 -59 -39 -59q-43 0 -43 59v436h-987q-65 0 -65 41z" />
<glyph unicode="&#xad;" horiz-adv-x="342" d="M20 399v140h545v-140h-545z" />
<glyph unicode="&#xae;" horiz-adv-x="2275" d="M113 514q0 473 281.5 759t744.5 286q459 0 740.5 -286t281.5 -763q0 -471 -281 -758t-745 -287q-461 0 -741.5 287t-280.5 762zM195 510q0 -451 262 -707t676 -256q426 0 686 259.5t260 707.5q0 451 -262.5 707t-675.5 256q-428 0 -687 -261.5t-259 -705.5zM539 0v121 h182v739h-182v119h516q150 0 255 -26.5t157.5 -70.5t74 -87t21.5 -90q0 -141 -183 -226q18 -12 31.5 -24.5t25 -26.5t18.5 -23.5t12.5 -27t8.5 -25.5t5 -30.5t3 -30.5t2 -37t1 -39v-10q2 -10 2 -15.5t2 -15.5t6 -17t9 -17.5t13.5 -16.5t18.5 -12.5t25.5 -9.5t33.5 -3 q33 0 50.5 20.5t22.5 49.5t9 33q10 14 54 14h2q55 0 55 -43q0 -59 -46 -127t-147 -68q-39 0 -76.5 7.5t-86 28t-78 67.5t-29.5 115v84q0 25 -3 40t-14.5 37.5t-42 38t-79.5 25.5t-150 10h-168v-309h181v-121h-512zM870 551h197l4 -2h11.5h15.5q43 0 84 5t97 18.5t90 48 t34 84.5q0 156 -336 155h-197v-309z" />
<glyph unicode="&#xaf;" d="M141 1296v125h738v-125h-738z" />
<glyph unicode="&#xb0;" horiz-adv-x="681" d="M113 1174q0 98 62.5 161.5t164.5 63.5q100 0 163.5 -64.5t63.5 -163.5q0 -100 -62.5 -163.5t-164.5 -63.5q-98 0 -162.5 64t-64.5 166zM195 1171q0 -61 38.5 -102t106.5 -41q66 0 105.5 39t39.5 107q0 61 -38.5 102t-106.5 41q-66 0 -105.5 -39t-39.5 -107z" />
<glyph unicode="&#xb1;" horiz-adv-x="1593" d="M115 41q0 39 57 41h582v559h-578q-61 0 -61 41t61 41h578v577q0 61 41 61.5t41 -61.5v-577h577q61 0 61.5 -41t-61.5 -41h-577v-559h577q61 0 61.5 -41t-59.5 -41h-1239q-61 0 -61 41z" />
<glyph unicode="&#xb2;" horiz-adv-x="909" d="M102 711v88q0 6 1 11t1 10t4.5 9.5t6.5 8.5t9 9t12 8t16.5 10t20.5 13.5t25.5 16.5t30.5 18q68 43 155 93.5t124 72t77 54t52 61.5t12 70q0 66 -52 106.5t-114.5 54t-136.5 13.5q-53 0 -96 -31q25 -35 24 -66q0 -37 -24.5 -60.5t-59.5 -23.5q-37 0 -62.5 25t-25.5 66 q0 94 93.5 152.5t234.5 58.5q164 0 270.5 -81t106.5 -210q0 -49 -18.5 -89t-58.5 -71t-73.5 -50.5t-92 -47t-87.5 -43.5q-4 -2 -180 -107q23 0 68 -1t67 -1q160 0 190.5 4t34.5 25v4q14 61 29 168h121l-57 -348h-648z" />
<glyph unicode="&#xb3;" horiz-adv-x="909" d="M84 868q0 39 24.5 66t63.5 27t63.5 -26t24.5 -63q0 -20 -8 -43q59 -14 182 -14q160 0 207 70q20 29 21 67q0 55 -44.5 96.5t-160.5 43.5h-66q-35 0 -43 7t-8 42v26q0 23 8 33t19.5 11t44 4.5t63.5 9.5q63 12 100 50t37 79q0 51 -45 73.5t-104 22.5q-115 0 -182 -86 q31 -35 30 -68q0 -37 -25.5 -60.5t-60.5 -23.5t-59.5 24t-24.5 67q0 94 86 175t236 81q135 0 219 -56.5t84 -148.5q0 -125 -137 -203q193 -63 192 -201q0 -39 -14 -75.5t-52 -79.5t-122 -69t-203 -26q-346 0 -346 168z" />
<glyph unicode="&#xb4;" d="M418 1128q37 29 94 76q150 121 179.5 141.5t49.5 20.5q31 0 50.5 -23.5t19.5 -50.5q0 -12 -5 -24.5t-15.5 -21.5l-17.5 -15t-19 -14l-11 -7q-244 -170 -254 -176z" />
<glyph unicode="&#xb5;" horiz-adv-x="1148" d="M57 -279h170v1027q-2 35 -23.5 44t-109.5 9h-37v121l314 28v-671q0 -94 30.5 -132t141.5 -38q98 0 176 61t78 205v360q0 45 -19.5 55.5t-122.5 10.5h-28v121l313 28v-768q0 -43 20.5 -52t118.5 -9h31v-121l-307 -10v133q-145 -133 -332 -133q-59 0 -100 10v-279h170v-120 h-484v120z" />
<glyph unicode="&#xb6;" horiz-adv-x="1251" d="M113 948q0 76 29.5 155t90 152.5t170 120.5t248.5 47h471q68 0 68 -43q0 -41 -64 -41q-4 0 -8 1t-8 1h-88v-1658h96q72 0 72 -41t-60 -41h-522q-59 0 -59 41q0 43 59 43q4 0 9.5 -1t7.5 -1h92v788q-256 12 -430 141t-174 336zM799 -317h141v1658h-141v-1658z" />
<glyph unicode="&#xb7;" horiz-adv-x="569" d="M174 525q0 43 31 74.5t78 31.5q45 0 76.5 -32.5t31.5 -73.5q0 -43 -31.5 -76t-76.5 -33t-77 34t-32 75z" />
<glyph unicode="&#xb8;" horiz-adv-x="909" d="M211 -311h65q274 0 275 98q0 84 -168 90v123h143v-23q170 -59 170 -196q0 -35 -10 -63.5t-31.5 -48t-43 -36t-59.5 -25.5t-63.5 -16.5t-73.5 -11.5t-69.5 -5t-71 -3t-63.5 -2v119z" />
<glyph unicode="&#xb9;" horiz-adv-x="909" d="M141 1284v121q209 4 332 154h23q27 0 39 -9.5t14 -18.5t2 -32v-668h215v-120h-596v120h238v539q-117 -84 -267 -86z" />
<glyph unicode="&#xba;" horiz-adv-x="909" d="M55 627q0 23 15.5 38t33.5 19q12 2 39 2h627q84 0 84 -61q0 -59 -80 -60h-643q-76 1 -76 62zM63 1147q0 182 106.5 293.5t285.5 111.5q176 0 282.5 -110.5t106.5 -292.5t-108.5 -286.5t-282.5 -104.5t-282 105.5t-108 283.5zM219 1165q0 -283 234 -282q236 0 235 278 q0 270 -233 271q-236 -1 -236 -267z" />
<glyph unicode="&#xbb;" horiz-adv-x="1138" d="M117 23q0 18 27.5 87.5t102.5 190.5t171 223q-123 123 -212 289t-89 215q0 18 39 19h28q29 0 39 -7.5t21 -33.5q59 -145 140 -258t129 -162t48 -62q0 -8 -20.5 -30.5t-55 -62.5t-74.5 -92t-87.5 -134t-83.5 -174q-10 -20 -18.5 -25.5t-28.5 -5.5h-37q-39 0 -39 23z M457 23q0 14 24.5 78.5t99 188.5t177.5 234q-123 123 -211 289t-88 215q0 18 37 19h28q29 0 39 -7.5t21 -33.5q39 -92 86 -173t86 -130.5t73.5 -87t54 -59t19.5 -32t-51 -62.5t-133 -169t-139 -262q-10 -20 -18.5 -25.5t-29.5 -5.5h-34q-41 0 -41 23z" />
<glyph unicode="&#xbc;" horiz-adv-x="909" d="M16 569q0 41 66 41h739q68 0 68 -43q0 -39 -60 -39h-753q-60 0 -60 41zM55 -76q0 8 4 18.5t6.5 13.5t13.5 16.5t17 21.5l357 436q23 27 36 34t37 7h56q18 0 28.5 -2t18.5 -14.5t8 -36.5v-473h215v-119h-215v-105h199v-120h-539v120h199v105h-441v72v26zM141 1358v119 q123 0 197 20.5t106.5 41t55.5 20.5q27 0 38 -11.5t11 -44.5v-692h217v-119h-598v119h240v590q-115 -43 -267 -43zM209 -55h299v372z" />
<glyph unicode="&#xbd;" horiz-adv-x="909" d="M16 569q0 41 66 41h739q68 0 68 -43q0 -39 -60 -39h-753q-60 0 -60 41zM100 -322q0 31 26 53.5t157 110.5q61 41 98 66q16 10 54 35.5t52.5 36t44 32t41 32.5t30 31.5t25.5 36t13 36t6 42.5q0 158 -309 158q-41 0 -86 -22q20 -29 20 -60q0 -37 -25.5 -61.5t-60 -24.5 t-59.5 25.5t-25 64.5q0 90 89.5 144.5t234.5 54.5q166 0 272.5 -76t106.5 -198q0 -47 -17.5 -87t-56.5 -75t-67.5 -54.5t-86 -51t-75.5 -44.5q-29 -16 -201 -133h129q164 0 191.5 3t31.5 24q2 2 2 4q20 78 31 168h119l-55 -348h-650v77zM141 1358v119q123 0 197 20.5 t106.5 41t55.5 20.5q27 0 38 -11.5t11 -44.5v-692h217v-119h-598v119h240v590q-115 -43 -267 -43z" />
<glyph unicode="&#xbe;" horiz-adv-x="909" d="M16 569q0 41 66 41h739q68 0 68 -43q0 -39 -60 -39h-753q-60 0 -60 41zM55 -102q0 16 1 24t1 14.5t4.5 13.5t6.5 10t11 14.5t15 19.5l359 436q23 27 36 34t37 7h56q18 0 28.5 -2t18.5 -14.5t8 -36.5v-473h215v-119h-215v-105h199v-120h-539v120h199v105h-441v72zM84 842 q0 41 25.5 65.5t62.5 24.5q41 0 64.5 -25.5t23.5 -62.5q0 -8 -10 -45q66 -14 188 -15q156 0 203 74q20 33 21 72q0 74 -64 114q-53 33 -178 33h-39q-20 0 -29.5 7.5t-10.5 15.5t-1 30q0 53 8 60q8 8 57.5 11t103.5 22.5t85 66.5q18 33 18 60q0 100 -159 100h-4 q-88 0 -156 -29q18 -33 18 -61q0 -37 -25.5 -58.5t-58.5 -21.5q-29 0 -57.5 20.5t-28.5 67.5q0 86 86 138.5t226 52.5q166 0 239.5 -64.5t73.5 -144.5q0 -123 -141 -213q76 -20 136 -71.5t60 -137.5q0 -37 -14 -75t-51 -83t-118 -72.5t-196 -27.5q-358 0 -358 172zM209 -55 h299v372z" />
<glyph unicode="&#xbf;" horiz-adv-x="966" d="M113 -106q0 61 16 109t32.5 70.5t49.5 54.5t43 44q139 156 139 360v52q0 35 8.5 44t40.5 9q4 0 8.5 -1t8.5 -1h6q29 0 38 -7t11 -32v-66q0 -279 -174 -473q-2 -4 -12.5 -14t-13.5 -14t-11 -14.5t-12 -17.5t-9.5 -20.5t-7.5 -24.5t-4 -27.5t-2 -35.5q0 -100 42 -139 t143 -39q186 0 264 117q-31 35 -31 63q0 35 24.5 58.5t57.5 23.5q31 0 57.5 -20.5t26.5 -67.5q0 -119 -112.5 -207t-288.5 -88q-168 0 -253 79.5t-85 224.5zM346 915q0 47 33 78t76 31t74.5 -30.5t31.5 -78.5q0 -45 -32.5 -75.5t-73.5 -30.5q-43 0 -76 30.5t-33 75.5z" />
<glyph unicode="&#xc0;" horiz-adv-x="1513" d="M70 0v121h174l422 1227q16 49 30.5 62t53.5 13h12q20 0 31.5 -2t23.5 -14t21 -35l430 -1251h174v-121h-481v121h151l-111 317h-522l-108 -317h149v-121h-450zM475 1688q0 27 18.5 50t49.5 23h2q16 0 56 -18.5t294 -145.5l-49 -110q-25 8 -287 119q-84 33 -84 82zM522 559 h439l-220 635z" />
<glyph unicode="&#xc1;" horiz-adv-x="1513" d="M70 0v121h174l422 1227q16 49 30.5 62t53.5 13h12q20 0 31.5 -2t23.5 -14t21 -35l430 -1251h174v-121h-481v121h151l-111 317h-522l-108 -317h149v-121h-450zM522 559h439l-220 635zM561 1597q328 160 350 164q31 0 50.5 -23.5t19.5 -49.5q0 -49 -84 -82 q-262 -111 -287 -119z" />
<glyph unicode="&#xc2;" horiz-adv-x="1513" d="M70 0v121h174l422 1227q16 49 30.5 62t53.5 13h12q20 0 31.5 -2t23.5 -14t21 -35l430 -1251h174v-121h-481v121h151l-111 317h-522l-108 -317h149v-121h-450zM461 1587l295 250h2l295 -250l-80 -90h-2l-213 203h-2l-215 -203zM522 559h439l-220 635z" />
<glyph unicode="&#xc3;" horiz-adv-x="1513" d="M70 0v121h174l422 1227q16 49 30.5 62t53.5 13h12q20 0 31.5 -2t23.5 -14t21 -35l430 -1251h174v-121h-481v121h151l-111 317h-522l-108 -317h149v-121h-450zM358 1622q8 10 28 35.5t28 35t25.5 30t26.5 29.5t24.5 23.5t27.5 20.5t26.5 14.5t30 11.5t31.5 3 q53 0 143.5 -51.5t143.5 -51.5q74 0 168 105l94 -76q-8 -10 -30.5 -39t-31 -39t-27.5 -33.5t-30.5 -33t-29 -23.5t-31.5 -20.5t-31.5 -11.5t-36.5 -5q-51 0 -143 51.5t-146 51.5q-76 0 -167 -103zM522 559h439l-220 635z" />
<glyph unicode="&#xc4;" horiz-adv-x="1513" d="M70 0v121h174l422 1227q16 49 30.5 62t53.5 13h12q20 0 31.5 -2t23.5 -14t21 -35l430 -1251h174v-121h-481v121h151l-111 317h-522l-108 -317h149v-121h-450zM451 1665q0 47 31.5 78t74.5 31t75 -31t32 -78q0 -45 -33 -75.5t-74 -30.5q-47 0 -76.5 30.5t-29.5 75.5z M522 559h439l-220 635zM848 1665q0 45 31.5 77t74.5 32t76 -31t33 -78t-32 -76.5t-75 -29.5q-47 0 -77.5 31.5t-30.5 74.5z" />
<glyph unicode="&#xc5;" horiz-adv-x="1513" d="M70 0v121h174l415 1204q-131 63 -131 250q0 121 62.5 193.5t165.5 72.5q102 -2 164.5 -74.5t62.5 -191.5q0 -178 -129 -250l414 -1204h174v-121h-481v121h151l-111 317h-522l-108 -317h149v-121h-450zM522 559h439l-220 635zM643 1577q0 -43 4 -69.5t31 -54.5t78 -28 q68 0 90 38t22 104q0 33 -2 53t-12 47t-33.5 41t-62.5 14q-115 0 -115 -145z" />
<glyph unicode="&#xc6;" horiz-adv-x="1837" d="M70 0v121h174l409 1159h-108v119h1122l55 -518h-118q-35 317 -58 356q-12 23 -53 31q-74 12 -248 12h-254v-547h148q176 2 196 15q16 10 23 65v6q4 86 4 131v23h121v-600h-121v22q0 45 -4 131q-4 59 -21 70q-33 16 -204 16h-142v-491h275q215 4 264 14t63 64 q10 41 66 385h121l-86 -584h-989v121h137v491h-297l-172 -491h147v-121h-450zM588 733h254v547h-62z" />
<glyph unicode="&#xc7;" horiz-adv-x="1478" d="M113 698q0 332 192.5 527.5t491.5 195.5q242 0 417 -186q18 35 43 84q37 74 47.5 87t28.5 13h4q27 0 27 -43v-452q0 -33 -10.5 -39t-59.5 -6q-29 0 -39 6t-14 30q-27 156 -127 270.5t-262 114.5q-100 0 -193.5 -27.5t-184.5 -90t-146.5 -186.5t-55.5 -296 q0 -170 55.5 -294.5t145.5 -188t183.5 -91.5t193.5 -28q170 0 273.5 103.5t117.5 240.5q2 27 5 35t13.5 13.5t36.5 5.5h15q33 0 43 -6.5t10 -30.5q0 -61 -26.5 -132t-80 -143.5t-153.5 -129t-230 -72.5v-5q172 -59 173 -196q0 -35 -10.5 -63.5t-32 -48t-43 -36t-59.5 -25.5 t-63.5 -16.5t-73.5 -11.5t-69.5 -5t-71 -3t-63.5 -2v119h57q283 0 283 94q0 92 -170 94v103q-158 18 -276.5 80.5t-181 140.5t-101.5 178t-49 172.5t-10 146.5z" />
<glyph unicode="&#xc8;" horiz-adv-x="1382" d="M98 0v121h183v1153h-183v119h1112l58 -519h-121q-29 262 -47 330q-10 33 -29.5 45.5t-90.5 18.5t-243 6h-303v-490h158q182 0 205 17q16 14 20 69q4 90 4 134v20h119v-600h-119v20q0 43 -4 134q-4 57 -20 69q-23 16 -203 17h-160v-543h328q225 0 295 12q49 8 65 37 q25 43 74 356q2 23 8 58h121l-86 -584h-1141zM473 1688q0 27 19.5 50t50.5 23h4q20 0 229 -104q72 -37 119 -60l-49 -110q-2 0 -81 32.5t-163 68.5t-94 42q-35 23 -35 58z" />
<glyph unicode="&#xc9;" horiz-adv-x="1382" d="M98 0v121h183v1153h-183v119h1112l58 -519h-121q-29 262 -47 330q-10 33 -29.5 45.5t-90.5 18.5t-243 6h-303v-490h158q182 0 205 17q16 14 20 69q4 90 4 134v20h119v-600h-119v20q0 43 -4 134q-4 57 -20 69q-23 16 -203 17h-160v-543h328q225 0 295 12q49 8 65 37 q25 43 74 356q2 23 8 58h121l-86 -584h-1141zM588 1597q336 162 350 164q31 0 50.5 -23.5t19.5 -49.5q0 -10 -2 -18.5t-5.5 -13.5t-9.5 -12.5t-10 -10.5t-14.5 -8t-12.5 -7t-14 -7t-14 -5q-250 -104 -289 -119z" />
<glyph unicode="&#xca;" horiz-adv-x="1382" d="M98 0v121h183v1153h-183v119h1112l58 -519h-121q-29 262 -47 330q-10 33 -29.5 45.5t-90.5 18.5t-243 6h-303v-490h158q182 0 205 17q16 14 20 69q4 90 4 134v20h119v-600h-119v20q0 43 -4 134q-4 57 -20 69q-23 16 -203 17h-160v-543h328q225 0 295 12q49 8 65 37 q25 43 74 356q2 23 8 58h121l-86 -584h-1141zM403 1585v2l295 250h2l293 -250v-2l-78 -88l-215 203h-2l-217 -203z" />
<glyph unicode="&#xcb;" horiz-adv-x="1382" d="M391 1665q0 47 32.5 78t75.5 31t75 -31t32 -78q0 -45 -33 -75.5t-74 -30.5q-43 0 -75.5 30.5t-32.5 75.5zM790 1665q0 45 32 77t75 32q45 0 76.5 -31t31.5 -78q0 -45 -32.5 -75.5t-73.5 -30.5q-47 0 -78 31.5t-31 74.5zM98 0v121h183v1153h-183v119h1112l58 -519h-121 q-29 262 -47 330q-10 33 -29.5 45.5t-90.5 18.5t-243 6h-303v-490h158q182 0 205 17q16 14 20 69q4 90 4 134v20h119v-600h-119v20q0 43 -4 134q-4 57 -20 69q-23 16 -203 17h-160v-543h328q225 0 295 12q49 8 65 37q25 43 74 356q2 23 8 58h121l-86 -584h-1141z" />
<glyph unicode="&#xcc;" horiz-adv-x="716" d="M90 0v121h191v1159h-191v119h537v-119h-191v-1159h191v-121h-537zM104 1688q0 27 19.5 50t50.5 23h4q20 0 189 -84q92 -47 157 -80l-49 -110q-2 0 -81 32.5t-161.5 68.5t-93.5 42q-35 23 -35 58z" />
<glyph unicode="&#xcd;" horiz-adv-x="716" d="M90 0v121h191v1159h-191v119h537v-119h-191v-1159h191v-121h-537zM156 1597q336 162 350 164q31 0 51.5 -23.5t20.5 -49.5q0 -10 -2.5 -19.5t-8.5 -16.5t-10 -12.5t-15.5 -11.5t-14.5 -8t-17 -8t-16 -6q-250 -104 -289 -119z" />
<glyph unicode="&#xce;" horiz-adv-x="716" d="M61 1585v2l295 250h2l295 -250v-2l-80 -88l-215 203h-2l-215 -203zM90 0v121h191v1159h-191v119h537v-119h-191v-1159h191v-121h-537z" />
<glyph unicode="&#xcf;" horiz-adv-x="716" d="M51 1665q0 47 31.5 78t74.5 31t76 -31t33 -78q0 -45 -33 -75.5t-74 -30.5q-47 0 -77.5 31.5t-30.5 74.5zM446 1665q0 47 33 78t76 31t74.5 -31t31.5 -78q0 -45 -32.5 -75.5t-73.5 -30.5q-43 0 -76 30.5t-33 75.5zM90 0v121h191v1159h-191v119h537v-119h-191v-1159h191 v-121h-537z" />
<glyph unicode="&#xd0;" horiz-adv-x="1552" d="M100 0v121h183v506h-109q-53 0 -63.5 13t-10.5 54q0 51 43 54h140v532h-183v119h672q154 0 273.5 -45t191.5 -116t119 -167t64.5 -189.5t17.5 -195.5q0 -61 -9.5 -124.5t-37 -161t-98 -185.5t-177.5 -143q-137 -72 -346 -72h-670zM430 121h315q154 0 263.5 47t167 131 t82 179t24.5 210q0 94 -14.5 175t-51 160t-96 134t-155 89t-220.5 34h-315v-532h365q29 -2 39 -15.5t10 -42.5q0 -41 -13.5 -52t-46.5 -11h-354v-506z" />
<glyph unicode="&#xd1;" horiz-adv-x="1513" d="M102 0v121h183v1159h-183v119h277q43 0 67 -39l662 -1073v993h-182v119h485v-119h-182v-1214q0 -23 -1 -33t-13.5 -21.5t-38.5 -11.5h-13q-29 0 -41 8t-26 33l-690 1122v-1042h182v-121h-486zM358 1622q8 10 28 35.5t28 35t25.5 30t26.5 29.5t24.5 23.5t27.5 20.5 t26.5 14.5t30 11.5t31.5 3q53 0 143.5 -51.5t143.5 -51.5q74 0 168 105l94 -76q-8 -10 -30.5 -39t-31 -39t-27.5 -33.5t-30.5 -33t-29 -23.5t-31.5 -20.5t-31.5 -11.5t-36.5 -5q-51 0 -143 51.5t-146 51.5q-76 0 -167 -103z" />
<glyph unicode="&#xd2;" horiz-adv-x="1593" d="M572 1688q0 27 19.5 50t49.5 23q16 0 56.5 -18t294.5 -145l-50 -111q-2 0 -80.5 33t-162.5 68.5t-95 41.5q-32 23 -32 58zM113 692q0 334 187 531.5t497 197.5q305 0 492.5 -197.5t187.5 -527.5q0 -332 -189.5 -525.5t-494.5 -193.5q-307 0 -493.5 195.5t-186.5 519.5z M272 725q0 -176 49.5 -303t132.5 -192.5t167 -94.5t174 -29q72 0 139 16.5t139 60.5t124 110.5t86 178.5t34 253q0 160 -48 276.5t-128 178t-165 89t-179.5 27.5t-179.5 -27.5t-166.5 -88t-130 -178t-48.5 -277.5z" />
<glyph unicode="&#xd3;" horiz-adv-x="1593" d="M113 692q0 334 187 531.5t497 197.5q305 0 492.5 -197.5t187.5 -527.5q0 -332 -189.5 -525.5t-494.5 -193.5q-307 0 -493.5 195.5t-186.5 519.5zM272 725q0 -176 49.5 -303t132.5 -192.5t167 -94.5t174 -29q72 0 139 16.5t139 60.5t124 110.5t86 178.5t34 253 q0 160 -48 276.5t-128 178t-165 89t-179.5 27.5t-179.5 -27.5t-166.5 -88t-130 -178t-48.5 -277.5zM600 1597q70 35 170 84q160 80 178 80h2q31 0 50.5 -23.5t19.5 -49.5q0 -10 -2 -19.5t-8 -16.5t-10.5 -12.5t-15.5 -11.5t-14 -8t-17.5 -8t-16.5 -6q-262 -111 -287 -119z " />
<glyph unicode="&#xd4;" horiz-adv-x="1593" d="M113 692q0 334 187 531.5t497 197.5q305 0 492.5 -197.5t187.5 -527.5q0 -332 -189.5 -525.5t-494.5 -193.5q-307 0 -493.5 195.5t-186.5 519.5zM272 725q0 -176 49.5 -303t132.5 -192.5t167 -94.5t174 -29q72 0 139 16.5t139 60.5t124 110.5t86 178.5t34 253 q0 160 -48 276.5t-128 178t-165 89t-179.5 27.5t-179.5 -27.5t-166.5 -88t-130 -178t-48.5 -277.5zM500 1585v2l295 250h2l293 -250v-2l-78 -88l-215 203h-2l-217 -203z" />
<glyph unicode="&#xd5;" horiz-adv-x="1593" d="M113 692q0 334 187 531.5t497 197.5q305 0 492.5 -197.5t187.5 -527.5q0 -332 -189.5 -525.5t-494.5 -193.5q-307 0 -493.5 195.5t-186.5 519.5zM272 725q0 -176 49.5 -303t132.5 -192.5t167 -94.5t174 -29q72 0 139 16.5t139 60.5t124 110.5t86 178.5t34 253 q0 160 -48 276.5t-128 178t-165 89t-179.5 27.5t-179.5 -27.5t-166.5 -88t-130 -178t-48.5 -277.5zM397 1622q8 10 27.5 35.5t28 35t26 30t26.5 29.5t24.5 23.5t27.5 20.5t26.5 14.5t30 11.5t31.5 3q51 0 143.5 -51.5t143.5 -51.5q74 0 168 105l92 -76q-8 -12 -33.5 -45 t-36 -44t-32 -35.5t-35 -34t-32.5 -23t-37.5 -18.5t-39.5 -5q-53 0 -145 51.5t-144 51.5q-74 0 -165 -103z" />
<glyph unicode="&#xd6;" horiz-adv-x="1593" d="M113 692q0 334 187 531.5t497 197.5q305 0 492.5 -197.5t187.5 -527.5q0 -332 -189.5 -525.5t-494.5 -193.5q-307 0 -493.5 195.5t-186.5 519.5zM272 725q0 -176 49.5 -303t132.5 -192.5t167 -94.5t174 -29q72 0 139 16.5t139 60.5t124 110.5t86 178.5t34 253 q0 160 -48 276.5t-128 178t-165 89t-179.5 27.5t-179.5 -27.5t-166.5 -88t-130 -178t-48.5 -277.5zM489 1665q0 47 32 78t75 31t76 -32t33 -77t-33 -75.5t-76 -30.5q-47 0 -77 31.5t-30 74.5zM887 1665q0 45 31.5 77t74.5 32t76 -31t33 -78q0 -45 -33 -75.5t-74 -30.5 q-47 0 -77.5 31.5t-30.5 74.5z" />
<glyph unicode="&#xd7;" horiz-adv-x="1593" d="M303 965q0 16 12.5 27.5t22.5 11.5h6q18 0 59 -41l394 -394l393 394q41 41 59.5 41t27.5 -12.5t9 -24.5q2 -20 -45 -69.5t-387 -385.5l387 -387q45 -45 45 -70q0 -12 -10 -23.5t-27 -11.5q-20 0 -61 41l-393 394l-383 -385l-15.5 -15.5t-18.5 -16.5t-17.5 -11.5 t-18.5 -6.5q-14 0 -25.5 11.5t-11.5 27.5q0 20 42 64.5t390 388.5l-385 387q-2 2 -14 13.5t-17.5 17.5t-11.5 16.5t-6 18.5z" />
<glyph unicode="&#xd8;" horiz-adv-x="1593" d="M113 692q0 334 187 531.5t495 197.5q170 0 323 -71l111 182h2l106 -66l-110 -184q250 -207 250 -588q0 -326 -187.5 -521.5t-494.5 -195.5q-170 0 -324 72l-111 -182l-106 65l108 183q-125 96 -187 248.5t-62 328.5zM260 692q0 -315 170 -469l625 1022q-125 55 -260 55 q-98 0 -185.5 -27.5t-170.5 -92t-131 -189.5t-48 -299zM535 154q123 -55 260 -56q100 0 189 29t170 92.5t129 185t48 287.5q0 313 -172 482h-2z" />
<glyph unicode="&#xd9;" horiz-adv-x="1513" d="M98 1280v119h520v-119h-182v-788q0 -219 103 -314q86 -80 227 -80q152 0 249 90.5t97 300.5v791h-184v119h485v-119h-182v-782q0 -147 -43 -255t-116 -162t-148.5 -79t-159.5 -25t-162 24t-153.5 78t-121.5 160.5t-46 254.5v786h-183zM530 1688q0 27 19.5 50t50.5 23h2 q16 0 56 -18.5t294 -145.5l-49 -110q-39 14 -289 119q-84 33 -84 82z" />
<glyph unicode="&#xda;" horiz-adv-x="1513" d="M98 1280v119h520v-119h-182v-788q0 -219 103 -314q86 -80 227 -80q152 0 249 90.5t97 300.5v791h-184v119h485v-119h-182v-782q0 -147 -43 -255t-116 -162t-148.5 -79t-159.5 -25t-162 24t-153.5 78t-121.5 160.5t-46 254.5v786h-183zM645 1597q322 160 340 162q6 2 12 2 q31 0 50.5 -23.5t19.5 -49.5q0 -49 -84 -82q-250 -104 -289 -119z" />
<glyph unicode="&#xdb;" horiz-adv-x="1513" d="M98 1280v119h520v-119h-182v-788q0 -219 103 -314q86 -80 227 -80q152 0 249 90.5t97 300.5v791h-184v119h485v-119h-182v-782q0 -147 -43 -255t-116 -162t-148.5 -79t-159.5 -25t-162 24t-153.5 78t-121.5 160.5t-46 254.5v786h-183zM469 1587l295 250h2l295 -250 l-80 -90h-2l-213 203h-2l-215 -203z" />
<glyph unicode="&#xdc;" horiz-adv-x="1513" d="M98 1280v119h520v-119h-182v-788q0 -219 103 -314q86 -80 227 -80q152 0 249 90.5t97 300.5v791h-184v119h485v-119h-182v-782q0 -147 -43 -255t-116 -162t-148.5 -79t-159.5 -25t-162 24t-153.5 78t-121.5 160.5t-46 254.5v786h-183zM449 1665q0 47 32.5 78t75.5 31 q45 0 76 -33t31 -76q0 -45 -32 -75.5t-75 -30.5q-47 0 -77.5 31.5t-30.5 74.5zM848 1665q0 45 31.5 77t74.5 32q45 0 77 -31t32 -78q0 -45 -33 -75.5t-74 -30.5q-47 0 -77.5 31.5t-30.5 74.5z" />
<glyph unicode="&#xdd;" horiz-adv-x="1513" d="M31 1280v119h483v-119h-119l377 -588l377 588h-119v119h451v-119h-189l-440 -686q-23 -37 -23 -74v-399h183v-121h-512v121h182v399q0 37 -23 74l-440 686h-188zM645 1597q322 160 340 162q6 2 12 2q31 0 50.5 -23.5t19.5 -49.5q0 -49 -84 -82q-250 -104 -289 -119z" />
<glyph unicode="&#xde;" horiz-adv-x="1267" d="M104 0v121h183v1159h-183v119h506v-119h-180v-129h272q137 0 232.5 -40t139.5 -105.5t61.5 -125t17.5 -122.5q0 -51 -11.5 -101.5t-41 -104.5t-77.5 -94t-128 -66.5t-182 -26.5h-283v-244h180v-121h-506zM430 483h227q100 0 172 28t107 72t49 88t14 89q0 43 -12 83 t-43 86t-100.5 74.5t-167.5 28.5h-246v-549z" />
<glyph unicode="&#xdf;" horiz-adv-x="1030" d="M49 0v121h170v698h-170v119h170v203q0 135 66.5 214t230.5 79q285 0 285 -297q0 -258 -101 -291q-4 -2 -22.5 -5t-26.5 -8.5t-21.5 -17.5t-19.5 -37.5t-6 -64.5q0 -47 10.5 -76t30 -42t40 -19.5t52 -13.5t54.5 -15q66 -29 118 -96.5t52 -178.5q0 -154 -78 -218t-187 -64 q-78 0 -141 55l-6 -8q-4 -10 -8 -16.5t-10.5 -14.5t-13.5 -12t-15 -4q-12 0 -23 8q-8 6 -8 45v264q0 39 10.5 47t50.5 8h17q39 0 45 -36q10 -78 16 -114t29 -68.5t61 -32.5q49 0 88 33.5t39 115.5q0 113 -90 154q-18 8 -54 14t-67.5 19.5t-62.5 39.5q-82 76 -82 211 q0 242 209 256q2 25 2 76v78q0 106 -32 155.5t-138 49.5q-53 0 -86 -15.5t-47 -43t-18.5 -51t-4.5 -58.5v-1145h-307z" />
<glyph unicode="&#xe0;" horiz-adv-x="1001" d="M92 266q0 55 23.5 106.5t82 102.5t178.5 83t290 34v47l2 4v8q0 184 -234 185q-47 0 -115 -7q2 -51 -23.5 -73.5t-57.5 -22.5q-39 0 -60.5 24.5t-21.5 59.5q0 137 288 137q168 0 267.5 -78.5t99.5 -224.5q0 -2 -1 -5t-1 -5v-426q0 -33 4 -47q10 -37 85 -45t77 -10 q18 -10 18 -58q0 -33 -13 -44t-46 -11h-37q-178 2 -211 109q-152 -121 -362 -121q-111 0 -171.5 86t-60.5 192zM236 270q0 -70 57 -115.5t137 -45.5q37 0 74 8t75.5 28.5t63.5 62.5t25 101q0 6 -1 15.5t-1 13.5v149q-223 -8 -328 -67q-102 -56 -102 -150zM324 1292 q0 27 21.5 50.5t49.5 23.5q18 0 40 -14.5t128 -100.5q90 -72 154 -123l-72 -94q-10 6 -254 176l-10 7q-10 6 -13 9t-12.5 9t-13.5 11t-9 12.5t-7 15.5t-2 18z" />
<glyph unicode="&#xe1;" horiz-adv-x="1001" d="M303 1128q37 29 94 76q150 121 179.5 141.5t49.5 20.5q31 0 50.5 -23.5t19.5 -50.5q0 -12 -5 -24.5t-15.5 -21.5l-17.5 -15t-19 -14l-11 -7q-244 -170 -254 -176zM92 266q0 55 23.5 106.5t82 102.5t178.5 83t290 34v47l2 4v8q0 184 -234 185q-47 0 -115 -7 q2 -51 -23.5 -73.5t-57.5 -22.5q-39 0 -60.5 24.5t-21.5 59.5q0 137 288 137q168 0 267.5 -78.5t99.5 -224.5q0 -2 -1 -5t-1 -5v-426q0 -33 4 -47q10 -37 85 -45t77 -10q18 -10 18 -58q0 -33 -13 -44t-46 -11h-37q-178 2 -211 109q-152 -121 -362 -121q-111 0 -171.5 86 t-60.5 192zM236 270q0 -70 57 -115.5t137 -45.5q37 0 74 8t75.5 28.5t63.5 62.5t25 101q0 6 -1 15.5t-1 13.5v149q-223 -8 -328 -67q-102 -56 -102 -150z" />
<glyph unicode="&#xe2;" horiz-adv-x="1001" d="M92 266q0 55 23.5 106.5t82 102.5t178.5 83t290 34v47l2 4v8q0 184 -234 185q-47 0 -115 -7q2 -51 -23.5 -73.5t-57.5 -22.5q-39 0 -60.5 24.5t-21.5 59.5q0 137 288 137q168 0 267.5 -78.5t99.5 -224.5q0 -2 -1 -5t-1 -5v-426q0 -33 4 -47q10 -37 85 -45t77 -10 q18 -10 18 -58q0 -33 -13 -44t-46 -11h-37q-178 2 -211 109q-152 -121 -362 -121q-111 0 -171.5 86t-60.5 192zM156 1110l297 266h2l295 -266l-82 -88l-213 217h-2l-215 -217zM236 270q0 -70 57 -115.5t137 -45.5q37 0 74 8t75.5 28.5t63.5 62.5t25 101q0 6 -1 15.5t-1 13.5 v149q-223 -8 -328 -67q-102 -56 -102 -150z" />
<glyph unicode="&#xe3;" horiz-adv-x="1001" d="M170 1219q8 12 31.5 42.5t34 43t31 36t32.5 33.5t29.5 23.5t34 18.5t32.5 5q43 0 108.5 -50t108.5 -50q27 0 55.5 17.5t44 34t46.5 50.5l94 -75q-8 -12 -31.5 -43t-34 -43.5t-31 -36t-32.5 -33.5t-29.5 -23.5t-34 -18.5t-32.5 -5q-41 0 -106.5 50t-108.5 50 q-59 0 -148 -102zM92 266q0 55 23.5 106.5t82 102.5t178.5 83t290 34v47l2 4v8q0 184 -234 185q-47 0 -115 -7q2 -51 -23.5 -73.5t-57.5 -22.5q-39 0 -60.5 24.5t-21.5 59.5q0 137 288 137q168 0 267.5 -78.5t99.5 -224.5q0 -2 -1 -5t-1 -5v-426q0 -33 4 -47q10 -37 85 -45 t77 -10q18 -10 18 -58q0 -33 -13 -44t-46 -11h-37q-178 2 -211 109q-152 -121 -362 -121q-111 0 -171.5 86t-60.5 192zM236 270q0 -70 57 -115.5t137 -45.5q37 0 74 8t75.5 28.5t63.5 62.5t25 101q0 6 -1 15.5t-1 13.5v149q-223 -8 -328 -67q-102 -56 -102 -150z" />
<glyph unicode="&#xe4;" horiz-adv-x="1001" d="M92 266q0 55 23.5 106.5t82 102.5t178.5 83t290 34v47l2 4v8q0 184 -234 185q-47 0 -115 -7q2 -51 -23.5 -73.5t-57.5 -22.5q-39 0 -60.5 24.5t-21.5 59.5q0 137 288 137q168 0 267.5 -78.5t99.5 -224.5q0 -2 -1 -5t-1 -5v-426q0 -33 4 -47q10 -37 85 -45t77 -10 q18 -10 18 -58q0 -33 -13 -44t-46 -11h-37q-178 2 -211 109q-152 -121 -362 -121q-111 0 -171.5 86t-60.5 192zM205 1290q0 43 30.5 76t75.5 33q43 0 76 -31t33 -78q0 -45 -33 -75.5t-74 -30.5q-47 0 -77.5 31.5t-30.5 74.5zM236 270q0 -70 57 -115.5t137 -45.5q37 0 74 8 t75.5 28.5t63.5 62.5t25 101q0 6 -1 15.5t-1 13.5v149q-223 -8 -328 -67q-102 -56 -102 -150zM600 1290q0 47 33 78t76 31t74.5 -31t31.5 -78q0 -45 -32.5 -75.5t-73.5 -30.5q-43 0 -76 30.5t-33 75.5z" />
<glyph unicode="&#xe5;" horiz-adv-x="1001" d="M92 266q0 55 23.5 106.5t82 102.5t178.5 83t290 34v47l2 4v8q0 184 -234 185q-47 0 -115 -7q2 -51 -23.5 -73.5t-57.5 -22.5q-39 0 -60.5 24.5t-21.5 59.5q0 137 288 137q168 0 267.5 -78.5t99.5 -224.5q0 -2 -1 -5t-1 -5v-426q0 -33 4 -47q10 -37 85 -45t77 -10 q18 -10 18 -58q0 -33 -13 -44t-46 -11h-37q-178 2 -211 109q-152 -121 -362 -121q-111 0 -171.5 86t-60.5 192zM227 1204q0 78 61.5 128t166.5 50q119 0 172 -55t53 -122.5t-53.5 -123t-173.5 -55.5q-119 0 -172.5 55t-53.5 123zM236 270q0 -70 57 -115.5t137 -45.5 q37 0 74 8t75.5 28.5t63.5 62.5t25 101q0 6 -1 15.5t-1 13.5v149q-223 -8 -328 -67q-102 -56 -102 -150zM342 1204.5q0 -106.5 109 -106.5q117 0 116.5 106.5t-110.5 106.5q-115 0 -115 -106.5z" />
<glyph unicode="&#xe6;" horiz-adv-x="1478" d="M98 256q0 133 124 211t339 94q16 0 53 2t54 2v84q0 186 -234 187q-45 0 -112 -7q2 -53 -24 -74.5t-58 -21.5q-35 0 -58.5 23.5t-23.5 60.5q0 137 284 137q133 0 206 -38.5t122 -106.5q115 145 311 145q96 0 167 -37.5t107 -101t51 -129t15 -137.5q0 -27 -8 -40t-18.5 -15 t-30.5 -2h-553q0 -115 35 -195t91 -117t108.5 -51t107.5 -14q96 0 143 137q6 20 18.5 29.5t19.5 10.5t28 1q55 0 55 -35q0 -25 -18.5 -65.5t-53 -88t-99 -81t-142.5 -33.5q-213 0 -340 164h-2q-127 -166 -436 -166q-63 0 -111.5 29.5t-72 74.5t-34 86t-10.5 78zM242 260 q0 -55 50 -103t140 -48q49 0 99.5 14t96.5 60t46 116q0 31 -6 154q-125 -2 -213 -21.5t-132 -49.5t-62.5 -59.5t-18.5 -62.5zM823 604h473q-29 231 -217 232q-27 0 -55.5 -6.5t-72.5 -27t-79 -71.5t-49 -127z" />
<glyph unicode="&#xe7;" horiz-adv-x="909" d="M76 471q0 86 22.5 167t71.5 154.5t141 118.5t217 45q145 0 223 -30.5t78 -108.5q0 -39 -25.5 -61.5t-58.5 -22.5q-29 0 -55 20.5t-26 69.5q-68 6 -132 6h-4q-297 0 -297 -356q0 -193 100.5 -275.5t229.5 -82.5q63 0 101 32.5t56.5 76.5t22.5 46q10 10 58 11q49 0 49 -27 q0 -14 -12.5 -46t-39 -75t-83 -82t-129.5 -55v-19q170 -59 170 -196q0 -35 -10.5 -63.5t-32 -48t-43 -36t-59.5 -25.5t-63.5 -16.5t-73.5 -11.5t-69.5 -5t-70.5 -3t-64 -2v119h49q291 0 291 94q0 90 -168 94v117q-170 27 -267 154.5t-97 322.5z" />
<glyph unicode="&#xe8;" horiz-adv-x="909" d="M63 477q0 215 116 346t304 131q104 0 180 -37.5t115 -101t55.5 -131.5t16.5 -141q0 -33 -14.5 -42t-40.5 -9h-578q0 -109 29.5 -186t81 -116.5t108 -57t121.5 -17.5q119 0 168 135q12 27 22.5 35t40.5 8h9q51 0 51 -37q0 -70 -97.5 -168t-244.5 -98q-188 0 -315.5 128 t-127.5 359zM229 604h498q-33 231 -242 231t-256 -231zM324 1292q0 27 20.5 50.5t49.5 23.5q20 0 43.5 -16.5t148.5 -116.5q78 -63 131 -105l-72 -94q-10 6 -253 176q-25 18 -31 23.5t-18.5 17t-15.5 20.5t-3 21z" />
<glyph unicode="&#xe9;" horiz-adv-x="909" d="M246 1128q37 29 94 76q150 121 179.5 141.5t49.5 20.5q31 0 50.5 -23.5t19.5 -50.5q0 -12 -5 -24.5t-15.5 -21.5l-17.5 -15t-19 -14l-11 -7q-244 -170 -254 -176zM63 477q0 215 116 346t304 131q104 0 180 -37.5t115 -101t55.5 -131.5t16.5 -141q0 -33 -14.5 -42 t-40.5 -9h-578q0 -109 29.5 -186t81 -116.5t108 -57t121.5 -17.5q119 0 168 135q12 27 22.5 35t40.5 8h9q51 0 51 -37q0 -70 -97.5 -168t-244.5 -98q-188 0 -315.5 128t-127.5 359zM229 604h498q-33 231 -242 231t-256 -231z" />
<glyph unicode="&#xea;" horiz-adv-x="909" d="M63 477q0 215 116 346t304 131q104 0 180 -37.5t115 -101t55.5 -131.5t16.5 -141q0 -33 -14.5 -42t-40.5 -9h-578q0 -109 29.5 -186t81 -116.5t108 -57t121.5 -17.5q119 0 168 135q12 27 22.5 35t40.5 8h9q51 0 51 -37q0 -70 -97.5 -168t-244.5 -98q-188 0 -315.5 128 t-127.5 359zM156 1110l297 266h2l295 -266l-82 -88l-213 217h-2l-215 -217zM229 604h498q-33 231 -242 231t-256 -231z" />
<glyph unicode="&#xeb;" horiz-adv-x="909" d="M148 1290q0 47 31.5 78t74.5 31t76 -31t33 -78q0 -45 -33 -75.5t-74 -30.5q-47 0 -77.5 31.5t-30.5 74.5zM543 1290q0 47 33 78t76 31t74.5 -31t31.5 -78q0 -45 -32.5 -75.5t-73.5 -30.5q-43 0 -76 30.5t-33 75.5zM63 477q0 215 116 346t304 131q104 0 180 -37.5 t115 -101t55.5 -131.5t16.5 -141q0 -33 -14.5 -42t-40.5 -9h-578q0 -109 29.5 -186t81 -116.5t108 -57t121.5 -17.5q119 0 168 135q12 27 22.5 35t40.5 8h9q51 0 51 -37q0 -70 -97.5 -168t-244.5 -98q-188 0 -315.5 128t-127.5 359zM229 604h498q-33 231 -242 231t-256 -231 z" />
<glyph unicode="&#xf0;" d="M63 465q0 238 130.5 363.5t314.5 125.5q102 0 192 -45q-80 141 -235 273q-27 -14 -55.5 -31.5t-44 -27t-29.5 -17.5t-23.5 -11t-15.5 -3q-16 0 -35.5 35.5t-19.5 50.5q0 12 15 22t93 55q-57 27 -94 42.5t-49 18.5t-27.5 6t-32.5 9q-18 6 -18 19q0 14 32 41.5t54 27.5 q31 0 111 -27.5t145 -66.5q43 23 84 48.5t58.5 34.5t27.5 9q18 0 38.5 -34.5t20.5 -49.5q0 -12 -17 -24.5t-97 -57.5q125 -106 188 -192q182 -244 182 -541v-18q0 -127 -31.5 -222.5t-78.5 -148.5t-111.5 -86t-117 -43t-107.5 -10q-201 0 -324 129t-123 346zM219 485 q0 -113 27.5 -190.5t75 -114.5t92.5 -51t96 -14q49 0 95 15t93 51t75 112t28 182q0 168 -77 264.5t-216 96.5q-141 0 -215 -90.5t-74 -260.5z" />
<glyph unicode="&#xf1;" horiz-adv-x="1148" d="M242 1219q8 12 31.5 42.5t34 43t31 36t32.5 33.5t29.5 23.5t34 18.5t32.5 5q43 0 108.5 -50t108.5 -50q27 0 55.5 17.5t44 34t46.5 50.5l94 -75q-8 -12 -31.5 -43t-34 -43.5t-31 -36t-32.5 -33.5t-29.5 -23.5t-34 -18.5t-32.5 -5q-41 0 -106.5 50t-108.5 50 q-59 0 -148 -102zM57 0v121h170v622q0 37 -21.5 47.5t-117.5 10.5h-31v121l303 28v-137q119 137 299 137q94 0 154.5 -26.5t86.5 -76.5t33 -92t7 -106v-528h170v-121h-483v121h170v522q0 39 -5.5 64.5t-22.5 57.5t-60 48t-113 16q-102 0 -163.5 -73.5t-61.5 -196.5v-438h170 v-121h-484z" />
<glyph unicode="&#xf2;" d="M63 465q0 223 122 356t325 133q199 0 322.5 -133t123.5 -354t-123.5 -349t-322.5 -128t-323 128t-124 347zM217 489q0 -375 293 -374q291 0 291 372q0 348 -291 349q-293 -1 -293 -347zM324 1292q0 27 20.5 50.5t49.5 23.5q20 0 43.5 -16.5t148.5 -116.5q78 -63 131 -105 l-72 -94q-10 6 -253 176q-25 18 -31 23.5t-18.5 17t-15.5 20.5t-3 21z" />
<glyph unicode="&#xf3;" d="M301 1128q37 29 94 76q150 121 179.5 141.5t49.5 20.5q31 0 50.5 -23.5t19.5 -50.5q0 -12 -5 -24.5t-15.5 -21.5l-17.5 -15t-19 -14l-11 -7q-244 -170 -254 -176zM63 465q0 223 122 356t325 133q199 0 322.5 -133t123.5 -354t-123.5 -349t-322.5 -128t-323 128t-124 347z M217 489q0 -375 293 -374q291 0 291 372q0 348 -291 349q-293 -1 -293 -347z" />
<glyph unicode="&#xf4;" d="M63 465q0 223 122 356t325 133q199 0 322.5 -133t123.5 -354t-123.5 -349t-322.5 -128t-323 128t-124 347zM213 1110l297 266h2l295 -266l-82 -88l-213 217h-2l-215 -217zM217 489q0 -375 293 -374q291 0 291 372q0 348 -291 349q-293 -1 -293 -347z" />
<glyph unicode="&#xf5;" d="M168 1219q8 12 31.5 42.5t34 43t31 36t32.5 33.5t29.5 23.5t34 18.5t32.5 5q43 0 108.5 -50t108.5 -50q27 0 55.5 17.5t44 34t46.5 50.5l94 -75q-8 -12 -31.5 -43t-34 -43.5t-31 -36t-32.5 -33.5t-29.5 -23.5t-34 -18.5t-32.5 -5q-41 0 -106.5 50t-108.5 50 q-59 0 -148 -102zM63 465q0 223 122 356t325 133q199 0 322.5 -133t123.5 -354t-123.5 -349t-322.5 -128t-323 128t-124 347zM217 489q0 -375 293 -374q291 0 291 372q0 348 -291 349q-293 -1 -293 -347z" />
<glyph unicode="&#xf6;" d="M205 1290q0 47 31.5 78t74.5 31t76 -31t33 -78q0 -45 -33 -75.5t-74 -30.5q-47 0 -77.5 31.5t-30.5 74.5zM600 1290q0 47 33 78t76 31t74.5 -31t31.5 -78q0 -45 -32.5 -75.5t-73.5 -30.5q-43 0 -76 30.5t-33 75.5zM63 465q0 223 122 356t325 133q199 0 322.5 -133 t123.5 -354t-123.5 -349t-322.5 -128t-323 128t-124 347zM217 489q0 -375 293 -374q291 0 291 372q0 348 -291 349q-293 -1 -293 -347z" />
<glyph unicode="&#xf7;" horiz-adv-x="1593" d="M115 512q0 41 65 41h1231q63 0 63.5 -41t-57.5 -41h-1243q-59 0 -59 41zM664 43q0 55 39.5 93t91.5 38q53 0 92 -37t39 -94q0 -55 -40 -93t-91 -38q-57 0 -94 39t-37 92zM664 981q0 55 39.5 93t91.5 38q53 0 92 -37t39 -94q0 -55 -40 -93t-91 -38q-57 0 -94 39t-37 92z " />
<glyph unicode="&#xf8;" d="M74 465q0 225 120.5 357t315.5 132q86 0 180 -34l137 247h2l103 -59l-139 -252q156 -143 155 -391q0 -221 -120.5 -348t-315.5 -127q-94 0 -180 33l-137 -250l-105 57l139 254q-155 131 -155 381zM209 465q0 -176 82 -270l342 618q-63 23 -123 23q-53 0 -99 -14.5 t-95.5 -50.5t-78 -114.5t-28.5 -191.5zM391 129q66 -20 121 -20q51 0 95 12t94.5 46t80 109.5t29.5 186.5q0 176 -78 282h-2z" />
<glyph unicode="&#xf9;" horiz-adv-x="1148" d="M57 801v121l314 28v-671q0 -94 30.5 -132t141.5 -38q98 0 176 61t78 205v360q0 45 -19.5 55.5t-122.5 10.5h-28v121l313 28v-768q0 -43 20.5 -52t118.5 -9h31v-121l-307 -10v133q-133 -133 -334 -133q-66 0 -113 18.5t-71.5 44t-38 67.5t-16.5 72.5t-3 75.5v477 q0 35 -22.5 45.5t-106.5 10.5h-41zM369 1292q0 27 20.5 50.5t49.5 23.5q20 0 43.5 -16.5t148.5 -116.5q78 -63 131 -105l-72 -94q-10 6 -253 176q-25 18 -31 23.5t-18.5 17t-15.5 20.5t-3 21z" />
<glyph unicode="&#xfa;" horiz-adv-x="1148" d="M377 1128q37 29 94 76q150 121 179.5 141.5t49.5 20.5q31 0 50.5 -23.5t19.5 -50.5q0 -12 -5 -24.5t-15.5 -21.5l-17.5 -15t-19 -14l-11 -7q-244 -170 -254 -176zM57 801v121l314 28v-671q0 -94 30.5 -132t141.5 -38q98 0 176 61t78 205v360q0 45 -19.5 55.5t-122.5 10.5 h-28v121l313 28v-768q0 -43 20.5 -52t118.5 -9h31v-121l-307 -10v133q-133 -133 -334 -133q-66 0 -113 18.5t-71.5 44t-38 67.5t-16.5 72.5t-3 75.5v477q0 35 -22.5 45.5t-106.5 10.5h-41z" />
<glyph unicode="&#xfb;" horiz-adv-x="1148" d="M57 801v121l314 28v-671q0 -94 30.5 -132t141.5 -38q98 0 176 61t78 205v360q0 45 -19.5 55.5t-122.5 10.5h-28v121l313 28v-768q0 -43 20.5 -52t118.5 -9h31v-121l-307 -10v133q-133 -133 -334 -133q-66 0 -113 18.5t-71.5 44t-38 67.5t-16.5 72.5t-3 75.5v477 q0 35 -22.5 45.5t-106.5 10.5h-41zM287 1110l297 266h2l295 -266l-82 -86h-2l-211 215h-2l-213 -215h-2z" />
<glyph unicode="&#xfc;" horiz-adv-x="1148" d="M57 801v121l314 28v-671q0 -94 30.5 -132t141.5 -38q98 0 176 61t78 205v360q0 45 -19.5 55.5t-122.5 10.5h-28v121l313 28v-768q0 -43 20.5 -52t118.5 -9h31v-121l-307 -10v133q-133 -133 -334 -133q-66 0 -113 18.5t-71.5 44t-38 67.5t-16.5 72.5t-3 75.5v477 q0 35 -22.5 45.5t-106.5 10.5h-41zM276 1290q0 43 31 76t78 33q43 0 75 -31t32 -78q0 -45 -33 -75.5t-74 -30.5q-45 0 -77 32.5t-32 73.5zM676 1290q0 47 31.5 78t74.5 31q47 0 78 -33t31 -74q0 -43 -32 -75.5t-77 -32.5q-47 0 -76.5 30.5t-29.5 75.5z" />
<glyph unicode="&#xfd;" horiz-adv-x="1091" d="M451 1128q37 29 94 76q150 121 179.5 141.5t49.5 20.5q31 0 50.5 -23.5t19.5 -50.5q0 -12 -5 -24.5t-15.5 -21.5l-17.5 -15t-19 -14l-11 -7q-244 -170 -254 -176zM41 819v119h432v-119h-137q176 -487 217 -647l84 256l135 391h-137v119h416v-119h-158l-315 -899 q-23 -63 -36.5 -97t-46 -82t-77.5 -83q-84 -68 -185 -68q-74 0 -130 43t-56 107q0 37 22.5 58.5t55.5 21.5q31 0 55.5 -21.5t24.5 -58.5q0 -6 -4 -27q4 0 14 -1t14 -1q33 0 61.5 9.5t50 21.5t40 32.5t30 38t23.5 43t16.5 40t11.5 38t9 27.5q10 27 10 37q0 8 -10 39l-272 782 h-158z" />
<glyph unicode="&#xfe;" horiz-adv-x="1148" d="M49 -279h170v1496q0 27 -1 36t-14.5 18t-40 11t-79.5 2h-35v121l307 29v-598q158 113 375 112q164 0 252 -132t88 -343q0 -250 -116.5 -366.5t-272.5 -116.5q-178 0 -320 123v-392h170v-120h-483v120zM362 334q0 -76 74 -150.5t180 -74.5q121 0 210 91t89 269 q0 180 -82.5 267t-199.5 87q-96 0 -183.5 -54t-87.5 -132v-303z" />
<glyph unicode="&#xff;" horiz-adv-x="1091" d="M41 819v119h432v-119h-137q176 -487 217 -647l84 256l135 391h-137v119h416v-119h-158l-315 -899q-23 -63 -36.5 -97t-46 -82t-77.5 -83q-84 -68 -185 -68q-74 0 -130 43t-56 107q0 37 22.5 58.5t55.5 21.5q31 0 55.5 -21.5t24.5 -58.5q0 -6 -4 -27q4 0 14 -1t14 -1 q33 0 61.5 9.5t50 21.5t40 32.5t30 38t23.5 43t16.5 40t11.5 38t9 27.5q10 27 10 37q0 8 -10 39l-272 782h-158zM240 1290q0 43 30.5 76t75.5 33q43 0 76 -32t33 -77t-32 -75.5t-75 -30.5q-45 0 -76.5 32.5t-31.5 73.5zM637 1290q0 45 31.5 77t74.5 32q47 0 78 -33t31 -74 q0 -43 -30.5 -75.5t-76.5 -32.5q-47 0 -77.5 31.5t-30.5 74.5z" />
<glyph unicode="&#x100;" horiz-adv-x="1513" d="M359 1603v125h797v-125h-797zM70 0v121h174l422 1227q16 49 30.5 62t53.5 13h12q20 0 31.5 -2t23.5 -14t21 -35l430 -1251h174v-121h-481v121h151l-111 317h-522l-108 -317h149v-121h-450zM522 559h439l-220 635z" />
<glyph unicode="&#x101;" horiz-adv-x="1001" d="M73 1296v125h738v-125h-738zM92 266q0 55 23.5 106.5t82 102.5t178.5 83t290 34v47l2 4v8q0 184 -234 185q-47 0 -115 -7q2 -51 -23.5 -73.5t-57.5 -22.5q-39 0 -60.5 24.5t-21.5 59.5q0 137 288 137q168 0 267.5 -78.5t99.5 -224.5q0 -2 -1 -5t-1 -5v-426q0 -33 4 -47 q10 -37 85 -45t77 -10q18 -10 18 -58q0 -33 -13 -44t-46 -11h-37q-178 2 -211 109q-152 -121 -362 -121q-111 0 -171.5 86t-60.5 192zM236 270q0 -70 57 -115.5t137 -45.5q37 0 74 8t75.5 28.5t63.5 62.5t25 101q0 6 -1 15.5t-1 13.5v149q-223 -8 -328 -67 q-102 -56 -102 -150z" />
<glyph unicode="&#x102;" horiz-adv-x="1513" d="M70 0v121h174l422 1227q16 49 30.5 62t53.5 13h12q20 0 31.5 -2t23.5 -14t21 -35l430 -1251h174v-121h-481v121h151l-111 317h-522l-108 -317h149v-121h-450zM412 1825h120q4 -49 32 -83t68 -48.5t68.5 -19.5t55 -5t55.5 5t69 19.5t68.5 48.5t32.5 83h121 q-6 -133 -109.5 -208t-236.5 -75q-131 0 -234.5 74t-109.5 209zM522 559h439l-220 635z" />
<glyph unicode="&#x103;" horiz-adv-x="1001" d="M168 1366h121q4 -72 46 -120t87 -63.5t90 -15.5q82 0 149.5 50.5t73.5 148.5h121q-2 -145 -105.5 -236.5t-238.5 -91.5t-237.5 91.5t-106.5 236.5zM92 266q0 55 23.5 106.5t82 102.5t178.5 83t290 34v47l2 4v8q0 184 -234 185q-47 0 -115 -7q2 -51 -23.5 -73.5 t-57.5 -22.5q-39 0 -60.5 24.5t-21.5 59.5q0 137 288 137q168 0 267.5 -78.5t99.5 -224.5q0 -2 -1 -5t-1 -5v-426q0 -33 4 -47q10 -37 85 -45t77 -10q18 -10 18 -58q0 -33 -13 -44t-46 -11h-37q-178 2 -211 109q-152 -121 -362 -121q-111 0 -171.5 86t-60.5 192zM236 270 q0 -70 57 -115.5t137 -45.5q37 0 74 8t75.5 28.5t63.5 62.5t25 101q0 6 -1 15.5t-1 13.5v149q-223 -8 -328 -67q-102 -56 -102 -150z" />
<glyph unicode="&#x105;" horiz-adv-x="1001" d="M92 266q0 55 23.5 106.5t82 102.5t178.5 83t290 34v47l2 4v8q0 184 -234 185q-47 0 -115 -7q2 -51 -23.5 -73.5t-57.5 -22.5q-37 0 -60.5 25.5t-23.5 60.5q0 135 290 135q68 0 127.5 -14t116.5 -47t90 -96.5t33 -153.5q0 -8 -1 -22.5t-1 -20.5v-405q2 -37 25.5 -54.5 t99.5 -19.5q33 -2 46 -11.5t13 -43.5v-11q0 -27 -9 -40t-42 -15q-51 0 -70 -14q-12 -10 -28 -29q-45 -51 -45 -121q0 -49 23.5 -82t47.5 -33q20 0 44 19.5t36 19.5q20 0 49 -21.5t29 -39.5q0 -31 -55 -75t-125 -44q-84 0 -146.5 64.5t-62.5 156.5q0 125 119 222v2 q-27 14 -42.5 30.5t-18.5 23.5t-11 30q-16 -16 -45 -37t-120 -52.5t-197 -31.5q-111 0 -171.5 87t-60.5 191zM236 270q0 -70 57 -115.5t137 -45.5q37 0 74 8t75.5 28.5t63.5 62.5t25 101q0 6 -1 15.5t-1 13.5v149q-223 -8 -328 -67q-102 -56 -102 -150z" />
<glyph unicode="&#x106;" horiz-adv-x="1478" d="M113 698q0 340 195.5 531.5t488.5 191.5q238 0 417 -186q18 35 43 84q37 74 47.5 87t28.5 13h4q27 0 27 -43v-452q0 -31 -11.5 -38t-60.5 -7q-27 0 -37 5t-14 27q-27 162 -128 275.5t-265 113.5q-102 0 -195.5 -28.5t-182.5 -92t-143.5 -187.5t-54.5 -294 q0 -172 55.5 -295.5t146.5 -186t184.5 -90.5t195.5 -28q162 0 267.5 101.5t119.5 242.5q2 37 10.5 45.5t40.5 8.5h27q45 0 45 -37q0 -102 -60.5 -210t-194.5 -190t-310 -82q-305 0 -495.5 197.5t-190.5 523.5zM627 1597q336 162 350 164h2q31 0 50.5 -23.5t19.5 -49.5 q0 -10 -2.5 -19.5t-8.5 -16.5t-10 -12.5t-15.5 -11.5t-14.5 -8t-17 -8t-16 -6q-250 -104 -289 -119z" />
<glyph unicode="&#x107;" horiz-adv-x="909" d="M332 1128q37 29 94 76q150 121 179.5 141.5t49.5 20.5q31 0 50.5 -23.5t19.5 -50.5q0 -12 -5 -24.5t-15.5 -21.5l-17.5 -15t-19 -14l-11 -7q-244 -170 -254 -176zM76 467q0 86 20.5 165t68.5 154.5t142 121.5t223 46q55 0 93.5 -3t92.5 -14t83.5 -42t29.5 -78 q0 -37 -22.5 -60.5t-58.5 -23.5q-80 0 -84 90q-66 6 -113 6q-154 0 -227 -73q-94 -94 -95 -279q0 -102 32 -178t84 -114t104.5 -54t109.5 -16q66 0 104.5 34.5t56 76.5t23.5 46q8 8 58 9q47 0 47 -27q0 -16 -17.5 -54t-52.5 -88.5t-106.5 -86t-161.5 -35.5 q-193 0 -313.5 129t-120.5 348z" />
<glyph unicode="&#x108;" horiz-adv-x="1478" d="M500 1587l295 250l295 -250l-78 -90h-4l-213 203l-217 -203zM113 698q0 340 195.5 531.5t488.5 191.5q238 0 417 -186q18 35 43 84q37 74 47.5 87t28.5 13h4q27 0 27 -43v-452q0 -31 -11.5 -38t-60.5 -7q-27 0 -37 5t-14 27q-27 162 -128 275.5t-265 113.5 q-102 0 -195.5 -28.5t-182.5 -92t-143.5 -187.5t-54.5 -294q0 -172 55.5 -295.5t146.5 -186t184.5 -90.5t195.5 -28q162 0 267.5 101.5t119.5 242.5q2 37 10.5 45.5t40.5 8.5h27q45 0 45 -37q0 -102 -60.5 -210t-194.5 -190t-310 -82q-305 0 -495.5 197.5t-190.5 523.5z" />
<glyph unicode="&#x109;" horiz-adv-x="909" d="M233 1110l297 266l297 -266l-82 -88l-215 217l-215 -217zM76 467q0 86 20.5 165t68.5 154.5t142 121.5t223 46q55 0 93.5 -3t92.5 -14t83.5 -42t29.5 -78q0 -37 -22.5 -60.5t-58.5 -23.5q-80 0 -84 90q-66 6 -113 6q-154 0 -227 -73q-94 -94 -95 -279q0 -102 32 -178 t84 -114t104.5 -54t109.5 -16q66 0 104.5 34.5t56 76.5t23.5 46q8 8 58 9q47 0 47 -27q0 -16 -17.5 -54t-52.5 -88.5t-106.5 -86t-161.5 -35.5q-193 0 -313.5 129t-120.5 348z" />
<glyph unicode="&#x10a;" horiz-adv-x="1478" d="M687 1630q0 47 32.5 77.5t75.5 30.5t75 -30.5t32 -77.5q0 -45 -33 -76t-74 -31q-43 0 -75.5 31t-32.5 76zM113 698q0 340 195.5 531.5t488.5 191.5q238 0 417 -186q18 35 43 84q37 74 47.5 87t28.5 13h4q27 0 27 -43v-452q0 -31 -11.5 -38t-60.5 -7q-27 0 -37 5t-14 27 q-27 162 -128 275.5t-265 113.5q-102 0 -195.5 -28.5t-182.5 -92t-143.5 -187.5t-54.5 -294q0 -172 55.5 -295.5t146.5 -186t184.5 -90.5t195.5 -28q162 0 267.5 101.5t119.5 242.5q2 37 10.5 45.5t40.5 8.5h27q45 0 45 -37q0 -102 -60.5 -210t-194.5 -190t-310 -82 q-305 0 -495.5 197.5t-190.5 523.5z" />
<glyph unicode="&#x10b;" horiz-adv-x="909" d="M422 1315q0 47 32.5 77.5t75.5 30.5t75 -30.5t32 -77.5q0 -45 -33 -76t-74 -31q-43 0 -75.5 31t-32.5 76zM76 467q0 86 20.5 165t68.5 154.5t142 121.5t223 46q55 0 93.5 -3t92.5 -14t83.5 -42t29.5 -78q0 -37 -22.5 -60.5t-58.5 -23.5q-80 0 -84 90q-66 6 -113 6 q-154 0 -227 -73q-94 -94 -95 -279q0 -102 32 -178t84 -114t104.5 -54t109.5 -16q66 0 104.5 34.5t56 76.5t23.5 46q8 8 58 9q47 0 47 -27q0 -16 -17.5 -54t-52.5 -88.5t-106.5 -86t-161.5 -35.5q-193 0 -313.5 129t-120.5 348z" />
<glyph unicode="&#x10c;" horiz-adv-x="1478" d="M113 698q0 340 195.5 531.5t488.5 191.5q238 0 417 -186q18 35 43 84q37 74 47.5 87t28.5 13h4q27 0 27 -43v-452q0 -31 -11.5 -38t-60.5 -7q-27 0 -37 5t-14 27q-27 162 -128 275.5t-265 113.5q-102 0 -195.5 -28.5t-182.5 -92t-143.5 -187.5t-54.5 -294 q0 -172 55.5 -295.5t146.5 -186t184.5 -90.5t195.5 -28q162 0 267.5 101.5t119.5 242.5q2 37 10.5 45.5t40.5 8.5h27q45 0 45 -37q0 -102 -60.5 -210t-194.5 -190t-310 -82q-305 0 -495.5 197.5t-190.5 523.5zM588 1812l59 78q59 -43 131 -98q70 -53 82 -53t94 61 q68 51 121 90l60 -78q-258 -209 -267 -210q-4 -2 -8 -3q-10 0 -119 89q-85 71 -153 124z" />
<glyph unicode="&#x10d;" horiz-adv-x="909" d="M217 1331l70 70l209 -213h2l209 213l67 -70l-276 -289h-2zM76 467q0 86 20.5 165t68.5 154.5t142 121.5t223 46q55 0 93.5 -3t92.5 -14t83.5 -42t29.5 -78q0 -37 -22.5 -60.5t-58.5 -23.5q-80 0 -84 90q-66 6 -113 6q-154 0 -227 -73q-94 -94 -95 -279q0 -102 32 -178 t84 -114t104.5 -54t109.5 -16q66 0 104.5 34.5t56 76.5t23.5 46q8 8 58 9q47 0 47 -27q0 -16 -17.5 -54t-52.5 -88.5t-106.5 -86t-161.5 -35.5q-193 0 -313.5 129t-120.5 348z" />
<glyph unicode="&#x10e;" horiz-adv-x="1552" d="M100 0v121h183v1159h-183v119h672q154 0 273.5 -45t191.5 -116t119 -167t64.5 -189.5t17.5 -195.5q0 -61 -9.5 -124.5t-37 -161t-98 -185.5t-177.5 -143q-137 -72 -346 -72h-670zM414 1812l59 78q47 -35 113 -84q90 -68 102 -67q2 0 5 1t8.5 3t10.5 6t14 10t18.5 13.5 t25.5 19.5t33.5 25.5t44 33t53.5 39.5l60 -78q-74 -61 -166 -135q-94 -78 -107 -78h-2q-10 0 -119 89q-85 71 -153 124zM430 121h315q154 0 263.5 47t167 131t82 178t24.5 211q0 94 -14.5 175t-51 160t-96 134t-155 89t-220.5 34h-315v-1159z" />
<glyph unicode="&#x10f;" horiz-adv-x="1388" d="M76 467q0 217 98 350t276.5 133t337.5 -108v377q-2 39 -25.5 47t-119.5 8h-25v119l308 30v-1243q0 -37 19.5 -48t107.5 -11h45v-121l-316 -10v129q-158 -129 -344 -129q-164 0 -263 129t-99 348zM229 467q0 -109 27 -185.5t73 -111.5t89 -48t92 -13q109 0 190.5 74.5 t81.5 158.5v283q0 2 1 8t1 8q0 78 -78.5 133t-175.5 55q-53 0 -99 -13t-95 -49t-78 -112.5t-29 -187.5zM1010 1393q0 45 29.5 75.5t76.5 30.5q61 0 99 -53t38 -133q0 -78 -34.5 -148.5t-71.5 -106.5t-55 -36q-14 0 -43 29.5t-29 44.5q0 12 21.5 28.5t49 55.5t42.5 104h-9 q-63 0 -88.5 35t-25.5 74z" />
<glyph unicode="&#x110;" horiz-adv-x="1552" d="M100 0v121h183v506h-109q-53 0 -63.5 13t-10.5 54q0 51 43 54h140v532h-183v119h672q154 0 273.5 -45t191.5 -116t119 -167t64.5 -189.5t17.5 -195.5q0 -61 -9.5 -124.5t-37 -161t-98 -185.5t-177.5 -143q-137 -72 -346 -72h-670zM430 121h315q154 0 263.5 47t167 131 t82 179t24.5 210q0 94 -14.5 175t-51 160t-96 134t-155 89t-220.5 34h-315v-532h365q29 -2 39 -15.5t10 -42.5q0 -41 -13.5 -52t-46.5 -11h-354v-506z" />
<glyph unicode="&#x111;" horiz-adv-x="1148" d="M76 467q0 217 98 350t276.5 133t337.5 -108v211h-446v118h446v48q-2 37 -22.5 46t-108.5 9h-39v119l308 30v-252h141v-118h-141v-883q2 -33 25.5 -41t113.5 -8h33v-121l-316 -10v129q-154 -129 -344 -129q-164 0 -263 129t-99 348zM229 467q0 -109 27 -185.5t73 -111.5 t89 -48t92 -13q109 0 190.5 75.5t81.5 157.5v283q0 2 1 8t1 8q0 78 -78.5 133t-175.5 55q-53 0 -99 -13t-95 -49t-78 -112.5t-29 -187.5z" />
<glyph unicode="&#x112;" horiz-adv-x="1382" d="M316 1603v125h797v-125h-797zM98 0v121h183v1153h-183v119h1112l58 -519h-121q-29 262 -47 330q-10 33 -29.5 45.5t-90.5 18.5t-243 6h-303v-490h158q182 0 205 17q16 14 20 69q4 90 4 134v20h119v-600h-119v20q0 43 -4 134q-4 57 -20 69q-23 16 -203 17h-160v-543h328 q225 0 295 12q49 8 65 37q25 43 74 356q2 23 8 58h121l-86 -584h-1141z" />
<glyph unicode="&#x113;" horiz-adv-x="909" d="M114 1296v125h738v-125h-738zM63 477q0 215 116 346t304 131q104 0 180 -37.5t115 -101t55.5 -131.5t16.5 -141q0 -33 -14.5 -42t-40.5 -9h-578q0 -109 29.5 -186t81 -116.5t108 -57t121.5 -17.5q119 0 168 135q12 27 22.5 35t40.5 8h9q51 0 51 -37q0 -70 -97.5 -168 t-244.5 -98q-188 0 -315.5 128t-127.5 359zM229 604h498q-33 231 -242 231t-256 -231z" />
<glyph unicode="&#x114;" horiz-adv-x="1382" d="M369 1825h121q4 -49 31.5 -83t67.5 -48.5t68.5 -19.5t55.5 -5t55.5 5t68.5 19.5t68.5 48.5t32.5 83h119q-6 -133 -107.5 -208t-236.5 -75q-131 0 -234.5 76t-109.5 207zM98 0v121h183v1153h-183v119h1112l58 -519h-121q-29 262 -47 330q-10 33 -29.5 45.5t-90.5 18.5 t-243 6h-303v-490h158q182 0 205 17q16 14 20 69q4 90 4 134v20h119v-600h-119v20q0 43 -4 134q-4 57 -20 69q-23 16 -203 17h-160v-543h328q225 0 295 12q49 8 65 37q25 43 74 356q2 23 8 58h121l-86 -584h-1141z" />
<glyph unicode="&#x115;" horiz-adv-x="909" d="M139 1366h121q4 -72 46 -120t87 -63.5t90 -15.5q82 0 149.5 50.5t73.5 148.5h121q-2 -145 -105.5 -236.5t-238.5 -91.5t-237.5 91.5t-106.5 236.5zM63 477q0 215 116 346t304 131q104 0 180 -37.5t115 -101t55.5 -131.5t16.5 -141q0 -33 -14.5 -42t-40.5 -9h-578 q0 -109 29.5 -186t81 -116.5t108 -57t121.5 -17.5q119 0 168 135q12 27 22.5 35t40.5 8h9q51 0 51 -37q0 -70 -97.5 -168t-244.5 -98q-188 0 -315.5 128t-127.5 359zM229 604h498q-33 231 -242 231t-256 -231z" />
<glyph unicode="&#x116;" horiz-adv-x="1382" d="M605 1630q0 47 32.5 77.5t75.5 30.5t75 -30.5t32 -77.5q0 -45 -33 -76t-74 -31q-43 0 -75.5 31t-32.5 76zM98 0v121h183v1153h-183v119h1112l58 -519h-121q-29 262 -47 330q-10 33 -29.5 45.5t-90.5 18.5t-243 6h-303v-490h158q182 0 205 17q16 14 20 69q4 90 4 134v20 h119v-600h-119v20q0 43 -4 134q-4 57 -20 69q-23 16 -203 17h-160v-543h328q225 0 295 12q49 8 65 37q25 43 74 356q2 23 8 58h121l-86 -584h-1141z" />
<glyph unicode="&#x117;" horiz-adv-x="909" d="M375 1315q0 47 32.5 77.5t75.5 30.5t75 -30.5t32 -77.5q0 -45 -33 -76t-74 -31q-43 0 -75.5 31t-32.5 76zM63 477q0 215 116 346t304 131q104 0 180 -37.5t115 -101t55.5 -131.5t16.5 -141q0 -33 -14.5 -42t-40.5 -9h-578q0 -109 29.5 -186t81 -116.5t108 -57 t121.5 -17.5q119 0 168 135q12 27 22.5 35t40.5 8h9q51 0 51 -37q0 -70 -97.5 -168t-244.5 -98q-188 0 -315.5 128t-127.5 359zM229 604h498q-33 231 -242 231t-256 -231z" />
<glyph unicode="&#x118;" horiz-adv-x="1382" d="M98 0v121h183v1153h-183v119h1112l58 -519h-121q-29 262 -47 330q-10 33 -29.5 45.5t-90.5 18.5t-243 6h-303v-490h158q182 0 205 17q16 14 20 69q4 90 4 134v20h119v-600h-119v20q0 43 -4 134q-4 59 -18 69q-23 16 -195 17h-170v-543h328q225 0 295 12q49 8 65 37 q25 43 74 356q2 23 8 58h121l-86 -584h-123q-31 0 -45 -6t-41 -35q-53 -57 -53 -123q0 -47 24.5 -82t53.5 -35q16 0 39.5 18.5t35.5 18.5q18 0 47 -20.5t29 -40.5q0 -31 -53 -73t-121 -42q-82 0 -147.5 65.5t-65.5 155.5q0 102 96 199h-817z" />
<glyph unicode="&#x119;" horiz-adv-x="909" d="M63 475q0 217 117 348t305 131q104 0 180 -37.5t114 -101t55.5 -130.5t17.5 -142q0 -33 -15.5 -42t-43.5 -9h-576q0 -109 29.5 -186t81 -116.5t108 -57t121.5 -17.5q119 0 168 135q12 27 22.5 35t40.5 8h9q51 0 51 -35q0 -31 -28.5 -81t-63.5 -85q-27 -27 -91.5 -74 t-93 -85.5t-28.5 -98.5q0 -49 24.5 -82t50.5 -33q16 0 41 18.5t37 18.5q16 0 45 -21.5t29 -37.5q0 -31 -54 -74t-120 -43q-84 0 -148.5 64.5t-64.5 157t86 188.5q-195 18 -300.5 150t-105.5 335zM229 604h498q-33 231 -242 231t-256 -231z" />
<glyph unicode="&#x11a;" horiz-adv-x="1382" d="M98 0v121h183v1153h-183v119h1112l58 -519h-121q-29 262 -47 330q-10 33 -29.5 45.5t-90.5 18.5t-243 6h-303v-490h158q182 0 205 17q16 14 20 69q4 90 4 134v20h119v-600h-119v20q0 43 -4 134q-4 57 -20 69q-23 16 -203 17h-160v-543h328q225 0 295 12q49 8 65 37 q25 43 74 356q2 23 8 58h121l-86 -584h-1141zM354 1812l60 78q47 -35 112 -84q90 -68 103 -67q2 0 5 1t8 3t10 6t14.5 10t18.5 13.5t25.5 19.5t34 25.5t44 33t53.5 39.5l59 -78q-74 -61 -166 -135q-94 -78 -106 -78h-2q-10 0 -119 89q-86 71 -154 124z" />
<glyph unicode="&#x11b;" horiz-adv-x="909" d="M202 1331l70 70l209 -213h2l209 213l67 -70l-276 -289h-2zM63 477q0 215 116 346t304 131q104 0 180 -37.5t115 -101t55.5 -131.5t16.5 -141q0 -33 -14.5 -42t-40.5 -9h-578q0 -109 29.5 -186t81 -116.5t108 -57t121.5 -17.5q119 0 168 135q12 27 22.5 35t40.5 8h9 q51 0 51 -37q0 -70 -97.5 -168t-244.5 -98q-188 0 -315.5 128t-127.5 359zM229 604h498q-33 231 -242 231t-256 -231z" />
<glyph unicode="&#x11c;" horiz-adv-x="1601" d="M500 1587l295 250l295 -250l-78 -90h-4l-213 203l-217 -203zM113 698q0 340 196.5 531.5t487.5 191.5q242 0 417 -186q18 35 43 84q37 74 47.5 87t28.5 13h4q27 0 27 -43v-452q0 -31 -10.5 -38t-50.5 -7q-27 0 -38.5 2t-17.5 11t-6 21.5t-6 42t-18 62.5 q-37 104 -128.5 193t-236.5 89q-80 0 -155.5 -15t-154.5 -58t-137.5 -108.5t-95.5 -174t-37 -248.5q0 -283 156 -440.5t436 -157.5q264 0 326 99q18 33 18 92v188h-256v119h553v-119h-141v-438q0 -33 -16 -33q-29 0 -88 92q-152 -121 -449 -121q-326 0 -512 201t-186 520z " />
<glyph unicode="&#x11d;" d="M154 1110l297 266l297 -266l-82 -88l-215 217l-215 -217zM55 -133q0 51 28 114.5t103 104.5q-49 78 -49 150q0 86 53 161q-61 96 -61 213q0 152 89 246t235 94q104 0 200 -61q100 72 209 72q55 0 92 -30t37 -73q0 -31 -20.5 -51.5t-48.5 -20.5q-49 0 -70 54l-64 -9 l-65 -16q55 -98 55 -203q0 -152 -90 -245t-235 -93q-102 0 -191 54q-18 -45 -18 -72q0 -41 23.5 -73.5t64.5 -37.5q14 -2 43 -2h149q80 0 137.5 -6t122 -23.5t107.5 -59.5t61 -105q12 -39 13 -82q0 -109 -106.5 -193t-344.5 -84q-248 0 -353.5 85.5t-105.5 191.5zM186 -129 q0 -66 73 -116t255 -50q170 0 245 49t75 111q0 147 -318 147h-154q-104 0 -140 -44t-36 -97zM266 614q0 -225 186.5 -225t186.5 221q0 225 -184 226q-189 -1 -189 -222z" />
<glyph unicode="&#x11e;" horiz-adv-x="1601" d="M113 700q0 324 188 522.5t508 198.5q252 0 414 -100q78 88 92 94q12 4 20 4q29 0 29 -37v-239q0 -31 -10.5 -39t-51 -8t-51.5 10q-2 2 -12 27.5t-30.5 50t-58.5 53.5t-112.5 46t-177.5 17q-262 0 -425 -150.5t-163 -451.5q0 -285 156 -442.5t440 -157.5q342 0 342 183 q0 4 -1 12t-1 12v172h-256v119h553v-119h-141v-438q0 -33 -16 -33q-29 0 -88 92q-143 -121 -447 -121q-324 0 -512 198.5t-188 524.5zM459 1825h121q4 -49 31.5 -83t67.5 -48.5t68.5 -19.5t55 -5t55.5 5t69 19.5t68.5 48.5t32.5 83h119q-6 -133 -108.5 -208t-235.5 -75 q-131 0 -234.5 74t-109.5 209z" />
<glyph unicode="&#x11f;" d="M55 -133q0 51 28 114.5t103 104.5q-49 78 -49 150q0 86 53 161q-61 96 -61 213q0 152 89 246t235 94q104 0 200 -61q100 72 209 72q55 0 92 -30t37 -73q0 -31 -20.5 -51.5t-48.5 -20.5q-49 0 -70 54l-64 -9l-65 -16q55 -98 55 -203q0 -152 -90 -245t-235 -93 q-102 0 -191 54q-18 -45 -18 -72q0 -41 23.5 -73.5t64.5 -37.5q14 -2 43 -2h149q80 0 137.5 -6t122 -23.5t107.5 -59.5t61 -105q12 -39 13 -82q0 -109 -106.5 -193t-344.5 -84q-248 0 -353.5 85.5t-105.5 191.5zM166 1366h121q6 -96 73.5 -147.5t149.5 -51.5t149.5 51.5 t73.5 147.5h121q-2 -145 -105.5 -236.5t-238.5 -91.5t-237.5 91.5t-106.5 236.5zM186 -129q0 -66 73 -116t255 -50q170 0 245 49t75 111q0 147 -318 147h-154q-104 0 -140 -44t-36 -97zM266 614q0 -225 186.5 -225t186.5 221q0 225 -184 226q-189 -1 -189 -222z" />
<glyph unicode="&#x120;" horiz-adv-x="1601" d="M687 1630q0 47 32.5 77.5t75.5 30.5t75 -30.5t32 -77.5q0 -45 -33 -76t-74 -31q-43 0 -75.5 31t-32.5 76zM113 698q0 340 196.5 531.5t487.5 191.5q242 0 417 -186q18 35 43 84q37 74 47.5 87t28.5 13h4q27 0 27 -43v-452q0 -31 -10.5 -38t-50.5 -7q-27 0 -38.5 2 t-17.5 11t-6 21.5t-6 42t-18 62.5q-37 104 -128.5 193t-236.5 89q-80 0 -155.5 -15t-154.5 -58t-137.5 -108.5t-95.5 -174t-37 -248.5q0 -283 156 -440.5t436 -157.5q264 0 326 99q18 33 18 92v188h-256v119h553v-119h-141v-438q0 -33 -16 -33q-29 0 -88 92 q-152 -121 -449 -121q-326 0 -512 201t-186 520z" />
<glyph unicode="&#x121;" d="M343 1315q0 47 32.5 77.5t75.5 30.5t75 -30.5t32 -77.5q0 -45 -33 -76t-74 -31q-43 0 -75.5 31t-32.5 76zM55 -133q0 51 28 114.5t103 104.5q-49 78 -49 150q0 86 53 161q-61 96 -61 213q0 152 89 246t235 94q104 0 200 -61q100 72 209 72q55 0 92 -30t37 -73 q0 -31 -20.5 -51.5t-48.5 -20.5q-49 0 -70 54l-64 -9l-65 -16q55 -98 55 -203q0 -152 -90 -245t-235 -93q-102 0 -191 54q-18 -45 -18 -72q0 -41 23.5 -73.5t64.5 -37.5q14 -2 43 -2h149q80 0 137.5 -6t122 -23.5t107.5 -59.5t61 -105q12 -39 13 -82q0 -109 -106.5 -193 t-344.5 -84q-248 0 -353.5 85.5t-105.5 191.5zM186 -129q0 -66 73 -116t255 -50q170 0 245 49t75 111q0 147 -318 147h-154q-104 0 -140 -44t-36 -97zM266 614q0 -225 186.5 -225t186.5 221q0 225 -184 226q-189 -1 -189 -222z" />
<glyph unicode="&#x124;" horiz-adv-x="1513" d="M461 1587l295 250l295 -250l-78 -90h-4l-213 203l-217 -203zM98 0v121h183v1159h-183v119h520v-119h-182v-492h641v492h-182v119h518v-119h-182v-1159h182v-121h-518v121h182v547h-641v-547h182v-121h-520z" />
<glyph unicode="&#x125;" horiz-adv-x="1148" d="M287 1579l297 266l297 -266l-82 -88l-215 217l-215 -217zM57 0v121h170v1098q0 37 -20.5 46t-110.5 9h-39v119l308 30v-516l2 -88q121 131 295 131q92 0 152 -26.5t86 -76.5t33 -92t7 -106v-528h170v-121h-483v121h170v522q0 39 -5.5 64.5t-22.5 57.5t-60 48t-113 16 q-102 0 -163.5 -73.5t-61.5 -196.5v-438h170v-121h-484z" />
<glyph unicode="&#x127;" horiz-adv-x="1200" d="M84 1114q0 37 8 50.5t39 15.5h148q0 6 1 16t1 14q0 43 -20.5 53.5t-113.5 10.5h-38v119l309 30v-243h205q33 0 43 -12.5t10 -43.5q0 -41 -11.5 -52t-50.5 -11h-196v-242q121 131 295 131q92 0 152.5 -26.5t86 -76.5t32.5 -92t7 -106v-528h170v-121h-483v121h170v522 q0 39 -5 64.5t-22.5 57.5t-60.5 48t-113 16q-102 0 -163.5 -73.5t-61.5 -196.5v-438h172v-121h-485v121h170v940h-142q-16 0 -26.5 3t-18.5 15t-8 35z" />
<glyph unicode="&#x128;" horiz-adv-x="716" d="M51 1702q10 14 29.5 43t29 42t27 36.5t28.5 35t26.5 24.5t31 18.5t29.5 5.5q37 0 94 -48.5t94 -48.5q47 0 113 78q2 4 7 10.5t7 8.5l99 -68q-94 -139 -129 -170q-37 -33 -72 -33q-37 0 -94.5 47.5t-94.5 47.5q-25 0 -49 -16.5t-37.5 -32t-39.5 -48.5zM90 0v121h191v1159 h-191v119h537v-119h-191v-1159h191v-121h-537z" />
<glyph unicode="&#x129;" horiz-adv-x="579" d="M-6 1241q10 14 29.5 43t28.5 42t26.5 36.5t29 35t27 25t30.5 18.5t30 5q37 0 94 -48t94 -48q47 0 113 77q2 4 7 10.5t7 8.5l98 -68q-94 -139 -129 -170q-37 -33 -71 -32q-37 0 -94.5 47t-94.5 47q-25 0 -49.5 -16.5t-37.5 -32t-40 -47.5zM61 0v121h170v608q0 49 -17 60.5 t-114 11.5h-30v121l299 28v-829h153v-121h-461z" />
<glyph unicode="&#x12a;" horiz-adv-x="716" d="M-11 1523v125h738v-125h-738zM90 0v121h191v1159h-191v119h537v-119h-191v-1159h191v-121h-537z" />
<glyph unicode="&#x12c;" horiz-adv-x="716" d="M14 1825h121q4 -49 31.5 -83t67.5 -48.5t68.5 -19.5t55.5 -5t55.5 5t68.5 19.5t68.5 48.5t32.5 83h119q-6 -133 -107.5 -208t-236.5 -75q-131 0 -234.5 76t-109.5 207zM90 0v121h191v1159h-191v119h537v-119h-191v-1159h191v-121h-537z" />
<glyph unicode="&#x130;" horiz-adv-x="716" d="M90 0v121h191v1159h-191v119h537v-119h-191v-1159h191v-121h-537zM250 1679q0 45 32.5 76t75.5 31q45 0 76 -30t31 -77q0 -45 -33 -76.5t-74 -31.5q-47 0 -77.5 32.5t-30.5 75.5z" />
<glyph unicode="&#x131;" horiz-adv-x="579" d="M61 0v121h170v608q0 49 -17 60.5t-114 11.5h-30v121l299 28v-829h153v-121h-461z" />
<glyph unicode="&#x134;" horiz-adv-x="1040" d="M426 1587l295 250l295 -250l-78 -90h-4l-213 203l-217 -203zM135 227q0 45 26.5 68.5t63.5 23.5q33 0 59.5 -24.5t26.5 -61.5q0 -35 -30 -69q66 -66 174 -66q51 0 89 17.5t57.5 46t27.5 47t12 37.5q6 37 6 71v963h-237v119h522v-119h-137v-967q0 -96 -32 -164.5 t-85 -104.5t-107.5 -51.5t-111.5 -15.5q-139 0 -231.5 74t-92.5 176z" />
<glyph unicode="&#x139;" horiz-adv-x="1267" d="M98 0v121h183v1159h-183v119h564v-119h-228v-1159h262q205 4 253 16.5t63 67.5q20 78 49 379h121l-58 -584h-1026zM170 1597q322 160 338 162q6 2 12 2q31 0 50.5 -23.5t19.5 -49.5q0 -49 -84 -82q-262 -111 -287 -119z" />
<glyph unicode="&#x13a;" horiz-adv-x="579" d="M61 0v121h170v1098q0 37 -21.5 46t-109.5 9h-39v119l308 30v-1302h172v-121h-480zM190 1597q252 125 291 143.5t58 20.5h2q31 0 50 -22.5t19 -50.5q0 -12 -4 -22.5t-8 -17t-16.5 -14.5t-17.5 -10t-19.5 -8t-18.5 -8q-61 -27 -113.5 -48.5t-79 -32.5t-46 -20.5 t-29.5 -13.5t-18 -6z" />
<glyph unicode="&#x13d;" horiz-adv-x="1267" d="M98 0v121h183v1159h-183v119h564v-119h-228v-1159h262q205 4 253 16.5t63 67.5q20 78 49 379h121l-58 -584h-1026zM797 1477q0 45 29.5 75.5t76.5 30.5q61 0 99 -53t38 -133q0 -78 -34.5 -148.5t-71.5 -105.5t-55 -35q-14 0 -43 28.5t-29 43.5q0 10 22.5 28.5t51 57.5 t39.5 102h-9q-61 0 -87.5 34t-26.5 75z" />
<glyph unicode="&#x13e;" horiz-adv-x="831" d="M61 0v121h170v1098q0 37 -21.5 46t-109.5 9h-39v119l308 30v-1302h172v-121h-480zM453 1393q0 45 29.5 75.5t76.5 30.5q61 0 99 -53t38 -133q0 -78 -33.5 -148.5t-70.5 -105.5t-55 -35q-14 0 -44 28.5t-30 43.5q0 10 22.5 28.5t51 58.5t38.5 101h-8q-61 0 -87.5 34 t-26.5 75z" />
<glyph unicode="&#x141;" horiz-adv-x="1267" d="M98 0v121h183v461l-86 -74l-78 92q150 129 155 139q6 10 9 31v510h-183v119h564v-119h-228v-408l264 228l78 -92q-313 -268 -330 -287q-10 -14 -12 -37v-563h262q205 4 253 16.5t63 67.5q20 78 49 379h121l-58 -584h-1026z" />
<glyph unicode="&#x142;" horiz-adv-x="700" d="M115 598l174 150v466q0 39 -22.5 49.5t-121.5 10.5h-28v119l309 30v-557l119 103l78 -92q-37 -33 -93 -80q-78 -66 -91 -81.5t-13 -35.5v-4v-555h170v-121h-479v121h172v467l-96 -80z" />
<glyph unicode="&#x143;" horiz-adv-x="1513" d="M102 0v121h183v1159h-183v119h277q43 0 67 -39l662 -1073v993h-182v119h485v-119h-182v-1214q0 -23 -1 -33t-13.5 -21.5t-38.5 -11.5h-13q-29 0 -41 8t-26 33l-690 1122v-1042h182v-121h-486zM561 1597q322 160 338 162q6 2 12 2q31 0 50.5 -23.5t19.5 -49.5 q0 -49 -84 -82q-262 -111 -287 -119z" />
<glyph unicode="&#x144;" horiz-adv-x="1148" d="M434 1128q37 29 94 76q150 121 179.5 141.5t49.5 20.5q31 0 50.5 -23.5t19.5 -50.5q0 -12 -5 -24.5t-15.5 -21.5l-17.5 -15t-19 -14l-11 -7q-244 -170 -254 -176zM57 0v121h170v622q0 37 -21.5 47.5t-117.5 10.5h-31v121l303 28v-137q119 137 299 137q94 0 154.5 -26.5 t86.5 -76.5t33 -92t7 -106v-528h170v-121h-483v121h170v522q0 39 -5.5 64.5t-22.5 57.5t-60 48t-113 16q-102 0 -163.5 -73.5t-61.5 -196.5v-438h170v-121h-484z" />
<glyph unicode="&#x147;" horiz-adv-x="1513" d="M102 0v121h183v1159h-183v119h277q43 0 67 -39l662 -1073v993h-182v119h485v-119h-182v-1214q0 -23 -1 -33t-13.5 -21.5t-38.5 -11.5h-13q-29 0 -41 8t-26 33l-690 1122v-1042h182v-121h-486zM483 1812l60 78q47 -35 112 -84q90 -68 103 -67q2 0 5 1t8 3t10 6t14.5 10 t18.5 13.5t25.5 19.5t34 25.5t44 33t53.5 39.5l59 -78q-74 -61 -166 -135q-94 -78 -106 -78h-2q-10 0 -119 89q-86 71 -154 124z" />
<glyph unicode="&#x148;" horiz-adv-x="1148" d="M57 0v121h170v622q0 37 -21.5 47.5t-117.5 10.5h-31v121l303 28v-137q119 137 299 137q94 0 154.5 -26.5t86.5 -76.5t33 -92t7 -106v-528h170v-121h-483v121h170v522q0 39 -5.5 64.5t-22.5 57.5t-60 48t-113 16q-102 0 -163.5 -73.5t-61.5 -196.5v-438h170v-121h-484z M219 1331l70 70l209 -213l209 213l69 -70l-278 -289z" />
<glyph unicode="&#x14a;" horiz-adv-x="1609" d="M98 0v121h183v1159h-183v119h336v-133q184 184 463 184q236 0 403.5 -133t190.5 -328q4 -29 4 -86v-592q0 -94 -32.5 -163.5t-85 -104.5t-108 -50.5t-112.5 -15.5q-139 0 -230 75t-91 175q0 49 28.5 70.5t59.5 21.5q35 0 60.5 -23.5t25.5 -62.5q0 -14 -4.5 -27 t-9.5 -20.5t-11 -13.5l-6 -8q66 -66 174 -66q137 0 176 121q10 33 10 103v579q0 205 -147 324q-131 104 -313 104q-188 0 -316.5 -107.5t-128.5 -207.5v-893h182v-121h-518z" />
<glyph unicode="&#x14b;" horiz-adv-x="1148" d="M57 0v121h170v622q0 37 -21.5 47.5t-117.5 10.5h-31v121l303 28v-137q119 137 299 137q80 0 135.5 -21.5t83 -50t43 -76.5t17.5 -80t2 -81v-584q0 -137 -26.5 -234t-71.5 -145.5t-89 -68t-91 -19.5q-80 0 -133.5 40t-53.5 102q0 35 23.5 58.5t58.5 23.5t57.5 -23.5 t22.5 -66.5v-11q6 0 19.5 -1t19.5 -1q72 0 96.5 67.5t24.5 248.5v614q0 41 -4.5 65.5t-21.5 57.5t-61 49t-114 16q-88 0 -156.5 -64.5t-68.5 -221.5v-422h170v-121h-484z" />
<glyph unicode="&#x14c;" horiz-adv-x="1593" d="M400 1603v125h797v-125h-797zM113 692q0 334 187 531.5t497 197.5q305 0 492.5 -197.5t187.5 -527.5q0 -332 -189.5 -525.5t-494.5 -193.5q-307 0 -493.5 195.5t-186.5 519.5zM272 725q0 -176 49.5 -303t132.5 -192.5t167 -94.5t174 -29q72 0 139 16.5t139 60.5 t124 110.5t86 178.5t34 253q0 160 -48 276.5t-128 178t-165 89t-179.5 27.5t-179.5 -27.5t-166.5 -88t-130 -178t-48.5 -277.5z" />
<glyph unicode="&#x14d;" d="M139 1296v125h738v-125h-738zM63 465q0 223 122 356t325 133q199 0 322.5 -133t123.5 -354t-123.5 -349t-322.5 -128t-323 128t-124 347zM217 489q0 -375 293 -374q291 0 291 372q0 348 -291 349q-293 -1 -293 -347z" />
<glyph unicode="&#x14e;" horiz-adv-x="1593" d="M453 1825h121q4 -49 31.5 -83t67.5 -48.5t68.5 -19.5t55.5 -5t55.5 5t68.5 19.5t68.5 48.5t32.5 83h119q-6 -133 -107.5 -208t-236.5 -75q-131 0 -234.5 76t-109.5 207zM113 692q0 334 187 531.5t497 197.5q305 0 492.5 -197.5t187.5 -527.5q0 -332 -189.5 -525.5 t-494.5 -193.5q-307 0 -493.5 195.5t-186.5 519.5zM272 725q0 -176 49.5 -303t132.5 -192.5t167 -94.5t174 -29q72 0 139 16.5t139 60.5t124 110.5t86 178.5t34 253q0 160 -48 276.5t-128 178t-165 89t-179.5 27.5t-179.5 -27.5t-166.5 -88t-130 -178t-48.5 -277.5z" />
<glyph unicode="&#x14f;" d="M164 1366h121q4 -72 46 -120t87 -63.5t90 -15.5q82 0 149.5 50.5t73.5 148.5h121q-2 -145 -105.5 -236.5t-238.5 -91.5t-237.5 91.5t-106.5 236.5zM63 465q0 223 122 356t325 133q199 0 322.5 -133t123.5 -354t-123.5 -349t-322.5 -128t-323 128t-124 347zM217 489 q0 -375 293 -374q291 0 291 372q0 348 -291 349q-293 -1 -293 -347z" />
<glyph unicode="&#x150;" horiz-adv-x="1593" d="M113 692q0 334 187 531.5t497 197.5q305 0 492.5 -197.5t187.5 -527.5q0 -332 -189.5 -525.5t-494.5 -193.5q-307 0 -493.5 195.5t-186.5 519.5zM272 725q0 -176 49.5 -303t132.5 -192.5t167 -94.5t174 -29q72 0 139 16.5t139 60.5t124 110.5t86 178.5t34 253 q0 160 -48 276.5t-128 178t-165 89t-179.5 27.5t-179.5 -27.5t-166.5 -88t-130 -178t-48.5 -277.5zM514 1597q70 35 170 84q160 80 178 80h2q31 0 50.5 -23.5t19.5 -49.5q0 -10 -2 -19.5t-8 -16.5t-10.5 -12.5t-15.5 -11.5t-14 -8t-17.5 -8t-16.5 -6q-262 -111 -287 -119z M856 1597q70 35 170 84q160 80 178 80h2q29 0 49.5 -22.5t20.5 -50.5q0 -10 -2 -18.5t-5 -13.5t-9.5 -12.5t-10.5 -10.5t-14 -8t-12 -7t-14.5 -7t-14.5 -5q-250 -104 -289 -119z" />
<glyph unicode="&#x151;" d="M246 1128q37 29 94 76q150 121 179.5 141.5t49.5 20.5q31 0 50.5 -23.5t19.5 -50.5q0 -12 -5 -24.5t-15.5 -21.5l-17.5 -15t-19 -14l-11 -7q-244 -170 -254 -176zM586 1128q37 29 94 76q150 121 179.5 141.5t49.5 20.5q31 0 50.5 -23.5t19.5 -50.5q0 -12 -5 -24.5 t-15.5 -21.5l-17.5 -15t-19 -14l-11 -7q-244 -170 -254 -176zM63 465q0 223 122 356t325 133q199 0 322.5 -133t123.5 -354t-123.5 -349t-322.5 -128t-323 128t-124 347zM217 489q0 -375 293 -374q291 0 291 372q0 348 -291 349q-293 -1 -293 -347z" />
<glyph unicode="&#x152;" horiz-adv-x="2064" d="M129 692q0 330 186.5 529.5t493.5 199.5q51 0 149.5 -11t178.5 -11h755l58 -518h-121q-35 315 -57 356q-12 23 -56 31q-78 12 -258 12h-270v-494h178q195 0 221 15q18 12 25 65v6q4 43 4 132v22h121v-598h-121v21q0 141 -8.5 172.5t-44.5 37.5q-41 6 -215 7h-160v-545 h289q154 0 223 8t88.5 21.5t30.5 48.5q14 55 67 385h119l-84 -584h-782q-80 0 -178.5 -11.5t-151.5 -11.5q-305 0 -492.5 193.5t-187.5 521.5zM285 725q0 -287 145 -457t387 -170q55 0 91 7.5t61.5 31t40 49t21.5 82t8 106.5t1 144v359q0 94 -2 144t-8 106.5t-20.5 83 t-39 51t-61.5 33t-90 8.5q-246 0 -390 -156t-144 -422z" />
<glyph unicode="&#x153;" horiz-adv-x="1593" d="M63 475q0 219 120 349t311 130q227 0 356 -190q117 190 344 190q96 0 167 -37.5t106.5 -101t51 -129t15.5 -137.5q0 -27 -8 -40t-18.5 -15t-28.5 -2h-555q0 -115 34.5 -196t92 -117t108.5 -50t107 -14q90 0 133 104q4 12 10 27.5t8 20.5t6 12.5t11.5 8.5t15.5 3t25 2 q57 0 57 -37q0 -14 -10.5 -43t-35 -68t-58 -73.5t-90 -58t-121.5 -23.5q-236 0 -365 196q-115 -197 -358 -196q-188 0 -309.5 129t-121.5 356zM207 483q0 -113 27.5 -191.5t73.5 -115.5t91 -52t94.5 -15t94.5 15t91 52t73.5 117t27.5 194q0 104 -27.5 178t-73.5 108 t-91 48.5t-94 14.5q-127 0 -207 -83.5t-80 -269.5zM934 604h475q-29 231 -217 232q-27 0 -55.5 -6.5t-72.5 -27t-80 -71.5t-50 -127z" />
<glyph unicode="&#x154;" horiz-adv-x="1497" d="M100 0v121h183v1159h-183v119h572q133 0 235.5 -25.5t162.5 -64.5t99 -91.5t53.5 -100.5t14.5 -97q0 -104 -61.5 -192.5t-184.5 -139.5q35 -20 60.5 -43.5t43 -42t30 -46.5t18.5 -44t10 -52t5 -52.5t2 -62.5t1 -64q2 -119 64 -162q31 -20 59 -21q68 0 82 80l5 22.5 t7 14.5t17.5 12t29.5 2q16 0 23.5 -1t19 -4t15.5 -12t4 -26q0 -70 -51.5 -139.5t-147.5 -69.5q-47 0 -92 12.5t-91 43t-75 94t-29 154.5v129q0 68 -20 102q-76 127 -305 127h-246v-518h182v-121h-512zM430 760h232q297 0 378 129q37 57 37 131q0 147 -135 213 q-96 47 -283 47h-229v-520zM559 1597q336 162 350 164q31 0 50.5 -23.5t19.5 -49.5q0 -10 -2 -18.5t-5 -13.5t-9.5 -12.5t-10.5 -10.5t-14 -8t-12 -7t-14.5 -7t-14.5 -5q-250 -104 -289 -119z" />
<glyph unicode="&#x155;" horiz-adv-x="802" d="M281 1128q37 29 94 76q150 121 179.5 141.5t49.5 20.5q31 0 50.5 -23.5t19.5 -50.5q0 -12 -5 -24.5t-15.5 -21.5l-17.5 -15t-19 -14l-11 -7q-244 -170 -254 -176zM49 0v121h170v622q0 37 -21.5 47.5t-117.5 10.5h-31v121l297 28v-143q106 141 250 141q63 0 105 -33.5 t42 -85.5q0 -35 -23.5 -57t-55.5 -22q-27 0 -52.5 18t-27.5 61q-106 -18 -168 -112q-59 -92 -60 -250v-346h215v-121h-522z" />
<glyph unicode="&#x158;" horiz-adv-x="1497" d="M100 0v121h183v1159h-183v119h572q133 0 235.5 -25.5t162.5 -64.5t99 -91.5t53.5 -100.5t14.5 -97q0 -104 -61.5 -192.5t-184.5 -139.5q35 -20 60.5 -43.5t43 -42t30 -46.5t18.5 -44t10 -52t5 -52.5t2 -62.5t1 -64q2 -119 64 -162q31 -20 59 -21q68 0 82 80l5 22.5 t7 14.5t17.5 12t29.5 2q16 0 23.5 -1t19 -4t15.5 -12t4 -26q0 -70 -51.5 -139.5t-147.5 -69.5q-47 0 -92 12.5t-91 43t-75 94t-29 154.5v129q0 68 -20 102q-76 127 -305 127h-246v-518h182v-121h-512zM373 1812l59 78q59 -43 131 -98q70 -53 82 -53t94 61q68 51 121 90 l60 -78q-258 -209 -267 -210q-4 -2 -8 -3q-10 0 -119 89q-85 71 -153 124zM430 760h232q297 0 378 129q37 57 37 131q0 147 -135 213q-96 47 -283 47h-229v-520z" />
<glyph unicode="&#x159;" horiz-adv-x="802" d="M161 1331l70 70l209 -213h2l209 213l67 -70l-276 -289h-2zM49 0v121h170v622q0 37 -21.5 47.5t-117.5 10.5h-31v121l297 28v-143q106 141 250 141q63 0 105 -33.5t42 -85.5q0 -35 -23.5 -57t-55.5 -22q-27 0 -52.5 18t-27.5 61q-106 -18 -168 -112q-59 -92 -60 -250v-346 h215v-121h-522z" />
<glyph unicode="&#x15a;" horiz-adv-x="1138" d="M113 18v406q0 25 8 32t33 9h28q39 0 47 -16l4 -52q6 -51 35 -111.5t86 -105.5q106 -82 262 -82q143 0 206 82t63 178q0 82 -41 145.5t-105 94.5q-33 16 -196.5 56t-200.5 57q-96 43 -162.5 132t-66.5 208q0 164 108.5 267t288.5 103q209 0 338 -147q55 131 65 141 q8 6 23 6q29 0 29 -43v-405q-2 -27 -10.5 -33t-30.5 -6h-19q-49 0 -57 14q-2 2 -9.5 46t-25.5 92.5t-51 100.5t-98.5 86t-153.5 34q-127 0 -192.5 -71t-65.5 -165q0 -139 135 -211q37 -18 199 -57t205 -58q100 -45 165.5 -143t65.5 -227q0 -166 -103.5 -282t-300.5 -116 q-236 0 -389 148q-41 -102 -54 -123.5t-32 -21.5q-30 -1 -30 38zM344 1597q70 35 170 84q160 80 178 80h2q31 0 50.5 -23.5t19.5 -49.5q0 -10 -2 -19.5t-8 -16.5t-10.5 -12.5t-15.5 -11.5t-14 -8t-17.5 -8t-16.5 -6q-262 -111 -287 -119z" />
<glyph unicode="&#x15b;" horiz-adv-x="806" d="M68 43v285q0 25 9 34t44 9q25 0 37 -1t20 -9.5t10 -13.5t7.5 -27.5t11.5 -38.5q53 -172 205 -172q195 0 194 151q0 59 -38 96t-83 52q-29 10 -109.5 25.5t-123.5 31.5q-68 27 -126 84t-58 151q0 254 323 254q121 0 201 -63q39 57 51 61q6 2 16 2q29 0 29 -51v-213 q0 -39 -10 -48t-55 -9q-18 0 -29.5 1t-17 8t-6.5 11t-3 19.5t-4 25.5q-31 143 -182 144q-180 0 -180 -125q0 -49 35.5 -80t75.5 -42t108.5 -24.5t97.5 -21.5q90 -29 155.5 -100.5t65.5 -178.5q0 -281 -325 -280q-145 0 -238 98q-4 -6 -12 -22.5t-14.5 -26.5t-14.5 -23.5 t-17 -19.5t-20 -6q-12 0 -22 8q-8 6 -8 45zM252 1128q37 29 94 76q150 121 179.5 141.5t49.5 20.5q31 0 50.5 -23.5t19.5 -50.5q0 -12 -5 -24.5t-15.5 -21.5l-17.5 -15t-17 -14l-12 -7q-244 -170 -254 -176z" />
<glyph unicode="&#x15c;" horiz-adv-x="1138" d="M213 1587l295 250l295 -250l-78 -90h-4l-213 203l-217 -203zM113 18v406q0 25 8 32t33 9h28q39 0 47 -16l4 -52q6 -51 35 -111.5t86 -105.5q106 -82 262 -82q143 0 206 82t63 178q0 82 -41 145.5t-105 94.5q-33 16 -196.5 56t-200.5 57q-96 43 -162.5 132t-66.5 208 q0 164 108.5 267t288.5 103q209 0 338 -147q55 131 65 141q8 6 23 6q29 0 29 -43v-405q-2 -27 -10.5 -33t-30.5 -6h-19q-49 0 -57 14q-2 2 -9.5 46t-25.5 92.5t-51 100.5t-98.5 86t-153.5 34q-127 0 -192.5 -71t-65.5 -165q0 -139 135 -211q37 -18 199 -57t205 -58 q100 -45 165.5 -143t65.5 -227q0 -166 -103.5 -282t-300.5 -116q-236 0 -389 148q-41 -102 -54 -123.5t-32 -21.5q-30 -1 -30 38z" />
<glyph unicode="&#x15d;" horiz-adv-x="806" d="M96 1110l297 266l297 -266l-82 -88l-215 217l-215 -217zM68 43v285q0 25 9 34t44 9q25 0 37 -1t20 -9.5t10 -13.5t7.5 -27.5t11.5 -38.5q53 -172 203 -172q111 0 153.5 47t42.5 106q0 25 -8 47.5t-20.5 37.5t-31 28.5t-34.5 20.5t-37.5 13.5t-34 9.5t-28.5 7l-17 2 q-2 0 -20.5 3t-35.5 7t-45 12.5t-51.5 18.5t-50 24.5t-48 35t-40 44t-27.5 56.5t-9 69q0 45 13 85t46 81t101.5 65.5t164.5 24.5q117 0 199 -63q4 6 9 14t8 12.5t8.5 10.5t7.5 9t7 7t8 6t8 3t9 1q23 0 27 -12t4 -39v-213q0 -39 -10 -48t-55 -9q-18 0 -29.5 1t-17 8t-6.5 11 t-3 19.5t-4 25.5q-4 29 -16 56.5t-56.5 57.5t-109.5 30q-100 0 -140 -39t-40 -88q0 -47 36.5 -78t77.5 -43t110 -25.5t95 -21.5q82 -27 150.5 -96.5t68.5 -178.5q0 -49 -13 -93t-46 -89t-101.5 -72.5t-166.5 -27.5q-137 0 -236 98q-4 -6 -12 -22.5t-14.5 -26.5t-14.5 -23.5 t-17 -19.5t-20 -6q-12 0 -22 8q-8 6 -8 45z" />
<glyph unicode="&#x15e;" horiz-adv-x="1138" d="M113 18v406q0 25 8 32t33 9h28q39 0 47 -16l4 -52q6 -51 35 -111.5t86 -105.5q106 -82 262 -82q143 0 206 81t63 179q0 166 -146 240q-33 16 -196.5 56t-200.5 57q-96 43 -162.5 132t-66.5 208q0 164 108.5 267t288.5 103q209 0 338 -147q55 131 65 141q8 6 23 6 q29 0 29 -43v-405q-2 -27 -10.5 -33t-30.5 -6h-19q-49 0 -57 14q-2 2 -9.5 46t-25.5 92.5t-51 100.5t-98.5 86t-153.5 34q-129 0 -193.5 -70t-64.5 -164q0 -80 47 -140.5t117 -86.5q25 -8 166 -42t174 -46q111 -39 188.5 -139.5t77.5 -241.5q0 -152 -84 -260.5t-242 -132.5 v-7q170 -59 170 -196q0 -35 -10 -63.5t-31.5 -48t-43 -36t-59.5 -25.5t-63.5 -16.5t-73.5 -11.5t-69.5 -5t-71 -3t-63.5 -2v119q16 2 42 1t57.5 0t65.5 3t64.5 8t55 16.5t40 26.5t15.5 39q0 90 -168 94v105q-188 16 -324 143q-47 -125 -65 -139q-12 -8 -21 -9q-30 0 -30 41z " />
<glyph unicode="&#x15f;" horiz-adv-x="806" d="M68 43v285q0 25 9 34t44 9q25 0 37 -1t20 -9.5t10 -13.5t7.5 -27.5t11.5 -38.5q53 -172 205 -172q195 0 194 151q0 59 -38 96t-83 52q-29 10 -109.5 25.5t-123.5 31.5q-68 27 -126 84t-58 151q0 254 323 254q121 0 201 -63q4 6 9 14t8 12.5t8.5 10.5t7.5 9t7 7t8 6t8 3 t9 1q23 0 27 -12t4 -39v-213q0 -39 -10 -48t-55 -9q-18 0 -29.5 1t-17 8t-6.5 11t-3 19.5t-4 25.5q-4 29 -16 56.5t-56.5 57.5t-109.5 30q-180 0 -180 -125q0 -37 17.5 -63.5t54 -42t67.5 -24.5t83 -18.5t75 -15.5q100 -27 170.5 -99.5t70.5 -183.5q0 -252 -264 -278v-15 q170 -59 170 -196q0 -35 -10 -63.5t-31.5 -48t-43 -36t-59.5 -25.5t-63.5 -16.5t-74 -11.5t-70 -5t-70.5 -3t-63 -2v119q8 0 68.5 1t94 4t82 11t72 28.5t23.5 51.5q0 88 -168 92v119q-88 20 -156 92q-4 -6 -12 -22.5t-14.5 -26.5t-14.5 -23.5t-17 -19.5t-20 -6q-12 0 -22 8 q-8 6 -8 45z" />
<glyph unicode="&#x160;" horiz-adv-x="1138" d="M113 18v406q0 25 8 32t33 9h28q39 0 47 -16l4 -52q6 -51 35 -111.5t86 -105.5q106 -82 262 -82q143 0 206 82t63 178q0 82 -41 145.5t-105 94.5q-33 16 -196.5 56t-200.5 57q-96 43 -162.5 132t-66.5 208q0 164 108.5 267t288.5 103q209 0 338 -147q55 131 65 141 q8 6 23 6q29 0 29 -43v-405q-2 -27 -10.5 -33t-30.5 -6h-19q-49 0 -57 14q-2 2 -9.5 46t-25.5 92.5t-51 100.5t-98.5 86t-153.5 34q-127 0 -192.5 -71t-65.5 -165q0 -139 135 -211q37 -18 199 -57t205 -58q100 -45 165.5 -143t65.5 -227q0 -166 -103.5 -282t-300.5 -116 q-236 0 -389 148q-41 -102 -54 -123.5t-32 -21.5q-30 -1 -30 38zM295 1812l59 78q59 -43 131 -98q70 -53 82.5 -53t94.5 61l120 90l60 -78q-258 -209 -267 -210q-4 -2 -8 -3h-2q-10 0 -90 66q-96 77 -180 147z" />
<glyph unicode="&#x161;" horiz-adv-x="806" d="M68 43v285q0 25 9 34t44 9q25 0 37 -1t20 -9.5t10 -13.5t7.5 -27.5t11.5 -38.5q53 -172 205 -172q195 0 194 151q0 59 -38 96t-83 52q-20 8 -106 24.5t-127 32.5q-68 27 -126 84t-58 151q0 254 323 254q121 0 201 -63q39 57 51 61q6 2 16 2q29 0 29 -51v-213 q0 -39 -10 -48t-55 -9q-18 0 -29.5 1t-17 8t-6.5 11t-3 19.5t-4 25.5q-31 143 -182 144q-180 0 -180 -125q0 -47 35.5 -80t75.5 -44t110 -24.5t96 -21.5q88 -27 154.5 -98.5t66.5 -178.5q0 -283 -327 -282q-135 0 -236 100q-6 -12 -15 -29.5t-14.5 -25.5t-11.5 -18.5 t-11 -14.5t-11.5 -7t-14.5 -3q-23 0 -26.5 12t-3.5 41zM98 1331l70 70l209 -213h2l209 213l67 -70l-276 -289h-2z" />
<glyph unicode="&#x162;" horiz-adv-x="1478" d="M72 870l41 519h1249l41 -519h-121q-27 322 -41 357q-10 20 -45 28q-55 12 -195 13h-186v-1147h256v-121h-262v-23q170 -57 170 -196q0 -39 -15.5 -71t-38 -52t-60.5 -36.5t-69.5 -25t-80.5 -13.5t-78 -7t-78 -4t-63 -2v119q8 0 62 1t92 4t85 11t73 28.5t26 51.5 q0 88 -168 92v123h-263v121h256v1147h-186q-205 0 -231 -29q-12 -12 -20.5 -67.5t-28.5 -301.5h-121z" />
<glyph unicode="&#x163;" horiz-adv-x="796" d="M37 819v119q102 8 148 102.5t48 300.5h121v-403h293v-119h-293v-543q0 -162 101 -161q47 0 80 49q27 43 26 131v98h121v-108q0 -100 -46 -172t-161 -113h53v-23q172 -61 172 -196q0 -35 -10 -63.5t-31.5 -48t-43 -36t-59.5 -25.5t-63.5 -16.5t-73.5 -11.5t-69.5 -5 t-71 -3t-63.5 -2v119q14 2 39 1t56.5 0t65.5 3t65.5 8t57 16.5t41 26.5t15.5 39q0 90 -170 94v113q-49 4 -83 24.5t-51.5 45t-26.5 66.5t-11 69.5t-2 72.5v551h-174z" />
<glyph unicode="&#x164;" horiz-adv-x="1478" d="M72 870l41 519h1249l41 -519h-121q-25 283 -33 332q-6 29 -22.5 41t-65.5 18.5t-160 6.5h-186v-1147h256v-121h-668v121h256v1147h-186q-111 0 -160 -6.5t-65.5 -18.5t-22.5 -41q-8 -49 -32 -332h-121zM463 1812l59 78q47 -35 113 -84q90 -68 102.5 -67.5t93.5 61.5 q68 51 121 90l60 -78q-258 -209 -267 -210q-4 -2 -8 -3h-2q-10 0 -119 89q-85 71 -153 124z" />
<glyph unicode="&#x165;" horiz-adv-x="796" d="M37 819v119q102 8 148 102.5t48 300.5h121v-403h293v-119h-293v-543q0 -162 101 -161q47 0 80 49q27 43 26 131v98h121v-96q0 -6 -1 -26.5t-1 -29t-3 -27.5t-7 -31.5t-12.5 -31t-20.5 -34.5q-88 -127 -242 -127q-53 0 -91 22.5t-55.5 50t-26.5 74.5t-10 68.5t-1 62.5v551 h-174zM539 1450q0 45 29.5 75.5t76.5 30.5q61 0 99 -53t38 -133q0 -78 -34.5 -148.5t-71.5 -105.5t-55 -35q-14 0 -43 29t-29 43q0 12 21.5 28.5t49 55.5t42.5 104h-7q-63 0 -89.5 35t-26.5 74z" />
<glyph unicode="&#x168;" horiz-adv-x="1513" d="M98 1280v119h520v-119h-182v-788q0 -219 103 -314q86 -80 227 -80q152 0 249 90.5t97 300.5v791h-184v119h485v-119h-182v-782q0 -147 -43 -255t-116 -162t-148.5 -79t-159.5 -25t-162 24t-153.5 78t-121.5 160.5t-46 254.5v786h-183zM457 1702q10 14 29.5 43t28.5 42 t26.5 36.5t29 35t26.5 24.5t30.5 18.5t29.5 5.5q37 0 95.5 -48.5t95.5 -48.5q47 0 113 78q2 4 7 10.5t7 8.5l96 -68q-6 -10 -21.5 -32.5t-22.5 -34t-20.5 -31t-22.5 -29.5t-21.5 -24.5t-22.5 -21.5t-21.5 -15.5t-22.5 -11.5t-24 -3q-37 0 -95 47.5t-95 47.5 q-25 0 -49.5 -16.5t-37.5 -32t-40 -48.5z" />
<glyph unicode="&#x169;" horiz-adv-x="1148" d="M57 801v121l314 28v-671q0 -94 30.5 -132t141.5 -38q98 0 176 61t78 205v360q0 45 -19.5 55.5t-122.5 10.5h-28v121l313 28v-768q0 -43 20.5 -52t118.5 -9h31v-121l-307 -10v133q-133 -133 -334 -133q-66 0 -113 18.5t-71.5 44t-38 67.5t-16.5 72.5t-3 75.5v477 q0 35 -22.5 45.5t-106.5 10.5h-41zM248 1241q10 14 29.5 43t28.5 42t26.5 36.5t29 35t26.5 25t30.5 18.5t30.5 5q37 0 95 -48t95 -48q8 0 16.5 1t16.5 5t14 8t14.5 11t12.5 11.5t13 14.5t12 14t12.5 15.5t13.5 15.5l98 -68q-6 -10 -21.5 -32.5t-22.5 -34t-20.5 -30.5 t-22.5 -29.5t-21.5 -25t-22.5 -21.5t-21.5 -15t-22.5 -11t-23 -3q-37 0 -95.5 47t-95.5 47q-25 0 -49.5 -16.5t-37.5 -32t-40 -47.5z" />
<glyph unicode="&#x16a;" horiz-adv-x="1513" d="M359 1603v125h797v-125h-797zM98 1280v119h520v-119h-182v-788q0 -219 103 -314q86 -80 227 -80q152 0 249 90.5t97 300.5v791h-184v119h485v-119h-182v-782q0 -147 -43 -255t-116 -162t-148.5 -79t-159.5 -25t-162 24t-153.5 78t-121.5 160.5t-46 254.5v786h-183z" />
<glyph unicode="&#x16b;" horiz-adv-x="1148" d="M215 1296v125h738v-125h-738zM57 801v121l314 28v-671q0 -94 30.5 -132t141.5 -38q98 0 176 61t78 205v360q0 45 -19.5 55.5t-122.5 10.5h-28v121l313 28v-768q0 -43 20.5 -52t118.5 -9h31v-121l-307 -10v133q-133 -133 -334 -133q-66 0 -113 18.5t-71.5 44t-38 67.5 t-16.5 72.5t-3 75.5v477q0 35 -22.5 45.5t-106.5 10.5h-41z" />
<glyph unicode="&#x16c;" horiz-adv-x="1513" d="M412 1825h121q4 -49 31.5 -83t67.5 -48.5t68.5 -19.5t55.5 -5t55.5 5t68.5 19.5t68.5 48.5t32.5 83h119q-6 -133 -107.5 -208t-236.5 -75q-131 0 -234.5 76t-109.5 207zM98 1280v119h520v-119h-182v-788q0 -219 103 -314q86 -80 227 -80q152 0 249 90.5t97 300.5v791 h-184v119h485v-119h-182v-782q0 -147 -43 -255t-116 -162t-148.5 -79t-159.5 -25t-162 24t-153.5 78t-121.5 160.5t-46 254.5v786h-183z" />
<glyph unicode="&#x16d;" horiz-adv-x="1148" d="M240 1366h121q4 -72 46 -120t87 -63.5t90 -15.5q82 0 149.5 50.5t73.5 148.5h121q-2 -145 -105.5 -236.5t-238.5 -91.5t-237.5 91.5t-106.5 236.5zM57 801v121l314 28v-671q0 -94 30.5 -132t141.5 -38q98 0 176 61t78 205v360q0 45 -19.5 55.5t-122.5 10.5h-28v121 l313 28v-768q0 -43 20.5 -52t118.5 -9h31v-121l-307 -10v133q-133 -133 -334 -133q-66 0 -113 18.5t-71.5 44t-38 67.5t-16.5 72.5t-3 75.5v477q0 35 -22.5 45.5t-106.5 10.5h-41z" />
<glyph unicode="&#x16e;" horiz-adv-x="1513" d="M98 1280v119h520v-119h-182v-788q0 -219 103 -314q86 -80 227 -80q152 0 249 90.5t97 300.5v791h-184v119h485v-119h-182v-782q0 -147 -43 -255t-116 -162t-148.5 -79t-159.5 -25t-162 24t-153.5 78t-121.5 160.5t-46 254.5v786h-183zM545 1632q0 92 62.5 150.5t167 58.5 t165.5 -59.5t61 -151.5t-62 -150.5t-166.5 -58.5t-166 59.5t-61.5 151.5zM659 1632q0 -53 28 -71.5t81 -18.5h2q35 0 56.5 4t41 24.5t19.5 61.5q0 90 -113 90q-59 0 -87 -19.5t-28 -70.5z" />
<glyph unicode="&#x16f;" horiz-adv-x="1148" d="M356 1204.5q0 67.5 54.5 122.5t175.5 55q119 0 172 -55t53 -122.5t-53 -123t-174 -55.5q-119 0 -173.5 55.5t-54.5 123zM471 1204.5q0 -106.5 111 -106.5q55 0 84.5 23.5t29.5 82.5q0 106 -110 107q-115 0 -115 -106.5zM57 801v121l314 28v-671q0 -94 30.5 -132 t141.5 -38q98 0 176 61t78 205v360q0 45 -19.5 55.5t-122.5 10.5h-28v121l313 28v-768q0 -43 20.5 -52t118.5 -9h31v-121l-307 -10v133q-133 -133 -334 -133q-66 0 -113 18.5t-71.5 44t-38 67.5t-16.5 72.5t-3 75.5v477q0 35 -22.5 45.5t-106.5 10.5h-41z" />
<glyph unicode="&#x170;" horiz-adv-x="1513" d="M98 1280v119h520v-119h-182v-788q0 -219 103 -314q86 -80 227 -80q152 0 249 90.5t97 300.5v791h-184v119h485v-119h-182v-782q0 -147 -43 -255t-116 -162t-148.5 -79t-159.5 -25t-162 24t-153.5 78t-121.5 160.5t-46 254.5v786h-183zM475 1597q322 160 338 162q6 2 12 2 q31 0 50.5 -23.5t19.5 -49.5q0 -49 -84 -82q-262 -111 -287 -119zM815 1597q240 119 287 141.5t65 22.5q31 0 50.5 -23.5t19.5 -49.5q0 -49 -84 -82q-262 -111 -287 -119z" />
<glyph unicode="&#x171;" horiz-adv-x="1148" d="M320 1128q37 29 94 76q150 121 179.5 141.5t49.5 20.5q31 0 50.5 -23.5t19.5 -50.5q0 -12 -5 -24.5t-15.5 -21.5l-17.5 -15t-19 -14l-11 -7q-244 -170 -254 -176zM662 1128q37 29 94 76q150 121 179.5 141.5t49.5 20.5q31 0 50.5 -23.5t19.5 -50.5q0 -12 -5 -24.5 t-15.5 -21.5l-17.5 -15t-19 -14l-11 -7q-244 -170 -254 -176zM57 801v121l314 28v-671q0 -94 30.5 -132t141.5 -38q98 0 176 61t78 205v360q0 45 -19.5 55.5t-122.5 10.5h-28v121l313 28v-768q0 -43 20.5 -52t118.5 -9h31v-121l-307 -10v133q-133 -133 -334 -133 q-66 0 -113 18.5t-71.5 44t-38 67.5t-16.5 72.5t-3 75.5v477q0 35 -22.5 45.5t-106.5 10.5h-41z" />
<glyph unicode="&#x174;" horiz-adv-x="2082" d="M745 1587l295 250l295 -250l-78 -90h-4l-213 203l-217 -203zM39 1280v119h455v-119h-154q289 -956 324 -1075l32 117l271 895l10 40v23h-154v119h455v-119h-154l265 -872l57 -203l43 149l280 926h-172v119h445v-119h-154l-379 -1243q-10 -33 -25.5 -43t-49.5 -10h-9 q-37 0 -50 13t-25 58l-287 936q-4 12 -15.5 52t-19.5 63q-16 -88 -88 -344l-158 -537q-63 -205 -71 -217q-18 -25 -60 -24h-10q-12 0 -22.5 2t-17.5 7t-12 9t-9.5 13.5t-5.5 14.5t-5 17t-6 19l-370 1214h-154z" />
<glyph unicode="&#x175;" horiz-adv-x="1490" d="M446 1110l297 266l297 -266l-82 -88l-215 217l-215 -217zM39 819v119h424v-119h-141q174 -586 184 -647q12 74 94 344t82 281q0 2 -1 10t-1 12h-145v119h405v-119h-141l192 -647l195 647h-160v119h424v-119h-145l-232 -758q-10 -31 -15 -42t-20.5 -19t-44.5 -8h-10 q-31 0 -44 11t-24 42q-39 129 -72.5 238.5t-50 164t-29.5 97.5t-19.5 63.5t-12.5 36.5q-25 -160 -158 -600q-10 -31 -24 -42t-45 -11h-12q-33 0 -46.5 11t-27.5 54l-234 762h-145z" />
<glyph unicode="&#x176;" horiz-adv-x="1513" d="M459 1587l295 250l295 -250l-78 -90h-4l-213 203l-217 -203zM31 1280v119h483v-119h-119l377 -588l377 588h-119v119h451v-119h-189l-440 -686q-23 -37 -23 -74v-399h183v-121h-512v121h182v399q0 37 -23 74l-440 686h-188z" />
<glyph unicode="&#x177;" horiz-adv-x="1091" d="M248 1110l297 266l297 -266l-82 -88l-215 217l-215 -217zM41 819v119h432v-119h-137q176 -487 217 -647l84 256l135 391h-137v119h416v-119h-158l-315 -899q-23 -63 -36.5 -97t-46 -82t-77.5 -83q-84 -68 -185 -68q-74 0 -130 43t-56 107q0 37 22.5 58.5t55.5 21.5 q31 0 55.5 -21.5t24.5 -58.5q0 -6 -4 -27q4 0 14 -1t14 -1q33 0 61.5 9.5t50 21.5t40 32.5t30 38t23.5 43t16.5 40t11.5 38t9 27.5q10 27 10 37q0 8 -10 39l-272 782h-158z" />
<glyph unicode="&#x178;" horiz-adv-x="1513" d="M31 1280v119h483v-119h-119l377 -588l377 588h-119v119h451v-119h-189l-440 -686q-23 -37 -23 -74v-399h183v-121h-512v121h182v399q0 37 -23 74l-440 686h-188zM449 1665q0 47 31.5 78t74.5 31t76 -31t33 -78q0 -45 -33 -75.5t-74 -30.5q-47 0 -77.5 31.5t-30.5 74.5z M848 1665q0 45 31.5 77t74.5 32q45 0 77 -31t32 -78q0 -45 -34 -75.5t-75 -30.5q-47 0 -76.5 31.5t-29.5 74.5z" />
<glyph unicode="&#x179;" horiz-adv-x="1251" d="M113 61q0 10 1 19.5t3 15.5t9 16.5t12 18.5t19.5 28.5t26.5 37.5l748 1083h-273q-182 0 -250.5 -10t-93 -38t-34.5 -104q-8 -59 -19 -247h-121l23 518h915q33 0 45.5 -10.5t12.5 -45.5q0 -10 -1 -16t-4.5 -15t-5.5 -14.5t-9 -16.5t-12 -18.5t-18.5 -25.5t-21.5 -31 l-748 -1081h293q268 6 312 18q53 14 67 72q4 20 12 80q12 100 25 309h121l-35 -604h-938q-23 0 -34 3t-19 16t-8 42zM457 1597q336 162 350 164q31 0 51.5 -23.5t20.5 -49.5q0 -10 -2.5 -19.5t-8.5 -16.5t-10 -12.5t-15.5 -11.5t-14.5 -8t-17 -8t-16 -6q-250 -104 -289 -119 z" />
<glyph unicode="&#x17a;" horiz-adv-x="913" d="M301 1128q37 29 94 76q150 121 179.5 141.5t49.5 20.5q31 0 50.5 -23.5t19.5 -50.5q0 -12 -5 -24.5t-15.5 -21.5l-17.5 -15t-19 -14l-11 -7q-244 -170 -254 -176zM55 59q0 8 1 15.5t2 12.5t3 11t4.5 9.5t6.5 9.5t6 8t8 9t8 11l522 674h-174q-115 0 -153.5 -6t-52 -23.5 t-19.5 -72.5l-12 -185h-121l22 406h654q31 0 44 -10t13 -45q0 -12 -1 -21.5t-6 -20t-8 -14.5t-12.5 -16t-13.5 -16l-518 -670h160q90 0 123.5 1t70.5 6t44.5 17.5t14.5 32t11 51.5v7q4 33 20 217h121l-35 -457h-677q-27 0 -39.5 9t-14.5 18t-2 32z" />
<glyph unicode="&#x17b;" horiz-adv-x="1251" d="M574 1680q0 47 32.5 77.5t75.5 30.5t75 -30.5t32 -77.5q0 -45 -33 -76t-74 -31q-43 0 -75.5 31t-32.5 76zM113 61q0 10 1 19.5t3 15.5t9 16.5t12 18.5t19.5 28.5t26.5 37.5l748 1083h-273q-182 0 -250.5 -10t-93 -38t-34.5 -104q-8 -59 -19 -247h-121l23 518h915 q33 0 45.5 -10.5t12.5 -45.5q0 -10 -1 -16t-4.5 -15t-5.5 -14.5t-9 -16.5t-12 -18.5t-18.5 -25.5t-21.5 -31l-748 -1081h293q268 6 312 18q53 14 67 72q4 20 12 80q12 100 25 309h121l-35 -604h-938q-23 0 -34 3t-19 16t-8 42z" />
<glyph unicode="&#x17c;" horiz-adv-x="913" d="M373 1315q0 47 32.5 77.5t75.5 30.5t75 -30.5t32 -77.5q0 -45 -33 -76t-74 -31q-43 0 -75.5 31t-32.5 76zM55 59q0 8 1 15.5t2 12.5t3 11t4.5 9.5t6.5 9.5t6 8t8 9t8 11l522 674h-174q-115 0 -153.5 -6t-52 -23.5t-19.5 -72.5l-12 -185h-121l22 406h654q31 0 44 -10 t13 -45q0 -12 -1 -21.5t-6 -20t-8 -14.5t-12.5 -16t-13.5 -16l-518 -670h160q90 0 123.5 1t70.5 6t44.5 17.5t14.5 32t11 51.5v7q4 33 20 217h121l-35 -457h-677q-27 0 -39.5 9t-14.5 18t-2 32z" />
<glyph unicode="&#x17d;" horiz-adv-x="1251" d="M113 61q0 10 1 19.5t3 15.5t9 16.5t12 18.5t19.5 28.5t26.5 37.5l748 1083h-273q-182 0 -250.5 -10t-93 -38t-34.5 -104q-8 -59 -19 -247h-121l23 518h915q33 0 45.5 -10.5t12.5 -45.5q0 -10 -1 -16t-4.5 -15t-5.5 -14.5t-9 -16.5t-12 -18.5t-18.5 -25.5t-21.5 -31 l-748 -1081h293q268 6 312 18q53 14 67 72q4 20 12 80q12 100 25 309h121l-35 -604h-938q-23 0 -34 3t-19 16t-8 42zM352 1812l60 78q47 -35 112 -84q90 -68 103 -67q2 0 5 1t8 3t10 6t14.5 10t18.5 13.5t25.5 19.5t34 25.5t44 33t53.5 39.5l61 -78q-258 -209 -266 -210 q-4 -2 -8 -3h-2q-10 0 -119 89q-86 71 -154 124z" />
<glyph unicode="&#x17e;" horiz-adv-x="913" d="M155 1331l70 70l209 -213h2l209 213l67 -70l-276 -289h-2zM55 59q0 8 1 15.5t2 12.5t3 11t4.5 9.5t6.5 9.5t6 8t8 9t8 11l522 674h-174q-115 0 -153.5 -6t-52 -23.5t-19.5 -72.5l-12 -185h-121l22 406h654q31 0 44 -10t13 -45q0 -12 -1 -21.5t-6 -20t-8 -14.5t-12.5 -16 t-13.5 -16l-518 -670h160q90 0 123.5 1t70.5 6t44.5 17.5t14.5 32t11 51.5v7q4 33 20 217h121l-35 -457h-677q-27 0 -39.5 9t-14.5 18t-2 32z" />
<glyph unicode="&#x17f;" horiz-adv-x="626" d="M57 0v121h170v696h-159v121h159v131q0 84 15.5 139.5t62.5 108.5q106 115 289 115q63 0 92 -39t29 -82q0 -39 -23.5 -62.5t-56.5 -23.5q-72 0 -82 88q-53 -2 -91 -19.5t-56.5 -38t-28.5 -54.5t-11 -53.5t-1 -51.5v-975h213v-121h-521z" />
<glyph unicode="&#x180;" horiz-adv-x="1148" d="M10 1114q0 37 9.5 50.5t39.5 15.5h162v30q0 43 -20.5 53.5t-112.5 10.5h-37v119l307 30v-243h234q35 0 45 -11.5t10 -44.5q0 -41 -12 -52t-51 -11h-226v-223q156 111 367 110q168 0 257 -133t89 -342q0 -133 -36 -231.5t-95 -150.5t-123.5 -76.5t-132.5 -24.5 q-184 0 -332 133l-12 -123h-119v1061h-158q-16 0 -26 3t-18.5 15t-8.5 35zM365 326q0 -61 70.5 -139t180.5 -78q37 0 73 6t79 29.5t74.5 60.5t53.5 104.5t22 157.5q0 362 -281 362q-100 0 -186 -54t-86 -136v-313z" />
<glyph unicode="&#x186;" horiz-adv-x="1478" d="M115 10v467q0 25 7 35t36 10h45q20 0 26.5 -12t14.5 -54t22 -81q41 -109 130 -193t235 -84q147 0 275 59.5t198 164.5q102 156 102 366q0 147 -40 261t-99 179.5t-140 106.5t-150.5 54.5t-141.5 13.5q-178 0 -281.5 -106.5t-115.5 -238.5q0 -4 -1 -12t-2.5 -12t-3.5 -10 t-7 -10.5t-12 -6.5t-19 -2h-33q-43 0 -43 27v12q0 74 36.5 156t103.5 155.5t177.5 120.5t243.5 47q309 0 498.5 -197.5t189.5 -523.5q0 -336 -191.5 -529t-496.5 -193q-231 0 -406 176q-6 8 -8 10q-12 -25 -25.5 -51.5t-21.5 -43t-17.5 -34t-14.5 -25.5t-11 -16t-11 -11 t-11 -3h-11q-26 -1 -26 28z" />
<glyph unicode="&#x188;" d="M76 469q0 86 21.5 164t69.5 153.5t142 121.5t223 46q119 0 179 -12v74q0 98 33.5 169.5t86 104.5t97.5 47.5t84 14.5q74 0 112.5 -38t38.5 -81q0 -35 -22.5 -59.5t-57.5 -24.5q-72 0 -84 82h-14q-76 0 -116 -52.5t-40 -148.5v-199q0 -98 -84 -98q-29 0 -55 20.5t-26 69.5 q-68 6 -132 6h-4q-113 0 -182.5 -55t-92 -130t-22.5 -171q0 -193 100.5 -275.5t229.5 -82.5q61 0 99 31.5t57.5 75.5t21.5 46q10 10 52 11h20q37 0 37 -23q0 -20 -18.5 -59t-54.5 -88.5t-106.5 -84t-158.5 -34.5q-188 0 -311 127t-123 352z" />
<glyph unicode="&#x18e;" horiz-adv-x="1382" d="M59 584h121q51 -326 70 -385q4 -12 6 -19.5t9 -15.5t13.5 -13.5t19.5 -10.5t27.5 -7t40 -5t51 -4t67.5 -2t85 -1h105h276v543h-143q-20 0 -63.5 -1t-65.5 -1q-49 0 -73.5 -8.5t-27 -12.5t-6.5 -25q-4 -25 -4 -38q-4 -51 -4 -154h-119v600h119q0 -102 4 -154q0 -53 13 -65 q14 -20 98 -21h272v490h-260q-195 0 -275.5 -7t-100 -18.5t-29.5 -44.5q-16 -68 -47 -330h-121l57 519h1112v-119h-182v-1153h182v-121h-1141z" />
<glyph unicode="&#x18f;" horiz-adv-x="1366" d="M55 651q0 35 13.5 43t48.5 8h995q-2 141 -35 250t-82 173.5t-115.5 105.5t-128 55t-124.5 14q-127 0 -224.5 -66.5t-140.5 -164.5q-14 -33 -21.5 -63.5t-9.5 -41t-13 -15.5t-42 -5q-41 0 -51 6t-12 35v397q4 39 28 39q23 0 36 -18.5t79 -134.5q164 154 373 153 q96 0 188 -25.5t175 -83t145.5 -140t99.5 -204.5t37 -270q0 -330 -171 -525.5t-454 -195.5q-137 0 -243.5 41t-171 106.5t-106.5 156t-57.5 180.5t-15.5 190zM201 582q8 -143 53 -242.5t113.5 -148t135 -68t144.5 -19.5q150 0 270.5 86t167.5 271q10 39 23 121h-907z" />
<glyph unicode="&#x190;" horiz-adv-x="1251" d="M84 381q0 78 36 141.5t78 97t108.5 61.5t91 34t63.5 14q6 2 8 2q-131 23 -229.5 103.5t-98.5 212.5q0 145 130 259.5t395 114.5q225 0 364 -105.5t139 -244.5q0 -47 -22.5 -72.5t-59.5 -25.5q-33 0 -57 23.5t-24 58.5q0 37 30 67q-80 178 -364 178q-184 0 -288.5 -72.5 t-104.5 -183.5q0 -41 15 -79.5t53 -81.5t118 -69t192 -26h144q35 0 43 -10t8 -41v-16q0 -23 -2 -32t-11.5 -15t-27.5 -6h-170q-127 0 -215 -30t-128 -79t-55.5 -91t-15.5 -87q0 -111 95.5 -197t295.5 -86q72 0 142.5 15.5t136.5 46t110 85t52 124.5q4 31 14 37t41 6h14h5 q16 0 24 -1t15.5 -9.5t7.5 -24.5q0 -156 -157 -278t-409 -122q-145 0 -253.5 39t-166 102.5t-84 130t-26.5 132.5z" />
<glyph unicode="&#x192;" horiz-adv-x="1126" d="M49 -285q0 55 35 81t63 26q27 0 46.5 -17.5t19.5 -46.5q0 -20 -10 -45q18 -2 43 -2q41 0 65.5 29t50.5 117q31 102 67 282t76 400.5t52 279.5h-154q-47 0 -47 35q0 16 9.5 44t23.5 36q8 4 29 4h162q4 23 12 66t11 60t9 49t9.5 44t9.5 36t9 35t9 26.5t11.5 26.5t11.5 24 q35 57 91 93t120 36q104 0 149 -39t45 -88q-2 -55 -35.5 -79t-62.5 -24t-47.5 17.5t-18.5 44.5q0 20 11 45q-23 2 -54 2q-59 0 -75.5 -34t-51.5 -216q-16 -78 -24 -125h190q43 0 43 -35q0 -84 -65 -84h-191l-131 -688q-41 -203 -73.5 -291t-77.5 -147q-82 -102 -178 -103 q-78 0 -132.5 34t-54.5 91z" />
<glyph unicode="&#x195;" horiz-adv-x="1581" d="M57 0v121h170v1098q0 37 -20.5 46t-110.5 9h-39v119l308 30v-516l2 -88q123 131 295 131q68 0 118.5 -13t79.5 -43t46.5 -55.5t24.5 -71.5t8 -68.5t1 -69.5v-66q0 -319 127 -413q53 -39 121 -39q197 0 196 462q0 102 -16 164t-33.5 88.5t-17.5 46.5q0 31 23.5 53.5 t54.5 22.5q111 0 110 -325v-35q0 -307 -90 -452.5t-231 -145.5q-63 0 -120.5 20.5t-114 66.5t-96.5 138t-50 219q-6 70 -6 146v49q0 45 -3 69.5t-20.5 60.5t-61.5 53t-116 17q-49 0 -89 -18t-62.5 -43t-39 -57.5t-22.5 -52t-8 -35.5q-4 -29 -4 -86v-416h170v-121h-484z" />
<glyph unicode="&#x199;" horiz-adv-x="1091" d="M53 0v121h170v936q0 102 43 179t111.5 118t137.5 60.5t134 19.5q113 0 170.5 -55.5t57.5 -114.5q0 -37 -24 -60.5t-58 -23.5q-39 0 -59.5 23.5t-20.5 58.5q0 16 6 38q-49 12 -113 13q-98 0 -176 -61.5t-78 -198.5v-541l314 307h-133v119h477v-119h-148q-25 0 -39 -11 t-100 -95q-37 -35 -59 -58l-80 -75v-5l313 -454h158v-121h-406v121h103l-254 371q-29 -29 -74 -72q-57 -57 -67.5 -70.5t-10.5 -38.5v-2v-188h170v-121h-465z" />
<glyph unicode="&#x19a;" horiz-adv-x="796" d="M133 762q0 47 12.5 57t55.5 10h127v390q-2 39 -24.5 47t-119.5 8h-26v119l309 30v-594h141q31 0 43.5 -10t12.5 -53q0 -35 -14.5 -46t-41.5 -11h-141v-588h170v-121h-479v121h170v588h-142q-16 0 -26 3t-18.5 15t-8.5 35z" />
<glyph unicode="&#x19b;" horiz-adv-x="1081" d="M-29 1362q0 61 80 61q78 0 132.5 -13t84 -40t39.5 -41t25 -43l143 -280q43 23 88 45t67.5 33.5t43 21.5t31 14t18.5 4q14 0 36.5 -42t22.5 -54q0 -14 -28.5 -30.5t-216.5 -110.5q18 -41 59 -119l322 -635q20 -39 36.5 -64.5t24.5 -33.5t12 -14.5t4 -14.5q0 -16 -37 -16 h-63q-66 0 -115 92q-4 8 -10 22q-4 6 -6 11l-242 479l-256 -504q-2 -4 -11 -23.5t-15.5 -28.5t-16.5 -23.5t-23.5 -20.5t-27.5 -6q-29 0 -50.5 21.5t-21.5 49.5q0 23 25 66l307 537q23 41 23 53q0 10 -47 104q-233 -117 -250 -117q-14 0 -36 41t-22 56q0 12 19.5 24.5 t126.5 65.5q61 31 102 51q-123 242 -143.5 279.5t-34.5 50.5q-27 23 -79 26.5t-86 14t-34 51.5z" />
<glyph unicode="&#x19e;" horiz-adv-x="1091" d="M57 0v121h170v622q0 37 -21.5 47.5t-117.5 10.5h-31v121l303 28v-137q119 137 302 137q80 0 136 -22.5t82.5 -50t41 -77.5t16.5 -80t2 -81v-918h170v-120h-483v120h170v908q0 8 -1 21.5t-11.5 48t-29 61t-60.5 48t-99 21.5q-100 0 -162.5 -73.5t-62.5 -196.5v-438h170 v-121h-484z" />
<glyph unicode="&#x1a0;" horiz-adv-x="1593" d="M113 694q0 334 188 530.5t492 196.5q133 0 262 -45l-2 4q35 8 59 35q-45 35 -45 92q0 43 28.5 76t75.5 33q49 0 80 -43t31 -111q0 -111 -63 -174q258 -197 258 -594q0 -330 -189.5 -523.5t-492.5 -193.5q-307 0 -494.5 195.5t-187.5 521.5zM272 725q0 -176 49.5 -303 t132.5 -192.5t167 -94.5t174 -29q72 0 139 16.5t139 60.5t124 110.5t86 178.5t34 253q0 160 -48 276.5t-128 178t-165 89t-179.5 27.5t-179.5 -27.5t-166.5 -88t-130 -178t-48.5 -277.5z" />
<glyph unicode="&#x1a1;" d="M63 465q0 225 124 357t323 132q70 0 126 -15t60 -15q25 0 54 30q-47 39 -48 93q0 43 30 75.5t77 32.5q49 0 80 -44t31 -110q0 -131 -82 -184q119 -150 118 -354q0 -215 -123.5 -345t-322.5 -130q-201 0 -324 129t-123 348zM217 489q0 -375 293 -374q291 0 291 372 q0 348 -291 349q-293 -1 -293 -347z" />
<glyph unicode="&#x1a5;" horiz-adv-x="1091" d="M-6 -279h170v1334q0 199 180 297q150 82 367 82q154 0 220 -51.5t66 -116.5q0 -39 -23.5 -62.5t-58.5 -23.5q-39 0 -60 22.5t-21 59.5q0 16 6 34q-68 18 -183 19q-61 0 -118.5 -12.5t-113.5 -39t-90 -80t-34 -126.5v-219q160 113 367 112q168 0 258 -134t90 -343 q0 -250 -117 -366.5t-272 -116.5q-180 0 -320 123v-392h170v-120h-483v120zM307 326q0 -61 72 -139t182 -78q49 0 93 12t94.5 46t81 110.5t30.5 189.5q0 362 -280 362q-98 0 -185.5 -54t-87.5 -136v-313z" />
<glyph unicode="&#x1a7;" horiz-adv-x="1138" d="M115 377q0 127 66.5 223t166.5 145q18 8 34.5 14.5t34 10.5t77 18.5t122.5 30.5q2 0 18.5 3t30 7.5t37 11.5t42 17t41 23.5t40 31t31.5 40t22.5 51t8.5 61.5q0 106 -68.5 175t-187.5 69q-90 0 -157.5 -35t-100.5 -88t-50.5 -102.5t-23.5 -92.5l-8 -43q-8 -14 -58 -14h-18 q-27 0 -34 9t-7 30v413q0 33 29 33q23 0 35 -21.5t53 -123.5q78 78 135 104q86 43 203 43q190 0 293.5 -108.5t103.5 -257.5q0 -121 -67.5 -211t-161.5 -133q-47 -20 -204 -57.5t-194 -55.5q-51 -27 -98 -86t-47 -154q0 -106 67.5 -183t200.5 -77q123 0 231.5 62.5 t141.5 195.5q4 23 6 45.5t3 31.5t6 18.5t15.5 11.5t30.5 2h29q14 0 22.5 -2t13.5 -11.5t5 -27.5v-393q0 -51 -29 -51q-12 0 -19 5t-25.5 38.5t-43.5 101.5q-147 -147 -393 -148q-197 0 -299 120t-102 280z" />
<glyph unicode="&#x1a8;" horiz-adv-x="806" d="M70 268q0 68 25.5 122t60 85t89 54.5t91.5 31.5t88 17.5t59 11.5q123 35 123 127q0 57 -47 91t-127 34q-35 0 -62.5 -7.5t-46 -17.5t-34 -25.5t-23.5 -29.5t-14 -31.5t-7 -29t-3 -23.5l-2 -12q0 -2 -2 -8.5t-3.5 -9.5t-4.5 -7t-9 -5t-14 -1h-51q-37 0 -37 31v237 q0 18 2 27q0 25 29 24q18 0 27 -10t38 -53q80 63 195 63q98 0 167.5 -24.5t102.5 -66.5t46 -83t13 -86q0 -90 -62.5 -150.5t-139.5 -84.5q-29 -10 -82.5 -20.5t-92 -19.5t-78.5 -27.5t-61.5 -51.5t-21.5 -82q0 -80 60.5 -114.5t132 -34.5t120.5 35.5t65.5 76.5t29 87 t16.5 50q12 12 28 13h52q35 0 34 -43v-285q0 -37 -8 -45q-10 -8 -22 -8q-10 0 -19.5 6t-18.5 19.5t-14.5 22.5t-14.5 27.5t-11 22.5q-51 -51 -100.5 -74.5t-135.5 -23.5q-96 0 -164.5 26.5t-101.5 71.5t-46 88t-13 92z" />
<glyph unicode="&#x1aa;" horiz-adv-x="714" d="M31 1206q0 88 49 158t137 70q98 0 160.5 -89.5t62.5 -230.5v-1184q0 -219 127 -219q6 0 18.5 1t18.5 1v17q0 37 23.5 60.5t58.5 23.5q33 0 57.5 -22.5t24.5 -61.5q0 -61 -53 -100.5t-125 -39.5q-41 0 -85 15.5t-92 49.5t-79 103.5t-31 163.5v1082q-49 -23 -86 -23 q-82 0 -134 67.5t-52 157.5zM152 1206q0 -43 18 -72.5t47 -29.5t46.5 31.5t19.5 64.5l4 33q0 25 -20.5 51.5t-47.5 26.5q-31 0 -49 -30t-18 -75z" />
<glyph unicode="&#x1ab;" horiz-adv-x="854" d="M37 819v119q39 2 68.5 17.5t61.5 54.5t49 123t17 208h121v-403h293v-119h-293v-536q0 -168 101 -168q49 0 80 49q27 43 26 131v98h121v-469q0 -100 -29.5 -170.5t-76 -103.5t-85 -46.5t-71.5 -13.5q-72 0 -118 42t-46 98q0 39 25.5 61.5t56.5 22.5q35 0 58.5 -23.5 t23.5 -60.5v-17q4 0 8 -1t6 -1q66 0 96.5 50.5t30.5 168.5v111q-86 -51 -164 -51q-137 0 -174 149q-12 53 -12 137v543h-174z" />
<glyph unicode="&#x1ad;" horiz-adv-x="854" d="M37 819v119h180v14q0 158 97.5 248t226.5 90q84 0 140 -36.5t56 -96.5q0 -37 -25.5 -60.5t-56.5 -23.5q-10 0 -21 3t-26.5 11.5t-25 29t-9.5 50.5q-41 4 -55 4q-164 0 -164 -233h293v-119h-293v-536q0 -168 101 -168q49 0 80 49q27 43 26 131v98h121v-112 q0 -82 -32 -143.5t-81 -91.5t-93 -43t-81 -13q-53 0 -90 23.5t-54.5 52t-27.5 75.5t-11 72t-1 63v543h-174z" />
<glyph unicode="&#x1af;" horiz-adv-x="1513" d="M98 1280v119h520v-119h-182v-788q0 -219 103 -314q86 -80 227 -80q152 0 249 90.5t97 300.5v791h-184v119h303v-25l43 17l31 16q-63 35 -64 100q0 49 32 79t73 30q47 0 78.5 -42t31.5 -99q0 -51 -23.5 -93.5t-56.5 -65t-65.5 -37.5t-57.5 -22l-22 -4v-747 q0 -272 -137 -406q-125 -123 -330 -123q-84 0 -162 24t-153.5 78t-121.5 160.5t-46 254.5v786h-183z" />
<glyph unicode="&#x1b0;" horiz-adv-x="1148" d="M57 801v121l314 28v-671q0 -94 30.5 -132t141.5 -38q98 0 176 61t78 205v360q0 45 -19.5 55.5t-122.5 10.5h-28v121l313 28v-4l29 6l26 11q-37 41 -37 84q0 45 30 76.5t77 31.5q53 0 82 -46t29 -99q0 -23 -7.5 -47.5t-29 -60.5t-72.5 -65.5t-127 -43.5v-603 q0 -49 18.5 -59t122.5 -10h29v-121l-307 -10v133q-133 -133 -334 -133q-66 0 -113 18.5t-71.5 44t-38 67.5t-16.5 72.5t-3 75.5v477q0 35 -22.5 45.5t-106.5 10.5h-41z" />
<glyph unicode="&#x1b7;" horiz-adv-x="1140" d="M84 301q0 49 25.5 74.5t62.5 25.5q35 0 61.5 -24.5t26.5 -63.5q0 -43 -43 -77q70 -133 330 -134q86 0 151.5 21.5t100.5 52.5t56.5 73t27.5 75.5t6 68.5q0 49 -13.5 93t-47 90.5t-108.5 74t-183 27.5q-35 0 -58.5 -5t-58.5 -5h-6q-23 0 -34 3t-19.5 16t-8.5 40q0 31 5 42 t34 38l508 483h-305q-193 0 -272 -12q-45 -8 -60 -35q-20 -47 -57 -362h-121l57 518h846q33 0 45 -10.5t12 -40.5v-43q0 -31 -36 -68l-453 -430q141 -6 243.5 -47t154 -105.5t74 -128t22.5 -133.5q0 -168 -124 -292t-376 -124q-133 0 -229.5 32t-144.5 83t-69.5 102.5 t-21.5 106.5z" />
<glyph unicode="&#x1b9;" horiz-adv-x="913" d="M84 2q0 172 87 282.5t241 129.5q-86 119 -197 266q-94 125 -109.5 150.5t-15.5 56.5q0 29 12.5 40t40.5 11h658l20 -334h-119q-10 143 -20 177t-51 38q-55 6 -164 6h-215l348 -473q18 -27 18 -43q0 -29 -57 -28q-37 0 -59 14q-115 -10 -188.5 -72.5t-73.5 -220.5 q0 -291 233 -291q143 0 211 86q-27 35 -27 64q0 35 25 58.5t57 23.5q29 0 55.5 -20.5t26.5 -67.5q0 -117 -107.5 -191t-242.5 -74q-174 0 -280.5 113t-106.5 299z" />
<glyph unicode="&#x1ba;" horiz-adv-x="913" d="M84 604l22 334h658q53 0 53 -49v-12q0 -18 -21.5 -47t-140.5 -162q-86 -98 -147 -168q313 -41 313 -238q0 -61 -45 -115.5t-110.5 -95.5t-131 -81t-110.5 -87t-45 -96q0 -76 145 -76q68 0 124.5 21.5t87 43t38.5 21.5q14 0 43 -28.5t29 -42.5q0 -18 -43 -49t-120 -59 t-155 -28q-131 0 -214 69t-83 161q0 61 45.5 115.5t111 94.5t131 78.5t110.5 86t45 98.5q0 94 -234 94q-23 0 -32 -2l8 -10h-72q-55 0 -55 31q0 16 41 65q14 16 311 354h-197q-160 0 -188.5 -10t-38.5 -72q0 -4 -12 -139h-121z" />
<glyph unicode="&#x1bf;" horiz-adv-x="1036" d="M61 -410q23 6 58 17q70 20 84 30.5t16 49.5v1056q0 55 -4 70.5t-25 15.5q-10 0 -26.5 -4t-46 -11t-56.5 -13v121l297 73v-112q43 14 91.5 30.5t67 22.5t41 13t31.5 9.5t20.5 3.5t25.5 1q131 0 233.5 -115t102.5 -291q0 -160 -85 -294t-224 -183q-119 -43 -300 -86v-438 l-301 -86v120zM362 143q39 12 90.5 25.5t74 21t52 15.5t43 13t30 13.5t25.5 15.5t18.5 16t19.5 22q74 94 73 268q0 117 -53 186.5t-125 69.5q-31 0 -248 -76v-590z" />
<glyph unicode="&#x1c0;" horiz-adv-x="569" d="M219 -346v1710q0 33 11.5 46t41.5 13h19q31 0 44 -10t13 -45v-1710q0 -35 -11 -46t-42 -11h-21q-35 0 -45 12t-10 41z" />
<glyph unicode="&#x1c1;" horiz-adv-x="909" d="M213 -344v1708q0 59 51 59h12q35 0 45.5 -13t10.5 -44v-1708q0 -33 -12.5 -45t-40.5 -12h-9q-37 0 -47 12t-10 43zM575 -344v1708q0 29 9.5 44t42.5 15h8q33 0 46 -10t13 -47v-1708q0 -31 -10 -44t-41 -13h-10q-37 0 -47.5 12t-10.5 43z" />
<glyph unicode="&#x1c2;" horiz-adv-x="1138" d="M113 319v21q0 29 8 42t39 15h342v195h-332q-31 0 -44 9t-13 46v23q0 29 8 41t39 14h342v641q0 31 11 44t46 13h19q53 0 55 -51v-647h342q31 -2 39 -16.5t8 -61.5q0 -37 -13.5 -46t-43.5 -9h-332v-195h342q31 -2 39 -16t8 -62q0 -37 -12.5 -47t-42.5 -10h-334v-610 q-2 -51 -53 -51h-19q-33 0 -46 11t-13 44v606h-334q-31 0 -43 10t-12 47z" />
<glyph unicode="&#x1c3;" horiz-adv-x="569" d="M174 109q0 47 33 77.5t76 30.5t74.5 -30.5t31.5 -77.5q0 -45 -32.5 -76t-73.5 -31q-43 0 -76 31t-33 76zM174 1331q0 55 34 84t75 29q43 0 75.5 -30t32.5 -81q0 -2 -1 -8t-1 -8l-45 -866q-2 -41 -9 -51.5t-30 -10.5h-33h-16t-12 2t-9.5 3t-6.5 5t-4 6.5t-2 8.5t-1 9 t-1 11t-1 15l-43 845q0 6 -1 18.5t-1 18.5z" />
<glyph unicode="&#x1c4;" horiz-adv-x="2803" d="M1665 61q0 10 1 19.5t3 15.5t9 16.5t12 18.5t19.5 28.5t26.5 37.5l748 1083h-273q-182 0 -250.5 -10t-93 -38t-34.5 -104q-8 -59 -19 -247h-121l23 518h915q33 0 45.5 -10.5t12.5 -45.5q0 -10 -1 -16t-4.5 -15t-5.5 -14.5t-9 -16.5t-12 -18.5t-18.5 -25.5t-21.5 -31 l-748 -1081h293q268 6 312 18q53 14 67 72q4 20 12 80q12 100 25 309h121l-35 -604h-938q-23 0 -34 3t-19 16t-8 42zM1904 1812l60 78q47 -35 112 -84q90 -68 103 -67q2 0 5 1t8 3t10 6t14.5 10t18.5 13.5t25.5 19.5t34 25.5t44 33t53.5 39.5l61 -78q-258 -209 -266 -210 q-4 -2 -8 -3h-2q-10 0 -119 89q-86 71 -154 124zM100 0v121h183v1159h-183v119h672q154 0 273.5 -45t191.5 -116t119 -167t64.5 -189.5t17.5 -195.5q0 -61 -9.5 -124.5t-37 -161t-98 -185.5t-177.5 -143q-137 -72 -346 -72h-670zM430 121h315q154 0 263.5 47t167 131t82 178 t24.5 211q0 94 -14.5 175t-51 160t-96 134t-155 89t-220.5 34h-315v-1159z" />
<glyph unicode="&#x1c5;" horiz-adv-x="2465" d="M1707 1331l70 70l209 -213h2l209 213l67 -70l-276 -289h-2zM1607 59q0 8 1 15.5t2 12.5t3 11t4.5 9.5t6.5 9.5t6 8t8 9t8 11l522 674h-174q-115 0 -153.5 -6t-52 -23.5t-19.5 -72.5l-12 -185h-121l22 406h654q31 0 44 -10t13 -45q0 -12 -1 -21.5t-6 -20t-8 -14.5 t-12.5 -16t-13.5 -16l-518 -670h160q90 0 123.5 1t70.5 6t44.5 17.5t14.5 32t11 51.5v7q4 33 20 217h121l-35 -457h-677q-27 0 -39.5 9t-14.5 18t-2 32zM100 0v121h183v1159h-183v119h672q154 0 273.5 -45t191.5 -116t119 -167t64.5 -189.5t17.5 -195.5q0 -61 -9.5 -124.5 t-37 -161t-98 -185.5t-177.5 -143q-137 -72 -346 -72h-670zM430 121h315q154 0 263.5 47t167 131t82 178t24.5 211q0 94 -14.5 175t-51 160t-96 134t-155 89t-220.5 34h-315v-1159z" />
<glyph unicode="&#x1c6;" horiz-adv-x="2062" d="M1304 1331l70 70l209 -213h2l209 213l67 -70l-276 -289h-2zM1204 59q0 8 1 15.5t2 12.5t3 11t4.5 9.5t6.5 9.5t6 8t8 9t8 11l522 674h-174q-115 0 -153.5 -6t-52 -23.5t-19.5 -72.5l-12 -185h-121l22 406h654q31 0 44 -10t13 -45q0 -12 -1 -21.5t-6 -20t-8 -14.5 t-12.5 -16t-13.5 -16l-518 -670h160q90 0 123.5 1t70.5 6t44.5 17.5t14.5 32t11 51.5v7q4 33 20 217h121l-35 -457h-677q-27 0 -39.5 9t-14.5 18t-2 32zM76 467q0 217 98 350t276.5 133t337.5 -108v377q-2 39 -25.5 47t-119.5 8h-25v119l308 30v-1243q0 -37 19.5 -48 t107.5 -11h45v-121l-316 -10v129q-158 -129 -344 -129q-164 0 -263 129t-99 348zM229 467q0 -109 27 -185.5t73 -111.5t89 -48t92 -13q109 0 190.5 74.5t81.5 158.5v283q0 2 1 8t1 8q0 78 -78.5 133t-175.5 55q-53 0 -99 -13t-95 -49t-78 -112.5t-29 -187.5z" />
<glyph unicode="&#x1c7;" horiz-adv-x="2308" d="M1403 227q0 45 26.5 68.5t63.5 23.5q33 0 59.5 -24.5t26.5 -61.5q0 -35 -30 -69q66 -66 174 -66q51 0 89 17.5t57.5 46t27.5 47t12 37.5q6 37 6 71v963h-237v119h522v-119h-137v-967q0 -96 -32 -164.5t-85 -104.5t-107.5 -51.5t-111.5 -15.5q-139 0 -231.5 74t-92.5 176z M98 0v121h183v1159h-183v119h564v-119h-228v-1159h262q205 4 253 16.5t63 67.5q20 78 49 379h121l-58 -584h-1026z" />
<glyph unicode="&#x1c8;" horiz-adv-x="1904" d="M1489 1315q0 47 32.5 77.5t75.5 30.5t75 -30.5t32 -77.5q0 -45 -33 -76t-74 -31q-43 0 -75.5 31t-32.5 76zM1217 -270q0 39 25.5 61.5t58.5 22.5q35 0 57.5 -23.5t22.5 -66.5v-11q8 0 24.5 -1t24.5 -1q139 2 139 215v824q-2 35 -26.5 43t-122.5 8h-39v121l325 28v-1024 q0 -94 -32.5 -164.5t-84 -105.5t-97.5 -50.5t-89 -15.5q-76 0 -131 39.5t-55 100.5zM98 0v121h183v1159h-183v119h564v-119h-228v-1159h262q205 4 253 16.5t63 67.5q20 78 49 379h121l-58 -584h-1026z" />
<glyph unicode="&#x1c9;" horiz-adv-x="1216" d="M801 1315q0 47 32.5 77.5t75.5 30.5t75 -30.5t32 -77.5q0 -45 -33 -76t-74 -31q-43 0 -75.5 31t-32.5 76zM529 -270q0 39 25.5 61.5t58.5 22.5q35 0 57.5 -23.5t22.5 -66.5v-11q8 0 24.5 -1t24.5 -1q139 2 139 215v824q-2 35 -26.5 43t-122.5 8h-39v121l325 28v-1024 q0 -94 -32.5 -164.5t-84 -105.5t-97.5 -50.5t-89 -15.5q-76 0 -131 39.5t-55 100.5zM61 0v121h170v1098q0 37 -21.5 46t-109.5 9h-39v119l308 30v-1302h172v-121h-480z" />
<glyph unicode="&#x1ca;" horiz-adv-x="2553" d="M1648 227q0 45 26.5 68.5t63.5 23.5q33 0 59.5 -24.5t26.5 -61.5q0 -35 -30 -69q66 -66 174 -66q51 0 89 17.5t57.5 46t27.5 47t12 37.5q6 37 6 71v963h-237v119h522v-119h-137v-967q0 -96 -32 -164.5t-85 -104.5t-107.5 -51.5t-111.5 -15.5q-139 0 -231.5 74t-92.5 176z M102 0v121h183v1159h-183v119h277q43 0 67 -39l662 -1073v993h-182v119h485v-119h-182v-1214q0 -23 -1 -33t-13.5 -21.5t-38.5 -11.5h-13q-29 0 -41 8t-26 33l-690 1122v-1042h182v-121h-486z" />
<glyph unicode="&#x1cb;" horiz-adv-x="2150" d="M1734 1315q0 47 32.5 77.5t75.5 30.5t75 -30.5t32 -77.5q0 -45 -33 -76t-74 -31q-43 0 -75.5 31t-32.5 76zM1462 -270q0 39 25.5 61.5t58.5 22.5q35 0 57.5 -23.5t22.5 -66.5v-11q8 0 24.5 -1t24.5 -1q139 2 139 215v824q-2 35 -26.5 43t-122.5 8h-39v121l325 28v-1024 q0 -94 -32.5 -164.5t-84 -105.5t-97.5 -50.5t-89 -15.5q-76 0 -131 39.5t-55 100.5zM102 0v121h183v1159h-183v119h277q43 0 67 -39l662 -1073v993h-182v119h485v-119h-182v-1214q0 -23 -1 -33t-13.5 -21.5t-38.5 -11.5h-13q-29 0 -41 8t-26 33l-690 1122v-1042h182v-121 h-486z" />
<glyph unicode="&#x1cc;" horiz-adv-x="1785" d="M1370 1315q0 47 32.5 77.5t75.5 30.5t75 -30.5t32 -77.5q0 -45 -33 -76t-74 -31q-43 0 -75.5 31t-32.5 76zM1098 -270q0 39 25.5 61.5t58.5 22.5q35 0 57.5 -23.5t22.5 -66.5v-11q8 0 24.5 -1t24.5 -1q139 2 139 215v824q-2 35 -26.5 43t-122.5 8h-39v121l325 28v-1024 q0 -94 -32.5 -164.5t-84 -105.5t-97.5 -50.5t-89 -15.5q-76 0 -131 39.5t-55 100.5zM57 0v121h170v622q0 37 -21.5 47.5t-117.5 10.5h-31v121l303 28v-137q119 137 299 137q94 0 154.5 -26.5t86.5 -76.5t33 -92t7 -106v-528h170v-121h-483v121h170v522q0 39 -5.5 64.5 t-22.5 57.5t-60 48t-113 16q-102 0 -163.5 -73.5t-61.5 -196.5v-438h170v-121h-484z" />
<glyph unicode="&#x1cd;" horiz-adv-x="1513" d="M482 1751l59 78q47 -35 113 -84q90 -68 102 -68t129 88q53 39 86 64l59 -78q-258 -209 -266 -211q-4 -2 -8 -2q-12 0 -133 98q-82 66 -141 115zM70 0v121h174l422 1227q16 49 30.5 62t53.5 13h12q20 0 31.5 -2t23.5 -14t21 -35l430 -1251h174v-121h-481v121h151l-111 317 h-522l-108 -317h149v-121h-450zM522 559h439l-220 635z" />
<glyph unicode="&#x1ce;" horiz-adv-x="1001" d="M161 1331l70 70l209 -213h2l209 213l67 -70l-276 -289h-2zM92 266q0 55 23.5 106.5t82 102.5t178.5 83t290 34v47l2 4v8q0 184 -234 185q-47 0 -115 -7q2 -51 -23.5 -73.5t-57.5 -22.5q-39 0 -60.5 24.5t-21.5 59.5q0 137 288 137q168 0 267.5 -78.5t99.5 -224.5 q0 -2 -1 -5t-1 -5v-426q0 -33 4 -47q10 -37 85 -45t77 -10q18 -10 18 -58q0 -33 -13 -44t-46 -11h-37q-178 2 -211 109q-152 -121 -362 -121q-111 0 -171.5 86t-60.5 192zM236 270q0 -70 57 -115.5t137 -45.5q37 0 74 8t75.5 28.5t63.5 62.5t25 101q0 6 -1 15.5t-1 13.5v149 q-223 -8 -328 -67q-102 -56 -102 -150z" />
<glyph unicode="&#x1cf;" horiz-adv-x="716" d="M84 1751l59 78q47 -35 113 -84q90 -68 102 -68t129 88q53 39 86 64l59 -78q-258 -209 -266 -211q-4 -2 -8 -2q-12 0 -133 98q-82 66 -141 115zM90 0v121h191v1159h-191v119h537v-119h-191v-1159h191v-121h-537z" />
<glyph unicode="&#x1d1;" horiz-adv-x="1593" d="M523 1751l59 78q47 -35 113 -84q90 -68 102 -68t129 88q53 39 86 64l59 -78q-258 -209 -266 -211q-4 -2 -8 -2q-12 0 -133 98q-82 66 -141 115zM113 692q0 334 187 531.5t497 197.5q305 0 492.5 -197.5t187.5 -527.5q0 -332 -189.5 -525.5t-494.5 -193.5 q-307 0 -493.5 195.5t-186.5 519.5zM272 725q0 -176 49.5 -303t132.5 -192.5t167 -94.5t174 -29q72 0 139 16.5t139 60.5t124 110.5t86 178.5t34 253q0 160 -48 276.5t-128 178t-165 89t-179.5 27.5t-179.5 -27.5t-166.5 -88t-130 -178t-48.5 -277.5z" />
<glyph unicode="&#x1d2;" d="M227 1331l70 70l209 -213h2l209 213l67 -70l-276 -289h-2zM63 465q0 223 122 356t325 133q199 0 322.5 -133t123.5 -354t-123.5 -349t-322.5 -128t-323 128t-124 347zM217 489q0 -375 293 -374q291 0 291 372q0 348 -291 349q-293 -1 -293 -347z" />
<glyph unicode="&#x1d3;" horiz-adv-x="1513" d="M482 1751l59 78q47 -35 113 -84q90 -68 102 -68t129 88q53 39 86 64l59 -78q-258 -209 -266 -211q-4 -2 -8 -2q-12 0 -133 98q-82 66 -141 115zM98 1280v119h520v-119h-182v-788q0 -219 103 -314q86 -80 227 -80q152 0 249 90.5t97 300.5v791h-184v119h485v-119h-182 v-782q0 -147 -43 -255t-116 -162t-148.5 -79t-159.5 -25t-162 24t-153.5 78t-121.5 160.5t-46 254.5v786h-183z" />
<glyph unicode="&#x1d4;" horiz-adv-x="1148" d="M303 1331l70 70l209 -213h2l209 213l67 -70l-276 -289h-2zM57 801v121l314 28v-671q0 -94 30.5 -132t141.5 -38q98 0 176 61t78 205v360q0 45 -19.5 55.5t-122.5 10.5h-28v121l313 28v-768q0 -43 20.5 -52t118.5 -9h31v-121l-307 -10v133q-133 -133 -334 -133 q-66 0 -113 18.5t-71.5 44t-38 67.5t-16.5 72.5t-3 75.5v477q0 35 -22.5 45.5t-106.5 10.5h-41z" />
<glyph unicode="&#x1dd;" horiz-adv-x="909" d="M55 403q0 33 13.5 41.5t44.5 8.5h575q0 207 -98 292.5t-242 85.5q-117 0 -168 -135q-10 -27 -20 -35t-41 -8h-2q-59 0 -60 35q0 70 95.5 169t246.5 99q188 0 316.5 -128t128.5 -359q0 -215 -116 -346t-304 -131q-104 0 -181 38t-115 101.5t-55.5 130.5t-17.5 141z M180 342q33 -231 242 -231t256 231h-498z" />
<glyph unicode="&#x1e2;" horiz-adv-x="1837" d="M521 1603v125h797v-125h-797zM70 0v121h174l409 1159h-108v119h1122l55 -518h-118q-35 317 -58 356q-12 23 -53 31q-74 12 -248 12h-254v-547h148q176 2 196 15q16 10 23 65v6q4 86 4 131v23h121v-600h-121v22q0 45 -4 131q-4 59 -21 70q-33 16 -204 16h-142v-491h275 q215 4 264 14t63 64q10 41 66 385h121l-86 -584h-989v121h137v491h-297l-172 -491h147v-121h-450zM588 733h254v547h-62z" />
<glyph unicode="&#x1e3;" horiz-adv-x="1478" d="M364 1296v125h738v-125h-738zM98 256q0 133 124 211t339 94q16 0 53 2t54 2v84q0 186 -234 187q-45 0 -112 -7q2 -53 -24 -74.5t-58 -21.5q-35 0 -58.5 23.5t-23.5 60.5q0 137 284 137q133 0 206 -38.5t122 -106.5q115 145 311 145q96 0 167 -37.5t107 -101t51 -129 t15 -137.5q0 -27 -8 -40t-18.5 -15t-30.5 -2h-553q0 -115 35 -195t91 -117t108.5 -51t107.5 -14q96 0 143 137q6 20 18.5 29.5t19.5 10.5t28 1q55 0 55 -35q0 -25 -18.5 -65.5t-53 -88t-99 -81t-142.5 -33.5q-213 0 -340 164h-2q-127 -166 -436 -166q-63 0 -111.5 29.5 t-72 74.5t-34 86t-10.5 78zM242 260q0 -55 50 -103t140 -48q49 0 99.5 14t96.5 60t46 116q0 31 -6 154q-125 -2 -213 -21.5t-132 -49.5t-62.5 -59.5t-18.5 -62.5zM823 604h473q-29 231 -217 232q-27 0 -55.5 -6.5t-72.5 -27t-79 -71.5t-49 -127z" />
<glyph unicode="&#x1e6;" horiz-adv-x="1601" d="M521 1751l59 78q47 -35 113 -84q90 -68 102 -68t129 88q53 39 86 64l59 -78q-258 -209 -266 -211q-4 -2 -8 -2q-12 0 -133 98q-82 66 -141 115zM113 698q0 340 196.5 531.5t487.5 191.5q242 0 417 -186q18 35 43 84q37 74 47.5 87t28.5 13h4q27 0 27 -43v-452 q0 -31 -10.5 -38t-50.5 -7q-27 0 -38.5 2t-17.5 11t-6 21.5t-6 42t-18 62.5q-37 104 -128.5 193t-236.5 89q-80 0 -155.5 -15t-154.5 -58t-137.5 -108.5t-95.5 -174t-37 -248.5q0 -283 156 -440.5t436 -157.5q264 0 326 99q18 33 18 92v188h-256v119h553v-119h-141v-438 q0 -33 -16 -33q-29 0 -88 92q-152 -121 -449 -121q-326 0 -512 201t-186 520z" />
<glyph unicode="&#x1e7;" d="M170 1331l70 70l209 -213h2l209 213l67 -70l-276 -289h-2zM55 -133q0 51 28 114.5t103 104.5q-49 78 -49 150q0 86 53 161q-61 96 -61 213q0 152 89 246t235 94q104 0 200 -61q100 72 209 72q55 0 92 -30t37 -73q0 -31 -20.5 -51.5t-48.5 -20.5q-49 0 -70 54l-64 -9 l-65 -16q55 -98 55 -203q0 -152 -90 -245t-235 -93q-102 0 -191 54q-18 -45 -18 -72q0 -41 23.5 -73.5t64.5 -37.5q14 -2 43 -2h149q80 0 137.5 -6t122 -23.5t107.5 -59.5t61 -105q12 -39 13 -82q0 -109 -106.5 -193t-344.5 -84q-248 0 -353.5 85.5t-105.5 191.5zM186 -129 q0 -66 73 -116t255 -50q170 0 245 49t75 111q0 147 -318 147h-154q-104 0 -140 -44t-36 -97zM266 614q0 -225 186.5 -225t186.5 221q0 225 -184 226q-189 -1 -189 -222z" />
<glyph unicode="&#x1e8;" horiz-adv-x="1570" d="M521 1751l59 78q47 -35 113 -84q90 -68 102 -68t129 88q53 39 86 64l59 -78q-258 -209 -266 -211q-4 -2 -8 -2q-12 0 -133 98q-82 66 -141 115zM102 0v121h183v1159h-183v119h512v-119h-182v-662l674 662h-115v119h463v-119h-151q-27 0 -38.5 -7t-43.5 -40l-406 -397 l483 -686q20 -27 50 -29h137v-121h-438v121h112l-438 620q-279 -274 -283 -280q0 -2 -2 -6q-4 -12 -4 -41v-293h182v-121h-512z" />
<glyph unicode="&#x1e9;" horiz-adv-x="1091" d="M274 1800l70 70l209 -213h2l209 213l67 -70l-276 -289h-2zM53 0v121h170v1098q0 37 -20.5 46t-110.5 9h-39v119l301 30v-911l314 307h-133v119h477v-119h-148q-25 0 -39 -11t-100 -95q-37 -35 -59 -58l-80 -75v-5l313 -454h158v-121h-406v121h103l-254 371 q-29 -29 -74 -72q-57 -57 -67.5 -70.5t-10.5 -38.5v-2v-188h170v-121h-465z" />
<glyph unicode="&#x1ee;" horiz-adv-x="1140" d="M291 1751l59 78q47 -35 113 -84q90 -68 102 -68t129 88q53 39 86 64l59 -78q-258 -209 -266 -211q-4 -2 -8 -2q-12 0 -133 98q-82 66 -141 115zM84 301q0 49 25.5 74.5t62.5 25.5q35 0 61.5 -24.5t26.5 -63.5q0 -43 -43 -77q70 -133 330 -134q86 0 151.5 21.5t100.5 52.5 t56.5 73t27.5 75.5t6 68.5q0 49 -13.5 93t-47 90.5t-108.5 74t-183 27.5q-35 0 -58.5 -5t-58.5 -5h-6q-23 0 -34 3t-19.5 16t-8.5 40q0 31 5 42t34 38l508 483h-305q-193 0 -272 -12q-45 -8 -60 -35q-20 -47 -57 -362h-121l57 518h846q33 0 45 -10.5t12 -40.5v-43 q0 -31 -36 -68l-453 -430q141 -6 243.5 -47t154 -105.5t74 -128t22.5 -133.5q0 -168 -124 -292t-376 -124q-133 0 -229.5 32t-144.5 83t-69.5 102.5t-21.5 106.5z" />
<glyph unicode="&#x1ef;" horiz-adv-x="913" d="M180 1331l70 70l209 -213h2l209 213l67 -70l-276 -289h-2zM84 -150q0 49 26.5 71t55.5 22q33 0 57.5 -23.5t24.5 -58.5q0 -33 -25 -62q78 -88 221 -88q131 0 185.5 85t54.5 202q0 127 -87 199.5t-253 83.5h-16.5t-23.5 1t-22.5 4t-18.5 10t-7 17q0 16 31 54l362 458h-209 q-158 0 -186.5 -10t-36.5 -70l-12 -141h-121l22 334h656q29 0 43 -11.5t12 -39.5v-2q0 -25 -17.5 -50.5t-125.5 -162.5q-121 -152 -215 -273q100 -18 174 -58t111.5 -83t60 -97.5t28 -89t5.5 -69.5q0 -182 -106.5 -297t-282.5 -115q-154 0 -259.5 75.5t-105.5 184.5z" />
<glyph unicode="&#x1f1;" horiz-adv-x="2803" d="M1665 61q0 10 1 19.5t3 15.5t9 16.5t12 18.5t19.5 28.5t26.5 37.5l748 1083h-273q-182 0 -250.5 -10t-93 -38t-34.5 -104q-8 -59 -19 -247h-121l23 518h915q33 0 45.5 -10.5t12.5 -45.5q0 -10 -1 -16t-4.5 -15t-5.5 -14.5t-9 -16.5t-12 -18.5t-18.5 -25.5t-21.5 -31 l-748 -1081h293q268 6 312 18q53 14 67 72q4 20 12 80q12 100 25 309h121l-35 -604h-938q-23 0 -34 3t-19 16t-8 42zM100 0v121h183v1159h-183v119h672q154 0 273.5 -45t191.5 -116t119 -167t64.5 -189.5t17.5 -195.5q0 -61 -9.5 -124.5t-37 -161t-98 -185.5t-177.5 -143 q-137 -72 -346 -72h-670zM430 121h315q154 0 263.5 47t167 131t82 178t24.5 211q0 94 -14.5 175t-51 160t-96 134t-155 89t-220.5 34h-315v-1159z" />
<glyph unicode="&#x1f2;" horiz-adv-x="2465" d="M1607 59q0 8 1 15.5t2 12.5t3 11t4.5 9.5t6.5 9.5t6 8t8 9t8 11l522 674h-174q-115 0 -153.5 -6t-52 -23.5t-19.5 -72.5l-12 -185h-121l22 406h654q31 0 44 -10t13 -45q0 -12 -1 -21.5t-6 -20t-8 -14.5t-12.5 -16t-13.5 -16l-518 -670h160q90 0 123.5 1t70.5 6t44.5 17.5 t14.5 32t11 51.5v7q4 33 20 217h121l-35 -457h-677q-27 0 -39.5 9t-14.5 18t-2 32zM100 0v121h183v1159h-183v119h672q154 0 273.5 -45t191.5 -116t119 -167t64.5 -189.5t17.5 -195.5q0 -61 -9.5 -124.5t-37 -161t-98 -185.5t-177.5 -143q-137 -72 -346 -72h-670zM430 121 h315q154 0 263.5 47t167 131t82 178t24.5 211q0 94 -14.5 175t-51 160t-96 134t-155 89t-220.5 34h-315v-1159z" />
<glyph unicode="&#x1f3;" horiz-adv-x="2062" d="M1204 59q0 8 1 15.5t2 12.5t3 11t4.5 9.5t6.5 9.5t6 8t8 9t8 11l522 674h-174q-115 0 -153.5 -6t-52 -23.5t-19.5 -72.5l-12 -185h-121l22 406h654q31 0 44 -10t13 -45q0 -12 -1 -21.5t-6 -20t-8 -14.5t-12.5 -16t-13.5 -16l-518 -670h160q90 0 123.5 1t70.5 6t44.5 17.5 t14.5 32t11 51.5v7q4 33 20 217h121l-35 -457h-677q-27 0 -39.5 9t-14.5 18t-2 32zM76 467q0 217 98 350t276.5 133t337.5 -108v377q-2 39 -25.5 47t-119.5 8h-25v119l308 30v-1243q0 -37 19.5 -48t107.5 -11h45v-121l-316 -10v129q-158 -129 -344 -129q-164 0 -263 129 t-99 348zM229 467q0 -109 27 -185.5t73 -111.5t89 -48t92 -13q109 0 190.5 74.5t81.5 158.5v283q0 2 1 8t1 8q0 78 -78.5 133t-175.5 55q-53 0 -99 -13t-95 -49t-78 -112.5t-29 -187.5z" />
<glyph unicode="&#x1f4;" horiz-adv-x="1601" d="M596 1598q70 35 170 84q160 80 179 79h2q29 0 49 -22.5t20 -50.5q0 -10 -2 -18.5t-5 -13.5t-9 -12t-10.5 -10.5t-14.5 -8.5t-12 -7t-14.5 -7t-14.5 -5q-250 -104 -288 -119zM113 698q0 340 196.5 531.5t487.5 191.5q242 0 417 -186q18 35 43 84q37 74 47.5 87t28.5 13h4 q27 0 27 -43v-452q0 -31 -10.5 -38t-50.5 -7q-27 0 -38.5 2t-17.5 11t-6 21.5t-6 42t-18 62.5q-37 104 -128.5 193t-236.5 89q-80 0 -155.5 -15t-154.5 -58t-137.5 -108.5t-95.5 -174t-37 -248.5q0 -283 156 -440.5t436 -157.5q264 0 326 99q18 33 18 92v188h-256v119h553 v-119h-141v-438q0 -33 -16 -33q-29 0 -88 92q-152 -121 -449 -121q-326 0 -512 201t-186 520z" />
<glyph unicode="&#x1f5;" d="M244 1128q37 29 94 76q150 121 179.5 141.5t49.5 20.5q31 0 50.5 -23.5t19.5 -50.5q0 -12 -5 -24.5t-15.5 -21.5l-17.5 -15t-19 -14l-11 -7q-244 -170 -254 -176zM55 -133q0 51 28 114.5t103 104.5q-49 78 -49 150q0 86 53 161q-61 96 -61 213q0 152 89 246t235 94 q104 0 200 -61q100 72 209 72q55 0 92 -30t37 -73q0 -31 -20.5 -51.5t-48.5 -20.5q-49 0 -70 54l-64 -9l-65 -16q55 -98 55 -203q0 -152 -90 -245t-235 -93q-102 0 -191 54q-18 -45 -18 -72q0 -41 23.5 -73.5t64.5 -37.5q14 -2 43 -2h149q80 0 137.5 -6t122 -23.5 t107.5 -59.5t61 -105q12 -39 13 -82q0 -109 -106.5 -193t-344.5 -84q-248 0 -353.5 85.5t-105.5 191.5zM186 -129q0 -66 73 -116t255 -50q170 0 245 49t75 111q0 147 -318 147h-154q-104 0 -140 -44t-36 -97zM266 614q0 -225 186.5 -225t186.5 221q0 225 -184 226 q-189 -1 -189 -222z" />
<glyph unicode="&#x1f8;" horiz-adv-x="1513" d="M533 1688q0 27 19.5 50t49.5 23q16 0 56.5 -18t294.5 -145l-50 -111q-2 0 -80.5 33t-162.5 68.5t-95 41.5q-32 23 -32 58zM102 0v121h183v1159h-183v119h277q43 0 67 -39l662 -1073v993h-182v119h485v-119h-182v-1214q0 -23 -1 -33t-13.5 -21.5t-38.5 -11.5h-13 q-29 0 -41 8t-26 33l-690 1122v-1042h182v-121h-486z" />
<glyph unicode="&#x1f9;" horiz-adv-x="1148" d="M399 1292q0 27 20.5 50.5t49.5 23.5q20 0 43.5 -16.5t148.5 -116.5q78 -63 131 -105l-72 -94q-10 6 -253 176q-25 18 -31 23.5t-18.5 17t-15.5 20.5t-3 21zM57 0v121h170v622q0 37 -21.5 47.5t-117.5 10.5h-31v121l303 28v-137q119 137 299 137q94 0 154.5 -26.5 t86.5 -76.5t33 -92t7 -106v-528h170v-121h-483v121h170v522q0 39 -5.5 64.5t-22.5 57.5t-60 48t-113 16q-102 0 -163.5 -73.5t-61.5 -196.5v-438h170v-121h-484z" />
<glyph unicode="&#x1fc;" horiz-adv-x="1837" d="M718 1598q70 35 170 84q160 80 179 79h2q29 0 49 -22.5t20 -50.5q0 -10 -2 -18.5t-5 -13.5t-9 -12t-10.5 -10.5t-14.5 -8.5t-12 -7t-14.5 -7t-14.5 -5q-250 -104 -288 -119zM70 0v121h174l409 1159h-108v119h1122l55 -518h-118q-35 317 -58 356q-12 23 -53 31 q-74 12 -248 12h-254v-547h148q176 2 196 15q16 10 23 65v6q4 86 4 131v23h121v-600h-121v22q0 45 -4 131q-4 59 -21 70q-33 16 -204 16h-142v-491h275q215 4 264 14t63 64q10 41 66 385h121l-86 -584h-989v121h137v491h-297l-172 -491h147v-121h-450zM588 733h254v547h-62z " />
<glyph unicode="&#x1fd;" horiz-adv-x="1478" d="M527 1128q37 29 94 76q150 121 179.5 141.5t49.5 20.5q31 0 50.5 -23.5t19.5 -50.5q0 -12 -5 -24.5t-15.5 -21.5l-17.5 -15t-19 -14l-11 -7q-244 -170 -254 -176zM98 256q0 133 124 211t339 94q16 0 53 2t54 2v84q0 186 -234 187q-45 0 -112 -7q2 -53 -24 -74.5 t-58 -21.5q-35 0 -58.5 23.5t-23.5 60.5q0 137 284 137q133 0 206 -38.5t122 -106.5q115 145 311 145q96 0 167 -37.5t107 -101t51 -129t15 -137.5q0 -27 -8 -40t-18.5 -15t-30.5 -2h-553q0 -115 35 -195t91 -117t108.5 -51t107.5 -14q96 0 143 137q6 20 18.5 29.5 t19.5 10.5t28 1q55 0 55 -35q0 -25 -18.5 -65.5t-53 -88t-99 -81t-142.5 -33.5q-213 0 -340 164h-2q-127 -166 -436 -166q-63 0 -111.5 29.5t-72 74.5t-34 86t-10.5 78zM242 260q0 -55 50 -103t140 -48q49 0 99.5 14t96.5 60t46 116q0 31 -6 154q-125 -2 -213 -21.5 t-132 -49.5t-62.5 -59.5t-18.5 -62.5zM823 604h473q-29 231 -217 232q-27 0 -55.5 -6.5t-72.5 -27t-79 -71.5t-49 -127z" />
<glyph unicode="&#x1fe;" horiz-adv-x="1593" d="M583 1745q70 35 170 84q160 80 179 79h2q29 0 49 -22.5t20 -50.5q0 -10 -2 -18.5t-5 -13.5t-9 -12t-10.5 -10.5t-14.5 -8.5t-12 -7t-14.5 -7t-14.5 -5q-250 -104 -288 -119zM113 692q0 334 187 531.5t495 197.5q170 0 323 -71l111 182h2l106 -66l-110 -184 q250 -207 250 -588q0 -326 -187.5 -521.5t-494.5 -195.5q-170 0 -324 72l-111 -182l-106 65l108 183q-125 96 -187 248.5t-62 328.5zM260 692q0 -315 170 -469l625 1022q-125 55 -260 55q-98 0 -185.5 -27.5t-170.5 -92t-131 -189.5t-48 -299zM535 154q123 -55 260 -56 q100 0 189 29t170 92.5t129 185t48 287.5q0 313 -172 482h-2z" />
<glyph unicode="&#x1ff;" d="M316 1364q37 29 94 76q150 121 179.5 141.5t49.5 20.5q31 0 50.5 -23.5t19.5 -50.5q0 -12 -5 -24.5t-15.5 -21.5l-17.5 -15t-19 -14l-11 -7q-244 -170 -254 -176zM74 465q0 225 120.5 357t315.5 132q86 0 180 -34l137 247h2l103 -59l-139 -252q156 -143 155 -391 q0 -221 -120.5 -348t-315.5 -127q-94 0 -180 33l-137 -250l-105 57l139 254q-155 131 -155 381zM209 465q0 -176 82 -270l342 618q-63 23 -123 23q-53 0 -99 -14.5t-95.5 -50.5t-78 -114.5t-28.5 -191.5zM391 129q66 -20 121 -20q51 0 95 12t94.5 46t80 109.5t29.5 186.5 q0 176 -78 282h-2z" />
<glyph unicode="&#x200;" horiz-adv-x="1513" d="M276 1688q0 29 20.5 51t49.5 22h2q18 0 178 -80q100 -49 170 -84l-49 -110q-39 14 -289 119q-2 0 -14 5t-14 7t-12.5 7t-14.5 8t-10 10.5t-9.5 12.5t-5.5 13.5t-2 18.5zM616 1688q0 29 20.5 51t49.5 22h2q18 0 178 -80q100 -49 170 -84l-49 -110q-39 14 -289 119 q-2 0 -14 5t-14 7t-12.5 7t-14.5 8t-10 10.5t-9.5 12.5t-5.5 13.5t-2 18.5zM70 0v121h174l422 1227q16 49 30.5 62t53.5 13h12q20 0 31.5 -2t23.5 -14t21 -35l430 -1251h174v-121h-481v121h151l-111 317h-522l-108 -317h149v-121h-450zM522 559h439l-220 635z" />
<glyph unicode="&#x201;" horiz-adv-x="1001" d="M-29 1294q0 31 22.5 51.5t45.5 20.5h4q20 0 50 -21.5t165 -130.5q66 -53 106 -86l-72 -94q-10 6 -253 176q-2 0 -10.5 6.5t-14.5 10.5t-14.5 12t-14.5 15.5t-10 18.5t-4 21zM313 1294q0 31 22.5 51.5t45.5 20.5h4q20 0 50 -21.5t165 -130.5q66 -53 106 -86l-71 -94 q-29 16 -256 176l-11 7q-8 6 -13 10t-14.5 12t-14.5 15.5t-9 18.5t-4 21zM92 266q0 55 23.5 106.5t82 102.5t178.5 83t290 34v47l2 4v8q0 184 -234 185q-47 0 -115 -7q2 -51 -23.5 -73.5t-57.5 -22.5q-39 0 -60.5 24.5t-21.5 59.5q0 137 288 137q168 0 267.5 -78.5 t99.5 -224.5q0 -2 -1 -5t-1 -5v-426q0 -33 4 -47q10 -37 85 -45t77 -10q18 -10 18 -58q0 -33 -13 -44t-46 -11h-37q-178 2 -211 109q-152 -121 -362 -121q-111 0 -171.5 86t-60.5 192zM236 270q0 -70 57 -115.5t137 -45.5q37 0 74 8t75.5 28.5t63.5 62.5t25 101q0 6 -1 15.5 t-1 13.5v149q-223 -8 -328 -67q-102 -56 -102 -150z" />
<glyph unicode="&#x202;" horiz-adv-x="1513" d="M412 1542q6 133 107.5 208t236.5 75q131 0 234.5 -76t109.5 -207h-121q-4 49 -31.5 83t-67.5 48.5t-68.5 19.5t-55.5 5t-55.5 -5t-68.5 -19.5t-68.5 -48.5t-32.5 -83h-119zM70 0v121h174l422 1227q16 49 30.5 62t53.5 13h12q20 0 31.5 -2t23.5 -14t21 -35l430 -1251h174 v-121h-481v121h151l-111 317h-522l-108 -317h149v-121h-450zM522 559h439l-220 635z" />
<glyph unicode="&#x203;" horiz-adv-x="1001" d="M785.917 1038h-121q-3.99609 72 -45.9932 120t-86.9961 63.5t-89.999 15.5q-82 0 -149.503 -50.5t-73.5088 -148.5h-121q2.00879 145 105.514 236.5q103.506 91.5 238.506 91.5t237.494 -91.5q102.495 -91.5 106.486 -236.5zM92 266q0 55 23.5 106.5t82 102.5t178.5 83 t290 34v47l2 4v8q0 184 -234 185q-47 0 -115 -7q2 -51 -23.5 -73.5t-57.5 -22.5q-39 0 -60.5 24.5t-21.5 59.5q0 137 288 137q168 0 267.5 -78.5t99.5 -224.5q0 -2 -1 -5t-1 -5v-426q0 -33 4 -47q10 -37 85 -45t77 -10q18 -10 18 -58q0 -33 -13 -44t-46 -11h-37 q-178 2 -211 109q-152 -121 -362 -121q-111 0 -171.5 86t-60.5 192zM236 270q0 -70 57 -115.5t137 -45.5q37 0 74 8t75.5 28.5t63.5 62.5t25 101q0 6 -1 15.5t-1 13.5v149q-223 -8 -328 -67q-102 -56 -102 -150z" />
<glyph unicode="&#x204;" horiz-adv-x="1382" d="M233 1688q0 29 20.5 51t49.5 22h2q18 0 178 -80q100 -49 170 -84l-49 -110q-39 14 -289 119q-2 0 -14 5t-14 7t-12.5 7t-14.5 8t-10 10.5t-9.5 12.5t-5.5 13.5t-2 18.5zM573 1688q0 29 20.5 51t49.5 22h2q18 0 178 -80q100 -49 170 -84l-49 -110q-39 14 -289 119 q-2 0 -14 5t-14 7t-12.5 7t-14.5 8t-10 10.5t-9.5 12.5t-5.5 13.5t-2 18.5zM98 0v121h183v1153h-183v119h1112l58 -519h-121q-29 262 -47 330q-10 33 -29.5 45.5t-90.5 18.5t-243 6h-303v-490h158q182 0 205 17q16 14 20 69q4 90 4 134v20h119v-600h-119v20q0 43 -4 134 q-4 57 -20 69q-23 16 -203 17h-160v-543h328q225 0 295 12q49 8 65 37q25 43 74 356q2 23 8 58h121l-86 -584h-1141z" />
<glyph unicode="&#x205;" horiz-adv-x="909" d="M12 1294q0 31 22.5 51.5t45.5 20.5h4q20 0 50 -21.5t165 -130.5q66 -53 106 -86l-72 -94q-10 6 -253 176q-2 0 -10.5 6.5t-14.5 10.5t-14.5 12t-14.5 15.5t-10 18.5t-4 21zM354 1294q0 31 22.5 51.5t45.5 20.5h4q20 0 50 -21.5t165 -130.5q66 -53 106 -86l-71 -94 q-29 16 -256 176l-11 7q-8 6 -13 10t-14.5 12t-14.5 15.5t-9 18.5t-4 21zM63 477q0 215 116 346t304 131q104 0 180 -37.5t115 -101t55.5 -131.5t16.5 -141q0 -33 -14.5 -42t-40.5 -9h-578q0 -109 29.5 -186t81 -116.5t108 -57t121.5 -17.5q119 0 168 135q12 27 22.5 35 t40.5 8h9q51 0 51 -37q0 -70 -97.5 -168t-244.5 -98q-188 0 -315.5 128t-127.5 359zM229 604h498q-33 231 -242 231t-256 -231z" />
<glyph unicode="&#x206;" horiz-adv-x="1382" d="M369 1542q6 133 107.5 208t236.5 75q131 0 234.5 -76t109.5 -207h-121q-4 49 -31.5 83t-67.5 48.5t-68.5 19.5t-55.5 5t-55.5 -5t-68.5 -19.5t-68.5 -48.5t-32.5 -83h-119zM98 0v121h183v1153h-183v119h1112l58 -519h-121q-29 262 -47 330q-10 33 -29.5 45.5t-90.5 18.5 t-243 6h-303v-490h158q182 0 205 17q16 14 20 69q4 90 4 134v20h119v-600h-119v20q0 43 -4 134q-4 57 -20 69q-23 16 -203 17h-160v-543h328q225 0 295 12q49 8 65 37q25 43 74 356q2 23 8 58h121l-86 -584h-1141z" />
<glyph unicode="&#x207;" horiz-adv-x="909" d="M826.917 1038h-121q-3.99609 72 -45.9932 120t-86.9961 63.5t-89.999 15.5q-82 0 -149.503 -50.5t-73.5088 -148.5h-121q2.00879 145 105.514 236.5q103.506 91.5 238.506 91.5t237.494 -91.5q102.495 -91.5 106.486 -236.5zM63 477q0 215 116 346t304 131 q104 0 180 -37.5t115 -101t55.5 -131.5t16.5 -141q0 -33 -14.5 -42t-40.5 -9h-578q0 -109 29.5 -186t81 -116.5t108 -57t121.5 -17.5q119 0 168 135q12 27 22.5 35t40.5 8h9q51 0 51 -37q0 -70 -97.5 -168t-244.5 -98q-188 0 -315.5 128t-127.5 359zM229 604h498 q-33 231 -242 231t-256 -231z" />
<glyph unicode="&#x208;" horiz-adv-x="716" d="M-121 1688q0 29 20.5 51t49.5 22h2q18 0 178 -80q100 -49 170 -84l-49 -110q-39 14 -289 119q-2 0 -14 5t-14 7t-12.5 7t-14.5 8t-10 10.5t-9.5 12.5t-5.5 13.5t-2 18.5zM219 1688q0 29 20.5 51t49.5 22h2q18 0 178 -80q100 -49 170 -84l-49 -110q-39 14 -289 119 q-2 0 -14 5t-14 7t-12.5 7t-14.5 8t-10 10.5t-9.5 12.5t-5.5 13.5t-2 18.5zM90 0v121h191v1159h-191v119h537v-119h-191v-1159h191v-121h-537z" />
<glyph unicode="&#x209;" horiz-adv-x="579" d="M-172 1294q0 31 22.5 51.5t45.5 20.5h4q20 0 50 -21.5t165 -130.5q66 -53 106 -86l-72 -94q-10 6 -253 176q-2 0 -10.5 6.5t-14.5 10.5t-14.5 12t-14.5 15.5t-10 18.5t-4 21zM170 1294q0 31 22.5 51.5t45.5 20.5h4q20 0 50 -21.5t165 -130.5q66 -53 106 -86l-71 -94 q-29 16 -256 176l-11 7q-8 6 -13 10t-14.5 12t-14.5 15.5t-9 18.5t-4 21zM61 0v121h170v608q0 49 -17 60.5t-114 11.5h-30v121l299 28v-829h153v-121h-461z" />
<glyph unicode="&#x20a;" horiz-adv-x="716" d="M14 1542q6 133 107.5 208t236.5 75q131 0 234.5 -76t109.5 -207h-121q-4 49 -31.5 83t-67.5 48.5t-68.5 19.5t-55.5 5t-55.5 -5t-68.5 -19.5t-68.5 -48.5t-32.5 -83h-119zM90 0v121h191v1159h-191v119h537v-119h-191v-1159h191v-121h-537z" />
<glyph unicode="&#x20b;" horiz-adv-x="579" d="M642.917 1038h-121q-3.99609 72 -45.9932 120t-86.9961 63.5t-89.999 15.5q-82 0 -149.503 -50.5t-73.5088 -148.5h-121q2.00879 145 105.514 236.5q103.506 91.5 238.506 91.5t237.494 -91.5q102.495 -91.5 106.486 -236.5zM61 0v121h170v608q0 49 -17 60.5t-114 11.5 h-30v121l299 28v-829h153v-121h-461z" />
<glyph unicode="&#x20c;" horiz-adv-x="1593" d="M317 1688q0 29 20.5 51t49.5 22h2q18 0 178 -80q100 -49 170 -84l-49 -110q-39 14 -289 119q-2 0 -14 5t-14 7t-12.5 7t-14.5 8t-10 10.5t-9.5 12.5t-5.5 13.5t-2 18.5zM657 1688q0 29 20.5 51t49.5 22h2q18 0 178 -80q100 -49 170 -84l-49 -110q-39 14 -289 119 q-2 0 -14 5t-14 7t-12.5 7t-14.5 8t-10 10.5t-9.5 12.5t-5.5 13.5t-2 18.5zM113 692q0 334 187 531.5t497 197.5q305 0 492.5 -197.5t187.5 -527.5q0 -332 -189.5 -525.5t-494.5 -193.5q-307 0 -493.5 195.5t-186.5 519.5zM272 725q0 -176 49.5 -303t132.5 -192.5t167 -94.5 t174 -29q72 0 139 16.5t139 60.5t124 110.5t86 178.5t34 253q0 160 -48 276.5t-128 178t-165 89t-179.5 27.5t-179.5 -27.5t-166.5 -88t-130 -178t-48.5 -277.5z" />
<glyph unicode="&#x20d;" d="M37 1294q0 31 22.5 51.5t45.5 20.5h4q20 0 50 -21.5t165 -130.5q66 -53 106 -86l-72 -94q-10 6 -253 176q-2 0 -10.5 6.5t-14.5 10.5t-14.5 12t-14.5 15.5t-10 18.5t-4 21zM379 1294q0 31 22.5 51.5t45.5 20.5h4q20 0 50 -21.5t165 -130.5q66 -53 106 -86l-71 -94 q-29 16 -256 176l-11 7q-8 6 -13 10t-14.5 12t-14.5 15.5t-9 18.5t-4 21zM63 465q0 223 122 356t325 133q199 0 322.5 -133t123.5 -354t-123.5 -349t-322.5 -128t-323 128t-124 347zM217 489q0 -375 293 -374q291 0 291 372q0 348 -291 349q-293 -1 -293 -347z" />
<glyph unicode="&#x20e;" horiz-adv-x="1593" d="M453 1542q6 133 107.5 208t236.5 75q131 0 234.5 -76t109.5 -207h-121q-4 49 -31.5 83t-67.5 48.5t-68.5 19.5t-55.5 5t-55.5 -5t-68.5 -19.5t-68.5 -48.5t-32.5 -83h-119zM113 692q0 334 187 531.5t497 197.5q305 0 492.5 -197.5t187.5 -527.5q0 -332 -189.5 -525.5 t-494.5 -193.5q-307 0 -493.5 195.5t-186.5 519.5zM272 725q0 -176 49.5 -303t132.5 -192.5t167 -94.5t174 -29q72 0 139 16.5t139 60.5t124 110.5t86 178.5t34 253q0 160 -48 276.5t-128 178t-165 89t-179.5 27.5t-179.5 -27.5t-166.5 -88t-130 -178t-48.5 -277.5z" />
<glyph unicode="&#x20f;" d="M851.917 1038h-121q-3.99609 72 -45.9932 120t-86.9961 63.5t-89.999 15.5q-82 0 -149.503 -50.5t-73.5088 -148.5h-121q2.00879 145 105.514 236.5q103.506 91.5 238.506 91.5t237.494 -91.5q102.495 -91.5 106.486 -236.5zM63 465q0 223 122 356t325 133 q199 0 322.5 -133t123.5 -354t-123.5 -349t-322.5 -128t-323 128t-124 347zM217 489q0 -375 293 -374q291 0 291 372q0 348 -291 349q-293 -1 -293 -347z" />
<glyph unicode="&#x210;" horiz-adv-x="1497" d="M159 1688q0 29 20.5 51t49.5 22h2q18 0 178 -80q100 -49 170 -84l-49 -110q-39 14 -289 119q-2 0 -14 5t-14 7t-12.5 7t-14.5 8t-10 10.5t-9.5 12.5t-5.5 13.5t-2 18.5zM499 1688q0 29 20.5 51t49.5 22h2q18 0 178 -80q100 -49 170 -84l-49 -110q-39 14 -289 119 q-2 0 -14 5t-14 7t-12.5 7t-14.5 8t-10 10.5t-9.5 12.5t-5.5 13.5t-2 18.5zM100 0v121h183v1159h-183v119h572q133 0 235.5 -25.5t162.5 -64.5t99 -91.5t53.5 -100.5t14.5 -97q0 -104 -61.5 -192.5t-184.5 -139.5q35 -20 60.5 -43.5t43 -42t30 -46.5t18.5 -44t10 -52 t5 -52.5t2 -62.5t1 -64q2 -119 64 -162q31 -20 59 -21q68 0 82 80l5 22.5t7 14.5t17.5 12t29.5 2q16 0 23.5 -1t19 -4t15.5 -12t4 -26q0 -70 -51.5 -139.5t-147.5 -69.5q-47 0 -92 12.5t-91 43t-75 94t-29 154.5v129q0 68 -20 102q-76 127 -305 127h-246v-518h182v-121h-512 zM430 760h232q297 0 378 129q37 57 37 131q0 147 -135 213q-96 47 -283 47h-229v-520z" />
<glyph unicode="&#x211;" horiz-adv-x="802" d="M-49 1294q0 31 22.5 51.5t45.5 20.5h4q20 0 50 -21.5t165 -130.5q66 -53 106 -86l-72 -94q-10 6 -253 176q-2 0 -10.5 6.5t-14.5 10.5t-14.5 12t-14.5 15.5t-10 18.5t-4 21zM293 1294q0 31 22.5 51.5t45.5 20.5h4q20 0 50 -21.5t165 -130.5q66 -53 106 -86l-71 -94 q-29 16 -256 176l-11 7q-8 6 -13 10t-14.5 12t-14.5 15.5t-9 18.5t-4 21zM49 0v121h170v622q0 37 -21.5 47.5t-117.5 10.5h-31v121l297 28v-143q106 141 250 141q63 0 105 -33.5t42 -85.5q0 -35 -23.5 -57t-55.5 -22q-27 0 -52.5 18t-27.5 61q-106 -18 -168 -112 q-59 -92 -60 -250v-346h215v-121h-522z" />
<glyph unicode="&#x212;" horiz-adv-x="1497" d="M295 1542q6 133 107.5 208t236.5 75q131 0 234.5 -76t109.5 -207h-121q-4 49 -31.5 83t-67.5 48.5t-68.5 19.5t-55.5 5t-55.5 -5t-68.5 -19.5t-68.5 -48.5t-32.5 -83h-119zM100 0v121h183v1159h-183v119h572q133 0 235.5 -25.5t162.5 -64.5t99 -91.5t53.5 -100.5 t14.5 -97q0 -104 -61.5 -192.5t-184.5 -139.5q35 -20 60.5 -43.5t43 -42t30 -46.5t18.5 -44t10 -52t5 -52.5t2 -62.5t1 -64q2 -119 64 -162q31 -20 59 -21q68 0 82 80l5 22.5t7 14.5t17.5 12t29.5 2q16 0 23.5 -1t19 -4t15.5 -12t4 -26q0 -70 -51.5 -139.5t-147.5 -69.5 q-47 0 -92 12.5t-91 43t-75 94t-29 154.5v129q0 68 -20 102q-76 127 -305 127h-246v-518h182v-121h-512zM430 760h232q297 0 378 129q37 57 37 131q0 147 -135 213q-96 47 -283 47h-229v-520z" />
<glyph unicode="&#x213;" horiz-adv-x="802" d="M765.917 1038h-121q-3.99609 72 -45.9932 120t-86.9961 63.5t-89.999 15.5q-82 0 -149.503 -50.5t-73.5088 -148.5h-121q2.00879 145 105.514 236.5q103.506 91.5 238.506 91.5t237.494 -91.5q102.495 -91.5 106.486 -236.5zM49 0v121h170v622q0 37 -21.5 47.5 t-117.5 10.5h-31v121l297 28v-143q106 141 250 141q63 0 105 -33.5t42 -85.5q0 -35 -23.5 -57t-55.5 -22q-27 0 -52.5 18t-27.5 61q-106 -18 -168 -112q-59 -92 -60 -250v-346h215v-121h-522z" />
<glyph unicode="&#x214;" horiz-adv-x="1513" d="M276 1688q0 29 20.5 51t49.5 22h2q18 0 178 -80q100 -49 170 -84l-49 -110q-39 14 -289 119q-2 0 -14 5t-14 7t-12.5 7t-14.5 8t-10 10.5t-9.5 12.5t-5.5 13.5t-2 18.5zM616 1688q0 29 20.5 51t49.5 22h2q18 0 178 -80q100 -49 170 -84l-49 -110q-39 14 -289 119 q-2 0 -14 5t-14 7t-12.5 7t-14.5 8t-10 10.5t-9.5 12.5t-5.5 13.5t-2 18.5zM98 1280v119h520v-119h-182v-788q0 -219 103 -314q86 -80 227 -80q152 0 249 90.5t97 300.5v791h-184v119h485v-119h-182v-782q0 -147 -43 -255t-116 -162t-148.5 -79t-159.5 -25t-162 24 t-153.5 78t-121.5 160.5t-46 254.5v786h-183z" />
<glyph unicode="&#x215;" horiz-adv-x="1148" d="M113 1294q0 31 22.5 51.5t45.5 20.5h4q20 0 50 -21.5t165 -130.5q66 -53 106 -86l-72 -94q-10 6 -253 176q-2 0 -10.5 6.5t-14.5 10.5t-14.5 12t-14.5 15.5t-10 18.5t-4 21zM455 1294q0 31 22.5 51.5t45.5 20.5h4q20 0 50 -21.5t165 -130.5q66 -53 106 -86l-71 -94 q-29 16 -256 176l-11 7q-8 6 -13 10t-14.5 12t-14.5 15.5t-9 18.5t-4 21zM57 801v121l314 28v-671q0 -94 30.5 -132t141.5 -38q98 0 176 61t78 205v360q0 45 -19.5 55.5t-122.5 10.5h-28v121l313 28v-768q0 -43 20.5 -52t118.5 -9h31v-121l-307 -10v133q-133 -133 -334 -133 q-66 0 -113 18.5t-71.5 44t-38 67.5t-16.5 72.5t-3 75.5v477q0 35 -22.5 45.5t-106.5 10.5h-41z" />
<glyph unicode="&#x216;" horiz-adv-x="1513" d="M412 1542q6 133 107.5 208t236.5 75q131 0 234.5 -76t109.5 -207h-121q-4 49 -31.5 83t-67.5 48.5t-68.5 19.5t-55.5 5t-55.5 -5t-68.5 -19.5t-68.5 -48.5t-32.5 -83h-119zM98 1280v119h520v-119h-182v-788q0 -219 103 -314q86 -80 227 -80q152 0 249 90.5t97 300.5v791 h-184v119h485v-119h-182v-782q0 -147 -43 -255t-116 -162t-148.5 -79t-159.5 -25t-162 24t-153.5 78t-121.5 160.5t-46 254.5v786h-183z" />
<glyph unicode="&#x217;" horiz-adv-x="1148" d="M927.917 1038h-121q-3.99609 72 -45.9932 120t-86.9961 63.5t-89.999 15.5q-82 0 -149.503 -50.5t-73.5088 -148.5h-121q2.00879 145 105.514 236.5q103.506 91.5 238.506 91.5t237.494 -91.5q102.495 -91.5 106.486 -236.5zM57 801v121l314 28v-671q0 -94 30.5 -132 t141.5 -38q98 0 176 61t78 205v360q0 45 -19.5 55.5t-122.5 10.5h-28v121l313 28v-768q0 -43 20.5 -52t118.5 -9h31v-121l-307 -10v133q-133 -133 -334 -133q-66 0 -113 18.5t-71.5 44t-38 67.5t-16.5 72.5t-3 75.5v477q0 35 -22.5 45.5t-106.5 10.5h-41z" />
<glyph unicode="&#x218;" horiz-adv-x="1138" d="M484 -199q0 31 21.5 52.5t53.5 21.5q90 0 90 -160q0 -68 -22.5 -133.5t-48 -99t-37.5 -33.5q-10 0 -30.5 20.5t-20.5 30.5q0 6 18.5 30.5t37.5 75t19 117.5q-43 0 -62 24.5t-19 53.5zM113 18v406q0 25 8 32t33 9h28q39 0 47 -16l4 -52q6 -51 35 -111.5t86 -105.5 q106 -82 262 -82q143 0 206 82t63 178q0 82 -41 145.5t-105 94.5q-33 16 -196.5 56t-200.5 57q-96 43 -162.5 132t-66.5 208q0 164 108.5 267t288.5 103q209 0 338 -147q55 131 65 141q8 6 23 6q29 0 29 -43v-405q-2 -27 -10.5 -33t-30.5 -6h-19q-49 0 -57 14q-2 2 -9.5 46 t-25.5 92.5t-51 100.5t-98.5 86t-153.5 34q-127 0 -192.5 -71t-65.5 -165q0 -139 135 -211q37 -18 199 -57t205 -58q100 -45 165.5 -143t65.5 -227q0 -166 -103.5 -282t-300.5 -116q-236 0 -389 148q-41 -102 -54 -123.5t-32 -21.5q-30 -1 -30 38z" />
<glyph unicode="&#x219;" horiz-adv-x="806" d="M320 -186q0 31 21.5 52.5t53.5 21.5q90 0 90 -160q0 -68 -22.5 -133.5t-48 -99t-37.5 -33.5q-10 0 -30.5 20.5t-20.5 30.5q0 6 18.5 30.5t37.5 75t19 117.5q-43 0 -62 24.5t-19 53.5zM68 43v285q0 25 9 34t44 9q25 0 37 -1t20 -9.5t10 -13.5t7.5 -27.5t11.5 -38.5 q53 -172 203 -172q111 0 153.5 47t42.5 106q0 25 -8 47.5t-20.5 37.5t-31 28.5t-34.5 20.5t-37.5 13.5t-34 9.5t-28.5 7l-17 2q-2 0 -20.5 3t-35.5 7t-45 12.5t-51.5 18.5t-50 24.5t-48 35t-40 44t-27.5 56.5t-9 69q0 45 13 85t46 81t101.5 65.5t164.5 24.5q117 0 199 -63 q4 6 9 14t8 12.5t8.5 10.5t7.5 9t7 7t8 6t8 3t9 1q23 0 27 -12t4 -39v-213q0 -39 -10 -48t-55 -9q-18 0 -29.5 1t-17 8t-6.5 11t-3 19.5t-4 25.5q-4 29 -16 56.5t-56.5 57.5t-109.5 30q-100 0 -140 -39t-40 -88q0 -47 36.5 -78t77.5 -43t110 -25.5t95 -21.5 q82 -27 150.5 -96.5t68.5 -178.5q0 -49 -13 -93t-46 -89t-101.5 -72.5t-166.5 -27.5q-137 0 -236 98q-4 -6 -12 -22.5t-14.5 -26.5t-14.5 -23.5t-17 -19.5t-20 -6q-12 0 -22 8q-8 6 -8 45z" />
<glyph unicode="&#x21a;" horiz-adv-x="1478" d="M656 -176q0 31 21.5 52.5t53.5 21.5q90 0 90 -160q0 -68 -22.5 -133.5t-48 -99t-37.5 -33.5q-10 0 -30.5 20.5t-20.5 30.5q0 6 18.5 30.5t37.5 75t19 117.5q-43 0 -62 24.5t-19 53.5zM72 870l41 519h1249l41 -519h-121q-25 283 -33 332q-6 29 -22.5 41t-65.5 18.5 t-160 6.5h-186v-1147h256v-121h-668v121h256v1147h-186q-111 0 -160 -6.5t-65.5 -18.5t-22.5 -41q-8 -49 -32 -332h-121z" />
<glyph unicode="&#x21b;" horiz-adv-x="796" d="M277 -186q0 31 21.5 52.5t53.5 21.5q90 0 90 -160q0 -68 -22.5 -133.5t-48 -99t-37.5 -33.5q-10 0 -30.5 20.5t-20.5 30.5q0 6 18.5 30.5t37.5 75t19 117.5q-43 0 -62 24.5t-19 53.5zM37 819v119q102 8 148 102.5t48 300.5h121v-403h293v-119h-293v-536q0 -168 101 -168 q49 0 80 49q27 43 26 131v98h121v-112q0 -82 -32 -143.5t-81 -91.5t-93 -43t-81 -13q-53 0 -90 23.5t-54.5 52t-27.5 75.5t-11 72t-1 63v543h-174z" />
<glyph unicode="&#x21e;" horiz-adv-x="1513" d="M482 1751l59 78q47 -35 113 -84q90 -68 102 -68t129 88q53 39 86 64l59 -78q-258 -209 -266 -211q-4 -2 -8 -2q-12 0 -133 98q-82 66 -141 115zM98 0v121h183v1159h-183v119h520v-119h-182v-492h641v492h-182v119h518v-119h-182v-1159h182v-121h-518v121h182v547h-641 v-547h182v-121h-520z" />
<glyph unicode="&#x21f;" horiz-adv-x="1148" d="M303 1800l70 70l209 -213h2l209 213l67 -70l-276 -289h-2zM57 0v121h170v1098q0 37 -20.5 46t-110.5 9h-39v119l308 30v-516l2 -88q121 131 295 131q92 0 152 -26.5t86 -76.5t33 -92t7 -106v-528h170v-121h-483v121h170v522q0 39 -5.5 64.5t-22.5 57.5t-60 48t-113 16 q-102 0 -163.5 -73.5t-61.5 -196.5v-438h170v-121h-484z" />
<glyph unicode="&#x221;" horiz-adv-x="1263" d="M76 467q0 248 110.5 365.5t264.5 117.5q180 0 340 -108v377q-2 39 -26 47t-120 8h-27v119l310 30v-1054q53 14 80 14q94 0 157.5 -67.5t63.5 -153.5q0 -76 -56.5 -126t-134.5 -50q-158 0 -229 157q-4 -4 -24.5 -22.5t-27.5 -26.5t-27.5 -31.5t-37 -48t-41 -66.5 t-53.5 -95q-18 -35 -45 -86q-37 -72 -48 -84.5t-40 -12.5h-4q-61 0 -62 33q0 18 55.5 122.5t98.5 176.5q-55 -12 -115 -12q-61 0 -118.5 22.5t-115 72.5t-93 148.5t-35.5 233.5zM229 467q0 -109 27 -185.5t73 -111.5t89 -48t92 -13q47 0 83 13t47 20.5t41 41t34 37.5 q6 8 20.5 21.5t18.5 17.5t11 14.5t9 14.5t5 13t4 17.5t1 20.5v301q0 76 -77.5 132t-176.5 56q-53 0 -99 -13t-95 -49t-78 -112.5t-29 -187.5zM930 240q6 -43 20.5 -73t34 -42t32.5 -16.5t25 -4.5q63 0 64 58q0 37 -28.5 67.5t-73.5 30.5q-25 0 -74 -20z" />
<glyph unicode="&#x225;" horiz-adv-x="1026" d="M55 55v13q0 31 5.5 41t31.5 45l522 665h-133q-96 0 -142 -1t-73.5 -6t-32 -10t-8.5 -20q-12 -49 -15 -103t-2 -82t-12.5 -46.5t-45.5 -18.5h-15q-29 0 -39 12.5t-10 35.5v24q4 51 8 131q8 150 16.5 176.5t51.5 26.5h600q29 0 43 -11.5t14 -45.5q0 -29 -24 -64l-531 -674 h273q109 0 187.5 -32.5t116.5 -84t54 -97.5t16 -87q0 -90 -67.5 -155.5t-177.5 -65.5q-59 0 -125 18.5t-78 41.5q-2 4 -2 22q0 74 37 74q10 0 66.5 -17.5t101.5 -17.5q59 0 92 31.5t33 70.5q0 20 -9.5 43t-33 50.5t-79 45t-132.5 17.5h-426q-29 0 -42.5 10t-13.5 45z" />
<glyph unicode="&#x226;" horiz-adv-x="1513" d="M648 1630q0 47 32.5 77.5t75.5 30.5t75 -30.5t32 -77.5q0 -45 -33 -76t-74 -31q-43 0 -75.5 31t-32.5 76zM70 0v121h174l422 1227q16 49 30.5 62t53.5 13h12q20 0 31.5 -2t23.5 -14t21 -35l430 -1251h174v-121h-481v121h151l-111 317h-522l-108 -317h149v-121h-450z M522 559h439l-220 635z" />
<glyph unicode="&#x227;" horiz-adv-x="1001" d="M334 1315q0 47 32.5 77.5t75.5 30.5t75 -30.5t32 -77.5q0 -45 -33 -76t-74 -31q-43 0 -75.5 31t-32.5 76zM92 266q0 55 23.5 106.5t82 102.5t178.5 83t290 34v47l2 4v8q0 184 -234 185q-47 0 -115 -7q2 -51 -23.5 -73.5t-57.5 -22.5q-39 0 -60.5 24.5t-21.5 59.5 q0 137 288 137q168 0 267.5 -78.5t99.5 -224.5q0 -2 -1 -5t-1 -5v-426q0 -33 4 -47q10 -37 85 -45t77 -10q18 -10 18 -58q0 -33 -13 -44t-46 -11h-37q-178 2 -211 109q-152 -121 -362 -121q-111 0 -171.5 86t-60.5 192zM236 270q0 -70 57 -115.5t137 -45.5q37 0 74 8 t75.5 28.5t63.5 62.5t25 101q0 6 -1 15.5t-1 13.5v149q-223 -8 -328 -67q-102 -56 -102 -150z" />
<glyph unicode="&#x22e;" horiz-adv-x="1593" d="M689 1630q0 47 32.5 77.5t75.5 30.5t75 -30.5t32 -77.5q0 -45 -33 -76t-74 -31q-43 0 -75.5 31t-32.5 76zM113 692q0 334 187 531.5t497 197.5q305 0 492.5 -197.5t187.5 -527.5q0 -332 -189.5 -525.5t-494.5 -193.5q-307 0 -493.5 195.5t-186.5 519.5zM272 725 q0 -176 49.5 -303t132.5 -192.5t167 -94.5t174 -29q72 0 139 16.5t139 60.5t124 110.5t86 178.5t34 253q0 160 -48 276.5t-128 178t-165 89t-179.5 27.5t-179.5 -27.5t-166.5 -88t-130 -178t-48.5 -277.5z" />
<glyph unicode="&#x22f;" d="M400 1315q0 47 32.5 77.5t75.5 30.5t75 -30.5t32 -77.5q0 -45 -33 -76t-74 -31q-43 0 -75.5 31t-32.5 76zM63 465q0 223 122 356t325 133q199 0 322.5 -133t123.5 -354t-123.5 -349t-322.5 -128t-323 128t-124 347zM217 489q0 -375 293 -374q291 0 291 372 q0 348 -291 349q-293 -1 -293 -347z" />
<glyph unicode="&#x232;" horiz-adv-x="1513" d="M357 1603v125h797v-125h-797zM31 1280v119h483v-119h-119l377 -588l377 588h-119v119h451v-119h-189l-440 -686q-23 -37 -23 -74v-399h183v-121h-512v121h182v399q0 37 -23 74l-440 686h-188z" />
<glyph unicode="&#x233;" horiz-adv-x="1091" d="M176 1296v125h738v-125h-738zM41 819v119h432v-119h-137q176 -487 217 -647l84 256l135 391h-137v119h416v-119h-158l-315 -899q-23 -63 -36.5 -97t-46 -82t-77.5 -83q-84 -68 -185 -68q-74 0 -130 43t-56 107q0 37 22.5 58.5t55.5 21.5q31 0 55.5 -21.5t24.5 -58.5 q0 -6 -4 -27q4 0 14 -1t14 -1q33 0 61.5 9.5t50 21.5t40 32.5t30 38t23.5 43t16.5 40t11.5 38t9 27.5q10 27 10 37q0 8 -10 39l-272 782h-158z" />
<glyph unicode="&#x235;" horiz-adv-x="1263" d="M57 0v121h170v622q0 37 -21.5 47.5t-117.5 10.5h-31v121l303 28v-137q119 137 302 137q80 0 136 -22.5t82.5 -51t41 -78.5t16.5 -80t2 -81v-268q53 14 78 14q94 0 157.5 -67.5t63.5 -153.5q0 -78 -57.5 -126t-137.5 -48q-139 0 -217 129q-63 -86 -120.5 -193.5t-88 -172 t-45.5 -73.5q-10 -8 -38 -8q-63 0 -63.5 31t108 227.5t186.5 294.5q29 37 31 58v28v289q0 6 1 22.5t1 24.5q0 41 -6.5 68.5t-24.5 57.5t-61 44t-111 14q-102 0 -163.5 -73.5t-61.5 -196.5v-438h170v-121h-484zM940 236q4 -72 41 -102t69.5 -30t49 17.5t16.5 42.5 q0 37 -29.5 66.5t-72.5 29.5q-31 1 -74 -24z" />
<glyph unicode="&#x236;" horiz-adv-x="796" d="M-55 -291q0 20 23.5 98t79.5 194t126 194q4 4 11.5 11t9.5 10t6 8t6 8.5t4 9.5t2 12v14v551h-174v119q102 8 149.5 102.5t49.5 300.5h118v-403h293v-119h-293v-483q88 41 148 41q80 0 144.5 -53.5t64.5 -139.5q0 -72 -56.5 -119t-121 -61t-129.5 -14q-115 0 -164 100 q-104 -127 -174 -366q-4 -12 -6.5 -17.5t-7.5 -11.5t-13 -8t-21 -2h-32q-43 -1 -43 24zM365 203q35 -88 135 -88q45 0 67.5 20.5t22.5 49t-22.5 51t-61.5 22.5q-49 0 -141 -55z" />
<glyph unicode="&#x237;" horiz-adv-x="636" d="M-51 -270q0 39 25.5 61.5t58.5 22.5q35 0 57.5 -23.5t22.5 -66.5v-11q8 0 24.5 -1t24.5 -1q139 2 139 215v824q-2 35 -26.5 43t-122.5 8h-39v121l325 28v-1024q0 -94 -32.5 -164.5t-84 -105.5t-97.5 -50.5t-89 -15.5q-76 0 -131 39.5t-55 100.5z" />
<glyph unicode="&#x238;" horiz-adv-x="1705" d="M76 469q0 129 32.5 225.5t89 150.5t119 79.5t132.5 25.5q184 0 333 -108v377q-2 39 -24.5 47t-118.5 8h-27v119l310 30v-585q156 111 366 110q162 0 251 -132t89 -343q0 -248 -115.5 -365.5t-269.5 -117.5q-180 0 -328 133l-12 -123h-121v123q-152 -133 -348 -133 q-156 0 -257 125t-101 354zM229 467q0 -358 279 -358q109 0 189.5 74.5t80.5 156.5v285q0 31 -1 44t-13 35.5t-39 47.5q-82 78 -197 77q-51 0 -97 -14t-95 -49t-78 -111.5t-29 -187.5zM926 326q0 -61 71.5 -139t182.5 -78q41 0 76.5 7t77.5 30.5t72 61.5t49.5 105.5 t19.5 157.5q0 358 -277 358q-100 0 -186 -56t-86 -134v-313z" />
<glyph unicode="&#x239;" horiz-adv-x="1705" d="M76 465q0 252 114.5 368.5t264.5 116.5q186 0 340 -139l12 139h115v-114q158 113 372 112q137 0 235.5 -115.5t98.5 -359.5q0 -133 -36 -232.5t-95 -151.5t-121.5 -75.5t-128.5 -23.5q-182 0 -325 127v-396h170v-120h-484v120h170v410q-145 -141 -336 -141 q-61 0 -120.5 22.5t-117 72.5t-93 148.5t-35.5 231.5zM231 469q0 -188 85 -274t189.5 -86t190.5 85t86 212v161q4 59 -30 121q-78 135 -224 135q-117 0 -207 -86t-90 -268zM922 348q0 -80 74.5 -159.5t181.5 -79.5q119 0 208 89t89 269t-83 268t-196 88q-104 0 -189 -58 t-85 -136v-281z" />
<glyph unicode="&#x245;" horiz-adv-x="1513" d="M45 2v119h168l463 1243q14 35 27.5 44t50.5 9h30q8 0 15.5 -2t13.5 -4t11 -8t7.5 -10t6.5 -12.5t6 -12.5t5 -14.5t5 -14.5l453 -1218h168v-119h-474v119h146l-402 1083l-403 -1083h147v-119h-444z" />
<glyph unicode="&#x250;" horiz-adv-x="1001" d="M6 877q0 41 13.5 51t48.5 10h34q178 -2 211 -109q145 121 363 121q66 0 114 -30.5t71.5 -76.5t34.5 -89t11 -82q0 -55 -23.5 -106.5t-82 -102.5t-178 -83t-289.5 -34v-47l-2 -4v-8q0 -74 50 -129.5t183 -55.5q47 0 115 7q-2 51 22.5 74.5t59.5 23.5q33 0 57.5 -22.5 t24.5 -61.5q0 -139 -289 -139q-98 0 -170 24.5t-110.5 66.5t-57 80t-24.5 81q-2 10 -3 65v508q0 10 -1 26.5t-1 26.5q-27 -6 -74.5 -24.5t-66.5 -18.5q-41 1 -41 58zM332 629q0 -6 1 -15.5t1 -13.5v-149q223 8 328 67q102 55 102 150q0 70 -57.5 115.5t-137.5 45.5 q-33 0 -68.5 -8t-76.5 -27.5t-66.5 -62.5t-25.5 -102z" />
<glyph unicode="&#x251;" horiz-adv-x="1148" d="M76 469q0 246 108.5 363.5t264.5 117.5q190 0 352 -110l12 110h113v-235q0 -39 6 -77t6 -44q0 -20 -12 -35v-108q14 -16 14 -37q0 -8 -7 -49t-7 -78v-94q2 -39 25.5 -47.5t115.5 -8.5h31v-119l-316 -28v123q-164 -123 -346 -123q-145 0 -252.5 116.5t-107.5 362.5z M229 469q0 -360 281 -360q100 0 186 64.5t86 143.5v326q0 2 1 10.5t1 12.5q0 68 -78.5 115.5t-173.5 47.5q-51 0 -96 -12t-95 -47t-81 -111.5t-31 -189.5z" />
<glyph unicode="&#x252;" horiz-adv-x="1148" d="M49 801v121l307 28v-112q156 111 367 110q168 0 258 -133t90 -342q0 -133 -36 -231.5t-96 -150.5t-124.5 -76.5t-132.5 -24.5q-184 0 -332 133l-10 -123h-121v745q0 39 -23.5 47.5t-115.5 8.5h-31zM362 326q0 -61 72 -139t182 -78q49 0 93.5 12t94.5 46t80.5 110.5 t30.5 189.5q0 362 -280 362q-98 0 -185.5 -54t-87.5 -136v-313z" />
<glyph unicode="&#x253;" horiz-adv-x="1081" d="M158 0v997q0 113 49 201t128 137t166 74t175 25q133 0 211 -51.5t78 -131.5q0 -39 -22.5 -62.5t-59.5 -23.5t-58.5 23.5t-21.5 58.5q0 18 10 45q-66 20 -176 21q-156 0 -249 -86t-93 -228v-161q160 111 364 110q166 0 255.5 -133t89.5 -342q0 -231 -109 -356t-277 -127 q-186 0 -329 133l-10 -123h-121zM301 326q0 -59 69.5 -138t180.5 -79q51 0 97 14t94.5 49t77 111.5t28.5 187.5q0 358 -277 358q-100 0 -185 -55t-85 -135v-313z" />
<glyph unicode="&#x254;" horiz-adv-x="909" d="M59 684q0 10 8.5 35.5t33 66.5t60.5 77t98.5 61.5t137.5 25.5q190 0 312 -130t122 -351q0 -86 -21.5 -164t-69.5 -153.5t-142 -121.5t-223 -46q-55 0 -93 3t-92.5 14t-83 42t-28.5 78q0 37 22.5 61.5t59.5 24.5q16 0 32.5 -5t33 -27.5t18.5 -59.5q59 -6 118 -6 q147 0 222 73q94 90 94 275q0 88 -25.5 155.5t-63.5 106.5t-88 63.5t-91 32.5t-82 8q-63 0 -95 -32.5t-45.5 -74.5t-21.5 -48q-10 -8 -31 -9h-26q-50 0 -50 25z" />
<glyph unicode="&#x255;" horiz-adv-x="909" d="M57 -279q0 16 187 355q-168 131 -168 395q0 84 20.5 162t68.5 153.5t142 121.5t223 46q145 0 222 -29.5t77 -107.5q0 -39 -24.5 -61.5t-59.5 -22.5q-29 0 -55 20.5t-26 69.5q-66 6 -132 6q-303 0 -303 -356q0 -74 18.5 -133t32 -79.5t39.5 -53.5q123 197 289 196 q94 0 161 -54t67 -140q0 -98 -87 -158.5t-235 -60.5q-70 0 -168 28q-49 -86 -110 -192q-51 -90 -64.5 -107.5t-34.5 -17.5h-35q-45 0 -45 20zM418 141q66 -27 145 -26h2q72 0 111 26.5t39 65.5q0 33 -30 54.5t-73 21.5q-112 -1 -194 -142z" />
<glyph unicode="&#x256;" horiz-adv-x="1142" d="M76 471q0 242 109.5 360.5t263.5 118.5q184 0 333 -108v377q-2 39 -24.5 47t-118.5 8h-27v119l310 30v-1495q0 -217 127 -217q6 0 18 1t18 1v15q0 45 27 65.5t55 20.5q33 0 57.5 -23.5t24.5 -58.5q0 -61 -53 -101.5t-127 -40.5q-43 0 -88 15.5t-93 50.5t-79 105.5 t-31 164.5v193q-147 -129 -344 -129q-63 0 -122.5 24.5t-114 75.5t-88 149.5t-33.5 231.5zM229 467q0 -111 27 -186.5t72 -110.5t87 -48t91 -13q106 0 189 74.5t83 156.5v285q0 31 -1 44t-13 35.5t-39 47.5q-82 78 -197 77q-51 0 -97 -14t-95 -49t-78 -111.5t-29 -187.5z " />
<glyph unicode="&#x257;" horiz-adv-x="1148" d="M76 467q0 217 98 350t277 133q182 0 331 -104v164q0 98 28 175t69 122t92 75.5t94 41t80 10.5q76 0 121 -51.5t45 -110.5q0 -35 -23.5 -59.5t-58.5 -24.5t-58.5 23.5t-23.5 58.5q0 12 8 37q-25 6 -47 6q-59 0 -107.5 -51.5t-66.5 -147.5q-8 -41 -8 -125v-817 q2 -35 23.5 -43t109.5 -8h39v-121l-316 -10v129q-158 -129 -344 -129q-164 0 -263 129t-99 348zM229 467q0 -109 27 -185.5t73 -111.5t89 -48t92 -13q109 0 190.5 74.5t81.5 158.5v283q0 2 1 8t1 8q0 78 -78.5 133t-175.5 55q-53 0 -99 -13t-95 -49t-78 -112.5t-29 -187.5z " />
<glyph unicode="&#x258;" horiz-adv-x="909" d="M55 543q0 178 90.5 294.5t278.5 116.5t304 -131t116 -346q0 -229 -128 -358t-317 -129q-154 0 -248 100t-94 168q0 35 60 35h2q31 0 40 -7t21 -36q49 -135 170 -135q61 0 114.5 15t107 53t85 117t31.5 192h-573q-20 0 -30.5 2t-20 13t-9.5 36zM180 604h498 q-47 229 -256 229t-242 -229z" />
<glyph unicode="&#x259;" horiz-adv-x="909" d="M51 391q0 37 14.5 46t47.5 9h583q0 207 -100 292t-248 85q-123 0 -172 -135q-12 -29 -21.5 -36t-39.5 -7h-2q-59 0 -60 35q0 70 96.5 170t249.5 100q193 0 322 -129t129 -358q0 -215 -117 -347t-309 -132q-86 0 -152.5 25.5t-107.5 66.5t-66.5 96t-36 108.5t-10.5 110.5z M176 336q35 -231 246 -232q209 0 264 232h-510z" />
<glyph unicode="&#x25a;" horiz-adv-x="1308" d="M55 293q0 10 2 19.5t9.5 17.5t11.5 12t17.5 13.5t17.5 13.5l467 352q-102 102 -248 102q-57 0 -93 -35.5t-53.5 -80.5t-23.5 -52q-12 -10 -45 -10h-6q-53 0 -54 37q0 68 89.5 168t234.5 100q182 0 317 -139q166 129 181 135q12 4 32 4h62q43 0 55 -13t12 -52 q0 -4 -1 -16.5t-1 -20.5v-174q0 -96 66 -96q49 0 74 47q2 6 8 25.5t15 27.5t34 8h16q18 0 28.5 -2t18 -11t7.5 -28q0 -63 -56.5 -125.5t-152.5 -62.5q-80 0 -144.5 42t-85.5 105q-8 27 -8 82v80l-88 -68q43 -119 43 -235q0 -219 -113.5 -349t-300.5 -130q-100 0 -172.5 30.5 t-107.5 79.5t-49.5 98.5t-14.5 100.5zM201 279q4 -33 12 -57.5t27.5 -54.5t60.5 -46.5t100 -16.5q45 0 84 14.5t81 49.5t66.5 110.5t24.5 182.5q0 70 -16 141l-373 -283l-49 -34z" />
<glyph unicode="&#x25b;" horiz-adv-x="909" d="M68 287q0 147 129 233q-104 72 -105 189q0 59 17.5 103t52.5 69.5t67.5 42t82.5 22.5t77 7t70 1h71q309 0 310 -139q0 -37 -24.5 -59.5t-57.5 -22.5q-31 0 -57.5 22.5t-24.5 71.5q-70 8 -207 9q-170 0 -215 -66q-18 -27 -18 -65q0 -98 108 -125q35 -8 105 -9h34 q51 0 62.5 -9t11.5 -50q0 -31 -10 -41q-8 -10 -64.5 -9t-124 -12.5t-106.5 -60.5q-35 -41 -35 -100q0 -63 47 -104.5t102.5 -54.5t114.5 -13q164 0 230 104q6 10 14 26.5t12 19.5t17.5 7.5t40.5 4.5q53 0 53 -23q0 -10 -9.5 -35.5t-37 -66.5t-67.5 -77t-111.5 -62.5 t-161.5 -26.5q-119 0 -202 28.5t-122 77.5t-54 95.5t-15 97.5z" />
<glyph unicode="&#x25c;" horiz-adv-x="966" d="M88 164q6 82 33 82q8 0 37.5 -23.5t67.5 -53.5t109 -53.5t152 -23.5q131 0 185.5 54.5t54.5 123.5q0 176 -254 176h-29q-33 0 -41 11.5t-8 60.5q0 27 7.5 37t18.5 11t48 2t72 7q66 10 111.5 45t45.5 93q0 84 -90 121q-45 18 -141 18q-150 0 -213 -37q14 -29 14 -51 q0 -33 -23.5 -54.5t-54.5 -21.5q-33 0 -55 23.5t-22 60.5q0 76 78.5 132.5t289.5 56.5q197 0 283 -77t86 -173q0 -127 -156 -215q184 -70 185 -230q0 -109 -94.5 -199t-290.5 -90q-100 0 -198.5 37t-153 80t-54.5 70z" />
<glyph unicode="&#x25d;" horiz-adv-x="1308" d="M88 164q0 14 8 48t25 34q8 0 37.5 -23.5t67.5 -53.5t110 -53.5t153 -23.5q131 0 185.5 53.5t54.5 122.5q0 178 -260 178h-10q-41 0 -52.5 9.5t-11.5 52.5q0 49 19 55q10 4 81.5 7t127 31t75.5 95q-6 10 -7 14.5t3 10.5t4 8q-10 43 -34.5 69.5t-61.5 37t-65.5 13.5 t-73.5 3q-94 0 -133 -8t-76 -29q14 -43 14 -51q0 -33 -23.5 -54.5t-54.5 -21.5q-33 0 -55 23.5t-22 60.5q0 76 79.5 132.5t290.5 56.5q250 0 342 -148q197 129 211 133q12 4 33 4h76q41 0 50 -8t9 -41v-248q0 -27 6 -63q20 12 28.5 28.5t7.5 26.5t12.5 17.5t48 7.5t46 -7.5 t11.5 -25.5q0 -53 -40 -110.5t-118 -57.5q-66 0 -124 50t-58 151v135l-174 -109q-14 -129 -156 -200q184 -70 185 -230q0 -109 -94.5 -199t-295.5 -90q-80 0 -157.5 23t-128.5 54.5t-83 62.5t-32 47z" />
<glyph unicode="&#x25e;" d="M55 465q0 197 130 346.5t337 149.5q178 0 281.5 -70t103.5 -180q0 -137 -162 -219q76 -29 133.5 -84.5t57.5 -141.5q0 -106 -101.5 -197.5t-310.5 -91.5q-211 0 -340 147.5t-129 340.5zM176 467q0 -152 96.5 -263.5t251.5 -111.5q143 0 201.5 54.5t58.5 123.5 q0 76 -57 120t-149 54q-25 2 -50.5 3.5t-37 1.5t-21.5 3t-13 10t-3 23v31q0 39 11 45t83 10q111 6 160 47t49 93q0 76 -71 108.5t-159 32.5q-162 0 -256 -117.5t-94 -267.5z" />
<glyph unicode="&#x25f;" horiz-adv-x="626" d="M-57 -270q0 39 24.5 61.5t57.5 22.5q35 0 58 -23.5t23 -60.5v-17q8 0 24.5 -1t25.5 -1q139 2 139 215v498h-143q-29 0 -42.5 10t-13.5 45q0 43 11.5 54.5t39.5 11.5h148v274h-213v119h522v-119h-170v-274h113q29 0 43 -10.5t14 -45.5v-12q0 -33 -13 -43t-42 -10h-115 v-496q0 -98 -33.5 -169.5t-86 -105.5t-98.5 -48.5t-87 -14.5q-76 0 -131 39.5t-55 100.5z" />
<glyph unicode="&#x260;" horiz-adv-x="1142" d="M76 471q0 219 106.5 349t280.5 130q172 0 323 -125v144q0 156 111 238.5t238 82.5q84 0 130 -52t46 -108q0 -41 -25.5 -63.5t-56.5 -22.5q-35 0 -58.5 24t-23.5 58q0 16 6 37q-41 8 -61 8q-63 0 -115.5 -50t-52.5 -158v-209q0 -45 1 -65.5t1 -35.5v-708 q0 -162 -104.5 -264.5t-315.5 -102.5q-391 0 -391 201q0 47 26.5 66.5t55.5 19.5q31 0 55 -20.5t24 -57.5q0 -27 -14 -55q74 -33 230 -33q293 0 292 254q0 6 -1 19.5t-1 19.5v205q-143 -156 -333 -156q-150 0 -261.5 105.5t-111.5 324.5zM231 471q0 -145 78 -228t199 -83 q100 0 162.5 65.5t91.5 153.5q25 72 24 207q0 96 -76.5 169.5t-179.5 73.5q-123 0 -211 -92t-88 -266z" />
<glyph unicode="&#x261;" horiz-adv-x="1091" d="M76 471q0 219 106.5 349t280.5 130q188 0 338 -139l12 139h113v-956q0 -8 1 -21.5t1 -21.5q0 -162 -102.5 -267.5t-321.5 -105.5q-389 0 -389 201q0 39 22.5 62.5t57.5 23.5q31 0 56 -21.5t25 -56.5q0 -27 -14 -55q74 -33 230 -33q293 0 292 254q0 6 -1 19.5t-1 19.5v205 q-143 -156 -333 -156q-152 0 -262.5 106.5t-110.5 323.5zM231 471q0 -154 82 -232.5t195 -78.5q106 0 193 99t87 327q0 90 -76.5 166.5t-181.5 76.5q-125 0 -212 -92t-87 -266z" />
<glyph unicode="&#x262;" horiz-adv-x="1150" d="M92 469q0 227 136.5 356t340.5 129q141 0 271 -108l19 28.5t17.5 24.5t14.5 19.5t12 15.5t10.5 9t12.5 7t12 2q29 0 29 -43v-307q-2 -23 -11.5 -31t-42.5 -8q-27 0 -40 2t-20 9.5t-8 15.5t-6 28.5t-12 40.5q-25 68 -79 121.5t-142 53.5q-43 0 -83 -6.5t-93 -29t-91 -60.5 t-64.5 -107.5t-26.5 -161.5q0 -365 391 -365q88 0 130 13.5t48 29t6 48.5v96h-178v98h422v-98h-100v-242q0 -43 -19 -43q-12 0 -65 41q-92 -63 -297 -63q-238 0 -366 137t-128 348z" />
<glyph unicode="&#x263;" horiz-adv-x="1091" d="M41 819v119h432v-119h-135l184 -510l31 -90l29 88l186 512h-135v119h416v-119h-160q-4 -12 -13.5 -37.5t-13.5 -38.5l-225 -614q-10 -31 -10 -37q0 -8 25.5 -53t51 -111.5t25.5 -128.5q0 -88 -51 -153.5t-129 -65.5q-76 0 -123 62.5t-47 150.5q0 102 96 279l-274 747 h-160zM494 -217q0 -37 16 -59.5t39 -22.5q20 0 34.5 19.5t14.5 56.5q0 68 -53 184q-51 -106 -51 -178z" />
<glyph unicode="&#x264;" horiz-adv-x="1081" d="M29 797q0 55 54 109.5t146 54.5q188 0 318 -261q41 98 117.5 179.5t189.5 81.5q86 0 141.5 -53.5t55.5 -108.5q0 -31 -41 -31h-19q-43 0 -51 10q-2 2 -9 15.5t-14.5 21.5t-25 16.5t-41.5 8.5q-72 0 -131.5 -70t-83.5 -139l-23 -68q0 -18 66.5 -158.5t66.5 -205.5 q0 -86 -57 -154t-147 -68q-86 0 -141.5 64.5t-55.5 153.5q0 63 61.5 195t61.5 145q0 14 -53 131q-72 174 -189 174q-31 0 -49 -14.5t-27.5 -33t-15.5 -20.5q-8 -4 -29 -4h-16q-2 0 -7 -1t-7 -1q-45 0 -45 31zM465 203q0 -51 23.5 -78t50.5 -27q29 0 47 27t18 68 q0 16 -2 31.5t-5 26.5t-11 30.5t-13.5 31t-17.5 40t-20 44.5q-70 -139 -70 -194z" />
<glyph unicode="&#x265;" horiz-adv-x="1148" d="M35 819v119h483v-119h-170v-524q0 -39 5 -64.5t22.5 -57.5t60.5 -48t113 -16q102 0 163.5 73.5t61.5 198.5v438h-170v119h483v-119h-169v-1026q2 -35 22.5 -44t110.5 -9h36v-121l-307 -29v451l-2 78q-119 -129 -293 -129q-92 0 -152.5 25.5t-86 74.5t-33.5 92t-8 107v530 h-170z" />
<glyph unicode="&#x266;" horiz-adv-x="1148" d="M57 0v121h170v837q0 127 8.5 174.5t32.5 90.5q59 104 187.5 157.5t265.5 53.5q133 0 196.5 -53.5t63.5 -116.5q0 -39 -24.5 -61.5t-57.5 -22.5q-37 0 -58.5 22.5t-21.5 59.5q0 16 6 38q-43 12 -149 13q-150 0 -224.5 -69.5t-82.5 -151.5q-4 -29 -4 -140v-82q0 -8 1 -25.5 t1 -25.5q121 131 295 131q92 0 152 -26.5t86 -76.5t33 -92t7 -106v-528h170v-121h-483v121h170v522q0 39 -5.5 64.5t-22.5 57.5t-60 48t-113 16q-102 0 -163.5 -73.5t-61.5 -196.5v-438h170v-121h-484z" />
<glyph unicode="&#x267;" horiz-adv-x="1087" d="M57 0v121h170v835q0 125 8.5 173.5t30.5 91.5q53 102 168 157.5t238 55.5q100 0 167.5 -47.5t67.5 -120.5q0 -37 -23.5 -61.5t-58.5 -24.5q-37 0 -58.5 22.5t-21.5 57.5q0 23 9 40q-53 12 -117 13q-131 0 -196.5 -72t-71.5 -154q0 -6 -2 -63t-2 -72v-82q0 -8 1 -25.5 t1 -25.5q121 131 295 131q92 0 152 -26.5t86 -76.5t33 -92t7 -106v-733q0 -160 -110.5 -243t-243.5 -83q-96 0 -154.5 38t-58.5 102q0 35 23.5 59.5t56 24.5t58.5 -22.5t26 -61.5q0 -2 -1 -7.5t-1 -9.5q27 -2 77 -2q184 0 185 211v711q0 45 -3 68.5t-20.5 59.5t-61.5 52 t-116 16q-88 0 -156.5 -64.5t-68.5 -221.5v-422h170v-121h-484z" />
<glyph unicode="&#x268;" horiz-adv-x="649" d="M92 477q0 47 11.5 57.5t48.5 10.5h114v203q-2 39 -24.5 46t-114.5 7h-25v121l301 28v-405h121q29 0 41.5 -11.5t12.5 -54.5q0 -35 -13.5 -45t-40.5 -10h-121v-303h154v-121h-463v121h172v303h-119q-18 0 -28 3t-18.5 15t-8.5 35zM193 1315q0 47 32.5 77.5t75.5 30.5 t75 -30.5t32 -77.5q0 -45 -33 -76t-74 -31q-43 0 -75.5 31t-32.5 76z" />
<glyph unicode="&#x269;" horiz-adv-x="681" d="M41 801v121l313 28v-694q0 -80 32 -112.5t65 -32.5q12 0 23 4t19.5 13t14.5 18.5t10 25.5t7 26.5t5 29t3.5 25.5t2.5 25.5t1 20.5q2 45 57 45q35 0 48 -9t13 -36q0 -63 -15 -128t-64.5 -123t-124.5 -58q-29 0 -65 11t-78 36.5t-69.5 83t-27.5 137.5v490q0 35 -22.5 44 t-118.5 9h-29z" />
<glyph unicode="&#x26a;" horiz-adv-x="538" d="M63 0v96h134v746h-134v96h412v-96h-135v-746h135v-96h-412z" />
<glyph unicode="&#x26b;" horiz-adv-x="876" d="M135 733q10 14 26.5 36t22.5 29t14.5 19t14.5 13t13 6.5t18.5 5.5t19.5 1t29 1q14 0 43 -1t43 -1v377q-2 39 -24.5 47t-118.5 8h-29v119l309 30v-585q12 0 37 -1t37 -1q45 0 74 8h2l94 -72q-12 -16 -27.5 -36.5t-21.5 -29t-15.5 -19.5t-15.5 -14t-12 -7t-17.5 -4 t-20.5 -1.5t-30 -1.5q-55 0 -84 3v-541h170v-121h-479v121h172v547h-72q-68 -6 -76 -9h-2z" />
<glyph unicode="&#x26c;" horiz-adv-x="806" d="M49 748q0 78 73 135t222 59v281q-2 37 -25.5 44t-109.5 7h-35v119l307 30v-772q111 51 213 146l76 -90v-2q-141 -133 -289 -175v-409h172v-121h-479v121h170v389q-156 4 -225.5 76t-69.5 162zM170 745q0 -49 37 -89t123 -40h14v209h-45q-129 0 -129 -80z" />
<glyph unicode="&#x26d;" horiz-adv-x="575" d="M61 1274v119l308 30v-1495q0 -217 129 -217q6 0 18 1t19 1q0 4 -1.5 8.5t-1.5 8.5q0 39 25 61.5t59 22.5q33 0 57.5 -23.5t24.5 -60.5q0 -53 -47 -96.5t-131 -43.5q-104 0 -196.5 83t-92.5 245v1303q-2 37 -26.5 45t-114.5 8h-29z" />
</font>
</defs>
</svg>
