<?xml version="1.0" encoding="UTF-8" standalone="no"?>
<svg width="1199px" height="400px" viewBox="0 0 1199 400" version="1.1" xmlns="http://www.w3.org/2000/svg" xmlns:xlink="http://www.w3.org/1999/xlink" xmlns:sketch="http://www.bohemiancoding.com/sketch/ns">
    <title>Slice 1</title>
    <description>Created with Sketch (http://www.bohemiancoding.com/sketch)</description>
    <defs></defs>
    <g id="Page-1" stroke="none" stroke-width="1" fill="none" fill-rule="evenodd" sketch:type="MSPage">
        <g id="box-app" sketch:type="MSLayerGroup">
            <g id="Page-1" sketch:type="MSShapeGroup">
                <g id="Artboard-1">
                    <path d="M0,0 L0,400 L1200,400 L1200,0 L0,0 L0,0 Z" id="Rectangle-2" fill="#0091DD"></path>
                    <g id="Rectangle-1-copy-+-Rectangle-1-copy-+-Rectangle-1" transform="translate(483.000000, 130.000000)">
                        <path d="M0,103.377483 C0,83.1469791 16.4213679,66.7549669 36.6781517,66.7549669 L38.0735132,66.7549669 C38.3273196,38.5495146 61.7182169,15.7615894 90.5357143,15.7615894 C96.1023087,15.7615894 101.466417,16.6118882 106.500387,18.1872832 C115.89902,9.78670649 128.58113,4.63576159 142.535714,4.63576159 C170.025139,4.63576159 192.576614,24.6244535 194.817136,50.0673442 C216.483127,50.2397528 234,70.3055597 234,95.0331126 C234,119.86764 216.331238,140 194.535714,140 C193.922443,140 193.312439,139.98406 192.706019,139.952525 C192.081949,139.984048 191.453765,140 190.821848,140 L36.6781517,140 C16.4298569,140 0,123.603541 0,103.377483 L0,103.377483 Z" id="Rectangle-1-copy" fill="#B5C6DF"></path>
                        <path d="M0,99.6688742 C0,79.4383698 16.4213679,63.0463576 36.6781517,63.0463576 L38.0735132,63.0463576 C38.3273196,34.8409053 61.7182169,12.0529801 90.5357143,12.0529801 C96.1023087,12.0529801 101.466417,12.9032789 106.500387,14.4786739 C115.89902,6.07809722 128.58113,0.927152318 142.535714,0.927152318 C170.025139,0.927152318 192.576614,20.9158442 194.817136,46.358735 C216.483127,46.5311436 234,66.5969505 234,91.3245033 C234,116.159031 216.331238,136.291391 194.535714,136.291391 C193.922443,136.291391 193.312439,136.275451 192.706019,136.243916 C192.081949,136.275439 191.453765,136.291391 190.821848,136.291391 L36.6781517,136.291391 C16.4298569,136.291391 0,119.894932 0,99.6688742 L0,99.6688742 Z" id="Rectangle-1-copy" fill="#FCFCFC"></path>
                        <path d="M0,98.7417219 C0,78.5112175 16.4213679,62.1192053 36.6781517,62.1192053 L38.0735132,62.1192053 C38.3273196,33.913753 61.7182169,11.1258278 90.5357143,11.1258278 C96.1023087,11.1258278 101.466417,11.9761266 106.500387,13.5515216 C115.89902,5.1509449 128.58113,0 142.535714,0 C170.025139,0 192.576614,19.9886919 194.817136,45.4315826 C216.483127,45.6039913 234,65.6697981 234,90.397351 C234,115.231879 216.331238,135.364238 194.535714,135.364238 C193.922443,135.364238 193.312439,135.348299 192.706019,135.316764 C192.081949,135.348287 191.453765,135.364238 190.821848,135.364238 L36.6781517,135.364238 C16.4298569,135.364238 0,118.96778 0,98.7417219 L0,98.7417219 Z" id="Rectangle-1" fill="#F4F8FC"></path>
                    </g>
                </g>
            </g>
        </g>
    </g>
</svg>