<?xml version="1.0" encoding="UTF-8" standalone="no"?>
<svg width="800px" height="400px" viewBox="0 0 800 400" version="1.1" xmlns="http://www.w3.org/2000/svg" xmlns:xlink="http://www.w3.org/1999/xlink" xmlns:sketch="http://www.bohemiancoding.com/sketch/ns">
    <title>Slice 1</title>
    <description>Created with Sketch (http://www.bohemiancoding.com/sketch)</description>
    <defs></defs>
    <g id="Page-1" stroke="none" stroke-width="1" fill="none" fill-rule="evenodd" sketch:type="MSPage">
        <g id="tuch-logo" sketch:type="MSLayerGroup">
            <g id="Page-1" sketch:type="MSShapeGroup">
                <g id="Layer_1">
                    <path d="M0,0 L0,400 L800,400 L800,0 L0,0 L0,0 Z" id="Rectangle" fill="#D8655D"></path>
                    <g id="Shape-+-Shape" transform="translate(325.000000, 131.000000)" fill="#FFFFFF">
                        <path d="M0.5,124.162 L0.5,122.314 L13.098,122.314 L13.098,124.162 L7.821,124.162 L7.821,138.925 L5.754,138.925 L5.754,124.162 L0.5,124.162 Z M18.324,132.479 L18.324,122.314 L20.391,122.314 L20.391,132.418 C20.391,133.958 20.792,135.17 21.596,136.054 C22.399,136.938 23.558,137.379 25.072,137.379 C26.586,137.379 27.751,136.94 28.567,136.06 C29.382,135.181 29.791,133.967 29.791,132.418 L29.791,122.314 L31.858,122.314 L31.858,132.455 C31.858,134.563 31.277,136.219 30.118,137.423 C28.957,138.627 27.278,139.229 25.079,139.229 C22.896,139.229 21.225,138.627 20.064,137.423 C18.903,136.219 18.324,134.571 18.324,132.479 L18.324,132.479 Z M40.033,136.821 C38.4,135.216 37.583,133.152 37.583,130.632 C37.583,128.111 38.4,126.047 40.033,124.443 C41.667,122.838 43.696,122.035 46.119,122.035 C48.794,122.035 50.894,123.134 52.418,125.331 L50.703,126.304 C50.225,125.575 49.575,124.989 48.751,124.547 C47.928,124.105 47.051,123.884 46.119,123.884 C44.279,123.884 42.752,124.514 41.54,125.775 C40.328,127.036 39.722,128.655 39.722,130.633 C39.722,132.595 40.332,134.21 41.552,135.479 C42.772,136.748 44.294,137.381 46.118,137.381 C47.05,137.381 47.926,137.156 48.744,136.706 C49.563,136.257 50.215,135.675 50.702,134.962 L52.441,135.91 C50.836,138.123 48.728,139.229 46.118,139.229 C43.696,139.229 41.667,138.426 40.033,136.821 L40.033,136.821 Z M57.583,138.925 L57.583,122.315 L59.65,122.315 L59.65,129.453 L69.354,129.453 L69.354,122.315 L71.421,122.315 L71.421,138.925 L69.354,138.925 L69.354,131.301 L59.65,131.301 L59.65,138.925 L57.583,138.925 Z M77.804,132.479 L77.804,122.314 L79.871,122.314 L79.871,132.418 C79.871,133.958 80.272,135.17 81.076,136.054 C81.879,136.938 83.038,137.379 84.552,137.379 C86.066,137.379 87.231,136.94 88.047,136.06 C88.862,135.181 89.271,133.967 89.271,132.418 L89.271,122.314 L91.338,122.314 L91.338,132.455 C91.338,134.563 90.757,136.219 89.598,137.423 C88.437,138.627 86.758,139.229 84.558,139.229 C82.375,139.229 80.704,138.627 79.544,137.423 C78.383,136.219 77.804,134.571 77.804,132.479 L77.804,132.479 Z M95.372,138.925 L102.072,122.315 L104.637,122.315 L111.313,138.925 L108.955,138.925 L107.483,135.24 L99.214,135.24 L97.742,138.925 L95.372,138.925 Z M99.835,133.392 L103.349,124.43 L106.888,133.392 L99.835,133.392 Z M115.969,138.925 L115.969,122.315 L118.084,122.315 L127.642,135.29 L127.642,122.315 L129.709,122.315 L129.709,138.925 L127.715,138.925 L118.035,125.67 L118.035,138.925 L115.969,138.925 Z M137.873,136.846 C136.223,135.241 135.398,133.169 135.398,130.632 C135.398,128.094 136.218,126.028 137.86,124.43 C139.502,122.833 141.537,122.034 143.967,122.034 C146.614,122.034 148.769,123.063 150.426,125.121 L148.753,126.165 C148.219,125.469 147.523,124.914 146.67,124.502 C145.817,124.089 144.907,123.883 143.941,123.883 C142.098,123.883 140.57,124.515 139.357,125.778 C138.144,127.041 137.537,128.663 137.537,130.644 C137.537,132.61 138.148,134.228 139.369,135.498 C140.591,136.769 142.115,137.404 143.941,137.404 C144.857,137.404 145.714,137.225 146.509,136.867 C147.304,136.509 147.946,136.09 148.432,135.609 L148.432,132.224 L142.742,132.224 L142.742,130.375 L150.5,130.375 L150.5,136.378 C148.794,138.294 146.615,139.252 143.968,139.252 C141.553,139.253 139.522,138.45 137.873,136.846 L137.873,136.846 Z" id="Shape"></path>
                        <path d="M52.688,14.467 L110.088,6.4 L110.062,20.857 L89.013,23.815 L88.91,78.886 L73.605,81.036 L73.707,25.966 L52.661,28.924 L52.688,14.467 Z M61.934,30.846 L70.11,29.697 L69.899,78.898 L62.081,74.384 L61.934,30.846 Z M106.777,4.489 L49.252,12.484 L49.254,26.958 L40.912,22.228 L40.938,7.786 L40.912,7.771 L98.564,-0.253 L106.777,4.489 Z" id="Shape"></path>
                    </g>
                </g>
            </g>
        </g>
    </g>
</svg>