<?xml version="1.0" encoding="UTF-8" standalone="no"?>
<svg width="1200px" height="400px" viewBox="0 0 1200 400" version="1.1" xmlns="http://www.w3.org/2000/svg" xmlns:xlink="http://www.w3.org/1999/xlink" xmlns:sketch="http://www.bohemiancoding.com/sketch/ns">
    <title>Slice 1</title>
    <description>Created with Sketch (http://www.bohemiancoding.com/sketch)</description>
    <defs></defs>
    <g id="Page-1" stroke="none" stroke-width="1" fill="none" fill-rule="evenodd" sketch:type="MSPage">
        <g id="vined-logo" sketch:type="MSLayerGroup">
            <g id="Page-1" sketch:type="MSShapeGroup">
                <g id="Artboard-1">
                    <rect id="Rectangle-2" fill="#41A274" x="0" y="0" width="1200" height="400"></rect>
                    <g id="logo" transform="translate(502.000000, 170.000000)" fill="#FAFAFA">
                        <g id="Group" transform="translate(0.000000, 1.379310)">
                            <path d="M5.46001053,10.1206897 C4.86970175,10.5813793 4.26695088,11.0165517 3.65175789,11.4262069 C3.03587368,11.8358621 2.33012982,12.0406897 1.53590877,12.0406897 C0.739614035,12.0406897 0.342849123,11.3496552 0.342849123,9.96758621 C0.342849123,7.15310345 1.65134386,4.84965517 4.26764211,3.05724138 C6.78094737,1.21517241 9.78225965,0.293793103 13.2715789,0.293793103 C16.7595158,0.293793103 19.375814,1.72758621 21.1204737,4.59310345 C22.4538526,6.69241379 23.1215789,9.05931034 23.1215789,11.6951724 C23.1215789,14.3324138 22.8388667,16.8910345 22.2748246,19.3731034 C21.7094,21.8565517 21.1073404,24.4027586 20.4665719,27.0124138 C19.8244211,29.6234483 19.2223614,32.2724138 18.6583193,34.96 C18.093586,37.6468966 17.8115649,39.8496552 17.8115649,41.5627586 C17.8115649,43.2786207 17.8889825,44.4172414 18.0424351,44.98 C18.7606211,47.2324138 20.709193,48.3565517 23.8909158,48.3565517 C26.3019193,48.3565517 28.5587789,47.6655172 30.6628772,46.2834483 C36.4595158,42.4972414 40.1534386,34.9972414 41.7439544,23.7875862 C37.5889825,23.5324138 34.3948175,22.2131034 32.1635333,19.8331034 C29.9315579,17.4531034 28.8159158,14.2413793 28.8159158,10.1972414 C28.8159158,7.27931034 29.7649719,4.82344828 31.6630842,2.8262069 C33.5605053,0.829655172 36.1512281,-0.180689655 39.4352526,-0.206206897 C42.7178947,-0.231724138 45.1800491,0.906896552 46.8230982,3.21034483 C48.4647649,5.5137931 49.2852526,8.63655172 49.2852526,12.5772414 L49.2852526,14.3434483 C49.2852526,14.9572414 49.258986,15.5462069 49.2085263,16.1089655 C50.0801649,15.7 50.8246175,15.277931 51.4405018,14.8427586 C52.0556947,14.4082759 52.6715789,14.1896552 53.2874632,14.1896552 C54.3132456,14.1896552 54.8268281,14.6248276 54.8268281,15.4951724 C54.8268281,17.1848276 54.3001123,18.6565517 53.2494456,19.9096552 C52.1973965,21.1648276 50.7734667,22.1241379 48.9783474,22.7889655 C48.4647649,29.3917241 47.6318351,34.4344828 46.476793,37.9151724 C45.3224421,41.3958621 44.0913649,44.2862069 42.7835614,46.5896552 C41.4743754,48.8944828 39.794,50.9158621 37.7431263,52.6565517 C33.4333193,56.2910345 27.8661684,58.1062069 21.0437474,58.1062069 C16.4768035,58.1062069 12.8485474,56.9696552 10.1548316,54.6903448 C7.46111579,52.4137931 6.11460351,48.8172414 6.11460351,43.902069 C6.11460351,42.7262069 6.76919649,39.6158621 8.077,34.5744828 C9.38480351,29.5324138 10.4237193,25.3875862 11.1930561,22.1358621 C11.9630842,18.8862069 12.347407,16.3144828 12.347407,14.42 C12.347407,10.2737931 11.2953579,8.20068966 9.19264211,8.20068966 C8.47307368,8.20068966 7.81917193,8.40551724 7.23024561,8.81448276 C6.63993684,9.22551724 6.04893684,9.65931034 5.46001053,10.1206897 L5.46001053,10.1206897 L5.46001053,10.1206897 Z M42.4365649,15.8793103 C42.5388667,14.4468966 42.5907088,12.9882759 42.5907088,11.5027586 C42.5907088,8.17586207 41.8213719,6.51172414 40.282007,6.51172414 C39.2043825,6.46137931 38.6659158,7.3062069 38.6659158,9.04551724 C38.6659158,12.22 39.9225684,14.4972414 42.4365649,15.8793103 L42.4365649,15.8793103 L42.4365649,15.8793103 Z" id="Shape"></path>
                            <path d="M61.5593895,58.1068966 C56.4284035,58.1068966 53.8639474,53.322069 53.8639474,43.7496552 C53.8639474,38.5289655 54.5047158,33.7951724 55.7876351,29.5455172 C57.7887404,22.9944828 60.0456,19.717931 62.5595965,19.717931 C64.0471193,19.717931 65.2263544,20.7158621 66.1000667,22.7117241 C66.8175614,24.2482759 67.1507333,25.757931 67.0995825,27.2413793 C67.0995825,29.2903448 66.4843895,32.8986207 65.2526211,38.0668966 C64.0720035,42.5724138 63.4830772,45.362069 63.4830772,46.4358621 C63.4830772,47.5124138 63.7519649,48.2544828 64.2904316,48.6627586 C64.8295895,49.0737931 65.4703579,49.2786207 66.2148105,49.2786207 C66.9578807,49.2786207 67.8944947,48.7910345 69.0232702,47.8186207 C70.1513544,46.8475862 71.2808211,45.7848276 72.4089053,44.6331034 C73.5369895,43.4813793 74.5759053,42.42 75.5256526,41.4475862 C76.4747088,40.4751724 77.1279193,39.9875862 77.4880491,39.9875862 C78.2062351,39.9875862 78.5663649,40.8593103 78.5663649,42.597931 C78.5663649,46.182069 76.7574211,49.6751724 73.1402246,53.0786207 C69.5230281,56.482069 65.6625193,58.157931 61.5593895,58.1068966 L61.5593895,58.1068966 L61.5593895,58.1068966 Z" id="Shape"></path>
                            <path d="M83.8300667,18.197931 C85.6770281,18.197931 87.4203053,19.9641379 89.0633544,23.4958621 C91.4736667,20.9882759 94.4625368,19.7337931 98.0285825,19.7337931 C101.592554,19.7337931 102.435853,20.2268966 104.232354,21.7882759 C106.028856,23.3503448 107.759,26.1103448 107.759,28.9510345 C107.759,31.7917241 107.541954,33.4262069 106.796811,36.3441379 C106.053049,39.2613793 105.311361,43.1372414 105.173807,43.9427586 C104.551702,47.6227586 106.628151,47.8248276 107.157632,48.0213793 C112.226407,49.8882759 126.082074,40.162069 127.033204,39.1889655 C127.981568,38.217931 131.889081,41.9558621 128.349993,45.2813793 C122.397828,48.7634483 111.446702,57.737931 101.808909,57.3786207 C99.6363789,57.2965517 98.2207439,56.4586207 97.1776807,55.057931 C96.0426842,53.5331034 94.9339544,46.622069 96.4131825,39.1586207 C96.8825263,36.7910345 97.3491053,35.0903448 97.6069333,34.0151724 C97.8619965,32.94 97.9898737,31.8406897 97.9898737,30.7137931 C97.9898737,28.8710345 96.9246912,27.9489655 94.7984737,27.9489655 C92.6681088,27.9489655 90.6414281,29.5234483 88.7177404,32.6710345 C86.7940526,35.8186207 85.498,39.082069 84.8316561,42.4593103 L84.8316561,42.997931 C84.8316561,44.737931 85.1019263,46.5282759 85.6397018,48.3710345 C86.1788596,50.2137931 86.4477474,51.4944828 86.4477474,52.2096552 C86.4477474,53.9510345 84.2669228,55.6675862 79.9066561,57.3551724 C79.2389298,57.6110345 78.6493123,57.737931 78.1364211,57.737931 C76.8535018,57.737931 75.9680386,57.0724138 75.481414,55.7441379 C74.993407,54.4131034 74.7500947,52.3386207 74.7500947,49.5234483 C74.7500947,42.2565517 75.0314246,37.0089655 75.5968491,33.7841379 C76.366186,28.9737931 78.1101544,24.4937931 80.8294456,20.3475862 C81.7522351,18.9151724 82.7531333,18.197931 83.8300667,18.197931 L83.8300667,18.197931 L83.8300667,18.197931 Z" id="Shape"></path>
                            <path d="M133.97106,49.5075862 C137.97327,49.5075862 141.84553,47.9206897 145.591986,44.7475862 C146.976516,43.5703448 148.103909,42.4834483 148.97693,41.4855172 C149.84926,40.4875862 150.516295,39.9875862 150.978035,39.9875862 C151.69553,39.9875862 152.054968,40.7055172 152.054968,42.1386207 C152.054968,43.5703448 151.671337,45.1696552 150.901309,46.9351724 C150.131281,48.7006897 148.84767,50.4289655 147.053933,52.1186207 C142.640442,56.2662069 136.587358,58.3393103 128.891916,58.3393103 C122.786298,58.3393103 118.632018,56.1386207 116.427,51.7351724 C115.656281,50.1993103 115.271267,47.9986207 115.271267,45.1337931 C115.271267,42.2675862 115.836691,39.2855172 116.965467,36.1882759 C118.09286,33.0917241 119.594207,30.417931 121.467435,28.1655172 C123.338589,25.9131034 125.506972,24.1606897 127.969818,22.9055172 C130.432663,21.6517241 133.060712,21.0241379 135.85673,21.0241379 C138.652056,21.0241379 140.807305,21.7144828 142.321786,23.0965517 C143.834193,24.48 144.591088,26.2717241 144.591088,28.4717241 C144.591088,30.6737931 144.034649,32.4744828 142.93767,33.8841379 C140.305474,37.2634483 130.765144,44.36 126.71593,46.102069 L126.71593,46.102069 C127.027674,46.9641379 127.403702,47.5137931 128.891225,48.28 C130.379439,49.0482759 132.071565,49.4593103 133.97106,49.5075862 L133.97106,49.5075862 L133.97106,49.5075862 Z M132.661874,27.8572414 C129.994425,27.8572414 125.314119,34.5648276 126.116635,39.2227586 C126.333681,40.4951724 131.848298,35.3841379 133.250109,34.0241379 C134.799842,32.522069 135.289923,31.1903448 135.047993,29.7765517 C134.91113,28.9744828 134.251698,27.8572414 132.661874,27.8572414 L132.661874,27.8572414 L132.661874,27.8572414 Z" id="Shape"></path>
                            <path d="M195.458561,39.757931 C196.382733,39.757931 196.843091,40.9351724 196.843091,43.2896552 C196.843091,44.5689655 196.306007,46.1186207 195.227,47.9337931 C194.150758,49.7510345 192.751021,51.4144828 191.034011,52.9241379 C189.315618,54.4337931 187.404372,55.6758621 185.300274,56.6482759 C183.195484,57.6206897 181.143919,58.1055172 179.143505,58.1055172 C176.321912,58.1055172 174.474951,55.802069 173.602621,51.1965517 C170.525274,56.0593103 165.957639,58.4903448 159.904554,58.4903448 C156.211323,58.4903448 153.261853,57.3627586 151.055453,55.1124138 C148.850435,52.8586207 147.771428,50.1206897 147.823961,46.8972414 C147.823961,38.1951724 150.720898,31.3372414 156.518919,26.3206897 C160.520439,22.8910345 164.676793,21.1758621 168.9866,21.1758621 C170.934481,21.1758621 172.473154,21.3296552 173.602621,21.6365517 L175.372856,22.0972414 C177.476954,12.2193103 179.913533,5.61586207 182.684667,2.28827586 C183.607456,1.16344828 184.531628,0.59862069 185.454418,0.59862069 C186.94194,0.59862069 188.327161,1.62344828 189.610081,3.67034483 C190.737474,5.35931034 191.302898,6.81793103 191.302898,8.04689655 C191.302898,9.27517241 191.122488,10.4786207 190.76374,11.6551724 C190.404993,12.8331034 189.956386,13.9206897 189.419302,14.9186207 C188.880144,15.9165517 188.276702,16.8896552 187.609667,17.8358621 C186.942632,18.7841379 186.275596,19.7434483 185.608561,20.7151724 C184.121039,26.2441379 183.017839,32.4372414 182.300344,39.2965517 C182.093667,41.2413793 181.992056,42.8027586 181.992056,43.9786207 C181.992056,47.5117241 182.582365,49.277931 183.762291,49.277931 C185.096361,49.277931 188.327853,46.6165517 193.458839,41.2931034 C194.381628,40.2703448 195.046589,39.757931 195.458561,39.757931 L195.458561,39.757931 L195.458561,39.757931 Z M159.135909,44.3634483 C159.135909,48.3062069 160.597856,50.2751724 163.523133,50.2751724 C165.266411,50.2751724 167.022821,49.6124138 168.793056,48.2786207 C170.563291,46.9475862 171.93607,44.7227586 172.911393,41.6 C173.012312,36.9917241 173.552161,31.9262069 174.527484,26.397931 C170.422281,27.2172414 166.831351,29.2137931 163.752621,32.3855172 C160.674582,35.5606897 159.135909,39.5537931 159.135909,44.3634483 L159.135909,44.3634483 L159.135909,44.3634483 Z" id="Shape"></path>
                        </g>
                        <ellipse id="Oval" transform="translate(67.261797, 8.331554) rotate(16.463262) translate(-67.261797, -8.331554) " cx="67.3074092" cy="8.22050809" rx="5.22982257" ry="6.7855054"></ellipse>
                    </g>
                </g>
            </g>
        </g>
    </g>
</svg>